<svg width="12" height="12" viewBox="0 0 12 12" fill="none" xmlns="http://www.w3.org/2000/svg">
<path fill-rule="evenodd" clip-rule="evenodd" d="M2.75 6C2.75 4.20507 4.20507 2.75 6 2.75C7.79493 2.75 9.25 4.20507 9.25 6C9.25 7.79493 7.79493 9.25 6 9.25C4.20507 9.25 2.75 7.79493 2.75 6ZM6 1.25C3.37665 1.25 1.25 3.37665 1.25 6C1.25 8.62335 3.37665 10.75 6 10.75C8.62335 10.75 10.75 8.62335 10.75 6C10.75 3.37665 8.62335 1.25 6 1.25ZM6.75 4.5C6.75 4.08579 6.41421 3.75 6 3.75C5.58579 3.75 5.25 4.08579 5.25 4.5V6C5.25 6.19891 5.32902 6.38968 5.46967 6.53033L6.46967 7.53033C6.76256 7.82322 7.23744 7.82322 7.53033 7.53033C7.82322 7.23744 7.82322 6.76256 7.53033 6.46967L6.75 5.68934V4.5Z" fill="#515164"/>
</svg>
