<svg width="12" height="12" viewBox="0 0 12 12" fill="none" xmlns="http://www.w3.org/2000/svg">
<path fill-rule="evenodd" clip-rule="evenodd" d="M7.46967 8.53033C7.76256 8.82322 8.23744 8.82322 8.53033 8.53033C8.82322 8.23744 8.82322 7.76256 8.53033 7.46967L7.06066 6L8.53033 4.53033C8.82322 4.23744 8.82322 3.76256 8.53033 3.46967C8.23744 3.17678 7.76256 3.17678 7.46967 3.46967L6 4.93934L4.53033 3.46967C4.23744 3.17678 3.76256 3.17678 3.46967 3.46967C3.17678 3.76256 3.17678 4.23744 3.46967 4.53033L4.93934 6L3.46967 7.46967C3.17678 7.76256 3.17678 8.23744 3.46967 8.53033C3.76256 8.82322 4.23744 8.82322 4.53033 8.53033L6 7.06066L7.46967 8.53033Z" fill="#515164"/>
</svg>
