<svg width="12" height="12" viewBox="0 0 12 12" fill="none" xmlns="http://www.w3.org/2000/svg">
<path fill-rule="evenodd" clip-rule="evenodd" d="M6 1.25C3.92893 1.25 2.25 2.92893 2.25 5C2.25 6.22657 2.83889 7.31561 3.74936 7.99979C2.918 8.31106 2.13832 8.80101 1.46967 9.46966C1.17678 9.76256 1.17678 10.2374 1.46967 10.5303C1.76256 10.8232 2.23744 10.8232 2.53033 10.5303C4.44658 8.61408 7.55342 8.61408 9.46967 10.5303C9.76256 10.8232 10.2374 10.8232 10.5303 10.5303C10.8232 10.2374 10.8232 9.76256 10.5303 9.46966C9.86168 8.80101 9.082 8.31106 8.25064 7.99979C9.16111 7.31561 9.75 6.22657 9.75 5C9.75 2.92893 8.07107 1.25 6 1.25ZM3.75 5C3.75 3.75736 4.75736 2.75 6 2.75C7.24264 2.75 8.25 3.75736 8.25 5C8.25 6.24264 7.24264 7.25 6 7.25C4.75736 7.25 3.75 6.24264 3.75 5Z" fill="#515164"/>
</svg>
