<svg width="12" height="12" viewBox="0 0 12 12" fill="none" xmlns="http://www.w3.org/2000/svg">
<path d="M5 2.25C4.0335 2.25 3.25 3.0335 3.25 4C3.25 4.41421 3.58579 4.75 4 4.75C4.41421 4.75 4.75 4.41421 4.75 4C4.75 3.86193 4.86193 3.75 5 3.75H6.5C6.91421 3.75 7.25 4.08579 7.25 4.5C7.25 4.91421 6.91421 5.25 6.5 5.25H6C5.0335 5.25 4.25 6.0335 4.25 7C4.25 7.41421 4.58579 7.75 5 7.75C5.41421 7.75 5.75 7.41421 5.75 7C5.75 6.86193 5.86193 6.75 6 6.75H6.5C7.74264 6.75 8.75 5.74264 8.75 4.5C8.75 3.25736 7.74264 2.25 6.5 2.25H5Z" fill="#515164"/>
<path d="M5.75 9C5.75 8.58579 5.41421 8.25 5 8.25C4.58579 8.25 4.25 8.58579 4.25 9C4.25 9.41421 4.58579 9.75 5 9.75C5.41421 9.75 5.75 9.41421 5.75 9Z" fill="#515164"/>
</svg>
