<svg width="24" height="24" viewBox="0 0 24 24" fill="none" xmlns="http://www.w3.org/2000/svg">
<path d="M3.02193 8.125L20.9781 8.125C20.946 7.46991 20.8671 7.01902 20.673 6.63803C20.3854 6.07354 19.9265 5.6146 19.362 5.32698C18.7202 5 17.8802 5 16.2 5H7.8C6.11984 5 5.27976 5 4.63803 5.32698C4.07354 5.6146 3.6146 6.07354 3.32698 6.63803C3.13286 7.01902 3.05398 7.46991 3.02193 8.125Z" fill="black"/>
<path fill-rule="evenodd" clip-rule="evenodd" d="M21 9.875L3 9.875V14.2C3 15.8802 3 16.7202 3.32698 17.362C3.6146 17.9265 4.07354 18.3854 4.63803 18.673C5.27976 19 6.11984 19 7.8 19H16.2C17.8802 19 18.7202 19 19.362 18.673C19.9265 18.3854 20.3854 17.9265 20.673 17.362C21 16.7202 21 15.8802 21 14.2V9.875ZM13.125 15C13.125 14.5168 13.5168 14.125 14 14.125H17C17.4832 14.125 17.875 14.5168 17.875 15C17.875 15.4832 17.4832 15.875 17 15.875H14C13.5168 15.875 13.125 15.4832 13.125 15Z" fill="black"/>
</svg>
