<svg width="24" height="24" viewBox="0 0 24 24" fill="none" xmlns="http://www.w3.org/2000/svg">
<path fill-rule="evenodd" clip-rule="evenodd" d="M11.7149 3.33206C11.8945 3.24222 12.1055 3.24222 12.2851 3.33206C12.449 3.41398 12.5293 3.55009 12.5557 3.59533C12.5854 3.64615 12.6141 3.70731 12.6353 3.75234C12.637 3.75592 12.6386 3.7594 12.6402 3.76277L13.0532 4.64033L13.9667 4.78039C13.9703 4.78094 13.9741 4.78151 13.978 4.7821C14.0248 4.78925 14.0917 4.79944 14.1495 4.81402C14.2056 4.82816 14.3569 4.86905 14.4797 5.00509C14.6089 5.14804 14.6652 5.33817 14.6419 5.52254C14.6201 5.69635 14.5273 5.81409 14.491 5.85856C14.4537 5.90439 14.4065 5.95253 14.3722 5.98746C14.3695 5.99026 14.3668 5.99298 14.3643 5.9956L13.689 6.68543L13.8493 7.66582C13.8499 7.66949 13.8506 7.67328 13.8512 7.67717C13.8594 7.72685 13.8703 7.79339 13.8747 7.85199C13.8788 7.90617 13.8886 8.05654 13.8081 8.21206C13.7206 8.38087 13.5594 8.50928 13.3608 8.54791C13.1754 8.58394 13.026 8.52048 12.9761 8.49875C12.9217 8.47506 12.8624 8.44229 12.8204 8.41907C12.8169 8.41716 12.8136 8.41531 12.8104 8.41354L12 7.96655L11.1896 8.41354C11.1864 8.41531 11.1831 8.41716 11.1796 8.41907C11.1376 8.44229 11.0783 8.47506 11.0239 8.49875C10.974 8.52048 10.8246 8.58394 10.6392 8.54791C10.4406 8.50928 10.2794 8.38087 10.1919 8.21206C10.1114 8.05654 10.1212 7.90617 10.1253 7.85199C10.1297 7.79339 10.1406 7.72685 10.1488 7.67717C10.1494 7.67328 10.1501 7.66949 10.1507 7.66582L10.311 6.68543L9.63575 5.9956C9.63318 5.99298 9.63052 5.99026 9.62777 5.98746C9.59353 5.95253 9.54634 5.90439 9.50895 5.85856C9.47268 5.81409 9.37994 5.69635 9.35805 5.52254C9.33484 5.33817 9.39114 5.14804 9.52026 5.00509C9.64313 4.86905 9.7944 4.82816 9.85049 4.81402C9.90827 4.79944 9.97515 4.78925 10.022 4.7821C10.0259 4.78151 10.0297 4.78094 10.0333 4.78039L10.9468 4.64033L11.3598 3.76277C11.3614 3.7594 11.363 3.75592 11.3647 3.75233C11.3859 3.7073 11.4146 3.64614 11.4443 3.59533C11.4707 3.55009 11.551 3.41398 11.7149 3.33206Z" fill="black"/>
<path fill-rule="evenodd" clip-rule="evenodd" d="M5.36191 6.50854C5.54155 6.41869 5.75255 6.41869 5.9322 6.50854C6.09601 6.59046 6.17639 6.72656 6.20279 6.7718C6.23246 6.82262 6.26119 6.88378 6.28234 6.92882C6.28402 6.9324 6.28566 6.93588 6.28724 6.93924L6.70022 7.8168L7.61379 7.95686C7.61738 7.95741 7.62112 7.95798 7.625 7.95857C7.6719 7.96572 7.73879 7.97592 7.79657 7.99049C7.85265 8.00463 8.00392 8.04553 8.12679 8.18156C8.25591 8.32451 8.31221 8.51465 8.289 8.69901C8.26711 8.87282 8.17437 8.99057 8.1381 9.03503C8.10071 9.08086 8.05352 9.129 8.01928 9.16393C8.01654 9.16673 8.01387 9.16945 8.0113 9.17207L7.33607 9.86191L7.49638 10.8423C7.49698 10.846 7.49761 10.8498 7.49825 10.8536C7.5064 10.9033 7.51733 10.9699 7.52175 11.0285C7.52584 11.0826 7.53565 11.233 7.45511 11.3885C7.3677 11.5573 7.20644 11.6858 7.00781 11.7244C6.82249 11.7604 6.67309 11.697 6.62315 11.6752C6.56871 11.6515 6.50942 11.6188 6.46742 11.5955C6.46396 11.5936 6.46062 11.5918 6.4574 11.59L5.64705 11.143L4.8367 11.59C4.83348 11.5918 4.83014 11.5936 4.82668 11.5955C4.78468 11.6188 4.72539 11.6515 4.67095 11.6752C4.62102 11.697 4.47162 11.7604 4.2863 11.7244C4.08766 11.6858 3.9264 11.5573 3.83899 11.3885C3.75845 11.233 3.76826 11.0826 3.77235 11.0285C3.77677 10.9699 3.7877 10.9033 3.79586 10.8536C3.7965 10.8498 3.79712 10.846 3.79772 10.8423L3.95803 9.86191L3.2828 9.17207C3.28023 9.16945 3.27757 9.16673 3.27482 9.16393C3.24058 9.12901 3.19339 9.08087 3.156 9.03503C3.11973 8.99057 3.02699 8.87282 3.0051 8.69901C2.98189 8.51465 3.03819 8.32451 3.16731 8.18156C3.29018 8.04553 3.44146 8.00463 3.49754 7.99049C3.55532 7.97592 3.6222 7.96572 3.6691 7.95857C3.67298 7.95798 3.67672 7.95741 3.68031 7.95686L4.59388 7.8168L5.00686 6.93924C5.00845 6.93587 5.01008 6.93239 5.01177 6.92881C5.03292 6.88377 5.06165 6.82262 5.09131 6.7718C5.11771 6.72656 5.19809 6.59046 5.36191 6.50854Z" fill="black"/>
<path fill-rule="evenodd" clip-rule="evenodd" d="M12 10.147C12.5848 10.147 13.0588 10.6211 13.0588 11.2059V19.6765C13.0588 20.2612 12.5848 20.7353 12 20.7353C11.4152 20.7353 10.9412 20.2612 10.9412 19.6765V11.2059C10.9412 10.6211 11.4152 10.147 12 10.147Z" fill="black"/>
<path fill-rule="evenodd" clip-rule="evenodd" d="M4.64256 14.0475C4.82748 13.4927 5.42712 13.1929 5.98188 13.3779C7.44133 13.8643 9.88235 16.0116 9.88235 19.6765C9.88235 20.2612 9.4083 20.7353 8.82352 20.7353C8.23875 20.7353 7.7647 20.2612 7.7647 19.6765C7.7647 16.9883 5.97043 15.6062 5.31222 15.3868C4.75746 15.2019 4.45764 14.6023 4.64256 14.0475Z" fill="black"/>
<path fill-rule="evenodd" clip-rule="evenodd" d="M19.3574 14.0475C19.1725 13.4927 18.5729 13.1929 18.0181 13.3779C16.5587 13.8643 14.1176 16.0116 14.1176 19.6765C14.1176 20.2612 14.5917 20.7353 15.1765 20.7353C15.7612 20.7353 16.2353 20.2612 16.2353 19.6765C16.2353 16.9883 18.0296 15.6062 18.6878 15.3868C19.2425 15.2019 19.5424 14.6023 19.3574 14.0475Z" fill="black"/>
<path d="M18.6381 6.50854C18.4584 6.41869 18.2474 6.41869 18.0678 6.50854C17.904 6.59046 17.8236 6.72656 17.7972 6.7718C17.7675 6.82262 17.7388 6.88377 17.7177 6.92881L17.7128 6.93924L17.2998 7.8168L16.3862 7.95686L16.375 7.95857C16.3281 7.96572 16.2612 7.97592 16.2034 7.99049C16.1474 8.00463 15.9961 8.04553 15.8732 8.18156C15.7441 8.32451 15.6878 8.51465 15.711 8.69901C15.7329 8.87282 15.8256 8.99057 15.8619 9.03503C15.8993 9.08087 15.9465 9.12901 15.9807 9.16393L15.9887 9.17207L16.6639 9.86191L16.5036 10.8423L16.5018 10.8536C16.4936 10.9033 16.4827 10.9699 16.4782 11.0285C16.4742 11.0826 16.4643 11.233 16.5449 11.3885C16.6323 11.5573 16.7936 11.6858 16.9922 11.7244C17.1775 11.7604 17.3269 11.697 17.3769 11.6752C17.4313 11.6515 17.4906 11.6188 17.5326 11.5955L17.5426 11.59L18.3529 11.143L19.1633 11.59L19.1733 11.5955C19.2153 11.6188 19.2746 11.6515 19.329 11.6752C19.379 11.697 19.5284 11.7604 19.7137 11.7244C19.9123 11.6858 20.0736 11.5573 20.161 11.3885C20.2415 11.233 20.2317 11.0826 20.2276 11.0285C20.2232 10.9699 20.2123 10.9033 20.2041 10.8536L20.2023 10.8423L20.042 9.86191L20.7172 9.17207L20.7252 9.16393C20.7594 9.129 20.8066 9.08086 20.844 9.03503C20.8803 8.99057 20.973 8.87282 20.9949 8.69901C21.0181 8.51465 20.9618 8.32451 20.8327 8.18156C20.7098 8.04553 20.5585 8.00463 20.5025 7.99049C20.4447 7.97592 20.3778 7.96572 20.3309 7.95857L20.3197 7.95686L19.4061 7.8168L18.9931 6.93924L18.9882 6.92882C18.9671 6.88378 18.9384 6.82262 18.9087 6.7718C18.8823 6.72656 18.8019 6.59046 18.6381 6.50854Z" fill="black"/>
</svg>
