<svg width="24" height="24" viewBox="0 0 24 24" fill="none" xmlns="http://www.w3.org/2000/svg">
<path fill-rule="evenodd" clip-rule="evenodd" d="M12.0004 4.34998C16.2252 4.35019 19.6498 7.77552 19.6498 12.0004C19.6496 16.225 16.225 19.6496 12.0004 19.6498C7.77552 19.6498 4.35019 16.2252 4.34998 12.0004C4.34998 7.77539 7.77539 4.34998 12.0004 4.34998ZM15.184 13.4535C14.8821 13.0762 14.3308 13.015 13.9535 13.3168C12.8116 14.2302 11.1892 14.23 10.0472 13.3168C9.66993 13.0149 9.11868 13.0763 8.81677 13.4535C8.51514 13.8308 8.57643 14.3811 8.95349 14.683C10.7346 16.1078 13.2661 16.1079 15.0472 14.683C15.424 14.3811 15.4853 13.8307 15.184 13.4535ZM10.0004 9.12537C9.51712 9.12537 9.12537 9.51712 9.12537 10.0004V11.0004C9.12556 11.4834 9.51724 11.8754 10.0004 11.8754C10.4833 11.8752 10.8752 11.4833 10.8754 11.0004V10.0004C10.8754 9.51724 10.4834 9.12557 10.0004 9.12537ZM14.0004 9.12537C13.5171 9.12537 13.1254 9.51712 13.1254 10.0004V11.0004C13.1256 11.4834 13.5172 11.8754 14.0004 11.8754C14.4833 11.8752 14.8752 11.4833 14.8754 11.0004V10.0004C14.8754 9.51724 14.4834 9.12557 14.0004 9.12537Z" fill="black"/>
</svg>
