<svg width="24" height="24" viewBox="0 0 24 24" fill="none" xmlns="http://www.w3.org/2000/svg">
<path d="M4 8C4 7.44772 4.44772 7 5 7H19C19.5523 7 20 7.44772 20 8C20 8.55228 19.5523 9 19 9H5C4.44772 9 4 8.55228 4 8Z" fill="#515164"/>
<path d="M4 12C4 11.4477 4.44772 11 5 11H19C19.5523 11 20 11.4477 20 12C20 12.5523 19.5523 13 19 13H5C4.44772 13 4 12.5523 4 12Z" fill="#515164"/>
<path d="M4 16C4 15.4477 4.44772 15 5 15H11C11.5523 15 12 15.4477 12 16C12 16.5523 11.5523 17 11 17H5C4.44772 17 4 16.5523 4 16Z" fill="#515164"/>
</svg>
