<svg width="24" height="24" viewBox="0 0 24 24" fill="none" xmlns="http://www.w3.org/2000/svg">
<path d="M3 8.85714C3 6.7269 4.7269 5 6.85714 5H17C19.2091 5 21 6.79086 21 9V15C21 17.2091 19.2091 19 17 19H12.3333L9.70994 20.9675C8.61785 21.7866 7.04426 21.2951 6.61257 20L6.26346 18.9526C4.4142 18.6613 3 17.0604 3 15.1293V8.85714ZM6.85714 7C5.83147 7 5 7.83147 5 8.85714V15.1293C5 16.1625 5.83753 17 6.87068 17C7.37834 17 7.82904 17.3248 7.98958 17.8065L8.50994 19.3675L11.1333 17.4C11.4795 17.1404 11.9006 17 12.3333 17H17C18.1046 17 19 16.1046 19 15V9C19 7.89543 18.1046 7 17 7H6.85714Z" fill="#515164"/>
<path d="M15 10C15 10.5523 14.5523 11 14 11C13.4477 11 13 10.5523 13 10C13 9.44772 13.4477 9 14 9C14.5523 9 15 9.44772 15 10Z" fill="#515164"/>
<path d="M11 10C11 10.5523 10.5523 11 10 11C9.44772 11 9 10.5523 9 10C9 9.44772 9.44772 9 10 9C10.5523 9 11 9.44772 11 10Z" fill="#515164"/>
<path d="M9.31672 12.7236C11.0059 11.879 12.9941 11.879 14.6833 12.7236L15.4472 13.1056C15.9412 13.3526 16.1414 13.9532 15.8944 14.4472C15.6474 14.9412 15.0468 15.1414 14.5528 14.8944L13.7889 14.5125C12.6627 13.9494 11.3373 13.9494 10.2111 14.5125L9.44721 14.8944C8.95324 15.1414 8.35256 14.9412 8.10557 14.4472C7.85858 13.9532 8.05881 13.3526 8.55279 13.1056L9.31672 12.7236Z" fill="#515164"/>
</svg>
