<svg width="24" height="24" viewBox="0 0 24 24" fill="none" xmlns="http://www.w3.org/2000/svg">
<path d="M5 14C5.55228 14 6 14.4477 6 15V16C6 17.1046 6.89543 18 8 18H16C17.1046 18 18 17.1046 18 16V15C18 14.4477 18.4477 14 19 14C19.5523 14 20 14.4477 20 15V16C20 18.2091 18.2091 20 16 20H8C5.79086 20 4 18.2091 4 16V15C4 14.4477 4.44772 14 5 14Z" fill="#515164"/>
<path d="M11.2929 14.7071C11.6834 15.0976 12.3166 15.0976 12.7071 14.7071L15.7071 11.7071C16.0976 11.3166 16.0976 10.6834 15.7071 10.2929C15.3166 9.90237 14.6834 9.90237 14.2929 10.2929L13 11.5858V5C13 4.44771 12.5523 4 12 4C11.4477 4 11 4.44771 11 5V11.5858L9.70711 10.2929C9.31658 9.90237 8.68342 9.90237 8.29289 10.2929C7.90237 10.6834 7.90237 11.3166 8.29289 11.7071L11.2929 14.7071Z" fill="#515164"/>
</svg>
