<svg width="24" height="24" viewBox="0 0 24 24" fill="none" xmlns="http://www.w3.org/2000/svg">
<path d="M16 9C16 8.44772 16.4477 8 17 8H17.5C18.3284 8 19 8.67157 19 9.5C19 10.3284 18.3284 11 17.5 11C16.9477 11 16.5 11.4477 16.5 12C16.5 12.5523 16.9477 13 17.5 13C18.3284 13 19 13.6716 19 14.5C19 15.3284 18.3284 16 17.5 16H17C16.4477 16 16 15.5523 16 15C16 14.4477 15.5523 14 15 14C14.4477 14 14 14.4477 14 15C14 16.6569 15.3431 18 17 18H17.5C19.433 18 21 16.433 21 14.5C21 13.5207 20.5978 12.6353 19.9495 12C20.5978 11.3647 21 10.4793 21 9.5C21 7.567 19.433 6 17.5 6H17C15.3431 6 14 7.34315 14 9C14 9.55228 14.4477 10 15 10C15.5523 10 16 9.55228 16 9Z" fill="#515164"/>
<path d="M4 6C4.55228 6 5 6.44772 5 7V11H10V7C10 6.44772 10.4477 6 11 6C11.5523 6 12 6.44772 12 7V17C12 17.5523 11.5523 18 11 18C10.4477 18 10 17.5523 10 17V13H5V17C5 17.5523 4.55228 18 4 18C3.44772 18 3 17.5523 3 17V7C3 6.44772 3.44772 6 4 6Z" fill="#515164"/>
</svg>
