<svg width="24" height="24" viewBox="0 0 24 24" fill="none" xmlns="http://www.w3.org/2000/svg">
<path fill-rule="evenodd" clip-rule="evenodd" d="M7.16146 3H9.72766C10.7977 3 11.7845 3.57714 12.3091 4.50974C12.4794 4.81259 12.7999 5 13.1474 5L15.2413 5C16.0463 4.99999 16.7106 4.99998 17.2518 5.0442C17.8139 5.09012 18.3306 5.18869 18.816 5.43598C19.5686 5.81947 20.1805 6.43139 20.564 7.18404C20.8113 7.66938 20.9099 8.18608 20.9558 8.74818C21 9.28937 21 9.95372 21 10.7587V13.2413C21 14.0463 21 14.7106 20.9558 15.2518C20.9099 15.8139 20.8113 16.3306 20.564 16.816C20.1805 17.5686 19.5686 18.1805 18.816 18.564C18.3306 18.8113 17.8139 18.9099 17.2518 18.9558C17.1707 18.9624 17.0867 18.9681 16.9999 18.9729L17 19H7L7.00007 18.9729C6.9133 18.9681 6.82935 18.9624 6.74818 18.9558C6.18608 18.9099 5.66938 18.8113 5.18404 18.564C4.43139 18.1805 3.81947 17.5686 3.43598 16.816C3.18869 16.3306 3.09012 15.8139 3.0442 15.2518C2.99998 14.7106 2.99999 14.0463 3 13.2414V7.16146C2.99998 6.63433 2.99997 6.17954 3.03057 5.80497C3.06287 5.40963 3.13419 5.01641 3.32698 4.63803C3.6146 4.07354 4.07354 3.6146 4.63803 3.32698C5.01641 3.13419 5.40963 3.06287 5.80497 3.03057C6.17954 2.99997 6.63433 2.99998 7.16146 3ZM17.089 16.9625C16.9361 16.9749 16.768 16.9833 16.5791 16.9888C16.0683 15.8277 15.1289 14.8977 13.9612 14.3993C14.8898 13.77 15.5 12.7062 15.5 11.5C15.5 9.567 13.933 8 12 8C10.067 8 8.5 9.567 8.5 11.5C8.5 12.7062 9.11021 13.77 10.0388 14.3993C8.87107 14.8977 7.93166 15.8277 7.42094 16.9888C7.23201 16.9833 7.0639 16.9749 6.91104 16.9625C6.47263 16.9266 6.24842 16.8617 6.09202 16.782C5.7157 16.5903 5.40974 16.2843 5.21799 15.908C5.1383 15.7516 5.07337 15.5274 5.03755 15.089C5.00078 14.6389 5 14.0566 5 13.2V7.2C5 6.62345 5.00078 6.25118 5.02393 5.96784C5.04613 5.69618 5.0838 5.59546 5.109 5.54601C5.20487 5.35785 5.35785 5.20487 5.54601 5.109C5.59546 5.0838 5.69618 5.04613 5.96784 5.02393C6.25118 5.00078 6.62345 5 7.2 5H9.72766C10.0751 5 10.3956 5.18742 10.5659 5.49026C11.0905 6.42286 12.0773 7 13.1474 7H15.2C16.0566 7 16.6389 7.00078 17.089 7.03755C17.5274 7.07337 17.7516 7.1383 17.908 7.21799C18.2843 7.40974 18.5903 7.7157 18.782 8.09202C18.8617 8.24842 18.9266 8.47263 18.9625 8.91104C18.9992 9.36113 19 9.94342 19 10.8V13.2C19 14.0566 18.9992 14.6389 18.9625 15.089C18.9266 15.5274 18.8617 15.7516 18.782 15.908C18.5903 16.2843 18.2843 16.5903 17.908 16.782C17.7516 16.8617 17.5274 16.9266 17.089 16.9625ZM12 16C12.8885 16 13.6868 16.3863 14.2361 17H9.76389C10.3132 16.3863 11.1115 16 12 16ZM10.5 11.5C10.5 10.6716 11.1716 10 12 10C12.8284 10 13.5 10.6716 13.5 11.5C13.5 12.3284 12.8284 13 12 13C11.1716 13 10.5 12.3284 10.5 11.5Z" fill="#515164"/>
</svg>
