<svg width="24" height="24" viewBox="0 0 24 24" fill="none" xmlns="http://www.w3.org/2000/svg">
<path d="M17.7071 5.29289C17.3166 4.90237 16.6834 4.90237 16.2929 5.29289C15.9024 5.68342 15.9024 6.31658 16.2929 6.70711L16.5858 7H13.1627C11.7836 7 10.5017 7.71048 9.77075 8.88L9.03325 10.06C8.66778 10.6448 8.02684 11 7.33726 11H5C4.44772 11 4 11.4477 4 12C4 12.5523 4.44772 13 5 13H7.33726C8.02684 13 8.66778 13.3552 9.03325 13.94L9.77075 15.12C10.5017 16.2895 11.7836 17 13.1627 17H16.5858L16.2929 17.2929C15.9024 17.6834 15.9024 18.3166 16.2929 18.7071C16.6834 19.0976 17.3166 19.0976 17.7071 18.7071L19.7071 16.7071C20.0976 16.3166 20.0976 15.6834 19.7071 15.2929L17.7071 13.2929C17.3166 12.9024 16.6834 12.9024 16.2929 13.2929C15.9024 13.6834 15.9024 14.3166 16.2929 14.7071L16.5858 15H13.1627C12.4732 15 11.8322 14.6448 11.4667 14.06L10.7293 12.88C10.5215 12.5477 10.2694 12.2524 9.98311 12C10.2694 11.7476 10.5215 11.4523 10.7292 11.12L11.4667 9.94C11.8322 9.35524 12.4732 9 13.1627 9H16.5858L16.2929 9.29289C15.9024 9.68342 15.9024 10.3166 16.2929 10.7071C16.6834 11.0976 17.3166 11.0976 17.7071 10.7071L19.7071 8.70711C20.0976 8.31658 20.0976 7.68342 19.7071 7.29289L17.7071 5.29289Z" fill="#515164"/>
</svg>
