<svg width="24" height="24" viewBox="0 0 24 24" fill="none" xmlns="http://www.w3.org/2000/svg">
<path d="M11.3929 4.14353C11.7755 3.95216 12.2244 3.95216 12.6071 4.14353C12.9414 4.31072 13.1148 4.59352 13.1893 4.72105C13.2696 4.85858 13.3506 5.03096 13.4244 5.18795C13.4288 5.19729 13.4332 5.20658 13.4375 5.2158L14.9728 8.47808L18.3875 9.0016C18.3976 9.00315 18.4078 9.00471 18.4181 9.00629C18.5817 9.03131 18.7677 9.05975 18.9219 9.09864C19.0735 9.13689 19.3893 9.22777 19.6403 9.50572C19.9172 9.81228 20.0391 10.2216 19.9889 10.6198C19.944 10.9768 19.7522 11.2287 19.6531 11.3501C19.5523 11.4737 19.4199 11.6089 19.3006 11.7307C19.2934 11.738 19.2863 11.7453 19.2792 11.7526L16.7817 14.304L17.3729 17.9192C17.3745 17.9292 17.3761 17.9392 17.3778 17.9493C17.4062 18.1224 17.437 18.3108 17.449 18.47C17.4605 18.6216 17.4759 18.9398 17.3106 19.2589C17.1226 19.622 16.7773 19.8956 16.3549 19.9778C15.9777 20.0511 15.6636 19.9238 15.5258 19.8638C15.3802 19.8004 15.2147 19.7091 15.0682 19.6282C15.059 19.6231 15.0499 19.6181 15.0409 19.6131L12 17.9357L8.95907 19.6131C8.95006 19.6181 8.94097 19.6231 8.9318 19.6282C8.78521 19.7091 8.61981 19.8004 8.47414 19.8638C8.33636 19.9238 8.02225 20.0511 7.64508 19.9778C7.22268 19.8956 6.87736 19.622 6.68934 19.2589C6.52404 18.9398 6.53949 18.6216 6.55093 18.47C6.56295 18.3108 6.5938 18.1224 6.62216 17.9493C6.62381 17.9392 6.62545 17.9292 6.62708 17.9192L7.21823 14.304L4.72079 11.7526C4.7137 11.7453 4.70655 11.738 4.69935 11.7307C4.58004 11.6089 4.44764 11.4737 4.34687 11.3501C4.24779 11.2287 4.05596 10.9768 4.01101 10.6198C3.96088 10.2216 4.08274 9.81228 4.35964 9.50572C4.61069 9.22777 4.92642 9.13689 5.07807 9.09864C5.23225 9.05975 5.41821 9.03131 5.58183 9.00629C5.59214 9.00471 5.60237 9.00315 5.61249 9.0016L9.02719 8.47808L10.5624 5.2158C10.5668 5.20658 10.5711 5.19729 10.5755 5.18794C10.6493 5.03096 10.7304 4.85858 10.8107 4.72105C10.8851 4.59352 11.0586 4.31072 11.3929 4.14353ZM12 6.85804L10.7481 9.51816C10.7459 9.52291 10.7431 9.52899 10.7398 9.53626C10.7067 9.60879 10.6198 9.79945 10.4791 9.95818C10.3611 10.0915 10.217 10.2022 10.0535 10.282C9.85497 10.3788 9.64069 10.4086 9.56578 10.4191C9.5585 10.4201 9.55254 10.4209 9.54803 10.4216L6.65134 10.8657L8.77754 13.0379C8.78121 13.0416 8.78592 13.0463 8.79152 13.0519C8.84795 13.1082 8.99548 13.2555 9.09546 13.4438C9.17793 13.5992 9.22982 13.7678 9.24978 13.9404C9.2737 14.1473 9.23849 14.349 9.22438 14.4298C9.22296 14.438 9.22175 14.4449 9.22083 14.4505L8.72944 17.4557L11.2405 16.0706C11.2444 16.0684 11.2497 16.0654 11.2561 16.0618C11.3219 16.0243 11.5109 15.9165 11.727 15.8721C11.9072 15.835 12.0928 15.835 12.2729 15.8721C12.489 15.9165 12.6781 16.0243 12.7439 16.0618C12.7503 16.0654 12.7555 16.0684 12.7595 16.0706L15.2705 17.4557L14.7791 14.4505C14.7782 14.4449 14.777 14.438 14.7756 14.4299C14.7615 14.349 14.7263 14.1473 14.7502 13.9404C14.7701 13.7678 14.822 13.5992 14.9045 13.4438C15.0045 13.2555 15.152 13.1082 15.2084 13.0519C15.214 13.0463 15.2187 13.0416 15.2224 13.0379L17.3486 10.8657L14.4519 10.4216C14.4474 10.4209 14.4415 10.4201 14.4342 10.4191C14.3593 10.4086 14.145 10.3788 13.9464 10.282C13.7829 10.2022 13.6389 10.0915 13.5208 9.95818C13.3802 9.79945 13.2932 9.60879 13.2602 9.53626C13.2568 9.52899 13.2541 9.52291 13.2518 9.51816L12 6.85804Z" fill="#515164"/>
</svg>
