<svg width="32" height="32" viewBox="0 0 32 32" fill="none" xmlns="http://www.w3.org/2000/svg">
<path d="M5 10C5 7.23858 7.23858 5 10 5H22C24.7614 5 27 7.23858 27 10V13C27 13.5523 26.5523 14 26 14C25.4477 14 25 13.5523 25 13V10C25 8.34315 23.6569 7 22 7H10C8.34315 7 7 8.34315 7 10V17C7 18.6569 8.34315 20 10 20H14C14.5523 20 15 20.4477 15 21C15 21.5523 14.5523 22 14 22H10C8.87439 22 7.83566 21.6281 7 21.0004V22C7 23.6569 8.34315 25 10 25H14C14.5523 25 15 25.4477 15 26C15 26.5523 14.5523 27 14 27H10C7.23858 27 5 24.7614 5 22V10Z" fill="#FF355E"/>
<path d="M25 22C25 21.4477 24.5523 21 24 21C23.4477 21 23 21.4477 23 22V23H22C21.4477 23 21 23.4477 21 24C21 24.5523 21.4477 25 22 25H23V26C23 26.5523 23.4477 27 24 27C24.5523 27 25 26.5523 25 26V25H26C26.5523 25 27 24.5523 27 24C27 23.4477 26.5523 23 26 23H25V22Z" fill="#FF355E"/>
<path fill-rule="evenodd" clip-rule="evenodd" d="M17 24C17 20.134 20.134 17 24 17C27.866 17 31 20.134 31 24C31 27.866 27.866 31 24 31C20.134 31 17 27.866 17 24ZM24 19C21.2386 19 19 21.2386 19 24C19 26.7614 21.2386 29 24 29C26.7614 29 29 26.7614 29 24C29 21.2386 26.7614 19 24 19Z" fill="#FF355E"/>
</svg>
