<svg width="32" height="32" viewBox="0 0 32 32" fill="none" xmlns="http://www.w3.org/2000/svg">
<path d="M13.5126 5.51256C13.8408 5.18437 14.2859 5 14.75 5H17.25C17.7141 5 18.1592 5.18437 18.4874 5.51256C18.8156 5.84075 19 6.28587 19 6.75V25H20V11.75C20 11.2859 20.1844 10.8408 20.5126 10.5126C20.8408 10.1844 21.2859 10 21.75 10H24.25C24.7141 10 25.1592 10.1844 25.4874 10.5126C25.8156 10.8408 26 11.2859 26 11.75V25H27.5C28.0523 25 28.5 25.4477 28.5 26C28.5 26.5523 28.0523 27 27.5 27H5C4.44772 27 4 26.5523 4 26C4 25.4477 4.44772 25 5 25H6V15.75C6 15.2859 6.18437 14.8408 6.51256 14.5126C6.84075 14.1844 7.28587 14 7.75 14H10.25C10.7141 14 11.1592 14.1844 11.4874 14.5126C11.8156 14.8408 12 15.2859 12 15.75V25H13V6.75C13 6.28587 13.1844 5.84075 13.5126 5.51256ZM24 25V12H22V25H24ZM15 7V25H17V7H15ZM10 25V16H8V25H10Z" fill="#FF355E"/>
</svg>
