<svg width="32" height="32" viewBox="0 0 32 32" fill="none" xmlns="http://www.w3.org/2000/svg">
<path fill-rule="evenodd" clip-rule="evenodd" d="M15.9999 3C13.4192 3 11.2442 3.81598 9.71743 5.40734C8.19575 6.99342 7.42852 9.23438 7.42852 11.8757V14.9681L6.20973 16.0198C4.77332 17.2593 4.25875 19.2611 4.91936 21.0397C5.58035 22.8193 7.27847 24 9.17686 24H22.823C24.7214 24 26.4195 22.8193 27.0805 21.0397C27.7411 19.2611 27.2266 17.2593 25.7902 16.0198L24.5714 14.9681V11.8757C24.5714 9.23438 23.8041 6.99342 22.2825 5.40734C20.7557 3.81598 18.5807 3 15.9999 3ZM9.42852 11.8757C9.42852 9.61517 10.0801 7.91825 11.1606 6.79195C12.2361 5.67092 13.8468 5 15.9999 5C18.153 5 19.7638 5.67092 20.8393 6.79195C21.9198 7.91825 22.5714 9.61517 22.5714 11.8757V14.9941C22.5714 15.5591 22.8173 16.0962 23.2451 16.4653L24.4836 17.534C25.2874 18.2277 25.5754 19.348 25.2057 20.3433C24.8358 21.3392 23.8855 22 22.823 22H9.17686C8.11445 22 7.16412 21.3392 6.79421 20.3433C6.42451 19.348 6.71248 18.2277 7.51634 17.534L8.75478 16.4653C9.18258 16.0962 9.42852 15.5591 9.42852 14.9941V11.8757ZM13.3944 25.5528C13.1474 25.0588 12.5467 24.8586 12.0528 25.1055C11.5588 25.3525 11.3586 25.9532 11.6055 26.4472C12.2715 27.7791 13.915 29 16 29C18.085 29 19.7285 27.7791 20.3944 26.4472C20.6414 25.9532 20.4412 25.3525 19.9472 25.1055C19.4532 24.8586 18.8525 25.0588 18.6055 25.5528C18.2715 26.2209 17.3122 27 16 27C14.6878 27 13.7285 26.2209 13.3944 25.5528Z" fill="#FF355E"/>
</svg>
