<svg width="32" height="32" viewBox="0 0 32 32" fill="none" xmlns="http://www.w3.org/2000/svg">
<path d="M9.00001 12C9.00001 11.4477 9.44773 11 10 11C10.7851 11 12.6788 11.2214 14.4472 12.1056C14.9412 12.3526 15.1414 12.9532 14.8944 13.4472C14.6474 13.9412 14.0468 14.1414 13.5528 13.8944C12.1212 13.1786 10.5483 13 10 13C9.44773 13 9.00001 12.5523 9.00001 12Z" fill="#FF355E"/>
<path d="M10 16C9.44773 16 9.00001 16.4477 9.00001 17C9.00001 17.5523 9.44773 18 10 18C10.5483 18 12.1212 18.1786 13.5528 18.8944C14.0468 19.1414 14.6474 18.9412 14.8944 18.4472C15.1414 17.9532 14.9412 17.3526 14.4472 17.1056C12.6788 16.2214 10.7851 16 10 16Z" fill="#FF355E"/>
<path d="M23 12C23 11.4477 22.5523 11 22 11C21.2149 11 19.3212 11.2214 17.5528 12.1056C17.0588 12.3526 16.8586 12.9532 17.1056 13.4472C17.3526 13.9412 17.9532 14.1414 18.4472 13.8944C19.8788 13.1786 21.4518 13 22 13C22.5523 13 23 12.5523 23 12Z" fill="#FF355E"/>
<path d="M22 16C22.5523 16 23 16.4477 23 17C23 17.5523 22.5523 18 22 18C21.4518 18 19.8788 18.1786 18.4472 18.8944C17.9532 19.1414 17.3526 18.9412 17.1056 18.4472C16.8586 17.9532 17.0588 17.3526 17.5528 17.1056C19.3212 16.2214 21.2149 16 22 16Z" fill="#FF355E"/>
<path fill-rule="evenodd" clip-rule="evenodd" d="M6 5C9.64805 5 12.2907 5.78282 14.0441 6.59204C14.9147 6.99387 15.5615 7.4001 16 7.71528C16.4385 7.4001 17.0853 6.99387 17.956 6.59204C19.7093 5.78282 22.352 5 26 5C26.5523 5 27 5.44772 27 6V22.5C27 23.0523 26.5523 23.5 26 23.5C21.4256 23.5 17.7534 25.0898 16.5466 25.8377C16.3836 25.9439 16.1931 25.9999 16 26.0001C15.858 26.0003 15.7145 25.9702 15.5797 25.9075C15.5361 25.8874 15.494 25.8641 15.4535 25.8377C14.2466 25.0898 10.5744 23.5 6 23.5C5.44771 23.5 5 23.0523 5 22.5V6C5 5.44772 5.44771 5 6 5ZM16 23.8473C17.6482 22.966 20.9567 21.7071 25 21.5229V7.02183C22.1736 7.14682 20.1373 7.78802 18.7941 8.40796C18.0438 8.75424 17.5051 9.09609 17.1625 9.34278C16.9911 9.46617 16.8687 9.56581 16.7934 9.63035C16.7557 9.66262 16.7299 9.6861 16.7156 9.69937L16.7028 9.71141C16.5088 9.90309 16.2559 9.99929 16.0028 10C15.9519 10.0001 15.9009 9.99641 15.8504 9.98881C15.6482 9.95838 15.4536 9.86592 15.2972 9.71141L15.2844 9.69937C15.2701 9.6861 15.2443 9.66262 15.2066 9.63035C15.1313 9.56581 15.0089 9.46617 14.8376 9.34278C14.4949 9.09609 13.9562 8.75424 13.2059 8.40796C11.8627 7.78802 9.82639 7.14682 7 7.02183V21.5229C11.0433 21.7071 14.3518 22.966 16 23.8473Z" fill="#FF355E"/>
</svg>
