<svg width="32" height="32" viewBox="0 0 32 32" fill="none" xmlns="http://www.w3.org/2000/svg">
<path d="M12.5 4C10.8431 4 9.5 5.34315 9.5 7V14C9.5 14.3506 9.56015 14.6872 9.67071 15H7C5.34315 15 4 16.3431 4 18V25C4 26.6569 5.34315 28 7 28H14C15.6569 28 16 27 16 27C16 27 16.3431 28 18 28H25C26.6569 28 28 26.6569 28 25V18C28 16.3431 26.6569 15 25 15H22.3293C22.4398 14.6872 22.5 14.3506 22.5 14V7C22.5 5.34315 21.1569 4 19.5 4H12.5ZM19.5 15H12.5C11.9477 15 11.5 14.5523 11.5 14V7C11.5 6.44772 11.9477 6 12.5 6H19.5C20.0523 6 20.5 6.44772 20.5 7V14C20.5 14.5523 20.0523 15 19.5 15ZM15 17V25C15 25.5523 14.5523 26 14 26H7C6.44772 26 6 25.5523 6 25V18C6 17.4477 6.44772 17 7 17H15ZM17 17H25C25.5523 17 26 17.4477 26 18V25C26 25.5523 25.5523 26 25 26H18C17.4477 26 17 25.5523 17 25V17Z" fill="#FF355E"/>
</svg>
