<svg width="32" height="32" viewBox="0 0 32 32" fill="none" xmlns="http://www.w3.org/2000/svg">
<path fill-rule="evenodd" clip-rule="evenodd" d="M9 11C9 9.89543 9.89543 9 11 9H13C14.1046 9 15 9.89543 15 11V13C15 14.1046 14.1046 15 13 15H11C9.89543 15 9 14.1046 9 13V11ZM13 11H11V13H13V11Z" fill="#FF355E"/>
<path fill-rule="evenodd" clip-rule="evenodd" d="M17 11C16.4477 11 16 11.4477 16 12C16 12.5523 16.4477 13 17 13H22C22.5523 13 23 12.5523 23 12C23 11.4477 22.5523 11 22 11H17Z" fill="#FF355E"/>
<path fill-rule="evenodd" clip-rule="evenodd" d="M9 19C9 17.8954 9.89543 17 11 17H13C14.1046 17 15 17.8954 15 19V21C15 22.1046 14.1046 23 13 23H11C9.89543 23 9 22.1046 9 21V19ZM13 19H11V21H13V19Z" fill="#FF355E"/>
<path fill-rule="evenodd" clip-rule="evenodd" d="M17 19C16.4477 19 16 19.4477 16 20C16 20.5523 16.4477 21 17 21H22C22.5523 21 23 20.5523 23 20C23 19.4477 22.5523 19 22 19H17Z" fill="#FF355E"/>
<path fill-rule="evenodd" clip-rule="evenodd" d="M5 7C5 5.34314 6.34315 4 8 4H24C25.6569 4 27 5.34315 27 7V25C27 26.6569 25.6569 28 24 28H8C6.34315 28 5 26.6569 5 25V7ZM8 6C7.44771 6 7 6.44772 7 7V25C7 25.5523 7.44772 26 8 26H24C24.5523 26 25 25.5523 25 25V7C25 6.44772 24.5523 6 24 6H8Z" fill="#FF355E"/>
</svg>
