<svg width="32" height="32" viewBox="0 0 32 32" fill="none" xmlns="http://www.w3.org/2000/svg">
<path fill-rule="evenodd" clip-rule="evenodd" d="M20.298 5.87445C18.1597 4.9668 15.789 4.75938 13.5255 5.28194C11.2621 5.80449 9.2222 7.03019 7.69819 8.78336C6.17418 10.5365 5.24432 12.7272 5.04185 15.0413C4.83939 17.3554 5.37474 19.6742 6.57116 21.6654C7.76757 23.6566 9.56365 25.2179 11.702 26.1256C13.8403 27.0332 16.211 27.2406 18.4745 26.7181C19.0126 26.5938 19.5495 26.9294 19.6738 27.4675C19.798 28.0056 19.4625 28.5426 18.9244 28.6668C16.2494 29.2844 13.4476 29.0393 10.9205 27.9666C8.3934 26.8939 6.27077 25.0487 4.85682 22.6955C3.44287 20.3423 2.81019 17.6019 3.04947 14.867C3.28874 12.1321 4.38767 9.54317 6.18877 7.47124C7.98987 5.39931 10.4007 3.95076 13.0756 3.3332C15.7506 2.71563 18.5524 2.96076 21.0795 4.03344C23.6066 5.10613 25.7292 6.95131 27.1432 9.30451C28.5571 11.6577 29.1898 14.3981 28.9505 17.133C28.9024 17.6832 28.4174 18.0902 27.8672 18.0421C27.317 17.9939 26.91 17.5089 26.9581 16.9587C27.1606 14.6446 26.6253 12.3258 25.4288 10.3346C24.2324 8.34341 22.4363 6.78211 20.298 5.87445Z" fill="#FF355E"/>
<path fill-rule="evenodd" clip-rule="evenodd" d="M16 9.00001C16.5523 9.00001 17 9.44772 17 10V15.4648L19.5547 17.168C20.0142 17.4743 20.1384 18.0952 19.832 18.5547C19.5257 19.0142 18.9048 19.1384 18.4453 18.8321L15.4453 16.8321C15.1671 16.6466 15 16.3344 15 16V10C15 9.44772 15.4477 9.00001 16 9.00001Z" fill="#FF355E"/>
<path d="M23 28C23 27.4477 23.4477 27 24 27C24.5523 27 25 27.4477 25 28C25 28.5523 24.5523 29 24 29C23.4477 29 23 28.5523 23 28Z" fill="#FF355E"/>
<path d="M24 21.5C23.4477 21.5 23 21.9477 23 22.5C23 23.0523 22.5523 23.5 22 23.5C21.4477 23.5 21 23.0523 21 22.5C21 20.8432 22.3431 19.5 24 19.5C25.6569 19.5 27 20.8432 27 22.5C27 23.8062 26.1652 24.9175 25 25.3293V25.5C25 26.0523 24.5523 26.5 24 26.5C23.4477 26.5 23 26.0523 23 25.5V24.5C23 23.9477 23.4477 23.5 24 23.5C24.5523 23.5 25 23.0523 25 22.5C25 21.9477 24.5523 21.5 24 21.5Z" fill="#FF355E"/>
</svg>
