<svg width="32" height="32" viewBox="0 0 32 32" fill="none" xmlns="http://www.w3.org/2000/svg">
<path d="M17 13C17 12.4477 16.5523 12 16 12C15.4477 12 15 12.4477 15 13V16.9056C15 17.5894 15.3494 18.2258 15.9262 18.5929L19.4631 20.8437C19.9291 21.1402 20.5472 21.0028 20.8437 20.5369C21.1402 20.0709 21.0028 19.4528 20.5369 19.1563L17 16.9056V13Z" fill="#FF355E"/>
<path fill-rule="evenodd" clip-rule="evenodd" d="M11 5C11 4.44772 11.4477 4 12 4H20C20.5523 4 21 4.44772 21 5C21 5.55228 20.5523 6 20 6H17V7.04484C22.6065 7.55007 27 12.262 27 18C27 24.0751 22.0751 29 16 29C9.92487 29 5 24.0751 5 18C5 12.262 9.3935 7.55007 15 7.04484V6H12C11.4477 6 11 5.55228 11 5ZM16 9C11.0294 9 7 13.0294 7 18C7 22.9706 11.0294 27 16 27C20.9706 27 25 22.9706 25 18C25 13.0294 20.9706 9 16 9Z" fill="#FF355E"/>
<path d="M24.2929 7.29289C24.6834 6.90237 25.3166 6.90237 25.7071 7.29289L27.7071 9.29289C28.0976 9.68342 28.0976 10.3166 27.7071 10.7071C27.3166 11.0976 26.6834 11.0976 26.2929 10.7071L24.2929 8.70711C23.9024 8.31658 23.9024 7.68342 24.2929 7.29289Z" fill="#FF355E"/>
<path d="M6.29289 7.29289C6.68342 6.90237 7.31658 6.90237 7.70711 7.29289C8.09763 7.68342 8.09763 8.31658 7.70711 8.70711L5.70711 10.7071C5.31658 11.0976 4.68342 11.0976 4.29289 10.7071C3.90237 10.3166 3.90237 9.68342 4.29289 9.29289L6.29289 7.29289Z" fill="#FF355E"/>
</svg>
