<svg width="32" height="32" viewBox="0 0 32 32" fill="none" xmlns="http://www.w3.org/2000/svg">
<path fill-rule="evenodd" clip-rule="evenodd" d="M16.8438 6.46323C16.4508 5.84559 15.5492 5.84559 15.1563 6.46323L13.5117 9.04826C12.9805 9.88328 12.0716 10.4026 11.0825 10.4362L8.01251 10.5407C7.26998 10.5659 6.81331 11.3634 7.16734 12.0166L8.56688 14.5987C9.05022 15.4905 9.05022 16.5661 8.56688 17.4578L7.16734 20.04C6.81331 20.6932 7.26998 21.4907 8.01252 21.5159L11.0825 21.6203C12.0716 21.654 12.9805 22.1733 13.5117 23.0083L15.1563 25.5933C15.5492 26.211 16.4508 26.211 16.8438 25.5933L18.4883 23.0083C19.0195 22.1733 19.9284 21.654 20.9175 21.6203L23.9875 21.5159C24.7301 21.4907 25.1867 20.6932 24.8327 20.04L23.4332 17.4578C22.9498 16.5661 22.9498 15.4905 23.4332 14.5987L24.8327 12.0166C25.1867 11.3634 24.7301 10.5659 23.9875 10.5407L20.9175 10.4362C19.9284 10.4026 19.0195 9.88328 18.4883 9.04826L16.8438 6.46323ZM13.4688 5.3897C14.6476 3.53677 17.3524 3.53677 18.5312 5.3897L20.1758 7.97473C20.3528 8.25307 20.6558 8.42617 20.9855 8.43738L24.0555 8.54182C26.2831 8.6176 27.6531 11.0101 26.591 12.9696L25.1915 15.5518C25.0304 15.849 25.0304 16.2076 25.1915 16.5048L26.591 19.0869C27.6531 21.0465 26.2831 23.439 24.0555 23.5148L20.9855 23.6192C20.6558 23.6304 20.3528 23.8035 20.1758 24.0818L18.5312 26.6669C17.3524 28.5198 14.6476 28.5198 13.4688 26.6669L11.8243 24.0818C11.6472 23.8035 11.3443 23.6304 11.0145 23.6192L7.94452 23.5148C5.71693 23.439 4.34692 21.0465 5.40901 19.087L6.80855 16.5048C6.96966 16.2076 6.96966 15.849 6.80855 15.5518L5.40901 12.9696C4.34692 11.0101 5.71693 8.6176 7.94452 8.54182L11.0145 8.43738C11.3442 8.42617 11.6472 8.25307 11.8243 7.97473L13.4688 5.3897ZM16 13.8397C14.7408 13.8397 13.7518 14.837 13.7518 16.0283C13.7518 17.2196 14.7408 18.2169 16 18.2169C17.2592 18.2169 18.2482 17.2196 18.2482 16.0283C18.2482 14.837 17.2592 13.8397 16 13.8397ZM11.7518 16.0283C11.7518 13.6976 13.6713 11.8397 16 11.8397C18.3287 11.8397 20.2482 13.6976 20.2482 16.0283C20.2482 18.359 18.3287 20.2169 16 20.2169C13.6713 20.2169 11.7518 18.359 11.7518 16.0283Z" fill="#FF355E"/>
</svg>
