<svg width="32" height="32" viewBox="0 0 32 32" fill="none" xmlns="http://www.w3.org/2000/svg">
<path fill-rule="evenodd" clip-rule="evenodd" d="M18.9918 4.68925C17.0213 4.25137 14.9787 4.25137 13.0082 4.68925C10.3896 5.27116 8.44712 7.41072 8.0676 10.0022C8.58836 10.037 9 10.4704 9 11V21C9 21.5523 8.55228 22 8 22H6C3.79086 22 2 20.2091 2 18V14C2 11.7909 3.79086 10 6 10H6.05157C6.44408 6.46913 9.04015 3.52226 12.5744 2.73688C14.8306 2.23549 17.1694 2.23549 19.4256 2.73688C22.9598 3.52226 25.5559 6.46913 25.9484 10H26C28.2091 10 30 11.7909 30 14V18C30 20.2091 28.2091 22 26 22H25.9C25.4367 24.2822 23.419 26 21 26H20.8293C20.4175 27.1652 19.3062 28 18 28H16C14.3431 28 13 26.6569 13 25C13 23.3431 14.3431 22 16 22H18C19.3062 22 20.4175 22.8348 20.8293 24H21C22.3113 24 23.4262 23.1586 23.8341 21.9863C23.3608 21.9073 23 21.4958 23 21V11C23 10.4704 23.4116 10.037 23.9324 10.0023C23.5529 7.41072 21.6104 5.27116 18.9918 4.68925ZM7 12L6.99316 12H6C4.89543 12 4 12.8954 4 14V18C4 19.1046 4.89543 20 6 20H7V12ZM25.0068 12L25 12V20H26C27.1046 20 28 19.1046 28 18V14C28 12.8954 27.1046 12 26 12H25.0068ZM19 25C19 24.4477 18.5523 24 18 24H16C15.4477 24 15 24.4477 15 25C15 25.5523 15.4477 26 16 26H18C18.5523 26 19 25.5523 19 25Z" fill="#FF355E"/>
<path d="M15 13C15 12.4477 14.5523 12 14 12C13.4477 12 13 12.4477 13 13V15C13 15.5523 13.4477 16 14 16C14.5523 16 15 15.5523 15 15V13Z" fill="#FF355E"/>
<path d="M18 12C18.5523 12 19 12.4477 19 13V15C19 15.5523 18.5523 16 18 16C17.4477 16 17 15.5523 17 15V13C17 12.4477 17.4477 12 18 12Z" fill="#FF355E"/>
<path d="M13.5547 17.1679C13.0952 16.8616 12.4743 16.9858 12.1679 17.4453C11.8616 17.9048 11.9858 18.5257 12.4453 18.832C14.5978 20.2671 17.4021 20.2671 19.5547 18.832C20.0142 18.5257 20.1384 17.9048 19.832 17.4453C19.5257 16.9858 18.9048 16.8616 18.4453 17.1679C16.9645 18.1551 15.0354 18.1551 13.5547 17.1679Z" fill="#FF355E"/>
</svg>
