<svg width="32" height="32" viewBox="0 0 32 32" fill="none" xmlns="http://www.w3.org/2000/svg">
<path d="M8.07254 8.19855C9.0471 7.42201 10.2565 6.99942 11.5026 7C12.7487 7.00058 13.9577 7.4243 14.9315 8.20176C15.3631 8.54634 15.4337 9.17556 15.0891 9.60717L13.5779 11.5H16C16.5523 11.5 17 11.9477 17 12.5C17 13.7461 16.5769 14.9553 15.7998 15.9295C15.0228 16.9037 13.9381 17.5851 12.7232 17.8623C11.5082 18.1394 10.2352 17.9957 9.11265 17.4548C7.99005 16.914 7.0844 16.0079 6.54404 14.885C6.00367 13.7622 5.86062 12.4891 6.13831 11.2743C6.416 10.0596 7.09798 8.9751 8.07254 8.19855ZM11.5016 9C10.7087 8.99963 9.93906 9.26855 9.31889 9.76271C8.69872 10.2569 8.26473 10.947 8.08802 11.72C7.91131 12.4931 8.00234 13.3032 8.34621 14.0177C8.69008 14.7323 9.2664 15.3089 9.98078 15.6531C10.6952 15.9973 11.5053 16.0887 12.2784 15.9124C13.0515 15.736 13.7418 15.3023 14.2363 14.6824C14.5181 14.3291 14.7268 13.9272 14.8541 13.5H11.5C11.1158 13.5 10.7655 13.2799 10.5989 12.9336C10.4323 12.5874 10.4788 12.1764 10.7185 11.8761L12.8112 9.25487C12.3979 9.08789 11.9536 9.00021 11.5016 9Z" fill="#FF355E"/>
<path d="M20 9C19.4477 9 19 9.44772 19 10C19 10.5523 19.4477 11 20 11H24C24.5523 11 25 10.5523 25 10C25 9.44772 24.5523 9 24 9H20Z" fill="#FF355E"/>
<path d="M19 13C19 12.4477 19.4477 12 20 12H24C24.5523 12 25 12.4477 25 13C25 13.5523 24.5523 14 24 14H20C19.4477 14 19 13.5523 19 13Z" fill="#FF355E"/>
<path d="M20 15C19.4477 15 19 15.4477 19 16C19 16.5523 19.4477 17 20 17H22C22.5523 17 23 16.5523 23 16C23 15.4477 22.5523 15 22 15H20Z" fill="#FF355E"/>
<path d="M6 2C3.79086 2 2 3.79086 2 6V19C2 21.2091 3.79086 23 6 23H11.382L9.10558 27.5528C8.85859 28.0467 9.05881 28.6474 9.55279 28.8944C10.0468 29.1414 10.6474 28.9412 10.8944 28.4472L13.618 23H15V29C15 29.5523 15.4477 30 16 30C16.5523 30 17 29.5523 17 29V23H18.382L21.1056 28.4472C21.3526 28.9412 21.9532 29.1414 22.4472 28.8944C22.9412 28.6474 23.1414 28.0467 22.8944 27.5528L20.618 23H26C28.2091 23 30 21.2091 30 19V6C30 3.79086 28.2091 2 26 2H6ZM19.0213 21C19.0066 20.9997 18.9919 20.9997 18.9772 21H13.0228C13.0081 20.9997 12.9934 20.9997 12.9787 21H6C4.89543 21 4 20.1046 4 19V6C4 4.89543 4.89543 4 6 4H26C27.1046 4 28 4.89543 28 6V19C28 20.1046 27.1046 21 26 21H19.0213Z" fill="#FF355E"/>
</svg>
