<svg width="32" height="32" viewBox="0 0 32 32" fill="none" xmlns="http://www.w3.org/2000/svg">
<path d="M11 3C8.23858 3 6 5.23858 6 8V24C6 26.7614 8.23858 29 11 29H14C14.5523 29 15 28.5523 15 28C15 27.4477 14.5523 27 14 27H11C9.34315 27 8 25.6569 8 24V8C8 6.34315 9.34315 5 11 5H17.3431C18.1388 5 18.9019 5.31607 19.4645 5.87868L23.1213 9.53553C23.6839 10.0981 24 10.8612 24 11.6569V14C24 14.5523 24.4477 15 25 15C25.5523 15 26 14.5523 26 14V11.6569C26 10.3308 25.4732 9.059 24.5355 8.12132L20.8787 4.46447C19.941 3.52678 18.6692 3 17.3431 3H11Z" fill="#FF355E"/>
<path d="M11 13C11 12.4477 11.4477 12 12 12H20C20.5523 12 21 12.4477 21 13C21 13.5523 20.5523 14 20 14H12C11.4477 14 11 13.5523 11 13Z" fill="#FF355E"/>
<path d="M11 17C11 16.4477 11.4477 16 12 16H17C17.5523 16 18 16.4477 18 17C18 17.5523 17.5523 18 17 18H12C11.4477 18 11 17.5523 11 17Z" fill="#FF355E"/>
<path d="M12 20C11.4477 20 11 20.4477 11 21C11 21.5523 11.4477 22 12 22H15C15.5523 22 16 21.5523 16 21C16 20.4477 15.5523 20 15 20H12Z" fill="#FF355E"/>
<path d="M23.5 24.0858L25.2929 22.2929C25.6834 21.9024 26.3166 21.9024 26.7071 22.2929C27.0976 22.6834 27.0976 23.3166 26.7071 23.7071L24.2071 26.2071C23.8166 26.5976 23.1834 26.5976 22.7929 26.2071L21.2929 24.7071C20.9024 24.3166 20.9024 23.6834 21.2929 23.2929C21.6834 22.9024 22.3166 22.9024 22.7071 23.2929L23.5 24.0858Z" fill="#FF355E"/>
<path fill-rule="evenodd" clip-rule="evenodd" d="M17 24C17 20.134 20.134 17 24 17C27.866 17 31 20.134 31 24C31 27.866 27.866 31 24 31C20.134 31 17 27.866 17 24ZM24 19C21.2386 19 19 21.2386 19 24C19 26.7614 21.2386 29 24 29C26.7614 29 29 26.7614 29 24C29 21.2386 26.7614 19 24 19Z" fill="#FF355E"/>
</svg>
