<svg width="32" height="32" viewBox="0 0 32 32" fill="none" xmlns="http://www.w3.org/2000/svg">
<path d="M9 6C8.44771 6 8 6.44772 8 7V25C8 25.5523 8.44772 26 9 26H17C17.5523 26 18 26.4477 18 27C18 27.5523 17.5523 28 17 28H9C7.34315 28 6 26.6569 6 25V7C6 5.34314 7.34315 4 9 4H16.1716C16.9672 4 17.7303 4.31607 18.2929 4.87868L25.1213 11.7071C25.6839 12.2697 26 13.0328 26 13.8284V16C26 16.5523 25.5523 17 25 17C24.4477 17 24 16.5523 24 16V13.9867C23.9329 13.9954 23.8639 14 23.7929 14H17C16.4477 14 16 13.5523 16 13V6.20711C16 6.13614 16.0046 6.06706 16.0133 6H9ZM18 7.41422V12H22.5858L18 7.41422Z" fill="#FF355E"/>
<path d="M22.5 18C20.0147 18 18 20.0147 18 22.5C18 24.9853 20.0147 27 22.5 27C23.3805 27 24.202 26.7471 24.8957 26.31L27.2929 28.7071C27.6834 29.0976 28.3166 29.0976 28.7071 28.7071C29.0976 28.3166 29.0976 27.6834 28.7071 27.2929L26.31 24.8957C26.7471 24.202 27 23.3805 27 22.5C27 20.0147 24.9853 18 22.5 18ZM20 22.5C20 21.1193 21.1193 20 22.5 20C23.8807 20 25 21.1193 25 22.5C25 23.8807 23.8807 25 22.5 25C21.1193 25 20 23.8807 20 22.5Z" fill="#FF355E"/>
</svg>
