<svg width="32" height="32" viewBox="0 0 32 32" fill="none" xmlns="http://www.w3.org/2000/svg">
<path fill-rule="evenodd" clip-rule="evenodd" d="M6.97279 8.12457C7.3049 7.95848 7.69506 7.95848 8.02717 8.12457C8.33244 8.27724 8.48067 8.53004 8.52645 8.60848C8.57848 8.69761 8.62834 8.8038 8.66282 8.87724C8.66571 8.8834 8.6685 8.88933 8.67117 8.895L9.32538 10.2852L10.7695 10.5066C10.7755 10.5075 10.7818 10.5085 10.7885 10.5095C10.8649 10.5211 10.9815 10.5388 11.0832 10.5645C11.1815 10.5893 11.4623 10.6643 11.6912 10.9177C11.9296 11.1817 12.0333 11.5324 11.9905 11.8723C11.9498 12.1959 11.7774 12.4134 11.714 12.4911C11.6483 12.5716 11.5663 12.6552 11.5105 12.7122C11.5057 12.717 11.5012 12.7216 11.4969 12.726L10.4251 13.821L10.6799 15.3789C10.6809 15.3851 10.682 15.3916 10.6831 15.3983C10.6964 15.4793 10.7153 15.5947 10.7231 15.6974C10.7302 15.7915 10.7492 16.0699 10.5993 16.3594C10.438 16.6709 10.1402 16.9083 9.77286 16.9797C9.42733 17.0469 9.15045 16.9283 9.06337 16.8904C8.96759 16.8487 8.86435 16.7916 8.79589 16.7537C8.78997 16.7505 8.78431 16.7473 8.77894 16.7444L7.49998 16.0389L6.22102 16.7444C6.21565 16.7473 6.21 16.7505 6.20408 16.7537C6.13561 16.7916 6.03237 16.8487 5.93659 16.8904C5.84951 16.9283 5.57262 17.0469 5.2271 16.9797C4.85976 16.9083 4.56195 16.6709 4.40066 16.3594C4.25073 16.0699 4.26977 15.7915 4.27687 15.6974C4.28462 15.5947 4.30359 15.4793 4.31691 15.3983C4.31801 15.3916 4.31907 15.3851 4.32008 15.3789L4.57483 13.821L3.50307 12.726C3.49875 12.7216 3.49422 12.717 3.4895 12.7122C3.43366 12.6552 3.35161 12.5716 3.28597 12.4911C3.22256 12.4134 3.05015 12.1959 3.00941 11.8723C2.96661 11.5324 3.07037 11.1817 3.30876 10.9177C3.53768 10.6643 3.81843 10.5893 3.91674 10.5645C4.01846 10.5388 4.13504 10.5211 4.2115 10.5095C4.21813 10.5085 4.22447 10.5075 4.23046 10.5066L5.67458 10.2852L6.32879 8.895C6.33146 8.88933 6.33425 8.88339 6.33714 8.87723C6.37162 8.80379 6.42148 8.69761 6.47351 8.60848C6.51929 8.53004 6.66752 8.27724 6.97279 8.12457ZM7.49998 11.1033L7.32646 11.472C7.32576 11.4735 7.32495 11.4752 7.32405 11.4771C7.3144 11.4977 7.29375 11.5417 7.27152 11.583C7.24241 11.6371 7.19269 11.7216 7.11384 11.8106C7.01212 11.9255 6.88766 12.0212 6.74595 12.0904C6.6351 12.1444 6.53663 12.1699 6.47328 12.1834C6.42577 12.1935 6.37632 12.201 6.35501 12.2042C6.35301 12.2045 6.35126 12.2048 6.34978 12.205L5.86455 12.2794L6.24607 12.6692C6.24719 12.6703 6.24849 12.6717 6.24996 12.6731C6.26561 12.6891 6.29999 12.7241 6.33133 12.7599C6.37296 12.8074 6.43407 12.8833 6.48936 12.9875C6.56012 13.1208 6.60451 13.2652 6.62157 13.4128C6.64392 13.6061 6.6066 13.7922 6.60399 13.8052C6.60391 13.8056 6.604 13.8052 6.60399 13.8052L6.5242 14.293L6.87872 14.0975C6.88006 14.0967 6.88164 14.0959 6.88344 14.0949C6.90256 14.0843 6.94611 14.0602 6.9896 14.0393C7.04703 14.0118 7.14101 13.9713 7.26276 13.9463C7.41929 13.9141 7.58067 13.9141 7.7372 13.9463C7.85895 13.9713 7.95293 14.0118 8.01036 14.0393C8.05385 14.0602 8.09741 14.0843 8.11653 14.0949C8.11832 14.0959 8.1199 14.0968 8.12124 14.0975L8.47575 14.293L8.3961 13.8059C8.3961 13.8059 8.39619 13.8064 8.3961 13.8059C8.3935 13.793 8.35604 13.6061 8.37839 13.4128C8.39545 13.2652 8.43984 13.1208 8.5106 12.9875C8.56589 12.8833 8.627 12.8074 8.66863 12.7599C8.69996 12.7241 8.73435 12.6891 8.75 12.6731C8.75147 12.6717 8.75277 12.6703 8.75388 12.6692L9.13541 12.2794L8.65018 12.205C8.6487 12.2048 8.64695 12.2045 8.64495 12.2042C8.62364 12.201 8.5742 12.1935 8.52667 12.1834C8.46333 12.1699 8.36486 12.1444 8.25401 12.0904C8.1123 12.0212 7.98784 11.9255 7.88611 11.8106C7.80727 11.7216 7.75755 11.6371 7.72844 11.583C7.70621 11.5417 7.68556 11.4977 7.67591 11.4771C7.67501 11.4752 7.6742 11.4735 7.6735 11.472L7.49998 11.1033Z" fill="#FF355E"/>
<path fill-rule="evenodd" clip-rule="evenodd" d="M23.9728 8.12457C24.3049 7.95848 24.6951 7.95848 25.0272 8.12457C25.3324 8.27724 25.4807 8.53004 25.5265 8.60848C25.5785 8.69761 25.6283 8.8038 25.6628 8.87724C25.6657 8.8834 25.6685 8.88933 25.6712 8.895L26.3254 10.2852L27.7695 10.5066C27.7755 10.5075 27.7818 10.5085 27.7885 10.5095C27.8649 10.5211 27.9815 10.5388 28.0832 10.5645C28.1815 10.5893 28.4623 10.6643 28.6912 10.9177C28.9296 11.1817 29.0333 11.5324 28.9905 11.8723C28.9498 12.1959 28.7774 12.4134 28.714 12.4911C28.6483 12.5716 28.5663 12.6552 28.5105 12.7122C28.5057 12.717 28.5012 12.7216 28.4969 12.726L27.4251 13.821L27.6799 15.3789C27.6809 15.3851 27.682 15.3916 27.6831 15.3983C27.6964 15.4793 27.7153 15.5947 27.7231 15.6974C27.7302 15.7915 27.7492 16.0699 27.5993 16.3594C27.438 16.6709 27.1402 16.9083 26.7729 16.9797C26.4273 17.0469 26.1504 16.9283 26.0634 16.8904C25.9676 16.8487 25.8644 16.7916 25.7959 16.7537C25.79 16.7505 25.7843 16.7473 25.7789 16.7444L24.5 16.0389L23.221 16.7444C23.2157 16.7473 23.21 16.7505 23.2041 16.7537C23.1356 16.7916 23.0324 16.8487 22.9366 16.8904C22.8495 16.9283 22.5726 17.0469 22.2271 16.9797C21.8598 16.9083 21.562 16.6709 21.4007 16.3594C21.2507 16.0699 21.2698 15.7915 21.2769 15.6974C21.2846 15.5947 21.3036 15.4793 21.3169 15.3983C21.318 15.3916 21.3191 15.3851 21.3201 15.3789L21.5748 13.821L20.5031 12.726C20.4988 12.7216 20.4942 12.717 20.4895 12.7122C20.4337 12.6552 20.3516 12.5716 20.286 12.4911C20.2226 12.4134 20.0501 12.1959 20.0094 11.8723C19.9666 11.5324 20.0704 11.1817 20.3088 10.9177C20.5377 10.6643 20.8184 10.5893 20.9167 10.5645C21.0185 10.5388 21.135 10.5211 21.2115 10.5095C21.2181 10.5085 21.2245 10.5075 21.2305 10.5066L22.6746 10.2852L23.3288 8.895C23.3315 8.88933 23.3342 8.88339 23.3371 8.87723C23.3716 8.80379 23.4215 8.69761 23.4735 8.60848C23.5193 8.53004 23.6675 8.27724 23.9728 8.12457ZM24.5 11.1033L24.3265 11.472C24.3258 11.4735 24.325 11.4752 24.324 11.4771C24.3144 11.4977 24.2937 11.5417 24.2715 11.583C24.2424 11.6371 24.1927 11.7216 24.1138 11.8106C24.0121 11.9255 23.8877 12.0212 23.7459 12.0904C23.6351 12.1444 23.5366 12.1699 23.4733 12.1834C23.4258 12.1935 23.3763 12.201 23.355 12.2042C23.353 12.2045 23.3513 12.2048 23.3498 12.205L22.8646 12.2794L23.2461 12.6692C23.2472 12.6703 23.2485 12.6717 23.25 12.6731C23.2656 12.6891 23.3 12.7241 23.3313 12.7599C23.373 12.8074 23.4341 12.8833 23.4894 12.9875C23.5601 13.1208 23.6045 13.2652 23.6216 13.4128C23.6439 13.6061 23.6066 13.7922 23.604 13.8052C23.6039 13.8056 23.604 13.8052 23.604 13.8052L23.5242 14.293L23.8787 14.0975C23.8801 14.0967 23.8816 14.0959 23.8834 14.0949C23.9026 14.0843 23.9461 14.0602 23.9896 14.0393C24.047 14.0118 24.141 13.9713 24.2628 13.9463C24.4193 13.9141 24.5807 13.9141 24.7372 13.9463C24.859 13.9713 24.9529 14.0118 25.0104 14.0393C25.0539 14.0602 25.0974 14.0843 25.1165 14.0949C25.1183 14.0959 25.1199 14.0968 25.1212 14.0975L25.4758 14.293L25.3961 13.8059C25.3961 13.8059 25.3962 13.8064 25.3961 13.8059C25.3935 13.793 25.356 13.6061 25.3784 13.4128C25.3954 13.2652 25.4398 13.1208 25.5106 12.9875C25.5659 12.8833 25.627 12.8074 25.6686 12.7599C25.7 12.7241 25.7344 12.6891 25.75 12.6731C25.7515 12.6717 25.7528 12.6703 25.7539 12.6692L26.1354 12.2794L25.6502 12.205C25.6487 12.2048 25.647 12.2045 25.645 12.2042C25.6236 12.201 25.5742 12.1935 25.5267 12.1834C25.4633 12.1699 25.3649 12.1444 25.254 12.0904C25.1123 12.0212 24.9878 11.9255 24.8861 11.8106C24.8073 11.7216 24.7575 11.6371 24.7284 11.583C24.7062 11.5417 24.6856 11.4977 24.6759 11.4771C24.675 11.4752 24.6742 11.4735 24.6735 11.472L24.5 11.1033Z" fill="#FF355E"/>
<path fill-rule="evenodd" clip-rule="evenodd" d="M15.4614 3.12728C15.8007 2.95757 16.1993 2.95757 16.5386 3.12728C16.848 3.28202 16.9998 3.53911 17.0497 3.62456C17.1057 3.72055 17.16 3.83608 17.2 3.92114C17.2031 3.9279 17.2062 3.93447 17.2092 3.94083L17.9893 5.59844L19.7149 5.863C19.7217 5.86404 19.7288 5.86512 19.7361 5.86624C19.8247 5.87974 19.951 5.89899 20.0602 5.92652C20.1661 5.95324 20.4518 6.03048 20.6839 6.28743C20.9278 6.55746 21.0342 6.91659 20.9903 7.26484C20.949 7.59315 20.7738 7.81555 20.7053 7.89954C20.6347 7.98611 20.5455 8.07704 20.4809 8.14302C20.4757 8.14831 20.4706 8.15344 20.4658 8.1584L19.1904 9.46141L19.4932 11.3133C19.4943 11.3202 19.4955 11.3273 19.4967 11.3347C19.5121 11.4285 19.5327 11.5542 19.5411 11.6649C19.5488 11.7672 19.5673 12.0513 19.4152 12.345C19.2501 12.6639 18.9455 12.9065 18.5703 12.9794C18.2202 13.0475 17.938 12.9276 17.8437 12.8866C17.7409 12.8418 17.6289 12.7799 17.5496 12.7361C17.543 12.7325 17.5367 12.729 17.5306 12.7256L16 11.8813L14.4693 12.7256C14.4632 12.729 14.4569 12.7325 14.4504 12.7361C14.3711 12.7799 14.2591 12.8418 14.1562 12.8866C14.0619 12.9276 13.7797 13.0475 13.4297 12.9794C13.0545 12.9065 12.7499 12.6639 12.5848 12.345C12.4326 12.0513 12.4512 11.7672 12.4589 11.6649C12.4672 11.5542 12.4879 11.4285 12.5033 11.3347C12.5045 11.3273 12.5057 11.3202 12.5068 11.3133L12.8096 9.46141L11.5342 8.1584C11.5293 8.15344 11.5243 8.14831 11.5191 8.14302C11.4544 8.07705 11.3653 7.98612 11.2947 7.89954C11.2262 7.81555 11.051 7.59315 11.0096 7.26484C10.9658 6.91659 11.0721 6.55746 11.316 6.28743C11.5481 6.03048 11.8339 5.95324 11.9398 5.92652C12.0489 5.89899 12.1753 5.87974 12.2639 5.86624C12.2712 5.86512 12.2783 5.86404 12.285 5.863L14.0107 5.59844L14.7907 3.94083C14.7937 3.93447 14.7968 3.92789 14.8 3.92112C14.84 3.83606 14.8942 3.72054 14.9502 3.62456C15.0001 3.5391 15.152 3.28202 15.4614 3.12728ZM16 6.06823L15.6724 6.7643C15.6723 6.76461 15.6719 6.76543 15.6713 6.76672C15.6612 6.79014 15.5834 6.96882 15.4517 7.11742C15.3477 7.23489 15.2204 7.33281 15.0756 7.40345C14.8856 7.49612 14.6809 7.51971 14.6648 7.52156C14.6642 7.52163 14.6649 7.52155 14.6648 7.52156L13.8341 7.64888L14.4649 8.29329C14.4652 8.2936 14.4659 8.29431 14.4671 8.29542C14.4867 8.31444 14.6256 8.4486 14.7188 8.62409C14.7912 8.76055 14.8367 8.90844 14.8542 9.0596C14.8763 9.25067 14.8413 9.43522 14.8356 9.46553C14.8352 9.4675 14.835 9.46882 14.8349 9.46945L14.6964 10.3163L15.359 9.95079C15.3586 9.95099 15.359 9.95077 15.359 9.95079C15.3703 9.94393 15.5494 9.83565 15.7577 9.79282C15.9176 9.75993 16.0824 9.75993 16.2423 9.79282C16.4505 9.83565 16.6291 9.94362 16.6404 9.95046C16.6404 9.95043 16.6408 9.95066 16.6404 9.95046L17.3036 10.3163L17.1651 9.46945C17.165 9.46882 17.1648 9.4675 17.1644 9.46553C17.1586 9.43521 17.1237 9.25067 17.1458 9.0596C17.1633 8.90844 17.2087 8.76055 17.2812 8.62409C17.3743 8.4486 17.5132 8.31443 17.5329 8.29542C17.5341 8.29431 17.5348 8.2936 17.5351 8.29329L18.1659 7.64888L17.3361 7.52168C17.3361 7.52166 17.3367 7.52174 17.3361 7.52168C17.3201 7.51982 17.1143 7.49612 16.9244 7.40345C16.7795 7.33281 16.6523 7.2349 16.5482 7.11742C16.4166 6.96882 16.3388 6.79013 16.3286 6.76672C16.3281 6.76543 16.3277 6.76461 16.3275 6.7643L16 6.06823Z" fill="#FF355E"/>
<path fill-rule="evenodd" clip-rule="evenodd" d="M16 14C16.5523 14 17 14.4477 17 15V27C17 27.5523 16.5523 28 16 28C15.4477 28 15 27.5523 15 27V15C15 14.4477 15.4477 14 16 14Z" fill="#FF355E"/>
<path fill-rule="evenodd" clip-rule="evenodd" d="M9.37528 18.2191C9.80655 17.8741 10.4358 17.944 10.7808 18.3753C11.5791 19.3732 13 21.7571 13 26C13 26.5523 12.5523 27 12 27C11.4477 27 11 26.5523 11 26C11 22.2429 9.75415 20.2935 9.21911 19.6247C8.8741 19.1934 8.94402 18.5641 9.37528 18.2191Z" fill="#FF355E"/>
<path fill-rule="evenodd" clip-rule="evenodd" d="M22.6247 18.2191C22.1934 17.8741 21.5641 17.944 21.2191 18.3753C20.4208 19.3732 19 21.7571 19 26C19 26.5523 19.4477 27 20 27C20.5523 27 21 26.5523 21 26C21 22.2429 22.2458 20.2935 22.7808 19.6247C23.1259 19.1934 23.0559 18.5641 22.6247 18.2191Z" fill="#FF355E"/>
</svg>
