<svg width="32" height="32" viewBox="0 0 32 32" fill="none" xmlns="http://www.w3.org/2000/svg">
<path fill-rule="evenodd" clip-rule="evenodd" d="M19.0218 3.09589C19.987 3.01255 20.8918 3.47755 21.7071 4.29289C22.5004 5.08618 23.0065 6.0155 22.7718 7.01202C22.6805 7.39963 22.4919 7.72582 22.2528 7.99998H25C26.6569 7.99998 28 9.34313 28 11V13C28 14.3062 27.1652 15.4174 26 15.8293V24C26 26.2091 24.2091 28 22 28H10C7.79086 28 6 26.2091 6 24V15.8293C4.83481 15.4174 4 14.3062 4 13V11C4 9.34313 5.34315 7.99998 7 7.99998H9.57547C9.33637 7.72582 9.1477 7.39963 9.05642 7.01202C8.82176 6.0155 9.32785 5.08618 10.1211 4.29289C10.9365 3.47755 11.8413 3.01255 12.8065 3.09589C13.7513 3.17748 14.4664 3.7619 14.9689 4.38438C15.3387 4.84251 15.6525 5.39319 15.9141 5.97103C16.1757 5.39319 16.4896 4.84251 16.8594 4.38438C17.3619 3.7619 18.077 3.17748 19.0218 3.09589ZM17.3289 7.8616C18.3727 7.71294 19.4373 7.46071 20.1617 7.09487C20.7114 6.81725 20.8137 6.6019 20.8251 6.5536C20.8276 6.54278 20.8402 6.48958 20.7856 6.36164C20.7246 6.2188 20.5855 5.99971 20.2929 5.7071C19.7082 5.12244 19.3505 5.07495 19.1939 5.08848C19.0168 5.10377 18.7506 5.2256 18.4156 5.64062C17.9716 6.19072 17.6004 7.01926 17.3289 7.8616ZM15.8225 9.99998C15.8264 10 15.8303 10 15.8341 9.99998H18V14H14V9.99998H15.8225ZM19 26H22C23.1046 26 24 25.1046 24 24V16H19V26ZM17 16V26H15V16H17ZM8 16H13V26H10C8.89543 26 8 25.1046 8 24V16ZM20 14V9.99998H25C25.5523 9.99998 26 10.4477 26 11V13C26 13.5523 25.5523 14 25 14H20ZM7 9.99998H12V14H7C6.44772 14 6 13.5523 6 13V11C6 10.4477 6.44772 9.99998 7 9.99998ZM11.6665 7.09487C12.3909 7.46071 13.4556 7.71294 14.4994 7.8616C14.2279 7.01926 13.8567 6.19072 13.4126 5.64062C13.0776 5.2256 12.8114 5.10377 12.6344 5.08848C12.4777 5.07495 12.12 5.12244 11.5353 5.7071C11.2427 5.99971 11.1036 6.2188 11.0426 6.36164C10.988 6.48958 11.0005 6.54237 11.0031 6.55319C11.0145 6.60149 11.1168 6.81725 11.6665 7.09487Z" fill="#FF355E"/>
</svg>
