<svg width="32" height="32" viewBox="0 0 32 32" fill="none" xmlns="http://www.w3.org/2000/svg">
<path fill-rule="evenodd" clip-rule="evenodd" d="M9 16C7.34315 16 6 17.3431 6 19C6 20.6569 7.34315 22 9 22C10.6569 22 12 20.6569 12 19C12 17.3431 10.6569 16 9 16ZM4 19C4 16.2386 6.23858 14 9 14C11.7614 14 14 16.2386 14 19C14 21.7614 11.7614 24 9 24C6.23858 24 4 21.7614 4 19Z" fill="#FF355E"/>
<path fill-rule="evenodd" clip-rule="evenodd" d="M3.5 28L2.79289 27.2929C2.40237 27.6834 2.40237 28.3166 2.79289 28.7071C3.18214 29.0964 3.81243 29.0976 4.20326 28.7109L4.21011 28.7044C4.2185 28.6965 4.23422 28.6818 4.25714 28.6615C4.303 28.6207 4.37742 28.5571 4.47936 28.4782C4.68361 28.3201 4.99588 28.1022 5.40809 27.8824C6.23151 27.4432 7.44577 27 9 27C10.5542 27 11.7685 27.4432 12.5919 27.8824C13.0041 28.1022 13.3164 28.3201 13.5206 28.4782C13.6226 28.5571 13.697 28.6207 13.7429 28.6615C13.7658 28.6818 13.7815 28.6965 13.7899 28.7044L13.7963 28.7105C14.1871 29.0972 14.8179 29.0963 15.2071 28.7071C15.5976 28.3166 15.5976 27.6834 15.2071 27.2929L14.5 28C15.2071 27.2929 15.2071 27.2929 15.2071 27.2929L15.2043 27.2901L15.2008 27.2866L15.1914 27.2774C15.1841 27.2703 15.1748 27.2614 15.1635 27.2507C15.1409 27.2293 15.1102 27.201 15.0716 27.1667C14.9944 27.098 14.8852 27.0054 14.745 26.8968C14.4649 26.6799 14.0584 26.3978 13.5331 26.1176C12.4815 25.5568 10.9458 25 9 25C7.05423 25 5.51849 25.5568 4.46691 26.1176C3.94162 26.3978 3.53514 26.6799 3.25501 26.8968C3.11477 27.0054 3.00559 27.098 2.92841 27.1667C2.8898 27.201 2.85913 27.2293 2.83652 27.2507C2.82522 27.2614 2.81592 27.2703 2.80865 27.2774L2.79925 27.2866L2.79569 27.2901L2.7942 27.2916C2.7942 27.2916 2.79289 27.2929 3.5 28ZM13.7935 28.7077L13.795 28.7092L13.7963 28.7105" fill="#FF355E"/>
<path fill-rule="evenodd" clip-rule="evenodd" d="M23 16C21.3431 16 20 17.3431 20 19C20 20.6569 21.3431 22 23 22C24.6569 22 26 20.6569 26 19C26 17.3431 24.6569 16 23 16ZM18 19C18 16.2386 20.2386 14 23 14C25.7614 14 28 16.2386 28 19C28 21.7614 25.7614 24 23 24C20.2386 24 18 21.7614 18 19Z" fill="#FF355E"/>
<path fill-rule="evenodd" clip-rule="evenodd" d="M16 4C14.3431 4 13 5.34315 13 7C13 8.65685 14.3431 10 16 10C17.6569 10 19 8.65685 19 7C19 5.34315 17.6569 4 16 4ZM11 7C11 4.23858 13.2386 2 16 2C18.7614 2 21 4.23858 21 7C21 9.76142 18.7614 12 16 12C13.2386 12 11 9.76142 11 7Z" fill="#FF355E"/>
<path fill-rule="evenodd" clip-rule="evenodd" d="M17.5 28L16.7929 27.2929C16.4024 27.6834 16.4024 28.3166 16.7929 28.7071C17.1821 29.0964 17.8124 29.0976 18.2033 28.7109L18.2101 28.7044C18.2185 28.6965 18.2342 28.6818 18.2571 28.6615C18.303 28.6207 18.3774 28.5571 18.4794 28.4782C18.6836 28.3201 18.9959 28.1022 19.4081 27.8824C20.2315 27.4432 21.4458 27 23 27C24.5542 27 25.7685 27.4432 26.5919 27.8824C27.0041 28.1022 27.3164 28.3201 27.5206 28.4782C27.6226 28.5571 27.697 28.6207 27.7429 28.6615C27.7658 28.6818 27.7815 28.6965 27.7899 28.7044L27.7963 28.7105C28.1871 29.0972 28.8179 29.0963 29.2071 28.7071C29.5976 28.3166 29.5976 27.6834 29.2071 27.2929L28.5 28C29.2071 27.2929 29.2071 27.2929 29.2071 27.2929L29.2043 27.2901L29.2008 27.2866L29.1914 27.2774C29.1841 27.2703 29.1748 27.2614 29.1635 27.2507C29.1409 27.2293 29.1102 27.201 29.0716 27.1667C28.9944 27.098 28.8852 27.0054 28.745 26.8968C28.4649 26.6799 28.0584 26.3978 27.5331 26.1176C26.4815 25.5568 24.9458 25 23 25C21.0542 25 19.5185 25.5568 18.4669 26.1176C17.9416 26.3978 17.5351 26.6799 17.255 26.8968C17.1148 27.0054 17.0056 27.098 16.9284 27.1667C16.8898 27.201 16.8591 27.2293 16.8365 27.2507C16.8252 27.2614 16.8159 27.2703 16.8086 27.2774L16.7992 27.2866L16.7957 27.2901L16.7942 27.2916C16.7942 27.2916 16.7929 27.2929 17.5 28ZM27.7935 28.7077L27.795 28.7092L27.7963 28.7105" fill="#FF355E"/>
<path fill-rule="evenodd" clip-rule="evenodd" d="M16 15C15.3463 15 14.7542 15.0783 14.2267 15.2011C13.6888 15.3263 13.1512 14.9917 13.026 14.4538C12.9008 13.9159 13.2354 13.3784 13.7733 13.2531C14.4409 13.0977 15.1852 13 16 13C16.8148 13 17.5591 13.0977 18.2267 13.2531C18.7646 13.3784 19.0992 13.9159 18.974 14.4538C18.8488 14.9917 18.3112 15.3263 17.7733 15.2011C17.2458 15.0783 16.6537 15 16 15Z" fill="#FF355E"/>
</svg>
