<svg width="32" height="32" viewBox="0 0 32 32" fill="none" xmlns="http://www.w3.org/2000/svg">
<path d="M13.1222 14.0075C13.6234 14.0692 14 14.495 14 15V23C14 23.5523 13.5523 24 13 24C12.4477 24 12 23.5523 12 23V17.8006C11.7089 17.9239 11.3766 18 11 18C10.4477 18 10 17.5523 10 17C10 16.4477 10.4477 16 11 16C11.2393 16 11.4749 15.8534 11.7145 15.47C11.8254 15.2925 11.9075 15.107 11.9621 14.9614C11.9888 14.8902 12.0075 14.8325 12.0187 14.7955C12.0243 14.777 12.028 14.764 12.0298 14.7573L12.0311 14.7526C12.1555 14.2654 12.6226 13.946 13.1222 14.0075Z" fill="#FF355E"/>
<path d="M18 17C18 16.4477 18.4477 16 19 16C19.5523 16 20 16.4477 20 17C20 17.5523 19.5523 18 19 18C17.3431 18 16 19.3431 16 21V23C16 23.5523 16.4477 24 17 24H21C21.5523 24 22 23.5523 22 23C22 22.4477 21.5523 22 21 22H18V21C18 20.4477 18.4477 20 19 20C20.6569 20 22 18.6569 22 17C22 15.3431 20.6569 14 19 14C17.3431 14 16 15.3431 16 17C16 17.5523 16.4477 18 17 18C17.5523 18 18 17.5523 18 17Z" fill="#FF355E"/>
<path fill-rule="evenodd" clip-rule="evenodd" d="M11 4C11 3.44772 10.5523 3 10 3C9.44772 3 9 3.44772 9 4V5H8C5.23858 5 3 7.23858 3 10V22C3 24.7614 5.23858 27 8 27H24C26.7614 27 29 24.7614 29 22V10C29 7.23858 26.7614 5 24 5H23V4C23 3.44772 22.5523 3 22 3C21.4477 3 21 3.44772 21 4V5H11V4ZM27 11V10C27 8.34315 25.6569 7 24 7H23V8C23 8.55228 22.5523 9 22 9C21.4477 9 21 8.55228 21 8V7H11V8C11 8.55228 10.5523 9 10 9C9.44772 9 9 8.55228 9 8V7H8C6.34315 7 5 8.34315 5 10V11H27ZM5 13H27V22C27 23.6569 25.6569 25 24 25H8C6.34315 25 5 23.6569 5 22V13Z" fill="#FF355E"/>
</svg>
