<svg width="32" height="32" viewBox="0 0 32 32" fill="none" xmlns="http://www.w3.org/2000/svg">
<path d="M18 14C18 13.4477 18.4477 13 19 13H24C24.5523 13 25 13.4477 25 14C25 14.5523 24.5523 15 24 15H19C18.4477 15 18 14.5523 18 14Z" fill="#FF355E"/>
<path d="M19 18C19 17.4477 19.4477 17 20 17H24C24.5523 17 25 17.4477 25 18C25 18.5523 24.5523 19 24 19H20C19.4477 19 19 18.5523 19 18Z" fill="#FF355E"/>
<path d="M8 8C6.34315 8 5 9.34315 5 11V21C5 22.6569 6.34315 24 8 24H24C25.6569 24 27 22.6569 27 21V11C27 9.34315 25.6569 8 24 8H8ZM3 11C3 8.23858 5.23858 6 8 6H24C26.7614 6 29 8.23858 29 11V21C29 23.7614 26.7614 26 24 26H8C5.23858 26 3 23.7614 3 21V11Z" fill="#FF355E"/>
<path d="M11.8334 9.61111C9.62424 9.61111 7.83337 11.402 7.83337 13.6111C7.83337 15.2336 8.79943 16.6305 10.1877 17.258C9.89028 17.3503 9.60349 17.4681 9.3254 17.6122C8.53185 18.0237 7.86368 18.6224 7.24074 19.3492C6.88132 19.7685 6.92988 20.3998 7.34921 20.7593C7.76853 21.1187 8.39983 21.0701 8.75926 20.6508C9.27917 20.0442 9.75386 19.643 10.246 19.3878C10.7285 19.1376 11.2813 19 12 19C12.7187 19 13.2715 19.1376 13.754 19.3878C14.2461 19.643 14.7208 20.0442 15.2407 20.6508C15.6002 21.0701 16.2315 21.1187 16.6508 20.7593C17.0701 20.3998 17.1187 19.7685 16.7593 19.3492C16.1363 18.6224 15.4681 18.0237 14.6746 17.6122C14.3325 17.4349 13.9773 17.2975 13.6052 17.1983C14.9255 16.5449 15.8334 15.184 15.8334 13.6111C15.8334 11.402 14.0425 9.61111 11.8334 9.61111ZM11.8334 11.6111C12.9379 11.6111 13.8334 12.5065 13.8334 13.6111C13.8334 14.7157 12.9379 15.6111 11.8334 15.6111C10.7288 15.6111 9.83337 14.7157 9.83337 13.6111C9.83337 12.5065 10.7288 11.6111 11.8334 11.6111Z" fill="#FF355E"/>
</svg>
