<svg width="32" height="32" viewBox="0 0 32 32" fill="none" xmlns="http://www.w3.org/2000/svg">
<path d="M12 12C11.4477 12 11 12.4477 11 13C11 13.5523 11.4477 14 12 14H20C20.5523 14 21 13.5523 21 13C21 12.4477 20.5523 12 20 12H12Z" fill="#FF355E"/>
<path d="M11 17C11 16.4477 11.4477 16 12 16H20C20.5523 16 21 16.4477 21 17C21 17.5523 20.5523 18 20 18H12C11.4477 18 11 17.5523 11 17Z" fill="#FF355E"/>
<path d="M12 20C11.4477 20 11 20.4477 11 21C11 21.5523 11.4477 22 12 22H20C20.5523 22 21 21.5523 21 21C21 20.4477 20.5523 20 20 20H12Z" fill="#FF355E"/>
<path d="M11 3C8.23858 3 6 5.23858 6 8V24C6 26.7614 8.23858 29 11 29H21C23.7614 29 26 26.7614 26 24V11.6569C26 10.3308 25.4732 9.059 24.5355 8.12132L20.8787 4.46447C19.941 3.52678 18.6692 3 17.3431 3H11ZM8 8C8 6.34315 9.34315 5 11 5H17.3431C18.1388 5 18.9019 5.31607 19.4645 5.87868L23.1213 9.53553C23.6839 10.0981 24 10.8612 24 11.6569V24C24 25.6569 22.6569 27 21 27H11C9.34315 27 8 25.6569 8 24V8Z" fill="#FF355E"/>
</svg>
