<svg width="32" height="32" viewBox="0 0 32 32" fill="none" xmlns="http://www.w3.org/2000/svg">
<path fill-rule="evenodd" clip-rule="evenodd" d="M16 10C13.7909 10 12 11.7909 12 14C12 16.2091 13.7909 18 16 18C18.2091 18 20 16.2091 20 14C20 11.7909 18.2091 10 16 10ZM14 14C14 12.8954 14.8954 12 16 12C17.1046 12 18 12.8954 18 14C18 15.1046 17.1046 16 16 16C14.8954 16 14 15.1046 14 14Z" fill="#FF355E"/>
<path fill-rule="evenodd" clip-rule="evenodd" d="M22.369 7.67577C18.8532 4.10808 13.1468 4.10808 9.63098 7.67577C6.64194 10.7089 6.14304 15.4393 8.42592 19.0429C10.3852 22.1357 13.8747 26.599 14.228 27.0495L14.2302 27.0526L14.2383 27.0641L14.2523 27.0843C15.1005 28.3052 16.8995 28.3052 17.7477 27.0843L17.7617 27.0641L17.7698 27.0526L17.772 27.0495C18.1254 26.599 21.6148 22.1356 23.5741 19.0429C25.857 15.4393 25.358 10.7089 22.369 7.67577ZM11.0555 9.07959C13.788 6.3068 18.212 6.3068 20.9445 9.07959C23.2776 11.4471 23.6717 15.1514 21.8846 17.9725C19.9863 20.969 16.556 25.3592 16.1972 25.8166C16.1587 25.8658 16.1254 25.914 16.11 25.9363L16.1052 25.9432C16.0526 26.0189 15.9474 26.0189 15.8948 25.9432L15.89 25.9363C15.8747 25.9141 15.8413 25.8658 15.8028 25.8166C15.444 25.3592 12.0137 20.969 10.1154 17.9725C8.32825 15.1514 8.7224 11.4471 11.0555 9.07959Z" fill="#FF355E"/>
</svg>
