<svg width="32" height="32" viewBox="0 0 32 32" fill="none" xmlns="http://www.w3.org/2000/svg">
<path d="M7 10.5C7 6.91015 9.91015 4 13.5 4C17.0899 4 20 6.91015 20 10.5C20 14.0899 17.0899 17 13.5 17C9.91015 17 7 14.0899 7 10.5ZM13.5 6C11.0147 6 9 8.01472 9 10.5C9 12.9853 11.0147 15 13.5 15C15.9853 15 18 12.9853 18 10.5C18 8.01472 15.9853 6 13.5 6Z" fill="#FF355E"/>
<path d="M23 22.5C23.5523 22.5 24 22.9477 24 23.5V24.5C24 25.0523 23.5523 25.5 23 25.5C22.4477 25.5 22 25.0523 22 24.5V23.5C22 22.9477 22.4477 22.5 23 22.5Z" fill="#FF355E"/>
<path d="M20 19V18C20 16.3431 21.3431 15 23 15C24.6569 15 26 16.3431 26 18V19H27C28.6569 19 30 20.3431 30 22V26C30 27.6569 28.6569 29 27 29H19C17.3431 29 16 27.6569 16 26V22C16 20.3431 17.3431 19 19 19H20ZM22 18V19H24V18C24 17.4477 23.5523 17 23 17C22.4477 17 22 17.4477 22 18ZM18 22V26C18 26.5523 18.4477 27 19 27H27C27.5523 27 28 26.5523 28 26V22C28 21.4477 27.5523 21 27 21H19C18.4477 21 18 21.4477 18 22Z" fill="#FF355E"/>
<path d="M7 24C7 21.7909 8.79086 20 11 20H14C14.5523 20 15 19.5523 15 19C15 18.4477 14.5523 18 14 18H11C7.68629 18 5 20.6863 5 24C5 24.5523 5.44772 25 6 25C6.55228 25 7 24.5523 7 24Z" fill="#FF355E"/>
</svg>
