<svg width="32" height="32" viewBox="0 0 32 32" fill="none" xmlns="http://www.w3.org/2000/svg">
<path d="M12 5C10.3431 5 9 6.34315 9 8V24C9 25.6569 10.3431 27 12 27H15C15.5523 27 16 27.4477 16 28C16 28.5523 15.5523 29 15 29H12C9.23858 29 7 26.7614 7 24V8C7 5.23858 9.23858 3 12 3H20C22.7614 3 25 5.23858 25 8V14C25 14.5523 24.5523 15 24 15C23.4477 15 23 14.5523 23 14V8C23 6.34315 21.6569 5 20 5H12Z" fill="#FF355E"/>
<path d="M25 21.5C25 20.9477 24.5523 20.5 24 20.5C23.4477 20.5 23 20.9477 23 21.5V24C23 24.5523 23.4477 25 24 25H26C26.5523 25 27 24.5523 27 24C27 23.4477 26.5523 23 26 23H25V21.5Z" fill="#FF355E"/>
<path fill-rule="evenodd" clip-rule="evenodd" d="M24 17C20.134 17 17 20.134 17 24C17 27.866 20.134 31 24 31C27.866 31 31 27.866 31 24C31 20.134 27.866 17 24 17ZM19 24C19 21.2386 21.2386 19 24 19C26.7614 19 29 21.2386 29 24C29 26.7614 26.7614 29 24 29C21.2386 29 19 26.7614 19 24Z" fill="#FF355E"/>
<path d="M14 7C13.4477 7 13 7.44772 13 8C13 8.55228 13.4477 9 14 9H18C18.5523 9 19 8.55228 19 8C19 7.44772 18.5523 7 18 7H14Z" fill="#FF355E"/>
</svg>
