<svg width="32" height="32" viewBox="0 0 32 32" fill="none" xmlns="http://www.w3.org/2000/svg">
<path d="M15 14C14.4477 14 14 14.4477 14 15C14 15.5523 14.4477 16 15 16H17C18.6569 16 20 17.3431 20 19C20 20.6569 18.6569 22 17 22C17 22.5523 16.5523 23 16 23C15.4477 23 15 22.5523 15 22L15 21.9926C14.0277 21.9336 13.107 21.5212 12.4142 20.8284L12.2929 20.7071C11.9024 20.3166 11.9024 19.6834 12.2929 19.2929C12.6834 18.9024 13.3166 18.9024 13.7071 19.2929L13.8284 19.4142C14.2035 19.7893 14.7122 20 15.2426 20H17C17.5523 20 18 19.5523 18 19C18 18.4477 17.5523 18 17 18H15C13.3431 18 12 16.6569 12 15C12 13.3431 13.3431 12 15 12C15 11.4477 15.4477 11 16 11C16.5523 11 17 11.4477 17 12L17 12.0074C17.9723 12.0664 18.893 12.4788 19.5858 13.1716L19.7071 13.2929C20.0976 13.6834 20.0976 14.3166 19.7071 14.7071C19.3166 15.0976 18.6834 15.0976 18.2929 14.7071L18.1716 14.5858C17.7965 14.2107 17.2878 14 16.7574 14H15Z" fill="#FF355E"/>
<path d="M12.3234 3C11.6986 3 11.1232 3.29007 10.767 3.76368C10.3975 4.25504 10.2754 4.94031 10.5861 5.58911C10.9904 6.43328 11.5868 7.16867 12.319 7.73831C10.3087 8.62823 8.8818 10.2364 7.91421 12.0833C6.46268 14.8538 6 18.2143 6 20.7317C6 23.4959 7.18223 25.3977 9.1279 26.5456C10.9874 27.6427 13.4537 28 16 28C18.5463 28 21.0126 27.6427 22.8721 26.5456C24.8178 25.3977 26 23.4959 26 20.7317C26 18.2143 25.5373 14.8538 24.0858 12.0833C23.1182 10.2364 21.6913 8.62824 19.681 7.73831C20.4132 7.16867 21.0096 6.43328 21.4139 5.58911C21.7247 4.94031 21.6025 4.25504 21.233 3.76368C20.8768 3.29007 20.3014 3 19.6766 3H12.3234ZM16 7C14.5209 7 13.2276 6.19721 12.5349 5H19.4651C18.7725 6.19721 17.4791 7 16 7ZM9.68579 13.0114C10.9085 10.6777 12.8603 9 16 9C19.1397 9 21.0915 10.6777 22.3142 13.0114C23.5627 15.3944 24 18.3998 24 20.7317C24 22.8169 23.1675 24.0492 21.8558 24.8231C20.458 25.6478 18.4243 26 16 26C13.5757 26 11.542 25.6478 10.1442 24.8231C8.83249 24.0492 8 22.8169 8 20.7317C8 18.3998 8.43732 15.3944 9.68579 13.0114Z" fill="#FF355E"/>
</svg>
