<svg width="32" height="32" viewBox="0 0 32 32" fill="none" xmlns="http://www.w3.org/2000/svg">
<path fill-rule="evenodd" clip-rule="evenodd" d="M9 10C9 8.34315 10.3431 7 12 7C13.6569 7 15 8.34315 15 10C15 11.6569 13.6569 13 12 13C10.3431 13 9 11.6569 9 10ZM17 10C17 11.5202 16.3215 12.882 15.2509 13.7991C17.2523 14.8505 18.6823 16.8425 18.9534 19.1876C19.2792 19.0663 19.6319 19 20 19H27C28.6569 19 30 20.3431 30 22V26C30 27.6569 28.6569 29 27 29H20C18.3431 29 17 27.6569 17 26V22.8293C16.6872 22.9398 16.3506 23 16 23V24C16 25.6569 14.6569 27 13 27H11C9.34315 27 8 25.6569 8 24V23C6.34315 23 5 21.6569 5 20C5 17.3075 6.52021 14.97 8.74913 13.7991C7.67847 12.882 7 11.5202 7 10C7 7.23858 9.23858 5 12 5C14.7614 5 17 7.23858 17 10ZM7 20C7 17.2386 9.23858 15 12 15C14.7614 15 17 17.2386 17 20C17 20.5523 16.5523 21 16 21H15C14.4477 21 14 21.4477 14 22V24C14 24.5523 13.5523 25 13 25H11C10.4477 25 10 24.5523 10 24V22C10 21.4477 9.55228 21 9 21H8C7.44772 21 7 20.5523 7 20ZM19 5C18.4477 5 18 5.44772 18 6C18 6.55228 18.4477 7 19 7C20.6569 7 22 8.34315 22 10C22 11.6569 20.6569 13 19 13C18.4477 13 18 13.4477 18 14C18 14.5523 18.4477 15 19 15C20.0897 15 21.0954 15.3475 21.916 15.9378C22.3644 16.2603 22.9893 16.1583 23.3118 15.71C23.6343 15.2617 23.5323 14.6368 23.084 14.3143C22.8195 14.124 22.5411 13.9517 22.2507 13.7992C23.3215 12.8822 24 11.5203 24 10C24 7.23858 21.7614 5 19 5ZM20.6483 21L23.5 22.8147L26.3517 21H20.6483ZM28 22.3217L24.0369 24.8437C23.7093 25.0521 23.2907 25.0521 22.9631 24.8437L19 22.3217V26C19 26.5523 19.4477 27 20 27H27C27.5523 27 28 26.5523 28 26V22.3217Z" fill="#FF355E"/>
</svg>
