<svg width="32" height="32" viewBox="0 0 32 32" fill="none" xmlns="http://www.w3.org/2000/svg">
<path fill-rule="evenodd" clip-rule="evenodd" d="M20 8.5C20 6.567 21.567 5 23.5 5C25.433 5 27 6.567 27 8.5C27 10.433 25.433 12 23.5 12C22.8972 12 22.3301 11.8476 21.8349 11.5793L19.4462 13.968C19.7981 14.5635 20 15.2582 20 16C20 16.7418 19.7981 17.4365 19.4462 18.032L22.5864 21.1722C22.8694 21.061 23.1776 21 23.5 21C24.8807 21 26 22.1193 26 23.5C26 24.8807 24.8807 26 23.5 26C22.1193 26 21 24.8807 21 23.5C21 23.1776 21.061 22.8694 21.1722 22.5864L18.032 19.4462C17.4365 19.7981 16.7418 20 16 20C15.2582 20 14.5635 19.7981 13.968 19.4462L11.7076 21.7066C11.895 22.0982 12 22.5369 12 23C12 24.6569 10.6569 26 9 26C7.34315 26 6 24.6569 6 23C6 21.3431 7.34315 20 9 20C9.46315 20 9.90178 20.105 10.2934 20.2924L12.5538 18.032C12.2019 17.4365 12 16.7418 12 16C12 15.2582 12.2019 14.5635 12.5538 13.968L9.41359 10.8278C9.1306 10.939 8.82243 11 8.5 11C7.11929 11 6 9.88071 6 8.5C6 7.11929 7.11929 6 8.5 6C9.88071 6 11 7.11929 11 8.5C11 8.82243 10.939 9.1306 10.8278 9.4136L13.968 12.5538C14.5635 12.2019 15.2582 12 16 12C16.7418 12 17.4365 12.2019 18.032 12.5538L20.4207 10.1651C20.1524 9.66993 20 9.10276 20 8.5ZM23.5 7C22.6716 7 22 7.67157 22 8.5C22 9.32843 22.6716 10 23.5 10C24.3284 10 25 9.32843 25 8.5C25 7.67157 24.3284 7 23.5 7ZM16 14C14.8954 14 14 14.8954 14 16C14 17.1046 14.8954 18 16 18C17.1046 18 18 17.1046 18 16C18 14.8954 17.1046 14 16 14ZM8 23C8 22.4477 8.44772 22 9 22C9.55228 22 10 22.4477 10 23C10 23.5523 9.55228 24 9 24C8.44772 24 8 23.5523 8 23ZM8.5 8C8.22386 8 8 8.22386 8 8.5C8 8.77614 8.22386 9 8.5 9C8.77614 9 9 8.77614 9 8.5C9 8.22386 8.77614 8 8.5 8ZM23 23.5C23 23.2239 23.2239 23 23.5 23C23.7761 23 24 23.2239 24 23.5C24 23.7761 23.7761 24 23.5 24C23.2239 24 23 23.7761 23 23.5Z" fill="#FF355E"/>
</svg>
