<svg width="32" height="32" viewBox="0 0 32 32" fill="none" xmlns="http://www.w3.org/2000/svg">
<path d="M9.01537 4.99996C8.07632 4.9997 7.43597 4.99951 6.88216 5.12654C5.01391 5.55507 3.55507 7.01391 3.12654 8.88216C2.99951 9.43597 2.9997 10.0763 2.99996 11.0154L2.99999 18.6428C2.99998 19.7266 2.99997 20.6007 3.05781 21.3086C3.11736 22.0375 3.24317 22.6777 3.54496 23.2699C4.02432 24.2108 4.78922 24.9757 5.73004 25.455C6.32233 25.7568 6.96251 25.8826 7.69136 25.9422C8.39922 26 9.27333 26 10.3571 26H13C13.5523 26 14 25.5523 14 25C14 24.4477 13.5523 24 13 24H10.4C9.26338 24 8.47107 23.9992 7.85423 23.9488C7.24906 23.8994 6.90137 23.8072 6.63802 23.673C6.07353 23.3854 5.61459 22.9264 5.32697 22.362C5.19278 22.0986 5.10061 21.7509 5.05116 21.1457C5.00077 20.5289 4.99999 19.7366 4.99999 18.6V11.1483C4.99999 10.0256 5.00637 9.63252 5.07592 9.32929C5.33304 8.20834 6.20834 7.33304 7.32929 7.07592C7.63252 7.00637 8.02565 6.99999 9.14831 6.99999H11.9368C13.0617 6.99999 14.0687 7.6978 14.4637 8.75111C14.9709 10.1038 16.2641 11 17.7088 11H24C25.6568 11 27 12.3431 27 14C27 14.5523 27.4477 15 28 15C28.5523 15 29 14.5523 29 14C29 11.2386 26.7614 8.99999 24 8.99999H17.7088C17.0978 8.99999 16.5509 8.62097 16.3363 8.04886C15.6486 6.21494 13.8954 4.99999 11.9368 4.99999L9.01537 4.99996Z" fill="#FF355E"/>
<path d="M24 21C24.5523 21 25 21.4477 25 22V23H26C26.5523 23 27 23.4477 27 24C27 24.5523 26.5523 25 26 25H25V26C25 26.5523 24.5523 27 24 27C23.4477 27 23 26.5523 23 26V25H22C21.4477 25 21 24.5523 21 24C21 23.4477 21.4477 23 22 23H23V22C23 21.4477 23.4477 21 24 21Z" fill="#FF355E"/>
<path fill-rule="evenodd" clip-rule="evenodd" d="M24 17C20.134 17 17 20.134 17 24C17 27.866 20.134 31 24 31C27.866 31 31 27.866 31 24C31 20.134 27.866 17 24 17ZM19 24C19 21.2386 21.2386 19 24 19C26.7614 19 29 21.2386 29 24C29 26.7614 26.7614 29 24 29C21.2386 29 19 26.7614 19 24Z" fill="#FF355E"/>
</svg>
