<svg width="32" height="32" viewBox="0 0 32 32" fill="none" xmlns="http://www.w3.org/2000/svg">
<path d="M17 3C17 2.44772 16.5522 2 16 2C15.4477 2 15 2.44772 15 3V10C15 10.5523 15.4477 11 16 11C16.5522 11 17 10.5523 17 10V3Z" fill="#FF355E"/>
<path d="M6.70175 17.3768C6.37402 15.1635 6.84654 12.9059 8.03438 11.0098C9.22222 9.11374 11.0475 7.70356 13.182 7.03278C13.7089 6.86721 14.0017 6.30586 13.8362 5.77898C13.6706 5.2521 13.1093 4.9592 12.5824 5.12477C9.99369 5.93828 7.78008 7.64852 6.3395 9.94804C4.89892 12.2476 4.32586 14.9856 4.72332 17.6698C5.12079 20.354 6.46273 22.8084 8.50788 24.5918C10.553 26.3752 13.1673 27.3705 15.8806 27.3989C18.594 27.4273 21.2285 26.4869 23.3105 24.7468C25.3926 23.0066 26.7856 20.5808 27.2391 17.9055C27.6927 15.2301 27.1771 12.4808 25.7849 10.1516C24.3928 7.8224 22.2155 6.0662 19.6444 5.19869C19.1211 5.02213 18.5537 5.30321 18.3772 5.82651C18.2006 6.34981 18.4817 6.91716 19.005 7.09373C21.125 7.80904 22.9203 9.25712 24.0682 11.1777C25.2161 13.0982 25.6413 15.3652 25.2673 17.5712C24.8933 19.7771 23.7447 21.7773 22.0279 23.2122C20.3112 24.647 18.1389 25.4225 15.9016 25.3991C13.6643 25.3756 11.5087 24.5549 9.82233 23.0844C8.13598 21.6139 7.02949 19.5901 6.70175 17.3768Z" fill="#FF355E"/>
</svg>
