<svg width="32" height="32" viewBox="0 0 32 32" fill="none" xmlns="http://www.w3.org/2000/svg">
<path d="M6 8C6 5.23858 8.23858 3 11 3H21C21.5523 3 22 3.44772 22 4C22 4.55228 21.5523 5 21 5H11C9.34315 5 8 6.34315 8 8V25C8 25.7286 7.80521 26.4117 7.46487 27H22C23.1046 27 24 26.1046 24 25V18C24 17.4477 24.4477 17 25 17C25.5523 17 26 17.4477 26 18V25C26 27.2091 24.2091 29 22 29H4C3.44772 29 3 28.5523 3 28C3 27.4477 3.44772 27 4 27C5.10457 27 6 26.1046 6 25V8Z" fill="#FF355E"/>
<path fill-rule="evenodd" clip-rule="evenodd" d="M28.2071 5.79291C26.9882 4.57395 25.0119 4.57396 23.7929 5.79291L17.7929 11.7929C17.6399 11.9459 17.5407 12.1444 17.5101 12.3586L17.0101 15.8586C16.9655 16.1702 17.0703 16.4846 17.2929 16.7071C17.5155 16.9297 17.8298 17.0345 18.1414 16.99L21.6414 16.49C21.8556 16.4594 22.0541 16.3601 22.2071 16.2071L28.2071 10.2071C29.4261 8.98817 29.4261 7.01186 28.2071 5.79291ZM26.7929 7.20712C26.355 6.76922 25.645 6.76922 25.2071 7.20712L19.4428 12.9714L19.1785 14.8215L21.0286 14.5572L26.7929 8.79291C27.2308 8.355 27.2308 7.64502 26.7929 7.20712Z" fill="#FF355E"/>
<path d="M11 10C11 9.44772 11.4477 9 12 9H16C16.5523 9 17 9.44772 17 10C17 10.5523 16.5523 11 16 11H12C11.4477 11 11 10.5523 11 10Z" fill="#FF355E"/>
<path d="M12 14C11.4477 14 11 14.4477 11 15C11 15.5523 11.4477 16 12 16H14C14.5523 16 15 15.5523 15 15C15 14.4477 14.5523 14 14 14H12Z" fill="#FF355E"/>
<path d="M11 20C11 19.4477 11.4477 19 12 19H20C20.5523 19 21 19.4477 21 20C21 20.5523 20.5523 21 20 21H12C11.4477 21 11 20.5523 11 20Z" fill="#FF355E"/>
</svg>
