<svg width="32" height="32" viewBox="0 0 32 32" fill="none" xmlns="http://www.w3.org/2000/svg">
<path d="M11 3C8.23858 3 6 5.23858 6 8V24C6 26.7614 8.23858 29 11 29H14C14.5523 29 15 28.5523 15 28C15 27.4477 14.5523 27 14 27H11C9.34315 27 8 25.6569 8 24V8C8 6.34315 9.34315 5 11 5H17.3431C18.1388 5 18.9019 5.31607 19.4645 5.87868L23.1213 9.53553C23.6839 10.0981 24 10.8612 24 11.6569V14C24 14.5523 24.4477 15 25 15C25.5523 15 26 14.5523 26 14V11.6569C26 10.3308 25.4732 9.059 24.5355 8.12132L20.8787 4.46447C19.941 3.52678 18.6692 3 17.3431 3H11Z" fill="#FF355E"/>
<path d="M26.7071 24.7071L24.7071 26.7071C24.3166 27.0976 23.6834 27.0976 23.2929 26.7071C22.9024 26.3166 22.9024 25.6834 23.2929 25.2929L23.5858 25H21.5C20.9477 25 20.5 24.5523 20.5 24C20.5 23.4477 20.9477 23 21.5 23H23.5858L23.2929 22.7071C22.9024 22.3166 22.9024 21.6834 23.2929 21.2929C23.6834 20.9024 24.3166 20.9024 24.7071 21.2929L26.7071 23.2929C27.0976 23.6834 27.0976 24.3166 26.7071 24.7071Z" fill="#FF355E"/>
<path fill-rule="evenodd" clip-rule="evenodd" d="M24 17C27.866 17 31 20.134 31 24C31 27.866 27.866 31 24 31C20.134 31 17 27.866 17 24C17 20.134 20.134 17 24 17ZM29 24C29 21.2386 26.7614 19 24 19C21.2386 19 19 21.2386 19 24C19 26.7614 21.2386 29 24 29C26.7614 29 29 26.7614 29 24Z" fill="#FF355E"/>
<path d="M14 8C14.5523 8 15 8.44773 15 9H16C16.5523 9 17 9.44772 17 10C17 10.5523 16.5523 11 16 11H13.5C13.2239 11 13 11.2239 13 11.5C13 11.7761 13.2239 12 13.5 12H14.5C15.8807 12 17 13.1193 17 14.5C17 15.7099 16.1405 16.7191 14.9988 16.9502C14.9996 16.9667 15 16.9833 15 17C15 17.5523 14.5523 18 14 18C13.4477 18 13 17.5523 13 17C13 17 13 17 13 17L12 17C11.4477 17 11 16.5523 11 16C11 15.4477 11.4477 15 12 15H14.5C14.7761 15 15 14.7761 15 14.5C15 14.2239 14.7761 14 14.5 14H13.5C12.1193 14 11 12.8807 11 11.5C11 10.2901 11.8595 9.28093 13.0012 9.04976C13.0004 9.03328 13 9.0167 13 9.00002C13 8.44774 13.4477 8 14 8Z" fill="#FF355E"/>
</svg>
