<svg width="32" height="32" viewBox="0 0 32 32" fill="none" xmlns="http://www.w3.org/2000/svg">
<path d="M20.0769 11C20.0769 10.4477 20.5246 10 21.0769 10H26C26.5523 10 27 10.4477 27 11V15.5714C27 16.1237 26.5523 16.5714 26 16.5714C25.4477 16.5714 25 16.1237 25 15.5714V13.2932L19.9921 17.9434C19.986 17.9491 19.9798 17.9548 19.9736 17.9606C19.8682 18.0585 19.7501 18.1683 19.639 18.2559C19.5108 18.3569 19.3322 18.4781 19.0944 18.5499C18.7824 18.644 18.4483 18.644 18.1364 18.5499C17.8985 18.4781 17.7199 18.3569 17.5918 18.2559C17.4807 18.1683 17.3626 18.0585 17.2572 17.9606C17.251 17.9548 17.2448 17.9491 17.2387 17.9434L14.9389 15.8079C14.9335 15.8029 14.9282 15.798 14.9231 15.7932C14.9179 15.798 14.9127 15.8029 14.9073 15.8079L10.6805 19.7328C10.2757 20.1086 9.64301 20.0852 9.26721 19.6805C8.8914 19.2757 8.91484 18.643 9.31955 18.2672L13.5464 14.3423C13.5525 14.3366 13.5587 14.3309 13.5649 14.3251C13.6703 14.2272 13.7884 14.1174 13.8995 14.0299C14.0276 13.9289 14.2062 13.8076 14.4441 13.7359C14.756 13.6417 15.0901 13.6417 15.4021 13.7359C15.6399 13.8076 15.8185 13.9289 15.9467 14.0299C16.0578 14.1174 16.1759 14.2272 16.2813 14.3251C16.2875 14.3309 16.2936 14.3366 16.2998 14.3423L18.5996 16.4779C18.605 16.4828 18.6102 16.4877 18.6154 16.4925C18.6205 16.4877 18.6258 16.4828 18.6312 16.4779L23.4535 12H21.0769C20.5246 12 20.0769 11.5523 20.0769 11Z" fill="#FF355E"/>
<path d="M5 6C5.55228 6 6 6.44772 6 7V24H27C27.5523 24 28 24.4477 28 25C28 25.5523 27.5523 26 27 26H5C4.44772 26 4 25.5523 4 25V7C4 6.44772 4.44772 6 5 6Z" fill="#FF355E"/>
</svg>
