<svg width="32" height="32" viewBox="0 0 32 32" fill="none" xmlns="http://www.w3.org/2000/svg">
<path d="M12.2419 4.20618C14.5348 2.74702 17.4652 2.74703 19.7581 4.20619L25.6844 7.97743C27.1266 8.89522 28 10.4862 28 12.1957V19.8042C28 21.5137 27.1266 23.1047 25.6844 24.0225L19.7581 27.7937C17.4652 29.2529 14.5348 29.2529 12.2419 27.7937L6.31562 24.0225C4.87338 23.1047 4 21.5137 4 19.8042V12.1957C4 10.4862 4.87338 8.89522 6.31562 7.97743L12.2419 4.20618ZM18.6844 5.89351C17.0465 4.85125 14.9535 4.85125 13.3156 5.89351L7.38938 9.66476C7.2186 9.77343 7.06111 9.89784 6.91833 10.0354L16 15.8147L25.0817 10.0354C24.9389 9.89784 24.7814 9.77343 24.6106 9.66476L18.6844 5.89351ZM6 12.1957V19.8042C6 20.8299 6.52403 21.7845 7.38937 22.3352L13.3156 26.1064C13.8403 26.4403 14.4118 26.6672 15 26.7872V17.5489L6.02168 11.8354C6.00733 11.9542 6 12.0745 6 12.1957ZM25.9783 11.8354L17 17.5489V26.7872C17.5882 26.6672 18.1597 26.4403 18.6844 26.1064L19.5 25.5874V20.5703C19.5 19.9016 19.8342 19.2772 20.3906 18.9062L22.4453 17.5364C23.1099 17.0934 24 17.5698 24 18.3685V22.7237L24.6106 22.3352C25.476 21.7845 26 20.8299 26 19.8042V12.1957C26 12.0745 25.9927 11.9542 25.9783 11.8354Z" fill="#FF355E"/>
</svg>
