<svg width="32" height="32" viewBox="0 0 32 32" fill="none" xmlns="http://www.w3.org/2000/svg">
<path d="M9 5C6.79086 5 5 6.79086 5 9V12C5 14.2091 6.79086 16 9 16H12C14.2091 16 16 14.2091 16 12V9C16 6.79086 14.2091 5 12 5H9ZM7 9C7 7.89543 7.89543 7 9 7H12C13.1046 7 14 7.89543 14 9V12C14 13.1046 13.1046 14 12 14H9C7.89543 14 7 13.1046 7 12V9Z" fill="#FF355E"/>
<path d="M20 16C17.7909 16 16 17.7909 16 20V23C16 25.2091 17.7909 27 20 27H23C25.2091 27 27 25.2091 27 23V20C27 17.7909 25.2091 16 23 16H20ZM18 20C18 18.8954 18.8954 18 20 18H23C24.1046 18 25 18.8954 25 20V23C25 24.1046 24.1046 25 23 25H20C18.8954 25 18 24.1046 18 23V20Z" fill="#FF355E"/>
<path d="M9 18C9.55228 18 10 18.4477 10 19V21C10 21.5523 10.4477 22 11 22L11 21C11 20.5955 11.2436 20.2309 11.6173 20.0761C11.991 19.9213 12.4211 20.0069 12.7071 20.2929L14.7071 22.2929C15.0976 22.6834 15.0976 23.3166 14.7071 23.7071L12.7071 25.7071C12.4211 25.9931 11.991 26.0786 11.6173 25.9238C11.2436 25.7691 11 25.4044 11 25V24C9.34315 24 8 22.6569 8 21V19C8 18.4477 8.44772 18 9 18Z" fill="#FF355E"/>
<path d="M22 13C22 13.5523 22.4477 14 23 14C23.5523 14 24 13.5523 24 13V11C24 9.34315 22.6569 8 21 8V7.00003C21 6.59557 20.7564 6.23093 20.3827 6.07615C20.009 5.92137 19.5789 6.00692 19.2929 6.29292L17.2929 8.29292C16.9024 8.68345 16.9024 9.31661 17.2929 9.70714L19.2929 11.7071C19.5789 11.9931 20.009 12.0787 20.3827 11.9239C20.7564 11.7691 21 11.4045 21 11V10C21.5523 10 22 10.4477 22 11V13Z" fill="#FF355E"/>
</svg>
