<svg width="32" height="32" viewBox="0 0 32 32" fill="none" xmlns="http://www.w3.org/2000/svg">
<path d="M21.4033 11.0739C22.1844 11.8549 22.1844 13.1213 21.4033 13.9023C20.6223 14.6834 19.356 14.6834 18.5749 13.9023C17.7939 13.1213 17.7939 11.8549 18.5749 11.0739C19.356 10.2928 20.6223 10.2928 21.4033 11.0739Z" fill="#FF355E"/>
<path fill-rule="evenodd" clip-rule="evenodd" d="M27.517 4.08793C27.9526 4.15604 28.297 4.49276 28.375 4.92662C28.721 6.8516 28.3081 9.58513 27.1128 12.3752C25.9818 15.0153 24.1148 17.7931 21.3781 20.1013C22.0294 22.5405 21.1346 24.6339 19.6533 26.0953C18.0748 27.6526 15.7824 28.5587 13.8125 28.5588C13.2415 28.5588 12.7785 28.0958 12.7785 27.5247L12.7784 23.7555L12.5685 23.7834C12.2493 23.8259 11.9286 23.7172 11.701 23.4896L9.06917 20.8578C8.84152 20.6301 8.73289 20.3094 8.77533 19.9903L8.80325 19.7803L5.03402 19.7803C4.46294 19.7802 4 19.3173 4 18.7462C3.99999 17.0313 4.92332 14.7535 6.44592 13.1327C7.8751 11.6113 9.97202 10.5417 12.4554 11.1831C14.7638 8.44523 17.5407 6.57795 20.1671 5.43658C22.9419 4.23074 25.645 3.79515 27.517 4.08793ZM12.8022 21.6661L13.6761 21.5498C13.9715 21.5106 14.2695 21.6006 14.4937 21.797C14.7179 21.9933 14.8465 22.2768 14.8465 22.5748L14.8465 26.3819C16.0222 26.1453 17.2808 25.5308 18.2009 24.6231C19.3521 23.4874 19.9217 21.9646 19.2113 20.1177C19.0484 19.6941 19.1807 19.2138 19.5376 18.9334C22.2827 16.7765 24.1267 14.0938 25.2118 11.5608C26.1249 9.42966 26.4734 7.47179 26.4196 6.06896C25.0442 6.04691 23.1064 6.41417 20.9914 7.3333C18.466 8.43075 15.7822 10.2761 13.6254 13.0212C13.345 13.378 12.8647 13.5104 12.4411 13.3474C10.6462 12.6571 9.12645 13.2998 7.95322 14.5487C7.06665 15.4924 6.47163 16.6971 6.21368 17.7122L9.98391 17.7123C10.2819 17.7123 10.5654 17.8409 10.7618 18.065C10.9581 18.2892 11.0482 18.5872 11.0089 18.8826L10.8927 19.7566L12.8022 21.6661Z" fill="#FF355E"/>
<path fill-rule="evenodd" clip-rule="evenodd" d="M11.45 25.2074C11.73 25.6834 11.5711 26.2963 11.0951 26.5763C10.391 26.9906 9.42121 27.4873 8.45586 27.7186C7.53364 27.9395 6.25067 27.9937 5.38497 26.9837C4.5857 26.0512 4.71967 24.8703 4.98879 24.0092C5.2684 23.1145 5.7856 22.2449 6.21796 21.609C6.52851 21.1523 7.15049 21.0338 7.60719 21.3444C8.0639 21.6549 8.18238 22.2769 7.87184 22.7336C7.47992 23.31 7.09053 23.9889 6.89774 24.6058C6.69446 25.2562 6.79024 25.55 6.90348 25.6821C7.00742 25.8034 7.27055 25.9459 7.98992 25.7736C8.66616 25.6116 9.43345 25.2335 10.081 24.8525C10.557 24.5725 11.1699 24.7314 11.45 25.2074Z" fill="#FF355E"/>
</svg>
