<svg width="32" height="32" viewBox="0 0 32 32" fill="none" xmlns="http://www.w3.org/2000/svg">
<path fill-rule="evenodd" clip-rule="evenodd" d="M8.42918 11.5039C8.6794 9.50215 10.381 8 12.3983 8H25.6016C28.0076 8 29.8691 10.1087 29.5707 12.4961L28.5707 20.4961C28.3205 22.4979 26.6189 24 24.6016 24H11.3983C8.9923 24 7.13076 21.8913 7.42918 19.5039L8.42918 11.5039ZM10.4137 11.7519C10.4464 11.4906 10.5286 11.2463 10.6501 11.0279L15.187 15.0756C17.2858 16.948 20.4035 17.1112 22.6863 15.4683L27.6008 11.9311C27.6042 12.0352 27.5995 12.1411 27.5862 12.2481L26.5862 20.2481C26.4611 21.2489 25.6102 22 24.6016 22H11.3983C10.1953 22 9.26453 20.9456 9.41374 19.7519L10.4137 11.7519ZM25.6016 10C25.9416 10 26.2598 10.0842 26.538 10.2319L21.518 13.845C19.9961 14.9403 17.9176 14.8315 16.5185 13.5832L12.5021 10H25.6016Z" fill="#FF355E"/>
<path d="M3 11C2.44772 11 2 11.4477 2 12C2 12.5523 2.44772 13 3 13H6C6.55228 13 7 12.5523 7 12C7 11.4477 6.55228 11 6 11H3Z" fill="#FF355E"/>
<path d="M2 16C2 15.4477 2.44772 15 3 15H5C5.55228 15 6 15.4477 6 16C6 16.5523 5.55228 17 5 17H3C2.44772 17 2 16.5523 2 16Z" fill="#FF355E"/>
<path d="M3 19C2.44772 19 2 19.4477 2 20C2 20.5523 2.44772 21 3 21H4C4.55228 21 5 20.5523 5 20C5 19.4477 4.55228 19 4 19H3Z" fill="#FF355E"/>
</svg>
