<svg width="32" height="32" viewBox="0 0 32 32" fill="none" xmlns="http://www.w3.org/2000/svg">
<path d="M10 10C10 10.5523 9.55228 11 9 11C8.44772 11 8 10.5523 8 10C8 9.44772 8.44772 9 9 9C9.55228 9 10 9.44772 10 10Z" fill="#FF355E"/>
<path d="M12 11C12.5523 11 13 10.5523 13 10C13 9.44772 12.5523 9 12 9C11.4477 9 11 9.44772 11 10C11 10.5523 11.4477 11 12 11Z" fill="#FF355E"/>
<path fill-rule="evenodd" clip-rule="evenodd" d="M27 15V14H5V18H19C19.5523 18 20 18.4477 20 19C20 19.5523 19.5523 20 19 20H5V21C5 22.6569 6.34315 24 8 24H14C14.5523 24 15 24.4477 15 25C15 25.5523 14.5523 26 14 26H8C5.23858 26 3 23.7614 3 21V11C3 8.23858 5.23858 6 8 6H24C26.7614 6 29 8.23858 29 11V15C29 15.5523 28.5523 16 28 16C27.4477 16 27 15.5523 27 15ZM5 11C5 9.34315 6.34315 8 8 8H24C25.6569 8 27 9.34315 27 11V12H5V11Z" fill="#FF355E"/>
<path fill-rule="evenodd" clip-rule="evenodd" d="M23.7929 18.7929C25.0119 17.5739 26.9882 17.5739 28.2071 18.7929C29.4261 20.0118 29.4261 21.9881 28.2071 23.2071L22.2071 29.2071C22.0541 29.3601 21.8556 29.4593 21.6414 29.4899L18.1414 29.9899C17.8298 30.0344 17.5155 29.9297 17.2929 29.7071C17.0703 29.4845 16.9655 29.1702 17.0101 28.8586L17.5101 25.3586C17.5407 25.1444 17.6399 24.9459 17.7929 24.7929L23.7929 18.7929ZM25.2071 20.2071C25.645 19.7692 26.355 19.7692 26.7929 20.2071C27.2308 20.645 27.2308 21.355 26.7929 21.7929L21.0286 27.5572L19.1785 27.8215L19.4428 25.9714L25.2071 20.2071Z" fill="#FF355E"/>
<path d="M10 16C10 16.5523 9.55228 17 9 17C8.44772 17 8 16.5523 8 16C8 15.4477 8.44772 15 9 15C9.55228 15 10 15.4477 10 16Z" fill="#FF355E"/>
<path d="M9 23C9.55228 23 10 22.5523 10 22C10 21.4477 9.55228 21 9 21C8.44772 21 8 21.4477 8 22C8 22.5523 8.44772 23 9 23Z" fill="#FF355E"/>
<path d="M13 16C13 16.5523 12.5523 17 12 17C11.4477 17 11 16.5523 11 16C11 15.4477 11.4477 15 12 15C12.5523 15 13 15.4477 13 16Z" fill="#FF355E"/>
<path d="M12 23C12.5523 23 13 22.5523 13 22C13 21.4477 12.5523 21 12 21C11.4477 21 11 21.4477 11 22C11 22.5523 11.4477 23 12 23Z" fill="#FF355E"/>
</svg>
