<svg width="32" height="32" viewBox="0 0 32 32" fill="none" xmlns="http://www.w3.org/2000/svg">
<path fill-rule="evenodd" clip-rule="evenodd" d="M20 19V25H21C21.5523 25 22 25.4477 22 26C22 26.5523 21.5523 27 21 27H19.0028L19 27L18.9972 27H13.0028L13 27L12.9972 27H11C10.4477 27 10 26.5523 10 26C10 25.4477 10.4477 25 11 25H12V16H7C6.73478 16 6.48043 15.8947 6.29289 15.7071L3.29289 12.7071C2.90237 12.3166 2.90237 11.6834 3.29289 11.2929L6.29289 8.29291C6.48043 8.10537 6.73478 8.00002 7 8.00002H12.0265C12.1223 7.17249 12.4747 6.39121 13.0402 5.76915C14.6273 4.0234 17.3727 4.0234 18.9598 5.76915C19.6291 6.50544 20 7.46478 20 8.45984V11H25C25.2652 11 25.5196 11.1054 25.7071 11.2929L28.7071 14.2929C29.0976 14.6834 29.0976 15.3166 28.7071 15.7071L25.7071 18.7071C25.5196 18.8947 25.2652 19 25 19H20ZM14.5201 7.11449C15.3136 6.24162 16.6864 6.24162 17.4799 7.11449C17.8146 7.48264 18 7.96231 18 8.45984V25H14V8.45984C14 7.96231 14.1854 7.48264 14.5201 7.11449ZM20 13H24.5858L26.5858 15L24.5858 17H20V13ZM7.41421 10H12V14H7.41421L5.41421 12L7.41421 10Z" fill="#FF355E"/>
</svg>
