<svg width="32" height="32" viewBox="0 0 32 32" fill="none" xmlns="http://www.w3.org/2000/svg">
<path d="M7 15.5652C7 10.8762 10.9871 7 16 7C21.0129 7 25 10.8762 25 15.5652V17C25 17.5523 25.4477 18 26 18C26.5523 18 27 17.5523 27 17V15.5652C27 9.68878 22.0328 5 16 5C9.96723 5 5 9.68878 5 15.5652V17C5 17.5523 5.44772 18 6 18C6.55228 18 7 17.5523 7 17V15.5652ZM16 26V14.2038L13.6585 16.2526C13.2429 16.6163 12.6111 16.5741 12.2474 16.1585C11.8837 15.7429 11.9259 15.1111 12.3415 14.7474L16.0098 11.5377C16.7857 10.8587 18 11.4098 18 12.4408V26C18 26.5523 17.5523 27 17 27C16.4477 27 16 26.5523 16 26Z" fill="#FF355E"/>
</svg>
