<svg width="32" height="32" viewBox="0 0 32 32" fill="none" xmlns="http://www.w3.org/2000/svg">
<path d="M13.5 4C9.91015 4 7 6.91015 7 10.5C7 14.0899 9.91015 17 13.5 17C17.0899 17 20 14.0899 20 10.5C20 6.91015 17.0899 4 13.5 4ZM9 10.5C9 8.01472 11.0147 6 13.5 6C15.9853 6 18 8.01472 18 10.5C18 12.9853 15.9853 15 13.5 15C11.0147 15 9 12.9853 9 10.5Z" fill="#FF355E"/>
<path d="M27 24C27 24.5523 26.5523 25 26 25H22C21.4477 25 21 24.5523 21 24C21 23.4477 21.4477 23 22 23H26C26.5523 23 27 23.4477 27 24Z" fill="#FF355E"/>
<path d="M24 17C20.134 17 17 20.134 17 24C17 27.866 20.134 31 24 31C27.866 31 31 27.866 31 24C31 20.134 27.866 17 24 17ZM19 24C19 21.2386 21.2386 19 24 19C26.7614 19 29 21.2386 29 24C29 26.7614 26.7614 29 24 29C21.2386 29 19 26.7614 19 24Z" fill="#FF355E"/>
<path d="M7 24C7 21.7909 8.79086 20 11 20H15C15.5523 20 16 19.5523 16 19C16 18.4477 15.5523 18 15 18H11C7.68629 18 5 20.6863 5 24C5 24.5523 5.44772 25 6 25C6.55228 25 7 24.5523 7 24Z" fill="#FF355E"/>
</svg>
