<svg width="32" height="32" viewBox="0 0 32 32" fill="none" xmlns="http://www.w3.org/2000/svg">
<path fill-rule="evenodd" clip-rule="evenodd" d="M10 7C8.34315 7 7 8.34315 7 10V17H6.6C5.71634 17 5 17.7163 5 18.6C5 20.4778 6.52223 22 8.4 22H15V24H8.5C7.94772 24 7.5 24.4477 7.5 25C7.5 25.5523 7.94772 26 8.5 26H23.5C24.0523 26 24.5 25.5523 24.5 25C24.5 24.4477 24.0523 24 23.5 24H17V22H23.6C25.4778 22 27 20.4778 27 18.6C27 17.7163 26.2837 17 25.4 17H25V10C25 8.34315 23.6569 7 22 7H10ZM23.6 20C24.2342 20 24.7699 19.5783 24.942 19H7.05798C7.23009 19.5783 7.7658 20 8.4 20H23.6ZM23 17V10C23 9.44772 22.5523 9 22 9H10C9.44772 9 9 9.44772 9 10V17H23Z" fill="#FF355E"/>
</svg>
