<svg width="32" height="32" viewBox="0 0 32 32" fill="none" xmlns="http://www.w3.org/2000/svg">
<path d="M5 6.5C5 5.11929 6.11929 4 7.5 4H24.5C25.8807 4 27 5.11929 27 6.5V24.5C27 25.8807 25.8807 27 24.5 27H7.5C6.11929 27 5 25.8807 5 24.5V6.5ZM7 6.5V11H25V6.5C25 6.22386 24.7761 6 24.5 6H7.5C7.22386 6 7 6.22386 7 6.5ZM7 13V17.9971H15V13H7ZM7 19.9971V24.5C7 24.7761 7.22386 25 7.5 25H15V19.9971H7ZM17 19.9971V25H24.5C24.7761 25 25 24.7761 25 24.5V19.9971H17ZM25 17.9971V13H17V17.9971H25Z" fill="#FF355E"/>
</svg>
