<svg width="32" height="32" viewBox="0 0 32 32" fill="none" xmlns="http://www.w3.org/2000/svg">
<path d="M11 3C8.23858 3 6 5.23858 6 8V24C6 26.7614 8.23858 29 11 29H14C14.5523 29 15 28.5523 15 28C15 27.4477 14.5523 27 14 27H11C9.34315 27 8 25.6569 8 24V8C8 6.34315 9.34315 5 11 5H17.3431C18.1388 5 18.9019 5.31607 19.4645 5.87868L23.1213 9.53553C23.6839 10.0981 24 10.8612 24 11.6569V14C24 14.5523 24.4477 15 25 15C25.5523 15 26 14.5523 26 14V11.6569C26 10.3308 25.4732 9.059 24.5355 8.12132L20.8787 4.46447C19.941 3.52678 18.6692 3 17.3431 3H11Z" fill="#FF355E"/>
<path d="M18 12C17.4477 12 17 12.4477 17 13C17 13.5523 17.4477 14 18 14H21C21.5523 14 22 13.5523 22 13C22 12.4477 21.5523 12 21 12H18Z" fill="#FF355E"/>
<path d="M18 18C17.4477 18 17 18.4477 17 19C17 19.5523 17.4477 20 18 20H20C20.5523 20 21 19.5523 21 19C21 18.4477 20.5523 18 20 18H18Z" fill="#FF355E"/>
<path d="M15.7071 11.2929C15.3166 10.9024 14.6834 10.9024 14.2929 11.2929L12.5 13.0858L11.7071 12.2929C11.3166 11.9024 10.6834 11.9024 10.2929 12.2929C9.90237 12.6834 9.90237 13.3166 10.2929 13.7071L11.7929 15.2071C12.1834 15.5976 12.8166 15.5976 13.2071 15.2071L15.7071 12.7071C16.0976 12.3166 16.0976 11.6834 15.7071 11.2929Z" fill="#FF355E"/>
<path fill-rule="evenodd" clip-rule="evenodd" d="M28.2071 18.7929C26.9882 17.574 25.0119 17.574 23.7929 18.7929L17.7929 24.7929C17.6399 24.9459 17.5407 25.1444 17.5101 25.3586L17.0101 28.8586C16.9655 29.1702 17.0703 29.4846 17.2929 29.7071C17.5155 29.9297 17.8298 30.0345 18.1414 29.99L21.6414 29.49C21.8556 29.4594 22.0541 29.3601 22.2071 29.2071L28.2071 23.2071C29.4261 21.9882 29.4261 20.0119 28.2071 18.7929ZM26.7929 20.2071C26.355 19.7692 25.645 19.7692 25.2071 20.2071L19.4428 25.9714L19.1785 27.8215L21.0286 27.5572L26.7929 21.7929C27.2308 21.355 27.2308 20.645 26.7929 20.2071Z" fill="#FF355E"/>
<path d="M15.7071 17.2929C15.3166 16.9024 14.6834 16.9024 14.2929 17.2929L12.5 19.0858L11.7071 18.2929C11.3166 17.9024 10.6834 17.9024 10.2929 18.2929C9.90237 18.6834 9.90237 19.3166 10.2929 19.7071L11.7929 21.2071C12.1834 21.5976 12.8166 21.5976 13.2071 21.2071L15.7071 18.7071C16.0976 18.3166 16.0976 17.6834 15.7071 17.2929Z" fill="#FF355E"/>
</svg>
