<svg width="32" height="32" viewBox="0 0 32 32" fill="none" xmlns="http://www.w3.org/2000/svg">
<path d="M12.5 8C10.0147 8 7.99997 10.0147 7.99997 12.5C7.99997 14.9853 10.0147 17 12.5 17C14.9853 17 17 14.9853 17 12.5C17 10.0147 14.9853 8 12.5 8ZM5.99997 12.5C5.99997 8.91015 8.91012 6 12.5 6C16.0898 6 19 8.91015 19 12.5C19 16.0899 16.0898 19 12.5 19C8.91012 19 5.99997 16.0899 5.99997 12.5Z" fill="#FF355E"/>
<path d="M5.98576 27.168C5.98565 27.1687 5.98575 27.1681 5.98576 27.168V27.168ZM19.0142 27.168C19.1067 27.7108 19.6208 28.077 20.1644 27.9864C20.7091 27.8956 21.0772 27.3804 20.9864 26.8356L20 27C20.9864 26.8356 20.9863 26.8351 20.9862 26.8345L20.9855 26.8304L20.9842 26.823L20.9804 26.8017C20.9772 26.7846 20.9729 26.7619 20.9672 26.7339C20.9559 26.6779 20.9391 26.6006 20.9158 26.5051C20.8692 26.3143 20.7961 26.0493 20.6868 25.7345C20.4692 25.1078 20.1025 24.2676 19.5035 23.422C18.282 21.6975 16.1206 20 12.5 20C8.87934 20 6.71797 21.6975 5.49645 23.422C4.89744 24.2676 4.53072 25.1078 4.31311 25.7345C4.20382 26.0493 4.13071 26.3143 4.08415 26.5051C4.06084 26.6006 4.04409 26.6779 4.03274 26.7339C4.02706 26.7619 4.02272 26.7846 4.01957 26.8017L4.01574 26.823L4.01445 26.8304L4.01397 26.8333L4.01376 26.8345C4.01367 26.8351 4.01358 26.8356 4.99997 27L4.01358 26.8356C3.92278 27.3804 4.2908 27.8956 4.83557 27.9864C5.37914 28.077 5.89329 27.7108 5.98576 27.168L5.98651 27.1639C5.98754 27.1582 5.98961 27.1473 5.99284 27.1314C5.99931 27.0995 6.0104 27.0478 6.02712 26.9793C6.06064 26.8419 6.11644 26.6382 6.20246 26.3905C6.37547 25.8922 6.66501 25.2324 7.1285 24.578C8.03197 23.3025 9.62061 22 12.5 22C15.3793 22 16.968 23.3025 17.8714 24.578C18.3349 25.2324 18.6245 25.8922 18.7975 26.3905C18.8835 26.6382 18.9393 26.8419 18.9728 26.9793C18.9896 27.0478 19.0006 27.0995 19.0071 27.1314C19.0103 27.1473 19.0124 27.1582 19.0134 27.1639L19.0142 27.168ZM19.0138 27.1657C19.0137 27.1654 19.0135 27.1642 19.0134 27.1639L19.9637 27.006C19.0193 27.1635 19.0138 27.1653 19.0138 27.1657Z" fill="#FF355E"/>
<path d="M20.5 8C20.5 7.44772 20.9477 7 21.5 7C24.5375 7 27 9.46243 27 12.5C27 15.5376 24.5375 18 21.5 18C20.9477 18 20.5 17.5523 20.5 17C20.5 16.4477 20.9477 16 21.5 16C23.433 16 25 14.433 25 12.5C25 10.567 23.433 9 21.5 9C20.9477 9 20.5 8.55228 20.5 8Z" fill="#FF355E"/>
<path d="M21 20C21 19.4477 21.4477 19 22 19C24.9889 19 26.7758 20.4654 27.7769 21.9377C28.2667 22.6579 28.5655 23.3717 28.7424 23.9025C28.8314 24.1695 28.891 24.3945 28.9291 24.557C28.9481 24.6384 28.9619 24.7045 28.9713 24.7528C28.976 24.7769 28.9796 24.7966 28.9823 24.8116L28.9855 24.8305L28.9866 24.8372L28.9871 24.8398L28.9872 24.841C28.9873 24.8415 28.9874 24.842 28 25L28.9874 24.842C29.0747 25.3874 28.7033 25.9002 28.158 25.9874C27.6139 26.0745 27.1022 25.7051 27.0132 25.1619C27.0131 25.1614 27.013 25.1607 27.0128 25.1597L27.0081 25.1349C27.0033 25.1099 26.9948 25.0686 26.9818 25.0133C26.9558 24.9024 26.9123 24.7368 26.845 24.535C26.7095 24.1283 26.4833 23.5921 26.123 23.0623C25.4242 22.0346 24.2111 21 22 21C21.4477 21 21 20.5523 21 20Z" fill="#FF355E"/>
</svg>
