<svg width="32" height="32" viewBox="0 0 32 32" fill="none" xmlns="http://www.w3.org/2000/svg">
<path d="M14 9H18C18.5523 9 19 9.44772 19 10C19 10.5523 18.5523 11 18 11H14C13.4477 11 13 10.5523 13 10C13 9.44772 13.4477 9 14 9Z" fill="#FF355E"/>
<path d="M12 5C10.3431 5 9 6.34315 9 8V12C9 13.6569 10.3431 15 12 15H20C21.6569 15 23 13.6569 23 12V8C23 6.34315 21.6569 5 20 5H12ZM11 8C11 7.44772 11.4477 7 12 7H20C20.5523 7 21 7.44772 21 8V12C21 12.5523 20.5523 13 20 13H12C11.4477 13 11 12.5523 11 12V8Z" fill="#FF355E"/>
<path d="M18 21H14C13.4477 21 13 21.4477 13 22C13 22.5523 13.4477 23 14 23H18C18.5523 23 19 22.5523 19 22C19 21.4477 18.5523 21 18 21Z" fill="#FF355E"/>
<path d="M12 17C10.3431 17 9 18.3431 9 20V24C9 25.6569 10.3431 27 12 27H20C21.6569 27 23 25.6569 23 24V20C23 18.3431 21.6569 17 20 17H12ZM11 20C11 19.4477 11.4477 19 12 19H20C20.5523 19 21 19.4477 21 20V24C21 24.5523 20.5523 25 20 25H12C11.4477 25 11 24.5523 11 24V20Z" fill="#FF355E"/>
<path d="M2 10C2 9.44772 2.44772 9 3 9H4.63369C4.41264 8.61757 4.46571 8.12008 4.79289 7.79289C5.18342 7.40237 5.81658 7.40237 6.20711 7.79289L7.70711 9.29289C8.09763 9.68342 8.09763 10.3166 7.70711 10.7071L6.20711 12.2071C5.81658 12.5976 5.18342 12.5976 4.79289 12.2071C4.46571 11.8799 4.41264 11.3824 4.63369 11H3C2.44772 11 2 10.5523 2 10Z" fill="#FF355E"/>
<path d="M5.36631 23C5.58736 23.3824 5.53429 23.8799 5.20711 24.2071C4.81658 24.5976 4.18342 24.5976 3.79289 24.2071L2.29289 22.7071C1.90237 22.3166 1.90237 21.6834 2.29289 21.2929L3.79289 19.7929C4.18342 19.4024 4.81658 19.4024 5.20711 19.7929C5.53429 20.1201 5.58736 20.6176 5.36631 21H7C7.55228 21 8 21.4477 8 22C8 22.5523 7.55228 23 7 23H5.36631Z" fill="#FF355E"/>
<path d="M24 10C24 9.44772 24.4477 9 25 9H27C28.6569 9 30 10.3431 30 12V20C30 21.5371 28.844 22.8042 27.354 22.9793C27.5892 23.3643 27.5402 23.874 27.2071 24.2071C26.8166 24.5976 26.1834 24.5976 25.7929 24.2071L24.2929 22.7071C23.9024 22.3166 23.9024 21.6834 24.2929 21.2929L25.7929 19.7929C26.1834 19.4024 26.8166 19.4024 27.2071 19.7929C27.5096 20.0954 27.5778 20.5435 27.4117 20.9116C27.7586 20.7547 28 20.4055 28 20V12C28 11.4477 27.5523 11 27 11H25C24.4477 11 24 10.5523 24 10Z" fill="#FF355E"/>
</svg>
