<svg width="24" height="24" viewBox="0 0 24 24" fill="none" xmlns="http://www.w3.org/2000/svg">
<mask id="path-1-inside-1_41_391" fill="white">
<path fill-rule="evenodd" clip-rule="evenodd" d="M12 18.7V5.3C8.29969 5.3 5.3 8.29969 5.3 12C5.3 15.7003 8.29969 18.7 12 18.7ZM13.6123 4.16253C13.4102 4.12118 13.2053 4.08745 12.998 4.06165C12.9977 4.0616 12.9973 4.06156 12.997 4.06152C12.6704 4.02091 12.3376 4 12 4C7.58172 4 4 7.58172 4 12C4 16.4183 7.58172 20 12 20C12.338 20 12.6711 19.979 12.998 19.9384C16.9453 19.4471 20 16.0803 20 12C20 8.13401 17.2577 4.9085 13.6123 4.16253Z"/>
</mask>
<path fill-rule="evenodd" clip-rule="evenodd" d="M12 18.7V5.3C8.29969 5.3 5.3 8.29969 5.3 12C5.3 15.7003 8.29969 18.7 12 18.7ZM13.6123 4.16253C13.4102 4.12118 13.2053 4.08745 12.998 4.06165C12.9977 4.0616 12.9973 4.06156 12.997 4.06152C12.6704 4.02091 12.3376 4 12 4C7.58172 4 4 7.58172 4 12C4 16.4183 7.58172 20 12 20C12.338 20 12.6711 19.979 12.998 19.9384C16.9453 19.4471 20 16.0803 20 12C20 8.13401 17.2577 4.9085 13.6123 4.16253Z" fill="black"/>
<path d="M12 5.3H13.3V4H12V5.3ZM12 18.7V20H13.3V18.7H12ZM13.6123 4.16253L13.3517 5.43614L13.3517 5.43614L13.6123 4.16253ZM12.998 4.06165L12.8373 5.35168L12.8375 5.3517L12.998 4.06165ZM12.997 4.06152L12.8366 5.35159L12.8378 5.35174L12.997 4.06152ZM12.998 19.9384L12.8375 18.6483L12.8375 18.6483L12.998 19.9384ZM10.7 5.3V18.7H13.3V5.3H10.7ZM12 4C7.58172 4 4 7.58172 4 12H6.6C6.6 9.01766 9.01766 6.6 12 6.6V4ZM4 12C4 16.4183 7.58172 20 12 20V17.4C9.01766 17.4 6.6 14.9823 6.6 12H4ZM13.8729 2.88892C13.6378 2.84081 13.3995 2.80159 13.1586 2.7716L12.8375 5.3517C13.0111 5.37331 13.1826 5.40155 13.3517 5.43614L13.8729 2.88892ZM13.1587 2.77162C13.1591 2.77166 13.1575 2.77146 13.1561 2.7713L12.8378 5.35174L12.8373 5.35168L13.1587 2.77162ZM13.1573 2.77145C12.7777 2.72425 12.3914 2.7 12 2.7V5.3C12.2839 5.3 12.5631 5.31758 12.8366 5.35159L13.1573 2.77145ZM12 2.7C6.86375 2.7 2.7 6.86375 2.7 12H5.3C5.3 8.29969 8.29969 5.3 12 5.3V2.7ZM2.7 12C2.7 17.1362 6.86375 21.3 12 21.3V18.7C8.29969 18.7 5.3 15.7003 5.3 12H2.7ZM12 21.3C12.3918 21.3 12.7785 21.2757 13.1586 21.2284L12.8375 18.6483C12.5636 18.6824 12.2842 18.7 12 18.7V21.3ZM13.1586 21.2284C17.7486 20.6572 21.3 16.7443 21.3 12H18.7C18.7 15.4163 16.142 18.2371 12.8375 18.6483L13.1586 21.2284ZM21.3 12C21.3 7.50426 18.1113 3.75622 13.8729 2.88892L13.3517 5.43614C16.4042 6.06078 18.7 8.76375 18.7 12H21.3Z" fill="black" mask="url(#path-1-inside-1_41_391)"/>
</svg>
