<svg width="24" height="24" viewBox="0 0 24 24" fill="none" xmlns="http://www.w3.org/2000/svg">
<path d="M6.19044 5.19032C6.44429 4.9366 6.85656 4.93652 7.11036 5.19032L7.12403 5.20399C7.12627 5.20628 7.12862 5.20956 7.13087 5.2118L7.16505 5.24598C7.16735 5.24825 7.17058 5.25055 7.17286 5.25282C7.17508 5.25504 7.17747 5.25743 7.17969 5.25965C7.18197 5.26197 7.18425 5.26518 7.18653 5.26747L7.2002 5.28114C7.20253 5.28342 7.20572 5.28568 7.20801 5.28798C7.21023 5.29019 7.21263 5.29259 7.21485 5.29481C7.21714 5.29715 7.21938 5.30032 7.22169 5.30262C7.22391 5.30484 7.2263 5.30724 7.22852 5.30946C7.23087 5.31176 7.23402 5.31398 7.23634 5.3163C7.23861 5.31862 7.24088 5.32182 7.24317 5.32411L7.27149 5.35243C7.27386 5.35475 7.27696 5.35692 7.2793 5.35926C7.28159 5.3616 7.28383 5.36477 7.28614 5.36708C7.28836 5.3693 7.29075 5.37169 7.29298 5.37391C7.29534 5.37623 7.29845 5.37841 7.30079 5.38075C7.30312 5.38313 7.30527 5.3862 7.30762 5.38856C7.30999 5.39088 7.3131 5.39306 7.31544 5.3954C7.31774 5.39775 7.31995 5.40089 7.32227 5.40321L7.41016 5.4911C7.41256 5.49346 7.41559 5.49555 7.41798 5.49794C7.42034 5.50034 7.42243 5.50336 7.42481 5.50575L7.44727 5.52821C7.44968 5.53057 7.4527 5.53266 7.45509 5.53505C7.45743 5.53744 7.45955 5.54049 7.46192 5.54286C7.46437 5.5453 7.4673 5.54824 7.46973 5.55067C7.47214 5.55303 7.47516 5.55512 7.47755 5.55751C7.47991 5.55991 7.482 5.56294 7.48438 5.56532C7.48684 5.56777 7.48975 5.57069 7.49219 5.57313C7.4946 5.57549 7.49762 5.57758 7.50001 5.57997C7.50235 5.58236 7.50447 5.58541 7.50684 5.58778L7.52247 5.6034C7.52485 5.60574 7.52793 5.60789 7.53028 5.61024C7.53264 5.61265 7.53473 5.61567 7.53712 5.61805C7.53959 5.62053 7.54246 5.6234 7.54493 5.62587C7.54733 5.62823 7.55036 5.63032 7.55274 5.6327C7.55522 5.63518 7.55808 5.63804 7.56055 5.64051C7.56292 5.64292 7.565 5.64594 7.56739 5.64833L7.58301 5.66395C7.58542 5.66631 7.58844 5.6684 7.59083 5.67079C7.59318 5.67319 7.59529 5.67622 7.59766 5.6786L7.6211 5.70204C7.62351 5.7044 7.62653 5.70649 7.62891 5.70887C7.63141 5.71137 7.63423 5.71419 7.63673 5.71669C7.63909 5.71909 7.64118 5.72211 7.64356 5.7245L7.67481 5.75575C7.67722 5.75811 7.68024 5.7602 7.68262 5.76258L7.69825 5.77821C7.70061 5.78061 7.7027 5.78364 7.70509 5.78602L7.7754 5.85633C7.7778 5.8587 7.78083 5.86079 7.78321 5.86317L7.93165 6.01161C7.9342 6.01421 7.9369 6.01784 7.93946 6.0204L8.03321 6.11415C8.03582 6.11671 8.03943 6.11939 8.042 6.12196L8.07325 6.15321C8.07582 6.15582 8.07849 6.15943 8.08106 6.162L8.15137 6.23231C8.15398 6.23488 8.15759 6.23755 8.16016 6.24012L8.1836 6.26356C8.18617 6.26617 8.18884 6.26978 8.19141 6.27235L8.27735 6.35829C8.27995 6.36085 8.28358 6.36354 8.28614 6.3661L8.33301 6.41298C8.33557 6.41557 8.33827 6.41921 8.34083 6.42176L8.47364 6.55458C8.47605 6.55694 8.47907 6.55903 8.48145 6.56141L8.5127 6.59266C8.51507 6.59507 8.51715 6.59809 8.51954 6.60048L8.57423 6.65516C8.57663 6.65752 8.57966 6.65962 8.58204 6.662C8.58455 6.66451 8.58734 6.66731 8.58985 6.66981C8.59221 6.67222 8.5943 6.67524 8.59669 6.67762L8.62794 6.70887C8.63034 6.71124 8.63337 6.71333 8.63575 6.71571C8.63825 6.71821 8.64107 6.72103 8.64356 6.72352C8.64593 6.72593 8.64801 6.72895 8.6504 6.73133L8.67384 6.75477C8.67623 6.75712 8.67928 6.75924 8.68165 6.76161C8.68401 6.76402 8.6861 6.76704 8.68848 6.76942L8.70411 6.78505C8.70652 6.78741 8.70954 6.7895 8.71192 6.79188C8.71427 6.79428 8.71639 6.79732 8.71876 6.79969L8.73438 6.81532C8.73679 6.81768 8.73982 6.81978 8.74219 6.82215C8.74456 6.82456 8.74665 6.82758 8.74903 6.82997C8.7515 6.83243 8.75439 6.83533 8.75684 6.83778C8.75925 6.84014 8.76227 6.84223 8.76466 6.84462C8.76699 6.84699 8.76914 6.85008 8.77149 6.85243C8.77395 6.85489 8.77686 6.8578 8.7793 6.86024C8.78171 6.8626 8.78473 6.8647 8.78712 6.86708C8.78944 6.86945 8.79161 6.87255 8.79395 6.87489C8.7964 6.87734 8.79933 6.88027 8.80176 6.8827C8.80417 6.88506 8.8072 6.88716 8.80958 6.88954C8.81192 6.89192 8.81406 6.89499 8.81641 6.89735C8.81885 6.89979 8.8218 6.90274 8.82423 6.90516C8.82662 6.90751 8.82968 6.90964 8.83204 6.912C8.8344 6.91441 8.83649 6.91743 8.83887 6.91981C8.84127 6.92216 8.84432 6.92428 8.84669 6.92665C8.84902 6.92902 8.85118 6.93212 8.85352 6.93446L8.87598 6.95692C8.87836 6.95926 8.88145 6.96141 8.8838 6.96376C8.88614 6.96614 8.88827 6.96921 8.89063 6.97157C8.89302 6.97391 8.89608 6.97604 8.89844 6.9784C8.90079 6.9808 8.90292 6.98386 8.90528 6.98622C8.90767 6.98856 8.91074 6.9907 8.91309 6.99305C8.91543 6.99543 8.91758 6.99851 8.91993 7.00087C8.9223 7.00319 8.9254 7.00536 8.92774 7.0077C8.93006 7.01006 8.93225 7.01319 8.93458 7.01551L8.95606 7.037C8.95844 7.03933 8.96153 7.04149 8.96387 7.04383C8.96621 7.04621 8.96836 7.0493 8.97071 7.05165L8.99219 7.07313C8.99456 7.07545 8.99768 7.07764 9.00001 7.07997C9.00228 7.08229 9.00456 7.0855 9.00684 7.08778L9.02051 7.10145C9.02284 7.10373 9.02604 7.10601 9.02833 7.10829C9.03063 7.11063 9.03285 7.11379 9.03516 7.1161C9.03739 7.11832 9.03978 7.12072 9.042 7.12294C9.04434 7.12523 9.04751 7.12747 9.04981 7.12977C9.05203 7.132 9.05443 7.13439 9.05665 7.13661C9.05893 7.13894 9.06119 7.14213 9.06348 7.14442L9.07716 7.15809C9.07947 7.16037 9.08269 7.16265 9.08497 7.16493C9.08719 7.16715 9.08958 7.16955 9.0918 7.17176C9.09407 7.17408 9.09637 7.17731 9.09864 7.17958L9.13966 7.22059C9.14194 7.22283 9.14523 7.22519 9.14747 7.22743L9.18165 7.26161C9.18368 7.26369 9.18545 7.26639 9.18751 7.26844L9.22852 7.30946C9.23061 7.31149 9.2333 7.31326 9.23536 7.31532C9.23753 7.31749 9.24003 7.31999 9.24219 7.32215C9.24423 7.32424 9.246 7.32693 9.24805 7.32899L9.26173 7.34266C9.26381 7.3447 9.26651 7.34647 9.26856 7.34852C9.2706 7.35061 9.27236 7.3533 9.27442 7.35536L9.32032 7.40126C9.3224 7.40329 9.32511 7.40506 9.32716 7.40712C9.32919 7.4092 9.33096 7.4119 9.33301 7.41395C9.33508 7.41597 9.33782 7.41778 9.33985 7.41981C9.34186 7.42187 9.34369 7.42463 9.34571 7.42665L9.3711 7.45204C9.37316 7.45404 9.37592 7.45588 9.37794 7.4579C9.37995 7.45996 9.38176 7.4627 9.3838 7.46473C9.38585 7.46674 9.38861 7.46857 9.39063 7.47059C9.39261 7.47262 9.39451 7.47545 9.39649 7.47743C9.39839 7.47933 9.40046 7.48139 9.40235 7.48329C9.4044 7.48528 9.40718 7.48714 9.40919 7.48915C9.41117 7.49118 9.41305 7.49399 9.41505 7.49598C9.41694 7.49788 9.41901 7.49995 9.42091 7.50184C9.42293 7.50382 9.42576 7.50572 9.42774 7.5077C9.42969 7.5097 9.43165 7.51259 9.4336 7.51454L9.45118 7.53212C9.45317 7.53406 9.45607 7.53603 9.45801 7.53798C9.45996 7.53997 9.46193 7.54287 9.46387 7.54481L9.54591 7.62684C9.54767 7.62855 9.55004 7.63 9.55176 7.63173C9.55361 7.63357 9.55579 7.63575 9.55762 7.63758C9.55933 7.63935 9.56078 7.64171 9.56251 7.64344L9.57423 7.65516C9.57596 7.65684 9.57839 7.65835 9.58009 7.66005C9.58179 7.66181 9.58324 7.66417 9.58497 7.6659C9.58678 7.66772 9.58904 7.66998 9.59083 7.67176C9.59257 7.67345 9.59498 7.67494 9.59669 7.67665C9.59839 7.67841 9.59984 7.68078 9.60157 7.68251L9.64454 7.72548C9.64625 7.72712 9.64874 7.7287 9.6504 7.73036C9.65207 7.73209 9.65359 7.73453 9.65528 7.73622C9.65701 7.73789 9.65946 7.73942 9.66114 7.7411C9.66277 7.7428 9.66438 7.74532 9.66602 7.74696L9.67579 7.75673C9.67747 7.75834 9.68003 7.75999 9.68165 7.76161C9.68329 7.76331 9.68489 7.76582 9.68653 7.76747L9.6963 7.77723C9.69797 7.77885 9.70054 7.7805 9.70216 7.78212L9.71192 7.79188C9.71352 7.79354 9.71521 7.79615 9.7168 7.79774L9.7461 7.82704C9.74755 7.82841 9.74958 7.82954 9.75098 7.83094C9.75252 7.83249 9.75434 7.8343 9.75587 7.83583C9.75724 7.83727 9.75837 7.8393 9.75977 7.84071L9.76954 7.85048C9.77098 7.85185 9.77302 7.85298 9.77442 7.85438C9.77593 7.85589 9.77782 7.85778 9.7793 7.85926C9.78068 7.86071 9.78181 7.86274 9.78321 7.86415C9.7847 7.86564 9.78663 7.86757 9.78809 7.86903C9.78952 7.87038 9.7916 7.87156 9.79298 7.87294C9.79435 7.87438 9.79548 7.87641 9.79688 7.87782C9.79832 7.87918 9.80038 7.88034 9.80176 7.88173C9.80311 7.88314 9.80431 7.88525 9.80567 7.88661L9.82325 7.90419C9.82465 7.90551 9.82679 7.90675 9.82813 7.90809C9.82948 7.90951 9.83067 7.91161 9.83204 7.91298C9.83345 7.91432 9.83556 7.91552 9.83692 7.91688C9.83823 7.91826 9.83951 7.92045 9.84083 7.92176L9.84864 7.92958C9.85001 7.93087 9.85222 7.93218 9.85352 7.93348C9.85483 7.93486 9.85612 7.93705 9.85743 7.93837L9.86915 7.95008C9.8705 7.95136 9.87276 7.95272 9.87403 7.95399L9.89356 7.97352C9.89461 7.97465 9.89541 7.97635 9.89649 7.97743L9.91212 7.99305C9.91324 7.99408 9.91496 7.99492 9.91602 7.99598C9.91707 7.99711 9.91787 7.99881 9.91895 7.99989C9.92013 8.00107 9.92172 8.00265 9.92286 8.0038C9.92399 8.00483 9.92569 8.00565 9.92676 8.00673C9.92779 8.00784 9.92864 8.00957 9.92969 8.01063C9.93085 8.01179 9.93249 8.01343 9.9336 8.01454C9.9347 8.01555 9.93647 8.01643 9.93751 8.01747C9.93853 8.01858 9.93938 8.02032 9.94044 8.02137C9.94155 8.0224 9.94329 8.02325 9.94434 8.0243C9.94537 8.02541 9.94622 8.02716 9.94727 8.02821C9.94837 8.02921 9.95015 8.03011 9.95118 8.03114C9.95217 8.03222 9.95311 8.03404 9.95411 8.03505C9.95503 8.03597 9.95612 8.03706 9.95704 8.03798C9.95814 8.03898 9.95992 8.03988 9.96094 8.0409C9.96194 8.04199 9.96286 8.0438 9.96387 8.04481L9.96973 8.05067C9.97079 8.05163 9.97267 8.05263 9.97364 8.0536C9.97461 8.05466 9.97559 8.05653 9.97657 8.05751L10.0059 8.0868C10.0067 8.0875 10.008 8.08801 10.0088 8.08876C10.0095 8.08958 10.01 8.09093 10.0107 8.09169L10.0166 8.09755C10.0174 8.09822 10.0188 8.09879 10.0195 8.0995C10.0202 8.10032 10.0207 8.10167 10.0215 8.10243C10.0223 8.10312 10.0237 8.10364 10.0244 8.10438C10.0251 8.10518 10.0257 8.10659 10.0264 8.10731L10.0361 8.11708C10.0369 8.11775 10.0384 8.11832 10.0391 8.11903C10.0397 8.11981 10.0403 8.12127 10.041 8.12196L10.043 8.12391C10.0438 8.12456 10.0452 8.12519 10.0459 8.12587L10.0479 8.12782C10.0485 8.12859 10.0492 8.13009 10.0498 8.13075L10.0693 8.15028L10.0713 8.15126L10.0732 8.15321L10.0742 8.15516L10.0762 8.15712L10.0781 8.15809L10.0791 8.16005L10.0811 8.16102L10.082 8.16298L10.084 8.16395L10.085 8.1659L10.0869 8.16688L10.0879 8.16883L10.0889 8.16981L10.0908 8.17079L10.0918 8.17274L10.0957 8.17665L10.0977 8.17762L10.0996 8.17958V8.18055L10.1035 8.18446H10.1045V8.18544L10.1055 8.18641H10.1065V8.18739H10.1074V8.18837H10.1084V8.18934H10.1094V8.19032H10.1104L10.1934 8.29286C10.3597 8.54508 10.3323 8.88823 10.1104 9.11024C9.88837 9.33223 9.54524 9.35953 9.29298 9.19325L9.19044 9.11024V9.10926H9.18946V9.10829H9.18848V9.10731H9.18751V9.10633H9.18653V9.10536L9.18555 9.10438H9.18458V9.1034L9.18067 9.0995H9.17969L9.17774 9.09755L9.17676 9.09559L9.17286 9.09169L9.17091 9.09071L9.16993 9.08876L9.16895 9.08778L9.167 9.0868L9.16602 9.08485L9.16407 9.08387L9.16309 9.08192L9.16114 9.08094L9.16016 9.07899L9.15821 9.07801L9.15723 9.07606L9.15528 9.07411L9.15333 9.07313L9.15137 9.07118L9.1504 9.06923L9.13087 9.04969L9.12794 9.04774L9.12598 9.04579C9.1253 9.0451 9.12469 9.04364 9.12403 9.04286L9.12208 9.0409C9.12139 9.04022 9.11993 9.03961 9.11915 9.03895C9.11843 9.03823 9.11788 9.03682 9.11719 9.03602L9.10743 9.02626C9.10672 9.02554 9.1053 9.02497 9.1045 9.0243C9.10375 9.02355 9.10325 9.02219 9.10255 9.02137C9.1018 9.02063 9.10044 9.02012 9.09962 9.01942C9.0989 9.0187 9.09834 9.01729 9.09766 9.01649L9.0918 9.01063C9.09105 9.00988 9.08969 9.00937 9.08887 9.00868C9.08812 9.00792 9.08763 9.00657 9.08692 9.00575L9.05762 8.97645C9.05665 8.97548 9.05478 8.97449 9.05372 8.97352C9.05275 8.97255 9.05175 8.97067 9.05079 8.96962L9.04493 8.96376C9.04392 8.96274 9.04211 8.96182 9.04102 8.96083C9.03999 8.9598 9.0391 8.95802 9.03809 8.95692C9.03718 8.95601 9.03609 8.95491 9.03516 8.95399C9.03416 8.95299 9.03234 8.95204 9.03126 8.95106C9.03023 8.95003 9.02934 8.94825 9.02833 8.94715C9.02728 8.94611 9.02553 8.94524 9.02442 8.94423C9.02336 8.94317 9.02252 8.94143 9.02149 8.94032C9.02044 8.93927 9.0187 8.93841 9.01759 8.93739C9.01654 8.93635 9.01567 8.93459 9.01466 8.93348C9.01354 8.93237 9.0119 8.93073 9.01075 8.92958C9.00969 8.92852 9.00796 8.92767 9.00684 8.92665C9.00576 8.92557 9.00496 8.92387 9.00391 8.92274C9.00277 8.9216 9.00118 8.92001 9.00001 8.91883C8.99893 8.91776 8.99723 8.91694 8.9961 8.9159C8.99503 8.91484 8.99421 8.91312 8.99317 8.912L8.97755 8.89637C8.97647 8.8953 8.97477 8.89448 8.97364 8.89344L8.95411 8.87391C8.95283 8.87264 8.95148 8.87038 8.9502 8.86903L8.93848 8.85731C8.93717 8.856 8.93498 8.85471 8.9336 8.8534C8.9323 8.8521 8.93099 8.8499 8.92969 8.84852L8.92188 8.84071C8.92057 8.8394 8.91838 8.83811 8.917 8.8368C8.91564 8.83544 8.91444 8.83334 8.91309 8.83192C8.91173 8.83056 8.90963 8.82936 8.90821 8.82801C8.90687 8.82667 8.90563 8.82453 8.9043 8.82313L8.88673 8.80555C8.88537 8.8042 8.88326 8.80299 8.88184 8.80165C8.88045 8.80026 8.8793 8.7982 8.87794 8.79676C8.87653 8.79536 8.8745 8.79423 8.87305 8.79286C8.87168 8.79148 8.8705 8.7894 8.86915 8.78798C8.86769 8.78651 8.86576 8.78458 8.86426 8.78309C8.86286 8.78169 8.86083 8.78056 8.85938 8.77919C8.8579 8.77771 8.85601 8.77581 8.8545 8.7743C8.85309 8.7729 8.85197 8.77087 8.85059 8.76942L8.84083 8.75965C8.83942 8.75825 8.83739 8.75712 8.83594 8.75575C8.83442 8.75422 8.8326 8.75241 8.83106 8.75087C8.82966 8.74946 8.82853 8.74743 8.82716 8.74598L8.79786 8.71669C8.79627 8.71509 8.79366 8.7134 8.792 8.7118L8.78223 8.70204C8.78061 8.70042 8.77897 8.69786 8.77735 8.69618L8.76759 8.68641C8.76594 8.68477 8.76342 8.68317 8.76173 8.68153C8.7601 8.67991 8.75846 8.67735 8.75684 8.67567L8.74708 8.6659C8.74544 8.66427 8.74291 8.66266 8.74122 8.66102C8.73953 8.65934 8.73801 8.65689 8.73634 8.65516C8.73465 8.65348 8.73221 8.65195 8.73048 8.65028C8.72882 8.64862 8.72724 8.64613 8.72559 8.64442L8.68262 8.60145C8.6809 8.59972 8.67853 8.59827 8.67676 8.59657C8.67506 8.59487 8.67357 8.59245 8.67188 8.59071C8.67009 8.58892 8.66784 8.58666 8.66602 8.58485C8.66429 8.58312 8.66193 8.58167 8.66016 8.57997C8.65847 8.57827 8.65696 8.57584 8.65528 8.57411L8.64356 8.56239C8.64183 8.56066 8.63947 8.55921 8.6377 8.55751C8.63587 8.55567 8.63369 8.5535 8.63184 8.55165C8.63011 8.54992 8.62867 8.54755 8.62696 8.54579L8.54493 8.46376C8.54298 8.46181 8.54009 8.45984 8.53809 8.4579C8.53615 8.45595 8.53418 8.45306 8.53223 8.45106L8.51466 8.43348C8.51271 8.43154 8.50982 8.42957 8.50782 8.42762C8.50583 8.42564 8.50394 8.42282 8.50196 8.42079C8.50007 8.41889 8.498 8.41683 8.4961 8.41493C8.49411 8.41294 8.4913 8.41105 8.48926 8.40907C8.48726 8.40706 8.4854 8.40428 8.48341 8.40223C8.48151 8.40034 8.47944 8.39827 8.47755 8.39637C8.47556 8.39439 8.47274 8.39249 8.47071 8.39051C8.46869 8.38849 8.46686 8.38573 8.46485 8.38368C8.46282 8.38165 8.46008 8.37983 8.45801 8.37782C8.456 8.3758 8.45416 8.37304 8.45216 8.37098L8.42676 8.34559C8.42475 8.34358 8.42198 8.34174 8.41993 8.33973C8.41789 8.3377 8.41609 8.33497 8.41407 8.3329C8.41201 8.33084 8.40932 8.32907 8.40723 8.32704C8.40518 8.32499 8.40341 8.32228 8.40137 8.3202L8.35548 8.2743C8.35342 8.27225 8.35073 8.27048 8.34864 8.26844C8.34658 8.26639 8.34482 8.26369 8.34278 8.26161L8.32911 8.24794C8.32705 8.24588 8.32436 8.24411 8.32227 8.24208C8.32011 8.23992 8.31761 8.23741 8.31544 8.23524C8.31338 8.23318 8.31161 8.23049 8.30958 8.2284L8.26856 8.18739C8.26651 8.18533 8.26381 8.18356 8.26173 8.18153L8.22755 8.14735C8.22531 8.14512 8.22295 8.14182 8.22071 8.13954L8.17969 8.09852C8.17743 8.09625 8.17419 8.09395 8.17188 8.09169C8.16966 8.08947 8.16727 8.08707 8.16505 8.08485C8.16277 8.08257 8.16048 8.07936 8.15821 8.07704L8.14454 8.06337C8.14225 8.06107 8.13906 8.05882 8.13673 8.05653C8.13451 8.05431 8.13211 8.05192 8.12989 8.04969C8.12759 8.04739 8.12535 8.04422 8.12305 8.04188C8.12083 8.03966 8.11844 8.03727 8.11622 8.03505C8.11391 8.03274 8.11075 8.03051 8.10841 8.02821C8.10612 8.02593 8.10385 8.02272 8.10157 8.0204L8.0879 8.00673C8.08562 8.00445 8.08241 8.00216 8.08009 7.99989C8.07775 7.99756 8.07557 7.99444 8.07325 7.99208L8.05176 7.97059C8.04942 7.96825 8.04633 7.96609 8.04395 7.96376C8.04161 7.96141 8.03945 7.95832 8.03712 7.95594L8.01563 7.93446C8.01331 7.93213 8.01018 7.92994 8.00782 7.92762C8.00548 7.92528 8.00331 7.92218 8.00098 7.91981C7.99863 7.91746 7.99555 7.91531 7.99317 7.91298C7.99081 7.91062 7.98868 7.90755 7.98634 7.90516C7.98397 7.9028 7.98091 7.90067 7.97852 7.89833C7.97616 7.89596 7.97403 7.8929 7.97169 7.89051C7.96933 7.88816 7.96626 7.88602 7.96387 7.88368C7.96152 7.88133 7.95937 7.87825 7.95704 7.87587L7.93458 7.8534C7.93224 7.85106 7.92914 7.8489 7.92676 7.84657C7.92439 7.8442 7.92228 7.84115 7.91993 7.83876C7.91755 7.83637 7.91452 7.83428 7.91212 7.83192C7.90975 7.82956 7.90763 7.8265 7.90528 7.82411C7.90286 7.82169 7.89991 7.81874 7.89747 7.8163C7.89511 7.81394 7.89204 7.8118 7.88966 7.80946C7.88727 7.80708 7.88518 7.80405 7.88282 7.80165C7.88039 7.79922 7.87746 7.79628 7.87501 7.79383C7.87267 7.7915 7.86956 7.78932 7.86719 7.787C7.86481 7.78462 7.86272 7.78159 7.86036 7.77919C7.85792 7.77675 7.855 7.77383 7.85255 7.77137C7.8502 7.76903 7.84711 7.76687 7.84473 7.76454C7.84235 7.76216 7.84026 7.75913 7.8379 7.75673C7.83545 7.75428 7.83255 7.75138 7.83009 7.74891C7.8277 7.74653 7.82468 7.74444 7.82227 7.74208C7.81989 7.7397 7.8178 7.73667 7.81544 7.73426L7.79981 7.71864C7.79744 7.71627 7.79439 7.71415 7.792 7.7118C7.78962 7.70942 7.78753 7.7064 7.78516 7.70399L7.76954 7.68837C7.76716 7.68598 7.76413 7.68389 7.76173 7.68153C7.75936 7.67916 7.75724 7.67611 7.75489 7.67372L7.73145 7.65028C7.72907 7.6479 7.72605 7.64581 7.72364 7.64344C7.72115 7.64095 7.71833 7.63813 7.71583 7.63563C7.71344 7.63325 7.71135 7.63023 7.70899 7.62782L7.67774 7.59657C7.67536 7.59419 7.67234 7.5921 7.66993 7.58973C7.66742 7.58723 7.66463 7.58443 7.66212 7.58192C7.65973 7.57954 7.65764 7.57651 7.65528 7.57411L7.60059 7.51942C7.59821 7.51704 7.59519 7.51495 7.59278 7.51258L7.56153 7.48133C7.55915 7.47895 7.55706 7.47593 7.55469 7.47352L7.42188 7.34071C7.41933 7.33815 7.41569 7.33545 7.41309 7.3329L7.36622 7.28602C7.36366 7.28346 7.36097 7.27984 7.35841 7.27723L7.30079 7.21962V18.6503C7.30076 19.0091 7.00923 19.3005 6.6504 19.3007C6.33628 19.3007 6.07428 19.0773 6.01368 18.7811L6.00001 18.6503V7.21962L5.94239 7.27723C5.93981 7.27981 5.93716 7.28341 5.93458 7.28602L5.8877 7.3329C5.88513 7.33547 5.88152 7.33814 5.87891 7.34071L5.7461 7.47352C5.7437 7.47592 5.74165 7.47892 5.73926 7.48133L5.70801 7.51258C5.70561 7.51499 5.70262 7.51704 5.7002 7.51942L5.64551 7.57411C5.64311 7.57651 5.64106 7.57951 5.63868 7.58192L5.63087 7.58973C5.62847 7.59213 5.62547 7.59419 5.62305 7.59657L5.5918 7.62782C5.5894 7.63022 5.58735 7.63322 5.58497 7.63563C5.58246 7.63814 5.57967 7.64093 5.57716 7.64344C5.57475 7.64584 5.57176 7.6479 5.56934 7.65028L5.54591 7.67372C5.54352 7.67611 5.54144 7.67913 5.53907 7.68153C5.53667 7.68393 5.53367 7.68598 5.53126 7.68837L5.51563 7.70399C5.51323 7.70639 5.51118 7.70939 5.5088 7.7118C5.50641 7.71419 5.50339 7.71627 5.50098 7.71864L5.48536 7.73426C5.48296 7.73666 5.4809 7.73966 5.47852 7.74208C5.47612 7.74448 5.47312 7.74653 5.47071 7.74891C5.46824 7.75138 5.46537 7.75425 5.4629 7.75673C5.4605 7.75913 5.45845 7.76212 5.45606 7.76454C5.45369 7.7669 5.45063 7.76902 5.44825 7.77137C5.44579 7.77383 5.4429 7.77672 5.44044 7.77919C5.43803 7.78159 5.43598 7.78458 5.4336 7.787C5.43124 7.78936 5.42816 7.79149 5.42579 7.79383C5.42334 7.79629 5.42043 7.79919 5.41798 7.80165C5.41557 7.80405 5.41352 7.80704 5.41114 7.80946C5.40876 7.81183 5.40572 7.81394 5.40333 7.8163C5.40089 7.81874 5.39796 7.82166 5.39551 7.82411C5.39313 7.82649 5.39104 7.82952 5.38868 7.83192C5.38628 7.83432 5.38328 7.83637 5.38087 7.83876C5.37848 7.84115 5.3764 7.84416 5.37403 7.84657C5.37167 7.84893 5.3686 7.85106 5.36622 7.8534L5.34376 7.87587C5.34139 7.87824 5.33928 7.88129 5.33692 7.88368C5.33454 7.88606 5.3315 7.88815 5.32911 7.89051C5.32673 7.8929 5.32464 7.89593 5.32227 7.89833C5.31989 7.90071 5.31686 7.9028 5.31446 7.90516C5.31208 7.90754 5.30999 7.91058 5.30762 7.91298C5.30525 7.91535 5.3022 7.91746 5.29981 7.91981C5.29745 7.92217 5.29532 7.92525 5.29298 7.92762C5.29063 7.92997 5.28753 7.93213 5.28516 7.93446L5.26368 7.95594C5.26131 7.95831 5.25919 7.96137 5.25684 7.96376C5.25448 7.96612 5.25141 7.96824 5.24903 7.97059L5.22755 7.99208C5.22519 7.99443 5.22305 7.99752 5.22071 7.99989C5.21841 8.00219 5.21522 8.00444 5.2129 8.00673L5.19923 8.0204C5.19692 8.0227 5.19468 8.02588 5.19239 8.02821C5.19006 8.03054 5.18693 8.03273 5.18458 8.03505C5.18234 8.03729 5.17998 8.03965 5.17774 8.04188C5.17542 8.0442 5.17321 8.04735 5.17091 8.04969C5.16867 8.05193 5.16631 8.05429 5.16407 8.05653C5.16176 8.05884 5.15859 8.06107 5.15626 8.06337L5.14259 8.07704C5.14029 8.07934 5.13804 8.08253 5.13575 8.08485C5.13351 8.08709 5.13115 8.08945 5.12891 8.09169C5.12662 8.09397 5.12341 8.09624 5.1211 8.09852L5.08009 8.13954C5.07783 8.14179 5.0755 8.14507 5.07325 8.14735L5.03907 8.18153C5.03699 8.18361 5.03432 8.18534 5.03223 8.18739L4.99122 8.2284C4.98914 8.23048 4.98741 8.23315 4.98536 8.23524C4.98318 8.23742 4.98071 8.23989 4.97852 8.24208C4.97645 8.24415 4.97378 8.24588 4.97169 8.24794L4.95801 8.26161C4.95594 8.26368 4.95421 8.26635 4.95216 8.26844C4.95008 8.27052 4.94741 8.27225 4.94532 8.2743L4.89942 8.3202C4.89735 8.32228 4.89561 8.32495 4.89356 8.32704C4.89148 8.32912 4.88882 8.33084 4.88673 8.3329C4.88467 8.33496 4.8829 8.33766 4.88087 8.33973C4.87883 8.34177 4.87609 8.34357 4.87403 8.34559L4.84864 8.37098C4.8466 8.37302 4.8448 8.37576 4.84278 8.37782C4.84073 8.37987 4.83801 8.38165 4.83594 8.38368C4.8339 8.38572 4.83211 8.38846 4.83009 8.39051C4.82808 8.39252 4.82527 8.39439 4.82325 8.39637C4.82133 8.39829 4.8193 8.40032 4.81739 8.40223C4.81536 8.40426 4.81354 8.40702 4.81153 8.40907C4.80952 8.41108 4.80673 8.41293 4.80469 8.41493C4.80278 8.41684 4.80074 8.41888 4.79884 8.42079C4.79683 8.4228 4.79497 8.42559 4.79298 8.42762C4.79101 8.42959 4.78813 8.43153 4.78614 8.43348L4.76856 8.45106C4.76659 8.45303 4.76466 8.4559 4.7627 8.4579C4.76073 8.45986 4.75786 8.4618 4.75587 8.46376L4.67384 8.54579C4.67208 8.54754 4.67068 8.54988 4.66895 8.55165C4.6671 8.5535 4.66495 8.55565 4.66309 8.55751C4.66134 8.55926 4.659 8.56067 4.65723 8.56239L4.64551 8.57411C4.6438 8.57583 4.64233 8.57823 4.64063 8.57997C4.63888 8.58172 4.63654 8.58313 4.63477 8.58485C4.63296 8.58666 4.63073 8.58889 4.62891 8.59071C4.62719 8.59244 4.62573 8.59482 4.62403 8.59657C4.62228 8.59832 4.61994 8.59973 4.61817 8.60145L4.5752 8.64442C4.57352 8.6461 4.57198 8.64857 4.57032 8.65028C4.56861 8.65199 4.56619 8.65348 4.56446 8.65516C4.56275 8.65687 4.56126 8.65929 4.55958 8.66102C4.55791 8.66269 4.55541 8.66426 4.55372 8.6659L4.54395 8.67567C4.54231 8.67732 4.5407 8.67985 4.53907 8.68153C4.5374 8.6832 4.5349 8.68476 4.53321 8.68641L4.52344 8.69618C4.5218 8.69782 4.52019 8.70036 4.51856 8.70204L4.5088 8.7118C4.50718 8.71342 4.50459 8.71508 4.50294 8.71669L4.47364 8.74598C4.47221 8.74741 4.47113 8.74942 4.46973 8.75087L4.46485 8.75575C4.46342 8.75717 4.46141 8.75826 4.45997 8.75965L4.4502 8.76942C4.44877 8.77085 4.44769 8.77286 4.4463 8.7743C4.44479 8.77581 4.44292 8.77768 4.44141 8.77919C4.43999 8.78061 4.43798 8.7817 4.43653 8.78309C4.43504 8.78458 4.43314 8.78648 4.43165 8.78798C4.43025 8.78938 4.42911 8.79143 4.42774 8.79286C4.42631 8.79429 4.4243 8.79537 4.42286 8.79676C4.42144 8.79818 4.42034 8.80021 4.41895 8.80165C4.41757 8.80303 4.41548 8.8042 4.41407 8.80555L4.39649 8.82313C4.39512 8.8245 4.39393 8.82662 4.39259 8.82801C4.3912 8.8294 4.38912 8.83056 4.3877 8.83192C4.38632 8.83331 4.38515 8.83539 4.3838 8.8368C4.38246 8.83814 4.38028 8.83939 4.37891 8.84071L4.3711 8.84852C4.36977 8.84985 4.36851 8.85204 4.36719 8.8534C4.36586 8.85474 4.36368 8.856 4.36231 8.85731L4.35059 8.86903C4.34929 8.87033 4.34797 8.87257 4.34669 8.87391L4.32716 8.89344C4.32605 8.89454 4.32438 8.89531 4.32325 8.89637L4.30762 8.912C4.30653 8.91309 4.30575 8.91479 4.30469 8.9159C4.30359 8.91701 4.30191 8.91778 4.30079 8.91883C4.29962 8.92 4.29806 8.92156 4.29688 8.92274C4.29578 8.92385 4.29502 8.92552 4.29395 8.92665C4.29287 8.92773 4.29116 8.92853 4.29005 8.92958C4.28891 8.93071 4.28729 8.93233 4.28614 8.93348C4.28507 8.93455 4.28424 8.93629 4.28321 8.93739C4.28213 8.93847 4.28041 8.93928 4.2793 8.94032C4.27822 8.9414 4.27742 8.94312 4.27637 8.94423C4.2753 8.9453 4.27357 8.94612 4.27247 8.94715C4.27141 8.94821 4.27056 8.94997 4.26954 8.95106C4.26851 8.95209 4.2667 8.95299 4.26563 8.95399L4.2627 8.95692C4.26165 8.95798 4.2608 8.95974 4.25977 8.96083C4.25873 8.96187 4.25694 8.96275 4.25587 8.96376L4.25001 8.96962C4.24901 8.97061 4.24805 8.97248 4.24708 8.97352C4.24608 8.97452 4.24422 8.97548 4.24317 8.97645L4.21387 9.00575C4.21309 9.00653 4.21265 9.00787 4.21192 9.00868C4.21115 9.00945 4.2098 9.00991 4.20899 9.01063L4.20313 9.01649C4.20239 9.01723 4.20188 9.01863 4.20118 9.01942C4.20041 9.02019 4.19906 9.02066 4.19825 9.02137C4.19747 9.02215 4.19702 9.0235 4.1963 9.0243C4.19556 9.02504 4.19416 9.02557 4.19337 9.02626L4.1836 9.03602C4.18286 9.03677 4.18235 9.03817 4.18165 9.03895C4.18094 9.03966 4.17949 9.04024 4.17872 9.0409L4.17676 9.04286C4.17606 9.04357 4.17549 9.04502 4.17481 9.04579L4.17286 9.04774L4.16993 9.04969L4.1504 9.06923L4.14942 9.07118L4.14747 9.07313L4.14551 9.07411L4.14356 9.07606L4.14259 9.07801L4.14063 9.07899L4.13966 9.08094L4.1377 9.08192L4.13673 9.08387L4.13477 9.08485L4.1338 9.0868L4.13184 9.08778L4.13087 9.08876L4.12989 9.09071L4.12794 9.09169L4.12403 9.09559L4.12305 9.09755L4.1211 9.0995H4.12012L4.11622 9.1034V9.10438H4.11524L4.11426 9.10536V9.10633H4.11329V9.10731H4.11231V9.10829H4.11134V9.10926H4.11036V9.11024L4.00782 9.19325C3.7556 9.35965 3.4125 9.33214 3.19044 9.11024C2.96838 8.88819 2.94098 8.54514 3.10743 8.29286L3.19044 8.19032H3.19141V8.18934H3.19239V8.18837H3.19337V8.18739H3.19434V8.18641H3.19532L3.1963 8.18544V8.18446H3.19727L3.20118 8.18055V8.17958L3.20313 8.17762L3.20509 8.17665L3.20899 8.17274L3.20997 8.17079L3.21192 8.16981L3.2129 8.16883L3.21387 8.16688L3.21583 8.1659L3.2168 8.16395L3.21876 8.16298L3.21973 8.16102L3.22169 8.16005L3.22266 8.15809L3.22462 8.15712L3.22657 8.15516L3.22755 8.15321L3.2295 8.15126L3.23145 8.15028L3.25098 8.13075L3.25294 8.12782L3.25489 8.12587C3.25566 8.1252 3.25712 8.12461 3.25782 8.12391L3.25977 8.12196C3.26045 8.12119 3.26101 8.11975 3.26173 8.11903C3.26251 8.11834 3.26392 8.11781 3.26466 8.11708L3.27442 8.10731C3.27512 8.10652 3.27563 8.10512 3.27637 8.10438C3.27718 8.10367 3.27854 8.1032 3.2793 8.10243C3.28003 8.10162 3.28048 8.10028 3.28126 8.0995C3.28205 8.09881 3.28345 8.09828 3.28419 8.09755L3.29005 8.09169C3.29078 8.09087 3.29122 8.08954 3.292 8.08876C3.29281 8.08804 3.29416 8.08758 3.29493 8.0868L3.32423 8.05751C3.32521 8.05646 3.32615 8.0546 3.32716 8.0536C3.3282 8.05263 3.33007 8.05166 3.33106 8.05067L3.33692 8.04481C3.33793 8.04373 3.33881 8.04195 3.33985 8.0409C3.34094 8.03989 3.34271 8.03903 3.34376 8.03798C3.34469 8.03704 3.34575 8.03599 3.34669 8.03505C3.34769 8.03398 3.34859 8.03217 3.34962 8.03114C3.35071 8.03012 3.35247 8.02926 3.35352 8.02821C3.35456 8.02711 3.35538 8.02538 3.35645 8.0243C3.35756 8.02326 3.35928 8.02245 3.36036 8.02137C3.3614 8.02027 3.36221 8.01855 3.36329 8.01747C3.36438 8.01644 3.36613 8.0156 3.36719 8.01454L3.3711 8.01063C3.37215 8.00952 3.37295 8.00781 3.37403 8.00673C3.37516 8.00567 3.37684 8.0049 3.37794 8.0038C3.37911 8.00262 3.38067 8.00106 3.38184 7.99989C3.38291 7.99876 3.38367 7.99709 3.38477 7.99598C3.38589 7.99494 3.38759 7.99414 3.38868 7.99305L3.4043 7.97743C3.40537 7.9763 3.40613 7.97463 3.40723 7.97352L3.42676 7.95399C3.42811 7.95271 3.43035 7.95138 3.43165 7.95008L3.44337 7.93837C3.44468 7.937 3.44593 7.93482 3.44727 7.93348C3.44864 7.93218 3.45083 7.9309 3.45216 7.92958L3.45997 7.92176C3.46129 7.92039 3.46254 7.91822 3.46387 7.91688C3.46528 7.91553 3.46737 7.91436 3.46876 7.91298C3.47012 7.91156 3.47127 7.90948 3.47266 7.90809C3.47406 7.90675 3.47618 7.90555 3.47755 7.90419L3.49512 7.88661C3.49648 7.8852 3.49765 7.88311 3.49903 7.88173C3.50046 7.88034 3.5025 7.87923 3.50391 7.87782C3.50531 7.87637 3.50639 7.87437 3.50782 7.87294C3.50924 7.87157 3.5113 7.87043 3.5127 7.86903C3.5142 7.86754 3.5161 7.86563 3.51759 7.86415C3.51898 7.8627 3.52006 7.86069 3.52149 7.85926C3.523 7.85775 3.52487 7.85589 3.52637 7.85438C3.52782 7.85299 3.52983 7.8519 3.53126 7.85048L3.54102 7.84071C3.54242 7.83926 3.5435 7.83726 3.54493 7.83583C3.54648 7.83428 3.54826 7.83249 3.54981 7.83094C3.55126 7.82955 3.55327 7.82846 3.55469 7.82704L3.58399 7.79774C3.5856 7.79609 3.58726 7.7935 3.58887 7.79188L3.59864 7.78212C3.60031 7.78049 3.60286 7.77888 3.6045 7.77723L3.61426 7.76747C3.61592 7.76577 3.61748 7.76328 3.61915 7.76161C3.62082 7.75998 3.62336 7.75837 3.62501 7.75673L3.63477 7.74696C3.63642 7.74527 3.63799 7.74276 3.63966 7.7411C3.64138 7.73942 3.64381 7.73793 3.64551 7.73622C3.6472 7.73449 3.64869 7.73207 3.6504 7.73036C3.6521 7.7287 3.65458 7.72715 3.65626 7.72548L3.69923 7.68251C3.70095 7.68074 3.70235 7.6784 3.70411 7.67665C3.70585 7.67495 3.70824 7.67349 3.70997 7.67176C3.71178 7.66995 3.71402 7.66772 3.71583 7.6659C3.71755 7.66414 3.71896 7.6618 3.72071 7.66005C3.72245 7.65835 3.72485 7.65688 3.72657 7.65516L3.73829 7.64344C3.74001 7.64168 3.74142 7.63934 3.74317 7.63758C3.74503 7.63573 3.74718 7.63358 3.74903 7.63173C3.7508 7.63 3.75314 7.62859 3.75489 7.62684L3.83692 7.54481C3.83888 7.54282 3.84081 7.53994 3.84278 7.53798C3.84477 7.53602 3.84765 7.53408 3.84962 7.53212L3.86719 7.51454C3.86915 7.51254 3.87108 7.50967 3.87305 7.5077C3.87508 7.50571 3.87788 7.50385 3.87989 7.50184L3.88575 7.49598C3.88775 7.49395 3.88959 7.49116 3.89161 7.48915C3.89365 7.48714 3.89642 7.48531 3.89844 7.48329C3.90035 7.48138 3.90239 7.47934 3.9043 7.47743C3.90629 7.4754 3.90816 7.4726 3.91016 7.47059C3.91222 7.46857 3.91496 7.46677 3.917 7.46473C3.91903 7.46266 3.92081 7.45995 3.92286 7.4579C3.92492 7.45588 3.92766 7.45408 3.92969 7.45204L3.95509 7.42665C3.95711 7.42459 3.9589 7.42185 3.96094 7.41981C3.96302 7.41778 3.96572 7.41601 3.96778 7.41395C3.96984 7.41186 3.97156 7.40919 3.97364 7.40712C3.97573 7.40507 3.9784 7.40333 3.98048 7.40126L4.02637 7.35536C4.02843 7.35327 4.03016 7.3506 4.03223 7.34852C4.03432 7.34647 4.03699 7.34474 4.03907 7.34266L4.05274 7.32899C4.0548 7.3269 4.05652 7.32423 4.0586 7.32215C4.06078 7.31997 4.06325 7.3175 4.06544 7.31532C4.06753 7.31327 4.0702 7.31154 4.07227 7.30946L4.11329 7.26844C4.11534 7.26635 4.11707 7.26369 4.11915 7.26161L4.15333 7.22743C4.15561 7.22518 4.15888 7.22285 4.16114 7.22059L4.20216 7.17958C4.20444 7.17726 4.2067 7.17405 4.20899 7.17176C4.21123 7.16953 4.21359 7.16717 4.21583 7.16493C4.21815 7.16264 4.22134 7.16039 4.22364 7.15809L4.23731 7.14442C4.23961 7.14209 4.24183 7.13892 4.24415 7.13661C4.24638 7.13437 4.24874 7.13201 4.25098 7.12977C4.25332 7.12746 4.25648 7.12526 4.2588 7.12294C4.26103 7.1207 4.26339 7.11834 4.26563 7.1161C4.26795 7.11375 4.27014 7.11062 4.27247 7.10829C4.27479 7.106 4.27798 7.10376 4.28028 7.10145L4.29395 7.08778C4.29624 7.08546 4.29849 7.08227 4.30079 7.07997C4.30316 7.07763 4.30625 7.07548 4.3086 7.07313L4.33009 7.05165C4.33244 7.04926 4.33455 7.0462 4.33692 7.04383C4.3393 7.04149 4.34237 7.03936 4.34473 7.037L4.36622 7.01551C4.36855 7.01315 4.37071 7.01005 4.37305 7.0077C4.37543 7.00536 4.37851 7.00322 4.38087 7.00087C4.38322 6.99848 4.38533 6.99542 4.3877 6.99305C4.3901 6.99069 4.39314 6.9886 4.39551 6.98622C4.39788 6.98382 4.39997 6.98079 4.40235 6.9784C4.40475 6.97604 4.40778 6.97395 4.41016 6.97157C4.41252 6.96918 4.41462 6.96614 4.417 6.96376C4.41939 6.9614 4.42244 6.95929 4.42481 6.95692L4.44727 6.93446C4.44962 6.93208 4.45175 6.92901 4.45411 6.92665C4.45651 6.92427 4.45953 6.9222 4.46192 6.91981C4.4643 6.9174 4.46635 6.9144 4.46876 6.912C4.47115 6.90963 4.47419 6.90754 4.47657 6.90516L4.48438 6.89735C4.48674 6.89496 4.48884 6.89191 4.49122 6.88954C4.49363 6.88715 4.49663 6.8851 4.49903 6.8827L4.50684 6.87489C4.50919 6.87251 4.51132 6.86943 4.51368 6.86708C4.51609 6.86469 4.51909 6.86264 4.52149 6.86024L4.5293 6.85243C4.53166 6.85004 4.53377 6.84698 4.53614 6.84462C4.53855 6.84223 4.54155 6.84018 4.54395 6.83778C4.54643 6.83531 4.5493 6.83244 4.55176 6.82997C4.55415 6.82755 4.5562 6.82456 4.5586 6.82215C4.56101 6.81978 4.56402 6.81772 4.56641 6.81532L4.58204 6.79969C4.58441 6.79729 4.58649 6.79427 4.58887 6.79188C4.59129 6.7895 4.59429 6.78745 4.59669 6.78505L4.61231 6.76942C4.6147 6.76701 4.61675 6.76401 4.61915 6.76161C4.62155 6.75924 4.62457 6.75716 4.62696 6.75477L4.6504 6.73133C4.65278 6.72892 4.65483 6.72592 4.65723 6.72352C4.65975 6.72101 4.66254 6.71822 4.66505 6.71571C4.66746 6.71333 4.67046 6.71127 4.67286 6.70887L4.70411 6.67762C4.70649 6.67521 4.70854 6.67221 4.71094 6.66981C4.71347 6.66728 4.71623 6.66452 4.71876 6.662C4.72117 6.65962 4.72417 6.65756 4.72657 6.65516L4.78126 6.60048C4.78364 6.59806 4.78569 6.59506 4.78809 6.59266L4.81934 6.56141C4.82176 6.55903 4.82475 6.55698 4.82716 6.55458L4.95997 6.42176C4.96254 6.41916 4.96521 6.41555 4.96778 6.41298L5.01466 6.3661C5.01726 6.36352 5.02086 6.36087 5.02344 6.35829L5.10938 6.27235C5.11197 6.26974 5.11461 6.26615 5.11719 6.26356L5.14063 6.24012C5.14325 6.23754 5.14683 6.2349 5.14942 6.23231L5.21973 6.162C5.22232 6.15938 5.22496 6.15579 5.22755 6.15321L5.2588 6.12196C5.26141 6.11938 5.265 6.11673 5.26759 6.11415L5.36134 6.0204C5.36391 6.01779 5.36657 6.01418 5.36915 6.01161L5.51759 5.86317C5.52 5.86079 5.523 5.85873 5.5254 5.85633L5.59571 5.78602C5.5981 5.7836 5.60015 5.78061 5.60255 5.77821L5.61817 5.76258C5.62059 5.7602 5.62358 5.75815 5.62598 5.75575L5.65723 5.7245C5.65962 5.72208 5.66167 5.71909 5.66407 5.71669C5.66659 5.71417 5.66937 5.71138 5.67188 5.70887C5.6743 5.70649 5.6773 5.70444 5.67969 5.70204L5.70313 5.6786C5.70551 5.67619 5.70758 5.67318 5.70997 5.67079C5.71239 5.6684 5.71538 5.66635 5.71778 5.66395L5.73341 5.64833C5.73579 5.64591 5.73784 5.64291 5.74024 5.64051C5.74274 5.63802 5.74557 5.63519 5.74805 5.6327C5.75047 5.63032 5.75347 5.62826 5.75587 5.62587C5.75836 5.62338 5.7612 5.62053 5.76368 5.61805C5.76607 5.61564 5.76812 5.61264 5.77051 5.61024C5.7729 5.60788 5.77596 5.60577 5.77833 5.6034L5.79395 5.58778C5.79632 5.58538 5.7984 5.58235 5.80079 5.57997C5.80321 5.57758 5.8062 5.57553 5.8086 5.57313C5.81107 5.57066 5.81396 5.56778 5.81641 5.56532C5.8188 5.5629 5.82085 5.5599 5.82325 5.55751C5.82567 5.55512 5.82866 5.55307 5.83106 5.55067C5.83352 5.54821 5.83643 5.54531 5.83887 5.54286C5.84125 5.54046 5.84333 5.53743 5.84571 5.53505C5.84813 5.53266 5.85112 5.53061 5.85352 5.52821L5.87598 5.50575C5.87837 5.50333 5.88042 5.50033 5.88282 5.49794C5.88523 5.49555 5.88824 5.4935 5.89063 5.4911L5.97852 5.40321C5.98085 5.40085 5.98302 5.39773 5.98536 5.3954C5.98774 5.39305 5.99082 5.39092 5.99317 5.38856C5.99553 5.38617 5.99764 5.38312 6.00001 5.38075C6.00239 5.3784 6.00547 5.37627 6.00782 5.37391C6.01006 5.37167 6.01242 5.36931 6.01466 5.36708C6.01697 5.36473 6.01917 5.36158 6.02149 5.35926C6.02387 5.35692 6.02695 5.35478 6.0293 5.35243L6.05762 5.32411C6.05993 5.32177 6.06216 5.3186 6.06446 5.3163C6.06681 5.31397 6.06995 5.31179 6.07227 5.30946C6.07451 5.30722 6.07687 5.30486 6.07911 5.30262C6.08142 5.30028 6.08363 5.29713 6.08594 5.29481C6.08818 5.29257 6.09054 5.29021 6.09278 5.28798C6.09512 5.28567 6.09828 5.28345 6.10059 5.28114L6.11426 5.26747C6.11656 5.26514 6.1188 5.26195 6.1211 5.25965C6.12334 5.25741 6.1257 5.25505 6.12794 5.25282C6.13026 5.25053 6.13346 5.24827 6.13575 5.24598L6.16993 5.2118C6.17219 5.20951 6.17451 5.20625 6.17676 5.20399L6.19044 5.19032ZM20.2783 17.3739C20.5741 17.4349 20.7969 17.6968 20.7969 18.0106C20.7967 18.3243 20.574 18.5865 20.2783 18.6474L20.1465 18.661H13.2793C12.9205 18.661 12.6291 18.3694 12.6289 18.0106C12.6289 17.6516 12.9203 17.3602 13.2793 17.3602H20.1465L20.2783 17.3739ZM18.5606 13.4638C18.8567 13.5244 19.0801 13.7864 19.0801 14.1005C19.08 14.4145 18.8567 14.6766 18.5606 14.7372L18.4297 14.7509H13.2793C12.9204 14.7509 12.629 14.4594 12.6289 14.1005C12.6289 13.7415 12.9203 13.4501 13.2793 13.4501H18.4297L18.5606 13.4638ZM16.8438 9.5536C17.1399 9.61425 17.3633 9.87624 17.3633 10.1903C17.3632 10.5044 17.1399 10.7664 16.8438 10.827L16.7129 10.8407H13.2793C12.9204 10.8407 12.629 10.5493 12.6289 10.1903C12.6289 9.83133 12.9203 9.53993 13.2793 9.53993H16.7129L16.8438 9.5536ZM15.127 5.65028C15.4231 5.71096 15.6465 5.97295 15.6465 6.287C15.6465 6.60103 15.4231 6.86305 15.127 6.92372L14.9961 6.93739H13.2793C12.9203 6.93739 12.6289 6.64596 12.6289 6.287C12.6289 5.92801 12.9203 5.63661 13.2793 5.63661H14.9961L15.127 5.65028Z" fill="#0D1625"/>
</svg>
