<svg width="24" height="24" viewBox="0 0 24 24" fill="none" xmlns="http://www.w3.org/2000/svg">
<path d="M6 17V8.5C6 7.94772 6.44772 7.5 7 7.5H15C15.5523 7.5 16 7.94772 16 8.5V17C16 18.6569 14.6569 20 13 20H9C7.34315 20 6 18.6569 6 17Z" stroke="black" stroke-width="1.3"/>
<path d="M8 2V2C7.44772 2.55228 7.44772 3.44772 8 4V4" stroke="black" stroke-width="1.3" stroke-linecap="round"/>
<path d="M12 2V2C11.4477 2.55228 11.4477 3.44772 12 4V4" stroke="black" stroke-width="1.3" stroke-linecap="round"/>
<path d="M16 11H17.5C18.6046 11 19.5 11.8954 19.5 13V15C19.5 16.1046 18.6046 17 17.5 17H16" stroke="black" stroke-width="1.3" stroke-linecap="round"/>
</svg>
