<svg width="24" height="24" viewBox="0 0 24 24" fill="none" xmlns="http://www.w3.org/2000/svg">
  <path d="M12 4C16.4183 4 20 7.58172 20 12C20 16.4183 16.4183 20 12 20C7.58172 20 4 16.4183 4 12C4 7.58172 7.58172 4 12 4ZM15.0264 14.1211C13.1088 12.9441 10.6732 12.983 8.79004 14.2383L8.72266 14.2881C8.08707 14.8005 8.59696 15.8432 9.3916 15.6562L9.47168 15.6328L10.3145 15.3525C11.3402 15.0107 12.444 14.989 13.4795 15.2881L13.6855 15.3525L14.5283 15.6328L14.6084 15.6562C15.4295 15.8494 15.9464 14.7293 15.21 14.2383L15.0264 14.1211ZM10 9C9.44772 9.00001 9 9.44772 9 10V11C9 11.5523 9.44772 12 10 12C10.5523 12 11 11.5523 11 11V10C11 9.44772 10.5523 9 10 9ZM14 9C13.4477 9.00001 13 9.44772 13 10V11C13 11.5523 13.4477 12 14 12C14.5523 12 15 11.5523 15 11V10C15 9.44772 14.5523 9 14 9Z" fill="currentColor"/>
</svg>
