<svg width="24" height="24" viewBox="0 0 24 24" fill="none" xmlns="http://www.w3.org/2000/svg">
<path fill-rule="evenodd" clip-rule="evenodd" d="M12 3C16.9706 3 21 7.02944 21 12C21 16.9706 16.9706 21 12 21C7.02944 21 3 16.9706 3 12C3 7.02944 7.02944 3 12 3ZM12 13.5C10.9629 13.5 10.0117 13.8245 9.2998 14.3252C8.62327 14.801 8.00007 15.5654 8 16.5C8.00007 17.0176 8.39345 17.4437 8.89746 17.4951L9 17.5H15C15.5176 17.4999 15.9437 17.1066 15.9951 16.6025L16 16.5C15.9999 15.5655 15.3767 14.801 14.7002 14.3252C13.9883 13.8246 13.037 13.5 12 13.5ZM8.44043 8.10254C7.98585 7.87888 7.42683 8.03102 7.15234 8.46973C6.87809 8.90859 6.98572 9.47831 7.38574 9.78906L7.46973 9.84766L8.11328 10.25L7.46973 10.6523C7.00174 10.9451 6.85986 11.5621 7.15234 12.0303C7.44518 12.4982 8.06211 12.6402 8.53027 12.3477L10.5303 11.0977L10.6338 11.0234C10.8638 10.835 11 10.5518 11 10.25C11 9.9483 10.8637 9.665 10.6338 9.47656L10.5303 9.40234L8.53027 8.15234L8.44043 8.10254ZM16.8477 8.46973C16.5731 8.03107 16.0141 7.8788 15.5596 8.10254L15.4697 8.15234L13.4697 9.40234L13.3662 9.47656C13.1362 9.665 13 9.94824 13 10.25C13 10.5517 13.1363 10.835 13.3662 11.0234L13.4697 11.0977L15.4697 12.3477C15.9379 12.6401 16.5549 12.4982 16.8477 12.0303C17.1402 11.5621 16.9982 10.9452 16.5303 10.6523L15.8867 10.25L16.5303 9.84766L16.6143 9.78906C17.0144 9.47836 17.1219 8.90864 16.8477 8.46973Z" fill="black"/>
</svg>
