<svg width="24" height="24" viewBox="0 0 24 24" fill="none" xmlns="http://www.w3.org/2000/svg">
<path d="M15 11V7C15 5.34315 13.6569 4 12 4C10.7386 4 9.65897 4.77854 9.21552 5.88133M10.3411 13.5C9.98492 13.2632 9.68224 12.9523 9.45508 12.5893" stroke="black" stroke-width="1.3" stroke-linecap="round" stroke-linejoin="round"/>
<path d="M6 11C6 14.3137 8.68629 17 12 17C12.3807 17 12.7531 16.9645 13.1142 16.8967M18 11C18 11.9233 17.7915 12.7979 17.4189 13.5792" stroke="black" stroke-width="1.3" stroke-linecap="round"/>
<path d="M12 17V20M12 20H10M12 20H14" stroke="black" stroke-width="1.3" stroke-linecap="round"/>
<path d="M5 5L18 18" stroke="black" stroke-width="1.3" stroke-linecap="round"/>
</svg>
