<svg width="24" height="24" viewBox="0 0 24 24" fill="none" xmlns="http://www.w3.org/2000/svg">
<path d="M17.9999 15.3496C18.3589 15.3496 18.6503 15.641 18.6503 16V17.3496H19.9999L20.1308 17.3633C20.427 17.4238 20.6503 17.6858 20.6503 18C20.6503 18.3142 20.427 18.5762 20.1308 18.6367L19.9999 18.6504H18.6503V20L18.6366 20.1309C18.576 20.4271 18.314 20.6504 17.9999 20.6504C17.6858 20.6503 17.4237 20.427 17.3632 20.1309L17.3495 20V18.6504H15.9999C15.641 18.6503 15.3495 18.3589 15.3495 18C15.3495 17.6411 15.641 17.3497 15.9999 17.3496H17.3495V16C17.3495 15.6411 17.641 15.3497 17.9999 15.3496ZM11.9999 15.3496C12.8339 15.3496 13.5686 15.4563 14.2079 15.624L14.4765 15.6992L14.5985 15.75C14.8645 15.8936 15.0017 16.2091 14.911 16.5098C14.8202 16.8103 14.5314 16.9973 14.2304 16.9697L14.1015 16.9443L13.8788 16.8818C13.3463 16.742 12.7222 16.6504 11.9999 16.6504C10.3811 16.6504 9.24784 17.1109 8.52823 17.5537C8.1664 17.7764 7.90548 17.9966 7.73917 18.1562C7.65625 18.2359 7.59679 18.3003 7.56046 18.3418C7.54261 18.3622 7.53012 18.3774 7.52335 18.3857L7.51749 18.3936V18.3916C7.30165 18.6768 6.89669 18.7344 6.61026 18.5195C6.32321 18.3041 6.2651 17.8975 6.48038 17.6104L6.83878 17.8789C6.4877 17.6155 6.48034 17.6097 6.48038 17.6094V17.6084L6.48233 17.6074C6.48304 17.6065 6.48343 17.6047 6.48428 17.6035C6.48614 17.6011 6.48854 17.598 6.49112 17.5947C6.49637 17.588 6.50339 17.5795 6.51163 17.5693C6.52854 17.5484 6.55237 17.5201 6.58194 17.4863C6.64127 17.4185 6.72667 17.3264 6.83878 17.2188C7.06303 17.0035 7.39616 16.7235 7.84659 16.4463C8.75192 15.8892 10.1189 15.3496 11.9999 15.3496ZM11.9999 4.34961C14.568 4.34961 16.6503 6.43188 16.6503 9C16.6503 11.5681 14.568 13.6504 11.9999 13.6504C9.43187 13.6503 7.34952 11.5681 7.34952 9C7.34952 6.43194 9.43187 4.34972 11.9999 4.34961ZM11.9999 5.65039C10.1498 5.6505 8.6503 7.14991 8.6503 9C8.6503 10.8501 10.1498 12.3495 11.9999 12.3496C13.8501 12.3496 15.3495 10.8502 15.3495 9C15.3495 7.14985 13.8501 5.65039 11.9999 5.65039Z" fill="#0D1625"/>
</svg>
