<svg width="24" height="24" viewBox="0 0 24 24" fill="none" xmlns="http://www.w3.org/2000/svg">
<path d="M10 6V6C7.23858 6 5 8.23858 5 11V13M5 13V15.5C5 16.8807 6.11929 18 7.5 18V18C8.88071 18 10 16.8807 10 15.5V15.5C10 14.1193 8.88071 13 7.5 13H5Z" stroke="black" stroke-width="1.3" stroke-linecap="round" stroke-linejoin="round"/>
<path d="M19 6V6C16.2386 6 14 8.23858 14 11V13M14 13V15.5C14 16.8807 15.1193 18 16.5 18V18C17.8807 18 19 16.8807 19 15.5V15.5C19 14.1193 17.8807 13 16.5 13H14Z" stroke="black" stroke-width="1.3" stroke-linecap="round" stroke-linejoin="round"/>
</svg>
