<svg width="20" height="20" viewBox="0 0 20 20" fill="none" xmlns="http://www.w3.org/2000/svg">
<path fill-rule="evenodd" clip-rule="evenodd" d="M6.66667 13.1504C6.30768 13.1504 6.01628 12.859 6.01628 12.5V6.57032L4.62663 7.95997L4.52409 8.04298C4.27181 8.20943 3.92876 8.18203 3.7067 7.95997C3.48465 7.73792 3.45725 7.39487 3.6237 7.14259L3.7067 7.04005L6.2067 4.54005C6.46055 4.28621 6.87279 4.28621 7.12663 4.54005L9.62663 7.04005C9.88047 7.29389 9.88047 7.70613 9.62663 7.95997C9.37279 8.21381 8.96055 8.21381 8.7067 7.95997L7.31706 6.57032V12.5C7.31706 12.859 7.02565 13.1504 6.66667 13.1504ZM13.3333 6.84962C12.9743 6.84962 12.6829 7.14103 12.6829 7.50001V13.4297L11.2933 12.0401L11.1908 11.957C10.9385 11.7906 10.5954 11.818 10.3734 12.0401C10.1513 12.2621 10.1239 12.6052 10.2904 12.8574L10.3734 12.96L12.8734 15.46C13.1272 15.7138 13.5395 15.7138 13.7933 15.46L16.2933 12.96C16.5471 12.7061 16.5471 12.2939 16.2933 12.0401C16.0395 11.7862 15.6272 11.7862 15.3734 12.0401L13.9837 13.4297V7.50001C13.9837 7.14103 13.6923 6.84962 13.3333 6.84962Z" fill="#0D1625"/>
</svg>
