<svg width="24" height="24" viewBox="0 0 24 24" fill="none" xmlns="http://www.w3.org/2000/svg">
<path d="M16.9401 6C16.9401 5.72386 17.164 5.5 17.4401 5.5L17.9401 5.5C19.3208 5.5 20.4401 6.61929 20.4401 8L20.4401 11C20.4401 12.3807 19.3208 13.5 17.9401 13.5L17.4401 13.5C17.164 13.5 16.9401 13.2761 16.9401 13L16.9401 6Z" fill="black"/>
<path d="M11.7555 18.5C10.753 18.5 9.94011 17.6871 9.94011 16.6846L9.94011 14.5L6.00163 14.5C4.37522 14.5 3.18139 12.9714 3.57585 11.3936L4.38738 8.15137C4.7769 6.59328 6.17685 5.5 7.78288 5.5L14.9401 5.5C15.4924 5.5 15.9401 5.94771 15.9401 6.5L15.9401 12.9265C15.9401 13.5419 15.7508 14.1425 15.3979 14.6468L13.2428 17.7256C12.9032 18.2108 12.3478 18.4999 11.7555 18.5Z" fill="black"/>
</svg>
