<svg width="24" height="24" viewBox="0 0 24 24" fill="none" xmlns="http://www.w3.org/2000/svg">
<path fill-rule="evenodd" clip-rule="evenodd" d="M7.2 4.02954C5.43269 4.02954 4 5.46223 4 7.22954V13.6295C4 15.3969 5.43269 16.8295 7.2 16.8295L7.2 19.0639C7.2 20.1329 8.49257 20.6683 9.24853 19.9124L12.0971 17.0639C12.2471 16.9138 12.4506 16.8295 12.6627 16.8295H16.8C18.5673 16.8295 20 15.3969 20 13.6295V7.22954C20 5.46223 18.5673 4.02954 16.8 4.02954H7.2ZM8.54857 10.9835C8.81474 11.4814 9.1822 11.9611 9.64608 12.4226C10.4249 13.1189 10.8559 13.4695 11.6023 13.9375L11.6039 13.9384C11.7297 14.008 11.8657 14.06 12.0016 14.06C12.1377 14.06 12.2724 14.0081 12.3965 13.9381C12.5124 13.8739 12.6311 13.8016 12.7526 13.7215L12.7536 13.7207C13.3602 13.3148 13.8954 12.882 14.3576 12.4222C14.8215 11.9607 15.1875 11.4812 15.4514 10.9831C15.7208 10.4791 15.8592 9.96376 15.8592 9.43951C15.8592 9.05513 15.7976 8.70002 15.6701 8.37748C15.5446 8.05991 15.3699 7.78395 15.1445 7.55313C14.9238 7.32484 14.6693 7.14832 14.3818 7.0254C14.2053 6.93126 13.837 6.83772 13.4747 6.83001C12.852 6.81674 12.2551 7.08126 12.0014 7.38726C11.8685 7.25899 11.7128 7.14945 11.5364 7.05777C11.2499 6.90644 10.9104 6.83701 10.5286 6.83701C10.2124 6.83701 9.90916 6.8999 9.62096 7.02559C9.3359 7.14857 9.08159 7.32515 8.8591 7.5528L8.8583 7.55364C8.63571 7.78407 8.46117 8.05985 8.33351 8.37644L8.3331 8.37748C8.20565 8.70002 8.14404 9.05513 8.14404 9.43951C8.14404 9.9635 8.2816 10.4795 8.54857 10.9835Z" fill="black"/>
</svg>
