<svg width="24" height="24" viewBox="0 0 24 24" fill="none" xmlns="http://www.w3.org/2000/svg">
<path fill-rule="evenodd" clip-rule="evenodd" d="M12 4.65001C7.94071 4.65001 4.65 7.94071 4.65 12C4.65 16.0593 7.94071 19.35 12 19.35C16.0593 19.35 19.35 16.0593 19.35 12C19.35 7.94071 16.0593 4.65001 12 4.65001ZM3.35 12C3.35 7.22274 7.22274 3.35001 12 3.35001C16.7773 3.35001 20.65 7.22274 20.65 12C20.65 16.7773 16.7773 20.65 12 20.65C7.22274 20.65 3.35 16.7773 3.35 12ZM12 8.35C12.359 8.35 12.65 8.64102 12.65 9V12C12.65 12.359 12.359 12.65 12 12.65C11.641 12.65 11.35 12.359 11.35 12V9C11.35 8.64102 11.641 8.35 12 8.35ZM12.65 15C12.65 14.641 12.359 14.35 12 14.35C11.641 14.35 11.35 14.641 11.35 15V15.1C11.35 15.459 11.641 15.75 12 15.75C12.359 15.75 12.65 15.459 12.65 15.1V15Z" fill="black" fill-opacity="0.95"/>
</svg>
