<svg width="24" height="24" viewBox="0 0 24 24" fill="none" xmlns="http://www.w3.org/2000/svg">
<path d="M5 5C3.89543 5 3 5.89543 3 7V9C3 9.74028 3.4022 10.3866 4 10.7324V15C4 17.2091 5.79086 19 8 19H16C18.2091 19 20 17.2091 20 15V10.7324C20.5978 10.3866 21 9.74028 21 9V7C21 5.89543 20.1046 5 19 5H5ZM18 11V15C18 16.1046 17.1046 17 16 17H8C6.89543 17 6 16.1046 6 15V11H18ZM5 9V7H19V9H5Z" fill="#515164"/>
<path d="M9 14C9 13.4477 9.44772 13 10 13H14C14.5523 13 15 13.4477 15 14C15 14.5523 14.5523 15 14 15H10C9.44772 15 9 14.5523 9 14Z" fill="#515164"/>
</svg>
