<svg width="24" height="24" viewBox="0 0 24 24" fill="none" xmlns="http://www.w3.org/2000/svg">
<path d="M7.95435 4.27571C8.04392 4.11874 8.15623 3.96949 8.2947 3.83103C9.15163 2.9741 10.4219 3.11865 11.3764 3.45938C12.4103 3.82844 13.5159 4.56157 14.4932 5.53883C15.4704 6.51606 16.2052 7.62324 16.5762 8.65827C16.9181 9.61213 17.0677 10.8865 16.2091 11.7452C16.0812 11.8731 15.9441 11.9786 15.8003 12.0644L10.5285 16.0187C8.73695 17.3626 6.22989 17.1845 4.64631 15.6009L4.49361 15.4482C2.92317 13.8777 2.73332 11.3964 4.04657 9.60531L7.95435 4.27571ZM9.7361 5.22804L9.67943 5.30532C9.66999 5.33606 9.66029 5.38253 9.65653 5.44866C9.64652 5.62508 9.68198 5.89115 9.80664 6.24039C10.0557 6.93807 10.6012 7.79982 11.4167 8.6153C12.2322 9.43078 13.0963 9.97868 13.7969 10.2297C14.1476 10.3555 14.415 10.3917 14.5924 10.382C14.6642 10.3781 14.7129 10.3672 14.7433 10.3571L14.8102 10.3069C14.8119 10.3034 14.8137 10.2993 14.8155 10.2947C14.8266 10.2665 14.8412 10.2139 14.8458 10.1286C14.8555 9.95128 14.8192 9.68389 14.6935 9.33317C14.4424 8.63268 13.8945 7.76854 13.079 6.95304C12.2635 6.13756 11.4017 5.59202 10.7041 5.34298C10.3548 5.21831 10.0887 5.18285 9.91233 5.19287C9.8275 5.19768 9.77501 5.21229 9.74661 5.22357C9.74273 5.2251 9.73924 5.2266 9.7361 5.22804ZM12.6557 11.923C11.7602 11.5174 10.8343 10.8613 10.0025 10.0295C9.18311 9.21014 8.53536 8.30053 8.12992 7.41862L5.65947 10.7879C4.92988 11.783 5.03535 13.1615 5.90782 14.034L6.06052 14.1867C6.94029 15.0664 8.3331 15.1654 9.3284 14.4188L12.6557 11.923Z" fill="#515164"/>
<path fill-rule="evenodd" clip-rule="evenodd" d="M17.5 15.0625C17.3665 15.2478 17.2282 15.4557 17.0981 15.6793C16.7396 16.2954 16.5 16.9346 16.5 17.5C16.5 18.0523 16.9477 18.5 17.5 18.5C18.0523 18.5 18.5 18.0523 18.5 17.5C18.5 16.9346 18.2604 16.2954 17.9019 15.6793C17.7718 15.4557 17.6335 15.2478 17.5 15.0625ZM16.5872 13.012C17.0768 12.4689 17.9232 12.4689 18.4128 13.012C18.6801 13.3085 19.1862 13.9098 19.6306 14.6735C20.0663 15.4223 20.5 16.4242 20.5 17.5C20.5 19.1568 19.1569 20.5 17.5 20.5C15.8431 20.5 14.5 19.1568 14.5 17.5C14.5 16.4242 14.9337 15.4223 15.3694 14.6735C15.8138 13.9098 16.3199 13.3085 16.5872 13.012Z" fill="#515164"/>
</svg>
