<svg width="24" height="24" viewBox="0 0 24 24" fill="none" xmlns="http://www.w3.org/2000/svg">
<path d="M9 2C9.55228 2 10 2.44772 10 3V4H14V3C14 2.44772 14.4477 2 15 2C15.5523 2 16 2.44772 16 3V4C18.2091 4 20 5.79086 20 8V16C20 18.2092 18.2091 20 16 20H8C5.79086 20 4 18.2092 4 16V8C4 5.79086 5.79086 4 8 4V3C8 2.44772 8.44772 2 9 2ZM8 6C6.89543 6 6 6.89543 6 8V9H18V8C18 6.89543 17.1046 6 16 6V7C16 7.55228 15.5523 8 15 8C14.4477 8 14 7.55228 14 7V6H10V7C10 7.55228 9.55228 8 9 8C8.44772 8 8 7.55228 8 7V6ZM18 11H6V16C6 17.1046 6.89543 18 8 18H16C17.1046 18 18 17.1046 18 16V11Z" fill="#515164"/>
</svg>
