<svg width="24" height="24" viewBox="0 0 24 24" fill="none" xmlns="http://www.w3.org/2000/svg">
<path fill-rule="evenodd" clip-rule="evenodd" d="M9.65001 3.00001C9.65001 2.64102 9.35899 2.35001 9.00001 2.35001C8.64102 2.35001 8.35001 2.64102 8.35001 3.00001V4.35001H8.00001C5.98417 4.35001 4.35001 5.98417 4.35001 8.00001V10V16C4.35001 18.0159 5.98417 19.65 8.00001 19.65H16C18.0158 19.65 19.65 18.0159 19.65 16V10V8.00001C19.65 5.98417 18.0158 4.35001 16 4.35001H15.65V3.00001C15.65 2.64102 15.359 2.35001 15 2.35001C14.641 2.35001 14.35 2.64102 14.35 3.00001V4.35001H9.65001V3.00001ZM18.35 9.35001V8.00001C18.35 6.70214 17.2979 5.65001 16 5.65001H15.65V7.00001C15.65 7.35899 15.359 7.65001 15 7.65001C14.641 7.65001 14.35 7.35899 14.35 7.00001V5.65001H9.65001V7.00001C9.65001 7.35899 9.35899 7.65001 9.00001 7.65001C8.64102 7.65001 8.35001 7.35899 8.35001 7.00001V5.65001H8.00001C6.70214 5.65001 5.65001 6.70214 5.65001 8.00001V9.35001H18.35ZM5.65001 10.65H18.35V16C18.35 17.2979 17.2979 18.35 16 18.35H8.00001C6.70214 18.35 5.65001 17.2979 5.65001 16V10.65Z" fill="black"/>
</svg>
