<svg width="24" height="24" viewBox="0 0 24 24" fill="none" xmlns="http://www.w3.org/2000/svg">
<path d="M15 3V5M15 7V5M15 5H9M15 5H16C17.6569 5 19 6.34315 19 8V10V12M9 5V3M9 5V7M9 5H8C6.34315 5 5 6.34315 5 8V10V16C5 17.6569 6.34315 19 8.00001 19L10 19" stroke="black" stroke-width="1.3" stroke-linecap="round" stroke-linejoin="round"/>
<path d="M5 10H19" stroke="black" stroke-width="1.3" stroke-linecap="round" stroke-linejoin="round"/>
<path d="M13 17.5H20M20 17.5L17 14.5M20 17.5L17 20.5" stroke="black" stroke-width="1.3" stroke-linecap="round" stroke-linejoin="round"/>
</svg>
