<svg width="24" height="24" viewBox="0 0 24 24" fill="none" xmlns="http://www.w3.org/2000/svg">
<path d="M4 5C4.55228 5 5 5.44772 5 6V10.7732L7.83565 8.25259C8.09142 8.02524 8.44569 7.94446 8.77473 8.03848L11.7464 8.88751L15.8356 5.25259C16.2094 4.92036 16.7711 4.9153 17.1508 5.24074L20.6508 8.24074C21.0701 8.60017 21.1187 9.23147 20.7593 9.65079C20.3998 10.0701 19.7685 10.1187 19.3492 9.75926L16.512 7.32733L12.6644 10.7474C12.4086 10.9748 12.0543 11.0555 11.7253 10.9615L8.75366 10.1125L5 13.4491V15C5 15.3164 5.07346 15.6156 5.20426 15.8815L8.29289 12.7929C8.61176 12.474 9.1046 12.408 9.49614 12.6318L12.3776 14.2783L15.8415 11.2474C16.1906 10.942 16.7038 10.9167 17.0812 11.1863L20.5812 13.6863C21.0307 14.0073 21.1347 14.6318 20.8137 15.0812C20.4927 15.5307 19.8682 15.6347 19.4188 15.3137L16.5628 13.2738L13.1585 16.2526C12.8376 16.5333 12.374 16.5798 12.0039 16.3682L9.16702 14.7472L6.91595 16.9983C6.94382 16.9994 6.97184 17 7 17H20C20.5523 17 21 17.4477 21 18C21 18.5523 20.5523 19 20 19H7C4.79086 19 3 17.2091 3 15V6C3 5.44772 3.44772 5 4 5Z" fill="#515164"/>
</svg>
