<svg width="24" height="24" viewBox="0 0 24 24" fill="none" xmlns="http://www.w3.org/2000/svg">
<path fill-rule="evenodd" clip-rule="evenodd" d="M4.00001 5.35001C4.35899 5.35001 4.65001 5.64102 4.65001 6.00001V11.5526L8.06817 8.51419C8.23442 8.36641 8.4647 8.31391 8.67858 8.37502L11.8351 9.27689L16.0682 5.51419C16.3111 5.29824 16.6762 5.29495 16.923 5.50649L20.423 8.50649C20.6956 8.74011 20.7271 9.15046 20.4935 9.42302C20.2599 9.69558 19.8496 9.72715 19.577 9.49352L16.5078 6.86277L12.4318 10.4858C12.2656 10.6336 12.0353 10.6861 11.8214 10.625L8.66488 9.72312L4.65001 13.2919V15C4.65001 15.5421 4.83355 16.0413 5.14188 16.4389L8.54039 13.0404C8.74765 12.8331 9.068 12.7902 9.3225 12.9356L12.4205 14.7059L16.072 11.5108C16.2989 11.3123 16.6325 11.2958 16.8778 11.4711L20.3778 13.9711C20.6699 14.1797 20.7376 14.5857 20.5289 14.8778C20.3203 15.1699 19.9143 15.2376 19.6222 15.0289L16.5408 12.828L12.928 15.9892C12.7195 16.1717 12.4181 16.2019 12.1775 16.0644L9.10857 14.3107L6.20656 17.2127C6.45442 17.3016 6.72156 17.35 7.00001 17.35H20C20.359 17.35 20.65 17.641 20.65 18C20.65 18.359 20.359 18.65 20 18.65H7.00001C4.98417 18.65 3.35001 17.0158 3.35001 15V13.0032V12.9973V6.00001C3.35001 5.64102 3.64102 5.35001 4.00001 5.35001Z" fill="black"/>
</svg>
