<svg width="24" height="24" viewBox="0 0 24 24" fill="none" xmlns="http://www.w3.org/2000/svg">
<path d="M8.70711 1.29289C9.09763 1.68342 9.09763 2.31658 8.70711 2.70711C8.54535 2.86887 8.54535 3.13113 8.70711 3.29289C9.09763 3.68342 9.09763 4.31658 8.70711 4.70711C8.31658 5.09763 7.68342 5.09763 7.29289 4.70711C6.35008 3.7643 6.35008 2.2357 7.29289 1.29289C7.68342 0.902369 8.31658 0.902369 8.70711 1.29289Z" fill="#515164"/>
<path d="M12.7071 1.29289C13.0976 1.68342 13.0976 2.31658 12.7071 2.70711C12.5453 2.86887 12.5453 3.13113 12.7071 3.29289C13.0976 3.68342 13.0976 4.31658 12.7071 4.70711C12.3166 5.09763 11.6834 5.09763 11.2929 4.70711C10.3501 3.7643 10.3501 2.2357 11.2929 1.29289C11.6834 0.902369 12.3166 0.902369 12.7071 1.29289Z" fill="#515164"/>
<path d="M7 6.5C5.89543 6.5 5 7.39543 5 8.5V17C5 19.2091 6.79086 21 9 21H13C14.8666 21 16.4346 19.7215 16.8759 17.9924C16.9166 17.9974 16.958 18 17 18H17.5C19.1569 18 20.5 16.6569 20.5 15V13C20.5 11.3431 19.1569 10 17.5 10H17V8.5C17 7.39543 16.1046 6.5 15 6.5H7ZM17 12H17.5C18.0523 12 18.5 12.4477 18.5 13V15C18.5 15.5523 18.0523 16 17.5 16H17V12ZM7 8.5H15V17C15 18.1046 14.1046 19 13 19H9C7.89543 19 7 18.1046 7 17V8.5Z" fill="#515164"/>
</svg>
