<svg width="24" height="24" viewBox="0 0 24 24" fill="none" xmlns="http://www.w3.org/2000/svg">
<path d="M18.5 10.5C18.5 11.0523 18.0523 11.5 17.5 11.5H13.5C12.9477 11.5 12.5 11.0523 12.5 10.5V6.5C12.5 5.94771 12.9477 5.5 13.5 5.5C14.0523 5.5 14.5 5.94771 14.5 6.5V8.08579L18.2929 4.29289C18.6834 3.90237 19.3166 3.90237 19.7071 4.29289C20.0976 4.68342 20.0976 5.31658 19.7071 5.70711L15.9142 9.5H17.5C18.0523 9.5 18.5 9.94772 18.5 10.5Z" fill="#515164"/>
<path d="M5.5 13.5C5.5 12.9477 5.94772 12.5 6.5 12.5L10.5 12.5C11.0523 12.5 11.5 12.9477 11.5 13.5L11.5 17.5C11.5 18.0523 11.0523 18.5 10.5 18.5C9.94772 18.5 9.5 18.0523 9.5 17.5V15.9142L5.70711 19.7071C5.31658 20.0976 4.68342 20.0976 4.29289 19.7071C3.90237 19.3166 3.90237 18.6834 4.29289 18.2929L8.08579 14.5L6.5 14.5C5.94772 14.5 5.5 14.0523 5.5 13.5Z" fill="#515164"/>
</svg>
