<svg width="24" height="24" viewBox="0 0 24 24" fill="none" xmlns="http://www.w3.org/2000/svg">
<path d="M7.29289 8.29289C7.68342 7.90237 8.31658 7.90237 8.70711 8.29289L11.7071 11.2929C12.0976 11.6834 12.0976 12.3166 11.7071 12.7071L8.70711 15.7071C8.31658 16.0976 7.68342 16.0976 7.29289 15.7071C6.90237 15.3166 6.90237 14.6834 7.29289 14.2929L9.58579 12L7.29289 9.70711C6.90237 9.31658 6.90237 8.68342 7.29289 8.29289Z" fill="#515164"/>
<path d="M3 9V15C3 17.2091 4.79086 19 7 19H17C19.2091 19 21 17.2091 21 15V9C21 6.79086 19.2091 5 17 5H7C4.79086 5 3 6.79086 3 9ZM7 7H17C18.1046 7 19 7.89543 19 9V15C19 16.1046 18.1046 17 17 17H7C5.89543 17 5 16.1046 5 15V9C5 7.89543 5.89543 7 7 7Z" fill="#515164"/>
<path d="M12 15C12 14.4477 12.4477 14 13 14H16C16.5523 14 17 14.4477 17 15C17 15.5523 16.5523 16 16 16H13C12.4477 16 12 15.5523 12 15Z" fill="#515164"/>
</svg>
