<svg width="24" height="24" viewBox="0 0 24 24" fill="none" xmlns="http://www.w3.org/2000/svg">
<path d="M9 12C9 13.1045 8.10457 13.9999 7 13.9999C5.89543 13.9999 5 13.1045 5 12C5 10.8954 5.89543 9.99998 7 9.99998C8.10457 9.99998 9 10.8954 9 12Z" fill="#515164"/>
<path d="M14.2197 4.37451C14.5652 3.94359 15.1945 3.87429 15.6255 4.21972C17.902 6.04463 19.3625 8.85208 19.3625 12C19.3625 15.1479 17.902 17.9553 15.6255 19.7802C15.1945 20.1257 14.5652 20.0564 14.2197 19.6254C13.8743 19.1945 13.9436 18.5652 14.3745 18.2197C16.1979 16.7581 17.3625 14.5154 17.3625 12C17.3625 9.48458 16.1979 7.24187 14.3745 5.78023C13.9436 5.43479 13.8743 4.80543 14.2197 4.37451Z" fill="#515164"/>
<path d="M10.2198 6.8912C10.5652 6.46028 11.1945 6.39098 11.6255 6.73642C13.165 7.97052 14.1536 9.87014 14.1536 12C14.1536 14.1298 13.165 16.0295 11.6255 17.2636C11.1945 17.609 10.5652 17.5397 10.2198 17.1088C9.87431 16.6779 9.94361 16.0485 10.3745 15.7031C11.4609 14.8322 12.1536 13.4973 12.1536 12C12.1536 10.5026 11.4609 9.16776 10.3745 8.29692C9.94361 7.95148 9.87431 7.32212 10.2198 6.8912Z" fill="#515164"/>
</svg>
