<svg width="24" height="24" viewBox="0 0 24 24" fill="none" xmlns="http://www.w3.org/2000/svg">
<path fill-rule="evenodd" clip-rule="evenodd" d="M17.4094 7.50989C17.6632 7.25605 17.6632 6.84449 17.4094 6.59065C17.1555 6.33681 16.744 6.33681 16.4901 6.59065L12 11.0808L7.50987 6.59065C7.25603 6.33681 6.84447 6.33681 6.59063 6.59065C6.33679 6.84449 6.33679 7.25605 6.59063 7.50989L11.0808 12L6.59063 16.4901C6.33679 16.744 6.33679 17.1555 6.59063 17.4094C6.84447 17.6632 7.25603 17.6632 7.50987 17.4094L12 12.9193L16.4901 17.4094C16.744 17.6632 17.1555 17.6632 17.4094 17.4094C17.6632 17.1555 17.6632 16.744 17.4094 16.4901L12.9192 12L17.4094 7.50989Z" fill="black"/>
</svg>
