<svg width="24" height="24" viewBox="0 0 24 24" fill="none" xmlns="http://www.w3.org/2000/svg">
<path fill-rule="evenodd" clip-rule="evenodd" d="M6 4.35001C5.08873 4.35001 4.35 5.08874 4.35 6.00001V8.00001C4.35 8.91128 5.08873 9.65001 6 9.65001H9C9.91127 9.65001 10.65 8.91128 10.65 8.00001V6.00001C10.65 5.08874 9.91127 4.35001 9 4.35001H6ZM5.65 6.00001C5.65 5.80671 5.8067 5.65001 6 5.65001H9C9.1933 5.65001 9.35 5.80671 9.35 6.00001V8.00001C9.35 8.19331 9.1933 8.35001 9 8.35001H6C5.8067 8.35001 5.65 8.19331 5.65 8.00001V6.00001ZM6 12.35C5.08873 12.35 4.35 13.0887 4.35 14V18C4.35 18.9113 5.08873 19.65 6 19.65H9C9.91127 19.65 10.65 18.9113 10.65 18V14C10.65 13.0887 9.91127 12.35 9 12.35H6ZM5.65 14C5.65 13.8067 5.8067 13.65 6 13.65H9C9.1933 13.65 9.35 13.8067 9.35 14V18C9.35 18.1933 9.1933 18.35 9 18.35H6C5.8067 18.35 5.65 18.1933 5.65 18V14ZM13.35 16C13.35 15.0887 14.0887 14.35 15 14.35H18C18.9113 14.35 19.65 15.0887 19.65 16V18C19.65 18.9113 18.9113 19.65 18 19.65H15C14.0887 19.65 13.35 18.9113 13.35 18V16ZM15 15.65C14.8067 15.65 14.65 15.8067 14.65 16V18C14.65 18.1933 14.8067 18.35 15 18.35H18C18.1933 18.35 18.35 18.1933 18.35 18V16C18.35 15.8067 18.1933 15.65 18 15.65H15ZM15 4.35001C14.0887 4.35001 13.35 5.08874 13.35 6.00001V10C13.35 10.9113 14.0887 11.65 15 11.65H18C18.9113 11.65 19.65 10.9113 19.65 10V6.00001C19.65 5.08874 18.9113 4.35001 18 4.35001H15ZM14.65 6.00001C14.65 5.80671 14.8067 5.65001 15 5.65001H18C18.1933 5.65001 18.35 5.80671 18.35 6.00001V10C18.35 10.1933 18.1933 10.35 18 10.35H15C14.8067 10.35 14.65 10.1933 14.65 10V6.00001Z" fill="black"/>
</svg>
