<svg width="24" height="24" viewBox="0 0 24 24" fill="none" xmlns="http://www.w3.org/2000/svg">
<path fill-rule="evenodd" clip-rule="evenodd" d="M7.85001 5.00001C7.85001 4.08874 8.58874 3.35001 9.50001 3.35001H14.5C15.4113 3.35001 16.15 4.08874 16.15 5.00001V7.35001H17H18.5C18.859 7.35001 19.15 7.64102 19.15 8.00001C19.15 8.35899 18.859 8.65001 18.5 8.65001H17.65V17C17.65 19.0158 16.0158 20.65 14 20.65H10C7.98417 20.65 6.35001 19.0158 6.35001 17V8.65001H5.50001C5.14102 8.65001 4.85001 8.35899 4.85001 8.00001C4.85001 7.64102 5.14102 7.35001 5.50001 7.35001H7.00001H7.85001V5.00001ZM9.15001 7.35001H14.85V5.00001C14.85 4.80671 14.6933 4.65001 14.5 4.65001H9.50001C9.30671 4.65001 9.15001 4.80671 9.15001 5.00001V7.35001ZM7.65001 8.65001V17C7.65001 18.2979 8.70214 19.35 10 19.35H14C15.2979 19.35 16.35 18.2979 16.35 17V8.65001H15.5H8.50001H7.65001Z" fill="black"/>
</svg>
