<svg width="24" height="24" viewBox="0 0 24 24" fill="none" xmlns="http://www.w3.org/2000/svg">
<path d="M2 7C2 4.79086 3.79086 3 6 3H18C20.2091 3 22 4.79086 22 7V13C22 15.2091 20.2091 17 18 17H16V19H17C17.5523 19 18 19.4477 18 20C18 20.5523 17.5523 21 17 21H7C6.44772 21 6 20.5523 6 20C6 19.4477 6.44772 19 7 19H8V17H6C3.79086 17 2 15.2091 2 13V7ZM10 17V19H14V17H10ZM6 15H18C19.1046 15 20 14.1046 20 13V7C20 5.89543 19.1046 5 18 5H6C4.89543 5 4 5.89543 4 7V13C4 14.1046 4.89543 15 6 15Z" fill="#515164"/>
</svg>
