<svg width="24" height="24" viewBox="0 0 24 24" fill="none" xmlns="http://www.w3.org/2000/svg">
<path fill-rule="evenodd" clip-rule="evenodd" d="M3 9C3 6.79086 4.79086 5 7 5H17C19.2091 5 21 6.79086 21 9V15C21 17.2091 19.2091 19 17 19H7C4.79086 19 3 17.2091 3 15V9ZM7 7C5.89543 7 5 7.89543 5 9V15C5 16.1046 5.89543 17 7 17H17C18.1046 17 19 16.1046 19 15V9C19 7.89543 18.1046 7 17 7H7Z" fill="#515164"/>
<path fill-rule="evenodd" clip-rule="evenodd" d="M9 10.5C9 9.11929 10.1193 8 11.5 8H14C14.5523 8 15 8.44772 15 9C15 9.55228 14.5523 10 14 10H11.5C11.2239 10 11 10.2239 11 10.5C11 10.7761 11.2239 11 11.5 11H12.5C13.8807 11 15 12.1193 15 13.5C15 14.8807 13.8807 16 12.5 16H10C9.44772 16 9 15.5523 9 15C9 14.4477 9.44772 14 10 14H12.5C12.7761 14 13 13.7761 13 13.5C13 13.2239 12.7761 13 12.5 13H11.5C10.1193 13 9 11.8807 9 10.5Z" fill="#515164"/>
<path d="M16 12C16 11.4477 16.4477 11 17 11C17.5523 11 18 11.4477 18 12C18 12.5523 17.5523 13 17 13C16.4477 13 16 12.5523 16 12Z" fill="#515164"/>
<path d="M6 12C6 11.4477 6.44772 11 7 11C7.55228 11 8 11.4477 8 12C8 12.5523 7.55228 13 7 13C6.44772 13 6 12.5523 6 12Z" fill="#515164"/>
</svg>
