<svg fill="none" height="20" viewBox="0 0 20 20" width="20" xmlns="http://www.w3.org/2000/svg">
<path 
    clipRule="evenodd" d="m9.04521 2.74491c.31279-.0408.6315-.0618.95479-.0618.3233 0 .642.021.9548.0618l-.1681 1.28908c-.2572-.03354-.5198-.05088-.7867-.05088-.26691 0-.52946.01734-.78664.05088zm3.75569.49364c.5952.24681 1.1505.56975 1.6537.95649l-.7921 1.0308c-.4142-.31831-.8708-.58375-1.3596-.78644zm-7.25551.9565c.50327-.38675 1.05854-.70968 1.65372-.9565l.49797 1.20085c-.48879.20269-.94534.46813-1.35956.78644zm10.25931 1.3501c.3868.50327.7097 1.05854.9565 1.65372l-1.2008.49797c-.2027-.48879-.4681-.94534-.7865-1.35957zm-12.5659 1.65372c.24681-.59518.56975-1.15045.95649-1.65372l1.03079.79213c-.31831.41422-.58375.87077-.78644 1.35956zm14.0161 1.8461c.0408.31278.0618.6315.0618.9548 0 .32333-.021.64203-.0618.95483l-1.2891-.1682c.0335-.2571.0509-.5197.0509-.78663s-.0174-.52948-.0509-.78665zm-14.57155.9548c0-.3233.02101-.64202.06181-.9548l1.28908.16815c-.03355.25717-.05089.51972-.05089.78665s.01734.52953.05089.78663l-1.28908.1682c-.0408-.3128-.06181-.6315-.06181-.95483zm14.07785 2.80093c-.2468.5952-.5697 1.1504-.9565 1.6537l-1.0308-.7921c.3184-.4143.5838-.8708.7865-1.3596zm-12.56591 1.6537c-.38674-.5033-.70968-1.0585-.95649-1.6537l1.20084-.498c.20269.4888.46813.9453.78644 1.3596zm10.25931 1.3501c-.5032.3867-1.0585.7097-1.6537.9565l-.498-1.2009c.4888-.2026.9454-.4681 1.3596-.7864zm-7.25549.9565c-.59518-.2468-1.15045-.5698-1.65372-.9565l.79213-1.0308c.41422.3183.87078.5838 1.35956.7864zm3.75569.4936c-.3128.0408-.6315.0618-.9548.0618-.32328 0-.642-.021-.95479-.0618l.16815-1.289c.25718.0335.51973.0508.78664.0508.2669 0 .5295-.0173.7867-.0509z" 
    fill="#647084" 
    fillRule="evenodd"
/>
</svg>