<svg width="24" height="24" viewBox="0 0 24 24" fill="none" xmlns="http://www.w3.org/2000/svg">
<path fill-rule="evenodd" clip-rule="evenodd" d="M10.8711 3.42305C11.2408 3.37482 11.6177 3.34998 12 3.34998C12.3823 3.34998 12.7592 3.37482 13.129 3.42305L12.9608 4.71213C12.6466 4.67115 12.326 4.64998 12 4.64998C11.6741 4.64998 11.3534 4.67115 11.0392 4.71213L10.8711 3.42305ZM15.3113 4.0066C16.0149 4.29836 16.6713 4.68014 17.2663 5.13738L16.4742 6.16818C15.9682 5.77936 15.4105 5.45508 14.8133 5.20744L15.3113 4.0066ZM6.73367 5.13738C7.32869 4.68014 7.98514 4.29836 8.68872 4.0066L9.18669 5.20744C8.5895 5.45508 8.03177 5.77936 7.5258 6.16818L6.73367 5.13738ZM18.8626 6.73364C19.3198 7.32866 19.7016 7.98511 19.9934 8.68869L18.7925 9.18666C18.5449 8.58947 18.2206 8.03174 17.8318 7.52577L18.8626 6.73364ZM4.00663 8.68869C4.29839 7.98511 4.68017 7.32866 5.13741 6.73364L6.16821 7.52577C5.77939 8.03174 5.45511 8.58948 5.20747 9.18666L4.00663 8.68869ZM20.5769 10.871C20.6252 11.2408 20.65 11.6177 20.65 12C20.65 12.3823 20.6252 12.7591 20.5769 13.1289L19.2878 12.9608C19.3288 12.6466 19.35 12.3259 19.35 12C19.35 11.674 19.3288 11.3533 19.2878 11.0392L20.5769 10.871ZM3.35001 12C3.35001 11.6177 3.37485 11.2408 3.42308 10.871L4.71216 11.0392C4.67118 11.3533 4.65001 11.674 4.65001 12C4.65001 12.3259 4.67118 12.6466 4.71216 12.9608L3.42308 13.1289C3.37485 12.7591 3.35001 12.3823 3.35001 12ZM19.9934 15.3113C19.7016 16.0148 19.3198 16.6713 18.8626 17.2663L17.8318 16.4742C18.2206 15.9682 18.5449 15.4105 18.7925 14.8133L19.9934 15.3113ZM5.13741 17.2663C4.68017 16.6713 4.29839 16.0148 4.00663 15.3113L5.20747 14.8133C5.45511 15.4105 5.77939 15.9682 6.16821 16.4742L5.13741 17.2663ZM17.2663 18.8626C16.6713 19.3198 16.0149 19.7016 15.3113 19.9934L14.8133 18.7925C15.4105 18.5449 15.9682 18.2206 16.4742 17.8318L17.2663 18.8626ZM8.68872 19.9934C7.98514 19.7016 7.32869 19.3198 6.73367 18.8626L7.5258 17.8318C8.03177 18.2206 8.58951 18.5449 9.18669 18.7925L8.68872 19.9934ZM12 20.65C11.6177 20.65 11.2408 20.6251 10.8711 20.5769L11.0392 19.2878C11.3534 19.3288 11.6741 19.35 12 19.35C12.326 19.35 12.6466 19.3288 12.9608 19.2878L13.129 20.5769C12.7592 20.6251 12.3823 20.65 12 20.65Z" fill="black"/>
</svg>
