<svg width="24" height="24" viewBox="0 0 24 24" fill="none" xmlns="http://www.w3.org/2000/svg">
<path d="M5 6C5 3.79086 6.79086 2 9 2H11.7574C12.8182 2 13.8356 2.42143 14.5858 3.17157L16.8284 5.41421C17.5786 6.16436 18 7.18177 18 8.24264V14C18 16.2091 16.2091 18 14 18H9C6.79086 18 5 16.2091 5 14V6ZM9 4C7.89543 4 7 4.89543 7 6V14C7 15.1046 7.89543 16 9 16H14C15.1046 16 16 15.1046 16 14V8.24264C16 7.71221 15.7893 7.2035 15.4142 6.82843L13.1716 4.58579C12.7965 4.21071 12.2878 4 11.7574 4H9Z" fill="#515164"/>
<path d="M20 8C20.5523 8 21 8.44772 21 9V10.4444C21 12.0869 21 13.3809 20.9149 14.4222C20.8281 15.4846 20.6478 16.3717 20.237 17.1779C19.5659 18.4951 18.4951 19.5659 17.1779 20.237C16.3717 20.6478 15.4846 20.8281 14.4222 20.9149C13.3809 21 12.0869 21 10.4444 21H9C8.44772 21 8 20.5523 8 20C8 19.4477 8.44772 19 9 19H10.4C12.0967 19 13.309 18.9992 14.2594 18.9216C15.198 18.8449 15.7927 18.6982 16.27 18.455C17.2108 17.9757 17.9757 17.2108 18.455 16.27C18.6982 15.7927 18.8449 15.198 18.9216 14.2594C18.9992 13.309 19 12.0967 19 10.4V9C19 8.44772 19.4477 8 20 8Z" fill="#515164"/>
</svg>
