<svg width="24" height="24" viewBox="0 0 24 24" fill="none" xmlns="http://www.w3.org/2000/svg">
<path d="M4 8C4 5.79086 5.79086 4 8 4H10C10.5523 4 11 4.44772 11 5C11 5.55228 10.5523 6 10 6H8C6.89543 6 6 6.89543 6 8V16C6 17.1046 6.89543 18 8 18H16C17.1046 18 18 17.1046 18 16V13.5C18 12.9477 18.4477 12.5 19 12.5C19.5523 12.5 20 12.9477 20 13.5V16C20 18.2091 18.2091 20 16 20H8C5.79086 20 4 18.2091 4 16V8Z" fill="#515164"/>
<path d="M14.5 4C14.5 3.44772 14.9477 3 15.5 3H20C20.5523 3 21 3.44772 21 4V8.5C21 9.05228 20.5523 9.5 20 9.5C19.4477 9.5 19 9.05228 19 8.5V6.41421L13.2071 12.2071C12.8166 12.5976 12.1834 12.5976 11.7929 12.2071C11.4024 11.8166 11.4024 11.1834 11.7929 10.7929L17.5858 5H15.5C14.9477 5 14.5 4.55228 14.5 4Z" fill="#515164"/>
</svg>
