<svg width="24" height="24" viewBox="0 0 24 24" fill="none" xmlns="http://www.w3.org/2000/svg">
<path fill-rule="evenodd" clip-rule="evenodd" d="M12 17.35C8.43194 17.35 5.68703 14.727 4.68854 12C5.68703 9.27299 8.43194 6.65001 12 6.65001C15.5681 6.65001 18.313 9.27299 19.3115 12C18.313 14.727 15.5681 17.35 12 17.35ZM12 5.35001C7.65765 5.35001 4.45029 8.59366 3.38336 11.7945C3.33889 11.9279 3.33889 12.0721 3.38336 12.2056C4.45029 15.4063 7.65765 18.65 12 18.65C16.3424 18.65 19.5497 15.4063 20.6166 12.2056C20.6611 12.0721 20.6611 11.9279 20.6166 11.7945C19.5497 8.59366 16.3424 5.35001 12 5.35001ZM13.7 12C13.7 12.9389 12.9389 13.7 12 13.7C11.0611 13.7 10.3 12.9389 10.3 12C10.3 11.0611 11.0611 10.3 12 10.3C12.9389 10.3 13.7 11.0611 13.7 12ZM15 12C15 13.6569 13.6569 15 12 15C10.3432 15 9.00001 13.6569 9.00001 12C9.00001 10.3432 10.3432 9.00001 12 9.00001C13.6569 9.00001 15 10.3432 15 12Z" fill="black"/>
</svg>
