<svg width="24" height="24" viewBox="0 0 24 24" fill="none" xmlns="http://www.w3.org/2000/svg">
<path fill-rule="evenodd" clip-rule="evenodd" d="M4.12479 7.07984C4.44792 6.92345 4.83665 7.05863 4.99304 7.38176C6.18552 9.8457 8.75232 12.0149 11.9999 12.0149C15.2475 12.0149 17.8143 9.8457 19.0068 7.38176C19.1632 7.05863 19.5519 6.92345 19.8751 7.07984C20.1982 7.23623 20.3334 7.62495 20.177 7.94808C19.7416 8.8476 19.1405 9.723 18.3971 10.497L20.4592 12.556C20.7133 12.8096 20.7136 13.2212 20.4599 13.4752C20.2063 13.7292 19.7947 13.7296 19.5407 13.4759L17.4356 11.3741C16.6334 12.0132 15.7138 12.5354 14.6964 12.8765L15.7846 16.1288C15.8985 16.4693 15.7149 16.8376 15.3744 16.9515C15.034 17.0654 14.6657 16.8817 14.5518 16.5413L13.4412 13.2222C13.4381 13.2129 13.4352 13.2036 13.4326 13.1943C12.9706 13.2731 12.4926 13.3149 11.9999 13.3149C11.5296 13.3149 11.0726 13.2768 10.6303 13.2048L10.6247 13.2222L9.51414 16.5413C9.40023 16.8817 9.03192 17.0654 8.69148 16.9515C8.35105 16.8376 8.16741 16.4693 8.28132 16.1288L9.36294 12.8962C8.3219 12.5557 7.38214 12.0257 6.56429 11.3741L4.45929 13.4759C4.20525 13.7296 3.79369 13.7292 3.54005 13.4752C3.2864 13.2212 3.28672 12.8096 3.54076 12.556L5.60286 10.497C4.85939 9.72306 4.25823 8.84763 3.82288 7.94808C3.66649 7.62495 3.80166 7.23623 4.12479 7.07984Z" fill="black"/>
</svg>
