<svg width="24" height="24" viewBox="0 0 24 24" fill="none" xmlns="http://www.w3.org/2000/svg">
  <path d="M12 4C16.4183 4 20 7.58172 20 12C20 16.4183 16.4183 20 12 20C7.58172 20 4 16.4183 4 12C4 7.58172 7.58172 4 12 4ZM9 14.25C8.58579 14.25 8.25 14.5858 8.25 15C8.25 15.4142 8.58579 15.75 9 15.75H15C15.4142 15.75 15.75 15.4142 15.75 15C15.75 14.5858 15.4142 14.25 15 14.25H9ZM10 9C9.44772 9 9 9.44772 9 10V11C9 11.5523 9.44772 12 10 12C10.5523 12 11 11.5523 11 11V10C11 9.44772 10.5523 9 10 9ZM14 9C13.4477 9 13 9.44772 13 10V11C13 11.5523 13.4477 12 14 12C14.5523 12 15 11.5523 15 11V10C15 9.44772 14.5523 9 14 9Z" fill="currentColor"/>
</svg>
