<svg width="24" height="24" viewBox="0 0 24 24" fill="none" xmlns="http://www.w3.org/2000/svg">
<path fill-rule="evenodd" clip-rule="evenodd" d="M12 3C16.9706 3 21 7.02944 21 12C21 16.9706 16.9706 21 12 21C7.02944 21 3 16.9706 3 12C3 7.02944 7.02944 3 12 3ZM12 12.5C10.4746 12.5 9.27255 13.1111 8.47461 13.6914C8.07397 13.9828 7.76382 14.2739 7.55176 14.4951C7.44532 14.6062 7.36235 14.7016 7.30371 14.7715C7.27447 14.8063 7.25062 14.8347 7.2334 14.8564C7.22482 14.8673 7.21747 14.8766 7.21191 14.8838C7.20915 14.8874 7.20708 14.8909 7.20508 14.8936L7.20215 14.8975L7.2002 14.9004C6.86897 15.3422 6.95863 15.9685 7.40039 16.2998C7.84221 16.631 8.46847 16.5424 8.7998 16.1006L8.79883 16.1025L8.80176 16.0986C8.80771 16.0911 8.81843 16.0763 8.83496 16.0566C8.86806 16.0172 8.92209 15.9561 8.99512 15.8799C9.1424 15.7262 9.36385 15.517 9.65039 15.3086C10.2274 14.8889 11.0255 14.5 12 14.5C12.9745 14.5 13.7726 14.8889 14.3496 15.3086C14.6361 15.517 14.8576 15.7262 15.0049 15.8799C15.0779 15.9561 15.1319 16.0172 15.165 16.0566C15.1816 16.0763 15.1923 16.0911 15.1982 16.0986L15.2002 16.1006L15.2012 16.0996C15.5326 16.5411 16.1579 16.631 16.5996 16.2998C17.0414 15.9685 17.131 15.3412 16.7998 14.8994L16.7979 14.8975L16.7949 14.8936C16.7929 14.8909 16.7908 14.8874 16.7881 14.8838C16.7825 14.8766 16.7752 14.8673 16.7666 14.8564C16.7494 14.8347 16.7255 14.8063 16.6963 14.7715C16.6376 14.7016 16.5547 14.6062 16.4482 14.4951C16.2362 14.2739 15.926 13.9828 15.5254 13.6914C14.7275 13.1111 13.5254 12.5 12 12.5ZM8 9C7.44772 9 7 9.44772 7 10C7 10.5523 7.44772 11 8 11H10C10.5523 11 11 10.5523 11 10C11 9.44772 10.5523 9 10 9H8ZM14 9C13.4477 9 13 9.44772 13 10C13 10.5523 13.4477 11 14 11H16C16.5523 11 17 10.5523 17 10C17 9.44772 16.5523 9 16 9H14Z" fill="black"/>
</svg>
