<svg width="24" height="24" viewBox="0 0 24 24" fill="none" xmlns="http://www.w3.org/2000/svg">
<path d="M7.09332 3L8.72765 3C9.79767 3 10.7845 3.57714 11.3091 4.50974C11.4794 4.81259 11.7999 5 12.1473 5L13.6155 5C14.2479 4.99999 14.77 4.99999 15.1979 5.02758C15.6413 5.05617 16.0522 5.11734 16.4499 5.27203C17.495 5.6785 18.3215 6.50499 18.728 7.55009C18.8827 7.94784 18.9438 8.35868 18.9724 8.80215C19 9.23004 19 9.75208 19 10.3845V11.2413C19 12.0463 19 12.7106 18.9558 13.2518C18.9099 13.8139 18.8113 14.3306 18.564 14.816C18.1805 15.5686 17.5686 16.1805 16.816 16.564C16.3306 16.8113 15.8139 16.9099 15.2518 16.9558C14.7106 17 14.0463 17 13.2413 17H8.75873C7.95374 17 7.28938 17 6.74818 16.9558C6.18608 16.9099 5.66937 16.8113 5.18404 16.564C4.43139 16.1805 3.81947 15.5686 3.43598 14.816C3.18868 14.3306 3.09012 13.8139 3.0442 13.2518C2.99998 12.7106 2.99999 12.0463 3 11.2413L3 7.09332C2.99998 6.59739 2.99997 6.16954 3.02714 5.81649C3.0558 5.4442 3.11897 5.07313 3.29033 4.7125C3.58662 4.08892 4.08892 3.58662 4.7125 3.29033C5.07313 3.11897 5.4442 3.0558 5.81649 3.02714C6.16954 2.99997 6.5974 2.99998 7.09332 3ZM5.96997 5.02125C5.71357 5.04098 5.61755 5.07458 5.57083 5.09678C5.36298 5.19554 5.19554 5.36298 5.09678 5.57083C5.07458 5.61755 5.04098 5.71357 5.02125 5.96997C5.00069 6.23703 5 6.5872 5 7.12954V11.2C5 12.0566 5.00078 12.6389 5.03755 13.089C5.07337 13.5274 5.1383 13.7516 5.21799 13.908C5.40974 14.2843 5.7157 14.5903 6.09202 14.782C6.24842 14.8617 6.47262 14.9266 6.91104 14.9625C7.36113 14.9992 7.94342 15 8.8 15H13.2C14.0566 15 14.6389 14.9992 15.089 14.9625C15.5274 14.9266 15.7516 14.8617 15.908 14.782C16.2843 14.5903 16.5903 14.2843 16.782 13.908C16.8617 13.7516 16.9266 13.5274 16.9625 13.089C16.9992 12.6389 17 12.0566 17 11.2V10.4168C17 9.74403 16.9995 9.28672 16.9766 8.93084C16.9542 8.58327 16.9133 8.40187 16.864 8.27505C16.6608 7.7525 16.2475 7.33925 15.725 7.13602C15.5981 7.08669 15.4167 7.04584 15.0692 7.02343C14.7133 7.00049 14.256 7 13.5832 7H12.1473C11.0773 7 10.0905 6.42286 9.56593 5.49026C9.39558 5.18742 9.07512 5 8.72765 5H7.12954C6.5872 5 6.23703 5.00069 5.96997 5.02125Z" fill="#515164"/>
<path d="M21 8C21.5523 8 22 8.44772 22 9V9.44439C22 11.0869 22 12.3809 21.9149 13.4222C21.8281 14.4846 21.6478 15.3717 21.237 16.1779C20.5659 17.4951 19.4951 18.5659 18.1779 19.237C17.3717 19.6478 16.4846 19.8281 15.4222 19.9149C14.3809 20 13.0869 20 11.4444 20H7C6.44772 20 6 19.5523 6 19C6 18.4477 6.44772 18 7 18H11.4C13.0967 18 14.309 17.9992 15.2594 17.9216C16.198 17.8449 16.7927 17.6982 17.27 17.455C18.2108 16.9757 18.9757 16.2108 19.455 15.27C19.6982 14.7927 19.8449 14.198 19.9216 13.2594C19.9992 12.309 20 11.0967 20 9.4V9C20 8.44772 20.4477 8 21 8Z" fill="#515164"/>
</svg>
