<svg width="24" height="24" viewBox="0 0 24 24" fill="none" xmlns="http://www.w3.org/2000/svg">
<path fill-rule="evenodd" clip-rule="evenodd" d="M7.17304 4.35001L7.19998 4.35001H9.72763C10.6712 4.35001 11.5414 4.85894 12.004 5.68134C12.2363 6.09439 12.6734 6.35001 13.1473 6.35001H15.2L15.2282 6.35001C16.0444 6.35 16.6965 6.35 17.2233 6.39304C17.7638 6.43719 18.2293 6.52987 18.657 6.74783C19.3438 7.09777 19.9022 7.65615 20.2521 8.34294C20.4701 8.77071 20.5628 9.23623 20.6069 9.77668C20.65 10.3035 20.65 10.9556 20.65 11.7718V11.8V14.2V14.2282C20.65 15.0444 20.65 15.6965 20.6069 16.2233C20.5628 16.7638 20.4701 17.2293 20.2521 17.6571C19.9022 18.3439 19.3438 18.9022 18.657 19.2522C18.2293 19.4701 17.7638 19.5628 17.2233 19.607C16.6965 19.65 16.0443 19.65 15.2282 19.65H15.2H8.79998H8.77175C7.9556 19.65 7.30346 19.65 6.77665 19.607C6.2362 19.5628 5.77068 19.4701 5.34291 19.2522C4.65612 18.9022 4.09774 18.3439 3.7478 17.6571C3.52984 17.2293 3.43716 16.7638 3.39301 16.2233C3.34997 15.6965 3.34997 15.0444 3.34998 14.2282L3.34998 14.2V8.20001L3.34998 8.17307C3.34997 7.63591 3.34996 7.19359 3.37938 6.83348C3.40992 6.45978 3.47534 6.11775 3.63881 5.79693C3.89287 5.2983 4.29827 4.8929 4.7969 4.63884C5.11772 4.47538 5.45975 4.40995 5.83345 4.37941C6.19356 4.34999 6.63588 4.35 7.17304 4.35001ZM5.93931 5.6751C5.646 5.69906 5.4941 5.74262 5.38709 5.79715C5.13307 5.92658 4.92655 6.1331 4.79712 6.38712C4.74259 6.49413 4.69903 6.64603 4.67507 6.93934C4.65048 7.24024 4.64998 7.62923 4.64998 8.20001V14.2C4.64998 15.0508 4.65048 15.6498 4.68869 16.1175C4.72628 16.5775 4.79709 16.8529 4.90611 17.0669C5.13141 17.5091 5.49092 17.8686 5.9331 18.0939C6.14706 18.2029 6.42245 18.2737 6.88251 18.3113C7.35016 18.3495 7.94917 18.35 8.79998 18.35H15.2C16.0508 18.35 16.6498 18.3495 17.1174 18.3113C17.5775 18.2737 17.8529 18.2029 18.0669 18.0939C18.509 17.8686 18.8685 17.5091 19.0938 17.0669C19.2029 16.8529 19.2737 16.5775 19.3113 16.1175C19.3495 15.6498 19.35 15.0508 19.35 14.2V11.8C19.35 10.9492 19.3495 10.3502 19.3113 9.88254C19.2737 9.42248 19.2029 9.14709 19.0938 8.93313C18.8685 8.49095 18.509 8.13144 18.0669 7.90614C17.8529 7.79712 17.5775 7.72631 17.1174 7.68872C16.6498 7.65051 16.0508 7.65001 15.2 7.65001H13.1473C12.2038 7.65001 11.3335 7.14107 10.871 6.31868C10.6386 5.90562 10.2015 5.65001 9.72763 5.65001H7.19998C6.6292 5.65001 6.24021 5.65051 5.93931 5.6751Z" fill="black"/>
</svg>
