<svg width="24" height="24" viewBox="0 0 24 24" fill="none" xmlns="http://www.w3.org/2000/svg">
<path d="M4 6C4.55228 6 5 6.44772 5 7V11H10V7C10 6.44772 10.4477 6 11 6C11.5523 6 12 6.44772 12 7V17C12 17.5523 11.5523 18 11 18C10.4477 18 10 17.5523 10 17V13H5V17C5 17.5523 4.55228 18 4 18C3.44772 18 3 17.5523 3 17V7C3 6.44772 3.44772 6 4 6Z" fill="#515164"/>
<path d="M20 7C20 6.44772 19.5523 6 19 6C18.4477 6 18 6.44772 18 7C18 7.17477 17.9025 7.43324 17.6679 7.66789C17.4332 7.90255 17.1748 8 17 8C16.4477 8 16 8.44772 16 9C16 9.55228 16.4477 10 17 10C17.3523 10 17.6893 9.92664 18 9.80247V17C18 17.5523 18.4477 18 19 18C19.5523 18 20 17.5523 20 17V7Z" fill="#515164"/>
</svg>
