<svg width="24" height="24" viewBox="0 0 24 24" fill="none" xmlns="http://www.w3.org/2000/svg">
<path d="M4 6C4.55228 6 5 6.44772 5 7V11H10V7C10 6.44772 10.4477 6 11 6C11.5523 6 12 6.44772 12 7V17C12 17.5523 11.5523 18 11 18C10.4477 18 10 17.5523 10 17V13H5V17C5 17.5523 4.55228 18 4 18C3.44772 18 3 17.5523 3 17V7C3 6.44772 3.44772 6 4 6Z" fill="#515164"/>
<path d="M17.5 8C16.6716 8 16 8.67157 16 9.5C16 10.0523 15.5523 10.5 15 10.5C14.4477 10.5 14 10.0523 14 9.5C14 7.567 15.567 6 17.5 6C19.433 6 21 7.567 21 9.5C21 11.433 19.433 13 17.5 13C16.6716 13 16 13.6716 16 14.5V16H20C20.5523 16 21 16.4477 21 17C21 17.5523 20.5523 18 20 18H15C14.4477 18 14 17.5523 14 17V14.5C14 12.567 15.567 11 17.5 11C18.3284 11 19 10.3284 19 9.5C19 8.67157 18.3284 8 17.5 8Z" fill="#515164"/>
</svg>
