<svg width="24" height="24" viewBox="0 0 24 24" fill="none" xmlns="http://www.w3.org/2000/svg">
<path fill-rule="evenodd" clip-rule="evenodd" d="M8.93751 6.65001C7.53379 6.65001 5.65001 8.08585 5.65001 10.2857C5.65001 11.1839 6.01946 12.1406 6.64005 13.1031C7.25734 14.0606 8.09175 14.9752 8.94489 15.7761C9.79556 16.5747 10.649 17.2455 11.2911 17.7173C11.5767 17.9271 11.8194 18.0967 12 18.2199C12.1806 18.0967 12.4233 17.9271 12.7089 17.7173C13.351 17.2455 14.2044 16.5747 15.0551 15.7761C15.9083 14.9752 16.7427 14.0606 17.36 13.1031C17.9806 12.1406 18.35 11.1839 18.35 10.2857C18.35 9.38551 17.9792 8.46448 17.3647 7.76999C16.7523 7.07775 15.9355 6.65001 15.0625 6.65001C14.1886 6.65001 13.5805 7.04325 13.1742 7.45599C12.9693 7.6641 12.8204 7.87349 12.7234 8.02993C12.6752 8.10763 12.6409 8.17073 12.6196 8.21196C12.609 8.23252 12.6017 8.24749 12.5977 8.25593L12.5942 8.26341L12.5947 8.26232L12.5951 8.26152L12.5953 8.26105C12.5949 8.26186 12.5946 8.26267 12.5942 8.26348C12.4901 8.49839 12.2572 8.65001 12 8.65001C11.7428 8.65001 11.51 8.49839 11.4058 8.26348C11.4055 8.2627 11.4051 8.26193 11.4048 8.26115C11.4048 8.26112 11.4047 8.26108 11.4047 8.26105C11.4047 8.26105 11.4047 8.26105 11.4047 8.26105L11.4048 8.26115L11.4049 8.26152L11.4053 8.26232L11.4058 8.26341L11.4023 8.25593C11.3983 8.24749 11.391 8.23252 11.3804 8.21196C11.3592 8.17073 11.3248 8.10763 11.2766 8.02993C11.1797 7.87349 11.0307 7.6641 10.8258 7.45599C10.4196 7.04325 9.8114 6.65001 8.93751 6.65001ZM12 6.81719C11.9252 6.72774 11.8428 6.63594 11.7523 6.54402C11.1742 5.95676 10.2511 5.35001 8.93751 5.35001C6.84122 5.35001 4.35001 7.34274 4.35001 10.2857C4.35001 11.5304 4.85555 12.7344 5.54746 13.8076C6.24268 14.8859 7.15826 15.882 8.05512 16.7239C8.95445 17.5682 9.85102 18.2724 10.5214 18.7649C10.8572 19.0116 11.1376 19.2062 11.3351 19.3398C11.4338 19.4066 11.5119 19.4582 11.566 19.4935C11.593 19.5111 11.614 19.5247 11.6286 19.534L11.6455 19.5449L11.6503 19.5479L11.6517 19.5488L11.6522 19.5491C11.6523 19.5492 11.6525 19.5493 12 19L11.6525 19.5493C11.8647 19.6836 12.1353 19.6836 12.3475 19.5493L12 19C12.3475 19.5493 12.3477 19.5492 12.3478 19.5491L12.3483 19.5488L12.3497 19.5479L12.3545 19.5449L12.3715 19.534C12.386 19.5247 12.407 19.5111 12.434 19.4935C12.4881 19.4582 12.5662 19.4066 12.665 19.3398C12.8624 19.2062 13.1428 19.0116 13.4786 18.7649C14.149 18.2724 15.0456 17.5682 15.9449 16.7239C16.8417 15.882 17.7573 14.8859 18.4526 13.8076C19.1445 12.7344 19.65 11.5304 19.65 10.2857C19.65 9.04307 19.1458 7.82125 18.3384 6.90859C17.529 5.99369 16.377 5.35001 15.0625 5.35001C13.7489 5.35001 12.8258 5.95676 12.2477 6.54402C12.1572 6.63594 12.0748 6.72774 12 6.81719Z" fill="black"/>
</svg>
