<svg width="24" height="24" viewBox="0 0 24 24" fill="none" xmlns="http://www.w3.org/2000/svg">
<path d="M6.02676 21H8.70114C8.88929 21 9.06254 20.8948 9.14268 20.7245C9.74058 19.4545 9.99622 18.2105 9.99622 17.0039C9.99622 16.3524 9.76813 15.9227 9.46286 15.2206C9.26905 14.7748 9.03558 14.2714 8.87603 14.0142C8.55464 13.4962 7.92802 13.3349 7.46497 13.5664C7.00191 13.7979 6.88253 14.3546 7.13253 14.8546C7.38253 15.3546 8.08594 16.7242 7.42007 17.162C7.00161 17.437 6.48266 17.3625 6.10336 16.889C5.87911 16.609 5.50323 16.1147 5.50323 15.6956L5.50312 11C5.50312 9.99999 5.25003 9 4.2344 9C3.21877 9 3 10 3 11V16C3 17.5096 3.59595 18.2663 5.20354 20.5694C5.39126 20.8383 5.6988 21 6.02676 21Z" stroke="black" stroke-width="1.3" stroke-linecap="round" stroke-linejoin="round"/>
<path d="M17.9695 21H15.2951C15.1069 21 14.9337 20.8948 14.8535 20.7245C14.2556 19.4545 14 18.2105 14 17.0039C14 16.3524 14.2281 15.9227 14.5334 15.2206C14.7272 14.7748 14.9606 14.2714 15.1202 14.0142C15.4416 13.4962 16.0682 13.3349 16.5312 13.5664C16.9943 13.7979 17.1137 14.3546 16.8637 14.8546C16.6137 15.3546 15.9103 16.7242 16.5761 17.162C16.9946 17.437 17.5136 17.3625 17.8929 16.889C18.1171 16.609 18.493 16.1147 18.493 15.6956L18.4931 11C18.4931 9.99999 18.7462 9 19.7618 9C20.7774 9 20.9962 10 20.9962 11V16C20.9962 17.5096 20.4003 18.2663 18.7927 20.5694C18.605 20.8383 18.2974 21 17.9695 21Z" stroke="black" stroke-width="1.3" stroke-linecap="round" stroke-linejoin="round"/>
<path d="M14.2611 2C16.1983 2 17.5 3.76447 17.5 5.41053C17.5 8.74408 12 12 12 12C11.9022 12 6.5 8.74408 6.5 5.41053C6.5 3.76447 7.80167 2 9.73889 2C10.8511 2 11.5783 2.53882 12 3.0125C12.4217 2.53882 13.1489 2 14.2611 2Z" stroke="black" stroke-width="1.3" stroke-linecap="round" stroke-linejoin="round"/>
</svg>
