<svg width="24" height="24" viewBox="0 0 24 24" fill="none" xmlns="http://www.w3.org/2000/svg">
<path fill-rule="evenodd" clip-rule="evenodd" d="M13.3659 5.27444C12.5488 4.6908 11.4512 4.6908 10.6341 5.27444L6.6341 8.13158C6.01653 8.5727 5.65001 9.28492 5.65001 10.0439V16C5.65001 17.2979 6.70214 18.35 8.00001 18.35H9.00001C9.19331 18.35 9.35001 18.1933 9.35001 18V15.5C9.35001 14.0364 10.5365 12.85 12 12.85C13.4636 12.85 14.65 14.0364 14.65 15.5V18C14.65 18.1933 14.8067 18.35 15 18.35H16C17.2979 18.35 18.35 17.2979 18.35 16V10.0439C18.35 9.28492 17.9835 8.5727 17.3659 8.13158L13.3659 5.27444ZM9.87849 4.21659C11.1476 3.31009 12.8524 3.31009 14.1215 4.21659L18.1215 7.07373C19.0807 7.75888 19.65 8.86508 19.65 10.0439V16C19.65 18.0158 18.0158 19.65 16 19.65H15C14.0887 19.65 13.35 18.9113 13.35 18V15.5C13.35 14.7544 12.7456 14.15 12 14.15C11.2544 14.15 10.65 14.7544 10.65 15.5V18C10.65 18.9113 9.91128 19.65 9.00001 19.65H8.00001C5.98417 19.65 4.35001 18.0158 4.35001 16V10.0439C4.35001 8.86508 4.91928 7.75888 5.87849 7.07373L9.87849 4.21659Z" fill="black"/>
</svg>
