<svg width="24" height="24" viewBox="0 0 24 24" fill="none" xmlns="http://www.w3.org/2000/svg">
<path fill-rule="evenodd" clip-rule="evenodd" d="M20 12C20 16.4183 16.4183 20 12 20C7.58172 20 4 16.4183 4 12C4 7.58172 7.58172 4 12 4C16.4183 4 20 7.58172 20 12ZM11.35 9.10001C11.35 9.45899 11.641 9.75001 12 9.75001C12.359 9.75001 12.65 9.45899 12.65 9.10001V9.00001C12.65 8.64102 12.359 8.35001 12 8.35001C11.641 8.35001 11.35 8.64102 11.35 9.00001V9.10001ZM11.35 15.1C11.35 15.459 11.641 15.75 12 15.75C12.359 15.75 12.65 15.459 12.65 15.1V12.1C12.65 11.741 12.359 11.45 12 11.45C11.641 11.45 11.35 11.741 11.35 12.1L11.35 15.1Z" fill="black"/>
</svg>
