<svg width="24" height="24" viewBox="0 0 24 24" fill="none" xmlns="http://www.w3.org/2000/svg">
<path fill-rule="evenodd" clip-rule="evenodd" d="M12.65 7.00001C12.65 6.64102 12.359 6.35001 12 6.35001C11.641 6.35001 11.35 6.64102 11.35 7.00001V7.10001C11.35 7.45899 11.641 7.75001 12 7.75001C12.359 7.75001 12.65 7.45899 12.65 7.10001V7.00001ZM10 9.35001C9.64102 9.35001 9.35001 9.64103 9.35001 10C9.35001 10.359 9.64102 10.65 10 10.65H11C11.1933 10.65 11.35 10.8067 11.35 11V17C11.35 17.1933 11.1933 17.35 11 17.35H10C9.64102 17.35 9.35001 17.641 9.35001 18C9.35001 18.359 9.64102 18.65 10 18.65H11H14C14.359 18.65 14.65 18.359 14.65 18C14.65 17.641 14.359 17.35 14 17.35H12.6128C12.6372 17.2372 12.65 17.1201 12.65 17V11C12.65 10.0887 11.9113 9.35001 11 9.35001H10Z" fill="black"/>
</svg>
