<svg width="24" height="24" viewBox="0 0 24 24" fill="none" xmlns="http://www.w3.org/2000/svg">
  <path fill-rule="evenodd" clip-rule="evenodd"
    d="M4.65 12C4.65 7.94071 7.94071 4.65 12 4.65C16.0593 4.65 19.35 7.94071 19.35 12C19.35 16.0593 16.0593 19.35 12 19.35C7.94071 19.35 4.65 16.0593 4.65 12ZM12 3.35C7.22274 3.35 3.35 7.22274 3.35 12C3.35 16.7773 7.22274 20.65 12 20.65C16.7773 20.65 20.65 16.7773 20.65 12C20.65 7.22274 16.7773 3.35 12 3.35ZM17.9999 12C17.9999 15.3137 15.3136 18 11.9999 18V5.99999C15.3136 5.99999 17.9999 8.68629 17.9999 12Z"
    fill="#000" />
</svg>