<svg width="24" height="24" viewBox="0 0 24 24" fill="none" xmlns="http://www.w3.org/2000/svg">
<path d="M4 7C4 5.34315 5.34315 4 7 4H17C18.6569 4 20 5.34315 20 7V14C21.1046 14 22 14.8954 22 16C22 18.2091 20.2091 20 18 20H6C3.79086 20 2 18.2091 2 16C2 14.8954 2.89543 14 4 14V7ZM6 14H9.5C10.1531 14 10.7087 14.4174 10.9146 15H13.0854C13.2913 14.4174 13.8469 14 14.5 14H18V7C18 6.44772 17.5523 6 17 6H7C6.44772 6 6 6.44772 6 7V14ZM9.08535 16H4C4 17.1046 4.89543 18 6 18H18C19.1046 18 20 17.1046 20 16H14.9146C14.7087 16.5826 14.1531 17 13.5 17H10.5C9.84689 17 9.29127 16.5826 9.08535 16Z" fill="#515164"/>
</svg>
