<svg width="24" height="24" viewBox="0 0 24 24" fill="none" xmlns="http://www.w3.org/2000/svg">
<path fill-rule="evenodd" clip-rule="evenodd" d="M8.00001 4.35001C5.98417 4.35001 4.35001 5.98417 4.35001 8.00001V14C4.35001 16.0158 5.98417 17.65 8.00001 17.65H14C16.0158 17.65 17.65 16.0158 17.65 14V8.00001C17.65 5.98417 16.0158 4.35001 14 4.35001H8.00001ZM5.65001 8.00001C5.65001 6.70214 6.70214 5.65001 8.00001 5.65001H14C15.2979 5.65001 16.35 6.70214 16.35 8.00001V14C16.35 15.2979 15.2979 16.35 14 16.35H8.00001C6.70214 16.35 5.65001 15.2979 5.65001 14V8.00001ZM20.65 9.00001C20.65 8.64102 20.359 8.35001 20 8.35001C19.641 8.35001 19.35 8.64102 19.35 9.00001V10.4C19.35 12.0909 19.3495 13.32 19.2704 14.2879C19.192 15.2482 19.0394 15.894 18.7669 16.4289C18.254 17.4355 17.4355 18.254 16.4289 18.7669C15.894 19.0394 15.2482 19.192 14.2879 19.2704C13.32 19.3495 12.0909 19.35 10.4 19.35H9.00001C8.64102 19.35 8.35001 19.641 8.35001 20C8.35001 20.359 8.64102 20.65 9.00001 20.65H10.4H10.4296C12.0847 20.65 13.3667 20.65 14.3937 20.5661C15.4344 20.4811 16.2704 20.3067 17.019 19.9252C18.2703 19.2876 19.2876 18.2703 19.9252 17.019C20.3067 16.2704 20.4811 15.4344 20.5661 14.3937C20.65 13.3667 20.65 12.0847 20.65 10.4296V10.4V9.00001Z" fill="black"/>
</svg>
