<svg width="24" height="24" viewBox="0 0 24 24" fill="none" xmlns="http://www.w3.org/2000/svg">
<path d="M4.29289 4.29289C4.68342 3.90237 5.31658 3.90237 5.70711 4.29289L6.70711 5.29289C7.09763 5.68342 7.09763 6.31658 6.70711 6.70711C6.31658 7.09763 5.68342 7.09763 5.29289 6.70711L4.29289 5.70711C3.90237 5.31658 3.90237 4.68342 4.29289 4.29289Z" fill="#515164"/>
<path d="M9 3C9.55228 3 10 3.44772 10 4V5C10 5.55228 9.55228 6 9 6C8.44772 6 8 5.55228 8 5V4C8 3.44772 8.44772 3 9 3Z" fill="#515164"/>
<path d="M3 9C3 8.44772 3.44772 8 4 8H5C5.55228 8 6 8.44772 6 9C6 9.55228 5.55228 10 5 10H4C3.44772 10 3 9.55228 3 9Z" fill="#515164"/>
<path d="M19.7071 19.7071C19.3166 20.0976 18.6834 20.0976 18.2929 19.7071L17.2929 18.7071C16.9024 18.3166 16.9024 17.6834 17.2929 17.2929C17.6834 16.9024 18.3166 16.9024 18.7071 17.2929L19.7071 18.2929C20.0976 18.6834 20.0976 19.3166 19.7071 19.7071Z" fill="#515164"/>
<path d="M15 21C14.4477 21 14 20.5523 14 20V19C14 18.4477 14.4477 18 15 18C15.5523 18 16 18.4477 16 19V20C16 20.5523 15.5523 21 15 21Z" fill="#515164"/>
<path d="M21 15C21 15.5523 20.5523 16 20 16H19C18.4477 16 18 15.5523 18 15C18 14.4477 18.4477 14 19 14H20C20.5523 14 21 14.4477 21 15Z" fill="#515164"/>
<path d="M7.70711 11.2929C8.09763 11.6834 8.09763 12.3166 7.70711 12.7071L6.70711 13.7071C5.71692 14.6973 5.71692 16.3027 6.70711 17.2929C7.69729 18.2831 9.30271 18.2831 10.2929 17.2929L11.2929 16.2929C11.6834 15.9024 12.3166 15.9024 12.7071 16.2929C13.0976 16.6834 13.0976 17.3166 12.7071 17.7071L11.7071 18.7071C9.93587 20.4783 7.06413 20.4783 5.29289 18.7071C3.52166 16.9359 3.52166 14.0641 5.29289 12.2929L6.29289 11.2929C6.68342 10.9024 7.31658 10.9024 7.70711 11.2929Z" fill="#515164"/>
<path d="M16.2929 12.7071C15.9024 12.3166 15.9024 11.6834 16.2929 11.2929L17.2929 10.2929C18.2831 9.30271 18.2831 7.6973 17.2929 6.70711C16.3027 5.71692 14.6973 5.71692 13.7071 6.7071L12.7071 7.70709C12.3166 8.09762 11.6834 8.09762 11.2929 7.70709C10.9024 7.31657 10.9024 6.6834 11.2929 6.29288L12.2929 5.29289C14.0641 3.52165 16.9359 3.52166 18.7071 5.29289C20.4783 7.06413 20.4783 9.93588 18.7071 11.7071L17.7071 12.7071C17.3166 13.0976 16.6834 13.0976 16.2929 12.7071Z" fill="#515164"/>
</svg>
