<svg width="24" height="24" viewBox="0 0 24 24" fill="none" xmlns="http://www.w3.org/2000/svg">
<path d="M5 5L6 6" stroke="black" stroke-width="1.3" stroke-linecap="round"/>
<path d="M9 5V4" stroke="black" stroke-width="1.3" stroke-linecap="round"/>
<path d="M5 9L4 9" stroke="black" stroke-width="1.3" stroke-linecap="round"/>
<path d="M19 19L18 18" stroke="black" stroke-width="1.3" stroke-linecap="round"/>
<path d="M15 19L15 20" stroke="black" stroke-width="1.3" stroke-linecap="round"/>
<path d="M19 15L20 15" stroke="black" stroke-width="1.3" stroke-linecap="round"/>
<path d="M12 17L11 18C9.61929 19.3807 7.38071 19.3807 6 18V18C4.61929 16.6193 4.61929 14.3807 6 13L7 12" stroke="black" stroke-width="1.3" stroke-linecap="round"/>
<path d="M12 6.99998L13 5.99999C14.3807 4.61928 16.6193 4.61929 18 6V6C19.3807 7.38071 19.3807 9.61929 18 11L17 12" stroke="black" stroke-width="1.3" stroke-linecap="round"/>
</svg>
