<svg width="24" height="24" viewBox="0 0 24 24" fill="none" xmlns="http://www.w3.org/2000/svg">
<path d="M12 13C12.5523 13 13 13.4477 13 14V15C13 15.5523 12.5523 16 12 16C11.4477 16 11 15.5523 11 15V14C11 13.4477 11.4477 13 12 13Z" fill="#515164"/>
<path d="M9 8C9 6.34315 10.3431 5 12 5C12.5523 5 13 4.55228 13 4C13 3.44772 12.5523 3 12 3C9.23858 3 7 5.23858 7 8V9.12602C5.27477 9.57006 4 11.1362 4 13V16C4 18.2091 5.79086 20 8 20H16C18.2091 20 20 18.2091 20 16V13C20 10.7909 18.2091 9 16 9H9V8ZM8 11H16C17.1046 11 18 11.8954 18 13V16C18 17.1046 17.1046 18 16 18H8C6.89543 18 6 17.1046 6 16V13C6 11.8954 6.89543 11 8 11Z" fill="#515164"/>
</svg>
