<svg width="24" height="24" viewBox="0 0 24 24" fill="none" xmlns="http://www.w3.org/2000/svg">
<path d="M11.9793 19.1935C11.9764 19.1895 11.2406 18.1717 11.0639 17.7883C10.8967 17.4256 10.8466 17.2959 10.8416 17.2825C10.7433 17.4174 10.6391 17.5463 10.5284 17.6684C9.71159 18.5752 8.79477 19.1636 7.7123 19.2564C7.24733 19.3111 6.77689 19.2981 6.31565 19.2178C6.13333 18.9521 5.97329 18.6717 5.83723 18.3795C5.71287 18.1134 5.57884 17.8178 5.48413 17.6073C5.41162 17.715 5.33566 17.8171 5.25599 17.9125C4.61621 18.6794 3.89361 19.1978 2.9311 19.2606C2.24563 19.3063 2 19.2092 2 19.2092C2 19.2092 3.67226 13.04 3.94217 12.3845C4.23778 11.6705 4.69047 10.6937 5.88291 9.81399C7.02536 8.97572 7.8822 8.92716 8.025 8.92716H8.16781C8.16781 8.92716 7.72225 10.4138 7.14103 12.5487C7.08843 12.7435 7.03575 12.9603 6.98118 13.1927C6.96477 13.7816 6.94332 14.6389 6.94969 14.8936C6.95548 15.0865 6.96842 15.3094 6.98304 15.5202C6.99442 15.6359 7.03257 16.0237 7.06047 16.3038C7.58064 14.2969 8.21445 11.9177 8.40348 11.4891C8.7705 10.6552 9.47453 9.23137 11.0668 8.24315C11.8826 7.73979 12.7887 7.40024 13.7344 7.24351C14.0301 7.19067 13.9758 7.26921 13.9758 7.26921C13.9758 7.26921 13.4717 9.23423 12.7748 11.7119C12.725 11.8896 12.6765 12.0795 12.6278 12.279C12.6264 12.8577 12.6288 13.621 12.6476 14.0154C12.6613 14.3024 12.6997 14.6736 12.7398 15.0086L12.7405 15.005C12.7405 15.005 12.8204 15.5348 12.8533 15.8619L12.8539 15.8666C13.4992 13.4516 14.3081 10.52 14.5669 9.99823C15.3278 8.38763 16.577 7.05791 18.1371 6.19815C19.7113 5.3218 20.9172 5.13532 21.2642 5.08166C21.2865 5.07822 21.3052 5.07533 21.3202 5.07283C21.5452 5.03511 21.7722 5.01079 22 5C22 5 21.3102 7.58765 20.3692 10.8665C20.165 11.5744 20.0128 12.1622 19.8739 12.6991C19.624 13.6645 19.4168 14.465 19.0268 15.502C18.3984 17.1728 16.5691 18.6666 14.7254 19.115C13.543 19.4035 11.9793 19.1935 11.9793 19.1935Z" fill="black"/>
</svg>
