<svg width="24" height="24" viewBox="0 0 24 24" fill="none" xmlns="http://www.w3.org/2000/svg">
<path fill-rule="evenodd" clip-rule="evenodd" d="M4.3499 6.99998C4.3499 6.64099 4.64091 6.34998 4.9999 6.34998H18.9999C19.3589 6.34998 19.6499 6.64099 19.6499 6.99998C19.6499 7.35896 19.3589 7.64998 18.9999 7.64998H4.9999C4.64091 7.64998 4.3499 7.35896 4.3499 6.99998ZM4.35 12C4.35 11.641 4.64101 11.35 5 11.35H19C19.359 11.35 19.65 11.641 19.65 12C19.65 12.359 19.359 12.65 19 12.65H5C4.64101 12.65 4.35 12.359 4.35 12ZM4.9999 16.35C4.64091 16.35 4.3499 16.641 4.3499 17C4.3499 17.359 4.64091 17.65 4.9999 17.65H18.9999C19.3589 17.65 19.6499 17.359 19.6499 17C19.6499 16.641 19.3589 16.35 18.9999 16.35H4.9999Z" fill="black"/>
</svg>
