<svg width="24" height="24" viewBox="0 0 24 24" fill="none" xmlns="http://www.w3.org/2000/svg">
<path d="M5 7C5 4.79086 6.79086 3 9 3H15C17.2091 3 19 4.79086 19 7V17C19 19.2091 17.2091 21 15 21H9C6.79086 21 5 19.2091 5 17V7ZM9 5C7.89543 5 7 5.89543 7 7V17C7 18.1046 7.89543 19 9 19H15C16.1046 19 17 18.1046 17 17V7C17 5.89543 16.1046 5 15 5H9Z" fill="#515164"/>
<path d="M11 16C11 15.4477 11.4477 15 12 15C12.5523 15 13 15.4477 13 16C13 16.5523 12.5523 17 12 17C11.4477 17 11 16.5523 11 16Z" fill="#515164"/>
</svg>
