<svg width="24" height="24" viewBox="0 0 24 24" fill="none" xmlns="http://www.w3.org/2000/svg">
<path d="M9 3H14C15.6569 3 17 4.34315 17 6V14C17 15.6569 15.6569 17 14 17H9C7.34315 17 6 15.6569 6 14V6C6 4.34315 7.34315 3 9 3Z" stroke="black" stroke-width="1.3" stroke-linecap="round" stroke-linejoin="round"/>
<path d="M9 20H10.4C13.7603 20 15.4405 20 16.7239 19.346C17.8529 18.7708 18.7708 17.8529 19.346 16.7239C20 15.4405 20 13.7603 20 10.4V9" stroke="black" stroke-width="1.3" stroke-linecap="round"/>
<path d="M13.5 7H11C10.1716 7 9.5 7.67157 9.5 8.5V8.5C9.5 9.32843 10.1716 10 11 10H12C12.8284 10 13.5 10.6716 13.5 11.5V11.5C13.5 12.3284 12.8284 13 12 13H9.5" stroke="black" stroke-width="1.3" stroke-linecap="round"/>
<path d="M11.5 7V6" stroke="black" stroke-width="1.3" stroke-linecap="round"/>
<path d="M11.5 14V13" stroke="black" stroke-width="1.3" stroke-linecap="round"/>
</svg>
