<svg width="24" height="24" viewBox="0 0 24 24" fill="none" xmlns="http://www.w3.org/2000/svg">
<path d="M5.54981 14.121L6.2641 10.121C6.68993 7.73641 8.76387 6 11.1862 6H12.8138C15.2361 6 17.3101 7.73641 17.7359 10.121L18.4502 14.121C18.9974 17.1857 16.6412 20 13.528 20H10.472C7.35882 20 5.00255 17.1857 5.54981 14.121Z" stroke="black" stroke-width="1.3"/>
<path d="M10.3257 2.5H13.6743C14.3386 2.5 14.8183 3.13591 14.6358 3.77472L14 6H10L9.36421 3.77472C9.18169 3.1359 9.66135 2.5 10.3257 2.5Z" stroke="black" stroke-width="1.3"/>
<path d="M14 10H11.5C10.6716 10 10 10.6716 10 11.5V11.5C10 12.3284 10.6716 13 11.5 13H12.5C13.3284 13 14 13.6716 14 14.5V14.5C14 15.3284 13.3284 16 12.5 16H10" stroke="black" stroke-width="1.3" stroke-linecap="round"/>
<path d="M12 16V17" stroke="black" stroke-width="1.3" stroke-linecap="round"/>
<path d="M12 9V10" stroke="black" stroke-width="1.3" stroke-linecap="round"/>
</svg>
