<svg width="24" height="24" viewBox="0 0 24 24" fill="none" xmlns="http://www.w3.org/2000/svg">
<path d="M17.2929 12.2929C17.6834 11.9024 18.3166 11.9024 18.7071 12.2929L21.7071 15.2929C22.0976 15.6834 22.0976 16.3166 21.7071 16.7071L18.7071 19.7071C18.3166 20.0976 17.6834 20.0976 17.2929 19.7071C16.9024 19.3166 16.9024 18.6834 17.2929 18.2929L18.5858 17H14C13.4477 17 13 16.5523 13 16C13 15.4477 13.4477 15 14 15H18.5858L17.2929 13.7071C16.9024 13.3166 16.9024 12.6834 17.2929 12.2929Z" fill="#515164"/>
<path d="M7.16146 3L9.72765 3C10.7977 3 11.7845 3.57714 12.3091 4.50974C12.4794 4.81259 12.7999 5 13.1473 5H15.9903C17.4799 4.97161 18.8117 5.15361 19.7368 6.06548C20.6457 6.96144 20.919 8.32895 20.9988 9.95084C21.0259 10.5025 20.6008 10.9716 20.0492 10.9988C19.4975 11.0259 19.0284 10.6008 19.0012 10.0492C18.9234 8.46884 18.6552 7.80765 18.3327 7.48981C18.0285 7.18992 17.443 6.9718 16.0197 6.99981L16 7H13.1473C12.0773 7 11.0905 6.42286 10.5659 5.49026C10.3956 5.18742 10.0751 5 9.72765 5H7.2C6.62345 5 6.25117 5.00078 5.96784 5.02393C5.69617 5.04612 5.59546 5.0838 5.54601 5.109C5.35785 5.20487 5.20487 5.35785 5.109 5.54601C5.0838 5.59546 5.04612 5.69617 5.02393 5.96784C5.00078 6.25117 5 6.62345 5 7.2V13.2C5 14.0566 5.00078 14.6389 5.03755 15.089C5.07337 15.5274 5.1383 15.7516 5.21799 15.908C5.40974 16.2843 5.7157 16.5903 6.09202 16.782C6.24842 16.8617 6.47262 16.9266 6.91104 16.9625C7.36113 16.9992 7.94342 17 8.8 17H10.875C11.4273 17 11.875 17.4477 11.875 18C11.875 18.5523 11.4273 19 10.875 19H8.75873C7.95375 19 7.28938 19 6.74818 18.9558C6.18608 18.9099 5.66938 18.8113 5.18404 18.564C4.43139 18.1805 3.81947 17.5686 3.43598 16.816C3.18868 16.3306 3.09012 15.8139 3.0442 15.2518C2.99998 14.7106 2.99999 14.0463 3 13.2413L3 7.16146C2.99998 6.63431 2.99997 6.17955 3.03057 5.80497C3.06287 5.40963 3.13419 5.01641 3.32698 4.63803C3.6146 4.07354 4.07354 3.6146 4.63803 3.32698C5.01641 3.13419 5.40963 3.06287 5.80497 3.03057C6.17955 2.99997 6.63431 2.99998 7.16146 3Z" fill="#515164"/>
</svg>
