<svg width="24" height="24" viewBox="0 0 24 24" fill="none" xmlns="http://www.w3.org/2000/svg">
<path d="M12 7C12 6.44772 12.4477 6 13 6H19C19.5523 6 20 6.44772 20 7C20 7.55228 19.5523 8 19 8H13C12.4477 8 12 7.55228 12 7Z" fill="#515164"/>
<path d="M12 12C12 11.4477 12.4477 11 13 11H19C19.5523 11 20 11.4477 20 12C20 12.5523 19.5523 13 19 13H13C12.4477 13 12 12.5523 12 12Z" fill="#515164"/>
<path d="M12 17C12 16.4477 12.4477 16 13 16H19C19.5523 16 20 16.4477 20 17C20 17.5523 19.5523 18 19 18H13C12.4477 18 12 17.5523 12 17Z" fill="#515164"/>
<path d="M7 13C6.44772 13 6 13.4477 6 14C6 14.5523 5.55228 15 5 15C4.44772 15 4 14.5523 4 14C4 12.3431 5.34315 11 7 11C8.65685 11 10 12.3431 10 14C10 15.6569 8.65685 17 7 17C6.44772 17 6 17.4477 6 18H9C9.55228 18 10 18.4477 10 19C10 19.5523 9.55228 20 9 20H5C4.44772 20 4 19.5523 4 19V18C4 16.3431 5.34315 15 7 15C7.55228 15 8 14.5523 8 14C8 13.4477 7.55228 13 7 13Z" fill="#515164"/>
<path d="M8 4C8 3.44772 7.55228 3 7 3C6.44772 3 6 3.44772 6 4C6 4.17477 5.90255 4.43324 5.66789 4.66789C5.43324 4.90255 5.17477 5 5 5C4.44772 5 4 5.44772 4 6C4 6.55228 4.44772 7 5 7C5.35228 7 5.68931 6.92664 6 6.80247V10C6 10.5523 6.44772 11 7 11C7.55228 11 8 10.5523 8 10V4Z" fill="#515164"/>
</svg>
