<svg width="24" height="24" viewBox="0 0 24 24" fill="none" xmlns="http://www.w3.org/2000/svg">
<path d="M18.2929 7.7071C17.5788 6.99306 16.4211 6.99306 15.7071 7.7071L8.70707 14.7071C8.54531 14.8689 8.54531 15.1311 8.70707 15.2929C8.86883 15.4547 9.1311 15.4547 9.29286 15.2929L14.2929 10.2929C14.6834 9.90237 15.3165 9.90237 15.7071 10.2929C16.0976 10.6834 16.0976 11.3166 15.7071 11.7071L10.7071 16.7071C9.76426 17.6499 8.23567 17.6499 7.29286 16.7071C6.35005 15.7643 6.35005 14.2357 7.29286 13.2929L14.2929 6.29289C15.788 4.79779 18.212 4.7978 19.7071 6.29289C21.2022 7.78799 21.2022 10.212 19.7071 11.7071L12.7071 18.7071C10.6597 20.7545 7.34024 20.7545 5.29286 18.7071C3.24548 16.6597 3.24548 13.3403 5.29286 11.2929L10.2929 6.29289C10.6834 5.90237 11.3165 5.90237 11.7071 6.29289C12.0976 6.68342 12.0976 7.31658 11.7071 7.7071L6.70707 12.7071C5.44074 13.9734 5.44074 16.0266 6.70707 17.2929C7.9734 18.5592 10.0265 18.5592 11.2929 17.2929L18.2929 10.2929C19.0069 9.57885 19.0069 8.42115 18.2929 7.7071Z" fill="#515164"/>
</svg>
