<svg width="24" height="24" viewBox="0 0 24 24" fill="none" xmlns="http://www.w3.org/2000/svg">
<path fill-rule="evenodd" clip-rule="evenodd" d="M18.9596 5.04038C17.6012 3.68197 15.3988 3.68197 14.0404 5.04038L6.54037 12.5404C6.46038 12.6204 6.40266 12.7198 6.37289 12.829L4.87289 18.329C4.81152 18.554 4.87543 18.7947 5.04037 18.9596C5.20531 19.1246 5.44598 19.1885 5.67102 19.1271L11.171 17.6271C11.2801 17.5973 11.3796 17.5396 11.4596 17.4596L18.9596 9.95962C20.318 8.60121 20.318 6.39879 18.9596 5.04038ZM14.9596 5.95962C15.8103 5.10889 17.1896 5.10889 18.0404 5.95962C18.8911 6.81035 18.8911 8.18965 18.0404 9.04038L11 16.0808L7.91923 13L14.9596 5.95962ZM7.33238 14.2516L9.74836 16.6676L6.42638 17.5736L7.33238 14.2516Z" fill="black"/>
</svg>
