<svg width="24" height="24" viewBox="0 0 24 24" fill="none" xmlns="http://www.w3.org/2000/svg">
<path d="M12 6C10.3431 6 9 7.34315 9 9C9 10.6569 10.3431 12 12 12C13.6569 12 15 10.6569 15 9C15 7.34315 13.6569 6 12 6ZM7 9C7 6.23858 9.23858 4 12 4C14.7614 4 17 6.23858 17 9C17 11.7614 14.7614 14 12 14C9.23858 14 7 11.7614 7 9Z" fill="#515164"/>
<path d="M5.79289 17.2929C5.40237 17.6834 5.40237 18.3166 5.79289 18.7071C6.18214 19.0964 6.81243 19.0976 7.20326 18.7109L7.21011 18.7044C7.2185 18.6965 7.23422 18.6818 7.25714 18.6615C7.303 18.6207 7.37742 18.5571 7.47936 18.4782C7.68361 18.3201 7.99588 18.1022 8.40809 17.8824C9.23151 17.4432 10.4458 17 12 17C13.5542 17 14.7685 17.4432 15.5919 17.8824C16.0041 18.1022 16.3164 18.3201 16.5206 18.4782C16.6226 18.5571 16.697 18.6207 16.7429 18.6615C16.7658 18.6818 16.7815 18.6965 16.7899 18.7044L16.7963 18.7105C17.1871 19.0972 17.8179 19.0963 18.2071 18.7071C18.5976 18.3166 18.5976 17.6834 18.2071 17.2929L18.2043 17.2901L18.2008 17.2866L18.1914 17.2774C18.1841 17.2703 18.1748 17.2614 18.1635 17.2507C18.1409 17.2293 18.1102 17.201 18.0716 17.1667C17.9944 17.098 17.8852 17.0054 17.745 16.8968C17.4649 16.6799 17.0584 16.3978 16.5331 16.1176C15.4815 15.5568 13.9458 15 12 15C10.0542 15 8.51849 15.5568 7.46691 16.1176C6.94162 16.3978 6.53514 16.6799 6.25501 16.8968C6.11477 17.0054 6.00559 17.098 5.92841 17.1667C5.8898 17.201 5.85913 17.2293 5.83652 17.2507C5.82522 17.2614 5.81592 17.2703 5.80865 17.2774L5.79925 17.2866L5.79569 17.2901L5.7942 17.2916C5.79238 17.2934 5.79289 17.2929 5.79289 17.2929ZM16.7935 18.7077L16.795 18.7092L16.7963 18.7105" fill="#515164"/>
</svg>
