<svg width="24" height="24" viewBox="0 0 24 24" fill="none" xmlns="http://www.w3.org/2000/svg">
<path d="M3.44693 7.49556C3.23212 5.34123 5.09019 4 6.90667 4H9.77945C10.6403 4 11.4046 4.55086 11.6768 5.36754L12.6507 8.28923C12.9856 9.29386 12.4793 10.3854 11.4961 10.7787L10.9241 11.0074C11.2125 11.4685 11.5065 11.8423 11.8321 12.1679C12.1577 12.4935 12.5315 12.7875 12.9926 13.0759L13.2213 12.5041C13.6146 11.5209 14.7061 11.0146 15.7107 11.3495L18.6324 12.3234C19.4491 12.5956 20 13.3599 20 14.2208L19.9999 16.5001C19.9998 18.6694 18.1853 20.6003 15.8328 20.1463C13.2045 19.6392 9.31337 18.3681 6.71894 15.1247C4.39466 12.219 3.64116 9.44348 3.44693 7.49556ZM6.90667 6C5.91081 6 5.37284 6.65299 5.43706 7.29712C5.59804 8.91159 6.22776 11.3088 8.28074 13.8753C10.4348 16.5682 13.7595 17.7094 16.2117 18.1826C17.1128 18.3565 17.9998 17.6445 17.9999 16.5001L18 14.2208L15.0783 13.2469L14.4285 14.8714C14.3246 15.131 14.1168 15.3353 13.8554 15.4347C13.594 15.5341 13.3029 15.5195 13.0528 15.3944C11.9925 14.8643 11.1428 14.307 10.4179 13.5821C9.69297 12.8572 9.13573 12.0075 8.60557 10.9472C8.4805 10.6971 8.46589 10.406 8.56528 10.1446C8.66467 9.88321 8.86897 9.67537 9.12863 9.57151L10.7533 8.92168L9.77945 6H6.90667Z" fill="#515164"/>
</svg>
