<svg width="24" height="24" viewBox="0 0 24 24" fill="none" xmlns="http://www.w3.org/2000/svg">
<path d="M12 6C9.89441 6 8 7.94991 8 10.6C8 11.8632 8.50717 13.0644 9.3865 14.3432C10.1017 15.3833 11.0081 16.4008 12 17.5033C12.9919 16.4008 13.8983 15.3833 14.6135 14.3432C15.4928 13.0644 16 11.8632 16 10.6C16 7.94991 14.1056 6 12 6ZM6 10.6C6 7.0645 8.58274 4 12 4C15.4173 4 18 7.0645 18 10.6C18 12.4296 17.2572 14.0284 16.2615 15.4764C15.4336 16.6804 14.3733 17.8575 13.3312 19.0143C13.1349 19.2323 12.9393 19.4495 12.7459 19.666C12.5562 19.8785 12.2849 20 12 20C11.7151 20 11.4438 19.8785 11.2541 19.666C11.0607 19.4495 10.8651 19.2323 10.6688 19.0143C9.62669 17.8575 8.56643 16.6804 7.7385 15.4764C6.74283 14.0284 6 12.4296 6 10.6Z" fill="#515164"/>
<path d="M11 10C11 9.44772 11.4477 9 12 9C12.5523 9 13 9.44772 13 10C13 10.5523 12.5523 11 12 11C11.4477 11 11 10.5523 11 10Z" fill="#515164"/>
</svg>
