<svg width="24" height="24" viewBox="0 0 24 24" fill="none" xmlns="http://www.w3.org/2000/svg">
<path d="M11 3C9.34315 3 8 4.34315 8 6H7C4.79086 6 3 7.79086 3 10V16C3 18.2091 4.79086 20 7 20H17C19.2091 20 21 18.2091 21 16V10C21 7.79086 19.2091 6 17 6H16C16 4.34315 14.6569 3 13 3H11ZM5 16V13H10V13.75C10 14.4404 10.5596 15 11.25 15H12.75C13.4404 15 14 14.4404 14 13.75V13H19V16C19 17.1046 18.1046 18 17 18H7C5.89543 18 5 17.1046 5 16ZM5 11V10C5 8.89543 5.89543 8 7 8H17C18.1046 8 19 8.89543 19 10V11H5ZM14 6H10C10 5.44772 10.4477 5 11 5H13C13.5523 5 14 5.44772 14 6Z" fill="#515164"/>
</svg>
