<svg width="24" height="24" viewBox="0 0 24 24" fill="none" xmlns="http://www.w3.org/2000/svg">
<path fill-rule="evenodd" clip-rule="evenodd" d="M12.4561 4.10842C12.167 3.96382 11.8282 3.96382 11.5391 4.10842C11.2986 4.2287 11.1657 4.4365 11.0944 4.55864C11.0194 4.68705 10.9414 4.85286 10.8607 5.02441L10.8503 5.04667L9.98786 6.87923C9.83501 7.20404 9.97441 7.59127 10.2992 7.74413C10.624 7.89699 11.0113 7.75759 11.1641 7.43277L11.9976 5.66168L13.6732 9.22232L13.6842 9.24593C13.7226 9.32875 13.7886 9.47135 13.8931 9.58936C13.9829 9.69075 14.0922 9.77468 14.2159 9.83501C14.3622 9.90634 14.5209 9.92951 14.6076 9.94215L14.6319 9.94575L18.4422 10.5299L18.4236 10.5489L16.2183 12.802C15.9672 13.0585 15.9716 13.4701 16.2281 13.7212C16.4846 13.9723 16.8962 13.9679 17.1473 13.7113L19.3526 11.4583L19.3698 11.4407C19.5002 11.3076 19.6272 11.1779 19.721 11.0628C19.814 10.9489 19.9542 10.7577 19.9867 10.4989C20.0252 10.1936 19.9315 9.88066 19.7207 9.64732C19.5399 9.44707 19.3067 9.37527 19.1655 9.33965C19.0229 9.30369 18.8456 9.27654 18.6666 9.24913L18.6417 9.24531L14.847 8.66354L13.1449 5.04667L13.1345 5.02443C13.0538 4.85288 12.9757 4.68705 12.9008 4.55864C12.8295 4.4365 12.6966 4.2287 12.4561 4.10842ZM6.87091 10.3279C7.22575 10.2735 7.4693 9.94171 7.4149 9.58687C7.3605 9.23203 7.02874 8.98848 6.6739 9.04288L5.35348 9.24531L5.32859 9.24913C5.14958 9.27654 4.97227 9.3037 4.82971 9.33965C4.68849 9.37527 4.45532 9.44707 4.27445 9.64732C4.06369 9.88066 3.97 10.1936 4.00844 10.4989C4.04103 10.7577 4.18123 10.9489 4.27415 11.0628C4.36799 11.1779 4.49496 11.3075 4.62534 11.4407L4.62536 11.4407L4.64255 11.4583L7.40051 14.2759L7.40544 14.2809L7.40307 14.2955L6.75231 18.2752L6.7484 18.2991L6.7484 18.2991C6.71746 18.4882 6.68774 18.6698 6.67648 18.819C6.66558 18.9634 6.65842 19.202 6.77813 19.4332C6.92172 19.7105 7.18415 19.9172 7.50273 19.9792C7.77318 20.0318 8.0071 19.942 8.13719 19.8854C8.27215 19.8267 8.4302 19.7395 8.59061 19.6509L8.61265 19.6388L11.9976 17.7716L15.3825 19.6388C15.6969 19.8122 16.0923 19.6979 16.2656 19.3836C16.439 19.0692 16.3248 18.6739 16.0104 18.5005L12.6018 16.6203L12.5801 16.6081L12.5801 16.6081C12.5033 16.5651 12.3626 16.4861 12.2036 16.4534C12.0676 16.4254 11.9276 16.4254 11.7916 16.4534C11.6326 16.4861 11.4919 16.5651 11.4151 16.6081L11.4151 16.6081L11.3934 16.6203L8.0375 18.4714L8.68603 14.5053L8.69039 14.4792C8.70593 14.3875 8.73172 14.2351 8.71381 14.0802C8.69853 13.948 8.6588 13.8191 8.59585 13.7005C8.52141 13.5602 8.41141 13.4492 8.34751 13.3848L8.34751 13.3848L8.32953 13.3665L5.57157 10.5489L5.55295 10.5299L6.87091 10.3279ZM6.45962 5.54039C6.20578 5.28655 5.79422 5.28655 5.54038 5.54039C5.28654 5.79423 5.28654 6.20578 5.54038 6.45963L17.5404 18.4596C17.7942 18.7135 18.2058 18.7135 18.4596 18.4596C18.7135 18.2058 18.7135 17.7942 18.4596 17.5404L6.45962 5.54039Z" fill="black"/>
</svg>
