<svg width="24" height="24" viewBox="0 0 24 24" fill="none" xmlns="http://www.w3.org/2000/svg">
<path d="M16.3827 3.07615C16.7564 3.23093 17 3.59557 17 4.00003V5.00003C19.2091 5.00003 21 6.79089 21 9.00003V10C21 10.5523 20.5523 11 20 11C19.4477 11 19 10.5523 19 10V9.00003C19 7.89546 18.1046 7.00003 17 7.00003V8.00003C17 8.40449 16.7564 8.76913 16.3827 8.92391C16.009 9.07869 15.5789 8.99313 15.2929 8.70714L13.2929 6.70714C12.9024 6.31661 12.9024 5.68345 13.2929 5.29292L15.2929 3.29292C15.5789 3.00692 16.009 2.92137 16.3827 3.07615Z" fill="#515164"/>
<path d="M7.61732 20.9239C7.24364 20.7691 7 20.4045 7 20V19C4.79086 19 3 17.2092 3 15V14C3 13.4477 3.44772 13 4 13C4.55228 13 5 13.4477 5 14V15C5 16.1046 5.89543 17 7 17V16C7 15.5956 7.24364 15.2309 7.61732 15.0761C7.99099 14.9214 8.42111 15.0069 8.70711 15.2929L10.7071 17.2929C11.0976 17.6834 11.0976 18.3166 10.7071 18.7071L8.70711 20.7071C8.42111 20.9931 7.99099 21.0787 7.61732 20.9239Z" fill="#515164"/>
<path d="M13 16C13 14.3432 14.3431 13 16 13H18C19.6569 13 21 14.3432 21 16V18C21 19.6569 19.6569 21 18 21H16C14.3431 21 13 19.6569 13 18V16ZM16 15C15.4477 15 15 15.4477 15 16V18C15 18.5523 15.4477 19 16 19H18C18.5523 19 19 18.5523 19 18V16C19 15.4477 18.5523 15 18 15H16Z" fill="#515164"/>
<path d="M3 6.00003C3 4.34317 4.34315 3.00003 6 3.00003H8C9.65685 3.00003 11 4.34317 11 6.00003V8.00003C11 9.65688 9.65685 11 8 11H6C4.34315 11 3 9.65688 3 8.00003V6.00003ZM6 5.00003C5.44772 5.00003 5 5.44774 5 6.00003V8.00003C5 8.55231 5.44772 9.00003 6 9.00003H8C8.55228 9.00003 9 8.55231 9 8.00003V6.00003C9 5.44774 8.55228 5.00003 8 5.00003H6Z" fill="#515164"/>
</svg>
