<svg width="24" height="24" viewBox="0 0 24 24" fill="none" xmlns="http://www.w3.org/2000/svg">
<path d="M20 10V9C20 7.34315 18.6569 6 17 6H14M14 6L16 4M14 6L16 8" stroke="black" stroke-width="1.3" stroke-linecap="round" stroke-linejoin="round"/>
<path d="M4 14V15C4 16.6569 5.34315 18 7 18H10M10 18L8 20M10 18L8 16" stroke="black" stroke-width="1.3" stroke-linecap="round" stroke-linejoin="round"/>
<path d="M16 14H18C19.1046 14 20 14.8954 20 16V18C20 19.1046 19.1046 20 18 20H16C14.8954 20 14 19.1046 14 18V16C14 14.8954 14.8954 14 16 14Z" stroke="black" stroke-width="1.3" stroke-linecap="round" stroke-linejoin="round"/>
<path d="M6 4H8C9.10457 4 10 4.89543 10 6V8C10 9.10457 9.10457 10 8 10H6C4.89543 10 4 9.10457 4 8V6C4 4.89543 4.89543 4 6 4Z" stroke="black" stroke-width="1.3" stroke-linecap="round" stroke-linejoin="round"/>
</svg>
