<svg width="24" height="24" viewBox="0 0 24 24" fill="none" xmlns="http://www.w3.org/2000/svg">
<path d="M14.3243 7.00623C13.216 7.65817 12.3295 8.66762 11.3876 10.1821L11.3807 10.1932C10.9322 10.8937 10.5292 11.8393 10.1685 12.7543L11.2479 13.8336C12.1754 13.4726 13.1363 13.0678 13.8502 12.6164C13.869 12.6045 13.8882 12.5932 13.9077 12.5826C15.549 11.6922 16.5473 10.5981 17.1501 9.36778C17.6316 8.38491 17.8819 7.2715 17.9665 6.03077C16.3812 6.13006 15.2401 6.46756 14.3243 7.00623ZM10 15.4142L8.58579 14H5C4.68847 14 4.39474 13.8548 4.20554 13.6073C4.01634 13.3598 3.9533 13.0382 4.03503 12.7376L5 13C4.03503 12.7376 4.03503 12.7376 4.03503 12.7376L4.03622 12.7333L4.03871 12.7242L4.04753 12.6926C4.0551 12.6657 4.06604 12.6272 4.08017 12.5788C4.10842 12.4819 4.14957 12.3444 4.20237 12.1778C4.30756 11.8458 4.4609 11.3921 4.65251 10.9102C4.84259 10.4323 5.0789 9.90482 5.35375 9.43488C5.61376 8.99033 5.97152 8.48485 6.44399 8.16879L6.44531 8.1679C6.99241 7.80318 7.60444 7.7217 8.12665 7.74681C8.64892 7.77193 9.15356 7.90616 9.56992 8.05339C9.80536 8.13664 10.0247 8.22843 10.2181 8.31713C11.0934 7.05033 12.0597 6.01798 13.3103 5.28236C14.8221 4.39306 16.6411 4.00006 19 4.00006C19.5523 4.00006 20 4.44778 20 5.00006C20 6.83818 19.7386 8.63007 18.9461 10.2477C18.2655 11.6369 17.218 12.8468 15.7076 13.8361C15.7885 14.016 15.8711 14.2164 15.9467 14.4301C16.0939 14.8465 16.2281 15.3511 16.2532 15.8734C16.2783 16.3956 16.1968 17.0076 15.8321 17.5547L15.8312 17.556C15.5151 18.0284 15.0096 18.3862 14.5651 18.6462C14.0951 18.9211 13.5677 19.1574 13.0897 19.3474C12.6079 19.5391 12.1541 19.6924 11.8222 19.7976C11.6556 19.8504 11.5181 19.8915 11.4212 19.9198C11.3727 19.9339 11.3343 19.9449 11.3074 19.9524L11.2758 19.9613L11.2667 19.9637L11.2626 19.9649C11.2626 19.9649 11.2624 19.9649 11 19L11.2626 19.9649C10.962 20.0466 10.6402 19.9836 10.3927 19.7944C10.1452 19.6052 10 19.3115 10 19V15.4142ZM12 17.6233C12.1142 17.5812 12.2317 17.5363 12.3507 17.489C12.7794 17.3185 13.2053 17.1245 13.5554 16.9198C13.9299 16.7008 14.111 16.53 14.1684 16.4445C14.2189 16.3684 14.2678 16.2267 14.2555 15.9694C14.2431 15.7114 14.1715 15.4093 14.061 15.0968C14.0297 15.0083 13.9964 14.922 13.9622 14.8389C13.3152 15.1608 12.6234 15.4446 12 15.6874V17.6233ZM9.17302 10.0428C9.08634 10.0068 8.99595 9.97178 8.90317 9.93897C8.59068 9.82848 8.28858 9.75691 8.03057 9.7445C7.77323 9.73213 7.63149 9.78108 7.55536 9.83157C7.46991 9.88908 7.29914 10.0702 7.08015 10.4446C6.87544 10.7946 6.68146 11.2205 6.51096 11.6493C6.46364 11.7683 6.41879 11.8858 6.37664 12H8.31573C8.56074 11.3785 8.84763 10.6874 9.17302 10.0428Z" fill="#515164"/>
<path d="M3.67286 17.4406C3.79118 16.0602 4.94616 15 6.33156 15C7.8053 15 9 16.1947 9 17.6685C9 19.0539 7.93979 20.2089 6.55945 20.3272L4.58541 20.4964C4.29151 20.5216 4.00148 20.4157 3.7929 20.2071C3.58432 19.9986 3.47847 19.7085 3.50366 19.4146L3.67286 17.4406ZM6.33156 17C5.98452 17 5.6952 17.2656 5.66556 17.6114L5.59777 18.4023L6.38864 18.3345C6.73442 18.3048 7 18.0155 7 17.6685C7 17.2993 6.70073 17 6.33156 17Z" fill="#515164"/>
</svg>
