<svg width="24" height="24" viewBox="0 0 24 24" fill="none" xmlns="http://www.w3.org/2000/svg">
<path fill-rule="evenodd" clip-rule="evenodd" d="M11.0904 9.9972C12.0459 8.46088 12.9688 7.39752 14.1469 6.70453C15.1988 6.08577 16.5102 5.72978 18.3369 5.66196C18.2789 7.0901 18.0224 8.38276 17.4644 9.52175C16.8269 10.8229 15.7742 11.9682 14.0747 12.8902C14.0619 12.8971 14.0495 12.9044 14.0372 12.9122C13.2382 13.4174 12.1536 13.8606 11.1616 14.2423L9.75905 12.8397C10.1409 11.8599 10.5829 10.79 11.0859 10.0044L11.0859 10.0044L11.0904 9.9972ZM8.73077 13.6499L10.35 15.2692V18.9999C10.35 19.2024 10.4444 19.3934 10.6053 19.5163C10.7661 19.6393 10.9751 19.6803 11.1705 19.6272L11 18.9999C11.1705 19.6272 11.1706 19.6271 11.1707 19.6271L11.171 19.627L11.1718 19.6268L11.1742 19.6262L11.1825 19.6239L11.2127 19.6155C11.2386 19.6082 11.2759 19.5976 11.3232 19.5838C11.4179 19.5562 11.5527 19.5158 11.7164 19.4639C12.0431 19.3604 12.4885 19.2098 12.9604 19.0222C13.4298 18.8355 13.9394 18.6066 14.3884 18.3441C14.8208 18.0911 15.2695 17.766 15.5403 17.3614L15.5408 17.3605C15.8506 16.8959 15.9265 16.3661 15.9036 15.8901C15.8807 15.4141 15.7575 14.9449 15.6167 14.5468C15.5039 14.2277 15.3741 13.9384 15.2593 13.7063C16.8609 12.7192 17.9434 11.4987 18.6318 10.0937C19.3926 8.54079 19.65 6.80731 19.65 5.00004C19.65 4.64105 19.359 4.35004 19 4.35004C16.6792 4.35004 14.9281 4.73674 13.4878 5.58401C12.2097 6.33579 11.2317 7.41814 10.3233 8.78598C10.0877 8.66496 9.78996 8.52603 9.46038 8.40514C9.06233 8.25914 8.59273 8.13005 8.11582 8.10271C7.63882 8.07536 7.1065 8.14774 6.63946 8.4591L6.6386 8.45967C6.2339 8.7304 5.9088 9.1791 5.65588 9.61155C5.3933 10.0605 5.1644 10.5702 4.97774 11.0395C4.7901 11.5114 4.63953 11.9569 4.53602 12.2835C4.48414 12.4472 4.44377 12.5821 4.41618 12.6767C4.40238 12.724 4.39176 12.7614 4.38448 12.7873L4.37607 12.8174L4.37377 12.8258L4.37311 12.8282L4.3729 12.8289L4.37283 12.8292C4.3728 12.8293 4.37278 12.8294 5.00001 12.9999L4.37278 12.8294C4.31965 13.0248 4.36063 13.2338 4.48361 13.3947C4.60659 13.5556 4.79751 13.6499 5.00001 13.6499H8.73077ZM12.48 17.8142C12.1849 17.9316 11.8991 18.0339 11.65 18.1179V15.4475C12.4341 15.1458 13.3389 14.7811 14.131 14.3586C14.218 14.5398 14.3106 14.7525 14.391 14.9801C14.5079 15.3108 14.5905 15.6483 14.6051 15.9526C14.6197 16.2566 14.5649 16.4806 14.4594 16.639C14.3569 16.7919 14.1192 16.9955 13.7321 17.2219C13.3611 17.4389 12.9174 17.6403 12.48 17.8142ZM9.01271 9.62563C9.24381 9.7104 9.45965 9.8077 9.64276 9.89862C9.22074 10.681 8.85615 11.5758 8.55456 12.3499H5.88202C5.96605 12.1008 6.06838 11.815 6.18573 11.5199C6.35966 11.0826 6.56105 10.6389 6.77804 10.2679C7.00444 9.88078 7.208 9.64304 7.36093 9.54052C7.51695 9.43666 7.73836 9.3832 8.04141 9.40058C8.34479 9.41797 8.68192 9.5043 9.01271 9.62563ZM8.65001 17.6685C8.65001 16.388 7.61201 15.35 6.33156 15.35C5.12787 15.35 4.12439 16.2712 4.02159 17.4704L3.85238 19.4445C3.83601 19.6355 3.90481 19.824 4.04039 19.9596C4.17597 20.0952 4.36448 20.164 4.55552 20.1476L6.52956 19.9784C7.72886 19.8756 8.65001 18.8721 8.65001 17.6685ZM5.31684 17.5815C5.362 17.0546 5.80281 16.65 6.33156 16.65C6.89404 16.65 7.35001 17.106 7.35001 17.6685C7.35001 18.1972 6.94536 18.638 6.41854 18.6832L5.21355 18.7865L5.31684 17.5815Z" fill="black"/>
</svg>
