<svg width="24" height="24" viewBox="0 0 24 24" fill="none" xmlns="http://www.w3.org/2000/svg">
<path d="M16 19V19C17.6569 19 19 17.6569 19 16V10.2426C19 9.44699 18.6839 8.68393 18.1213 8.12132L15.8787 5.87868C15.3161 5.31607 14.553 5 13.7574 5H8V5C6.34315 5 5 6.34315 5 8V16C5 17.6569 6.34315 19 8 19V19M16 19V16C16 14.8954 15.1046 14 14 14H10C8.89543 14 8 14.8954 8 16V19M16 19H8" stroke="black" stroke-width="1.3" stroke-linecap="round" stroke-linejoin="round"/>
<path d="M15 6V10H9V6" stroke="black" stroke-width="1.3" stroke-linecap="round" stroke-linejoin="round"/>
</svg>
