<svg width="24" height="24" viewBox="0 0 24 24" fill="none" xmlns="http://www.w3.org/2000/svg">
<path fill-rule="evenodd" clip-rule="evenodd" d="M5.65 8.00001C5.65 6.70214 6.70213 5.65001 8 5.65001H8.45218C8.3875 5.75104 8.35 5.87114 8.35 6.00001V10C8.35 10.359 8.64101 10.65 9 10.65H15C15.359 10.65 15.65 10.359 15.65 10V6.56924L17.6617 8.58095C18.1024 9.02166 18.35 9.61939 18.35 10.2426V16C18.35 17.0724 17.6317 17.977 16.65 18.259V16C16.65 14.5365 15.4636 13.35 14 13.35H10C8.53644 13.35 7.35 14.5365 7.35 16V18.259C6.36829 17.977 5.65 17.0724 5.65 16V8.00001ZM14.4038 5.74066C14.1954 5.68103 13.978 5.65001 13.7574 5.65001H9.54782C9.6125 5.75104 9.65 5.87114 9.65 6.00001V9.35001H14.35V6.00001C14.35 5.90782 14.3692 5.82011 14.4038 5.74066ZM15.35 16V18.35H8.65V16C8.65 15.2544 9.25441 14.65 10 14.65H14C14.7456 14.65 15.35 15.2544 15.35 16ZM8 4.35001C5.98416 4.35001 4.35 5.98417 4.35 8.00001V16C4.35 18.0158 5.98416 19.65 8 19.65H16C18.0158 19.65 19.65 18.0158 19.65 16V10.2426C19.65 9.27461 19.2654 8.34622 18.5809 7.66171L16.3383 5.41907C15.6538 4.73456 14.7254 4.35001 13.7574 4.35001H8Z" fill="black"/>
</svg>
