<svg width="24" height="24" viewBox="0 0 24 24" fill="none" xmlns="http://www.w3.org/2000/svg">
<path fill-rule="evenodd" clip-rule="evenodd" d="M14.2477 4.37208C13.2099 2.71033 10.7901 2.71033 9.75231 4.37208L9.01233 5.55698C8.77448 5.93786 8.36281 6.17553 7.91403 6.19109L6.51789 6.23947C4.55989 6.30732 3.34995 8.403 4.27019 10.1326L4.92636 11.3659C5.13728 11.7623 5.13728 12.2377 4.92636 12.6341L4.27019 13.8674C3.34995 15.597 4.55989 17.6927 6.51789 17.7605L7.91403 17.8089C8.36281 17.8245 8.77448 18.0621 9.01233 18.443L9.75231 19.6279C10.7901 21.2897 13.2099 21.2897 14.2477 19.6279L14.9877 18.443C15.2255 18.0621 15.6372 17.8245 16.086 17.8089L17.4821 17.7605C19.4401 17.6927 20.6501 15.597 19.7298 13.8674L19.0737 12.6341C18.8627 12.2377 18.8627 11.7623 19.0737 11.3659L19.7298 10.1326C20.6501 8.403 19.4401 6.30732 17.4821 6.23947L16.086 6.19109C15.6372 6.17553 15.2255 5.93786 14.9877 5.55698L14.2477 4.37208ZM10.855 5.06068C11.3836 4.21412 12.6164 4.21412 13.1451 5.06068L13.885 6.24558C14.3519 6.99323 15.16 7.45978 16.041 7.49031L17.4371 7.53869C18.4346 7.57326 19.051 8.64086 18.5822 9.52198L17.926 10.7553C17.512 11.5334 17.512 12.4665 17.926 13.2447L18.5822 14.478C19.051 15.3591 18.4346 16.4267 17.4371 16.4613L16.041 16.5097C15.16 16.5402 14.3519 17.0068 13.885 17.7544L13.1451 18.9393C12.6164 19.7859 11.3836 19.7859 10.855 18.9393L10.115 17.7544C9.64808 17.0068 8.83999 16.5402 7.95906 16.5097L6.56291 16.4613C5.56544 16.4267 4.94906 15.3591 5.41786 14.478L6.07403 13.2447C6.48805 12.4665 6.48805 11.5334 6.07403 10.7553L5.41786 9.52198C4.94906 8.64086 5.56544 7.57325 6.56291 7.53869L7.95906 7.49031C8.83999 7.45978 9.64808 6.99323 10.115 6.24558L10.855 5.06068ZM10.1495 12C10.1495 10.9783 10.9778 10.15 11.9995 10.15C13.0212 10.15 13.8495 10.9783 13.8495 12C13.8495 13.0217 13.0212 13.85 11.9995 13.85C10.9778 13.85 10.1495 13.0217 10.1495 12ZM11.9995 8.84999C10.2598 8.84999 8.84952 10.2603 8.84952 12C8.84952 13.7397 10.2598 15.15 11.9995 15.15C13.7392 15.15 15.1495 13.7397 15.1495 12C15.1495 10.2603 13.7392 8.84999 11.9995 8.84999Z" fill="black"/>
</svg>
