<svg width="24" height="24" viewBox="0 0 24 24" fill="none" xmlns="http://www.w3.org/2000/svg">
<path d="M10.039 2.95584C11.2566 2.27091 12.7434 2.27091 13.961 2.95584L18.961 5.76834C20.2206 6.47681 21 7.80954 21 9.25464V14.7456C21 16.1906 20.2206 17.5234 18.961 18.2319L13.961 21.0444C12.7434 21.7293 11.2566 21.7293 10.039 21.0444L5.03896 18.2319C3.77945 17.5234 3 16.1906 3 14.7456V9.25464C3 7.80954 3.77945 6.47681 5.03896 5.76834L10.039 2.95584ZM12.9805 4.69899C12.3717 4.35652 11.6283 4.35652 11.0195 4.69899L6.09078 7.47138L12.0002 10.8482L17.9094 7.47148L12.9805 4.69899ZM5 9.25464V14.7456C5 15.4681 5.38972 16.1345 6.01948 16.4887L11.0002 19.2903V12.5802L5.00257 9.15305C5.00086 9.18677 5 9.22064 5 9.25464ZM15 18.1652V15.0662C15 14.7149 15.1843 14.3894 15.4855 14.2087L16.7428 13.4543C17.076 13.2544 17.5 13.4944 17.5 13.8831V16.759L17.9805 16.4887C18.6103 16.1345 19 15.4681 19 14.7456V9.25464C19 9.22071 18.9991 9.1869 18.9974 9.15324L13.0002 12.5802V19.2902L15 18.1652Z" fill="#515164"/>
</svg>
