<svg width="24" height="24" viewBox="0 0 24 24" fill="none" xmlns="http://www.w3.org/2000/svg">
<path d="M12 6C10.8133 6 9.65328 6.35189 8.66658 7.01118C7.67989 7.67047 6.91085 8.60754 6.45673 9.7039C6.0026 10.8003 5.88378 12.0067 6.11529 13.1705C6.3468 14.3344 6.91825 15.4035 7.75736 16.2426C8.59648 17.0818 9.66558 17.6532 10.8295 17.8847C11.9933 18.1162 13.1997 17.9974 14.2961 17.5433C15.3925 17.0892 16.3295 16.3201 16.9888 15.3334C17.6481 14.3467 18 13.1867 18 12C18 11.4477 18.4477 11 19 11C19.5523 11 20 11.4477 20 12C20 13.5823 19.5308 15.129 18.6518 16.4446C17.7727 17.7602 16.5233 18.7855 15.0615 19.391C13.5997 19.9965 11.9911 20.155 10.4393 19.8463C8.88743 19.5376 7.46197 18.7757 6.34315 17.6569C5.22433 16.538 4.4624 15.1126 4.15372 13.5607C3.84504 12.0089 4.00347 10.4003 4.60897 8.93853C5.21447 7.47672 6.23985 6.22729 7.55544 5.34824C8.87104 4.46919 10.4178 4 12 4C12.5523 4 13 4.44772 13 5C13 5.55228 12.5523 6 12 6Z" fill="#515164"/>
</svg>
