<svg width="24" height="24" viewBox="0 0 24 24" fill="none" xmlns="http://www.w3.org/2000/svg">
<path fill-rule="evenodd" clip-rule="evenodd" d="M11.5391 4.10845C11.8282 3.96385 12.1669 3.96385 12.4561 4.10845C12.6966 4.22873 12.8295 4.43653 12.9008 4.55867C12.9757 4.68708 13.0538 4.8529 13.1345 5.02446L13.1449 5.0467L14.847 8.66357L18.6417 9.24535L18.6666 9.24916C18.8456 9.27657 19.0229 9.30372 19.1655 9.33968C19.3067 9.3753 19.5399 9.4471 19.7207 9.64735C19.9315 9.88069 20.0252 10.1936 19.9867 10.4989C19.9542 10.7577 19.814 10.9489 19.721 11.0629C19.6272 11.1779 19.5002 11.3076 19.3698 11.4408L19.3526 11.4583L16.5947 14.2759C16.593 14.2776 16.5914 14.2793 16.5897 14.281C16.5905 14.2856 16.5913 14.2905 16.5921 14.2955L17.2429 18.2753L17.2468 18.2991C17.2777 18.4883 17.3074 18.6698 17.3187 18.819C17.3296 18.9634 17.3368 19.202 17.2171 19.4332C17.0735 19.7105 16.811 19.9173 16.4925 19.9792C16.222 20.0318 15.9881 19.9421 15.858 19.8854C15.723 19.8267 15.565 19.7395 15.4046 19.651L15.3825 19.6388L11.9976 17.7717L8.61264 19.6388L8.59058 19.651C8.43018 19.7395 8.27213 19.8267 8.13718 19.8854C8.00709 19.9421 7.77317 20.0318 7.50272 19.9792C7.18414 19.9173 6.92171 19.7105 6.77813 19.4332C6.65841 19.202 6.66558 18.9634 6.67648 18.819C6.68774 18.6698 6.71745 18.4883 6.7484 18.2991L6.75231 18.2753L7.40306 14.2955C7.40388 14.2905 7.40467 14.2856 7.40543 14.281C7.40382 14.2793 7.40218 14.2776 7.40051 14.2759L4.64254 11.4583L4.62536 11.4408C4.49496 11.3076 4.36799 11.1779 4.27414 11.0629C4.18122 10.9489 4.04102 10.7577 4.00844 10.4989C3.96999 10.1936 4.06368 9.88069 4.27444 9.64735C4.45531 9.4471 4.68848 9.3753 4.8297 9.33968C4.97227 9.30372 5.14958 9.27657 5.3286 9.24916C5.33689 9.24789 5.34518 9.24662 5.35347 9.24535L9.14816 8.66357L10.8503 5.0467C10.8538 5.03927 10.8572 5.03186 10.8607 5.02446C10.9414 4.8529 11.0194 4.68708 11.0944 4.55867C11.1657 4.43653 11.2986 4.22873 11.5391 4.10845ZM11.9976 5.66171L10.322 9.22235C10.3186 9.22952 10.3149 9.23742 10.311 9.24596C10.2726 9.32878 10.2066 9.47138 10.1021 9.58939C10.0123 9.69078 9.90295 9.77471 9.77927 9.83504C9.63302 9.90638 9.47424 9.92954 9.38761 9.94218C9.37873 9.94347 9.3706 9.94466 9.36332 9.94578L5.55295 10.53C5.55905 10.5362 5.56525 10.5425 5.57156 10.549L8.32952 13.3666C8.33498 13.3722 8.341 13.3782 8.3475 13.3848C8.4114 13.4493 8.5214 13.5603 8.59584 13.7005C8.65879 13.8191 8.69852 13.9481 8.71381 14.0803C8.73171 14.2352 8.70592 14.3875 8.69039 14.4792C8.68881 14.4886 8.68733 14.4973 8.68602 14.5053L8.0375 18.4714L11.3934 16.6203C11.3999 16.6167 11.4072 16.6126 11.4151 16.6082C11.4919 16.5651 11.6326 16.4861 11.7916 16.4534C11.9276 16.4254 12.0676 16.4254 12.2036 16.4534C12.3626 16.4861 12.5033 16.5651 12.5801 16.6082C12.588 16.6126 12.5953 16.6167 12.6018 16.6203L15.9577 18.4714L15.3092 14.5053C15.3078 14.4973 15.3064 14.4886 15.3048 14.4792C15.2893 14.3875 15.2635 14.2352 15.2814 14.0803C15.2967 13.9481 15.3364 13.8191 15.3993 13.7005C15.4738 13.5603 15.5838 13.4493 15.6477 13.3848C15.6542 13.3782 15.6602 13.3722 15.6657 13.3666L18.4236 10.549C18.4299 10.5425 18.4361 10.5362 18.4422 10.53L14.6319 9.94578C14.6246 9.94466 14.6164 9.94347 14.6076 9.94218C14.5209 9.92954 14.3622 9.90638 14.2159 9.83504C14.0922 9.77471 13.9829 9.69078 13.8931 9.58939C13.7886 9.47138 13.7226 9.32878 13.6842 9.24596C13.6803 9.23742 13.6766 9.22952 13.6732 9.22235L11.9976 5.66171Z" fill="#0D1625"/>
</svg>
