<svg width="24" height="24" viewBox="0 0 24 24" fill="none" xmlns="http://www.w3.org/2000/svg">
<path d="M11.5495 4.45657C11.8336 4.31449 12.1664 4.31449 12.4505 4.45657C12.6882 4.57541 12.8186 4.78023 12.887 4.89749C12.9592 5.02106 13.034 5.18019 13.1106 5.34302L14.7355 8.79579L18.3589 9.3513C18.5287 9.37731 18.699 9.40338 18.8363 9.43801C18.9722 9.4723 19.2019 9.54251 19.3806 9.74033C19.5875 9.96943 19.6794 10.2765 19.6417 10.5761C19.6095 10.8315 19.4713 11.0193 19.3819 11.1289C19.2916 11.2396 19.1697 11.3641 19.046 11.4905L19.0459 11.4905L16.4078 14.1857L17.0313 17.9992C17.0607 18.1787 17.0892 18.3529 17.1 18.4964C17.1105 18.6351 17.118 18.8698 16.9998 19.098C16.8589 19.3701 16.6012 19.5733 16.2881 19.6342C16.0208 19.6862 15.7906 19.5973 15.6655 19.5429C15.5356 19.4863 15.3838 19.4026 15.2316 19.3186L12 17.536L8.76837 19.3186C8.61616 19.4026 8.46442 19.4863 8.3345 19.5429C8.20944 19.5973 7.97922 19.6862 7.71191 19.6342C7.3988 19.5733 7.14108 19.3701 7.00016 19.098C6.88196 18.8698 6.88949 18.6351 6.89996 18.4964C6.91079 18.3529 6.9393 18.1787 6.96867 17.9992L6.96868 17.9992L7.59224 14.1857L4.95406 11.4905L4.95405 11.4905C4.8303 11.3641 4.70842 11.2396 4.6181 11.1289C4.52873 11.0193 4.39045 10.8315 4.35829 10.5761C4.32058 10.2765 4.41246 9.96944 4.6194 9.74033C4.79807 9.54251 5.02777 9.4723 5.16369 9.43801C5.30099 9.40338 5.47126 9.37731 5.64114 9.3513L5.66555 9.34756L9.26452 8.79579L10.8791 5.36484L10.8894 5.34299C10.966 5.18017 11.0409 5.02105 11.113 4.89749C11.1814 4.78023 11.3118 4.57541 11.5495 4.45657Z" fill="#0D1625"/>
</svg>
