<svg width="24" height="24" viewBox="0 0 24 24" fill="none" xmlns="http://www.w3.org/2000/svg">
<path d="M18.1602 2.01292C18.4775 2.06441 18.7507 2.26529 18.8944 2.5528L19.7454 4.25466L21.4472 5.10558C21.7347 5.24934 21.9356 5.52254 21.9871 5.83983C22.0386 6.15712 21.9344 6.47982 21.7071 6.70712L18.7071 9.70712C18.5196 9.89466 18.2652 10 18 10H15.4142L12.7071 12.7071C12.3166 13.0976 11.6834 13.0976 11.2929 12.7071C10.9024 12.3166 10.9024 11.6834 11.2929 11.2929L14 8.5858V6.00001C14 5.7348 14.1054 5.48044 14.2929 5.29291L17.2929 2.29291C17.5202 2.06561 17.8429 1.96144 18.1602 2.01292ZM16 8.00001H17.5858L19.3118 6.27396L18.5528 5.89444C18.3593 5.79768 18.2023 5.64075 18.1056 5.44723L17.726 4.68818L16 6.41423V8.00001Z" fill="#515164"/>
<path d="M12 6.00001C8.68629 6.00001 6 8.6863 6 12C6 15.3137 8.68629 18 12 18C15.3137 18 18 15.3137 18 12C18 11.4477 18.4477 11 19 11C19.5523 11 20 11.4477 20 12C20 16.4183 16.4183 20 12 20C7.58172 20 4 16.4183 4 12C4 7.58173 7.58172 4.00001 12 4.00001C12.5523 4.00001 13 4.44773 13 5.00001C13 5.5523 12.5523 6.00001 12 6.00001Z" fill="#515164"/>
<path d="M12 9.50001C10.6193 9.50001 9.5 10.6193 9.5 12C9.5 13.3807 10.6193 14.5 12 14.5C13.3807 14.5 14.5 13.3807 14.5 12C14.5 11.4477 14.9477 11 15.5 11C16.0523 11 16.5 11.4477 16.5 12C16.5 14.4853 14.4853 16.5 12 16.5C9.51472 16.5 7.5 14.4853 7.5 12C7.5 9.51473 9.51472 7.50001 12 7.50001C12.5523 7.50001 13 7.94773 13 8.50001C13 9.0523 12.5523 9.50001 12 9.50001Z" fill="#515164"/>
</svg>
