<svg width="24" height="24" viewBox="0 0 24 24" fill="none" xmlns="http://www.w3.org/2000/svg">
<path d="M10.2881 5.98753C10.7213 5.36861 11.4293 5 12.1848 5C13.4634 5 14.5 6.03656 14.5 7.31522V9H17.9384C19.8902 9 21.3222 10.8342 20.8489 12.7276L20.0382 15.9701C19.5931 17.7508 17.9931 19 16.1577 19H6C4.34315 19 3 17.6569 3 16V13C3 11.3431 4.34315 10 6 10H7.47934L10.2881 5.98753ZM7 12H6C5.44772 12 5 12.4477 5 13V16C5 16.5523 5.44772 17 6 17H7V12ZM9 17H16.1577C17.0754 17 17.8754 16.3754 18.098 15.4851L18.9086 12.2425C19.0664 11.6114 18.589 11 17.9384 11H13.5C12.9477 11 12.5 10.5523 12.5 10V7.31522C12.5 7.14113 12.3589 7 12.1848 7C12.0819 7 11.9855 7.05019 11.9265 7.13445L9 11.3152V17Z" fill="#515164"/>
</svg>
