<svg width="24" height="24" viewBox="0 0 24 24" fill="none" xmlns="http://www.w3.org/2000/svg">
<g clip-path="url(#clip0_22951_31)">
<path d="M14 5.00007C14 4.56433 13.7178 4.17875 13.3025 4.04693C12.8872 3.91511 12.4343 4.0674 12.183 4.42339L6.18303 12.9234C5.9676 13.2286 5.94025 13.6284 6.11212 13.9601C6.28399 14.2918 6.62642 14.5001 7 14.5001H10V19.0001C10 19.4248 10.2682 19.8031 10.669 19.9437C11.0697 20.0843 11.5156 19.9564 11.7809 19.6248L17.7809 12.1248C18.021 11.8246 18.0678 11.4133 17.9013 11.0669C17.7348 10.7204 17.3844 10.5001 17 10.5001H14V5.00007ZM11 12.5001H8.92992L12 8.15079V11.5001C12 12.0524 12.4477 12.5001 13 12.5001H14.9194L12 16.1493V13.5001C12 12.9478 11.5523 12.5001 11 12.5001Z" fill="#515164"/>
</g>
<defs>
<clipPath id="clip0_22951_31">
<rect width="24" height="24" fill="white"/>
</clipPath>
</defs>
</svg>
