<svg width="24" height="24" viewBox="0 0 24 24" fill="none" xmlns="http://www.w3.org/2000/svg">
<path d="M13.3282 20.3969C12.5655 21.0822 11.408 21.0796 10.6483 20.3908L9.48146 19.333L8.30158 20.3443C7.00424 21.4563 5 20.5345 5 18.8258L5 6.99997C5 4.79083 6.79086 2.99997 9 2.99997L15 2.99997C17.2091 2.99997 19 4.79083 19 6.99997V18.8258C19 20.5345 16.9958 21.4563 15.6984 20.3443L14.5155 19.3303L13.3282 20.3969ZM11.9917 18.9091L13.1789 17.8425C13.9259 17.1715 15.0547 17.1583 15.8171 17.8118L17 18.8258V6.99997C17 5.8954 16.1046 4.99997 15 4.99997L9 4.99997C7.89543 4.99997 7 5.8954 7 6.99997L7 18.8258L8.17987 17.8144C8.94491 17.1587 10.0783 17.1745 10.8248 17.8512L11.9917 18.9091Z" fill="#515164"/>
<path d="M8 7.99999C8 7.4477 8.44772 6.99999 9 6.99999H15C15.5523 6.99999 16 7.4477 16 7.99999C16 8.55227 15.5523 8.99999 15 8.99999H9C8.44772 8.99999 8 8.55227 8 7.99999Z" fill="#515164"/>
<path d="M8 12C8 11.4477 8.44772 11 9 11H13C13.5523 11 14 11.4477 14 12C14 12.5523 13.5523 13 13 13H9C8.44772 13 8 12.5523 8 12Z" fill="#515164"/>
</svg>
