<svg width="24" height="24" viewBox="0 0 24 24" fill="none" xmlns="http://www.w3.org/2000/svg">
<path d="M4 8C4 5.79086 5.79086 4 8 4H16C18.2091 4 20 5.79086 20 8V16C20 18.2091 18.2091 20 16 20H8C5.79086 20 4 18.2091 4 16V8ZM8 6C6.89543 6 6 6.89543 6 8V16C6 16.7979 6.46725 17.4867 7.14306 17.8076C7.51944 16.2692 8.60764 15.0102 10.0388 14.3993C9.1102 13.77 8.5 12.7062 8.5 11.5C8.5 9.567 10.067 8 12 8C13.933 8 15.5 9.567 15.5 11.5C15.5 12.7062 14.8898 13.77 13.9612 14.3993C15.3924 15.0102 16.4806 16.2692 16.8569 17.8076C17.5327 17.4867 18 16.7979 18 16V8C18 6.89543 17.1046 6 16 6H8ZM14.8293 18C14.4175 16.8348 13.3062 16 12 16C10.6938 16 9.58254 16.8348 9.17071 18H14.8293ZM12 10C11.1716 10 10.5 10.6716 10.5 11.5C10.5 12.3284 11.1716 13 12 13C12.8284 13 13.5 12.3284 13.5 11.5C13.5 10.6716 12.8284 10 12 10Z" fill="#515164"/>
</svg>
