<svg width="24" height="24" viewBox="0 0 24 24" fill="none" xmlns="http://www.w3.org/2000/svg">
<path d="M17 13.7V10.8C17 9.11984 17 8.27976 16.673 7.63803C16.3854 7.07354 15.9265 6.6146 15.362 6.32698C14.7202 6 13.8802 6 12.2 6H9.5M14.6676 17.8965C14.0998 18 13.345 18 12.2 18H8.8C7.11984 18 6.27976 18 5.63803 17.673C5.07354 17.3854 4.6146 16.9265 4.32698 16.362C4 15.7202 4 14.8802 4 13.2V10.8C4 9.76415 4 9.04761 4.07662 8.5" stroke="black" stroke-width="1.3" stroke-linecap="round" stroke-linejoin="round"/>
<path d="M17 11L21 9V15L17 13V11Z" stroke="black" stroke-width="1.3" stroke-linecap="round" stroke-linejoin="round"/>
<path d="M5 5L18 18" stroke="black" stroke-width="1.3" stroke-linecap="round"/>
</svg>
