<svg width="24" height="24" viewBox="0 0 24 24" fill="none" xmlns="http://www.w3.org/2000/svg">
<path d="M11.6119 4.07836C11.8601 3.97388 12.1399 3.97388 12.3881 4.07836L21.8881 8.07836C22.2589 8.2345 22.5 8.59766 22.5 9C22.5 9.40234 22.2589 9.7655 21.8881 9.92164L20 10.7166V16C20 16.4 19.7616 16.7616 19.3939 16.9191L12.3939 19.9191C12.1424 20.027 11.8576 20.027 11.6061 19.9191L4.60608 16.9191C4.2384 16.7616 4 16.4 4 16V10.7166L2.11194 9.92164C1.74113 9.7655 1.5 9.40234 1.5 9C1.5 8.59766 1.74113 8.2345 2.11194 8.07836L11.6119 4.07836ZM17.0002 11.9797V13.5C17.0002 14.0523 16.5525 14.5 16.0002 14.5C15.4479 14.5 15.0002 14.0523 15.0002 13.5V12.8218L12.3881 13.9216C12.1399 14.0261 11.8601 14.0261 11.6119 13.9216L6 11.5587V15.3406L12 17.912L18 15.3406V11.5587L17.0002 11.9797ZM16.3788 10.0713L18.9231 9L12 6.08503L5.07694 9L12 11.915L13.9511 11.0935L11.553 9.8944C11.059 9.64741 10.8588 9.04674 11.1058 8.55276C11.3528 8.05878 11.9535 7.85856 12.4474 8.10555L16.3788 10.0713Z" fill="#515164"/>
</svg>
