<svg width="24" height="24" viewBox="0 0 24 24" fill="none" xmlns="http://www.w3.org/2000/svg">
<path d="M20.6164 5.86835C20.4794 4.77231 19.4798 3.99486 18.3838 4.13187L4.36835 5.8838C3.27231 6.0208 2.49486 7.02038 2.63187 8.11642L2.8838 10.1319C2.97334 10.8482 3.4313 11.4284 4.04384 11.7062C4.01534 11.7991 4 11.8978 4 12V15C4 17.2091 5.79086 19 8 19H16C18.2091 19 20 17.2091 20 15V12C20 11.4477 19.5523 11 19 11C18.4477 11 18 11.4477 18 12V15C18 16.1046 17.1046 17 16 17H8C6.89543 17 6 16.1046 6 15V12C6 11.9178 5.99008 11.8379 5.97138 11.7615L19.1319 10.1164C20.2279 9.97942 21.0054 8.97984 20.8684 7.8838L20.6164 5.86835ZM4.61642 7.86835L18.6319 6.11642L18.8838 8.13187L4.86835 9.8838L4.61642 7.86835Z" fill="#515164"/>
<path d="M9 14C9 13.4477 9.44772 13 10 13H14C14.5523 13 15 13.4477 15 14C15 14.5523 14.5523 15 14 15H10C9.44772 15 9 14.5523 9 14Z" fill="#515164"/>
</svg>
