<svg width="24" height="24" viewBox="0 0 24 24" fill="none" xmlns="http://www.w3.org/2000/svg">
<path d="M7.36754 5.73509C7.912 4.10172 9.44056 3 11.1623 3H14C14.5523 3 15 3.44772 15 4C15 4.55228 14.5523 5 14 5H11.1623C10.3014 5 9.53714 5.55086 9.26491 6.36754L9.17661 6.63246C8.90438 7.44914 8.1401 8 7.27924 8H7C5.89543 8 5 8.89543 5 10V15C5 16.1046 5.89543 17 7 17H17C18.1046 17 19 16.1046 19 15V10C19 9.44772 19.4477 9 20 9C20.5523 9 21 9.44772 21 10V15C21 17.2091 19.2091 19 17 19H7C4.79086 19 3 17.2091 3 15V10C3 7.79086 4.79086 6 7 6L7.27924 6L7.36754 5.73509Z" fill="#515164"/>
<path d="M12 10C10.8954 10 10 10.8954 10 12C10 13.1046 10.8954 14 12 14C13.1046 14 14 13.1046 14 12C14 10.8954 13.1046 10 12 10ZM8 12C8 9.79086 9.79086 8 12 8C14.2091 8 16 9.79086 16 12C16 14.2091 14.2091 16 12 16C9.79086 16 8 14.2091 8 12Z" fill="#515164"/>
<path d="M17.5 4C18.0523 4 18.5 4.44772 18.5 5V5.5H19C19.5523 5.5 20 5.94772 20 6.5C20 7.05228 19.5523 7.5 19 7.5H18.5V8C18.5 8.55228 18.0523 9 17.5 9C16.9477 9 16.5 8.55228 16.5 8V7.5H16C15.4477 7.5 15 7.05228 15 6.5C15 5.94772 15.4477 5.5 16 5.5H16.5V5C16.5 4.44772 16.9477 4 17.5 4Z" fill="#515164"/>
</svg>
