<svg width="24" height="24" viewBox="0 0 24 24" fill="none" xmlns="http://www.w3.org/2000/svg">
<path d="M20.1 7.2C20.5418 7.53138 20.6314 8.15818 20.3 8.6L12.8 18.6C12.4686 19.0418 11.8418 19.1314 11.4 18.8C10.9582 18.4686 10.8686 17.8418 11.2 17.4L18.7 7.4C19.0314 6.95818 19.6582 6.86863 20.1 7.2Z" fill="#515164"/>
<path d="M16.0932 6.69495C16.5378 7.02256 16.6327 7.64858 16.3051 8.0932L9.9949 16.657C9.26887 17.6423 7.83603 17.7502 6.97058 16.8848L3.79289 13.7071C3.40237 13.3166 3.40237 12.6834 3.79289 12.2929C4.18342 11.9024 4.81658 11.9024 5.20711 12.2929L8.38479 15.4706L14.6949 6.90681C15.0226 6.46219 15.6486 6.36733 16.0932 6.69495Z" fill="#515164"/>
</svg>
