<svg width="24" height="24" viewBox="0 0 24 24" fill="none" xmlns="http://www.w3.org/2000/svg">
<path d="M12 18C8.68629 18 6 15.3137 6 12C6 8.68629 8.68629 6 12 6C15.3137 6 18 8.68629 18 12C18 15.3137 15.3137 18 12 18ZM12 20C16.4183 20 20 16.4183 20 12C20 7.58172 16.4183 4 12 4C7.58172 4 4 7.58172 4 12C4 16.4183 7.58172 20 12 20Z" fill="#515164"/>
<path d="M15.1 9.2C15.5418 9.53137 15.6314 10.1582 15.3 10.6L12.3 14.6C12.1261 14.8319 11.8601 14.9769 11.5709 14.9975C11.2817 15.018 10.9979 14.9121 10.7929 14.7071L8.79289 12.7071C8.40237 12.3166 8.40237 11.6834 8.79289 11.2929C9.18342 10.9024 9.81658 10.9024 10.2071 11.2929L11.3918 12.4776L13.7 9.4C14.0314 8.95817 14.6582 8.86863 15.1 9.2Z" fill="#515164"/>
</svg>
