<svg width="24" height="24" viewBox="0 0 24 24" fill="none" xmlns="http://www.w3.org/2000/svg">
<path d="M7.08376 9.08376C7.51413 6.75992 9.55154 5 12 5C14.4485 5 16.4859 6.75992 16.9162 9.08376C19.2401 9.51413 21 11.5515 21 14C21 16.7614 18.7614 19 16 19H8C5.23858 19 3 16.7614 3 14C3 11.5515 4.75992 9.51413 7.08376 9.08376ZM12 7C10.3431 7 9 8.34315 9 10C9 10.5523 8.55228 11 8 11C6.34315 11 5 12.3431 5 14C5 15.6569 6.34315 17 8 17H16C17.6569 17 19 15.6569 19 14C19 12.3431 17.6569 11 16 11C15.4477 11 15 10.5523 15 10C15 8.34315 13.6569 7 12 7Z" fill="#515164"/>
</svg>
