<svg width="24" height="24" viewBox="0 0 24 24" fill="none" xmlns="http://www.w3.org/2000/svg">
<path d="M16.7071 5.29289C17.0976 5.68342 17.0976 6.31658 16.7071 6.70711L6.70711 16.7071C6.31658 17.0976 5.68342 17.0976 5.29289 16.7071C4.90237 16.3166 4.90237 15.6834 5.29289 15.2929L15.2929 5.29289C15.6834 4.90237 16.3166 4.90237 16.7071 5.29289ZM17.7071 10.7929C18.0976 11.1834 18.0976 11.8166 17.7071 12.2071L12.2071 17.7071C11.8166 18.0976 11.1834 18.0976 10.7929 17.7071C10.4024 17.3166 10.4024 16.6834 10.7929 16.2929L16.2929 10.7929C16.6834 10.4024 17.3166 10.4024 17.7071 10.7929Z" fill="#515164"/>
</svg>
