<svg width="24" height="24" viewBox="0 0 24 24" fill="none" xmlns="http://www.w3.org/2000/svg">
<path d="M3 9C3 6.79086 4.79086 5 7 5H17C19.2091 5 21 6.79086 21 9V15C21 17.2091 19.2091 19 17 19H7C4.79086 19 3 17.2091 3 15V9ZM7 7C5.89543 7 5 7.89543 5 9H19C19 7.89543 18.1046 7 17 7H7ZM19 11H5V15C5 16.1046 5.89543 17 7 17H17C18.1046 17 19 16.1046 19 15V11Z" fill="#515164"/>
<path d="M6 14C6 13.4477 6.44772 13 7 13H10C10.5523 13 11 13.4477 11 14C11 14.5523 10.5523 15 10 15H7C6.44772 15 6 14.5523 6 14Z" fill="#515164"/>
</svg>
