<svg width="24" height="24" viewBox="0 0 24 24" fill="none" xmlns="http://www.w3.org/2000/svg">
<path d="M20 12C20 16.4183 16.4183 20 12 20C7.58172 20 4 16.4183 4 12C4 7.58172 7.58172 4 12 4C16.4183 4 20 7.58172 20 12ZM18 12C18 10.7042 17.5892 9.50436 16.8908 8.52355L8.52355 16.8908C9.50436 17.5892 10.7042 18 12 18C15.3137 18 18 15.3137 18 12ZM7.10931 15.4766L15.4766 7.10931C14.4958 6.41082 13.2959 6 12 6C8.68629 6 6 8.68629 6 12C6 13.2959 6.41082 14.4958 7.10931 15.4766Z" fill="#515164"/>
</svg>
