<svg width="24" height="24" viewBox="0 0 24 24" fill="none" xmlns="http://www.w3.org/2000/svg">
<path fill-rule="evenodd" clip-rule="evenodd" d="M9 3C6.79086 3 5 4.79086 5 7V17C5 19.2091 6.79086 21 9 21C9.55228 21 10 20.5523 10 20C10 19.4477 9.55228 19 9 19C7.89543 19 7 18.1046 7 17V7C7 5.89543 7.89543 5 9 5H12.7574C13.2878 5 13.7965 5.21071 14.1716 5.58579L16.4142 7.82843C16.7893 8.2035 17 8.71221 17 9.24264V10C17 10.5523 17.4477 11 18 11C18.5523 11 19 10.5523 19 10V9.24264C19 8.18177 18.5786 7.16436 17.8284 6.41421L15.5858 4.17157C14.8356 3.42143 13.8182 3 12.7574 3H9ZM10 11C9.44772 11 9 11.4477 9 12C9 12.5523 9.44772 13 10 13H14C14.5523 13 15 12.5523 15 12C15 11.4477 14.5523 11 14 11H10ZM9 16C9 15.4477 9.44772 15 10 15H12C12.5523 15 13 15.4477 13 16C13 16.5523 12.5523 17 12 17H10C9.44772 17 9 16.5523 9 16ZM22.9571 12.5429C21.8762 11.462 20.1238 11.462 19.0429 12.5429L12.7929 18.7929C12.6455 18.9403 12.5479 19.13 12.5136 19.3356L12.0136 22.3356C11.9605 22.6542 12.0645 22.9788 12.2929 23.2071C12.5213 23.4355 12.8458 23.5395 13.1644 23.4864L16.1644 22.9864C16.37 22.9521 16.5597 22.8545 16.7071 22.7071L22.9571 16.4571C24.038 15.3762 24.038 13.6238 22.9571 12.5429ZM20.4571 13.9571C20.7569 13.6573 21.2431 13.6573 21.5429 13.9571C21.8427 14.2569 21.8427 14.7431 21.5429 15.0429L15.5195 21.0663L14.2166 21.2835L14.4337 19.9805L20.4571 13.9571Z" fill="#515164"/>
</svg>
