<svg width="24" height="24" viewBox="0 0 24 24" fill="none" xmlns="http://www.w3.org/2000/svg">
<path d="M13.7889 3.7763C12.6627 3.21324 11.3373 3.21324 10.2111 3.7763L4.10557 6.82908C3.428 7.16787 3 7.86039 3 8.61794V14.9999C3 17.209 4.79086 18.9999 7 18.9999H17C19.2091 18.9999 21 17.209 21 14.9999V8.61794C21 7.86039 20.572 7.16787 19.8944 6.82908L13.7889 3.7763ZM11.1056 5.56515C11.6686 5.28362 12.3314 5.28362 12.8944 5.56515L18.7639 8.49989L12.0558 11.8539C12.0207 11.8715 11.9792 11.8715 11.944 11.8539L5.23605 8.49991L11.1056 5.56515ZM5 10.618L11.0496 13.6428C11.6479 13.9419 12.352 13.9419 12.9503 13.6428L19 10.6179V14.9999C19 16.1045 18.1046 16.9999 17 16.9999H7C5.89543 16.9999 5 16.1045 5 14.9999V10.618Z" fill="#515164"/>
</svg>
