<svg width="24" height="24" viewBox="0 0 24 24" fill="none" xmlns="http://www.w3.org/2000/svg">
<path d="M7 5C4.79139 5 3.00086 6.79 3 8.99841L3 15C3 17.2091 4.79086 19 7 19H17C19.2091 19 21 17.2091 21 15V9.02875C21.0006 9.00754 21.0006 8.98627 20.9998 8.96497C20.981 6.77196 19.1975 5 17 5H7ZM18.9158 8.42413L12.0561 11.854C12.0209 11.8716 11.9795 11.8716 11.9443 11.854L5.08421 8.42394C5.33156 7.60018 6.09569 7 7 7H17C17.9044 7 18.6686 7.60027 18.9158 8.42413ZM5 10.6179L11.0499 13.6428C11.6481 13.942 12.3523 13.942 12.9505 13.6428L19 10.6181V15C19 16.1046 18.1046 17 17 17H7C5.89543 17 5 16.1046 5 15V10.6179Z" fill="#515164"/>
</svg>
