<svg width="24" height="24" viewBox="0 0 24 24" fill="none" xmlns="http://www.w3.org/2000/svg">
<path d="M6 3C4.34315 3 3 4.34315 3 6V15C3 17.2091 4.79086 19 7 19H17C19.2091 19 21 17.2091 21 15V11C21 9.13616 19.7252 7.57006 18 7.12602V6C18 4.34315 16.6569 3 15 3H6ZM16 7H6C5.44772 7 5 6.55228 5 6C5 5.44772 5.44772 5 6 5H15C15.5523 5 16 5.44772 16 6V7ZM5 8.82929C5.31278 8.93985 5.64936 9 6 9H17C18.1046 9 19 9.89543 19 11V15C19 16.1046 18.1046 17 17 17H7C5.89543 17 5 16.1046 5 15V8.82929Z" fill="#515164"/>
<path d="M18 13C18 13.8284 17.3284 14.5 16.5 14.5C15.6716 14.5 15 13.8284 15 13C15 12.1716 15.6716 11.5 16.5 11.5C17.3284 11.5 18 12.1716 18 13Z" fill="#515164"/>
</svg>
