<svg width="24" height="24" viewBox="0 0 24 24" fill="none" xmlns="http://www.w3.org/2000/svg">
<path d="M3.93841 6.69413C4.4745 6.43468 5.11942 6.65894 5.37887 7.19503C6.51772 9.54815 8.95428 11.5864 12.0002 11.5864C15.0461 11.5864 17.4826 9.54815 18.6215 7.19503C18.8809 6.65894 19.5258 6.43468 20.0619 6.69413C20.598 6.95359 20.8223 7.59851 20.5628 8.1346C20.156 8.97516 19.6089 9.79792 18.9385 10.5431L20.7064 12.3082C21.0972 12.6984 21.0977 13.3316 20.7075 13.7224C20.3172 14.1132 19.6841 14.1137 19.2933 13.7235L17.4619 11.8949C16.7705 12.4124 16.0005 12.8477 15.162 13.1656L16.1163 16.0177C16.2916 16.5414 16.009 17.1081 15.4853 17.2833C14.9616 17.4586 14.3949 17.1761 14.2197 16.6523L13.2187 13.6607C12.8232 13.7148 12.4168 13.7432 12.0002 13.7432C11.6055 13.7432 11.22 13.7177 10.8444 13.6691L9.84619 16.6523C9.67094 17.1761 9.1043 17.4586 8.58056 17.2833C8.05681 17.1081 7.7743 16.5414 7.94954 16.0177L8.89652 13.1875C8.03536 12.8677 7.24564 12.4243 6.53822 11.8948L4.70668 13.7235C4.31586 14.1137 3.68269 14.1132 3.29247 13.7224C2.90225 13.3316 2.90274 12.6984 3.29356 12.3082L5.06161 10.5429C4.39138 9.79777 3.84428 8.97508 3.43751 8.1346C3.17806 7.59851 3.40232 6.95359 3.93841 6.69413Z" fill="#515164"/>
</svg>
