<svg width="24" height="24" viewBox="0 0 24 24" fill="none" xmlns="http://www.w3.org/2000/svg">
<path fill-rule="evenodd" clip-rule="evenodd" d="M10 9C10.5523 9 11 9.44772 11 10V11C11 11.5523 10.5523 12 10 12C9.44772 12 9 11.5523 9 11V10C9 9.44772 9.44772 9 10 9Z" fill="#515164"/>
<path fill-rule="evenodd" clip-rule="evenodd" d="M14 9C14.5523 9 15 9.44772 15 10V11C15 11.5523 14.5523 12 14 12C13.4477 12 13 11.5523 13 11V10C13 9.44772 13.4477 9 14 9Z" fill="#515164"/>
<path fill-rule="evenodd" clip-rule="evenodd" d="M8.71913 13.3753C9.06414 12.944 9.69343 12.8741 10.1247 13.2191C11.2211 14.0962 12.7789 14.0962 13.8753 13.2191C14.3066 12.8741 14.9359 12.944 15.2809 13.3753C15.6259 13.8066 15.556 14.4359 15.1247 14.7809C13.2979 16.2423 10.7021 16.2423 8.8753 14.7809C8.44404 14.4359 8.37412 13.8066 8.71913 13.3753Z" fill="#515164"/>
<path fill-rule="evenodd" clip-rule="evenodd" d="M4 8C4 5.79086 5.79086 4 8 4C8.55228 4 9 4.44772 9 5C9 5.55228 8.55228 6 8 6C6.89543 6 6 6.89543 6 8C6 8.55228 5.55228 9 5 9C4.44772 9 4 8.55228 4 8ZM15 5C15 4.44772 15.4477 4 16 4C18.2091 4 20 5.79086 20 8C20 8.55228 19.5523 9 19 9C18.4477 9 18 8.55228 18 8C18 6.89543 17.1046 6 16 6C15.4477 6 15 5.55228 15 5ZM5 15C5.55228 15 6 15.4477 6 16C6 17.1046 6.89543 18 8 18C8.55228 18 9 18.4477 9 19C9 19.5523 8.55228 20 8 20C5.79086 20 4 18.2091 4 16C4 15.4477 4.44772 15 5 15ZM19 15C19.5523 15 20 15.4477 20 16C20 18.2091 18.2091 20 16 20C15.4477 20 15 19.5523 15 19C15 18.4477 15.4477 18 16 18C17.1046 18 18 17.1046 18 16C18 15.4477 18.4477 15 19 15Z" fill="#515164"/>
</svg>
