<svg width="24" height="24" viewBox="0 0 24 24" fill="none" xmlns="http://www.w3.org/2000/svg">
<path d="M20 12C20 16.4183 16.4183 20 12 20C7.58172 20 4 16.4183 4 12C4 7.58172 7.58172 4 12 4C16.4183 4 20 7.58172 20 12ZM12 17.6574C13.0541 16.355 13.7514 14.7538 13.9451 13H10.0549C10.2486 14.7538 10.9459 16.355 12 17.6574ZM14.5729 17.4219C16.3107 16.5958 17.5884 14.9588 17.917 13H15.9551C15.8111 14.5967 15.3257 16.0954 14.5729 17.4219ZM15.9551 11H17.917C17.5884 9.0412 16.3107 7.40422 14.5729 6.5781C15.3257 7.90464 15.8111 9.40332 15.9551 11ZM13.9451 11C13.7514 9.24622 13.0541 7.64497 12 6.34257C10.9459 7.64497 10.2486 9.24622 10.0549 11H13.9451ZM8.04488 13H6.08296C6.41158 14.9588 7.68932 16.5958 9.42711 17.4219C8.67429 16.0954 8.18889 14.5967 8.04488 13ZM8.04488 11C8.18888 9.40332 8.67427 7.90464 9.42709 6.5781C7.6893 7.40422 6.41158 9.0412 6.08296 11H8.04488Z" fill="#515164"/>
</svg>
