<svg width="24" height="24" viewBox="0 0 24 24" fill="none" xmlns="http://www.w3.org/2000/svg">
<path d="M8.9375 7C9.7839 7 10.341 7.28483 10.683 7.54543C10.8586 7.67922 10.9823 7.81075 11.0583 7.90264C11.096 7.94831 11.1211 7.98316 11.1341 8.00208C11.1388 8.00899 11.1419 8.01369 11.1434 8.01593C11.3241 8.31602 11.649 8.5 12 8.5C12.351 8.5 12.6759 8.31602 12.8566 8.01593C12.8581 8.01369 12.8612 8.00899 12.8659 8.00208C12.8789 7.98316 12.904 7.94831 12.9417 7.90264C13.0177 7.81075 13.1414 7.67922 13.317 7.54543C13.659 7.28483 14.2161 7 15.0625 7C15.8167 7 16.5432 7.36961 17.1026 8.0019C17.6651 8.63764 18 9.4777 18 10.2857C18 11.0907 17.6672 11.9807 17.0658 12.9135C16.4695 13.8384 15.6569 14.7311 14.8156 15.5209C13.978 16.3072 13.1362 16.969 12.5017 17.4352C12.3136 17.5734 12.1445 17.6938 12 17.7946C11.8555 17.6938 11.6864 17.5734 11.4983 17.4352C10.8638 16.969 10.022 16.3072 9.18444 15.5209C8.34306 14.7311 7.53051 13.8384 6.93421 12.9135C6.33281 11.9807 6 11.0907 6 10.2857C6 8.28591 7.72025 7 8.9375 7ZM12 6.037C11.9661 6.00955 11.9312 5.98204 11.8951 5.95457C11.2528 5.46517 10.2786 5 8.9375 5C6.65475 5 4 7.14266 4 10.2857C4 11.6236 4.54219 12.8943 5.25329 13.9972C5.96949 15.1081 6.90694 16.1261 7.81556 16.9791C8.72799 17.8356 9.63618 18.5488 10.3142 19.047C10.654 19.2966 10.9382 19.4939 11.139 19.6297C11.2394 19.6976 11.3191 19.7502 11.3746 19.7865C11.4024 19.8046 11.4241 19.8187 11.4394 19.8285L11.4574 19.84L11.4626 19.8433L11.4643 19.8444C11.4645 19.8446 11.4654 19.8451 12 19L11.4654 19.8451C11.7919 20.0516 12.2081 20.0516 12.5346 19.8451L12 19C12.5346 19.8451 12.5344 19.8452 12.5346 19.8451L12.5374 19.8433L12.5426 19.84L12.5606 19.8285C12.5759 19.8187 12.5976 19.8046 12.6254 19.7865C12.6809 19.7502 12.7606 19.6976 12.861 19.6297C13.0618 19.4939 13.346 19.2966 13.6858 19.047C14.3638 18.5488 15.272 17.8356 16.1844 16.9791C17.0931 16.1261 18.0305 15.1081 18.7467 13.9972C19.4578 12.8943 20 11.6236 20 10.2857C20 8.95087 19.4599 7.64807 18.6005 6.67667C17.7381 5.70182 16.4958 5 15.0625 5C13.7214 5 12.7472 5.46517 12.1049 5.95457C12.0688 5.98204 12.0339 6.00955 12 6.037Z" fill="#515164"/>
</svg>
