<svg width="24" height="24" viewBox="0 0 24 24" fill="none" xmlns="http://www.w3.org/2000/svg">
<path d="M8 6C8 5.44772 8.44772 5 9 5H15C15.5523 5 16 5.44772 16 6C16 6.55228 15.5523 7 15 7H13V17H15C15.5523 17 16 17.4477 16 18C16 18.5523 15.5523 19 15 19H9C8.44772 19 8 18.5523 8 18C8 17.4477 8.44772 17 9 17H11V7H9C8.44772 7 8 6.55228 8 6Z" fill="#515164"/>
<path d="M3 11C3 9.34315 4.34315 8 6 8H8C8.55228 8 9 8.44772 9 9C9 9.55228 8.55228 10 8 10H6C5.44772 10 5 10.4477 5 11V13C5 13.5523 5.44772 14 6 14H8C8.55228 14 9 14.4477 9 15C9 15.5523 8.55228 16 8 16H6C4.34315 16 3 14.6569 3 13V11Z" fill="#515164"/>
<path d="M21 13C21 14.6569 19.6569 16 18 16H16C15.4477 16 15 15.5523 15 15C15 14.4477 15.4477 14 16 14H18C18.5523 14 19 13.5523 19 13V11C19 10.4477 18.5523 10 18 10H16C15.4477 10 15 9.55228 15 9C15 8.44771 15.4477 8 16 8L18 8C19.6569 8 21 9.34315 21 11V13Z" fill="#515164"/>
</svg>
