<svg width="24" height="24" viewBox="0 0 24 24" fill="none" xmlns="http://www.w3.org/2000/svg">
<path d="M12.2929 10.7071C11.5789 9.99308 10.4212 9.99308 9.70712 10.7071L6.70712 13.7071C5.71693 14.6973 5.71693 16.3027 6.70712 17.2929C7.69731 18.2831 9.30272 18.2831 10.2929 17.2929C10.6834 16.9024 11.3166 16.9024 11.7071 17.2929C12.0976 17.6834 12.0976 18.3166 11.7071 18.7071C9.93588 20.4784 7.06414 20.4784 5.2929 18.7071C3.52167 16.9359 3.52167 14.0641 5.29291 12.2929L8.2929 9.29291C9.788 7.79782 12.212 7.79782 13.7071 9.29291C14.0976 9.68343 14.0976 10.3166 13.7071 10.7071C13.3166 11.0976 12.6834 11.0976 12.2929 10.7071Z" fill="#515164"/>
<path d="M11.7071 13.2929C12.4212 14.0069 13.5789 14.0069 14.2929 13.2929L17.2929 10.2929C18.2831 9.30273 18.2831 7.69731 17.2929 6.70712C16.3027 5.71693 14.6973 5.71693 13.7071 6.70711C13.3166 7.09763 12.6834 7.09763 12.2929 6.70711C11.9024 6.31658 11.9024 5.68342 12.2929 5.29289C14.0641 3.52167 16.9359 3.52167 18.7071 5.29291C20.4783 7.06415 20.4784 9.93589 18.7071 11.7071L15.7071 14.7071C14.212 16.2022 11.788 16.2022 10.2929 14.7071C9.90238 14.3166 9.90238 13.6834 10.2929 13.2929C10.6834 12.9024 11.3166 12.9024 11.7071 13.2929Z" fill="#515164"/>
</svg>
