<svg width="24" height="24" viewBox="0 0 24 24" fill="none" xmlns="http://www.w3.org/2000/svg">
<path d="M12 13C12.5523 13 13 13.4477 13 14V15C13 15.5523 12.5523 16 12 16C11.4477 16 11 15.5523 11 15V14C11 13.4477 11.4477 13 12 13Z" fill="#515164"/>
<path d="M7 9.12602V8C7 5.23858 9.23858 3 12 3C14.7614 3 17 5.23858 17 8V9.12602C18.7252 9.57006 20 11.1362 20 13V16C20 18.2091 18.2091 20 16 20H8C5.79086 20 4 18.2091 4 16V13C4 11.1362 5.27477 9.57006 7 9.12602ZM9 8V9H15V8C15 6.34315 13.6569 5 12 5C10.3431 5 9 6.34315 9 8ZM16 11H8C6.89543 11 6 11.8954 6 13V16C6 17.1046 6.89543 18 8 18H16C17.1046 18 18 17.1046 18 16V13C18 11.8954 17.1046 11 16 11Z" fill="#515164"/>
</svg>
