<svg width="24" height="24" viewBox="0 0 24 24" fill="none" xmlns="http://www.w3.org/2000/svg">
<path d="M9 6C7.34315 6 6 7.34315 6 9C6 10.6569 7.34315 12 9 12C10.6569 12 12 10.6569 12 9C12 7.34315 10.6569 6 9 6ZM4 9C4 6.23858 6.23858 4 9 4C11.7614 4 14 6.23858 14 9C14 11.7614 11.7614 14 9 14C6.23858 14 4 11.7614 4 9Z" fill="#515164"/>
<path d="M15 7C15 6.44772 15.4477 6 16 6C18.2091 6 20 7.79086 20 10C20 12.2091 18.2091 14 16 14C15.4477 14 15 13.5523 15 13C15 12.4477 15.4477 12 16 12C17.1046 12 18 11.1046 18 10C18 8.89543 17.1046 8 16 8C15.4477 8 15 7.55228 15 7Z" fill="#515164"/>
<path d="M2.79289 17.2929C2.40237 17.6834 2.40237 18.3166 2.79289 18.7071C3.18214 19.0964 3.81243 19.0976 4.20326 18.7109L4.21011 18.7044C4.2185 18.6965 4.23422 18.6818 4.25714 18.6615C4.303 18.6207 4.37742 18.5571 4.47936 18.4782C4.68361 18.3201 4.99588 18.1022 5.40809 17.8824C6.23151 17.4432 7.44577 17 9 17C10.5542 17 11.7685 17.4432 12.5919 17.8824C13.0041 18.1022 13.3164 18.3201 13.5206 18.4782C13.6226 18.5571 13.697 18.6207 13.7429 18.6615C13.7658 18.6818 13.7815 18.6965 13.7899 18.7044L13.7963 18.7105C14.1871 19.0972 14.8179 19.0963 15.2071 18.7071C15.5976 18.3166 15.5976 17.6834 15.2071 17.2929L15.2043 17.2901L15.2008 17.2866L15.1914 17.2774C15.1841 17.2703 15.1748 17.2614 15.1635 17.2507C15.1409 17.2293 15.1102 17.201 15.0716 17.1667C14.9944 17.098 14.8852 17.0054 14.745 16.8968C14.4649 16.6799 14.0584 16.3978 13.5331 16.1176C12.4815 15.5568 10.9458 15 9 15C7.05423 15 5.51849 15.5568 4.46691 16.1176C3.94162 16.3978 3.53514 16.6799 3.25501 16.8968C3.11477 17.0054 3.00559 17.098 2.92841 17.1667C2.8898 17.201 2.85913 17.2293 2.83652 17.2507C2.82522 17.2614 2.81592 17.2703 2.80865 17.2774L2.79925 17.2866L2.79569 17.2901L2.7942 17.2916C2.79223 17.2936 2.79289 17.2929 2.79289 17.2929ZM13.7935 18.7077L13.795 18.7092L13.7963 18.7105" fill="#515164"/>
<path d="M16 16C16 15.4477 16.4477 15 17 15C18.0708 15 18.919 15.3068 19.5018 15.6176C19.7928 15.7728 20.0195 15.9299 20.1786 16.053C20.2583 16.1147 20.3216 16.1684 20.368 16.2096C20.3912 16.2303 20.4103 16.2479 20.4251 16.2619L20.4443 16.2803L20.4515 16.2873L20.4545 16.2903L20.4558 16.2916C20.4578 16.2936 20.4571 16.2929 20.4571 16.2929C20.8476 16.6834 20.8476 17.3166 20.4571 17.7071C20.0691 18.0951 19.4417 18.0976 19.0506 17.7147C19.0489 17.7132 19.0451 17.7097 19.0392 17.7044C19.0241 17.691 18.9956 17.6665 18.9542 17.6345C18.8711 17.5701 18.7385 17.4772 18.5607 17.3824C18.206 17.1932 17.6792 17 17 17C16.4477 17 16 16.5523 16 16Z" fill="#515164"/>
</svg>
