<svg width="24" height="24" viewBox="0 0 24 24" fill="none" xmlns="http://www.w3.org/2000/svg">
<path fill-rule="evenodd" clip-rule="evenodd" d="M10.3259 1.5C8.99717 1.5 8.03784 2.77181 8.40288 4.04944L8.81394 5.48817C7.00885 6.26595 5.6433 7.90858 5.27961 9.94526L4.56533 13.9453C3.90861 17.6228 6.73613 21 10.4719 21H13.528C17.2637 21 20.0913 17.6228 19.4346 13.9453L18.7203 9.94526C18.3566 7.90875 16.9913 6.26623 15.1864 5.48836L15.5975 4.04944C15.9625 2.77181 15.0032 1.5 13.6745 1.5H10.3259ZM12.8137 7H11.1862C9.24829 7 7.58913 8.38912 7.24847 10.2968L6.53418 14.2968C6.09637 16.7486 7.98138 19 10.4719 19H13.528C16.0185 19 17.9035 16.7486 17.4657 14.2968L16.7514 10.2968C16.4108 8.38912 14.7516 7 12.8137 7ZM13.2459 5L13.6745 3.5L10.3259 3.5L10.7545 5H13.2459Z" fill="#515164"/>
<path d="M11 9.00002C11 8.44774 11.4477 8 12 8C12.5523 8 13 8.44773 13 9H14C14.5523 9 15 9.44772 15 10C15 10.5523 14.5523 11 14 11H11.5C11.2239 11 11 11.2239 11 11.5C11 11.7761 11.2239 12 11.5 12H12.5C13.8807 12 15 13.1193 15 14.5C15 15.7099 14.1405 16.7191 12.9988 16.9502C12.9996 16.9667 13 16.9833 13 17C13 17.5523 12.5523 18 12 18C11.4477 18 11 17.5523 11 17L10 17C9.44772 17 9 16.5523 9 16C9 15.4477 9.44772 15 10 15H12.5C12.7761 15 13 14.7761 13 14.5C13 14.2239 12.7761 14 12.5 14H11.5C10.1193 14 9 12.8807 9 11.5C9 10.2901 9.85949 9.28093 11.0012 9.04976C11.0004 9.03328 11 9.0167 11 9.00002Z" fill="#515164"/>
</svg>
