<svg width="24" height="24" viewBox="0 0 24 24" fill="none" xmlns="http://www.w3.org/2000/svg">
<path d="M5 6.49998C5 6.03533 5 5.803 5.03843 5.6098C5.19624 4.81643 5.81643 4.19624 6.6098 4.03843C6.803 4 7.03533 4 7.49998 4C7.96463 4 8.19695 4 8.39015 4.03843C9.18352 4.19624 9.80371 4.81643 9.96152 5.6098C9.99995 5.803 9.99995 6.03533 9.99995 6.49998V17.4999C9.99995 17.9645 9.99995 18.1969 9.96152 18.39C9.80371 19.1834 9.18352 19.8036 8.39015 19.9614C8.19695 19.9999 7.96463 19.9999 7.49998 19.9999C7.03533 19.9999 6.803 19.9999 6.6098 19.9614C5.81643 19.8036 5.19624 19.1834 5.03843 18.39C5 18.1969 5 17.9645 5 17.4999V6.49998Z" fill="#515164"/>
<path d="M14.0001 6.5001C14.0001 6.03545 14.0001 5.80312 14.0386 5.60993C14.1964 4.81655 14.8166 4.19636 15.6099 4.03855C15.8031 4.00012 16.0354 4.00012 16.5001 4.00012C16.9648 4.00012 17.1971 4.00012 17.3903 4.03855C18.1836 4.19636 18.8038 4.81655 18.9616 5.60993C19.0001 5.80312 19.0001 6.03545 19.0001 6.5001V17.5C19.0001 17.9646 19.0001 18.197 18.9616 18.3902C18.8038 19.1835 18.1836 19.8037 17.3903 19.9615C17.1971 20 16.9648 20 16.5001 20C16.0354 20 15.8031 20 15.6099 19.9615C14.8166 19.8037 14.1964 19.1835 14.0386 18.3902C14.0001 18.197 14.0001 17.9646 14.0001 17.5V6.5001Z" fill="#515164"/>
</svg>
