<svg width="24" height="24" viewBox="0 0 24 24" fill="none" xmlns="http://www.w3.org/2000/svg">
<path fill-rule="evenodd" clip-rule="evenodd" d="M5 6C5 3.79086 6.79086 2 9 2H14C16.2091 2 18 3.79086 18 6V14C18 16.2091 16.2091 18 14 18H9C6.79086 18 5 16.2091 5 14V6ZM9 4C7.89543 4 7 4.89543 7 6V14C7 15.1046 7.89543 16 9 16H14C15.1046 16 16 15.1046 16 14V6C16 4.89543 15.1046 4 14 4H9Z" fill="#515164"/>
<path fill-rule="evenodd" clip-rule="evenodd" d="M20 8C20.5523 8 21 8.44772 21 9V10.4444C21 12.0869 21 13.3809 20.9149 14.4222C20.8281 15.4846 20.6478 16.3717 20.237 17.1779C19.5659 18.4951 18.4951 19.5659 17.1779 20.237C16.3717 20.6478 15.4846 20.8281 14.4222 20.9149C13.3809 21 12.0869 21 10.4444 21H9C8.44772 21 8 20.5523 8 20C8 19.4477 8.44772 19 9 19H10.4C12.0967 19 13.309 18.9992 14.2594 18.9216C15.198 18.8449 15.7927 18.6982 16.27 18.455C17.2108 17.9757 17.9757 17.2108 18.455 16.27C18.6982 15.7927 18.8449 15.198 18.9216 14.2594C18.9992 13.309 19 12.0967 19 10.4V9C19 8.44772 19.4477 8 20 8Z" fill="#515164"/>
<path d="M10.5 6.00002C10.5 5.44774 10.9477 5 11.5 5C12.0523 5 12.5 5.44773 12.5 6H13.5C14.0523 6 14.5 6.44772 14.5 7C14.5 7.55228 14.0523 8 13.5 8H11C10.7239 8 10.5 8.22386 10.5 8.5C10.5 8.77614 10.7239 9 11 9H12C13.3807 9 14.5 10.1193 14.5 11.5C14.5 12.7099 13.6405 13.7191 12.4988 13.9502C12.4996 13.9667 12.5 13.9833 12.5 14C12.5 14.5523 12.0523 15 11.5 15C10.9477 15 10.5 14.5523 10.5 14L9.5 14C8.94772 14 8.5 13.5523 8.5 13C8.5 12.4477 8.94772 12 9.5 12H12C12.2761 12 12.5 11.7761 12.5 11.5C12.5 11.2239 12.2761 11 12 11H11C9.61929 11 8.5 9.88071 8.5 8.5C8.5 7.29009 9.35949 6.28093 10.5012 6.04976C10.5004 6.03328 10.5 6.0167 10.5 6.00002Z" fill="#515164"/>
</svg>
