<svg width="24" height="24" viewBox="0 0 24 24" fill="none" xmlns="http://www.w3.org/2000/svg">
<path d="M12 5C9.29839 5 7 7.35589 7 10.4C7 11.87 7.62041 13.2645 8.68576 14.7401C9.58824 15.9901 10.7431 17.212 11.9952 18.537C11.9968 18.5386 11.9984 18.5403 12 18.542C12.0016 18.5403 12.0032 18.5386 12.0048 18.537C13.257 17.212 14.4118 15.9901 15.3142 14.7401C16.3796 13.2645 17 11.87 17 10.4C17 7.35589 14.7016 5 12 5ZM5 10.4C5 6.37487 8.07419 3 12 3C15.9258 3 19 6.37487 19 10.4C19 12.4646 18.1204 14.2701 16.9358 15.9109C15.9486 17.2781 14.6848 18.6144 13.4342 19.9367C13.1982 20.1863 12.9626 20.4353 12.7295 20.6839C12.5405 20.8856 12.2764 21 12 21C11.7236 21 11.4595 20.8856 11.2705 20.6839C11.0374 20.4353 10.8018 20.1863 10.5658 19.9367C9.31524 18.6144 8.0514 17.2781 7.06424 15.9109C5.87959 14.2701 5 12.4646 5 10.4Z" fill="#515164"/>
<path d="M9 10C9 8.34315 10.3431 7 12 7C13.6569 7 15 8.34315 15 10C15 11.6569 13.6569 13 12 13C10.3431 13 9 11.6569 9 10ZM12 9C11.4477 9 11 9.44772 11 10C11 10.5523 11.4477 11 12 11C12.5523 11 13 10.5523 13 10C13 9.44772 12.5523 9 12 9Z" fill="#515164"/>
</svg>
