<svg width="24" height="24" viewBox="0 0 24 24" fill="none" xmlns="http://www.w3.org/2000/svg">
<path d="M21 10C21 8.09985 19.6751 6.50915 17.8987 6.10135C17.4909 4.32493 15.9002 3 14 3H10C8.09985 3 6.50915 4.32493 6.10135 6.10135C4.32493 6.50915 3 8.09985 3 10V14C3 16.2091 4.79086 18 7 18C7 19.6569 8.34315 21 10 21H14C15.6569 21 17 19.6569 17 18C19.2091 18 21 16.2091 21 14V10ZM15.7324 6H8.26756C8.61337 5.4022 9.25972 5 10 5H14C14.7403 5 15.3866 5.4022 15.7324 6ZM17 16V15C17 13.8954 16.1046 13 15 13H9C7.89543 13 7 13.8954 7 15V16C5.89543 16 5 15.1046 5 14V10C5 8.89543 5.89543 8 7 8H17C18.1046 8 19 8.89543 19 10V14C19 15.1046 18.1046 16 17 16ZM9 18V15H15V18C15 18.5523 14.5523 19 14 19H10C9.44772 19 9 18.5523 9 18Z" fill="#515164"/>
<path d="M18 11C18 11.5523 17.5523 12 17 12C16.4477 12 16 11.5523 16 11C16 10.4477 16.4477 10 17 10C17.5523 10 18 10.4477 18 11Z" fill="#515164"/>
</svg>
