<svg width="24" height="24" viewBox="0 0 24 24" fill="none" xmlns="http://www.w3.org/2000/svg">
<path d="M4 11C4 7.68629 6.68629 5 10 5C10.5523 5 11 5.44772 11 6C11 6.55228 10.5523 7 10 7C7.79086 7 6 8.79086 6 11V12H7.5C9.433 12 11 13.567 11 15.5C11 17.433 9.433 19 7.5 19C5.567 19 4 17.433 4 15.5V11ZM9 15.5C9 14.6716 8.32843 14 7.5 14H6V15.5C6 16.3284 6.67157 17 7.5 17C8.32843 17 9 16.3284 9 15.5Z" fill="#515164"/>
<path d="M13 11C13 7.68629 15.6863 5 19 5C19.5523 5 20 5.44772 20 6C20 6.55228 19.5523 7 19 7C16.7909 7 15 8.79086 15 11V12H16.5C18.433 12 20 13.567 20 15.5C20 17.433 18.433 19 16.5 19C14.567 19 13 17.433 13 15.5V11ZM18 15.5C18 14.6716 17.3284 14 16.5 14H15V15.5C15 16.3284 15.6716 17 16.5 17C17.3284 17 18 16.3284 18 15.5Z" fill="#515164"/>
</svg>
