<svg width="24" height="24" viewBox="0 0 24 24" fill="none" xmlns="http://www.w3.org/2000/svg">
<path d="M3 9C3 6.79086 4.79086 5 7 5H17C19.2091 5 21 6.79086 21 9V15C21 17.2091 19.2091 19 17 19H7C4.79086 19 3 17.2091 3 15V9ZM7 7C5.89543 7 5 7.89543 5 9V15C5 16.1046 5.89543 17 7 17H17C18.1046 17 19 16.1046 19 15V9C19 7.89543 18.1046 7 17 7H7Z" fill="#515164"/>
<path d="M8 12C8.55228 12 9 12.4477 9 13V15C9 15.5523 8.55228 16 8 16C7.44772 16 7 15.5523 7 15V13C7 12.4477 7.44772 12 8 12Z" fill="#515164"/>
<path d="M12 8C12.5523 8 13 8.44772 13 9V15C13 15.5523 12.5523 16 12 16C11.4477 16 11 15.5523 11 15V9C11 8.44772 11.4477 8 12 8Z" fill="#515164"/>
<path d="M16 10C16.5523 10 17 10.4477 17 11V15C17 15.5523 16.5523 16 16 16C15.4477 16 15 15.5523 15 15V11C15 10.4477 15.4477 10 16 10Z" fill="#515164"/>
</svg>
