<svg width="24" height="24" viewBox="0 0 24 24" fill="none" xmlns="http://www.w3.org/2000/svg">
<path d="M16 20H8C5.79086 20 4 18.2091 4 16V8C4 5.79086 5.79086 4 8 4H13.7574C14.8182 4 15.8356 4.42143 16.5858 5.17157L18.8284 7.41421C19.5786 8.16436 20 9.18178 20 10.2426V16C20 18.2091 18.2091 20 16 20ZM6 8V16C6 16.7403 6.4022 17.3866 7 17.7324V16C7 14.3431 8.34315 13 10 13H14C15.6569 13 17 14.3431 17 16V17.7324C17.5978 17.3866 18 16.7403 18 16V10.2426C18 9.71221 17.7893 9.2035 17.4142 8.82843L16 7.41421V10C16 10.5523 15.5523 11 15 11H9C8.44772 11 8 10.5523 8 10V6C6.89543 6 6 6.89543 6 8ZM14 6.01477C13.9199 6.00498 13.8389 6 13.7574 6H10V9H14V6.01477ZM15 16C15 15.4477 14.5523 15 14 15H10C9.44772 15 9 15.4477 9 16V18H15V16Z" fill="#515164"/>
</svg>
