<svg width="24" height="24" viewBox="0 0 24 24" fill="none" xmlns="http://www.w3.org/2000/svg">
<path d="M9.45544 4.18668C10.6303 2.30545 13.3698 2.30545 14.5446 4.18668L15.2845 5.37158C15.4607 5.65371 15.7657 5.82977 16.0981 5.84129L17.4943 5.88967C19.7109 5.96649 21.0806 8.33895 20.0388 10.297L19.3826 11.5303C19.2264 11.8239 19.2264 12.176 19.3826 12.4697L20.0388 13.703C21.0806 15.661 19.7109 18.0335 17.4943 18.1103L16.0981 18.1587C15.7657 18.1702 15.4607 18.3463 15.2845 18.6284L14.5446 19.8133C13.3698 21.6945 10.6303 21.6945 9.45544 19.8133L8.71547 18.6284C8.53928 18.3463 8.23434 18.1702 7.90191 18.1587L6.50577 18.1103C4.28916 18.0335 2.91942 15.661 3.9612 13.703L4.61737 12.4697C4.77361 12.176 4.77361 11.8239 4.61737 11.5303L3.9612 10.297C2.91942 8.33895 4.28916 5.96649 6.50576 5.88967L7.90191 5.84129C8.23434 5.82977 8.53928 5.65371 8.71547 5.37158L9.45544 4.18668ZM12.8482 5.24606C12.4566 4.61899 11.5434 4.61899 11.1518 5.24606L10.4118 6.43097C9.88328 7.27736 8.96846 7.80553 7.97118 7.84009L6.57503 7.88847C5.83616 7.91408 5.37958 8.7049 5.72684 9.35758L6.38302 10.5909C6.85172 11.4718 6.85172 12.5282 6.38301 13.4091L5.72684 14.6424C5.37958 15.2951 5.83616 16.0859 6.57503 16.1115L7.97118 16.1599C8.96846 16.1944 9.88328 16.7226 10.4118 17.569L11.1518 18.7539C11.5434 19.381 12.4566 19.381 12.8482 18.7539L13.5882 17.569C14.1167 16.7226 15.0316 16.1944 16.0288 16.1599L17.425 16.1115C18.1639 16.0859 18.6204 15.2951 18.2732 14.6424L17.617 13.4091C17.1483 12.5282 17.1483 11.4718 17.617 10.5909L18.2732 9.35758C18.6204 8.7049 18.1639 7.91408 17.425 7.88847L16.0288 7.84009C15.0316 7.80553 14.1167 7.27736 13.5882 6.43097L12.8482 5.24606Z" fill="#515164"/>
<path d="M11.9995 10.5C11.1711 10.5 10.4995 11.1716 10.4995 12C10.4995 12.8284 11.1711 13.5 11.9995 13.5C12.8279 13.5 13.4995 12.8284 13.4995 12C13.4995 11.1716 12.8279 10.5 11.9995 10.5ZM8.49952 12C8.49952 10.067 10.0665 8.49999 11.9995 8.49999C13.9325 8.49999 15.4995 10.067 15.4995 12C15.4995 13.933 13.9325 15.5 11.9995 15.5C10.0665 15.5 8.49952 13.933 8.49952 12Z" fill="#515164"/>
</svg>
