<svg width="24" height="24" viewBox="0 0 24 24" fill="none" xmlns="http://www.w3.org/2000/svg">
<path d="M7 7C5.89543 7 5 7.89543 5 9V15C5 16.1046 5.89543 17 7 17H10.5C11.0523 17 11.5 17.4477 11.5 18C11.5 18.5523 11.0523 19 10.5 19H7C4.79086 19 3 17.2091 3 15V9C3 6.79086 4.79086 5 7 5H17C19.2091 5 21 6.79086 21 9C21 9.55228 20.5523 10 20 10C19.4477 10 19 9.55228 19 9C19 7.89543 18.1046 7 17 7H7Z" fill="#515164"/>
<path d="M12 15.5C12 12.4624 14.4624 10 17.5 10C20.5376 10 23 12.4624 23 15.5C23 18.5376 20.5376 21 17.5 21C14.4624 21 12 18.5376 12 15.5ZM17.5 12C15.567 12 14 13.567 14 15.5C14 17.433 15.567 19 17.5 19C19.433 19 21 17.433 21 15.5C21 13.567 19.433 12 17.5 12Z" fill="#515164"/>
<path d="M17.5 13C18.0523 13 18.5 13.4477 18.5 14V14.9648L19.5547 15.6679C20.0142 15.9743 20.1384 16.5952 19.8321 17.0547C19.5257 17.5142 18.9048 17.6384 18.4453 17.3321L17.3164 16.5794C16.8064 16.2394 16.5 15.667 16.5 15.054V14C16.5 13.4477 16.9477 13 17.5 13Z" fill="#515164"/>
<path d="M6 10C6 9.44772 6.44772 9 7 9H11C11.5523 9 12 9.44772 12 10C12 10.5523 11.5523 11 11 11H7C6.44772 11 6 10.5523 6 10Z" fill="#515164"/>
<path d="M6 14C6 13.4477 6.44772 13 7 13H9C9.55228 13 10 13.4477 10 14C10 14.5523 9.55228 15 9 15H7C6.44772 15 6 14.5523 6 14Z" fill="#515164"/>
</svg>
