<svg width="24" height="24" viewBox="0 0 24 24" fill="none" xmlns="http://www.w3.org/2000/svg">
<path d="M8.96794 3.1251C7.85581 3.11756 6.64758 3.54371 6.13242 4.50068C5.92254 4.89056 5.99095 5.3397 6.23692 5.64717L7.08437 6.70648C4.4583 7.30943 3.03682 9.13668 3.00048 10.8999C2.98793 11.5085 3.48337 11.9652 4.0448 11.9652H5.16937C4.76301 12.96 4.66294 14.0997 5.03088 15.2541C5.22646 15.8678 5.92237 16.1567 6.49342 15.8712L9.37746 14.4292L9.07989 18.0001H8.00002C7.44774 18.0001 7.00002 18.4478 7.00002 19.0001C7.00002 19.5523 7.44774 20.0001 8.00002 20.0001H16C16.5523 20.0001 17 19.5523 17 19.0001C17 18.4478 16.5523 18.0001 16 18.0001H14.9202L14.6226 14.4292L17.5066 15.8712C18.0777 16.1567 18.7736 15.8678 18.9692 15.2541C19.3371 14.0997 19.237 12.96 18.8307 11.9652H19.9552C20.5167 11.9652 21.0121 11.5085 20.9996 10.8999C20.9632 9.13668 19.5417 7.30943 16.9157 6.70648L17.7631 5.64717C18.0091 5.3397 18.0775 4.89056 17.8676 4.50068C17.3525 3.54371 16.1442 3.11756 15.0321 3.1251C14.0664 3.13165 12.994 3.44733 12 4.18235C11.0061 3.44733 9.93368 3.13165 8.96794 3.1251ZM12.5284 13.3821L12.9132 18.0001H11.0868L11.4717 13.3821L12 13.1179L12.5284 13.3821ZM12.4475 11.1056C12.3036 11.0336 12.1506 10.9996 12 10.9998C11.8494 10.9996 11.6965 11.0336 11.5526 11.1056L6.82456 13.4696C6.90227 12.8283 7.20073 12.2206 7.66212 11.7203C8.26337 11.0683 7.82926 9.9652 6.89374 9.9652H5.35999C5.85349 9.25266 6.91588 8.52127 8.91541 8.50043C9.72678 8.49197 10.3037 7.52903 9.72218 6.80219L8.42604 5.18201C8.57773 5.1459 8.75533 5.1237 8.95438 5.12505C9.61972 5.12957 10.4838 5.39827 11.2927 6.20712C11.488 6.40244 11.744 6.50007 12 6.50001C12.256 6.50007 12.512 6.40244 12.7074 6.20712C13.5162 5.39827 14.3803 5.12957 15.0457 5.12505C15.2447 5.1237 15.4223 5.1459 15.574 5.18201L14.2779 6.80219C13.6964 7.52903 14.2733 8.49197 15.0846 8.50043C17.0842 8.52127 18.1466 9.25266 18.6401 9.9652H17.1063C16.1708 9.9652 15.7367 11.0683 16.3379 11.7203C16.7993 12.2206 17.0978 12.8283 17.1755 13.4696L12.4475 11.1056Z" fill="#515164"/>
</svg>
