<svg width="24" height="24" viewBox="0 0 24 24" fill="none" xmlns="http://www.w3.org/2000/svg">
<path fill-rule="evenodd" clip-rule="evenodd" d="M12 5C9.3658 5 7.06997 6.45462 5.8744 8.6092C5.60643 9.09212 4.99771 9.26636 4.5148 8.99839C4.03188 8.73042 3.85763 8.12171 4.1256 7.63879C5.65948 4.87453 8.61014 3 12 3C13.5803 3 15.0683 3.40817 16.3612 4.1256C16.8441 4.39357 17.0184 5.00229 16.7504 5.4852C16.4824 5.96812 15.8737 6.14237 15.3908 5.8744C14.3872 5.3175 13.2322 5 12 5ZM18.429 7.13439C18.9071 6.85785 19.5188 7.02121 19.7953 7.49927C20.5617 8.82407 21 10.3624 21 12V16C21 16.5523 20.5523 17 20 17C19.4477 17 19 16.5523 19 16V12C19 10.7233 18.6591 9.52931 18.0641 8.50073C17.7876 8.02267 17.951 7.41094 18.429 7.13439ZM4 11C4.55228 11 5 11.4477 5 12V16C5 16.5523 4.55228 17 4 17C3.44772 17 3 16.5523 3 16V12C3 11.4477 3.44772 11 4 11Z" fill="#515164"/>
<path fill-rule="evenodd" clip-rule="evenodd" d="M7 12C7 9.23858 9.23858 7 12 7C13.852 7 15.4675 8.00738 16.3305 9.49927C16.5544 9.88629 16.7281 10.3065 16.8424 10.7507C16.9801 11.2856 16.6581 11.8308 16.1232 11.9684C15.5884 12.1061 15.0432 11.7841 14.9055 11.2493C14.8373 10.984 14.7335 10.7327 14.5993 10.5007C14.079 9.60141 13.1092 9 12 9C10.3431 9 9 10.3431 9 12V13C9 13.5523 8.55228 14 8 14C7.44772 14 7 13.5523 7 13V12ZM16 14C16.5523 14 17 14.4477 17 15V19C17 19.5523 16.5523 20 16 20C15.4477 20 15 19.5523 15 19V15C15 14.4477 15.4477 14 16 14ZM8 16C8.55228 16 9 16.4477 9 17V19C9 19.5523 8.55228 20 8 20C7.44772 20 7 19.5523 7 19V17C7 16.4477 7.44772 16 8 16Z" fill="#515164"/>
<path fill-rule="evenodd" clip-rule="evenodd" d="M12 11C12.5523 11 13 11.4477 13 12V20C13 20.5523 12.5523 21 12 21C11.4477 21 11 20.5523 11 20V12C11 11.4477 11.4477 11 12 11Z" fill="#515164"/>
</svg>
