<svg width="24" height="24" viewBox="0 0 24 24" fill="none" xmlns="http://www.w3.org/2000/svg">
<path d="M12 6.31553C10.5915 5.46757 9.20494 4.99751 7.81203 4.99817C6.22038 4.99892 4.75687 5.61391 3.3753 6.71918C3.13809 6.90895 3 7.19627 3 7.50005V16.9194C3 17.78 3.52177 18.4142 4.12257 18.7367C4.71222 19.0533 5.47075 19.1303 6.15799 18.842C7.68178 18.2027 9.32549 18.4153 11.4443 19.8314C11.7807 20.0562 12.2193 20.0562 12.5557 19.8314C14.6745 18.4153 16.3182 18.2027 17.842 18.842C18.5293 19.1303 19.2878 19.0533 19.8774 18.7367C20.4782 18.4142 21 17.78 21 16.9194V7.50005C21 7.19626 20.8619 6.90895 20.6247 6.71918C19.2431 5.61391 17.7796 4.99892 16.188 4.99817C14.7951 4.99751 13.4085 5.46757 12 6.31553ZM11 8.048V17.2774C9.0871 16.3717 7.23021 16.2233 5.3843 16.9977C5.29832 17.0338 5.17127 17.0298 5.06866 16.9747C5.02331 16.9503 5.00452 16.9271 5.00003 16.9203L5 7.99743C5.97682 7.3037 6.89613 6.9986 7.81297 6.99817C8.74938 6.99773 9.79184 7.31496 11 8.048ZM13 17.2774V8.048C14.2082 7.31496 15.2506 6.99773 16.187 6.99817C17.1039 6.9986 18.0232 7.3037 19 7.99743V16.9194C19 16.9226 19.0012 16.9176 19 16.9194C18.9955 16.9261 18.9767 16.9503 18.9313 16.9747C18.8287 17.0298 18.7017 17.0338 18.6157 16.9977C16.7698 16.2233 14.9129 16.3717 13 17.2774Z" fill="#515164"/>
</svg>
