<svg xmlns="http://www.w3.org/2000/svg" viewBox="0 0 268 56" preserveAspectRatio="xMinYMid meet" class="fill-current text-radical-100 h-l min-h-l"><title>Factorial</title><path d="M45.63 49.754A27.883 27.883 0 0128 56a27.883 27.883 0 01-17.63-6.246A27.883 27.883 0 0128 43.508c6.682 0 12.817 2.34 17.63 6.246z"></path><path fill-rule="evenodd" d="M10.216 42.995A23.169 23.169 0 014.738 28C4.738 15.153 15.153 4.738 28 4.738c12.847 0 23.261 10.415 23.261 23.262 0 5.714-2.06 10.946-5.477 14.995a33.689 33.689 0 013.375 2.41l.468.38A27.885 27.885 0 0056 28C56 12.536 43.464 0 28 0S0 12.536 0 28a27.885 27.885 0 006.373 17.785l.468-.38a33.69 33.69 0 013.375-2.41z" clip-rule="evenodd"></path><path d="M38.339 27.139c0 5.71-4.63 10.338-10.339 10.338-5.71 0-10.338-4.629-10.338-10.338C17.662 21.428 22.29 16.8 28 16.8c5.71 0 10.339 4.629 10.339 10.338zM267.508 46.092h-6.893V7.754h6.893v38.338zM248.231 23.28v-3.034h6.784v25.846h-6.784v-3.8c-1.883 2.423-4.585 3.634-7.994 3.634-3.246 0-6.603-1.26-8.94-3.782-2.305-2.555-3.42-5.637-3.42-9.32 0-3.65 1.115-6.79 3.42-9.344 2.337-2.555 5.531-3.665 8.777-3.665 3.408 0 6.274 1.044 8.157 3.466zm-11.646 14.583c1.266 1.294 2.873 1.941 4.821 1.941 1.947 0 3.554-.647 4.82-1.94 1.299-1.328 2.005-3.02 2.005-5.077s-.706-3.733-2.005-5.027c-1.266-1.327-2.873-1.99-4.82-1.99-1.948 0-3.555.663-4.821 1.99-1.266 1.294-1.923 2.97-1.923 5.027s.657 3.75 1.923 5.076zM205.018 20.246v4.582c.56-1.594 1.958-3.076 2.752-3.612.734-.496 2.421-1.4 4.168-1.4V26.8c-1.945-.271-3.36.599-4.762 1.69-1.486 1.159-2.13 2.8-2.13 5.241v12.361h-6.892V20.246h6.864zM135.351 46.092c-3.754 0-6.893-1.26-9.417-3.782-2.491-2.522-4.026-5.556-4.026-9.272s1.535-6.919 4.026-9.44c2.524-2.522 5.663-3.783 9.417-3.783 2.424 0 4.633.581 6.626 1.742 1.993 1.162 3.786 2.72 4.816 4.678l-5.812 3.235c-.498-1.028-1.262-1.841-2.292-2.438-.997-.598-2.126-.896-3.388-.896-1.927 0-3.521.647-4.783 1.94-1.263 1.261-2.013 2.887-2.013 4.878 0 1.924.75 3.55 2.013 4.877 1.262 1.26 2.856 1.891 4.783 1.891 1.295 0 2.441-.282 3.438-.846 1.029-.597 2.075-1.41 2.573-2.438l5.58 3.185c-1.096 1.99-2.657 3.566-4.683 4.727-1.993 1.162-4.467 1.742-6.858 1.742zM110.708 23.303v-3.057h6.892v25.846h-6.892v-3.656c-1.913 2.438-4.658 3.656-8.121 3.656-3.297 0-6.708-1.269-9.082-3.806-2.341-2.571-3.474-5.673-3.474-9.38 0-3.672 1.133-6.831 3.474-9.403 2.374-2.57 5.619-3.688 8.916-3.688 3.463 0 6.374 1.05 8.287 3.488zm-11.83 14.675c1.285 1.303 2.918 1.954 4.896 1.954 1.979 0 3.611-.651 4.897-1.954 1.319-1.335 2.037-3.038 2.037-5.108s-.718-3.757-2.037-5.06c-1.286-1.335-2.918-2.003-4.897-2.003-1.978 0-3.611.668-4.897 2.004-1.286 1.302-1.954 2.988-1.954 5.059 0 2.07.668 3.773 1.954 5.108zM87.015 7.777v6.97c-3.495-.237-5.15 1.74-5.15 4.853v.646h5.15v6.99h-5.169v18.856h-6.892V27.236h-3.446v-6.99h3.446V19.6c0-3.62 1.504-6.748 3.45-8.575 1.978-1.861 4.786-3.485 8.611-3.248zM224 46.092h-6.892V20.246H224v25.846zM224.431 11.63a3.877 3.877 0 11-7.754 0 3.877 3.877 0 017.754 0z"></path><path fill-rule="evenodd" d="M181.354 46.092c7.137 0 12.923-5.786 12.923-12.923 0-7.137-5.786-12.923-12.923-12.923-7.137 0-12.923 5.786-12.923 12.923 0 7.137 5.786 12.923 12.923 12.923zm0-6.246a6.677 6.677 0 100-13.355 6.677 6.677 0 000 13.355z" clip-rule="evenodd"></path><path d="M150.338 35.333V15.986l7.186-2.201v6.502h7.095v6.78h-7.095c0 2.349-.09 6.258-.09 8.09 0 2.906 1.787 4.106 3.579 4.106 1.793 0 3.395-1.063 3.395-1.063l2.3 6.06s-5.058 3.177-10.089 1.164c-5.032-2.014-6.281-5.873-6.281-10.091z"></path></svg>