<svg width="280" height="280" viewBox="0 0 280 280" fill="none" xmlns="http://www.w3.org/2000/svg">
<g clip-path="url(#clip0_34_26)">
<rect width="280" height="280" rx="80" fill="url(#paint0_linear_34_26)"/>
<g opacity="0.1">
<rect x="-1" y="-1" width="58" height="58" stroke="white" stroke-width="2"/>
<rect x="55" y="-1" width="58" height="58" stroke="white" stroke-width="2"/>
<rect x="111" y="-1" width="58" height="58" stroke="white" stroke-width="2"/>
<rect x="167" y="-1" width="58" height="58" stroke="white" stroke-width="2"/>
<rect x="223" y="-1" width="58" height="58" stroke="white" stroke-width="2"/>
<rect x="-1" y="55" width="58" height="58" stroke="white" stroke-width="2"/>
<rect x="55" y="55" width="58" height="58" stroke="white" stroke-width="2"/>
<rect x="111" y="55" width="58" height="58" stroke="white" stroke-width="2"/>
<rect x="167" y="55" width="58" height="58" stroke="white" stroke-width="2"/>
<rect x="223" y="55" width="58" height="58" stroke="white" stroke-width="2"/>
<rect x="-1" y="111" width="58" height="58" stroke="white" stroke-width="2"/>
<rect x="55" y="111" width="58" height="58" stroke="white" stroke-width="2"/>
<rect x="111" y="111" width="58" height="58" stroke="white" stroke-width="2"/>
<rect x="167" y="111" width="58" height="58" stroke="white" stroke-width="2"/>
<rect x="223" y="111" width="58" height="58" stroke="white" stroke-width="2"/>
<rect x="-1" y="167" width="58" height="58" stroke="white" stroke-width="2"/>
<rect x="55" y="167" width="58" height="58" stroke="white" stroke-width="2"/>
<rect x="111" y="167" width="58" height="58" stroke="white" stroke-width="2"/>
<rect x="167" y="167" width="58" height="58" stroke="white" stroke-width="2"/>
<rect x="223" y="167" width="58" height="58" stroke="white" stroke-width="2"/>
<rect x="-1" y="223" width="58" height="58" stroke="white" stroke-width="2"/>
<rect x="55" y="223" width="58" height="58" stroke="white" stroke-width="2"/>
<rect x="111" y="223" width="58" height="58" stroke="white" stroke-width="2"/>
<rect x="167" y="223" width="58" height="58" stroke="white" stroke-width="2"/>
<rect x="223" y="223" width="58" height="58" stroke="white" stroke-width="2"/>
</g>
<rect x="20" y="20" width="242" height="242" rx="68" stroke="white" stroke-width="8"/>
<path d="M212 104C225.255 104 236 114.745 236 128V176C236 189.255 225.255 200 212 200H188C174.745 200 164 189.255 164 176M212 104V176H164M212 104C212 90.7452 201.255 80 188 80H164C150.745 80 140 90.7452 140 104V152C140 165.255 150.745 176 164 176M212 104H164V176M116 152H92V200H68V152H44V128H116V152ZM116 104H92V128C78.7452 128 68 117.255 68 104C68 90.7452 78.7452 80 92 80H116V104Z" stroke="white" stroke-width="8"/>
</g>
<defs>
<linearGradient id="paint0_linear_34_26" x1="140" y1="0" x2="140" y2="280" gradientUnits="userSpaceOnUse">
<stop stop-color="#26C9FA"/>
<stop offset="1" stop-color="#2575F2"/>
</linearGradient>
<clipPath id="clip0_34_26">
<rect width="280" height="280" rx="80" fill="white"/>
</clipPath>
</defs>
</svg>
