<svg width="51" height="32" viewBox="0 0 51 32" fill="none" xmlns="http://www.w3.org/2000/svg">
<g clip-path="url(#clip0_33_106)">
<path d="M19.125 19.2002H12.75V32H6.375V19.2002H0V12.7998H19.125V19.2002Z" fill="#191919"/>
<path d="M44.625 6.40039C48.1458 6.40039 50.9999 9.27903 51 12.7998V25.6006C50.9997 29.1212 48.1457 32 44.625 32H38.25C34.7293 32 31.8753 29.1212 31.875 25.6006H44.625V6.40039Z" fill="#191919"/>
<path d="M38.25 0C41.7708 0 44.625 2.87958 44.625 6.40039H31.875V25.6006C28.3542 25.6006 25.5 22.721 25.5 19.2002V6.40039C25.5 2.87958 28.3542 0 31.875 0H38.25Z" fill="#191919"/>
<path d="M19.125 6.40039H12.75V12.7998C9.22935 12.7998 6.37526 9.92098 6.375 6.40039C6.375 2.87958 9.22918 0 12.75 0H19.125V6.40039Z" fill="#191919"/>
</g>
<defs>
<clipPath id="clip0_33_106">
<rect width="51" height="32" fill="white"/>
</clipPath>
</defs>
</svg>
