<svg width="32" height="32" viewBox="0 0 32 32" fill="none" xmlns="http://www.w3.org/2000/svg">
<path d="M6 5C5.44772 5 5 5.44772 5 6C5 6.55228 5.44772 7 6 7H21.5C23.1569 7 24.5 8.34315 24.5 10V21H6C5.44772 21 5 21.4477 5 22C5 22.5523 5.44772 23 6 23H24.5V26C24.5 26.5523 24.9477 27 25.5 27C26.0523 27 26.5 26.5523 26.5 26V10C26.5 7.23858 24.2614 5 21.5 5H6Z" fill="#FF355E"/>
<path d="M18 11C18 10.4477 17.5523 10 17 10C16.4477 10 16 10.4477 16 11V13H14C13.4477 13 13 13.4477 13 14C13 14.5523 13.4477 15 14 15H16V17C16 17.5523 16.4477 18 17 18C17.5523 18 18 17.5523 18 17V15H20C20.5523 15 21 14.5523 21 14C21 13.4477 20.5523 13 20 13H18V11Z" fill="#FF355E"/>
</svg>
