<svg width="32" height="32" viewBox="0 0 32 32" fill="none" xmlns="http://www.w3.org/2000/svg">
<path d="M7 10.5C7 6.91015 9.91015 4 13.5 4C17.0899 4 20 6.91015 20 10.5C20 14.0899 17.0899 17 13.5 17C9.91015 17 7 14.0899 7 10.5ZM13.5 6C11.0147 6 9 8.01472 9 10.5C9 12.9853 11.0147 15 13.5 15C15.9853 15 18 12.9853 18 10.5C18 8.01472 15.9853 6 13.5 6Z" fill="#FF355E"/>
<path d="M26 25C26.5523 25 27 24.5523 27 24C27 23.4477 26.5523 23 26 23H25V22C25 21.4477 24.5523 21 24 21C23.4477 21 23 21.4477 23 22V23H22C21.4477 23 21 23.4477 21 24C21 24.5523 21.4477 25 22 25H23V26C23 26.5523 23.4477 27 24 27C24.5523 27 25 26.5523 25 26V25H26Z" fill="#FF355E"/>
<path d="M17 24C17 20.134 20.134 17 24 17C27.866 17 31 20.134 31 24C31 27.866 27.866 31 24 31C20.134 31 17 27.866 17 24ZM24 19C21.2386 19 19 21.2386 19 24C19 26.7614 21.2386 29 24 29C26.7614 29 29 26.7614 29 24C29 21.2386 26.7614 19 24 19Z" fill="#FF355E"/>
<path d="M7 24C7 21.7909 8.79086 20 11 20H15C15.5523 20 16 19.5523 16 19C16 18.4477 15.5523 18 15 18H11C7.68629 18 5 20.6863 5 24C5 24.5523 5.44772 25 6 25C6.55228 25 7 24.5523 7 24Z" fill="#FF355E"/>
</svg>
