<svg width="32" height="32" viewBox="0 0 32 32" fill="none" xmlns="http://www.w3.org/2000/svg">
<path d="M16.1213 6.46447C17.059 5.52678 18.3307 5 19.6568 5H24C25.6568 5 27 6.34315 27 8V14C27 14.5523 26.5523 15 26 15C25.4477 15 25 14.5523 25 14V8C25 7.44772 24.5523 7 24 7H19.6568C18.8612 7 18.0981 7.31607 17.5355 7.87868L8.3284 17.0858C7.54735 17.8668 7.54735 19.1332 8.3284 19.9142L12.7071 24.2929C13.145 24.7308 13.855 24.7308 14.2929 24.2929C14.6834 23.9024 15.3166 23.9024 15.7071 24.2929C16.0976 24.6834 16.0976 25.3166 15.7071 25.7071C14.4881 26.9261 12.5118 26.9261 11.2929 25.7071L6.91419 21.3284C5.35209 19.7663 5.35209 17.2337 6.91419 15.6716L16.1213 6.46447Z" fill="#FF355E"/>
<path d="M24 21C24.5523 21 25 21.4477 25 22V23H26C26.5523 23 27 23.4477 27 24C27 24.5523 26.5523 25 26 25H25V26C25 26.5523 24.5523 27 24 27C23.4477 27 23 26.5523 23 26V25H22C21.4477 25 21 24.5523 21 24C21 23.4477 21.4477 23 22 23H23V22C23 21.4477 23.4477 21 24 21Z" fill="#FF355E"/>
<path fill-rule="evenodd" clip-rule="evenodd" d="M17 24C17 20.134 20.134 17 24 17C27.866 17 31 20.134 31 24C31 27.866 27.866 31 24 31C20.134 31 17 27.866 17 24ZM24 19C21.2386 19 19 21.2386 19 24C19 26.7614 21.2386 29 24 29C26.7614 29 29 26.7614 29 24C29 21.2386 26.7614 19 24 19Z" fill="#FF355E"/>
<path d="M20.5 10C19.6716 10 19 10.6716 19 11.5C19 12.3284 19.6716 13 20.5 13C21.3284 13 22 12.3284 22 11.5C22 10.6716 21.3284 10 20.5 10Z" fill="#FF355E"/>
</svg>
