<svg width="32" height="32" viewBox="0 0 32 32" fill="none" xmlns="http://www.w3.org/2000/svg">
<path d="M16 4C9.37258 4 4 9.37258 4 16C4 21.8834 8.23301 26.776 13.8193 27.8022C14.3625 27.9019 14.8838 27.5425 14.9835 26.9993C15.0833 26.4561 14.7239 25.9349 14.1807 25.8351C13.4179 25.695 12.6854 25.4683 11.9938 25.1655C12.5346 24.7644 13.2191 24.4194 14.0876 24.2112C14.6247 24.0825 14.9557 23.5427 14.8269 23.0056C14.6982 22.4686 14.1584 22.1376 13.6214 22.2663C12.1029 22.6303 10.9743 23.3269 10.1467 24.1091C7.63456 22.2924 6 19.3366 6 16C6 10.4772 10.4772 6 16 6C20.9009 6 24.9802 9.52652 25.8351 14.1807C25.9349 14.7239 26.4561 15.0833 26.9993 14.9835C27.5425 14.8838 27.9019 14.3625 27.8022 13.8193C26.776 8.23301 21.8834 4 16 4Z" fill="#FF355E"/>
<path d="M11.5 14.5C11.5 12.0147 13.5147 10 16 10C18.4853 10 20.5 12.0147 20.5 14.5C20.5 15.0523 20.9477 15.5 21.5 15.5C22.0523 15.5 22.5 15.0523 22.5 14.5C22.5 10.9101 19.5899 8 16 8C12.4101 8 9.5 10.9101 9.5 14.5C9.5 18.0899 12.4101 21 16 21C16.5523 21 17 20.5523 17 20C17 19.4477 16.5523 19 16 19C13.5147 19 11.5 16.9853 11.5 14.5Z" fill="#FF355E"/>
<path d="M24 21C24.5523 21 25 21.4477 25 22V23H26C26.5523 23 27 23.4477 27 24C27 24.5523 26.5523 25 26 25H25V26C25 26.5523 24.5523 27 24 27C23.4477 27 23 26.5523 23 26V25H22C21.4477 25 21 24.5523 21 24C21 23.4477 21.4477 23 22 23H23V22C23 21.4477 23.4477 21 24 21Z" fill="#FF355E"/>
<path d="M24 17C20.134 17 17 20.134 17 24C17 27.866 20.134 31 24 31C27.866 31 31 27.866 31 24C31 20.134 27.866 17 24 17ZM19 24C19 21.2386 21.2386 19 24 19C26.7614 19 29 21.2386 29 24C29 26.7614 26.7614 29 24 29C21.2386 29 19 26.7614 19 24Z" fill="#FF355E"/>
</svg>
