<svg width="32" height="32" viewBox="0 0 32 32" fill="none" xmlns="http://www.w3.org/2000/svg">
<path d="M15 22C15 21.4477 15.4477 21 16 21C16.5523 21 17 21.4477 17 22C17 22.5523 16.5523 23 16 23C15.4477 23 15 22.5523 15 22Z" fill="#FF355E"/>
<path d="M16 14C15.4477 14 15 14.4477 15 15V18C15 18.5523 15.4477 19 16 19C16.5523 19 17 18.5523 17 18V15C17 14.4477 16.5523 14 16 14Z" fill="#FF355E"/>
<path fill-rule="evenodd" clip-rule="evenodd" d="M13.3425 7.91828C14.4655 5.77431 17.5344 5.77431 18.6574 7.91828L26.3521 22.608C27.3984 24.6055 25.9495 27 23.6946 27H8.30534C6.0504 27 4.60153 24.6055 5.64784 22.608L13.3425 7.91828ZM16.8858 8.8463C16.5114 8.13164 15.4885 8.13164 15.1141 8.8463L7.41951 23.536C7.07074 24.2018 7.55369 25 8.30534 25H23.6946C24.4462 25 24.9292 24.2018 24.5804 23.536L16.8858 8.8463Z" fill="#FF355E"/>
</svg>
