<svg width="32" height="32" viewBox="0 0 32 32" fill="none" xmlns="http://www.w3.org/2000/svg">
<path d="M18 4C17.7348 4 17.4804 4.10536 17.2929 4.29289C17.1054 4.48043 17 4.73478 17 5V14C17 14.5523 17.4477 15 18 15H27C27.2652 15 27.5196 14.8946 27.7071 14.7071C27.8946 14.5196 28 14.2652 28 14C28 11.3478 26.9464 8.8043 25.0711 6.92893C23.1957 5.05357 20.6522 4 18 4ZM19 13V6.06272C20.753 6.28353 22.3942 7.08052 23.6569 8.34315C24.9195 9.60577 25.7165 11.247 25.9373 13H19ZM14 8C12.0222 8 10.0888 8.58649 8.4443 9.6853C6.79981 10.7841 5.51809 12.3459 4.76121 14.1732C4.00433 16.0004 3.8063 18.0111 4.19215 19.9509C4.578 21.8907 5.53041 23.6725 6.92894 25.0711C8.32746 26.4696 10.1093 27.422 12.0491 27.8079C13.9889 28.1937 15.9996 27.9957 17.8268 27.2388C19.6541 26.4819 21.2159 25.2002 22.3147 23.5557C23.4135 21.9112 24 19.9778 24 18C24 17.4477 23.5523 17 23 17H15V9C15 8.73478 14.8946 8.48043 14.7071 8.29289C14.5196 8.10536 14.2652 8 14 8ZM9.55544 11.3482C10.592 10.6556 11.7721 10.2174 13 10.0627V18C13 18.5523 13.4477 19 14 19H21.9373C21.7826 20.2279 21.3444 21.408 20.6518 22.4446C19.7727 23.7602 18.5233 24.7855 17.0615 25.391C15.5997 25.9965 13.9911 26.155 12.4393 25.8463C10.8874 25.5376 9.46197 24.7757 8.34315 23.6569C7.22433 22.538 6.4624 21.1126 6.15372 19.5607C5.84504 18.0089 6.00347 16.4003 6.60897 14.9385C7.21447 13.4767 8.23985 12.2273 9.55544 11.3482Z" fill="#FF355E"/>
</svg>
