<svg width="32" height="32" viewBox="0 0 32 32" fill="none" xmlns="http://www.w3.org/2000/svg">
<path d="M4.99991 4C5.55219 4 5.99991 4.44772 5.99991 5V14.2338L11.0856 11.1824C11.8624 10.7163 12.7743 10.5277 13.6722 10.6475L18.6626 11.3128C19.28 11.3952 19.9006 11.1851 20.3411 10.7446L26.2928 4.79289C26.5788 4.5069 27.0089 4.42134 27.3826 4.57612C27.7563 4.7309 27.9999 5.09554 27.9999 5.5V28C27.9999 28.5523 27.5522 29 26.9999 29H4.99991C4.44762 29 3.99991 28.5523 3.99991 28V16.0183C3.99971 16.0067 3.99971 15.9951 3.99991 15.9836V5C3.99991 4.44772 4.44762 4 4.99991 4ZM5.99991 16.5662V19.7339L11.2731 16.57C11.8947 16.197 12.6061 16 13.331 16H19.3843C19.6552 16 19.9232 15.9449 20.1722 15.8382L25.9999 13.3406V7.91421L21.7553 12.1588C20.8743 13.0398 19.6332 13.46 18.3982 13.2953L13.4079 12.6299C12.9589 12.5701 12.503 12.6644 12.1146 12.8974L5.99991 16.5662ZM5.99991 24.7339L11.0858 21.6824C11.8625 21.2164 12.7745 21.0278 13.6724 21.1475L19.6162 21.94C19.8439 21.9703 20.075 21.9613 20.2996 21.9131L25.9999 20.6916V15.5166L20.96 17.6765C20.4621 17.8899 19.926 18 19.3843 18H13.331C12.9686 18 12.6129 18.0985 12.3021 18.285L5.99991 22.0663V24.7339ZM6.11044 27H25.9999V22.737L20.7187 23.8687C20.2695 23.965 19.8072 23.9831 19.3519 23.9224L13.4081 23.1299C12.9591 23.0701 12.5031 23.1644 12.1148 23.3974L6.11044 27Z" fill="#FF355E"/>
</svg>
