<svg width="32" height="32" viewBox="0 0 32 32" fill="none" xmlns="http://www.w3.org/2000/svg">
<path d="M25.75 5.75C26.0261 5.75 26.25 5.97386 26.25 6.25C26.25 6.52614 26.0261 6.75 25.75 6.75C25.5691 6.75 25.4106 6.6539 25.3228 6.50997C25.3149 6.49428 25.3065 6.47878 25.2977 6.46348C25.2671 6.39874 25.25 6.32637 25.25 6.25C25.25 5.97386 25.4739 5.75 25.75 5.75ZM23.25 6.25C23.25 6.42804 23.2686 6.60174 23.304 6.76924L19.6508 11.3355C19.4433 11.2798 19.2251 11.25 19 11.25C18.3498 11.25 17.7576 11.4982 17.3129 11.905L14.7499 10.7661L14.75 10.75C14.75 9.36929 13.6307 8.25 12.25 8.25C10.8693 8.25 9.74999 9.36929 9.74999 10.75C9.74999 10.8554 9.75652 10.9593 9.76919 11.0613L5.99999 13.2593V5C5.99999 4.44772 5.55228 4 4.99999 4C4.44771 4 3.99999 4.44772 3.99999 5V14.9829C3.99977 14.9949 3.99977 15.0069 3.99999 15.019V23.979C3.99968 23.9934 3.99968 24.0079 3.99999 24.0223V27.5C3.99999 28.0523 4.44771 28.5 4.99999 28.5H27.5C28.0523 28.5 28.5 28.0523 28.5 27.5C28.5 26.9477 28.0523 26.5 27.5 26.5H5.99999V24.634L9.13265 23.1564C9.56862 23.5267 10.1332 23.75 10.75 23.75C11.7752 23.75 12.6562 23.133 13.042 22.25H15.958C16.3438 23.133 17.2248 23.75 18.25 23.75C19.6307 23.75 20.75 22.6307 20.75 21.25C20.75 21.1695 20.7462 21.09 20.7388 21.0115L23.9454 19.2302C24.4004 19.7046 25.0407 20 25.75 20C27.1307 20 28.25 18.8807 28.25 17.5C28.25 16.1193 27.1307 15 25.75 15C24.428 15 23.3457 16.0261 23.256 17.3253L19.7675 19.2631C19.3467 18.9412 18.8207 18.75 18.25 18.75C17.2248 18.75 16.3438 19.367 15.958 20.25H13.042C12.6562 19.367 11.7752 18.75 10.75 18.75C9.36928 18.75 8.24999 19.8693 8.24999 21.25C8.24999 21.287 8.25079 21.3237 8.25238 21.3603L5.99999 22.4227V15.5745L10.7913 12.7805C11.2018 13.076 11.7056 13.25 12.25 13.25C12.9007 13.25 13.4934 13.0014 13.9381 12.594L16.5001 13.7324L16.5 13.75C16.5 15.1307 17.6193 16.25 19 16.25C20.3807 16.25 21.5 15.1307 21.5 13.75C21.5 13.3293 21.3961 12.9329 21.2125 12.585L24.5331 8.43437C24.8933 8.63543 25.3082 8.75 25.75 8.75C27.1307 8.75 28.25 7.63071 28.25 6.25C28.25 4.86929 27.1307 3.75 25.75 3.75C24.3693 3.75 23.25 4.86929 23.25 6.25ZM11.25 21.25C11.25 21.5261 11.0261 21.75 10.75 21.75C10.4738 21.75 10.25 21.5261 10.25 21.25C10.25 20.9739 10.4738 20.75 10.75 20.75C11.0261 20.75 11.25 20.9739 11.25 21.25ZM18.537 13.5609L18.5437 13.5462L18.5495 13.5329C18.6303 13.3655 18.8017 13.25 19 13.25C19.2761 13.25 19.5 13.4739 19.5 13.75C19.5 14.0261 19.2761 14.25 19 14.25C18.7238 14.25 18.5 14.0261 18.5 13.75C18.5 13.6831 18.5131 13.6192 18.537 13.5609ZM11.8185 11.0027C11.7749 10.9286 11.75 10.8422 11.75 10.75C11.75 10.4739 11.9738 10.25 12.25 10.25C12.5261 10.25 12.75 10.4739 12.75 10.75C12.75 11.0261 12.5261 11.25 12.25 11.25C12.0697 11.25 11.9117 11.1546 11.8237 11.0114L11.8185 11.0027ZM18.25 21.75C17.9738 21.75 17.75 21.5261 17.75 21.25C17.75 20.9739 17.9738 20.75 18.25 20.75C18.5261 20.75 18.75 20.9739 18.75 21.25C18.75 21.5261 18.5261 21.75 18.25 21.75ZM25.2771 17.6627C25.2719 17.6405 25.266 17.6185 25.2593 17.5965C25.2532 17.5653 25.25 17.533 25.25 17.5C25.25 17.2239 25.4739 17 25.75 17C26.0261 17 26.25 17.2239 26.25 17.5C26.25 17.7761 26.0261 18 25.75 18C25.5308 18 25.3446 17.859 25.2771 17.6627Z" fill="#FF355E"/>
</svg>
