<svg width="32" height="32" viewBox="0 0 32 32" fill="none" xmlns="http://www.w3.org/2000/svg">
<path fill-rule="evenodd" clip-rule="evenodd" d="M5 9C5 6.79086 6.79086 5 9 5H23C25.2091 5 27 6.79086 27 9V12C27 13.1046 26.1046 14 25 14H7C5.89543 14 5 13.1046 5 12V9ZM9 7C7.89543 7 7 7.89543 7 9V12H25V9C25 7.89543 24.1046 7 23 7H9Z" fill="#FF355E"/>
<path d="M7 16C7.55228 16 8 16.4477 8 17V21C8 22.6569 9.34315 24 11 24H21C22.6569 24 24 22.6569 24 21V17C24 16.4477 24.4477 16 25 16C25.5523 16 26 16.4477 26 17V21C26 23.7614 23.7614 26 21 26H11C8.23858 26 6 23.7614 6 21V17C6 16.4477 6.44772 16 7 16Z" fill="#FF355E"/>
<path d="M14 17C14 16.4477 13.5523 16 13 16C12.4477 16 12 16.4477 12 17C12 18.6569 13.3431 20 15 20H17C18.6569 20 20 18.6569 20 17C20 16.4477 19.5523 16 19 16C18.4477 16 18 16.4477 18 17C18 17.5523 17.5523 18 17 18H15C14.4477 18 14 17.5523 14 17Z" fill="#FF355E"/>
</svg>
