<svg width="32" height="32" viewBox="0 0 32 32" fill="none" xmlns="http://www.w3.org/2000/svg">
<path fill-rule="evenodd" clip-rule="evenodd" d="M8 4C6.34315 4 5 5.34315 5 7V8C5 9.65685 6.34315 11 8 11H24C25.6569 11 27 9.65685 27 8V7C27 5.34315 25.6569 4 24 4H8ZM7 7C7 6.44772 7.44772 6 8 6H24C24.5523 6 25 6.44772 25 7V8C25 8.55228 24.5523 9 24 9H8C7.44772 9 7 8.55228 7 8V7Z" fill="#FF355E"/>
<path d="M8 12H19C19.5523 12 20 12.4477 20 13C20 13.5523 19.5523 14 19 14H8C7.44772 14 7 14.4477 7 15V16C7 16.5523 7.44772 17 8 17H14C14.5523 17 15 17.4477 15 18C15 18.5523 14.5523 19 14 19H8C6.34315 19 5 17.6569 5 16V15C5 13.3431 6.34315 12 8 12Z" fill="#FF355E"/>
<path d="M8 20C6.34315 20 5 21.3431 5 23V24C5 25.6569 6.34315 27 8 27H12C12.5523 27 13 26.5523 13 26C13 25.4477 12.5523 25 12 25H8C7.44772 25 7 24.5523 7 24V23C7 22.4477 7.44772 22 8 22H12C12.5523 22 13 21.5523 13 21C13 20.4477 12.5523 20 12 20H8Z" fill="#FF355E"/>
<path d="M24 23.5C24 22.9477 23.5523 22.5 23 22.5C22.4477 22.5 22 22.9477 22 23.5V24.5C22 25.0523 22.4477 25.5 23 25.5C23.5523 25.5 24 25.0523 24 24.5V23.5Z" fill="#FF355E"/>
<path fill-rule="evenodd" clip-rule="evenodd" d="M20 18V19H19C17.3431 19 16 20.3431 16 22V26C16 27.6569 17.3431 29 19 29H27C28.6569 29 30 27.6569 30 26V22C30 20.3431 28.6569 19 27 19H26V18C26 16.3431 24.6569 15 23 15C21.3431 15 20 16.3431 20 18ZM23 17C22.4477 17 22 17.4477 22 18V19H24V18C24 17.4477 23.5523 17 23 17ZM19 21C18.4477 21 18 21.4477 18 22V26C18 26.5523 18.4477 27 19 27H27C27.5523 27 28 26.5523 28 26V22C28 21.4477 27.5523 21 27 21H19Z" fill="#FF355E"/>
</svg>
