<svg width="32" height="32" viewBox="0 0 32 32" fill="none" xmlns="http://www.w3.org/2000/svg">
<path fill-rule="evenodd" clip-rule="evenodd" d="M5 7C5 5.34315 6.34315 4 8 4H24C25.6569 4 27 5.34315 27 7V8C27 9.65685 25.6569 11 24 11H17V12H24C25.6569 12 27 13.3431 27 15V16C27 17.6569 25.6569 19 24 19H17V20H24C25.6569 20 27 21.3431 27 23V24C27 25.6569 25.6569 27 24 27H8C6.34315 27 5 25.6569 5 24V23C5 21.3431 6.34315 20 8 20H15V19H8C6.34315 19 5 17.6569 5 16V15C5 13.3431 6.34315 12 8 12H15V11H8C6.34315 11 5 9.65685 5 8V7ZM24 17C24.5523 17 25 16.5523 25 16V15C25 14.4477 24.5523 14 24 14H8C7.44772 14 7 14.4477 7 15V16C7 16.5523 7.44772 17 8 17H24ZM24 9H8C7.44772 9 7 8.55228 7 8V7C7 6.44772 7.44772 6 8 6H24C24.5523 6 25 6.44772 25 7V8C25 8.55228 24.5523 9 24 9ZM8 22C7.44772 22 7 22.4477 7 23V24C7 24.5523 7.44772 25 8 25H24C24.5523 25 25 24.5523 25 24V23C25 22.4477 24.5523 22 24 22H8Z" fill="#FF355E"/>
</svg>
