<svg width="32" height="32" viewBox="0 0 32 32" fill="none" xmlns="http://www.w3.org/2000/svg">
<path fill-rule="evenodd" clip-rule="evenodd" d="M11 6V7H8C5.23858 7 3 9.23858 3 12V22C3 24.7614 5.23858 27 8 27H24C26.7614 27 29 24.7614 29 22V12C29 9.23858 26.7614 7 24 7H21V6C21 4.34315 19.6569 3 18 3H14C12.3431 3 11 4.34315 11 6ZM14 5C13.4477 5 13 5.44772 13 6V7H19V6C19 5.44772 18.5523 5 18 5H14ZM27 13V12C27 10.3431 25.6569 9 24 9H8C6.34315 9 5 10.3431 5 12V13C5 14.1046 5.89543 15 7 15H13.1707C13.5825 13.8348 14.6938 13 16 13C17.3062 13 18.4175 13.8348 18.8293 15H25C26.1046 15 27 14.1046 27 13ZM18.8293 17H25C25.7286 17 26.4117 16.8052 27 16.4649V22C27 23.6569 25.6569 25 24 25H8C6.34315 25 5 23.6569 5 22V16.4649C5.58835 16.8052 6.27143 17 7 17H13.1707C13.5825 18.1652 14.6938 19 16 19C17.3062 19 18.4175 18.1652 18.8293 17ZM17 16C17 15.4477 16.5523 15 16 15C15.4477 15 15 15.4477 15 16C15 16.5523 15.4477 17 16 17C16.5523 17 17 16.5523 17 16Z" fill="#FF355E"/>
</svg>
