<svg width="32" height="32" viewBox="0 0 32 32" fill="none" xmlns="http://www.w3.org/2000/svg">
<path fill-rule="evenodd" clip-rule="evenodd" d="M3 10C3 7.23858 5.23858 5 8 5H24C26.7614 5 29 7.23858 29 10V15C29 15.5523 28.5523 16 28 16C27.4477 16 27 15.5523 27 15V13H5V22C5 23.6569 6.34315 25 8 25H13C13.5523 25 14 25.4477 14 26C14 26.5523 13.5523 27 13 27H8C5.23858 27 3 24.7614 3 22V10ZM5 10C5 8.34315 6.34315 7 8 7H24C25.6569 7 27 8.34315 27 10V11H5V10Z" fill="#FF355E"/>
<path fill-rule="evenodd" clip-rule="evenodd" d="M28.2071 18.7929C26.9882 17.5739 25.0119 17.5739 23.7929 18.7929L17.7929 24.7929C17.6399 24.9459 17.5407 25.1444 17.5101 25.3586L17.0101 28.8586C16.9655 29.1702 17.0703 29.4845 17.2929 29.7071C17.5155 29.9297 17.8298 30.0344 18.1414 29.9899L21.6414 29.4899C21.8556 29.4593 22.0541 29.3601 22.2071 29.2071L28.2071 23.2071C29.4261 21.9881 29.4261 20.0118 28.2071 18.7929ZM26.7929 20.2071C26.355 19.7692 25.645 19.7692 25.2071 20.2071L19.4428 25.9714L19.1785 27.8215L21.0286 27.5572L26.7929 21.7929C27.2308 21.355 27.2308 20.645 26.7929 20.2071Z" fill="#FF355E"/>
<path d="M8 17C8 16.4477 8.44772 16 9 16H20C20.5523 16 21 16.4477 21 17C21 17.5523 20.5523 18 20 18H9C8.44772 18 8 17.5523 8 17Z" fill="#FF355E"/>
<path d="M9 20C8.44772 20 8 20.4477 8 21C8 21.5523 8.44772 22 9 22H16C16.5523 22 17 21.5523 17 21C17 20.4477 16.5523 20 16 20H9Z" fill="#FF355E"/>
</svg>
