<svg width="32" height="32" viewBox="0 0 32 32" fill="none" xmlns="http://www.w3.org/2000/svg">
<path fill-rule="evenodd" clip-rule="evenodd" d="M22.1754 4.92157C23.5428 3.65795 25.6656 3.69861 26.9834 5.01387C28.3021 6.3301 28.3431 8.45205 27.0758 9.81801L17.8086 19.8073C17.8049 19.8114 17.801 19.8155 17.7972 19.8196L16.8437 20.8473C16.813 20.8805 16.7827 20.9132 16.7527 20.9456C16.3152 21.4181 15.9549 21.8072 15.5434 22.0498C15.0099 22.3643 14.4077 22.514 13.8083 22.4978C13.9685 23.9308 13.4982 25.4208 12.3973 26.5196C11.3752 27.5397 9.96332 27.8533 8.69056 27.9544C7.82784 28.023 6.87606 27.9982 6.03741 27.9764C5.66307 27.9667 5.31128 27.9576 5 27.9576C4.65151 27.9576 4.32815 27.7761 4.14653 27.4787C3.96491 27.1813 3.95124 26.8107 4.11044 26.5007C4.52411 25.6952 4.48596 24.7494 4.43652 23.524C4.43478 23.4807 4.43302 23.437 4.43126 23.3931L4.43072 23.3795C4.38621 22.2642 4.3233 20.6879 5.44153 19.5718C6.54238 18.4731 8.03493 18.004 9.47025 18.1645C9.45427 17.566 9.60455 16.9647 9.91971 16.4321C10.1629 16.0211 10.5529 15.6614 11.0262 15.2249C11.0586 15.1949 11.0915 15.1646 11.1247 15.1339L22.1754 4.92157ZM17.0417 17.6933L25.6096 8.45778C26.1449 7.88085 26.1277 6.98555 25.5705 6.42945C25.0124 5.87239 24.1121 5.85505 23.5328 6.3904L14.2822 14.9392L17.0417 17.6933ZM12.8122 16.2977L15.6805 19.1605L15.3775 19.4871C14.7994 20.1102 14.6519 20.2537 14.5277 20.3269C14.1532 20.5477 13.6898 20.5566 13.307 20.3503C13.18 20.2819 13.0271 20.1442 12.4254 19.5437C11.8236 18.9431 11.6859 18.7906 11.6175 18.6643C11.4116 18.2835 11.4204 17.8232 11.6409 17.4506C11.7141 17.327 11.8577 17.1798 12.4821 16.6028L12.8122 16.2977ZM10.9845 20.9874C9.84419 19.8493 7.99465 19.8493 6.85437 20.9874C6.44651 21.3944 6.37852 22.0311 6.42967 23.3133C6.43303 23.3975 6.43692 23.4845 6.44091 23.574C6.47209 24.2722 6.51003 25.1217 6.35784 25.9829C7.09431 26.0026 7.81145 26.018 8.53211 25.9607C9.66222 25.8709 10.4759 25.6116 10.9845 25.104C12.1237 23.967 12.1237 22.1244 10.9845 20.9874Z" fill="#FF355E"/>
</svg>
