<svg width="32" height="32" viewBox="0 0 32 32" fill="none" xmlns="http://www.w3.org/2000/svg">
<path d="M13 10C12.4477 10 12 10.4477 12 11C12 11.5523 12.4477 12 13 12H19C19.5523 12 20 11.5523 20 11C20 10.4477 19.5523 10 19 10H13Z" fill="#FF355E"/>
<path d="M12 16C12 15.4477 12.4477 15 13 15H19C19.5523 15 20 15.4477 20 16C20 16.5523 19.5523 17 19 17H13C12.4477 17 12 16.5523 12 16Z" fill="#FF355E"/>
<path fill-rule="evenodd" clip-rule="evenodd" d="M16 3C16.5523 3 17 3.44772 17 4V5H20C22.7614 5 25 7.23858 25 10V26H26C26.5523 26 27 26.4477 27 27C27 27.5523 26.5523 28 26 28H6C5.44772 28 5 27.5523 5 27C5 26.4477 5.44772 26 6 26H7V10C7 7.23858 9.23858 5 12 5H15V4C15 3.44772 15.4477 3 16 3ZM12 7H20C21.6569 7 23 8.34315 23 10V26H19V23C19 21.8954 18.1046 21 17 21H15C13.8954 21 13 21.8954 13 23V26H9V10C9 8.34315 10.3431 7 12 7Z" fill="#FF355E"/>
</svg>
