<svg width="32" height="32" viewBox="0 0 32 32" fill="none" xmlns="http://www.w3.org/2000/svg">
<path d="M8 8C8 6.89543 8.89543 6 10 6H11C11.5523 6 12 6.44772 12 7C12 7.55228 11.5523 8 11 8H10V9C10 9.55228 9.55228 10 9 10C8.44772 10 8 9.55228 8 9V8Z" fill="#FF355E"/>
<path d="M14 6C13.4477 6 13 6.44772 13 7C13 7.55228 13.4477 8 14 8H18C18.5523 8 19 7.55228 19 7C19 6.44772 18.5523 6 18 6H14Z" fill="#FF355E"/>
<path d="M8 22C8 21.4477 8.44772 21 9 21H13C13.5523 21 14 21.4477 14 22C14 22.5523 13.5523 23 13 23H9C8.44772 23 8 22.5523 8 22Z" fill="#FF355E"/>
<path d="M19 21C18.4477 21 18 21.4477 18 22C18 22.5523 18.4477 23 19 23H23C23.5523 23 24 22.5523 24 22C24 21.4477 23.5523 21 23 21H19Z" fill="#FF355E"/>
<path fill-rule="evenodd" clip-rule="evenodd" d="M10 3C7.23858 3 5 5.23858 5 8C3.34315 8 2 9.34315 2 11V13C2 14.6569 3.34315 16 5 16V22C5 24.0503 6.2341 25.8124 8 26.584V28C8 29.1046 8.89543 30 10 30H12C13.1046 30 14 29.1046 14 28V27H18V28C18 29.1046 18.8954 30 20 30H22C23.1046 30 24 29.1046 24 28V26.584C25.7659 25.8124 27 24.0503 27 22V16C28.6569 16 30 14.6569 30 13V11C30 9.34315 28.6569 8 27 8C27 5.23858 24.7614 3 22 3H10ZM25 8C25 6.34315 23.6569 5 22 5H10C8.34315 5 7 6.34315 7 8V18H25V8ZM27 14V10C27.5523 10 28 10.4477 28 11V13C28 13.5523 27.5523 14 27 14ZM4 11C4 10.4477 4.44772 10 5 10V14C4.44772 14 4 13.5523 4 13V11ZM22 25C23.6569 25 25 23.6569 25 22V20H7V22C7 23.6569 8.34315 25 10 25H22ZM20 27V28H22V27H20ZM10 27H12V28H10V27Z" fill="#FF355E"/>
</svg>
