<svg width="32" height="32" viewBox="0 0 32 32" fill="none" xmlns="http://www.w3.org/2000/svg">
<path d="M15 6V15H6V6.4C6 6.17909 6.17909 6 6.4 6H15ZM17 15V6H25.6C25.8209 6 26 6.17909 26 6.4V15H17ZM15 17V26H6.4C6.17909 26 6 25.8209 6 25.6V17H15ZM17 26V17H26V25.6C26 25.8209 25.8209 26 25.6 26H17ZM10.6 7.8C11.1523 7.8 11.6 8.24772 11.6 8.8V9.6H12.4C12.9523 9.6 13.4 10.0477 13.4 10.6C13.4 11.1523 12.9523 11.6 12.4 11.6H11.6V12.4C11.6 12.9523 11.1523 13.4 10.6 13.4C10.0477 13.4 9.6 12.9523 9.6 12.4V11.6H8.8C8.24772 11.6 7.8 11.1523 7.8 10.6C7.8 10.0477 8.24772 9.6 8.8 9.6H9.6V8.8C9.6 8.24772 10.0477 7.8 10.6 7.8ZM13.1071 18.8929C13.4976 19.2834 13.4976 19.9166 13.1071 20.3071L12.0142 21.4L13.1071 22.4929C13.4976 22.8834 13.4976 23.5166 13.1071 23.9071C12.7166 24.2976 12.0834 24.2976 11.6929 23.9071L10.6 22.8142L9.50711 23.9071C9.11658 24.2976 8.48342 24.2976 8.09289 23.9071C7.70237 23.5166 7.70237 22.8834 8.09289 22.4929L9.18579 21.4L8.09289 20.3071C7.70237 19.9166 7.70237 19.2834 8.09289 18.8929C8.48342 18.5024 9.11658 18.5024 9.50711 18.8929L10.6 19.9858L11.6929 18.8929C12.0834 18.5024 12.7166 18.5024 13.1071 18.8929ZM18.6 10.6C18.6 10.0477 19.0477 9.6 19.6 9.6H23.2C23.7523 9.6 24.2 10.0477 24.2 10.6C24.2 11.1523 23.7523 11.6 23.2 11.6H19.6C19.0477 11.6 18.6 11.1523 18.6 10.6ZM18.6 19.6C18.6 19.0477 19.0477 18.6 19.6 18.6H23.2C23.7523 18.6 24.2 19.0477 24.2 19.6C24.2 20.1523 23.7523 20.6 23.2 20.6H19.6C19.0477 20.6 18.6 20.1523 18.6 19.6ZM18.6 23.2C18.6 22.6477 19.0477 22.2 19.6 22.2H23.2C23.7523 22.2 24.2 22.6477 24.2 23.2C24.2 23.7523 23.7523 24.2 23.2 24.2H19.6C19.0477 24.2 18.6 23.7523 18.6 23.2ZM6.4 4C5.07452 4 4 5.07452 4 6.4V25.6C4 26.9255 5.07452 28 6.4 28H25.6C26.9255 28 28 26.9255 28 25.6V6.4C28 5.07452 26.9255 4 25.6 4H6.4Z" fill="#FF355E"/>
</svg>
