<svg width="32" height="32" viewBox="0 0 32 32" fill="none" xmlns="http://www.w3.org/2000/svg">
<path fill-rule="evenodd" clip-rule="evenodd" d="M11 4C11 3.44772 10.5523 3 10 3C9.44772 3 9 3.44772 9 4V5H8C5.23858 5 3 7.23858 3 10V22C3 24.7614 5.23858 27 8 27H13.5C14.0523 27 14.5 26.5523 14.5 26C14.5 25.4477 14.0523 25 13.5 25H8C6.34315 25 5 23.6569 5 22V13H27V14.5C27 15.0523 27.4477 15.5 28 15.5C28.5523 15.5 29 15.0523 29 14.5V10C29 7.23858 26.7614 5 24 5H23V4C23 3.44772 22.5523 3 22 3C21.4477 3 21 3.44772 21 4V5H11V4ZM9 7V8C9 8.55228 9.44772 9 10 9C10.5523 9 11 8.55228 11 8V7H21V8C21 8.55228 21.4477 9 22 9C22.5523 9 23 8.55228 23 8V7H24C25.6569 7 27 8.34315 27 10V11H5V10C5 8.34315 6.34315 7 8 7H9Z" fill="#FF355E"/>
<path d="M24 20.5C24.5523 20.5 25 20.9477 25 21.5V23H26C26.5523 23 27 23.4477 27 24C27 24.5523 26.5523 25 26 25H24C23.4477 25 23 24.5523 23 24V21.5C23 20.9477 23.4477 20.5 24 20.5Z" fill="#FF355E"/>
<path fill-rule="evenodd" clip-rule="evenodd" d="M24 17C20.134 17 17 20.134 17 24C17 27.866 20.134 31 24 31C27.866 31 31 27.866 31 24C31 20.134 27.866 17 24 17ZM19 24C19 21.2386 21.2386 19 24 19C26.7614 19 29 21.2386 29 24C29 26.7614 26.7614 29 24 29C21.2386 29 19 26.7614 19 24Z" fill="#FF355E"/>
</svg>
