<svg width="32" height="32" viewBox="0 0 32 32" fill="none" xmlns="http://www.w3.org/2000/svg">
<path fill-rule="evenodd" clip-rule="evenodd" d="M11 4C11 3.44772 10.5523 3 10 3C9.44772 3 9 3.44772 9 4V5H8C5.23858 5 3 7.23858 3 10V22C3 24.7614 5.23858 27 8 27H24C26.7614 27 29 24.7614 29 22V10C29 7.23858 26.7614 5 24 5H23V4C23 3.44772 22.5523 3 22 3C21.4477 3 21 3.44772 21 4V5H11V4ZM27 11V10C27 8.34315 25.6569 7 24 7H23V8C23 8.55228 22.5523 9 22 9C21.4477 9 21 8.55228 21 8V7H11V8C11 8.55228 10.5523 9 10 9C9.44772 9 9 8.55228 9 8V7H8C6.34315 7 5 8.34315 5 10V11H27ZM5 13H27V22C27 23.6569 25.6569 25 24 25H8C6.34315 25 5 23.6569 5 22V13Z" fill="#FF355E"/>
</svg>
