<svg width="32" height="32" viewBox="0 0 32 32" fill="none" xmlns="http://www.w3.org/2000/svg">
<path fill-rule="evenodd" clip-rule="evenodd" d="M12 15C12 12.7909 13.7909 11 16 11C18.2091 11 20 12.7909 20 15C20 17.2091 18.2091 19 16 19C13.7909 19 12 17.2091 12 15ZM16 13C14.8954 13 14 13.8954 14 15C14 16.1046 14.8954 17 16 17C17.1046 17 18 16.1046 18 15C18 13.8954 17.1046 13 16 13Z" fill="#FF355E"/>
<path fill-rule="evenodd" clip-rule="evenodd" d="M3 10C3 8.34315 4.34315 7 6 7H26C27.6569 7 29 8.34315 29 10V20C29 21.6569 27.6569 23 26 23H6C4.34314 23 3 21.6569 3 20V10ZM27 10C27 9.44772 26.5523 9 26 9H24C24 10.6569 25.3431 12 27 12V10ZM22 9C22 11.7614 24.2386 14 27 14V16C24.2386 16 22 18.2386 22 21H10C10 18.2386 7.76142 16 5 16V14C7.76142 14 10 11.7614 10 9H22ZM6 9H8C8 10.6569 6.65685 12 5 12V10C5 9.44772 5.44772 9 6 9ZM24 21H26C26.5523 21 27 20.5523 27 20V18C25.3431 18 24 19.3431 24 21ZM8 21C8 19.3431 6.65685 18 5 18V20C5 20.5523 5.44772 21 6 21H8Z" fill="#FF355E"/>
<path d="M5.8944 24.5528C5.64741 24.0588 5.04674 23.8586 4.55276 24.1056C4.05878 24.3526 3.85856 24.9532 4.10555 25.4472C4.58137 26.3989 5.55403 27 6.61801 27H25.3819C26.4459 27 27.4186 26.3989 27.8944 25.4472C28.1414 24.9532 27.9412 24.3526 27.4472 24.1056C26.9532 23.8586 26.3525 24.0588 26.1055 24.5528C25.9685 24.8269 25.6884 25 25.3819 25H6.61801C6.31158 25 6.03144 24.8269 5.8944 24.5528Z" fill="#FF355E"/>
</svg>
