<svg width="32" height="32" viewBox="0 0 32 32" fill="none" xmlns="http://www.w3.org/2000/svg">
<path d="M7 7C6.44772 7 6 7.44772 6 8V14C6 14.5523 6.44772 15 7 15C7.26522 15 7.51957 15.1054 7.70711 15.2929C7.89464 15.4804 8 15.7348 8 16L8 17.5858L10.2929 15.2929C10.4804 15.1054 10.7348 15 11 15H12C12.5523 15 13 15.4477 13 16C13 16.5523 12.5523 17 12 17H11.4142L9.41421 19C8.15428 20.2599 6 19.3676 6 17.5858V16.8293C4.83481 16.4175 4 15.3062 4 14V8C4 6.34315 5.34315 5 7 5H15C16.6569 5 18 6.34315 18 8V11C18 11.5523 17.5523 12 17 12C16.4477 12 16 11.5523 16 11V8C16 7.44772 15.5523 7 15 7H7Z" fill="#FF355E"/>
<path fill-rule="evenodd" clip-rule="evenodd" d="M10 13H12C12 13.5523 12.4477 14 13 14C13.5523 14 14 13.5523 14 13V11C14 9.34315 12.6569 8 11 8C9.34315 8 8 9.34315 8 11V13C8 13.5523 8.44772 14 9 14C9.55228 14 10 13.5523 10 13ZM10 11C10 10.4477 10.4477 10 11 10C11.5523 10 12 10.4477 12 11H10Z" fill="#FF355E"/>
<path fill-rule="evenodd" clip-rule="evenodd" d="M18 18C17.4477 18 17 18.4477 17 19C17 19.5523 17.4477 20 18 20H18.1561C18.262 20.3476 18.4267 20.7094 18.6644 21.0577C18.2772 21.1956 18 21.5654 18 22C18 22.5523 18.4477 23 19 23C19.7588 23 20.4234 22.8998 21 22.7211C21.5766 22.8998 22.2412 23 23 23C23.5523 23 24 22.5523 24 22C24 21.5654 23.7228 21.1956 23.3356 21.0577C23.5733 20.7094 23.738 20.3476 23.8439 20H24C24.5523 20 25 19.5523 25 19C25 18.4477 24.5523 18 24 18H22V17.5C22 16.9477 21.5523 16.5 21 16.5C20.4477 16.5 20 16.9477 20 17.5V18H18ZM21.4786 20.1825C21.3575 20.3086 21.2014 20.4377 21 20.5549C20.7986 20.4377 20.6425 20.3086 20.5214 20.1825C20.4641 20.1228 20.4126 20.0617 20.3664 20H21.6336C21.5874 20.0617 21.5359 20.1228 21.4786 20.1825Z" fill="#FF355E"/>
<path fill-rule="evenodd" clip-rule="evenodd" d="M25 14C26.6569 14 28 15.3431 28 17V23C28 24.3062 27.1652 25.4175 26 25.8293V26.5858C26 28.3676 23.8457 29.2599 22.5858 28L20.5858 26H17C15.3431 26 14 24.6569 14 23V17C14 15.3431 15.3431 14 17 14H25ZM26 17C26 16.4477 25.5523 16 25 16H17C16.4477 16 16 16.4477 16 17V23C16 23.5523 16.4477 24 17 24H21C21.2652 24 21.5196 24.1054 21.7071 24.2929L24 26.5858V25C24 24.7348 24.1054 24.4804 24.2929 24.2929C24.4804 24.1054 24.7348 24 25 24C25.5523 24 26 23.5523 26 23V17Z" fill="#FF355E"/>
</svg>
