<svg width="32" height="32" viewBox="0 0 32 32" fill="none" xmlns="http://www.w3.org/2000/svg">
<path d="M20.7071 13.7071C21.0976 13.3166 21.0976 12.6834 20.7071 12.2929C20.3166 11.9024 19.6834 11.9024 19.2929 12.2929L14 17.5858L12.7071 16.2929C12.3166 15.9024 11.6834 15.9024 11.2929 16.2929C10.9024 16.6834 10.9024 17.3166 11.2929 17.7071L13.2929 19.7071C13.6834 20.0976 14.3166 20.0976 14.7071 19.7071L20.7071 13.7071Z" fill="#FF355E"/>
<path fill-rule="evenodd" clip-rule="evenodd" d="M16 4C9.37258 4 4 9.37258 4 16C4 22.6274 9.37258 28 16 28C22.6274 28 28 22.6274 28 16C28 9.37258 22.6274 4 16 4ZM6 16C6 10.4772 10.4772 6 16 6C21.5228 6 26 10.4772 26 16C26 21.5228 21.5228 26 16 26C10.4772 26 6 21.5228 6 16Z" fill="#FF355E"/>
</svg>
