<svg width="32" height="32" viewBox="0 0 32 32" fill="none" xmlns="http://www.w3.org/2000/svg">
<path d="M14 3C14.5523 3 15 3.44772 15 4V6C15 6.55228 14.5523 7 14 7C13.4477 7 13 6.55228 13 6V4C13 3.44772 13.4477 3 14 3Z" fill="#FF355E"/>
<path fill-rule="evenodd" clip-rule="evenodd" d="M11 8C8.79086 8 7 9.79086 7 12V18C7 22.4183 10.5817 26 15 26H17C20.7277 26 23.8599 23.4505 24.748 20H25C27.2091 20 29 18.2091 29 16C29 13.7909 27.2091 12 25 12C25 9.79086 23.2091 8 21 8H11ZM23 12C23 10.8954 22.1046 10 21 10H11C9.89543 10 9 10.8954 9 12V18C9 21.3137 11.6863 24 15 24H17C20.3137 24 23 21.3137 23 18V12ZM25 14C26.1046 14 27 14.8954 27 16C27 17.1046 26.1046 18 25 18V14Z" fill="#FF355E"/>
<path d="M19 4C19 3.44772 18.5523 3 18 3C17.4477 3 17 3.44772 17 4V6C17 6.55228 17.4477 7 18 7C18.5523 7 19 6.55228 19 6V4Z" fill="#FF355E"/>
</svg>
