<svg width="32" height="32" viewBox="0 0 32 32" fill="none" xmlns="http://www.w3.org/2000/svg">
<path fill-rule="evenodd" clip-rule="evenodd" d="M14.8125 5.37789C16.1427 5.9691 17 7.28825 17 8.74394V13C17 13.5523 16.5523 14 16 14C15.4477 14 15 13.5523 15 13V12.3318C14.8158 12.4298 14.6217 12.5135 14.4189 12.5811L14.3012 12.6203C12.4829 13.2264 10.5171 13.2264 8.69876 12.6203L8.58114 12.5811C8.37833 12.5135 8.18421 12.4298 8 12.3318V13C8 13.7639 8.48885 14.4422 9.21359 14.6838L9.33121 14.723C10.1736 15.0037 10.9593 15.0004 11.9246 14.9962L12 14.9959V15C12.5523 15 13 15.4477 13 16C13 16.5523 12.5523 17 12 17C11 17 9.76815 16.9768 8.69876 16.6203L8.58114 16.5811C8.37833 16.5135 8.18421 16.4298 8 16.3318V17C8 17.7639 8.48885 18.4422 9.21359 18.6838L9.33121 18.723C10.1539 18.9972 10.9225 18.9966 11.8572 18.9959L12 18.9959V19C12.5523 19 13 19.4477 13 20C13 20.5523 12.5523 21 12 21C11 21 9.76815 20.9768 8.69876 20.6203L8.58114 20.5811C8.37833 20.5135 8.18421 20.4298 8 20.3318V20.876C8 21.714 8.53623 22.458 9.33121 22.723C10.1644 23.0007 10.9423 23.0004 11.8933 23L11.9995 23C11.9993 23 11.9997 23 11.9995 23C12.5518 23 13 23.4477 13 24C13 24.5523 12.5523 25 12 25C11 25 9.76815 24.9768 8.69876 24.6203C7.08709 24.0831 6 22.5749 6 20.876V8.74394C6 7.28825 6.85728 5.9691 8.18751 5.37789C10.2964 4.44061 12.7036 4.44061 14.8125 5.37789ZM14.0002 7.20551C12.4085 6.49807 10.5915 6.49807 8.99978 7.20551C8.39181 7.47572 8 8.07862 8 8.74394V8.99998C8 9.76394 8.48885 10.4422 9.21359 10.6838L9.33121 10.723C10.739 11.1922 12.261 11.1922 13.6688 10.723L13.7864 10.6838C14.5112 10.4422 15 9.76394 15 8.99998V8.74394C15 8.07862 14.6082 7.47572 14.0002 7.20551Z" fill="#FF355E"/>
<path fill-rule="evenodd" clip-rule="evenodd" d="M14 19C14 18.909 14.0122 18.8208 14.0349 18.737C14.2082 17.488 15.0137 16.3996 16.1875 15.8779C18.2964 14.9406 20.7036 14.9406 22.8125 15.8779C23.9863 16.3996 24.7918 17.488 24.9651 18.737C24.9878 18.8208 25 18.909 25 19C25 19.041 24.9993 19.082 24.998 19.1228C24.9993 19.163 25 19.2034 25 19.2439V22.876C25 24.5749 23.9129 26.0831 22.3012 26.6203C20.4829 27.2264 18.5171 27.2264 16.6988 26.6203C15.0871 26.0831 14 24.5749 14 22.876V19.2439C14 19.2034 14.0007 19.163 14.002 19.1228C14.0007 19.082 14 19.041 14 19ZM22.0002 17.7055C20.4085 16.9981 18.5915 16.9981 16.9998 17.7055C16.4287 17.9593 16.0483 18.5067 16.0043 19.1236C16.0538 19.8363 16.5282 20.4553 17.2136 20.6838L17.3312 20.723C18.739 21.1922 20.261 21.1922 21.6688 20.723L21.7864 20.6838C22.4718 20.4553 22.9462 19.8363 22.9957 19.1236C22.9517 18.5067 22.5713 17.9593 22.0002 17.7055ZM23 22.876V22.3318C22.8158 22.4298 22.6217 22.5135 22.4189 22.5811L22.3012 22.6203C20.4829 23.2264 18.5171 23.2264 16.6988 22.6203L16.5811 22.5811C16.3783 22.5135 16.1842 22.4298 16 22.3318V22.876C16 23.714 16.5362 24.458 17.3312 24.723C18.739 25.1922 20.261 25.1922 21.6688 24.723C22.4638 24.458 23 23.714 23 22.876Z" fill="#FF355E"/>
</svg>
