<svg width="32" height="32" viewBox="0 0 32 32" fill="none" xmlns="http://www.w3.org/2000/svg">
<path d="M13 15C12.4477 15 12 15.4477 12 16C12 16.5523 12.4477 17 13 17C13.5523 17 14 16.5523 14 16C14 15.4477 13.5523 15 13 15Z" fill="#FF355E"/>
<path d="M15 16C15 15.4477 15.4477 15 16 15C16.5523 15 17 15.4477 17 16C17 16.5523 16.5523 17 16 17C15.4477 17 15 16.5523 15 16Z" fill="#FF355E"/>
<path d="M19 15C18.4477 15 18 15.4477 18 16C18 16.5523 18.4477 17 19 17C19.5523 17 20 16.5523 20 16C20 15.4477 19.5523 15 19 15Z" fill="#FF355E"/>
<path d="M8.66667 5C6.10467 5 4 7.04776 4 9.60776V19.2285C4 21.7885 6.10467 23.8362 8.66667 23.8362C8.80473 23.8362 8.88889 23.9421 8.88889 24.0388V27.3975C8.88889 28.8537 10.6402 29.5128 11.6335 28.5355L15.9854 24.2535C16.2551 23.9881 16.6243 23.8362 17.0125 23.8362H23.3333C25.8953 23.8362 28 21.7885 28 19.2285V9.60776C28 7.04776 25.8953 5 23.3333 5H8.66667ZM6 9.60776C6 8.18274 7.17858 7 8.66667 7H23.3333C24.8214 7 26 8.18274 26 9.60776V19.2285C26 20.6535 24.8214 21.8362 23.3333 21.8362H17.0125C16.1042 21.8362 15.2298 22.1911 14.5827 22.8279L10.8889 26.4623V24.0388C10.8889 22.8071 9.87864 21.8362 8.66667 21.8362C7.17858 21.8362 6 20.6535 6 19.2285V9.60776Z" fill="#FF355E"/>
</svg>
