<svg width="32" height="32" viewBox="0 0 32 32" fill="none" xmlns="http://www.w3.org/2000/svg">
<path d="M14.4472 18.8944C15.4247 18.4056 16.5753 18.4056 17.5528 18.8944C18.0467 19.1414 18.6474 18.9412 18.8944 18.4472C19.1414 17.9532 18.9412 17.3525 18.4472 17.1055C16.9066 16.3353 15.0933 16.3353 13.5528 17.1055C13.0588 17.3525 12.8586 17.9532 13.1055 18.4472C13.3525 18.9412 13.9532 19.1414 14.4472 18.8944Z" fill="#FF355E"/>
<path d="M13 14C13 13.4477 13.4477 13 14 13C14.5523 13 15 13.4477 15 14V15C15 15.5523 14.5523 16 14 16C13.4477 16 13 15.5523 13 15V14Z" fill="#FF355E"/>
<path d="M18 13C17.4477 13 17 13.4477 17 14V15C17 15.5523 17.4477 16 18 16C18.5523 16 19 15.5523 19 15V14C19 13.4477 18.5523 13 18 13Z" fill="#FF355E"/>
<path fill-rule="evenodd" clip-rule="evenodd" d="M9 16C9 12.134 12.134 9 16 9C19.866 9 23 12.134 23 16C23 19.866 19.866 23 16 23C12.134 23 9 19.866 9 16ZM16 11C13.2386 11 11 13.2386 11 16C11 18.7614 13.2386 21 16 21C18.7614 21 21 18.7614 21 16C21 13.2386 18.7614 11 16 11Z" fill="#FF355E"/>
<path fill-rule="evenodd" clip-rule="evenodd" d="M3 11C3 8.23858 5.23858 6 8 6H24C26.7614 6 29 8.23858 29 11V21C29 23.7614 26.7614 26 24 26H16.0862C15.6183 26 15.1652 26.164 14.8058 26.4636L11.2804 29.4014C9.97771 30.4869 8 29.5606 8 27.865L8 26C5.23858 26 3 23.7614 3 21V11ZM8 8C6.34315 8 5 9.34315 5 11V21C5 22.6569 6.34315 24 8 24C9.10457 24 10 24.8954 10 26L10 27.865L13.5254 24.9271C14.2443 24.3281 15.1504 24 16.0862 24H24C25.6569 24 27 22.6569 27 21V11C27 9.34315 25.6569 8 24 8H8Z" fill="#FF355E"/>
</svg>
