<svg width="32" height="32" viewBox="0 0 32 32" fill="none" xmlns="http://www.w3.org/2000/svg">
<path fill-rule="evenodd" clip-rule="evenodd" d="M16 3C16.5523 3 17 3.44772 17 4V9H18C19.6569 9 21 10.3431 21 12V14C21 15.6569 19.6569 17 18 17H17V28C17 28.5523 16.5523 29 16 29C15.4477 29 15 28.5523 15 28V17H14C12.3431 17 11 15.6569 11 14V12C11 10.3431 12.3431 9 14 9H15V4C15 3.44772 15.4477 3 16 3ZM18 15C18.5523 15 19 14.5523 19 14V12C19 11.4477 18.5523 11 18 11H14C13.4477 11 13 11.4477 13 12V14C13 14.5523 13.4477 15 14 15H18Z" fill="#FF355E"/>
<path d="M5 13C5 12.4477 5.44772 12 6 12H8C8.55228 12 9 12.4477 9 13C9 13.5523 8.55228 14 8 14H6C5.44772 14 5 13.5523 5 13Z" fill="#FF355E"/>
<path d="M6 24C5.44772 24 5 24.4477 5 25C5 25.5523 5.44772 26 6 26H8C8.55228 26 9 25.5523 9 25C9 24.4477 8.55228 24 8 24H6Z" fill="#FF355E"/>
<path d="M3 19C3 18.4477 3.44772 18 4 18H8C8.55228 18 9 18.4477 9 19C9 19.5523 8.55228 20 8 20H4C3.44772 20 3 19.5523 3 19Z" fill="#FF355E"/>
<path d="M4 6C3.44772 6 3 6.44772 3 7C3 7.55228 3.44772 8 4 8H8C8.55228 8 9 7.55228 9 7C9 6.44772 8.55228 6 8 6H4Z" fill="#FF355E"/>
<path d="M23 19C23 18.4477 23.4477 18 24 18H28C28.5523 18 29 18.4477 29 19C29 19.5523 28.5523 20 28 20H24C23.4477 20 23 19.5523 23 19Z" fill="#FF355E"/>
<path d="M24 12C23.4477 12 23 12.4477 23 13C23 13.5523 23.4477 14 24 14H26C26.5523 14 27 13.5523 27 13C27 12.4477 26.5523 12 26 12H24Z" fill="#FF355E"/>
<path d="M23 7C23 6.44772 23.4477 6 24 6H28C28.5523 6 29 6.44772 29 7C29 7.55228 28.5523 8 28 8H24C23.4477 8 23 7.55228 23 7Z" fill="#FF355E"/>
<path d="M24 24C23.4477 24 23 24.4477 23 25C23 25.5523 23.4477 26 24 26H26C26.5523 26 27 25.5523 27 25C27 24.4477 26.5523 24 26 24H24Z" fill="#FF355E"/>
</svg>
