<svg width="32" height="32" viewBox="0 0 32 32" fill="none" xmlns="http://www.w3.org/2000/svg">
<path d="M4.92157 4.92157C5.67172 4.17143 6.68913 3.75 7.75 3.75H21.2527C22.1132 3.75229 22.9378 4.09515 23.5463 4.70365C24.1548 5.31215 24.4977 6.1368 24.5 6.99734L24.5 7L24.5 8.5C24.5 9.05228 24.0523 9.5 23.5 9.5H20V13.75C20 14.3023 19.5523 14.75 19 14.75C18.4477 14.75 18 14.3023 18 13.75V7L18 6.9969C18.0013 6.56456 18.0886 6.14132 18.2523 5.75H7.75C7.21957 5.75 6.71086 5.96071 6.33579 6.33579C5.96071 6.71086 5.75 7.21957 5.75 7.75V25.75C5.75 25.8826 5.80268 26.0098 5.89645 26.1036C5.99022 26.1973 6.11739 26.25 6.25 26.25H7.685C8.23728 26.25 8.685 26.6977 8.685 27.25C8.685 27.8023 8.23728 28.25 7.685 28.25H6.25C5.58696 28.25 4.95107 27.9866 4.48223 27.5178C4.01339 27.0489 3.75 26.413 3.75 25.75V7.75C3.75 6.68913 4.17143 5.67172 4.92157 4.92157ZM21.2502 5.75001C20.9192 5.75179 20.6023 5.88405 20.3682 6.11816C20.1337 6.35262 20.0014 6.67023 20 7.00178V7.5H22.5V7.00144C22.4988 6.66992 22.3666 6.35231 22.1321 6.11787C21.8981 5.88382 21.5811 5.75164 21.2502 5.75001ZM6.75 8.5C6.75 7.94772 7.19772 7.5 7.75 7.5H14.5C15.0523 7.5 15.5 7.94772 15.5 8.5C15.5 9.05228 15.0523 9.5 14.5 9.5H7.75C7.19772 9.5 6.75 9.05228 6.75 8.5ZM6.75 11.5C6.75 10.9477 7.19772 10.5 7.75 10.5H14.5C15.0523 10.5 15.5 10.9477 15.5 11.5C15.5 12.0523 15.0523 12.5 14.5 12.5H7.75C7.19772 12.5 6.75 12.0523 6.75 11.5ZM6.75 14.5C6.75 13.9477 7.19772 13.5 7.75 13.5H11.109C11.6613 13.5 12.109 13.9477 12.109 14.5C12.109 15.0523 11.6613 15.5 11.109 15.5H7.75C7.19772 15.5 6.75 15.0523 6.75 14.5ZM21.4769 17.0581L24.8376 18.3824C24.7908 18.5389 24.7617 18.7014 24.7518 18.8671C24.7506 18.887 24.75 18.907 24.75 18.927V22.7903L23.5559 23.0293C23.6001 22.5637 23.4655 22.0983 23.1788 21.7279C23.1637 21.7085 23.1479 21.6895 23.1315 21.6712L21.7214 20.1038L21.8269 20.0593C22.3357 19.8445 22.5741 19.2579 22.3593 18.7491C22.1445 18.2403 21.5579 18.0019 21.0491 18.2167L18.7952 19.1682C18.7945 19.1685 18.7938 19.1688 18.793 19.1691C18.7409 19.1903 18.6851 19.2009 18.6288 19.2001C18.5721 19.1994 18.5162 19.1871 18.4643 19.1642C18.4066 19.1381 18.3545 19.1009 18.3111 19.0547C18.2675 19.0083 18.2335 18.9536 18.2111 18.894L18.2069 18.8833C18.1603 18.7634 18.1592 18.6306 18.204 18.51C18.2478 18.3924 18.3322 18.2943 18.4418 18.2336L20.6868 17.1127L20.698 17.107C20.8185 17.0449 20.9506 17.0087 21.0859 17.0007C21.2188 16.9929 21.3519 17.0124 21.4769 17.0581ZM26.5038 16.8893L22.2006 15.1936L22.1843 15.1874C21.7962 15.0422 21.3819 14.9798 20.9682 15.0042C20.5568 15.0284 20.155 15.138 19.7882 15.3259L17.8002 16.3185C17.4867 16.1415 17.1408 16.0263 16.7815 15.9805C16.3111 15.9205 15.8331 15.9814 15.3927 16.1575L15.3736 16.1654L12.514 17.3781C12.1029 17.0214 11.5712 16.8347 11.0274 16.856H10.75C10.1977 16.856 9.75 17.3037 9.75 17.856C9.75 18.4083 10.1977 18.856 10.75 18.856H11.05C11.0678 18.856 11.0857 18.8555 11.1035 18.8546C11.1407 18.8526 11.1772 18.8654 11.2049 18.8902C11.2288 18.9115 11.2446 18.9402 11.25 18.9714V24.2406C11.2446 24.2718 11.2288 24.3005 11.2049 24.3218C11.1772 24.3466 11.1407 24.3594 11.1035 24.3574C11.0857 24.3565 11.0678 24.356 11.05 24.356H10.75C10.1977 24.356 9.75 24.8037 9.75 25.356C9.75 25.9083 10.1977 26.356 10.75 26.356H11.0274C11.5813 26.3777 12.1225 26.1836 12.5367 25.814C12.6095 25.749 12.6774 25.6794 12.74 25.606H13.4621L16.1801 27.6795C16.4871 27.9848 16.8936 28.1724 17.3278 28.2064C17.8008 28.2434 18.2698 28.0952 18.6357 27.7931L21.4159 25.4972L24.8328 24.8134C24.944 25.1965 25.161 25.5442 25.4633 25.814C25.8775 26.1836 26.4187 26.3777 26.9726 26.356H27.25C27.8023 26.356 28.25 25.9083 28.25 25.356C28.25 24.8037 27.8023 24.356 27.25 24.356H26.95C26.9322 24.356 26.9143 24.3565 26.8965 24.3574C26.8593 24.3594 26.8228 24.3466 26.7951 24.3218C26.7712 24.3005 26.7554 24.2718 26.75 24.2406V23.6306C26.7503 23.6176 26.7503 23.6046 26.75 23.5915V18.9714C26.7544 18.946 26.7656 18.9224 26.7825 18.9029C26.8236 18.8895 26.8638 18.8735 26.9029 18.8549C26.9186 18.8556 26.9343 18.856 26.95 18.856H27.25C27.8023 18.856 28.25 18.4083 28.25 17.856C28.25 17.3037 27.8023 16.856 27.25 16.856H26.9726C26.8144 16.8498 26.6572 16.8612 26.5038 16.8893ZM20.407 23.7365C20.3512 23.7739 20.2996 23.8166 20.2528 23.8638L17.4785 26.155C17.4709 26.1488 17.4633 26.1428 17.4555 26.1369L14.4065 23.8109C14.2323 23.678 14.0192 23.606 13.8 23.606H13.25V19.2384L16.143 18.0115C16.1862 17.9947 16.2308 17.9818 16.276 17.9729C16.1171 18.5071 16.139 19.0807 16.341 19.6033C16.4564 19.908 16.6306 20.187 16.8537 20.4244C17.0782 20.6632 17.3476 20.8552 17.6466 20.9894L17.6486 20.9903C17.9489 21.1242 18.2733 21.1955 18.6021 21.1999C18.9308 21.2043 19.2571 21.1417 19.5608 21.0158L19.7717 20.9268L21.4927 22.8399L20.407 23.7365Z" fill="#FF355E"/>
</svg>
