<svg width="32" height="32" viewBox="0 0 32 32" fill="none" xmlns="http://www.w3.org/2000/svg">
<path d="M8 12C8 11.4477 8.44772 11 9 11H14C14.5523 11 15 11.4477 15 12V13C15 13.5523 14.5523 14 14 14H9C8.44772 14 8 13.5523 8 13V12Z" fill="#FF355E"/>
<path d="M9 19C8.44772 19 8 19.4477 8 20C8 20.5523 8.44772 21 9 21H11C11.5523 21 12 20.5523 12 20C12 19.4477 11.5523 19 11 19H9Z" fill="#FF355E"/>
<path d="M20 20C20 19.4477 20.4477 19 21 19H23C23.5523 19 24 19.4477 24 20C24 20.5523 23.5523 21 23 21H21C20.4477 21 20 20.5523 20 20Z" fill="#FF355E"/>
<path d="M15 19C14.4477 19 14 19.4477 14 20C14 20.5523 14.4477 21 15 21H17C17.5523 21 18 20.5523 18 20C18 19.4477 17.5523 19 17 19H15Z" fill="#FF355E"/>
<path fill-rule="evenodd" clip-rule="evenodd" d="M3 11C3 8.23858 5.23858 6 8 6H24C26.7614 6 29 8.23858 29 11V21C29 23.7614 26.7614 26 24 26H8C5.23858 26 3 23.7614 3 21V11ZM8 8C6.34315 8 5 9.34315 5 11V21C5 22.6569 6.34315 24 8 24H24C25.6569 24 27 22.6569 27 21V11C27 9.34315 25.6569 8 24 8H8Z" fill="#FF355E"/>
</svg>
