<svg width="32" height="32" viewBox="0 0 32 32" fill="none" xmlns="http://www.w3.org/2000/svg">
<path fill-rule="evenodd" clip-rule="evenodd" d="M14.1539 5.83074C14.8376 4.18972 17.1624 4.18972 17.8462 5.83074L20.3058 11.7338L25.7864 9.74088C27.3324 9.17869 28.8582 10.6195 28.3855 12.1952L24.8854 23.862C24.5048 25.131 23.3368 26 22.012 26H9.98809C8.66327 26 7.4953 25.131 7.11461 23.862L3.61456 12.1952C3.14185 10.6195 4.66766 9.17869 6.21369 9.74088L11.6943 11.7338L14.1539 5.83074ZM16 6.59998L13.5404 12.503C13.1293 13.4896 12.0152 13.9787 11.0108 13.6134L5.53021 11.6205L9.03026 23.2873C9.15716 23.7103 9.54648 24 9.98809 24H22.012C22.4536 24 22.8429 23.7103 22.9698 23.2873L26.4699 11.6205L20.9893 13.6134C19.9848 13.9787 18.8707 13.4896 18.4596 12.503L16 6.59998Z" fill="#FF355E"/>
</svg>
