<svg width="32" height="32" viewBox="0 0 32 32" fill="none" xmlns="http://www.w3.org/2000/svg">
<path d="M19.9497 12.2929C20.3402 12.6834 20.3402 13.3166 19.9497 13.7071L17.5355 16.1214L19.9497 18.5356C20.3402 18.9261 20.3402 19.5593 19.9497 19.9498C19.5592 20.3403 18.926 20.3403 18.5355 19.9498L16.1213 17.5356L13.7071 19.9497C13.3166 20.3403 12.6834 20.3403 12.2929 19.9497C11.9024 19.5592 11.9024 18.926 12.2929 18.5355L14.707 16.1214L12.2929 13.7072C11.9023 13.3166 11.9023 12.6835 12.2929 12.2929C12.6834 11.9024 13.3165 11.9024 13.7071 12.2929L16.1213 14.7071L18.5355 12.2929C18.926 11.9024 19.5592 11.9024 19.9497 12.2929Z" fill="#FF355E"/>
<path fill-rule="evenodd" clip-rule="evenodd" d="M4 16C4 9.37258 9.37258 4 16 4C22.6274 4 28 9.37258 28 16C28 22.6274 22.6274 28 16 28C9.37258 28 4 22.6274 4 16ZM16 6C10.4772 6 6 10.4772 6 16C6 21.5228 10.4772 26 16 26C21.5228 26 26 21.5228 26 16C26 10.4772 21.5228 6 16 6Z" fill="#FF355E"/>
</svg>
