<svg width="32" height="32" viewBox="0 0 32 32" fill="none" xmlns="http://www.w3.org/2000/svg">
<path d="M13 13C13.5523 13 14 13.4477 14 14V23C14 23.5523 13.5523 24 13 24C12.4477 24 12 23.5523 12 23V14C12 13.4477 12.4477 13 13 13Z" fill="#FF355E"/>
<path d="M20 14C20 13.4477 19.5523 13 19 13C18.4477 13 18 13.4477 18 14V23C18 23.5523 18.4477 24 19 24C19.5523 24 20 23.5523 20 23V14Z" fill="#FF355E"/>
<path fill-rule="evenodd" clip-rule="evenodd" d="M10 8V7C10 5.34315 11.3431 4 13 4H19C20.6569 4 22 5.34315 22 7V8H27C27.5523 8 28 8.44772 28 9C28 9.55228 27.5523 10 27 10H26V24C26 26.7614 23.7614 29 21 29H11C8.23858 29 6 26.7614 6 24V10H5C4.44772 10 4 9.55228 4 9C4 8.44772 4.44772 8 5 8H10ZM12 7C12 6.44772 12.4477 6 13 6H19C19.5523 6 20 6.44772 20 7V8H12V7ZM8 10V24C8 25.6569 9.34315 27 11 27H21C22.6569 27 24 25.6569 24 24V10H8Z" fill="#FF355E"/>
</svg>
