<svg width="32" height="32" viewBox="0 0 32 32" fill="none" xmlns="http://www.w3.org/2000/svg">
<path fill-rule="evenodd" clip-rule="evenodd" d="M18 4C17.4477 4 17 4.44772 17 5V13.7573L11.364 8.12126C11.2542 8.01149 11.1204 7.92878 10.9731 7.87969L6.73044 6.46547C6.3711 6.34569 5.97494 6.43922 5.70711 6.70705C5.43927 6.97488 5.34575 7.37105 5.46553 7.73038L6.87974 11.973C6.92883 12.1203 7.01154 12.2541 7.12132 12.3639L8.75742 14H7.99997C7.44768 14 6.99997 14.4477 6.99997 15V24C6.99997 26.7614 9.23855 29 12 29H20C22.7614 29 25 26.7614 25 24C26.6568 24 28 22.6569 28 21V19C28 17.3431 26.6568 16 25 16V15C25 14.4477 24.5523 14 24 14V5C24 4.44772 23.5523 4 23 4H18ZM22 10H21C20.4477 10 20 10.4477 20 11C20 11.5523 20.4477 12 21 12H22V14H19V6H22V7H21C20.4477 7 20 7.44772 20 8C20 8.55228 20.4477 9 21 9H22V10ZM8.99997 16V24C8.99997 25.6569 10.3431 27 12 27H20C21.6568 27 23 25.6569 23 24V16H8.99997ZM14.4143 14H11.5858L8.70246 11.1166L7.99535 8.99529L10.1167 9.7024L14.4143 14ZM25 22C25.5523 22 26 21.5523 26 21V19C26 18.4477 25.5523 18 25 18V22Z" fill="#FF355E"/>
</svg>
