<svg width="32" height="32" viewBox="0 0 32 32" fill="none" xmlns="http://www.w3.org/2000/svg">
<path d="M5 3C5.55228 3 6 3.44772 6 4V4.5H6.5C7.05228 4.5 7.5 4.94772 7.5 5.5C7.5 6.05228 7.05228 6.5 6.5 6.5H6V7C6 7.55228 5.55228 8 5 8C4.44772 8 4 7.55228 4 7V6.5H3.5C2.94772 6.5 2.5 6.05228 2.5 5.5C2.5 4.94772 2.94772 4.5 3.5 4.5H4V4C4 3.44772 4.44772 3 5 3Z" fill="#FF355E"/>
<path fill-rule="evenodd" clip-rule="evenodd" d="M12.9813 7H8.00002C7.62125 7 7.27498 7.214 7.10559 7.55279L4.10559 13.5528C3.92022 13.9235 3.98278 14.3702 4.26286 14.6757L15.2629 26.6757C15.4523 26.8824 15.7197 27 16 27C16.2803 27 16.5478 26.8824 16.7372 26.6757L27.7372 14.6757C28.0173 14.3702 28.0798 13.9235 27.8944 13.5528L24.8944 7.55279C24.7251 7.214 24.3788 7 24 7H19.0187C19.0071 6.9998 18.9954 6.9998 18.9838 7H13.0162C13.0046 6.9998 12.9929 6.9998 12.9813 7ZM13.8471 9H18.1529L18.8196 13H13.1804L13.8471 9ZM11.8195 9L11.1528 13H6.61805L8.61805 9H11.8195ZM11.289 15H7.27325L13.7445 22.0596L11.289 15ZM16 22.4561L18.5934 15H13.4066L16 22.4561ZM20.711 15L18.2554 22.0597L24.7268 15H20.711ZM20.1805 9L20.8472 13H25.382L23.382 9H20.1805Z" fill="#FF355E"/>
<path d="M27.5 23C27.5 22.4477 27.0523 22 26.5 22C25.9477 22 25.5 22.4477 25.5 23V23.5H25C24.4477 23.5 24 23.9477 24 24.5C24 25.0523 24.4477 25.5 25 25.5H25.5V26C25.5 26.5523 25.9477 27 26.5 27C27.0523 27 27.5 26.5523 27.5 26V25.5H28C28.5523 25.5 29 25.0523 29 24.5C29 23.9477 28.5523 23.5 28 23.5H27.5V23Z" fill="#FF355E"/>
</svg>
