<svg width="32" height="32" viewBox="0 0 32 32" fill="none" xmlns="http://www.w3.org/2000/svg">
<path fill-rule="evenodd" clip-rule="evenodd" d="M10 2C7.23858 2 5 4.23858 5 7V23C5 25.7614 7.23858 28 10 28H20C22.7614 28 25 25.7614 25 23V10.6569C25 9.33077 24.4732 8.059 23.5355 7.12132L19.8787 3.46447C18.941 2.52678 17.6692 2 16.3431 2H10ZM7 7C7 5.34315 8.34315 4 10 4H16.3431C17.1388 4 17.9019 4.31607 18.4645 4.87868L22.1213 8.53553C22.6839 9.09814 23 9.86121 23 10.6569V23C23 24.6569 21.6569 26 20 26H10C8.34315 26 7 24.6569 7 23V7Z" fill="#FF355E"/>
<path d="M28 13C28 12.4477 27.5523 12 27 12C26.4477 12 26 12.4477 26 13V24C26 26.7614 23.7614 29 21 29H11C10.4477 29 10 29.4477 10 30C10 30.5523 10.4477 31 11 31H21C24.866 31 28 27.866 28 24V13Z" fill="#FF355E"/>
</svg>
