<svg width="32" height="32" viewBox="0 0 32 32" fill="none" xmlns="http://www.w3.org/2000/svg">
<path fill-rule="evenodd" clip-rule="evenodd" d="M9 11C9 9.89543 9.89543 9 11 9H14C15.1046 9 16 9.89543 16 11V14C16 15.1046 15.1046 16 14 16H11C9.89543 16 9 15.1046 9 14V11ZM14 11H11V14H14V11Z" fill="#FF355E"/>
<path d="M18 10C17.4477 10 17 10.4477 17 11C17 11.5523 17.4477 12 18 12H22C22.5523 12 23 11.5523 23 11C23 10.4477 22.5523 10 22 10H18Z" fill="#FF355E"/>
<path d="M17 14C17 13.4477 17.4477 13 18 13H22C22.5523 13 23 13.4477 23 14C23 14.5523 22.5523 15 22 15H18C17.4477 15 17 14.5523 17 14Z" fill="#FF355E"/>
<path fill-rule="evenodd" clip-rule="evenodd" d="M18 16C16.8954 16 16 16.8954 16 18V21C16 22.1046 16.8954 23 18 23H21C22.1046 23 23 22.1046 23 21V18C23 16.8954 22.1046 16 21 16H18ZM18 18H21V21H18V18Z" fill="#FF355E"/>
<path d="M9 18C9 17.4477 9.44772 17 10 17H14C14.5523 17 15 17.4477 15 18C15 18.5523 14.5523 19 14 19H10C9.44772 19 9 18.5523 9 18Z" fill="#FF355E"/>
<path d="M10 20C9.44772 20 9 20.4477 9 21C9 21.5523 9.44772 22 10 22H14C14.5523 22 15 21.5523 15 21C15 20.4477 14.5523 20 14 20H10Z" fill="#FF355E"/>
<path fill-rule="evenodd" clip-rule="evenodd" d="M5 10C5 7.23858 7.23858 5 10 5H22C24.7614 5 27 7.23858 27 10V22C27 24.7614 24.7614 27 22 27H10C7.23858 27 5 24.7614 5 22V10ZM10 7C8.34315 7 7 8.34315 7 10V22C7 23.6569 8.34315 25 10 25H22C23.6569 25 25 23.6569 25 22V10C25 8.34315 23.6569 7 22 7H10Z" fill="#FF355E"/>
</svg>
