<svg width="32" height="32" viewBox="0 0 32 32" fill="none" xmlns="http://www.w3.org/2000/svg">
<path d="M5.99419 12H12.2443C12.7046 12.0008 13.1507 12.1604 13.5071 12.4518C13.8635 12.7433 14.1085 13.1488 14.2006 13.5999L14.2018 13.6058L14.4778 14.9999L26.004 15C26.299 15.0007 26.5902 15.0665 26.8568 15.1929C27.1233 15.3193 27.3587 15.5031 27.5459 15.7311C27.7331 15.9592 27.8675 16.2258 27.9395 16.5119C28.0115 16.7981 28.0193 17.0966 27.9624 17.3861L27.9618 17.3888C27.7153 18.6236 27.3134 20.3771 26.926 22.0623L26.8871 22.2316C26.5109 23.868 26.1545 25.4186 25.9603 26.3951L25.9593 26.4001C25.8671 26.8512 25.6221 27.2567 25.2657 27.5482C24.9093 27.8396 24.4632 27.9992 24.0029 28L24.0011 28H8.99527L8.99347 28C8.53311 27.9992 8.08708 27.8396 7.73066 27.5482C7.38078 27.2621 7.13826 26.8661 7.04233 26.4249L4.0486 14.4353C4.04453 14.419 4.04087 14.4026 4.03763 14.3861C3.98079 14.0972 3.98842 13.7994 4.05999 13.5139C4.13155 13.2283 4.26528 12.9621 4.4516 12.7342C4.63792 12.5063 4.87223 12.3224 5.13781 12.1955C5.40338 12.0686 5.69368 12.0018 5.988 12L5.99419 12ZM6.00132 14L8.9871 25.9577C8.99059 25.9717 8.99378 25.9858 8.99666 25.9999L23.9993 26C24.1997 24.9932 24.5616 23.4208 24.9322 21.8085L24.9769 21.6142C25.3662 19.9203 25.7603 18.2002 26 17.0001L14.4746 17C14.0142 16.9992 13.5682 16.8396 13.2117 16.5482C12.8553 16.2567 12.6103 15.8512 12.5182 15.4001L12.517 15.3942L12.2411 14.0001L6.00132 14Z" fill="#FF355E"/>
<path d="M9.99397 6L10.0124 9.99538C10.015 10.5477 9.56935 10.9974 9.01707 11C8.46479 11.0025 8.01501 10.5569 8.01246 10.0046L7.99366 5.93796L7.99365 5.93333C7.99365 5.42065 8.19727 4.92892 8.55979 4.56633C8.92231 4.20374 9.41403 4 9.9268 4L22.0606 4C22.5734 4 23.0651 4.20374 23.4277 4.56633C23.7902 4.92892 23.9938 5.42065 23.9938 5.93333L23.9937 13C23.9937 13.5523 23.546 14 22.9937 14C22.4414 14 21.9937 13.5523 21.9937 13L21.9938 6H9.99397Z" fill="#FF355E"/>
<path d="M10.9937 9C10.9937 8.44772 11.4414 8 11.9937 8H19.9937C20.5459 8 20.9937 8.44772 20.9937 9C20.9937 9.55228 20.5459 10 19.9937 10H11.9937C11.4414 10 10.9937 9.55228 10.9937 9Z" fill="#FF355E"/>
<path d="M14.9937 12C14.9937 11.4477 15.4414 11 15.9937 11H19.9937C20.5459 11 20.9937 11.4477 20.9937 12C20.9937 12.5523 20.5459 13 19.9937 13H15.9937C15.4414 13 14.9937 12.5523 14.9937 12Z" fill="#FF355E"/>
</svg>
