<svg width="32" height="32" viewBox="0 0 32 32" fill="none" xmlns="http://www.w3.org/2000/svg">
<path d="M11 13C10.4477 13 10 13.4477 10 14C10 14.5523 9.55228 15 9 15C8.44772 15 8 14.5523 8 14C8 12.3431 9.34315 11 11 11H21C22.6569 11 24 12.3431 24 14C24 14.5523 23.5523 15 23 15C22.4477 15 22 14.5523 22 14C22 13.4477 21.5523 13 21 13H11Z" fill="#FF355E"/>
<path d="M12 7C10.8954 7 10 7.89543 10 9C10 9.55228 10.4477 10 11 10C11.5523 10 12 9.55228 12 9H20C20 9.55228 20.4477 10 21 10C21.5523 10 22 9.55228 22 9C22 7.89543 21.1046 7 20 7H12Z" fill="#FF355E"/>
<path fill-rule="evenodd" clip-rule="evenodd" d="M10.5 4C8.27778 4 6.32222 5.46667 5.7 7.6L3.2 16.1714C3.06734 16.6263 3 17.0976 3 17.5714V23C3 25.7614 5.23858 28 8 28H24C26.7614 28 29 25.7614 29 23V17.5714C29 17.0976 28.9327 16.6263 28.8 16.1714L26.3 7.6C25.6778 5.46667 23.7222 4 21.5 4H10.5ZM7.62 8.16C7.99333 6.88 9.16667 6 10.5 6H21.5C22.8333 6 24.0067 6.88 24.38 8.16L26.6667 16H23.8284C23.0328 16 22.2697 16.3161 21.7071 16.8787L18.8787 19.7071C18.6911 19.8946 18.4368 20 18.1716 20H13.8284C13.5632 20 13.3089 19.8946 13.1213 19.7071L10.2929 16.8787C9.73028 16.3161 8.96722 16 8.17157 16H5.33333L7.62 8.16ZM5 18V23C5 24.6569 6.34315 26 8 26H24C25.6569 26 27 24.6569 27 23V18H23.8284C23.5632 18 23.3089 18.1054 23.1213 18.2929L20.2929 21.1213C19.7303 21.6839 18.9672 22 18.1716 22H13.8284C13.0328 22 12.2697 21.6839 11.7071 21.1213L8.87868 18.2929C8.69114 18.1054 8.43679 18 8.17157 18H5Z" fill="#FF355E"/>
</svg>
