<svg width="32" height="32" viewBox="0 0 32 32" fill="none" xmlns="http://www.w3.org/2000/svg">
<path d="M6 8C6 5.23858 8.23858 3 11 3H17.3431C18.6692 3 19.941 3.52678 20.8787 4.46447L24.5355 8.12132C25.4732 9.059 26 10.3308 26 11.6569V15C26 15.5523 25.5523 16 25 16C24.4477 16 24 15.5523 24 15V11.6569C24 10.8612 23.6839 10.0981 23.1213 9.53553L19.4645 5.87868C18.9019 5.31607 18.1388 5 17.3431 5H11C9.34315 5 8 6.34315 8 8V15C8 15.5523 7.55228 16 7 16C6.44772 16 6 15.5523 6 15V8Z" fill="#FF355E"/>
<path fill-rule="evenodd" clip-rule="evenodd" d="M23.1707 28.0002C23.5825 29.1654 24.6938 30.0002 26 30.0002H28C28.5523 30.0002 29 29.5525 29 29.0002V20.0002C29 19.448 28.5523 19.0002 28 19.0002H26C24.6938 19.0002 23.5826 19.835 23.1707 21.0002H22.37L19.1669 18.2547C18.8825 18.0007 18.4649 17.9215 18.0939 18.0864L16.0743 18.984C15.7248 19.1393 15.4257 19.3522 15.1802 19.6048C13.6386 19.0287 11.8278 19.4447 10.7053 20.7917L10.5316 21.0002H9.82926C9.4174 19.835 8.30618 19.0002 7 19.0002H5C4.44772 19.0002 4 19.448 4 20.0002V29.0002C4 29.5525 4.44772 30.0002 5 30.0002H7C8.30625 30.0002 9.41752 29.1654 9.82933 28.0001H10.6667L12.5195 29.3898C13.992 30.4941 16.028 30.4511 17.4525 29.2856L18.4756 28.4486L22.0623 28.0002H23.1707ZM18.3289 20.1706L16.8866 20.8117C16.3324 21.058 16.1976 21.7836 16.6265 22.2125C16.9178 22.5038 17.3742 22.549 17.7169 22.3205L17.9453 22.1682C18.4049 21.8618 19.0257 21.986 19.3321 22.4455C19.484 22.6734 19.53 22.9409 19.4818 23.1901L21.1805 24.7674C21.3922 24.964 21.5086 25.2426 21.4995 25.5315C21.4933 25.7296 21.4285 25.9193 21.3162 26.0779L21.876 26.0079C21.9171 26.0028 21.9586 26.0002 22 26.0002H23V23.0002H22C21.7613 23.0002 21.5305 22.9148 21.3492 22.7595L18.3289 20.1706ZM25 27.006L25 27.0002V22.0002L25 21.9945C25.0031 21.4449 25.4496 21.0002 26 21.0002H27V28.0002H26C25.4496 28.0002 25.0031 27.5556 25 27.006ZM12.2418 22.0721C12.7785 21.428 13.6299 21.2096 14.3774 21.4437C14.3334 22.2167 14.5989 23.0133 15.2123 23.6267C15.9181 24.3325 16.9164 24.6024 17.8462 24.4005L18.9791 25.4525L16.186 27.7377C15.4738 28.3205 14.4558 28.342 13.7195 27.7898L11.6 26.2001C11.4269 26.0703 11.2164 26.0002 11 26.0002H10V23.0002H11C11.2968 23.0002 11.5782 22.8683 11.7682 22.6403L12.2418 22.0721ZM7 21.0002C7.55228 21.0002 8 21.448 8 22.0002V27.0002C8 27.5524 7.55228 28.0002 7 28.0002H6V21.0002H7Z" fill="#FF355E"/>
<path d="M12 12C11.4477 12 11 12.4477 11 13C11 13.5523 11.4477 14 12 14H20C20.5523 14 21 13.5523 21 13C21 12.4477 20.5523 12 20 12H12Z" fill="#FF355E"/>
</svg>
