<svg width="32" height="32" viewBox="0 0 32 32" fill="none" xmlns="http://www.w3.org/2000/svg">
<path d="M5 7C5 4.23858 7.23858 2 10 2H16.3431C17.6692 2 18.941 2.52678 19.8787 3.46447L23.5355 7.12132C24.4732 8.059 25 9.33077 25 10.6569V23C25 25.7614 22.7614 28 20 28H17C16.4477 28 16 27.5523 16 27C16 26.4477 16.4477 26 17 26H20C21.6569 26 23 24.6569 23 23V10.6569C23 9.86121 22.6839 9.09814 22.1213 8.53553L18.4645 4.87868C17.9019 4.31607 17.1388 4 16.3431 4H10C8.34315 4 7 5.34315 7 7V15C7 15.5523 6.55228 16 6 16C5.44772 16 5 15.5523 5 15V7Z" fill="#FF355E"/>
<path d="M28 13C28 12.4477 27.5523 12 27 12C26.4477 12 26 12.4477 26 13V24C26 26.7614 23.7614 29 21 29H18.5C17.9477 29 17.5 29.4477 17.5 30C17.5 30.5523 17.9477 31 18.5 31H21C24.866 31 28 27.866 28 24V13Z" fill="#FF355E"/>
<path fill-rule="evenodd" clip-rule="evenodd" d="M9 18C6.23858 18 4 20.2386 4 23C4 24.0191 4.30488 24.967 4.8284 25.7574L2.79289 27.7929C2.40237 28.1834 2.40237 28.8166 2.79289 29.2071C3.18342 29.5976 3.81658 29.5976 4.20711 29.2071L6.24261 27.1716C7.03304 27.6951 7.98092 28 9 28C11.7614 28 14 25.7614 14 23C14 20.2386 11.7614 18 9 18ZM6 23C6 21.3431 7.34315 20 9 20C10.6569 20 12 21.3431 12 23C12 24.6569 10.6569 26 9 26C7.34315 26 6 24.6569 6 23Z" fill="#FF355E"/>
</svg>
