<svg width="32" height="32" viewBox="0 0 32 32" fill="none" xmlns="http://www.w3.org/2000/svg">
<path fill-rule="evenodd" clip-rule="evenodd" d="M11 3C11 1.89543 11.8954 1 13 1H19C20.1046 1 21 1.89543 21 3C23.7614 3 26 5.23858 26 8V14C26 14.5523 25.5523 15 25 15C24.4477 15 24 14.5523 24 14V8C24 6.34315 22.6569 5 21 5C21 6.10457 20.1046 7 19 7H13C11.8954 7 11 6.10457 11 5C9.34315 5 8 6.34315 8 8V24C8 25.6569 9.34315 27 11 27H13C13.5523 27 14 27.4477 14 28C14 28.5523 13.5523 29 13 29H11C8.23858 29 6 26.7614 6 24V8C6 5.23858 8.23858 3 11 3ZM13 5V3H19V5H13Z" fill="#FF355E"/>
<path fill-rule="evenodd" clip-rule="evenodd" d="M28.2071 18.7929C26.9882 17.574 25.0119 17.574 23.7929 18.7929L17.7929 24.7929C17.6399 24.9459 17.5407 25.1444 17.5101 25.3586L17.0101 28.8586C16.9655 29.1702 17.0703 29.4846 17.2929 29.7071C17.5155 29.9297 17.8298 30.0345 18.1414 29.99L21.6414 29.49C21.8556 29.4594 22.0541 29.3601 22.2071 29.2071L28.2071 23.2071C29.4261 21.9882 29.4261 20.0119 28.2071 18.7929ZM26.7929 20.2071C26.355 19.7692 25.645 19.7692 25.2071 20.2071L19.4428 25.9714L19.1785 27.8215L21.0286 27.5572L26.7929 21.7929C27.2308 21.355 27.2308 20.645 26.7929 20.2071Z" fill="#FF355E"/>
<path d="M12 10C11.4477 10 11 10.4477 11 11C11 11.5523 11.4477 12 12 12H20C20.5523 12 21 11.5523 21 11C21 10.4477 20.5523 10 20 10H12Z" fill="#FF355E"/>
<path d="M11 16C11 15.4477 11.4477 15 12 15H20C20.5523 15 21 15.4477 21 16C21 16.5523 20.5523 17 20 17H12C11.4477 17 11 16.5523 11 16Z" fill="#FF355E"/>
<path d="M12 20C11.4477 20 11 20.4477 11 21C11 21.5523 11.4477 22 12 22H16C16.5523 22 17 21.5523 17 21C17 20.4477 16.5523 20 16 20H12Z" fill="#FF355E"/>
</svg>
