<svg width="32" height="32" viewBox="0 0 32 32" fill="none" xmlns="http://www.w3.org/2000/svg">
<path d="M13 4C7.47715 4 3 8.47715 3 14C3 16.5979 4.11611 19.0786 5.75586 20.9052C7.38847 22.7239 9.6406 24 12 24C12.5523 24 13 23.5523 13 23C13 22.4477 12.5523 22 12 22C10.3594 22 8.61153 21.0924 7.24414 19.5692C5.88389 18.0539 5 16.0347 5 14C5 9.58172 8.58172 6 13 6C16.4886 6 19.4582 8.23362 20.5516 11.3518C20.7023 11.7816 21.1244 12.0553 21.5783 12.0175C21.7171 12.0059 21.8578 12 22 12C24.7614 12 27 14.2386 27 17C27 19.7614 24.7614 22 22 22H20C19.4477 22 19 22.4477 19 23C19 23.5523 19.4477 24 20 24H22C25.866 24 29 20.866 29 17C29 13.1903 25.9566 10.0915 22.1685 10.002C20.6263 6.47023 17.1028 4 13 4Z" fill="#FF355E"/>
<path d="M16 19C16.5523 19 17 19.4477 17 20V26.5858L18.2929 25.2929C18.6834 24.9024 19.3166 24.9024 19.7071 25.2929C20.0976 25.6834 20.0976 26.3166 19.7071 26.7071L16.7071 29.7071C16.3166 30.0976 15.6834 30.0976 15.2929 29.7071L12.2929 26.7071C11.9024 26.3166 11.9024 25.6834 12.2929 25.2929C12.6834 24.9024 13.3166 24.9024 13.7071 25.2929L15 26.5858L15 20C15 19.4477 15.4477 19 16 19Z" fill="#FF355E"/>
</svg>
