<svg width="32" height="32" viewBox="0 0 32 32" fill="none" xmlns="http://www.w3.org/2000/svg">
<path d="M8 9C8 7.34315 9.34315 6 11 6H17.3431C18.1388 6 18.9019 6.31607 19.4645 6.87868L23.1213 10.5355C23.6839 11.0981 24 11.8612 24 12.6569V13C24 13.5523 24.4477 14 25 14C25.5523 14 26 13.5523 26 13V12.6569C26 11.3308 25.4732 10.059 24.5355 9.12132L20.8787 5.46447C19.941 4.52678 18.6692 4 17.3431 4H11C8.23858 4 6 6.23858 6 9V13C6 13.5523 6.44772 14 7 14C7.55228 14 8 13.5523 8 13V9Z" fill="#FF355E"/>
<path fill-rule="evenodd" clip-rule="evenodd" d="M6 16C4.34315 16 3 17.3431 3 19V23C3 25.7614 5.23858 28 8 28H24C26.7614 28 29 25.7614 29 23V19C29 17.3431 27.6569 16 26 16H23.8284C23.0328 16 22.2697 16.3161 21.7071 16.8787L18.8787 19.7071C18.6911 19.8946 18.4368 20 18.1716 20H13.8284C13.5632 20 13.3089 19.8946 13.1213 19.7071L10.2929 16.8787C9.73028 16.3161 8.96722 16 8.17157 16H6ZM5 19C5 18.4477 5.44772 18 6 18H8.17157C8.43679 18 8.69114 18.1054 8.87868 18.2929L11.7071 21.1213C12.2697 21.6839 13.0328 22 13.8284 22H18.1716C18.9672 22 19.7303 21.6839 20.2929 21.1213L23.1213 18.2929C23.3089 18.1054 23.5632 18 23.8284 18H26C26.5523 18 27 18.4477 27 19V23C27 24.6569 25.6569 26 24 26H8C6.34315 26 5 24.6569 5 23V19Z" fill="#FF355E"/>
<path d="M11 12C11 11.4477 11.4477 11 12 11H20C20.5523 11 21 11.4477 21 12C21 12.5523 20.5523 13 20 13H12C11.4477 13 11 12.5523 11 12Z" fill="#FF355E"/>
<path d="M14 15C13.4477 15 13 15.4477 13 16C13 16.5523 13.4477 17 14 17H18C18.5523 17 19 16.5523 19 16C19 15.4477 18.5523 15 18 15H14Z" fill="#FF355E"/>
</svg>
