<svg width="32" height="32" viewBox="0 0 32 32" fill="none" xmlns="http://www.w3.org/2000/svg">
<path d="M6 8C6 5.23858 8.23858 3 11 3H17.3431C18.6692 3 19.941 3.52678 20.8787 4.46447L24.5355 8.12132C25.4732 9.059 26 10.3308 26 11.6569V14C26 14.5523 25.5523 15 25 15C24.4477 15 24 14.5523 24 14V11.6569C24 10.8612 23.6839 10.0981 23.1213 9.53553L19.4645 5.87868C18.9019 5.31607 18.1388 5 17.3431 5H11C9.34315 5 8 6.34315 8 8V24C8 25.6569 9.34315 27 11 27H14C14.5523 27 15 27.4477 15 28C15 28.5523 14.5523 29 14 29H11C8.23858 29 6 26.7614 6 24V8Z" fill="#FF355E"/>
<path fill-rule="evenodd" clip-rule="evenodd" d="M23.7929 18.7929C25.0119 17.5739 26.9882 17.5739 28.2071 18.7929C29.4261 20.0118 29.4261 21.9881 28.2071 23.2071L22.2071 29.2071C22.0541 29.3601 21.8556 29.4593 21.6414 29.4899L18.1414 29.9899C17.8298 30.0344 17.5155 29.9297 17.2929 29.7071C17.0703 29.4845 16.9655 29.1702 17.0101 28.8586L17.5101 25.3586C17.5407 25.1444 17.6399 24.9459 17.7929 24.7929L23.7929 18.7929ZM25.2071 20.2071C25.645 19.7692 26.355 19.7692 26.7929 20.2071C27.2308 20.645 27.2308 21.355 26.7929 21.7929L21.0286 27.5572L19.1785 27.8215L19.4428 25.9714L25.2071 20.2071Z" fill="#FF355E"/>
</svg>
