<svg width="32" height="32" viewBox="0 0 32 32" fill="none" xmlns="http://www.w3.org/2000/svg">
<path d="M11 3C8.23858 3 6 5.23858 6 8V24C6 26.7614 8.23858 29 11 29H14C14.5523 29 15 28.5523 15 28C15 27.4477 14.5523 27 14 27H11C9.34315 27 8 25.6569 8 24V8C8 6.34315 9.34315 5 11 5H17.3431C18.1388 5 18.9019 5.31607 19.4645 5.87868L23.1213 9.53553C23.6839 10.0981 24 10.8612 24 11.6569V14C24 14.5523 24.4477 15 25 15C25.5523 15 26 14.5523 26 14V11.6569C26 10.3308 25.4732 9.059 24.5355 8.12132L20.8787 4.46447C19.941 3.52678 18.6692 3 17.3431 3H11Z" fill="#FF355E"/>
<path d="M11 13C11 12.4477 11.4477 12 12 12H20C20.5523 12 21 12.4477 21 13C21 13.5523 20.5523 14 20 14H12C11.4477 14 11 13.5523 11 13Z" fill="#FF355E"/>
<path d="M11 17C11 16.4477 11.4477 16 12 16H17C17.5523 16 18 16.4477 18 17C18 17.5523 17.5523 18 17 18H12C11.4477 18 11 17.5523 11 17Z" fill="#FF355E"/>
<path d="M12 20C11.4477 20 11 20.4477 11 21C11 21.5523 11.4477 22 12 22H15C15.5523 22 16 21.5523 16 21C16 20.4477 15.5523 20 15 20H12Z" fill="#FF355E"/>
<path fill-rule="evenodd" clip-rule="evenodd" d="M23.7929 18.7929C25.0119 17.574 26.9882 17.574 28.2071 18.7929C29.4261 20.0119 29.4261 21.9882 28.2071 23.2071L22.2071 29.2071C22.0541 29.3601 21.8556 29.4594 21.6414 29.49L18.1414 29.99C17.8298 30.0345 17.5155 29.9297 17.2929 29.7071C17.0703 29.4846 16.9655 29.1702 17.0101 28.8586L17.5101 25.3586C17.5407 25.1444 17.6399 24.9459 17.7929 24.7929L23.7929 18.7929ZM25.2071 20.2071C25.645 19.7692 26.355 19.7692 26.7929 20.2071C27.2308 20.645 27.2308 21.355 26.7929 21.7929L21.0286 27.5572L19.1785 27.8215L19.4428 25.9714L25.2071 20.2071Z" fill="#FF355E"/>
</svg>
