<svg width="32" height="32" viewBox="0 0 32 32" fill="none" xmlns="http://www.w3.org/2000/svg">
<path d="M11.7071 15.7071C11.3166 16.0976 10.6834 16.0976 10.2929 15.7071C10.1311 15.5453 9.86887 15.5453 9.70711 15.7071C9.31658 16.0976 8.68342 16.0976 8.29289 15.7071C7.90237 15.3166 7.90237 14.6834 8.29289 14.2929C9.2357 13.3501 10.7643 13.3501 11.7071 14.2929C12.0976 14.6834 12.0976 15.3166 11.7071 15.7071Z" fill="#FF355E"/>
<path d="M7 12C7 11.4477 7.44772 11 8 11C8.55228 11 9 11.4477 9 12C9 12.5523 8.55228 13 8 13C7.44772 13 7 12.5523 7 12Z" fill="#FF355E"/>
<path d="M11 12C11 11.4477 11.4477 11 12 11C12.5523 11 13 11.4477 13 12C13 12.5523 12.5523 13 12 13C11.4477 13 11 12.5523 11 12Z" fill="#FF355E"/>
<path d="M23.7071 15.7071C24.0976 15.3166 24.0976 14.6834 23.7071 14.2929C23.3166 13.9024 22.6834 13.9024 22.2929 14.2929C22.1311 14.4547 21.8689 14.4547 21.7071 14.2929C21.3166 13.9024 20.6834 13.9024 20.2929 14.2929C19.9024 14.6834 19.9024 15.3166 20.2929 15.7071C21.2357 16.6499 22.7643 16.6499 23.7071 15.7071Z" fill="#FF355E"/>
<path d="M20 11C19.4477 11 19 11.4477 19 12C19 12.5523 19.4477 13 20 13C20.5523 13 21 12.5523 21 12C21 11.4477 20.5523 11 20 11Z" fill="#FF355E"/>
<path d="M24 11C23.4477 11 23 11.4477 23 12C23 12.5523 23.4477 13 24 13C24.5523 13 25 12.5523 25 12C25 11.4477 24.5523 11 24 11Z" fill="#FF355E"/>
<path d="M3 13C3 9.13401 6.13401 6 10 6C12.5463 6 14.7751 7.35958 16 9.39242C17.2249 7.35958 19.4537 6 22 6C25.866 6 29 9.13401 29 13C29 16.866 25.866 20 22 20C19.4537 20 17.2249 18.6404 16 16.6076C14.7751 18.6404 12.5463 20 10 20C6.13401 20 3 16.866 3 13ZM10 8C7.23858 8 5 10.2386 5 13C5 15.7614 7.23858 18 10 18C12.7614 18 15 15.7614 15 13C15 10.2386 12.7614 8 10 8ZM22 18C24.7614 18 27 15.7614 27 13C27 10.2386 24.7614 8 22 8C19.2386 8 17 10.2386 17 13C17 15.7614 19.2386 18 22 18Z" fill="#FF355E"/>
<path d="M4 25H18.1707C18.5825 26.1652 19.6938 27 21 27C22.3062 27 23.4175 26.1652 23.8293 25H28C28.5523 25 29 24.5523 29 24C29 23.4477 28.5523 23 28 23H23.8293C23.4175 21.8348 22.3062 21 21 21C19.6938 21 18.5825 21.8348 18.1707 23H4C3.44772 23 3 23.4477 3 24C3 24.5523 3.44772 25 4 25ZM21 23C21.5523 23 22 23.4477 22 24C22 24.5523 21.5523 25 21 25C20.4477 25 20 24.5523 20 24C20 23.4477 20.4477 23 21 23Z" fill="#FF355E"/>
</svg>
