<svg width="32" height="32" viewBox="0 0 32 32" fill="none" xmlns="http://www.w3.org/2000/svg">
<path d="M5 8C5 6.34315 6.34315 5 8 5H18C19.6569 5 21 6.34315 21 8V9C21 9.55228 21.4477 10 22 10C22.5523 10 23 9.55228 23 9V8C23 5.23858 20.7614 3 18 3H8C5.23858 3 3 5.23858 3 8V16C3 17.8638 4.27477 19.4299 6 19.874V20.5858C6 22.3676 8.15428 23.2599 9.41421 22L11.7071 19.7071C12.0976 19.3166 12.0976 18.6834 11.7071 18.2929C11.3166 17.9024 10.6834 17.9024 10.2929 18.2929L8 20.5858L8 19C8 18.4477 7.55228 18 7 18C5.89543 18 5 17.1046 5 16V8Z" fill="#FF355E"/>
<path d="M19 19C19 19.5523 19.4477 20 20 20H23C23.5523 20 24 19.5523 24 19C24 18.4477 23.5523 18 23 18H20C19.4477 18 19 18.4477 19 19Z" fill="#FF355E"/>
<path d="M26 24.874C27.7252 24.4299 29 22.8638 29 21V18C29 15.2386 26.7614 13 24 13H19C16.2386 13 14 15.2386 14 18V20C14 22.7614 16.2386 25 19 25H20.5858L22.5858 27C23.8457 28.2599 26 27.3676 26 25.5858V24.874ZM19 15H24C25.6569 15 27 16.3431 27 18V21C27 22.1046 26.1046 23 25 23C24.4477 23 24 23.4477 24 24V25.5858L21.7071 23.2929C21.5196 23.1054 21.2652 23 21 23H19C17.3431 23 16 21.6569 16 20V18C16 16.3431 17.3431 15 19 15Z" fill="#FF355E"/>
<path d="M8 10C8 9.44772 8.44772 9 9 9H17C17.5523 9 18 9.44772 18 10C18 10.5523 17.5523 11 17 11H9C8.44772 11 8 10.5523 8 10Z" fill="#FF355E"/>
<path d="M9 13C8.44772 13 8 13.4477 8 14C8 14.5523 8.44772 15 9 15H12C12.5523 15 13 14.5523 13 14C13 13.4477 12.5523 13 12 13H9Z" fill="#FF355E"/>
</svg>
