<svg width="32" height="32" viewBox="0 0 32 32" fill="none" xmlns="http://www.w3.org/2000/svg">
<path fill-rule="evenodd" clip-rule="evenodd" d="M9.01537 4.99996C9.05903 4.99998 9.10333 4.99999 9.14831 4.99999H11.9368C13.8954 4.99999 15.6486 6.21494 16.3363 8.04886C16.5509 8.62097 17.0978 8.99999 17.7088 8.99999L21.6428 8.99999C22.7266 8.99998 23.6007 8.99997 24.3086 9.05781C25.0375 9.11736 25.6777 9.24317 26.2699 9.54496C27.2108 10.0243 27.9757 10.7892 28.455 11.73C28.7568 12.3223 28.8826 12.9625 28.9422 13.6914C29 14.3992 29 15.2734 29 16.3572V18.6428C29 19.7266 29 20.6007 28.9422 21.3086C28.8826 22.0375 28.7568 22.6777 28.455 23.2699C27.9757 24.2108 27.2108 24.9757 26.2699 25.455C25.6777 25.7568 25.0375 25.8826 24.3086 25.9422C23.6007 26 22.7266 26 21.6428 26H10.3572C9.27338 26 8.39924 26 7.69136 25.9422C6.96251 25.8826 6.32233 25.7568 5.73004 25.455C4.78922 24.9757 4.02432 24.2108 3.54496 23.2699C3.24317 22.6777 3.11736 22.0375 3.05781 21.3086C2.99997 20.6007 2.99998 19.7266 2.99999 18.6428L2.99999 11.1483C2.99999 11.1033 2.99998 11.059 2.99996 11.0154C2.9997 10.0763 2.99951 9.43597 3.12654 8.88216C3.55507 7.01391 5.01391 5.55507 6.88216 5.12654C7.43597 4.99951 8.07632 4.9997 9.01537 4.99996ZM9.14831 6.99999C8.02565 6.99999 7.63252 7.00637 7.32929 7.07592C6.20834 7.33304 5.33304 8.20834 5.07592 9.32929C5.00637 9.63252 4.99999 10.0256 4.99999 11.1483V18.6C4.99999 19.7366 5.00077 20.5289 5.05116 21.1457C5.10061 21.7509 5.19278 22.0986 5.32697 22.362C5.61459 22.9264 6.07353 23.3854 6.63802 23.673C6.90137 23.8072 7.24906 23.8994 7.85423 23.9488C8.47107 23.9992 9.26338 24 10.4 24H21.6C22.7366 24 23.5289 23.9992 24.1457 23.9488C24.7509 23.8994 25.0986 23.8072 25.362 23.673C25.9264 23.3854 26.3854 22.9264 26.673 22.362C26.8072 22.0986 26.8994 21.7509 26.9488 21.1457C26.9992 20.5289 27 19.7366 27 18.6V16.4C27 15.2634 26.9992 14.4711 26.9488 13.8542C26.8994 13.2491 26.8072 12.9014 26.673 12.638C26.3854 12.0735 25.9264 11.6146 25.362 11.327C25.0986 11.1928 24.7509 11.1006 24.1457 11.0512C23.5289 11.0008 22.7366 11 21.6 11H17.7088C16.2641 11 14.9709 10.1038 14.4637 8.75111C14.0687 7.6978 13.0617 6.99999 11.9368 6.99999H9.14831Z" fill="#FF355E"/>
</svg>
