<svg width="32" height="32" viewBox="0 0 32 32" fill="none" xmlns="http://www.w3.org/2000/svg">
<path d="M6 8C6 5.23858 8.23858 3 11 3H17.3431C18.6692 3 19.941 3.52678 20.8787 4.46447L24.5355 8.12132C25.4732 9.059 26 10.3308 26 11.6569V14C26 14.5523 25.5523 15 25 15C24.4477 15 24 14.5523 24 14V11.6569C24 10.8612 23.6839 10.0981 23.1213 9.53553L19.4645 5.87868C18.9019 5.31607 18.1388 5 17.3431 5H11C9.34315 5 8 6.34315 8 8V24C8 25.6569 9.34315 27 11 27H14C14.5523 27 15 27.4477 15 28C15 28.5523 14.5523 29 14 29H11C8.23858 29 6 26.7614 6 24V8Z" fill="#FF355E"/>
<path d="M26.7071 23.2929L24.7071 21.2929C24.3166 20.9024 23.6834 20.9024 23.2929 21.2929L21.2929 23.2929C20.9024 23.6834 20.9024 24.3166 21.2929 24.7071C21.6834 25.0976 22.3166 25.0976 22.7071 24.7071L23 24.4142V26.5C23 27.0523 23.4477 27.5 24 27.5C24.5523 27.5 25 27.0523 25 26.5V24.4142L25.2929 24.7071C25.6834 25.0976 26.3166 25.0976 26.7071 24.7071C27.0976 24.3166 27.0976 23.6834 26.7071 23.2929Z" fill="#FF355E"/>
<path d="M24 17C20.134 17 17 20.134 17 24C17 27.866 20.134 31 24 31C27.866 31 31 27.866 31 24C31 20.134 27.866 17 24 17ZM19 24C19 21.2386 21.2386 19 24 19C26.7614 19 29 21.2386 29 24C29 26.7614 26.7614 29 24 29C21.2386 29 19 26.7614 19 24Z" fill="#FF355E"/>
</svg>
