<svg width="32" height="32" viewBox="0 0 32 32" fill="none" xmlns="http://www.w3.org/2000/svg">
<path d="M6 8C6 5.23858 8.23858 3 11 3H17.3431C18.6692 3 19.941 3.52678 20.8787 4.46447L24.5355 8.12132C25.4732 9.059 26 10.3308 26 11.6569V14C26 14.5523 25.5523 15 25 15C24.4477 15 24 14.5523 24 14V11.6569C24 10.8612 23.6839 10.0981 23.1213 9.53553L19.4645 5.87868C18.9019 5.31607 18.1388 5 17.3431 5H11C9.34315 5 8 6.34315 8 8V24C8 25.6569 9.34315 27 11 27H14C14.5523 27 15 27.4477 15 28C15 28.5523 14.5523 29 14 29H11C8.23858 29 6 26.7614 6 24V8Z" fill="#FF355E"/>
<path d="M23.5 24.0858L25.2929 22.2929C25.6834 21.9024 26.3166 21.9024 26.7071 22.2929C27.0976 22.6834 27.0976 23.3166 26.7071 23.7071L24.2071 26.2071C23.8166 26.5976 23.1834 26.5976 22.7929 26.2071L21.2929 24.7071C20.9024 24.3166 20.9024 23.6834 21.2929 23.2929C21.6834 22.9024 22.3166 22.9024 22.7071 23.2929L23.5 24.0858Z" fill="#FF355E"/>
<path fill-rule="evenodd" clip-rule="evenodd" d="M17 24C17 20.134 20.134 17 24 17C27.866 17 31 20.134 31 24C31 27.866 27.866 31 24 31C20.134 31 17 27.866 17 24ZM24 19C21.2386 19 19 21.2386 19 24C19 26.7614 21.2386 29 24 29C26.7614 29 29 26.7614 29 24C29 21.2386 26.7614 19 24 19Z" fill="#FF355E"/>
</svg>
