<svg width="32" height="32" viewBox="0 0 32 32" fill="none" xmlns="http://www.w3.org/2000/svg">
<path d="M6 8C6 5.23858 8.23858 3 11 3H17.3431C18.6692 3 19.941 3.52678 20.8787 4.46447L24.5355 8.12132C25.4732 9.059 26 10.3308 26 11.6569V24C26 26.7614 23.7614 29 21 29H11C8.23858 29 6 26.7614 6 24C6 23.4477 6.44772 23 7 23C7.55228 23 8 23.4477 8 24C8 25.6569 9.34315 27 11 27H21C22.6569 27 24 25.6569 24 24V11.6569C24 10.8612 23.6839 10.0981 23.1213 9.53553L19.4645 5.87868C18.9019 5.31607 18.1388 5 17.3431 5H11C9.34315 5 8 6.34315 8 8V10C8 10.5523 7.55228 11 7 11C6.44772 11 6 10.5523 6 10V8Z" fill="#FF355E"/>
<path fill-rule="evenodd" clip-rule="evenodd" d="M3 15C3 13.8954 3.89543 13 5 13H15C16.1046 13 17 13.8954 17 15V19C17 20.1046 16.1046 21 15 21H5C3.89543 21 3 20.1046 3 19V15ZM4.55469 15V15.6973H5.77929V19H6.61523V15.6973H7.83984V15H4.55469ZM9.98046 16.3633L9.17382 15H8.21484L9.44335 17L8.1914 19H9.16015L9.98046 17.6348H10.0117L10.832 19H11.8047L10.5566 17L11.7773 15H10.8223L10.0117 16.3633H9.98046ZM12.1601 15.6973V15H15.4453V15.6973H14.2207V19H13.3847V15.6973H12.1601Z" fill="#FF355E"/>
</svg>
