<svg width="32" height="32" viewBox="0 0 32 32" fill="none" xmlns="http://www.w3.org/2000/svg">
<path fill-rule="evenodd" clip-rule="evenodd" d="M6 8C6 5.23858 8.23858 3 11 3H17.3431C18.6692 3 19.941 3.52678 20.8787 4.46447L24.5355 8.12132C25.4732 9.059 26 10.3308 26 11.6569V24C26 26.7614 23.7614 29 21 29H11C8.23858 29 6 26.7614 6 24V8ZM11 5C9.34315 5 8 6.34315 8 8V24C8 25.6569 9.34315 27 11 27H21C22.6569 27 24 25.6569 24 24V11.6569C24 10.8612 23.6839 10.0981 23.1213 9.53553L19.4645 5.87868C18.9019 5.31607 18.1388 5 17.3431 5H11Z" fill="#FF355E"/>
</svg>
