<svg width="32" height="32" viewBox="0 0 32 32" fill="none" xmlns="http://www.w3.org/2000/svg">
<path fill-rule="evenodd" clip-rule="evenodd" d="M10 5C7.23858 5 5 7.23858 5 10V22C5 24.7614 7.23858 27 10 27H22C24.7614 27 27 24.7614 27 22V10C27 7.23858 24.7614 5 22 5H10ZM21 22.8293V25H22C23.6569 25 25 23.6569 25 22V10C25 8.34315 23.6569 7 22 7H21V17.1707C22.1652 17.5825 23 18.6938 23 20C23 21.3062 22.1652 22.4175 21 22.8293ZM19 22.8293V25H13V22.8293C14.1652 22.4175 15 21.3062 15 20C15 18.6938 14.1652 17.5825 13 17.1707V14.8293C14.1652 14.4175 15 13.3062 15 12C15 10.6938 14.1652 9.58254 13 9.17071V7H19V17.1707C17.8348 17.5825 17 18.6938 17 20C17 21.3062 17.8348 22.4175 19 22.8293ZM11 22.8293V25H10C8.34315 25 7 23.6569 7 22V10C7 8.34315 8.34315 7 10 7H11V9.17071C9.83481 9.58254 9 10.6938 9 12C9 13.3062 9.83481 14.4175 11 14.8293V17.1707C9.83481 17.5825 9 18.6938 9 20C9 21.3062 9.83481 22.4175 11 22.8293ZM11 12C11 11.4477 11.4477 11 12 11C12.5523 11 13 11.4477 13 12C13 12.5523 12.5523 13 12 13C11.4477 13 11 12.5523 11 12ZM11 20C11 19.4477 11.4477 19 12 19C12.5523 19 13 19.4477 13 20C13 20.5523 12.5523 21 12 21C11.4477 21 11 20.5523 11 20ZM19 20C19 19.4477 19.4477 19 20 19C20.5523 19 21 19.4477 21 20C21 20.5523 20.5523 21 20 21C19.4477 21 19 20.5523 19 20Z" fill="#FF355E"/>
</svg>
