<svg width="32" height="32" viewBox="0 0 32 32" fill="none" xmlns="http://www.w3.org/2000/svg">
<path fill-rule="evenodd" clip-rule="evenodd" d="M12 5C10.8954 5 9.99998 5.89543 9.99998 7V9C9.99998 10.1046 10.8954 11 12 11V13.1443C12 14.7602 11.4409 16.3263 10.4177 17.577L7.23488 21.467C5.09801 24.0788 6.9562 28 10.3307 28H21.6692C25.0438 28 26.9019 24.0788 24.7651 21.4671L21.5823 17.577C20.559 16.3263 20 14.7602 20 13.1443V11C21.1045 11 22 10.1046 22 9V7C22 5.89543 21.1045 5 20 5H12ZM12 7H20V9C18.8954 9 18 9.89543 18 11V13.1443C18 14.6767 18.391 16.1743 19.1242 17.5H12.8758C13.6089 16.1743 14 14.6767 14 13.1443V11C14 9.89543 13.1045 9 12 9V7ZM11.4284 19.5L8.78279 22.7335C7.71436 24.0394 8.64345 26 10.3307 26H21.6692C23.3565 26 24.2856 24.0394 23.2172 22.7335L20.5716 19.5H11.4284Z" fill="#FF355E"/>
</svg>
