<svg width="32" height="32" viewBox="0 0 32 32" fill="none" xmlns="http://www.w3.org/2000/svg">
<path d="M5 10C5 7.23858 7.23858 5 10 5H18.3431C19.6692 5 20.941 5.52678 21.8787 6.46447L25.5355 10.1213C26.4732 11.059 27 12.3308 27 13.6569V22C27 24.7614 24.7614 27 22 27H10C7.23858 27 5 24.7614 5 22V10ZM10 7C8.34315 7 7 8.34315 7 10V22C7 23.3062 7.83481 24.4175 9 24.8293V21C9 18.7909 10.7909 17 13 17H19C21.2091 17 23 18.7909 23 21V24.8293C24.1652 24.4175 25 23.3062 25 22V13.6569C25 12.8612 24.6839 12.0981 24.1213 11.5355L21 8.41421V11C21 12.6569 19.6569 14 18 14H14C12.3431 14 11 12.6569 11 11V7H10ZM13 7V11C13 11.5523 13.4477 12 14 12H18C18.5523 12 19 11.5523 19 11V7.07278C18.7861 7.02477 18.5659 7 18.3431 7H13ZM21 25V21C21 19.8954 20.1046 19 19 19H13C11.8954 19 11 19.8954 11 21V25H21Z" fill="#FF355E"/>
</svg>
