<svg width="32" height="32" viewBox="0 0 32 32" fill="none" xmlns="http://www.w3.org/2000/svg">
<path fill-rule="evenodd" clip-rule="evenodd" d="M13 16C13 14.3431 14.3431 13 16 13C17.6569 13 19 14.3431 19 16C19 16.8306 18.6624 17.5824 18.117 18.1256C18.6305 18.3655 19.1116 18.6974 19.5355 19.1213L19.7071 19.2929C20.0976 19.6834 20.0976 20.3166 19.7071 20.7071C19.3166 21.0976 18.6834 21.0976 18.2929 20.7071L18.1213 20.5355C16.9497 19.364 15.0503 19.364 13.8787 20.5355L13.7071 20.7071C13.3166 21.0976 12.6834 21.0976 12.2929 20.7071C11.9024 20.3166 11.9024 19.6834 12.2929 19.2929L12.4645 19.1213C12.8884 18.6974 13.3695 18.3655 13.883 18.1256C13.3376 17.5824 13 16.8306 13 16ZM16 15C15.4477 15 15 15.4477 15 16C15 16.5523 15.4477 17 16 17C16.5523 17 17 16.5523 17 16C17 15.4477 16.5523 15 16 15Z" fill="#FF355E"/>
<path fill-rule="evenodd" clip-rule="evenodd" d="M9.01543 5.00002L11.9368 5.00005C13.8955 5.00005 15.6487 6.215 16.3364 8.04893C16.5509 8.62103 17.0978 9.00005 17.7088 9.00005L21.6429 9.00005C22.7266 9.00004 23.6008 9.00003 24.3087 9.05787C25.0375 9.11742 25.6777 9.24323 26.27 9.54502C27.2108 10.0244 27.9757 10.7893 28.4551 11.7301C28.7569 12.3224 28.8827 12.9626 28.9422 13.6914C29.0001 14.3993 29.0001 15.2734 29 16.3571V18.6429C29.0001 19.7266 29.0001 20.6008 28.9422 21.3087C28.8827 22.0375 28.7569 22.6777 28.4551 23.27C27.9757 24.2108 27.2108 24.9757 26.27 25.4551C25.6777 25.7569 25.0375 25.8827 24.3087 25.9422C23.6008 26.0001 22.7267 26.0001 21.643 26H10.3572C9.27349 26.0001 8.39928 26.0001 7.69142 25.9422C6.96258 25.8827 6.32239 25.7569 5.7301 25.4551C4.78929 24.9757 4.02438 24.2108 3.54502 23.27C3.24323 22.6777 3.11742 22.0375 3.05787 21.3087C3.00003 20.6008 3.00004 19.7266 3.00005 18.6429L3.00002 11.0154C2.99976 10.0764 2.99957 9.43604 3.12661 8.88222C3.55513 7.01397 5.01397 5.55513 6.88222 5.12661C7.43604 4.99957 8.07639 4.99976 9.01543 5.00002ZM9.14837 7.00005C8.02571 7.00005 7.63258 7.00643 7.32935 7.07598C6.2084 7.3331 5.3331 8.2084 5.07598 9.32935C5.00643 9.63258 5.00005 10.0257 5.00005 11.1484V18.6C5.00005 19.7367 5.00083 20.529 5.05122 21.1458C5.10067 21.751 5.19284 22.0987 5.32703 22.362C5.61465 22.9265 6.07359 23.3854 6.63808 23.6731C6.90143 23.8073 7.24912 23.8994 7.85429 23.9489C8.47113 23.9993 9.26344 24 10.4 24H21.6C22.7367 24 23.529 23.9993 24.1458 23.9489C24.751 23.8994 25.0987 23.8073 25.362 23.6731C25.9265 23.3854 26.3854 22.9265 26.6731 22.362C26.8073 22.0987 26.8994 21.751 26.9489 21.1458C26.9993 20.529 27 19.7367 27 18.6V16.4C27 15.2634 26.9993 14.4711 26.9489 13.8543C26.8994 13.2491 26.8073 12.9014 26.6731 12.6381C26.3854 12.0736 25.9265 11.6146 25.362 11.327C25.0987 11.1928 24.751 11.1007 24.1458 11.0512C23.529 11.0008 22.7367 11 21.6 11H17.7088C16.2641 11 14.971 10.1039 14.4637 8.75117C14.0687 7.69786 13.0618 7.00005 11.9368 7.00005H9.14837Z" fill="#FF355E"/>
</svg>
