<svg width="32" height="32" viewBox="0 0 32 32" fill="none" xmlns="http://www.w3.org/2000/svg">
<path fill-rule="evenodd" clip-rule="evenodd" d="M9.01537 4.99996L11.9368 4.99999C13.8954 4.99999 15.6486 6.21494 16.3363 8.04886C16.4892 8.45647 16.8107 8.76606 17.204 8.9104C17.6401 7.79224 18.7275 6.99998 20 6.99998H22C23.351 6.99998 24.4934 7.89303 24.8692 9.12101C25.3728 9.19623 25.8343 9.323 26.2699 9.54496C27.2108 10.0243 27.9757 10.7892 28.455 11.73C28.7568 12.3223 28.8826 12.9625 28.9422 13.6914C29 14.3992 29 15.2733 29 16.3571V18.6428C29 19.7265 29 20.6008 28.9422 21.3086C28.8826 22.0375 28.7568 22.6777 28.455 23.2699C27.9757 24.2108 27.2108 24.9757 26.2699 25.455C25.6777 25.7568 25.0375 25.8826 24.3086 25.9422C23.6008 26 22.7267 26 21.6429 26H10.3572C9.27343 26 8.39922 26 7.69136 25.9422C6.96251 25.8826 6.32233 25.7568 5.73004 25.455C4.78922 24.9757 4.02432 24.2108 3.54496 23.2699C3.24317 22.6777 3.11736 22.0375 3.05781 21.3086C2.99997 20.6007 2.99998 19.7266 2.99999 18.6428L2.99996 11.0154C2.9997 10.0763 2.99951 9.43597 3.12654 8.88216C3.55507 7.01391 5.01391 5.55507 6.88216 5.12654C7.43597 4.99951 8.07632 4.9997 9.01537 4.99996ZM25 11.1877V19C25 19.3688 24.797 19.7076 24.4719 19.8817C24.1467 20.0557 23.7522 20.0366 23.4453 19.832L21 18.2018L18.5547 19.832C18.2478 20.0366 17.8533 20.0557 17.5281 19.8817C17.203 19.7076 17 19.3688 17 19V10.9269C15.8537 10.6876 14.8861 9.87772 14.4637 8.75111C14.0687 7.6978 13.0617 6.99999 11.9368 6.99999H9.14831C8.02565 6.99999 7.63252 7.00637 7.32929 7.07592C6.20834 7.33304 5.33304 8.20834 5.07592 9.32929C5.00637 9.63252 4.99999 10.0256 4.99999 11.1483V18.6C4.99999 19.7366 5.00077 20.5289 5.05116 21.1457C5.10061 21.7509 5.19278 22.0986 5.32697 22.362C5.61459 22.9264 6.07353 23.3854 6.63802 23.673C6.90137 23.8072 7.24906 23.8994 7.85423 23.9488C8.47107 23.9992 9.26338 24 10.4 24H21.6C22.7366 24 23.5289 23.9992 24.1457 23.9488C24.7509 23.8994 25.0986 23.8072 25.362 23.673C25.9264 23.3854 26.3854 22.9264 26.673 22.362C26.8072 22.0986 26.8994 21.7509 26.9488 21.1457C26.9992 20.5289 27 19.7366 27 18.6V16.4C27 15.2634 26.9992 14.4711 26.9488 13.8542C26.8994 13.2491 26.8072 12.9014 26.673 12.638C26.3854 12.0735 25.9264 11.6146 25.362 11.327C25.258 11.274 25.1409 11.2276 25 11.1877ZM19 9.99998C19 9.4477 19.4477 8.99998 20 8.99998H22C22.5523 8.99998 23 9.4477 23 9.99998V17.1315L21.5547 16.1679C21.2188 15.944 20.7812 15.944 20.4453 16.1679L19 17.1315V9.99998Z" fill="#FF355E"/>
</svg>
