<svg width="32" height="32" viewBox="0 0 32 32" fill="none" xmlns="http://www.w3.org/2000/svg">
<path fill-rule="evenodd" clip-rule="evenodd" d="M8.99999 7.99997C9.0051 7.99997 9.01023 7.99997 9.01536 7.99998C9.05902 7.99999 9.10333 8 9.14831 8H11.9368C13.8954 8 15.6486 9.21496 16.3363 11.0489C16.5509 11.621 17.0978 12 17.7088 12H21.6428C22.1375 12 22.5885 12 23 12.0055V8C23 6.34315 21.6568 5 20 5H12C10.3431 5 9 6.34313 8.99999 7.99997ZM25 12.1419V8C25 5.23858 22.7614 3 20 3H12C9.23856 3 6.99999 5.23858 6.99999 8V8.10167C6.96024 8.10937 6.92098 8.11765 6.88216 8.12656C5.01391 8.55508 3.55507 10.0139 3.12654 11.8822C2.99951 12.436 2.9997 13.0763 2.99996 14.0154C2.99998 14.059 2.99999 14.1033 2.99999 14.1483L2.99999 21.6428C2.99998 22.7266 2.99997 23.6007 3.05781 24.3086C3.11736 25.0375 3.24317 25.6777 3.54496 26.27C4.02432 27.2108 4.78922 27.9757 5.73004 28.455C6.32233 28.7568 6.96251 28.8826 7.69136 28.9422C8.39924 29 9.27338 29 10.3572 29H21.6428C22.7266 29 23.6007 29 24.3086 28.9422C25.0375 28.8826 25.6777 28.7568 26.2699 28.455C27.2108 27.9757 27.9757 27.2108 28.455 26.27C28.7568 25.6777 28.8826 25.0375 28.9422 24.3086C29 23.6008 29 22.7266 29 21.6428V19.3572C29 18.2734 29 17.3992 28.9422 16.6914C28.8826 15.9625 28.7568 15.3223 28.455 14.73C27.9757 13.7892 27.2108 13.0243 26.2699 12.545C25.8723 12.3424 25.4531 12.2191 25 12.1419ZM17 8.5C17 7.94772 17.4477 7.5 18 7.5H20C20.5523 7.5 21 7.94772 21 8.5C21 9.05228 20.5523 9.5 20 9.5H18C17.4477 9.5 17 9.05228 17 8.5ZM9.14831 10C8.02564 10 7.63252 10.0064 7.32929 10.0759C6.20834 10.333 5.33304 11.2084 5.07592 12.3293C5.00637 12.6325 4.99999 13.0257 4.99999 14.1483V21.6C4.99999 22.7366 5.00077 23.5289 5.05116 24.1458C5.10061 24.7509 5.19278 25.0986 5.32697 25.362C5.61459 25.9265 6.07353 26.3854 6.63802 26.673C6.90137 26.8072 7.24906 26.8994 7.85423 26.9488C8.47107 26.9992 9.26338 27 10.4 27H21.6C22.7366 27 23.5289 26.9992 24.1457 26.9488C24.7509 26.8994 25.0986 26.8072 25.362 26.673C25.9264 26.3854 26.3854 25.9265 26.673 25.362C26.8072 25.0986 26.8994 24.7509 26.9488 24.1458C26.9992 23.5289 27 22.7366 27 21.6V19.4C27 18.2634 26.9992 17.4711 26.9488 16.8542C26.8994 16.2491 26.8072 15.9014 26.673 15.638C26.3854 15.0735 25.9264 14.6146 25.362 14.327C25.0986 14.1928 24.7509 14.1006 24.1457 14.0512C23.5289 14.0008 22.7366 14 21.6 14H17.7088C16.2641 14 14.9709 13.1038 14.4637 11.7511C14.0687 10.6978 13.0617 10 11.9368 10H9.14831Z" fill="#FF355E"/>
</svg>
