<svg width="32" height="32" viewBox="0 0 32 32" fill="none" xmlns="http://www.w3.org/2000/svg">
<path fill-rule="evenodd" clip-rule="evenodd" d="M9.01537 4.99996L11.9368 4.99999C13.8954 4.99999 15.6486 6.21494 16.3363 8.04886C16.5509 8.62097 17.0978 8.99999 17.7088 8.99999L21.6428 8.99999C22.7266 8.99998 23.6007 8.99997 24.3086 9.05781C25.0375 9.11736 25.6777 9.24317 26.2699 9.54496C27.2108 10.0243 27.9757 10.7892 28.455 11.73C28.6549 12.1222 28.7775 12.5354 28.8549 12.9815C30.4042 14.1344 31.2426 16.1525 30.7276 18.2127L29.7276 22.2127C29.1711 24.4385 27.1712 26 24.8769 26H21.7862C21.7388 26 21.6911 26 21.6429 26H10.3572C10.309 26 10.2612 26 10.2138 26H8.28077C8.13239 26 7.98851 25.9841 7.85051 25.954C7.79655 25.9504 7.74351 25.9464 7.69136 25.9422C6.96251 25.8826 6.32233 25.7568 5.73004 25.455C4.78922 24.9757 4.02432 24.2108 3.54496 23.2699C3.24317 22.6777 3.11736 22.0375 3.05781 21.3086C2.99997 20.6007 2.99998 19.7266 2.99999 18.6428L2.99996 11.0154C2.9997 10.0763 2.99951 9.43597 3.12654 8.88216C3.55507 7.01391 5.01391 5.55507 6.88216 5.12654C7.43597 4.99951 8.07632 4.9997 9.01537 4.99996ZM6.34385 23.5014L8.27239 15.7873C8.82885 13.5615 10.8288 12 13.1231 12H25.8769C26.0019 12 26.1256 12.0045 26.2479 12.0134C25.9998 11.7326 25.6998 11.4991 25.362 11.327C25.0986 11.1928 24.7509 11.1006 24.1457 11.0512C23.5289 11.0008 22.7366 11 21.6 11H17.7088C16.2641 11 14.9709 10.1038 14.4637 8.75111C14.0687 7.6978 13.0617 6.99999 11.9368 6.99999H9.14831C8.02565 6.99999 7.63252 7.00637 7.32929 7.07592C6.20834 7.33304 5.33304 8.20834 5.07592 9.32929C5.00637 9.63252 4.99999 10.0256 4.99999 11.1483V18.6C4.99999 19.7366 5.00077 20.5289 5.05116 21.1457C5.10061 21.7509 5.19278 22.0986 5.32697 22.362C5.56282 22.8248 5.91387 23.2168 6.34385 23.5014ZM10.2127 16.2724C10.5465 14.9369 11.7465 14 13.1231 14H25.8769C27.8286 14 29.2607 15.8342 28.7873 17.7276L27.7873 21.7276C27.4534 23.0631 26.2535 24 24.8769 24H8.28077L10.2127 16.2724Z" fill="#FF355E"/>
</svg>
