<svg width="32" height="32" viewBox="0 0 32 32" fill="none" xmlns="http://www.w3.org/2000/svg">
<path d="M23.0183 3.56748C23.6701 2.91568 24.78 3.17768 25.0715 4.05217L25.7906 6.20943L27.9478 6.92852C28.8223 7.22001 29.0843 8.32989 28.4325 8.98169L25.8536 11.5607C25.5722 11.842 25.1907 12 24.7929 12H21.4142L19.7071 13.7071C19.3166 14.0976 18.6834 14.0976 18.2929 13.7071C17.9024 13.3166 17.9024 12.6834 18.2929 12.2929L20 10.5858V7.20711C20 6.80928 20.158 6.42775 20.4393 6.14645L23.0183 3.56748ZM22 10H24.5858L26.1488 8.43701L24.2094 7.79057L23.563 5.85123L22 7.41421V10ZM4 16C4 9.37258 9.37258 4 16 4C16.7439 4 17.4728 4.06781 18.1807 4.19783C18.7239 4.29761 19.0833 4.81884 18.9835 5.36204C18.8838 5.90523 18.3625 6.2647 17.8193 6.16492C17.2301 6.05669 16.6221 6 16 6C10.4772 6 6 10.4772 6 16C6 21.5228 10.4772 26 16 26C21.5228 26 26 21.5228 26 16C26 15.6929 25.9862 15.3893 25.9592 15.0897C25.9315 14.7824 25.8899 14.4791 25.8351 14.1807C25.7353 13.6375 26.0948 13.1162 26.638 13.0165C27.1812 12.9167 27.7024 13.2761 27.8022 13.8193C27.868 14.1778 27.9179 14.5417 27.9511 14.9102C27.9835 15.2694 28 15.6329 28 16C28 22.6274 22.6274 28 16 28C9.37258 28 4 22.6274 4 16ZM8 16C8 11.5817 11.5817 8 16 8C16.387 8 16.7682 8.02756 17.1416 8.08096C17.6883 8.15917 18.0681 8.66577 17.9899 9.21249C17.9117 9.75921 17.4051 10.139 16.8584 10.0608C16.5786 10.0208 16.292 10 16 10C12.6863 10 10 12.6863 10 16C10 19.3137 12.6863 22 16 22C19.3137 22 22 19.3137 22 16C22 15.708 21.9792 15.4214 21.9392 15.1416C21.861 14.5949 22.2408 14.0883 22.7875 14.0101C23.3342 13.9319 23.8408 14.3117 23.919 14.8584C23.9724 15.2318 24 15.613 24 16C24 20.4183 20.4183 24 16 24C11.5817 24 8 20.4183 8 16ZM15.9428 12.8375C16.1269 13.3582 15.854 13.9295 15.3332 14.1135C14.5551 14.3886 14 15.1307 14 16C14 17.1046 14.8954 18 16 18C16.8693 18 17.6114 17.4449 17.8865 16.6668C18.0705 16.146 18.6418 15.8731 19.1625 16.0572C19.6833 16.2412 19.9562 16.8125 19.7721 17.3332C19.2235 18.8855 17.7432 20 16 20C13.7909 20 12 18.2091 12 16C12 14.2568 13.1145 12.7765 14.6668 12.2279C15.1875 12.0438 15.7588 12.3167 15.9428 12.8375Z" fill="#FF355E"/>
</svg>
