<svg width="32" height="32" viewBox="0 0 32 32" fill="none" xmlns="http://www.w3.org/2000/svg">
<path d="M18 3C15.2386 3 13 5.23858 13 8V12C13 12.5523 13.4477 13 14 13C14.5523 13 15 12.5523 15 12V8C15 6.34315 16.3431 5 18 5H21.3431C22.1388 5 22.9019 5.31607 23.4645 5.87868L26.1213 8.53553C26.6839 9.09814 27 9.86121 27 10.6569V20C27 21.1046 26.1046 22 25 22C24.4477 22 24 22.4477 24 23C24 23.5523 24.4477 24 25 24C27.2091 24 29 22.2091 29 20V10.6569C29 9.33077 28.4732 8.059 27.5355 7.12132L24.8787 4.46446C23.941 3.52678 22.6692 3 21.3431 3H18Z" fill="#FF355E"/>
<path fill-rule="evenodd" clip-rule="evenodd" d="M4 13C3.44772 13 3 13.4477 3 14C3 14.5523 3.44772 15 4 15H6C6.55228 15 7 15.4477 7 16V25C7 25.5523 6.55228 26 6 26H4C3.44772 26 3 26.4477 3 27C3 27.5523 3.44772 28 4 28H6C7.30622 28 8.41746 27.1652 8.82929 26H19.75C20.9926 26 22 24.9926 22 23.75C22 21.3502 20.2204 19.3661 17.909 19.0453C17.4634 16.7406 15.435 15 13 15H8.82929C8.41746 13.8348 7.30622 13 6 13H4ZM19.75 24H9V17H13C14.3062 17 15.4175 17.8348 15.8293 19H14C13.4477 19 13 19.4477 13 20C13 20.5523 13.4477 21 14 21H17.25C18.7688 21 20 22.2312 20 23.75C20 23.8881 19.8881 24 19.75 24Z" fill="#FF355E"/>
</svg>
