<svg width="32" height="32" viewBox="0 0 32 32" fill="none" xmlns="http://www.w3.org/2000/svg">
<path d="M20.1296 5.80458C17.8944 4.89922 15.4235 4.75351 13.0974 5.38987C10.7713 6.02623 8.7187 7.4094 7.25561 9.3265C5.87809 11.1315 5.09498 13.3156 5.00811 15.5777L5.29289 15.2929C5.68342 14.9024 6.31658 14.9024 6.70711 15.2929C7.09763 15.6834 7.09763 16.3166 6.70711 16.7071L4.70711 18.7071C4.51957 18.8946 4.26522 19 4 19C3.73478 19 3.48043 18.8946 3.29289 18.7071L1.29289 16.7071C0.902369 16.3166 0.902369 15.6834 1.29289 15.2929C1.68342 14.9024 2.31658 14.9024 2.70711 15.2929L3.0064 15.5922C3.09128 12.8863 4.01921 10.2706 5.66572 8.11313C7.39483 5.84747 9.82057 4.21282 12.5697 3.46076C15.3187 2.70869 18.2388 2.8809 20.8804 3.95087C23.522 5.02084 25.7388 6.92927 27.1896 9.38247C28.6405 11.8357 29.2449 14.6977 28.9099 17.528C28.5749 20.3583 27.3191 23.0001 25.3356 25.0469C23.3522 27.0936 20.7512 28.4318 17.9327 28.8555C15.1143 29.2793 12.2348 28.765 9.7372 27.392C9.25323 27.1259 9.07658 26.5179 9.34264 26.0339C9.60871 25.55 10.2167 25.3733 10.7007 25.6394C12.814 26.8012 15.2506 27.2363 17.6354 26.8778C20.0202 26.5192 22.2211 25.3869 23.8994 23.655C25.5777 21.9232 26.6403 19.6878 26.9238 17.2929C27.2072 14.898 26.6958 12.4763 25.4682 10.4006C24.2406 8.32477 22.3648 6.70994 20.1296 5.80458Z" fill="#FF355E"/>
<path d="M17 10C17 9.44772 16.5523 9 16 9C15.4477 9 15 9.44772 15 10V16C15 16.3344 15.1671 16.6466 15.4453 16.8321L18.4453 18.8321C18.9048 19.1384 19.5257 19.0142 19.8321 18.5547C20.1384 18.0952 20.0142 17.4743 19.5547 17.1679L17 15.4648V10Z" fill="#FF355E"/>
</svg>
