<svg width="32" height="32" viewBox="0 0 32 32" fill="none" xmlns="http://www.w3.org/2000/svg">
<path d="M20.7071 16.7071C21.0976 16.3166 21.0976 15.6834 20.7071 15.2929C20.3166 14.9024 19.6834 14.9024 19.2929 15.2929L14 20.5858L12.7071 19.2929C12.3166 18.9024 11.6834 18.9024 11.2929 19.2929C10.9024 19.6834 10.9024 20.3166 11.2929 20.7071L13.2929 22.7071C13.6834 23.0976 14.3166 23.0976 14.7071 22.7071L20.7071 16.7071Z" fill="#FF355E"/>
<path fill-rule="evenodd" clip-rule="evenodd" d="M10 3C10.5523 3 11 3.44772 11 4V5H21V4C21 3.44772 21.4477 3 22 3C22.5523 3 23 3.44772 23 4V5H24C26.7614 5 29 7.23858 29 10V22C29 24.7614 26.7614 27 24 27H8C5.23858 27 3 24.7614 3 22V10C3 7.23858 5.23858 5 8 5H9V4C9 3.44772 9.44772 3 10 3ZM27 10V11H5V10C5 8.34315 6.34315 7 8 7H9V8C9 8.55228 9.44772 9 10 9C10.5523 9 11 8.55228 11 8V7H21V8C21 8.55228 21.4477 9 22 9C22.5523 9 23 8.55228 23 8V7H24C25.6569 7 27 8.34315 27 10ZM27 13H5V22C5 23.6569 6.34315 25 8 25H24C25.6569 25 27 23.6569 27 22V13Z" fill="#FF355E"/>
</svg>
