<svg width="32" height="32" viewBox="0 0 32 32" fill="none" xmlns="http://www.w3.org/2000/svg">
<path d="M13.5 4C9.91015 4 7 6.91015 7 10.5C7 14.0899 9.91015 17 13.5 17C17.0899 17 20 14.0899 20 10.5C20 6.91015 17.0899 4 13.5 4ZM9 10.5C9 8.01472 11.0147 6 13.5 6C15.9853 6 18 8.01472 18 10.5C18 12.9853 15.9853 15 13.5 15C11.0147 15 9 12.9853 9 10.5Z" fill="#FF355E"/>
<path d="M23 18C25.7614 18 28 20.2386 28 23C28 24.0191 27.6951 24.967 27.1716 25.7574L29.2071 27.7929C29.5976 28.1834 29.5976 28.8166 29.2071 29.2071C28.8166 29.5976 28.1834 29.5976 27.7929 29.2071L25.7574 27.1716C24.967 27.6951 24.0191 28 23 28C20.2386 28 18 25.7614 18 23C18 20.2386 20.2386 18 23 18ZM26 23C26 21.3431 24.6569 20 23 20C21.3431 20 20 21.3431 20 23C20 24.6569 21.3431 26 23 26C24.6569 26 26 24.6569 26 23Z" fill="#FF355E"/>
<path d="M7 24C7 21.7909 8.79086 20 11 20H16C16.5523 20 17 19.5523 17 19C17 18.4477 16.5523 18 16 18H11C7.68629 18 5 20.6863 5 24C5 24.5523 5.44772 25 6 25C6.55228 25 7 24.5523 7 24Z" fill="#FF355E"/>
</svg>
