<svg width="32" height="32" viewBox="0 0 32 32" fill="none" xmlns="http://www.w3.org/2000/svg">
<path d="M7 14C7 13.4477 7.44772 13 8 13H24C24.5523 13 25 13.4477 25 14C25 14.5523 24.5523 15 24 15H8C7.44772 15 7 14.5523 7 14Z" fill="#FF355E"/>
<path d="M10 18C10 17.4477 10.4477 17 11 17H24C24.5523 17 25 17.4477 25 18C25 18.5523 24.5523 19 24 19H11C10.4477 19 10 18.5523 10 18Z" fill="#FF355E"/>
<path d="M8 8C6.34315 8 5 9.34315 5 11V21C5 22.6569 6.34315 24 8 24H24C25.6569 24 27 22.6569 27 21V11C27 9.34315 25.6569 8 24 8H8ZM3 11C3 8.23858 5.23858 6 8 6H24C26.7614 6 29 8.23858 29 11V21C29 23.7614 26.7614 26 24 26H8C5.23858 26 3 23.7614 3 21V11Z" fill="#FF355E"/>
</svg>
