<svg width="32" height="32" viewBox="0 0 32 32" fill="none" xmlns="http://www.w3.org/2000/svg">
<path d="M12 7C12 6.44772 12.4477 6 13 6H19C19.5523 6 20 6.44772 20 7C20 7.55228 19.5523 8 19 8H17V24H19C19.5523 24 20 24.4477 20 25C20 25.5523 19.5523 26 19 26H13C12.4477 26 12 25.5523 12 25C12 24.4477 12.4477 24 13 24H15V8H13C12.4477 8 12 7.55228 12 7Z" fill="#FF355E"/>
<path d="M6 12C5.44772 12 5 12.4477 5 13V14C5 14.5523 4.55228 15 4 15C3.44772 15 3 14.5523 3 14V13C3 11.3431 4.34315 10 6 10H7C7.55228 10 8 10.4477 8 11C8 11.5523 7.55228 12 7 12H6Z" fill="#FF355E"/>
<path d="M5 19C5 19.5523 5.44772 20 6 20H7C7.55228 20 8 20.4477 8 21C8 21.5523 7.55228 22 7 22H6C4.34315 22 3 20.6569 3 19V18C3 17.4477 3.44772 17 4 17C4.55228 17 5 17.4477 5 18V19Z" fill="#FF355E"/>
<path d="M9 11C9 10.4477 9.44772 10 10 10H13C13.5523 10 14 10.4477 14 11C14 11.5523 13.5523 12 13 12H10C9.44772 12 9 11.5523 9 11Z" fill="#FF355E"/>
<path d="M10 22C9.44772 22 9 21.5523 9 21C9 20.4477 9.44772 20 10 20H13C13.5523 20 14 20.4477 14 21C14 21.5523 13.5523 22 13 22H10Z" fill="#FF355E"/>
<path d="M26 12C26.5523 12 27 12.4477 27 13V14C27 14.5523 27.4477 15 28 15C28.5523 15 29 14.5523 29 14V13C29 11.3431 27.6569 10 26 10H25C24.4477 10 24 10.4477 24 11C24 11.5523 24.4477 12 25 12H26Z" fill="#FF355E"/>
<path d="M27 19C27 19.5523 26.5523 20 26 20H25C24.4477 20 24 20.4477 24 21C24 21.5523 24.4477 22 25 22H26C27.6569 22 29 20.6569 29 19V18C29 17.4477 28.5523 17 28 17C27.4477 17 27 17.4477 27 18V19Z" fill="#FF355E"/>
<path d="M23 11C23 10.4477 22.5523 10 22 10H19C18.4477 10 18 10.4477 18 11C18 11.5523 18.4477 12 19 12H22C22.5523 12 23 11.5523 23 11Z" fill="#FF355E"/>
<path d="M22 22C22.5523 22 23 21.5523 23 21C23 20.4477 22.5523 20 22 20H19C18.4477 20 18 20.4477 18 21C18 21.5523 18.4477 22 19 22H22Z" fill="#FF355E"/>
</svg>
