<svg width="32" height="32" viewBox="0 0 32 32" fill="none" xmlns="http://www.w3.org/2000/svg">
<path d="M8 7C6.34315 7 5 8.34315 5 10V19H4.8C3.80589 19 3 19.8059 3 20.8C3 23.1196 4.8804 25 7.2 25H13C13.5523 25 14 24.5523 14 24C14 23.4477 13.5523 23 13 23H7.2C6.05239 23 5.11001 22.1213 5.00897 21H14C14.5523 21 15 20.5523 15 20C15 19.4477 14.5523 19 14 19H7V10C7 9.44772 7.44772 9 8 9H24C24.5523 9 25 9.44772 25 10V13C25 13.5523 25.4477 14 26 14C26.5523 14 27 13.5523 27 13V10C27 8.34315 25.6569 7 24 7H8Z" fill="#FF355E"/>
<path d="M25 23.5858V22C25 21.4477 24.5523 21 24 21C23.4477 21 23 21.4477 23 22V23.5858L22.7071 23.2929C22.3166 22.9024 21.6834 22.9024 21.2929 23.2929C20.9024 23.6834 20.9024 24.3166 21.2929 24.7071L23.2929 26.7071C23.6834 27.0976 24.3166 27.0976 24.7071 26.7071L26.7071 24.7071C27.0976 24.3166 27.0976 23.6834 26.7071 23.2929C26.3166 22.9024 25.6834 22.9024 25.2929 23.2929L25 23.5858Z" fill="#FF355E"/>
<path fill-rule="evenodd" clip-rule="evenodd" d="M17 24C17 20.134 20.134 17 24 17C27.866 17 31 20.134 31 24C31 27.866 27.866 31 24 31C20.134 31 17 27.866 17 24ZM24 19C21.2386 19 19 21.2386 19 24C19 26.7614 21.2386 29 24 29C26.7614 29 29 26.7614 29 24C29 21.2386 26.7614 19 24 19Z" fill="#FF355E"/>
</svg>
