<svg width="32" height="32" viewBox="0 0 32 32" fill="none" xmlns="http://www.w3.org/2000/svg">
<path d="M13 13C13 11.3431 14.3431 10 16 10C17.6569 10 19 11.3431 19 13C19 13.8306 18.6624 14.5824 18.117 15.1256C18.6305 15.3655 19.1116 15.6974 19.5355 16.1213L19.7071 16.2929C20.0976 16.6834 20.0976 17.3166 19.7071 17.7071C19.3166 18.0976 18.6834 18.0976 18.2929 17.7071L18.1213 17.5355C16.9497 16.364 15.0503 16.364 13.8787 17.5355L13.7071 17.7071C13.3166 18.0976 12.6834 18.0976 12.2929 17.7071C11.9024 17.3166 11.9024 16.6834 12.2929 16.2929L12.4645 16.1213C12.8884 15.6974 13.3695 15.3655 13.883 15.1256C13.3376 14.5824 13 13.8306 13 13ZM16 12C15.4477 12 15 12.4477 15 13C15 13.5523 15.4477 14 16 14C16.5523 14 17 13.5523 17 13C17 12.4477 16.5523 12 16 12Z" fill="#FF355E"/>
<path d="M8 7C6.34315 7 5 8.34315 5 10V19H4.8C3.80589 19 3 19.8059 3 20.8C3 23.1196 4.88041 25 7.2 25H24.8C27.1196 25 29 23.1196 29 20.8C29 19.8059 28.1941 19 27.2 19H27V10C27 8.34315 25.6569 7 24 7H8ZM5.00897 21H26.991C26.89 22.1213 25.9476 23 24.8 23H7.2C6.05239 23 5.11001 22.1213 5.00897 21ZM25 19H7V10C7 9.44772 7.44772 9 8 9H24C24.5523 9 25 9.44772 25 10V19Z" fill="#FF355E"/>
</svg>
