<svg width="32" height="32" viewBox="0 0 32 32" fill="none" xmlns="http://www.w3.org/2000/svg">
<path d="M16 1C16.5523 1 17 1.44772 17 2V4C17 4.55228 16.5523 5 16 5C15.4477 5 15 4.55228 15 4V2C15 1.44772 15.4477 1 16 1Z" fill="#FF355E"/>
<path fill-rule="evenodd" clip-rule="evenodd" d="M12 24.1711C10.9824 23.3926 10.3333 22.1433 10.3333 20.7619C10.3333 20.3919 10.1679 19.9819 9.84243 19.576C8.68983 18.1382 8 16.2921 8 14.2857C8 9.74772 11.5444 6 16 6C20.4556 6 24 9.74772 24 14.2857C24 16.2921 23.3102 18.1382 22.1576 19.576C21.8321 19.9819 21.6667 20.3919 21.6667 20.7619C21.6667 22.1433 21.0176 23.3926 20 24.1711V26C20 27.6569 18.6569 29 17 29H15C13.3431 29 12 27.6569 12 26V24.1711ZM10 14.2857C10 10.7761 12.7236 8 16 8C19.2764 8 22 10.7761 22 14.2857C22 15.8285 21.4707 17.2352 20.5971 18.325C20.0883 18.9597 19.6667 19.7981 19.6667 20.7619C19.6667 22.0361 18.6842 23 17.5556 23H17V20.4142L18.7071 18.7071C19.0976 18.3166 19.0976 17.6834 18.7071 17.2929C18.3166 16.9024 17.6834 16.9024 17.2929 17.2929L16 18.5858L14.7071 17.2929C14.3166 16.9024 13.6834 16.9024 13.2929 17.2929C12.9024 17.6834 12.9024 18.3166 13.2929 18.7071L15 20.4142V23H14.4444C13.3158 23 12.3333 22.0361 12.3333 20.7619C12.3333 19.7981 11.9117 18.9597 11.4029 18.325C10.5293 17.2352 10 15.8285 10 14.2857ZM18 25V26C18 26.5523 17.5523 27 17 27H15C14.4477 27 14 26.5523 14 26V25H18Z" fill="#FF355E"/>
<path d="M4 13C3.44772 13 3 13.4477 3 14C3 14.5523 3.44772 15 4 15H6C6.55228 15 7 14.5523 7 14C7 13.4477 6.55228 13 6 13H4Z" fill="#FF355E"/>
<path d="M7.70711 4.29289C7.31658 3.90237 6.68342 3.90237 6.29289 4.29289C5.90237 4.68342 5.90237 5.31658 6.29289 5.70711L7.70711 7.12132C8.09763 7.51184 8.7308 7.51184 9.12132 7.12132C9.51184 6.73079 9.51184 6.09763 9.12132 5.70711L7.70711 4.29289Z" fill="#FF355E"/>
<path d="M26.1213 5.70711L24.707 7.12132C24.3165 7.51184 23.6834 7.51184 23.2928 7.12132C22.9023 6.7308 22.9023 6.09763 23.2928 5.70711L24.707 4.29289C25.0976 3.90237 25.7307 3.90237 26.1213 4.29289C26.5118 4.68342 26.5118 5.31658 26.1213 5.70711Z" fill="#FF355E"/>
<path d="M26 13C25.4477 13 25 13.4477 25 14C25 14.5523 25.4477 15 26 15H28C28.5523 15 29 14.5523 29 14C29 13.4477 28.5523 13 28 13H26Z" fill="#FF355E"/>
</svg>
