<svg width="32" height="32" viewBox="0 0 32 32" fill="none" xmlns="http://www.w3.org/2000/svg">
<path d="M4 7C4 5.34315 5.34315 4 7 4H23C24.6569 4 26 5.34315 26 7V14C26 14.5523 25.5523 15 25 15C24.4477 15 24 14.5523 24 14V7C24 6.44772 23.5523 6 23 6H7C6.44772 6 6 6.44772 6 7V24C6 24.5523 6.44772 25 7 25H15C15.5523 25 16 25.4477 16 26C16 26.5523 15.5523 27 15 27H7C5.34315 27 4 25.6569 4 24V7ZM7 9.5C7 8.11929 8.11929 7 9.5 7H12.5C13.8807 7 15 8.11929 15 9.5C15 10.8807 13.8807 12 12.5 12H9.5C8.11929 12 7 10.8807 7 9.5ZM9.5 9C9.22386 9 9 9.22386 9 9.5C9 9.77614 9.22386 10 9.5 10H12.5C12.7761 10 13 9.77614 13 9.5C13 9.22386 12.7761 9 12.5 9H9.5ZM7 15.5C7 14.1193 8.11929 13 9.5 13H12.5C13.8807 13 15 14.1193 15 15.5C15 16.8807 13.8807 18 12.5 18H9.5C8.11929 18 7 16.8807 7 15.5ZM9.5 15C9.22386 15 9 15.2239 9 15.5C9 15.7761 9.22386 16 9.5 16H12.5C12.7761 16 13 15.7761 13 15.5C13 15.2239 12.7761 15 12.5 15H9.5ZM22 18C19.7909 18 18 19.7909 18 22C18 24.2091 19.7909 26 22 26C24.2091 26 26 24.2091 26 22C26 19.7909 24.2091 18 22 18ZM16 22C16 18.6863 18.6863 16 22 16C25.3137 16 28 18.6863 28 22C28 25.3137 25.3137 28 22 28C18.6863 28 16 25.3137 16 22ZM22.0004 18.75C22.5527 18.75 23.0004 19.1977 23.0004 19.75V21H24C24.5523 21 25 21.4477 25 22C25 22.5523 24.5523 23 24 23H22.0004C21.4482 23 21.0004 22.5523 21.0004 22V19.75C21.0004 19.1977 21.4482 18.75 22.0004 18.75ZM7 21.5C7 20.1193 8.11929 19 9.5 19H12.5C13.8807 19 15 20.1193 15 21.5C15 22.8807 13.8807 24 12.5 24H9.5C8.11929 24 7 22.8807 7 21.5ZM9.5 21C9.22386 21 9 21.2239 9 21.5C9 21.7761 9.22386 22 9.5 22H12.5C12.7761 22 13 21.7761 13 21.5C13 21.2239 12.7761 21 12.5 21H9.5Z" fill="#FF355E"/>
</svg>
