<svg width="32" height="32" viewBox="0 0 32 32" fill="none" xmlns="http://www.w3.org/2000/svg">
<path d="M9.63098 7.67577C13.1468 4.10808 18.8532 4.10808 22.369 7.67577C24.1045 9.43686 24.9992 11.7696 25 14.1175C25.0002 14.6698 24.5526 15.1176 24.0003 15.1178C23.448 15.118 23.0002 14.6704 23 14.1182C22.9994 12.2748 22.2972 10.4522 20.9445 9.07959C18.212 6.3068 13.788 6.3068 11.0555 9.07959C8.7224 11.4471 8.32825 15.1514 10.1154 17.9725C11.4138 20.022 13.4355 22.7327 14.7032 24.3932C15.0383 24.8321 14.9542 25.4597 14.5152 25.7948C14.0762 26.13 13.4487 26.0458 13.1135 25.6068C11.8459 23.9466 9.77596 21.1739 8.42592 19.0429C6.14304 15.4393 6.64194 10.7089 9.63098 7.67577Z" fill="#FF355E"/>
<path fill-rule="evenodd" clip-rule="evenodd" d="M12 14C12 11.7909 13.7909 10 16 10C18.2091 10 20 11.7909 20 14C20 16.2091 18.2091 18 16 18C13.7909 18 12 16.2091 12 14ZM16 12C14.8954 12 14 12.8954 14 14C14 15.1046 14.8954 16 16 16C17.1046 16 18 15.1046 18 14C18 12.8954 17.1046 12 16 12Z" fill="#FF355E"/>
<path fill-rule="evenodd" clip-rule="evenodd" d="M25.8741 18.2186C24.7784 17.3421 23.2216 17.3421 22.1259 18.2186L19.1259 20.6186C18.4143 21.188 18 22.0499 18 22.9612V27C18 28.6569 19.3431 30 21 30H22C22.8284 30 23.5 29.3284 23.5 28.5V26.5C23.5 26.2239 23.7239 26 24 26C24.2761 26 24.5 26.2239 24.5 26.5V28.5C24.5 29.3284 25.1716 30 26 30H27C28.6569 30 30 28.6569 30 27L30 22.9612C30 22.0499 29.5857 21.188 28.8741 20.6186L25.8741 18.2186ZM23.3753 19.7804C23.7405 19.4882 24.2595 19.4882 24.6247 19.7804L27.6247 22.1804C27.8619 22.3702 28 22.6575 28 22.9612L28 27C28 27.5523 27.5523 28 27 28H26.5V26.5C26.5 25.1193 25.3807 24 24 24C22.6193 24 21.5 25.1193 21.5 26.5V28H21C20.4477 28 20 27.5523 20 27V22.9612C20 22.6575 20.1381 22.3702 20.3753 22.1804L23.3753 19.7804Z" fill="#FF355E"/>
</svg>
