<svg width="32" height="32" viewBox="0 0 32 32" fill="none" xmlns="http://www.w3.org/2000/svg">
<path d="M22.369 7.67577C18.8532 4.10808 13.1468 4.10808 9.63098 7.67577C6.64194 10.7089 6.14304 15.4393 8.42592 19.0429C9.77596 21.1739 11.8459 23.9466 13.1135 25.6068C13.4487 26.0458 14.0762 26.13 14.5152 25.7948C14.9542 25.4597 15.0383 24.8321 14.7032 24.3932C13.4355 22.7327 11.4138 20.022 10.1154 17.9725C8.32825 15.1514 8.7224 11.4471 11.0555 9.07959C13.788 6.3068 18.212 6.3068 20.9445 9.07959C22.2972 10.4522 22.9994 12.2748 23 14.1182C23.0002 14.6704 23.448 15.118 24.0003 15.1178C24.5526 15.1176 25.0002 14.6698 25 14.1175C24.9992 11.7696 24.1045 9.43686 22.369 7.67577Z" fill="#FF355E"/>
<path fill-rule="evenodd" clip-rule="evenodd" d="M12 14C12 11.7909 13.7909 10 16 10C18.2091 10 20 11.7909 20 14C20 16.2091 18.2091 18 16 18C13.7909 18 12 16.2091 12 14ZM16 12C14.8954 12 14 12.8954 14 14C14 15.1046 14.8954 16 16 16C17.1046 16 18 15.1046 18 14C18 12.8954 17.1046 12 16 12Z" fill="#FF355E"/>
<path d="M25 22C25 21.4477 24.5523 21 24 21C23.4477 21 23 21.4477 23 22V23H22C21.4477 23 21 23.4477 21 24C21 24.5523 21.4477 25 22 25H23V26C23 26.5523 23.4477 27 24 27C24.5523 27 25 26.5523 25 26V25H26C26.5523 25 27 24.5523 27 24C27 23.4477 26.5523 23 26 23H25V22Z" fill="#FF355E"/>
<path fill-rule="evenodd" clip-rule="evenodd" d="M17 24C17 20.134 20.134 17 24 17C27.866 17 31 20.134 31 24C31 27.866 27.866 31 24 31C20.134 31 17 27.866 17 24ZM24 19C21.2386 19 19 21.2386 19 24C19 26.7614 21.2386 29 24 29C26.7614 29 29 26.7614 29 24C29 21.2386 26.7614 19 24 19Z" fill="#FF355E"/>
</svg>
