<svg width="32" height="32" viewBox="0 0 32 32" fill="none" xmlns="http://www.w3.org/2000/svg">
<path d="M8.37843 22.4266C6.91364 20.6913 6.03077 18.4487 6.03077 16C6.03077 10.4941 10.4941 6.03077 16 6.03077C21.5059 6.03077 25.9692 10.4941 25.9692 16C25.9692 18.4487 25.0863 20.6913 23.6216 22.4266C24.1255 22.7415 24.6085 23.0866 25.068 23.4595L25.2687 23.6223C26.9752 21.5495 28 18.8945 28 16C28 9.37258 22.6274 4 16 4C9.37259 4 4 9.37258 4 16C4 18.8945 5.02477 21.5495 6.7313 23.6223L6.932 23.4595C7.39143 23.0866 7.87445 22.7415 8.37843 22.4266Z" fill="#FF355E"/>
<path d="M23.5558 25.3231C21.4929 26.997 18.8636 28 16 28C13.1364 28 10.5071 26.997 8.44424 25.3231C10.5071 23.6492 13.1364 22.6461 16 22.6461C18.8636 22.6461 21.4929 23.6492 23.5558 25.3231Z" fill="#FF355E"/>
<path d="M16 20.0615C18.4471 20.0615 20.4308 18.0778 20.4308 15.6308C20.4308 13.1837 18.4471 11.2 16 11.2C13.5529 11.2 11.5692 13.1837 11.5692 15.6308C11.5692 18.0778 13.5529 20.0615 16 20.0615Z" fill="#FF355E"/>
</svg>
