<svg width="32" height="32" viewBox="0 0 32 32" fill="none" xmlns="http://www.w3.org/2000/svg">
<path fill-rule="evenodd" clip-rule="evenodd" d="M16 3.037C15.9661 3.00955 15.9312 2.98204 15.8951 2.95457C15.2528 2.46517 14.2786 2 12.9375 2C10.6548 2 8 4.14266 8 7.28571C8 8.62362 8.54219 9.8943 9.25329 10.9972C9.96949 12.1081 10.9069 13.1261 11.8156 13.9791C12.728 14.8356 13.6362 15.5488 14.3142 16.047C14.654 16.2966 14.9382 16.4939 15.139 16.6297C15.2394 16.6976 15.3191 16.7502 15.3746 16.7865C15.4024 16.8046 15.4241 16.8187 15.4394 16.8285L15.4574 16.84L15.4626 16.8433L15.4643 16.8444C15.4643 16.8444 15.4654 16.8451 16 16L15.4654 16.8451C15.7919 17.0516 16.2081 17.0516 16.5346 16.8451C16.5346 16.8451 16.5346 16.8451 16 16L16.5346 16.8451L16.5374 16.8433L16.5426 16.84L16.5606 16.8285C16.5759 16.8187 16.5976 16.8046 16.6254 16.7865C16.6809 16.7502 16.7606 16.6976 16.861 16.6297C17.0618 16.4939 17.346 16.2966 17.6858 16.047C18.3638 15.5488 19.272 14.8356 20.1844 13.9791C21.0931 13.1261 22.0305 12.1081 22.7467 10.9972C23.4578 9.8943 24 8.62362 24 7.28571C24 5.95087 23.4599 4.64807 22.6005 3.67667C21.7381 2.70182 20.4958 2 19.0625 2C17.7214 2 16.7472 2.46517 16.1049 2.95457C16.0688 2.98204 16.0339 3.00955 16 3.037ZM12.9375 4C11.7202 4 10 5.28591 10 7.28571C10 8.09066 10.3328 8.9807 10.9342 9.91348C11.5305 10.8384 12.3431 11.7311 13.1844 12.5209C14.022 13.3072 14.8638 13.969 15.4983 14.4352C15.6864 14.5734 15.8555 14.6938 16 14.7946C16.1445 14.6938 16.3136 14.5734 16.5017 14.4352C17.1362 13.969 17.978 13.3072 18.8156 12.5209C19.6569 11.7311 20.4695 10.8384 21.0658 9.91348C21.6672 8.9807 22 8.09066 22 7.28571C22 6.4777 21.6651 5.63764 21.1026 5.0019C20.5432 4.36961 19.8167 4 19.0625 4C18.2161 4 17.659 4.28483 17.317 4.54543C17.1414 4.67922 17.0177 4.81075 16.9417 4.90264C16.904 4.94831 16.8789 4.98316 16.8659 5.00208C16.8612 5.00899 16.8581 5.01369 16.8566 5.01593C16.6759 5.31602 16.351 5.5 16 5.5C15.649 5.5 15.3241 5.31602 15.1434 5.01593C15.1419 5.01369 15.1388 5.00899 15.1341 5.00208C15.1211 4.98316 15.096 4.94831 15.0583 4.90264C14.9823 4.81075 14.8586 4.67922 14.683 4.54543C14.341 4.28483 13.7839 4 12.9375 4Z" fill="#FF355E"/>
<path d="M5 13C4.44772 13 4 13.4477 4 14V19.2721C4 21.3938 4.84285 23.4286 6.34315 24.9289L7.70711 26.2929C8.09763 26.6834 8.09763 27.3166 7.70711 27.7071C7.31658 28.0976 6.68342 28.0976 6.29289 27.7071L4.92893 26.3431C3.05357 24.4678 2 21.9242 2 19.2721V14C2 12.3431 3.34315 11 5 11C6.65685 11 8 12.3431 8 14V16.0439C9.77168 16.2324 11.4356 17.0214 12.7071 18.2929C14.1752 19.761 15 21.7522 15 23.8284V27C15 27.5523 14.5523 28 14 28C13.4477 28 13 27.5523 13 27V23.8284C13 22.2826 12.3859 20.8001 11.2929 19.7071C10.446 18.8602 9.36522 18.3008 8.20237 18.0919C8.42326 18.7051 8.86437 19.4502 9.70711 20.2929C10.0976 20.6834 10.0976 21.3166 9.70711 21.7071C9.31658 22.0976 8.68342 22.0976 8.29289 21.7071C6.5322 19.9464 6 18.3009 6 17V14C6 13.4477 5.55228 13 5 13Z" fill="#FF355E"/>
<path d="M28 14C28 13.4477 27.5523 13 27 13C26.4477 13 26 13.4477 26 14V17C26 18.3009 25.4678 19.9464 23.7071 21.7071C23.3166 22.0976 22.6834 22.0976 22.2929 21.7071C21.9024 21.3166 21.9024 20.6834 22.2929 20.2929C23.1356 19.4502 23.5767 18.7051 23.7976 18.0919C22.6348 18.3008 21.554 18.8602 20.7071 19.7071C19.6141 20.8001 19 22.2826 19 23.8284V27C19 27.5523 18.5523 28 18 28C17.4477 28 17 27.5523 17 27V23.8284C17 21.7522 17.8248 19.761 19.2929 18.2929C20.5644 17.0214 22.2283 16.2324 24 16.0439V14C24 12.3431 25.3431 11 27 11C28.6569 11 30 12.3431 30 14V19.2721C30 21.9242 28.9464 24.4678 27.0711 26.3431L25.7071 27.7071C25.3166 28.0976 24.6834 28.0976 24.2929 27.7071C23.9024 27.3166 23.9024 26.6834 24.2929 26.2929L25.6569 24.9289C27.1571 23.4286 28 21.3938 28 19.2721V14Z" fill="#FF355E"/>
</svg>
