<svg width="32" height="32" viewBox="0 0 32 32" fill="none" xmlns="http://www.w3.org/2000/svg">
<path d="M8 6H17.5V11C17.5 11.663 17.7634 12.2989 18.2322 12.7678C18.7011 13.2366 19.337 13.5 20 13.5H25V26C25 26.1326 24.9473 26.2598 24.8536 26.3536C24.7598 26.4473 24.6326 26.5 24.5 26.5H8C7.86739 26.5 7.74022 26.4473 7.64645 26.3536C7.55268 26.2598 7.5 26.1326 7.5 26V6.5C7.5 6.36739 7.55268 6.24021 7.64645 6.14645C7.74021 6.05268 7.86739 6 8 6ZM8 4C7.33696 4 6.70107 4.26339 6.23223 4.73223C5.76339 5.20107 5.5 5.83696 5.5 6.5V26C5.5 26.663 5.76339 27.2989 6.23223 27.7678C6.70107 28.2366 7.33696 28.5 8 28.5H24.5C25.163 28.5 25.7989 28.2366 26.2678 27.7678C26.7366 27.2989 27 26.663 27 26V12.371C26.9999 11.7084 26.7367 11.0728 26.2683 10.6041L20.3961 4.73189C19.9274 4.26353 19.2918 4.00014 18.6292 4H8ZM19.5 6.66421L24.3358 11.5H20C19.8674 11.5 19.7402 11.4473 19.6464 11.3536C19.5527 11.2598 19.5 11.1326 19.5 11V6.66421ZM11.75 6.25C12.3023 6.25 12.75 6.69772 12.75 7.25V7.41041C12.9079 7.45691 13.0624 7.51559 13.2123 7.58615C13.6814 7.80708 14.0902 8.138 14.4041 8.55079C14.7383 8.99044 14.6529 9.61781 14.2132 9.95206C13.7736 10.2863 13.1462 10.2009 12.8119 9.76121C12.693 9.60473 12.538 9.47929 12.3602 9.39554C12.1823 9.3118 11.9869 9.27222 11.7905 9.28018C11.777 9.28073 11.7635 9.281 11.75 9.281C11.3758 9.281 11.0758 9.39593 10.8919 9.53384C10.7085 9.67142 10.688 9.78549 10.688 9.828C10.688 9.87068 10.7087 9.98509 10.8923 10.1229C11.0762 10.261 11.3761 10.376 11.75 10.376C12.5148 10.376 13.2458 10.607 13.8082 11.0285C14.371 11.4501 14.813 12.1092 14.813 12.922C14.813 13.7346 14.3711 14.3939 13.8086 14.8158C13.4993 15.0477 13.139 15.2221 12.75 15.3321V15.5C12.75 16.0523 12.3023 16.5 11.75 16.5C11.1977 16.5 10.75 16.0523 10.75 15.5V15.3396C10.5921 15.2931 10.4376 15.2344 10.2877 15.1639C9.81861 14.9429 9.40976 14.612 9.09594 14.1992C8.76169 13.7596 8.84713 13.1322 9.28679 12.7979C9.72644 12.4637 10.3538 12.5491 10.6881 12.9888C10.807 13.1453 10.962 13.2707 11.1398 13.3545C11.3177 13.4382 11.5131 13.4778 11.7095 13.4698C11.723 13.4693 11.7365 13.469 11.75 13.469C12.1239 13.469 12.4243 13.354 12.6087 13.2157C12.7929 13.0776 12.813 12.9634 12.813 12.922C12.813 12.8808 12.793 12.7669 12.609 12.629C12.4247 12.491 12.1242 12.376 11.75 12.376C10.9849 12.376 10.2538 12.1445 9.69149 11.7223C9.12882 11.2999 8.688 10.6403 8.688 9.828C8.688 9.01551 9.12899 8.35608 9.69183 7.93391C10.001 7.70197 10.3612 7.5277 10.75 7.4178V7.25C10.75 6.69772 11.1977 6.25 11.75 6.25ZM10.5 19.5H13V20.5H10.5V19.5ZM10 17.5C9.17157 17.5 8.5 18.1716 8.5 19V24C8.5 24.8284 9.17157 25.5 10 25.5H22.5C23.3284 25.5 24 24.8284 24 24V19C24 18.1716 23.3284 17.5 22.5 17.5H10ZM15 19.5H17.5V20.5H15V19.5ZM19.5 19.5H22V20.5H19.5V19.5ZM22 22.5V23.5H19.5V22.5H22ZM17.5 23.5H15V22.5H17.5V23.5ZM13 23.5H10.5V22.5H13V23.5Z" fill="#FF355E"/>
</svg>
