<svg width="32" height="32" viewBox="0 0 32 32" fill="none" xmlns="http://www.w3.org/2000/svg">
<path d="M15 14C15 13.4477 15.4477 13 16 13C16.5523 13 17 13.4477 17 14H18C18.5523 14 19 14.4477 19 15C19 15.5523 18.5523 16 18 16H15.5C15.2239 16 15 16.2239 15 16.5C15 16.7761 15.2239 17 15.5 17H16.5C17.8807 17 19 18.1193 19 19.5C19 20.7099 18.1405 21.7191 16.9988 21.9502C16.9996 21.9667 17 21.9833 17 22C17 22.5523 16.5523 23 16 23C15.4477 23 15 22.5523 15 22L14 22C13.4477 22 13 21.5523 13 21C13 20.4477 13.4477 20 14 20H16.5C16.7761 20 17 19.7761 17 19.5C17 19.2239 16.7761 19 16.5 19H15.5C14.1193 19 13 17.8807 13 16.5C13 15.2901 13.8595 14.2809 15.0012 14.0498C15.0004 14.0333 15 14.0167 15 14Z" fill="#FF355E"/>
<path fill-rule="evenodd" clip-rule="evenodd" d="M13 6C12.4477 6 12 6.44772 12 7C12 8.17219 12.5042 9.22662 13.3076 9.95823C12.5423 10.2434 11.8746 10.6513 11.2974 11.1526C10.1432 12.155 9.40825 13.4798 8.93468 14.7884C7.99985 17.3716 7.99996 20.1372 8 20.9847L8 21C8 21.9341 8.24733 22.7603 8.72585 23.4569C9.19881 24.1453 9.85977 24.6527 10.6078 25.0218C12.0788 25.7476 14.0111 26 16 26C17.9889 26 19.9212 25.7476 21.3922 25.0218C22.1402 24.6527 22.8012 24.1453 23.2742 23.4569C23.7527 22.7603 24 21.9341 24 21V20.9847C24 20.1372 24.0002 17.3716 23.0653 14.7884C22.5918 13.4798 21.8568 12.155 20.7026 11.1526C20.1254 10.6513 19.4577 10.2434 18.6924 9.95823C19.4958 9.22662 20 8.17219 20 7C20 6.44772 19.5523 6 19 6H13ZM16 9C15.2597 9 14.6134 8.5978 14.2676 8H17.7324C17.3866 8.5978 16.7403 9 16 9ZM10.8153 15.469C10.0059 17.7057 10 20.1722 10 21C10 21.5659 10.1444 21.9897 10.3743 22.3244C10.6098 22.6672 10.974 22.9723 11.4927 23.2282C12.5552 23.7524 14.123 24 16 24C17.8771 24 19.4448 23.7524 20.5073 23.2282C21.026 22.9723 21.3902 22.6672 21.6257 22.3244C21.8556 21.9897 22 21.5659 22 21C22 20.1722 21.9941 17.7057 21.1847 15.469C20.7833 14.3597 20.2057 13.3701 19.3912 12.6626C18.5961 11.9721 17.519 11.5 16 11.5C14.481 11.5 13.4039 11.9721 12.6088 12.6626C11.7943 13.3701 11.2168 14.3597 10.8153 15.469Z" fill="#FF355E"/>
<path d="M5.34847 8C5.34847 7.44772 5.79619 7 6.34847 7H10C10.5523 7 11 7.44772 11 8C11 8.55228 10.5523 9 10 9H7.63281C7.70254 9.11892 7.78302 9.23268 7.87186 9.34107C8.1926 9.73238 8.57833 9.99689 8.79569 10.1056C9.2105 10.313 9.42828 10.7784 9.32172 11.2298C9.21517 11.6811 8.81225 12 8.34847 12C7.43712 12 6.69088 12.3975 6.05716 13.0945C5.40631 13.8105 4.90134 14.8201 4.55205 15.9261C4.20498 17.0252 4.0326 18.1532 4.00422 19.0474C3.98998 19.4959 4.0129 19.8585 4.05675 20.1142C4.07865 20.242 4.10083 20.314 4.11224 20.3471C4.64675 20.836 5.47449 21 6 21C6.55229 21 7 21.4477 7 22C7 22.5523 6.55229 23 6 23C5.21114 23 3.71029 22.776 2.64136 21.7071C2.27961 21.3454 2.14826 20.8182 2.08551 20.4522C2.01217 20.0244 1.98821 19.5198 2.00523 18.9839C2.03934 17.9093 2.24196 16.5998 2.64489 15.3239C3.04561 14.0549 3.66563 12.752 4.57728 11.7492C5.0446 11.2352 5.59419 10.7956 6.22732 10.4856C5.74964 9.86262 5.34847 9.02281 5.34847 8Z" fill="#FF355E"/>
<path d="M25.6515 7C26.2038 7 26.6515 7.44772 26.6515 8C26.6515 9.02281 26.2504 9.86262 25.7727 10.4856C26.4058 10.7956 26.9554 11.2352 27.4227 11.7492C28.3344 12.752 28.9544 14.0549 29.3551 15.3239C29.758 16.5998 29.9607 17.9093 29.9948 18.9839C30.0118 19.5198 29.9878 20.0244 29.9145 20.4522C29.8517 20.8182 29.7204 21.3454 29.3586 21.7071C28.2897 22.776 26.7889 23 26 23C25.4477 23 25 22.5523 25 22C25 21.4477 25.4477 21 26 21C26.5255 21 27.3532 20.836 27.8878 20.3471C27.8992 20.314 27.9213 20.242 27.9433 20.1142C27.9871 19.8585 28.01 19.4959 27.9958 19.0474C27.9674 18.1532 27.795 17.0252 27.4479 15.9261C27.0987 14.8201 26.5937 13.8105 25.9428 13.0945C25.3091 12.3975 24.5629 12 23.6515 12C23.1878 12 22.7848 11.6811 22.6783 11.2298C22.5717 10.7784 22.7895 10.313 23.2043 10.1056C23.4217 9.99689 23.8074 9.73238 24.1281 9.34107C24.217 9.23268 24.2975 9.11892 24.3672 9H22C21.4477 9 21 8.55228 21 8C21 7.44772 21.4477 7 22 7H25.6515Z" fill="#FF355E"/>
</svg>
