<svg width="32" height="32" viewBox="0 0 32 32" fill="none" xmlns="http://www.w3.org/2000/svg">
<path d="M10 14C9.44772 14 9 14.4477 9 15C9 15.5523 9.44772 16 10 16C10.5523 16 11 15.5523 11 15C11 14.4477 10.5523 14 10 14Z" fill="#FF355E"/>
<path d="M19 15C19 14.4477 19.4477 14 20 14C20.5523 14 21 14.4477 21 15C21 15.5523 20.5523 16 20 16C19.4477 16 19 15.5523 19 15Z" fill="#FF355E"/>
<path d="M16 11C16 10.4477 15.5523 10 15 10C14.4477 10 14 10.4477 14 11V11.05C12.8589 11.2816 12 12.2905 12 13.5C12 14.8807 13.1193 16 14.5 16H15.5C15.7761 16 16 16.2239 16 16.5C16 16.7761 15.7761 17 15.5 17H13C12.4477 17 12 17.4477 12 18C12 18.5523 12.4477 19 13 19H14C14 19.5523 14.4477 20 15 20C15.5523 20 16 19.5523 16 19V18.95C17.1411 18.7184 18 17.7095 18 16.5C18 15.1193 16.8807 14 15.5 14H14.5C14.2239 14 14 13.7761 14 13.5C14 13.2239 14.2239 13 14.5 13H17C17.5523 13 18 12.5523 18 12C18 11.4477 17.5523 11 17 11H16Z" fill="#FF355E"/>
<path d="M4 10C4 7.79086 5.79086 6 8 6H22C24.2091 6 26 7.79086 26 10V20C26 22.2091 24.2091 24 22 24H8C5.79086 24 4 22.2091 4 20V10ZM8 8C6.89543 8 6 8.89543 6 10V20C6 21.1046 6.89543 22 8 22H22C23.1046 22 24 21.1046 24 20V10C24 8.89543 23.1046 8 22 8H8Z" fill="#FF355E"/>
<path d="M28 13C28.5523 13 29 13.4477 29 14V20C29 23.866 25.866 27 22 27H12C11.4477 27 11 26.5523 11 26C11 25.4477 11.4477 25 12 25H22C24.7614 25 27 22.7614 27 20V14C27 13.4477 27.4477 13 28 13Z" fill="#FF355E"/>
</svg>
