<svg width="32" height="32" viewBox="0 0 32 32" fill="none" xmlns="http://www.w3.org/2000/svg">
<path d="M5 10C5 8.34315 6.34315 7 8 7H24C25.6569 7 27 8.34315 27 10V10.5C27 11.0523 26.5523 11.5 26 11.5C25.4477 11.5 25 11.0523 25 10.5V10C25 9.44772 24.5523 9 24 9H8C7.44772 9 7 9.44772 7 10V19H17.5C18.0523 19 18.5 19.4477 18.5 20C18.5 20.5523 18.0523 21 17.5 21H5.00897C5.11001 22.1213 6.05239 23 7.2 23H16C16.5523 23 17 23.4477 17 24C17 24.5523 16.5523 25 16 25H7.2C4.8804 25 3 23.1196 3 20.8C3 19.8059 3.80589 19 4.8 19H5V10Z" fill="#FF355E"/>
<path fill-rule="evenodd" clip-rule="evenodd" d="M27 15C27 14.5643 26.7178 14.1787 26.3025 14.0469C25.8872 13.915 25.4343 14.0673 25.183 14.4233L19.183 22.9233C18.9676 23.2285 18.9402 23.6284 19.1121 23.9601C19.284 24.2918 19.6264 24.5 20 24.5H23V29C23 29.4247 23.2682 29.803 23.669 29.9436C24.0697 30.0842 24.5156 29.9563 24.7809 29.6247L30.7809 22.1247C31.021 21.8245 31.0678 21.4133 30.9013 21.0668C30.7348 20.7203 30.3844 20.5 30 20.5H27V15ZM24 22.5H21.9299L25 18.1507V21.5C25 22.0523 25.4477 22.5 26 22.5H27.9194L25 26.1492V23.5C25 22.9477 24.5523 22.5 24 22.5Z" fill="#FF355E"/>
</svg>
