<svg width="32" height="32" viewBox="0 0 32 32" fill="none" xmlns="http://www.w3.org/2000/svg">
<path d="M10 8C9.44772 8 9 8.44772 9 9C9 9.55228 9.44772 10 10 10H15C15.5523 10 16 9.55228 16 9C16 8.44772 15.5523 8 15 8H10Z" fill="#FF355E"/>
<path d="M9 14C9 13.4477 9.44772 13 10 13H15C15.5523 13 16 13.4477 16 14C16 14.5523 15.5523 15 15 15H10C9.44772 15 9 14.5523 9 14Z" fill="#FF355E"/>
<path d="M9 19C9 18.4477 9.44772 18 10 18H15C15.5523 18 16 18.4477 16 19C16 19.5523 15.5523 20 15 20H10C9.44772 20 9 19.5523 9 19Z" fill="#FF355E"/>
<path fill-rule="evenodd" clip-rule="evenodd" d="M28 29C28.5523 29 29 28.5523 29 28C29 27.4477 28.5523 27 28 27H27V12C27 9.23858 24.7614 7 22 7H19.9C19.4367 4.71776 17.419 3 15 3H10C7.23858 3 5 5.23858 5 8V27H4C3.44772 27 3 27.4477 3 28C3 28.5523 3.44772 29 4 29H28ZM7 8C7 6.34315 8.34315 5 10 5H15C16.6569 5 18 6.34315 18 8V27H14.5L14.5 24.5C14.5 23.6716 13.8284 23 13 23H12C11.1716 23 10.5 23.6716 10.5 24.5V27H7V8ZM20 20H22C22.5523 20 23 19.5523 23 19C23 18.4477 22.5523 18 22 18H20V15H22C22.5523 15 23 14.5523 23 14C23 13.4477 22.5523 13 22 13H20V9H22C23.6569 9 25 10.3431 25 12V27H22V25.5C22 24.6716 21.3284 24 20.5 24H20V20Z" fill="#FF355E"/>
</svg>
