<svg width="32" height="32" viewBox="0 0 32 32" fill="none" xmlns="http://www.w3.org/2000/svg">
<path fill-rule="evenodd" clip-rule="evenodd" d="M5 8C5 5.79086 6.79086 4 9 4C10.8638 4 12.4299 5.27477 12.874 7H13C15.2091 7 17 8.79086 17 11C17 12.1046 17.8954 13 19 13H19.126C19.5701 11.2748 21.1362 10 23 10C25.2091 10 27 11.7909 27 14C27 16.2091 25.2091 18 23 18C21.1362 18 19.5701 16.7252 19.126 15H19C18.2714 15 17.5883 14.8052 17 14.4649V21C17 22.1046 17.8954 23 19 23H19.126C19.5701 21.2748 21.1362 20 23 20C25.2091 20 27 21.7909 27 24C27 26.2091 25.2091 28 23 28C21.1362 28 19.5701 26.7252 19.126 25H19C16.7909 25 15 23.2091 15 21V11C15 9.89543 14.1046 9 13 9H12.874C12.4299 10.7252 10.8638 12 9 12C6.79086 12 5 10.2091 5 8ZM21 24C21 25.1046 21.8954 26 23 26C24.1046 26 25 25.1046 25 24C25 22.8954 24.1046 22 23 22C21.8954 22 21 22.8954 21 24ZM23 16C21.8954 16 21 15.1046 21 14C21 12.8954 21.8954 12 23 12C24.1046 12 25 12.8954 25 14C25 15.1046 24.1046 16 23 16ZM9 6C10.1046 6 11 6.89543 11 8C11 9.10457 10.1046 10 9 10C7.89543 10 7 9.10457 7 8C7 6.89543 7.89543 6 9 6Z" fill="#FF355E"/>
</svg>
