<svg width="32" height="32" viewBox="0 0 32 32" fill="none" xmlns="http://www.w3.org/2000/svg">
<path d="M9 11C9 11.5523 9.44772 12 10 12H17C17.5523 12 18 11.5523 18 11C18 10.4477 17.5523 10 17 10H10C9.44772 10 9 10.4477 9 11Z" fill="#FF355E"/>
<path d="M9 16C9 16.5523 9.44772 17 10 17H17C17.5523 17 18 16.5523 18 16C18 15.4477 17.5523 15 17 15H10C9.44772 15 9 15.4477 9 16Z" fill="#FF355E"/>
<path d="M9 21C9 21.5523 9.44772 22 10 22H17C17.5523 22 18 21.5523 18 21C18 20.4477 17.5523 20 17 20H10C9.44772 20 9 20.4477 9 21Z" fill="#FF355E"/>
<path d="M23 8C23 5.23858 20.7614 3 18 3H9C6.23858 3 4 5.23858 4 8V23C4 26.3137 6.68629 29 10 29H24.5C26.433 29 28 27.433 28 25.5V11C28 9.34315 26.6569 8 25 8L23 8ZM9 5H18C19.6569 5 21 6.34315 21 8V25.5C21 26.0368 21.1208 26.5454 21.3368 27H10C7.79086 27 6 25.2091 6 23V8C6 6.34315 7.34315 5 9 5ZM23 25.5V10H25C25.5523 10 26 10.4477 26 11V25.5C26 26.3284 25.3284 27 24.5 27C23.6716 27 23 26.3284 23 25.5Z" fill="#FF355E"/>
<path fill-rule="evenodd" clip-rule="evenodd" d="M10 10C9.44772 10 9 10.4477 9 11C9 11.5523 9.44772 12 10 12H17C17.5523 12 18 11.5523 18 11C18 10.4477 17.5523 10 17 10H10ZM10 15C9.44772 15 9 15.4477 9 16C9 16.5523 9.44772 17 10 17H17C17.5523 17 18 16.5523 18 16C18 15.4477 17.5523 15 17 15H10ZM10 20C9.44772 20 9 20.4477 9 21C9 21.5523 9.44772 22 10 22H17C17.5523 22 18 21.5523 18 21C18 20.4477 17.5523 20 17 20H10Z" fill="#FF355E"/>
</svg>
