<svg width="32" height="32" viewBox="0 0 32 32" fill="none" xmlns="http://www.w3.org/2000/svg">
<path fill-rule="evenodd" clip-rule="evenodd" d="M20.5 4C20.5 3.44772 20.0523 3 19.5 3C18.9477 3 18.5 3.44772 18.5 4C18.5 4.82843 17.8284 5.5 17 5.5C16.4477 5.5 16 5.94772 16 6.5C16 7.05228 16.4477 7.5 17 7.5C17.8284 7.5 18.5 8.17157 18.5 9C18.5 9.55228 18.9477 10 19.5 10C20.0523 10 20.5 9.55228 20.5 9C20.5 8.17157 21.1716 7.5 22 7.5C22.5523 7.5 23 7.05228 23 6.5C23 5.94772 22.5523 5.5 22 5.5C21.1716 5.5 20.5 4.82843 20.5 4ZM19.4495 6.5C19.4665 6.48334 19.4833 6.4665 19.5 6.44949C19.5167 6.4665 19.5335 6.48334 19.5505 6.5C19.5335 6.51666 19.5167 6.5335 19.5 6.55051C19.4833 6.5335 19.4665 6.51666 19.4495 6.5Z" fill="#FF355E"/>
<path fill-rule="evenodd" clip-rule="evenodd" d="M13.3529 5.27403C13.832 5.70393 14.1083 6.36481 14.0435 7.05993C14.0147 7.36916 14 7.68272 14 8C14 13.5228 18.4772 18 24 18C24.3173 18 24.6308 17.9853 24.9401 17.9565C25.6352 17.8917 26.2961 18.168 26.726 18.6471C27.1715 19.1437 27.3844 19.89 27.0702 20.6389C25.257 24.9611 20.9845 28 16 28C9.37258 28 4 22.6274 4 16C4 11.0155 7.03887 6.743 11.3611 4.92982C12.11 4.61565 12.8563 4.82851 13.3529 5.27403ZM12.0455 6.81206C8.48765 8.34557 6 11.8834 6 16C6 21.5229 10.4772 26 16 26C20.1166 26 23.6544 23.5123 25.1879 19.9545C25.1688 19.9484 25.1477 19.9458 25.1255 19.9478C24.7547 19.9824 24.3793 20 24 20C17.3726 20 12 14.6274 12 8C12 7.62072 12.0176 7.24529 12.0522 6.8745C12.0542 6.85226 12.0516 6.83117 12.0455 6.81206Z" fill="#FF355E"/>
<path fill-rule="evenodd" clip-rule="evenodd" d="M25.5 9C26.0523 9 26.5 9.44772 26.5 10C26.5 10.8284 27.1716 11.5 28 11.5C28.5523 11.5 29 11.9477 29 12.5C29 13.0523 28.5523 13.5 28 13.5C27.1716 13.5 26.5 14.1716 26.5 15C26.5 15.5523 26.0523 16 25.5 16C24.9477 16 24.5 15.5523 24.5 15C24.5 14.1716 23.8284 13.5 23 13.5C22.4477 13.5 22 13.0523 22 12.5C22 11.9477 22.4477 11.5 23 11.5C23.8284 11.5 24.5 10.8284 24.5 10C24.5 9.44772 24.9477 9 25.5 9ZM25.5 12.4495C25.4833 12.4665 25.4665 12.4833 25.4495 12.5C25.4665 12.5167 25.4833 12.5335 25.5 12.5505C25.5167 12.5335 25.5335 12.5167 25.5505 12.5C25.5335 12.4833 25.5167 12.4665 25.5 12.4495Z" fill="#FF355E"/>
</svg>
