<svg width="32" height="32" viewBox="0 0 32 32" fill="none" xmlns="http://www.w3.org/2000/svg">
<path d="M7 5C5.89543 5 5 5.89543 5 7V26C5 27.1046 5.89543 28 7 28H26C27.1046 28 28 27.1046 28 26V20V13V7C28 5.89543 27.1046 5 26 5H7ZM25.5 7C25.7761 7 26 7.22386 26 7.5V12L21 12V7H25.5ZM7 7.5C7 7.22386 7.22386 7 7.5 7H12V12L7 12L7 7.5ZM7.5 26C7.22386 26 7 25.7761 7 25.5L7 21H12L12 26H7.5ZM26 25.5C26 25.7761 25.7761 26 25.5 26H21V21L26 21V25.5ZM14 7H19V12L14 12V7ZM7 19L7 14H12L12 19H7ZM14 14L19 14V19L14 19V14ZM21 14H26V19L21 19V14ZM14 21L19 21L19 26H14L14 21Z" fill="#FF355E"/>
</svg>
