<svg width="32" height="32" viewBox="0 0 32 32" fill="none" xmlns="http://www.w3.org/2000/svg">
<path d="M12 8C12 5.79086 13.7909 4 16 4C18.2091 4 20 5.79086 20 8C20 9.69185 18.9496 11.1384 17.4655 11.723C18.8699 12.1052 20.1422 13.0484 20.8944 14.5528C21.1414 15.0467 20.9412 15.6474 20.4472 15.8944C19.9532 16.1414 19.3525 15.9412 19.1055 15.4472C17.826 12.888 14.174 12.888 12.8944 15.4472C12.6474 15.9412 12.0467 16.1414 11.5528 15.8944C11.0588 15.6474 10.8586 15.0467 11.1055 14.5528C11.8577 13.0484 13.1301 12.1052 14.5345 11.723C13.0503 11.1384 12 9.69184 12 8ZM16 6C14.8954 6 14 6.89543 14 8C14 9.10457 14.8954 10 16 10C17.1046 10 18 9.10457 18 8C18 6.89543 17.1046 6 16 6Z" fill="#FF355E"/>
<path d="M5 13C4.44772 13 4 13.4477 4 14V19.2721C4 21.3938 4.84285 23.4286 6.34315 24.9289L7.70711 26.2929C8.09763 26.6834 8.09763 27.3166 7.70711 27.7071C7.31658 28.0976 6.68342 28.0976 6.29289 27.7071L4.92893 26.3431C3.05357 24.4678 2 21.9242 2 19.2721V14C2 12.3431 3.34315 11 5 11C6.65685 11 8 12.3431 8 14V16.0439C9.77168 16.2324 11.4356 17.0214 12.7071 18.2929C14.1752 19.761 15 21.7522 15 23.8284V27C15 27.5523 14.5523 28 14 28C13.4477 28 13 27.5523 13 27V23.8284C13 22.2826 12.3859 20.8001 11.2929 19.7071C10.446 18.8602 9.36522 18.3008 8.20237 18.0919C8.42326 18.7051 8.86437 19.4502 9.70711 20.2929C10.0976 20.6834 10.0976 21.3166 9.70711 21.7071C9.31658 22.0976 8.68342 22.0976 8.29289 21.7071C6.5322 19.9464 6 18.3009 6 17V14C6 13.4477 5.55228 13 5 13Z" fill="#FF355E"/>
<path d="M27 13C27.5523 13 28 13.4477 28 14V19.2721C28 21.3938 27.1571 23.4286 25.6569 24.9289L24.2929 26.2929C23.9024 26.6834 23.9024 27.3166 24.2929 27.7071C24.6834 28.0976 25.3166 28.0976 25.7071 27.7071L27.0711 26.3431C28.9464 24.4678 30 21.9242 30 19.2721V14C30 12.3431 28.6569 11 27 11C25.3431 11 24 12.3431 24 14V16.0439C22.2283 16.2324 20.5644 17.0214 19.2929 18.2929C17.8248 19.761 17 21.7522 17 23.8284V27C17 27.5523 17.4477 28 18 28C18.5523 28 19 27.5523 19 27V23.8284C19 22.2826 19.6141 20.8001 20.7071 19.7071C21.554 18.8602 22.6348 18.3008 23.7976 18.0919C23.5767 18.7051 23.1356 19.4502 22.2929 20.2929C21.9024 20.6834 21.9024 21.3166 22.2929 21.7071C22.6834 22.0976 23.3166 22.0976 23.7071 21.7071C25.4678 19.9464 26 18.3009 26 17V14C26 13.4477 26.4477 13 27 13Z" fill="#FF355E"/>
</svg>
