<svg width="32" height="32" viewBox="0 0 32 32" fill="none" xmlns="http://www.w3.org/2000/svg">
<path d="M9.70916 18.3854C10.7408 17.4396 12.1052 16.9411 13.5036 16.9991C13.5174 16.9997 13.5312 16.9999 13.545 16.9999L15 17V21.126C13.2748 21.5701 12 23.1362 12 25C12 27.2091 13.7909 29 16 29C18.2091 29 20 27.2091 20 25C20 23.1362 18.7252 21.5701 17 21.126V16.9999H18.455C18.4689 16.9999 18.4827 16.9997 18.4965 16.9991C19.8948 16.9411 21.2592 17.4396 22.2909 18.3854C23.1007 19.1278 23.6538 20.0982 23.8849 21.1575C22.2184 21.6403 21 23.1779 21 25C21 27.2091 22.7909 29 25 29C27.2091 29 29 27.2091 29 25C29 23.104 27.6808 21.516 25.9102 21.104C25.6468 19.4999 24.8527 18.0206 23.6424 16.9111C22.226 15.6127 20.3546 14.9261 18.4351 14.9999H17V11.874C18.7252 11.4299 20 9.86384 20 8C20 5.79086 18.2091 4 16 4C13.7909 4 12 5.79086 12 8C12 9.86384 13.2748 11.4299 15 11.874V14.9999H13.565C11.6455 14.9261 9.77405 15.6127 8.35766 16.9111C7.14737 18.0206 6.3533 19.4999 6.08991 21.104C4.31925 21.516 3 23.1039 3 25C3 27.2091 4.79086 29 7 29C9.20914 29 11 27.2091 11 25C11 23.1779 9.78166 21.6403 8.11518 21.1575C8.34633 20.0982 8.89936 19.1278 9.70916 18.3854ZM16 6C17.1046 6 18 6.89543 18 8C18 9.10457 17.1046 10 16 10C14.8954 10 14 9.10457 14 8C14 6.89543 14.8954 6 16 6ZM7 23C8.10457 23 9 23.8954 9 25C9 26.1046 8.10457 27 7 27C5.89543 27 5 26.1046 5 25C5 23.8954 5.89543 23 7 23ZM16 23C17.1046 23 18 23.8954 18 25C18 26.1046 17.1046 27 16 27C14.8954 27 14 26.1046 14 25C14 23.8954 14.8954 23 16 23ZM25 23C26.1046 23 27 23.8954 27 25C27 26.1046 26.1046 27 25 27C23.8954 27 23 26.1046 23 25C23 23.8954 23.8954 23 25 23Z" fill="#FF355E"/>
</svg>
