<svg width="32" height="32" viewBox="0 0 32 32" fill="none" xmlns="http://www.w3.org/2000/svg">
<path d="M13 6C10.2386 6 8 8.23858 8 11C8 11.5523 8.44772 12 9 12C9.55228 12 10 11.5523 10 11C10 9.34315 11.3431 8 13 8H25C26.6569 8 28 9.34315 28 11V13C28 14.6569 26.6569 16 25 16H21C20.4477 16 20 16.4477 20 17C20 17.5523 20.4477 18 21 18H25C27.7614 18 30 15.7614 30 13V11C30 8.23858 27.7614 6 25 6H13Z" fill="#FF355E"/>
<path d="M13 12C13 11.4477 13.4477 11 14 11C14.5523 11 15 11.4477 15 12C15 12.5523 14.5523 13 14 13C13.4477 13 13 12.5523 13 12Z" fill="#FF355E"/>
<path fill-rule="evenodd" clip-rule="evenodd" d="M3 14C3 13.4477 3.44772 13 4 13H6C7.30622 13 8.41746 13.8348 8.82929 15H13C15.435 15 17.4634 16.7406 17.909 19.0453C20.2204 19.3661 22 21.3502 22 23.75C22 24.9926 20.9926 26 19.75 26H8.82929C8.41746 27.1652 7.30622 28 6 28H4C3.44772 28 3 27.5523 3 27C3 26.4477 3.44772 26 4 26H6C6.55228 26 7 25.5523 7 25V16C7 15.4477 6.55228 15 6 15H4C3.44772 15 3 14.5523 3 14ZM9 24H19.75C19.8881 24 20 23.8881 20 23.75C20 22.2312 18.7688 21 17.25 21H14C13.4477 21 13 20.5523 13 20C13 19.4477 13.4477 19 14 19H15.8293C15.4175 17.8348 14.3062 17 13 17H9V24Z" fill="#FF355E"/>
<path d="M19 11C18.4477 11 18 11.4477 18 12C18 12.5523 18.4477 13 19 13C19.5523 13 20 12.5523 20 12C20 11.4477 19.5523 11 19 11Z" fill="#FF355E"/>
<path d="M23 12C23 11.4477 23.4477 11 24 11C24.5523 11 25 11.4477 25 12C25 12.5523 24.5523 13 24 13C23.4477 13 23 12.5523 23 12Z" fill="#FF355E"/>
</svg>
