<svg width="32" height="32" viewBox="0 0 32 32" fill="none" xmlns="http://www.w3.org/2000/svg">
<path d="M6.5 6C6.36739 6 6.24021 6.05268 6.14645 6.14645C6.05268 6.24021 6 6.36739 6 6.5V23C6 23.1326 6.05268 23.2598 6.14645 23.3536C6.24022 23.4473 6.36739 23.5 6.5 23.5H12.5C13.0523 23.5 13.5 23.9477 13.5 24.5C13.5 25.0523 13.0523 25.5 12.5 25.5H6.5C5.83696 25.5 5.20107 25.2366 4.73223 24.7678C4.26339 24.2989 4 23.663 4 23V6.5C4 5.83696 4.26339 5.20107 4.73223 4.73223C5.20107 4.26339 5.83696 4 6.5 4H21.5C22.163 4 22.7989 4.26339 23.2678 4.73223C23.7366 5.20107 24 5.83696 24 6.5V13.25C24 13.8023 23.5523 14.25 23 14.25C22.4477 14.25 22 13.8023 22 13.25V6.5C22 6.36739 21.9473 6.24022 21.8536 6.14645C21.7598 6.05268 21.6326 6 21.5 6H6.5Z" fill="#FF355E"/>
<path d="M9.75 9V12.25H18.25V9H9.75ZM7.75 8.75C7.75 7.7835 8.5335 7 9.5 7H18.5C19.4665 7 20.25 7.7835 20.25 8.75V12.5C20.25 13.4665 19.4665 14.25 18.5 14.25H9.5C8.5335 14.25 7.75 13.4665 7.75 12.5V8.75ZM9.75 17.25H19.25C19.8023 17.25 20.25 16.8023 20.25 16.25C20.25 15.6977 19.8023 15.25 19.25 15.25H9.5C9.03587 15.25 8.59075 15.4344 8.26256 15.7626C7.93437 16.0908 7.75 16.5359 7.75 17V20.75C7.75 21.2141 7.93437 21.6592 8.26256 21.9874C8.59075 22.3156 9.03587 22.5 9.5 22.5H14C14.5523 22.5 15 22.0523 15 21.5C15 20.9477 14.5523 20.5 14 20.5H9.75V17.25Z" fill="#FF355E"/>
<path d="M25.376 16.4996C25.2296 16.4996 25.0846 16.5285 24.9493 16.5846C24.814 16.6407 24.6911 16.7229 24.5877 16.8265L17.1712 24.243L16.7748 26.2252L18.757 25.8288L26.1729 18.4129C26.2765 18.3094 26.3593 18.186 26.4154 18.0507C26.4715 17.9154 26.5004 17.7704 26.5004 17.624C26.5004 17.4775 26.4715 17.3325 26.4154 17.1973C26.3593 17.062 26.2771 16.9391 26.1735 16.8357L26.1649 16.8271C26.0614 16.7234 25.938 16.6407 25.8027 16.5846C25.6674 16.5285 25.5224 16.4996 25.376 16.4996ZM24.1832 14.7371C24.5613 14.5803 24.9666 14.4996 25.376 14.4996C25.7854 14.4996 26.1907 14.5803 26.5688 14.7371C26.9469 14.8939 27.2904 15.1238 27.5797 15.4134L27.5865 15.4203C27.8762 15.7095 28.106 16.053 28.2628 16.4312C28.4196 16.8093 28.5004 17.2146 28.5004 17.624C28.5004 18.0333 28.4196 18.4387 28.2628 18.8168C28.1061 19.1947 27.8765 19.538 27.5871 19.8271L19.9571 27.4571C19.8175 27.5967 19.6397 27.6918 19.4461 27.7306L15.6961 28.4806C15.3683 28.5461 15.0293 28.4435 14.7929 28.2071C14.5565 27.9707 14.4538 27.6317 14.5194 27.3039L15.2694 23.5539C15.3081 23.3603 15.4033 23.1825 15.5429 23.0429L23.1723 15.4134C23.4615 15.1239 23.8052 14.8939 24.1832 14.7371Z" fill="#FF355E"/>
</svg>
