<svg width="32" height="32" viewBox="0 0 32 32" fill="none" xmlns="http://www.w3.org/2000/svg">
<path d="M5 14C5 12.3431 6.34315 11 8 11H24C25.6569 11 27 12.3431 27 14V15C27 15.5523 27.4477 16 28 16C28.5523 16 29 15.5523 29 15V14C29 11.2386 26.7614 9 24 9H8C5.23858 9 3 11.2386 3 14V18C3 20.7614 5.23858 23 8 23H13C13.5523 23 14 22.5523 14 22C14 21.4477 13.5523 21 13 21H8C6.34315 21 5 19.6569 5 18V14Z" fill="#FF355E"/>
<path d="M8 16C8 15.4477 8.44772 15 9 15C9.55228 15 10 15.4477 10 16C10 16.5523 9.55228 17 9 17C8.44772 17 8 16.5523 8 16Z" fill="#FF355E"/>
<path d="M23 22.5C23.5523 22.5 24 22.9477 24 23.5V24.5C24 25.0523 23.5523 25.5 23 25.5C22.4477 25.5 22 25.0523 22 24.5V23.5C22 22.9477 22.4477 22.5 23 22.5Z" fill="#FF355E"/>
<path fill-rule="evenodd" clip-rule="evenodd" d="M20 19V18C20 16.3431 21.3431 15 23 15C24.6569 15 26 16.3431 26 18V19H27C28.6569 19 30 20.3431 30 22V26C30 27.6569 28.6569 29 27 29H19C17.3431 29 16 27.6569 16 26V22C16 20.3431 17.3431 19 19 19H20ZM22 18C22 17.4477 22.4477 17 23 17C23.5523 17 24 17.4477 24 18V19H22V18ZM18 22C18 21.4477 18.4477 21 19 21H27C27.5523 21 28 21.4477 28 22V26C28 26.5523 27.5523 27 27 27H19C18.4477 27 18 26.5523 18 26V22Z" fill="#FF355E"/>
<path d="M13 15C12.4477 15 12 15.4477 12 16C12 16.5523 12.4477 17 13 17C13.5523 17 14 16.5523 14 16C14 15.4477 13.5523 15 13 15Z" fill="#FF355E"/>
<path d="M16 16C16 15.4477 16.4477 15 17 15C17.5523 15 18 15.4477 18 16C18 16.5523 17.5523 17 17 17C16.4477 17 16 16.5523 16 16Z" fill="#FF355E"/>
</svg>
