<svg width="32" height="32" viewBox="0 0 32 32" fill="none" xmlns="http://www.w3.org/2000/svg">
<path fill-rule="evenodd" clip-rule="evenodd" d="M25.4786 4.58887C26.9168 4.94842 28.0538 6.04815 28.4611 7.47358C28.869 8.90141 28.4826 10.4384 27.4479 11.5035L11.7173 27.6968C11.5686 27.8498 11.3749 27.9513 11.1644 27.9864L5.16441 28.9864C4.84585 29.0395 4.52127 28.9355 4.29291 28.7071C4.06454 28.4787 3.96053 28.1542 4.01362 27.8356L5.01362 21.8356C5.04788 21.63 5.14553 21.4403 5.29291 21.2929L20.8497 5.73614C21.9934 4.59237 23.6534 4.13258 25.2227 4.52489L25.4786 4.58887ZM22.2639 7.15035C22.9109 6.50335 23.8499 6.24325 24.7376 6.46517L24.9935 6.52915C25.7383 6.71535 26.3271 7.28485 26.538 8.02302C26.7493 8.76243 26.5492 9.55837 26.0133 10.11L10.9897 25.5755L7.41422 22L22.2639 7.15035ZM6.66695 24.0812L6.21656 26.7835L8.91885 26.3331L6.66695 24.0812Z" fill="#FF355E"/>
</svg>
