<svg width="32" height="32" viewBox="0 0 32 32" fill="none" xmlns="http://www.w3.org/2000/svg">
<path d="M27 24C27 24.5523 26.5523 25 26 25H25V26C25 26.5523 24.5523 27 24 27C23.4477 27 23 26.5523 23 26V25H22C21.4477 25 21 24.5523 21 24C21 23.4477 21.4477 23 22 23H23V22C23 21.4477 23.4477 21 24 21C24.5523 21 25 21.4477 25 22V23H26C26.5523 23 27 23.4477 27 24Z" fill="#FF355E"/>
<path fill-rule="evenodd" clip-rule="evenodd" d="M17 10C17 11.5202 16.3215 12.882 15.2509 13.7991C17.2426 14.8454 18.6684 16.8231 18.9493 19.1533C20.2232 17.8261 22.0151 17 24 17C27.866 17 31 20.134 31 24C31 27.866 27.866 31 24 31C20.134 31 17 27.866 17 24C17 23.5875 17.0357 23.1832 17.1041 22.7903C16.7624 22.9256 16.3899 23 16 23V24C16 25.6569 14.6569 27 13 27H11C9.34315 27 8 25.6569 8 24V23C6.34315 23 5 21.6569 5 20C5 17.3075 6.52021 14.97 8.74913 13.7991C7.67847 12.882 7 11.5202 7 10C7 7.23858 9.23858 5 12 5C14.7614 5 17 7.23858 17 10ZM12 7C10.3431 7 9 8.34315 9 10C9 11.6569 10.3431 13 12 13C13.6569 13 15 11.6569 15 10C15 8.34315 13.6569 7 12 7ZM7 20C7 17.2386 9.23858 15 12 15C14.7614 15 17 17.2386 17 20C17 20.5523 16.5523 21 16 21H15C14.4477 21 14 21.4477 14 22V24C14 24.5523 13.5523 25 13 25H11C10.4477 25 10 24.5523 10 24V22C10 21.4477 9.55228 21 9 21H8C7.44772 21 7 20.5523 7 20ZM19 24C19 21.2386 21.2386 19 24 19C26.7614 19 29 21.2386 29 24C29 26.7614 26.7614 29 24 29C21.2386 29 19 26.7614 19 24Z" fill="#FF355E"/>
<path d="M18 6C18 5.44772 18.4477 5 19 5C21.7614 5 24 7.23858 24 10C24 11.5203 23.3215 12.8822 22.2507 13.7992C22.5411 13.9517 22.8195 14.124 23.084 14.3143C23.5323 14.6368 23.6343 15.2617 23.3118 15.71C22.9893 16.1583 22.3644 16.2603 21.916 15.9378C21.0954 15.3475 20.0897 15 19 15C18.4477 15 18 14.5523 18 14C18 13.4477 18.4477 13 19 13C20.6569 13 22 11.6569 22 10C22 8.34315 20.6569 7 19 7C18.4477 7 18 6.55228 18 6Z" fill="#FF355E"/>
</svg>
