<svg width="32" height="32" viewBox="0 0 32 32" fill="none" xmlns="http://www.w3.org/2000/svg">
<path fill-rule="evenodd" clip-rule="evenodd" d="M14 10C14 11.5202 13.3215 12.882 12.2509 13.7991C14.4798 14.97 16 17.3075 16 20C16 21.6569 14.6569 23 13 23V24C13 25.6569 11.6569 27 10 27H8C6.34315 27 5 25.6569 5 24V23C3.34315 23 2 21.6569 2 20C2 17.3075 3.52021 14.97 5.74913 13.7991C4.67847 12.882 4 11.5202 4 10C4 7.23858 6.23858 5 9 5C11.7614 5 14 7.23858 14 10ZM9 7C7.34315 7 6 8.34315 6 10C6 11.6569 7.34315 13 9 13C10.6569 13 12 11.6569 12 10C12 8.34315 10.6569 7 9 7ZM4 20C4 17.2386 6.23858 15 9 15C11.7614 15 14 17.2386 14 20C14 20.5523 13.5523 21 13 21H12C11.4477 21 11 21.4477 11 22V24C11 24.5523 10.5523 25 10 25H8C7.44771 25 7 24.5523 7 24V22C7 21.4477 6.55228 21 6 21H5C4.44772 21 4 20.5523 4 20Z" fill="#FF355E"/>
<path d="M18 7C17.4477 7 17 7.44772 17 8C17 8.55228 17.4477 9 18 9H24C25.6569 9 27 10.3431 27 12V18C27 19.6569 25.6569 21 24 21H18C17.4477 21 17 21.4477 17 22C17 22.5523 17.4477 23 18 23H19V25H18C17.4477 25 17 25.4477 17 26C17 26.5523 17.4477 27 18 27H22C22.5523 27 23 26.5523 23 26C23 25.4477 22.5523 25 22 25H21V23H24C26.7614 23 29 20.7614 29 18V12C29 9.23858 26.7614 7 24 7H18Z" fill="#FF355E"/>
<path d="M23 15.4142L20.7071 17.7071C20.4798 17.9344 20.1571 18.0386 19.8398 17.9871C19.5225 17.9356 19.2493 17.7347 19.1056 17.4472L18.726 16.6882L17.7071 17.7071C17.3166 18.0976 16.6834 18.0976 16.2929 17.7071C15.9024 17.3166 15.9024 16.6834 16.2929 16.2929L18.2929 14.2929C18.5202 14.0656 18.8429 13.9614 19.1602 14.0129C19.4775 14.0644 19.7507 14.2653 19.8944 14.5528L20.274 15.3118L21.5858 14H21C20.4477 14 20 13.5523 20 13C20 12.4477 20.4477 12 21 12H24C24.1356 12 24.2649 12.027 24.3828 12.0759C24.5007 12.1247 24.6112 12.197 24.7071 12.2929C24.8902 12.476 24.9874 12.7123 24.9989 12.952C24.9996 12.968 25 12.984 25 13V16C25 16.5523 24.5523 17 24 17C23.4477 17 23 16.5523 23 16V15.4142Z" fill="#FF355E"/>
</svg>
