<svg width="32" height="32" viewBox="0 0 32 32" fill="none" xmlns="http://www.w3.org/2000/svg">
<path d="M7 8C7 5.79086 8.79086 4 11 4H21C23.2091 4 25 5.79086 25 8V9C25 9.55228 24.5523 10 24 10C23.4477 10 23 9.55228 23 9V8C23 6.89543 22.1046 6 21 6H11C9.89543 6 9 6.89543 9 8V24C9 25.1046 9.89543 26 11 26C11.5523 26 12 26.4477 12 27C12 27.5523 11.5523 28 11 28C8.79086 28 7 26.2091 7 24V8Z" fill="#FF355E"/>
<path d="M21 21C21.5523 21 22 21.4477 22 22V24C22 24.5523 21.5523 25 21 25C20.4477 25 20 24.5523 20 24V22C20 21.4477 20.4477 21 21 21Z" fill="#FF355E"/>
<path d="M16 18.1707V17C16 16.2766 16.1836 15.2539 16.731 14.3129C16.8092 14.1784 16.8949 14.0457 16.9885 13.9157C17.7739 12.8249 19.0741 12 21 12C22.9259 12 24.2261 12.8249 25.0115 13.9157C25.7602 14.9555 26 16.1733 26 17V18.1707C27.1652 18.5825 28 19.6938 28 21V25C28 26.6569 26.6569 28 25 28H17C15.3431 28 14 26.6569 14 25V21C14 19.6938 14.8348 18.5825 16 18.1707ZM18 17V18H24V17C24 16.4934 23.8398 15.7111 23.3885 15.0843C22.9739 14.5085 22.2741 14 21 14C19.7259 14 19.0261 14.5085 18.6115 15.0843C18.1602 15.7111 18 16.4934 18 17ZM16 21V25C16 25.5523 16.4477 26 17 26H25C25.5523 26 26 25.5523 26 25V21C26 20.4477 25.5523 20 25 20H17C16.4477 20 16 20.4477 16 21Z" fill="#FF355E"/>
</svg>
