<svg width="32" height="32" viewBox="0 0 32 32" fill="none" xmlns="http://www.w3.org/2000/svg">
<path d="M20.5 13C19.6716 13 19 13.6716 19 14.5C19 15.3284 19.6716 16 20.5 16C21.3284 16 22 15.3284 22 14.5C22 13.6716 21.3284 13 20.5 13Z" fill="#FF355E"/>
<path fill-rule="evenodd" clip-rule="evenodd" d="M13.5 1C11.567 1 10 2.567 10 4.5C10 5.27282 10.2505 5.98713 10.6747 6.5662C7.1292 7.81593 4.49974 11.0078 4.06378 14.8643C3.97436 14.815 3.88517 14.7525 3.79939 14.6741C3.44703 14.3523 3 13.6215 3 12C3 11.4477 2.55228 11 2 11C1.44772 11 1 11.4477 1 12C1 13.9785 1.55297 15.331 2.45061 16.1509C2.9525 16.6093 3.51502 16.857 4.04578 16.9625C4.22507 18.8378 4.92271 20.5635 5.99345 21.9922C6.61395 22.82 7 23.6657 7 24.4964V25C7 26.6569 8.34315 28 10 28H12.8676C13.9214 28 14.8979 27.4471 15.4401 26.5435L15.6459 26.2005C15.7205 26.0761 15.8549 26 16 26C16.1451 26 16.2795 26.0761 16.3541 26.2005L16.5599 26.5435C17.1021 27.4471 18.0786 28 19.1324 28H22C23.6569 28 25 26.6569 25 25V23.7423C25 23.3854 25.1603 22.9968 25.4763 22.6413C25.8506 22.2203 26.3024 22 26.7196 22H27C28.6569 22 30 20.6569 30 19V17C30 15.6283 29.0794 14.4716 27.8223 14.1141C27.4326 12.0735 26.4234 10.254 25 8.85857V6C25 4.89543 24.1046 4 23 4H22.6825C21.6693 4 20.6939 4.38447 19.9532 5.07578L19.5069 5.49234C19.1561 5.81978 18.6257 6 18 6H16.6632C16.8792 5.54537 17 5.0368 17 4.5C17 2.567 15.433 1 13.5 1ZM12 4.5C12 3.67157 12.6716 3 13.5 3C14.3284 3 15 3.67157 15 4.5C15 5.32843 14.3284 6 13.5 6C12.6716 6 12 5.32843 12 4.5ZM21.3179 6.53789C21.6882 6.19224 22.1759 6 22.6825 6H23V9.29168C23 9.57613 23.1211 9.84711 23.3331 10.0368C24.7523 11.3071 25.7136 13.0737 25.9456 15.0613C26.0074 15.5908 26.4557 16 27 16C27.5523 16 28 16.4477 28 17V19C28 19.5523 27.5523 20 27 20H26.7196C25.5931 20 24.6327 20.5799 23.9815 21.3126C23.4232 21.9406 23 22.7833 23 23.7423V25C23 25.5523 22.5523 26 22 26H19.1324C18.7811 26 18.4556 25.8157 18.2749 25.5145L18.0691 25.1715C17.633 24.4447 16.8476 24 16 24C15.1524 24 14.367 24.4447 13.9309 25.1715L13.7251 25.5145C13.5444 25.8157 13.2189 26 12.8676 26H10C9.44771 26 9 25.5523 9 25V24.4964C9 23.0515 8.3381 21.7857 7.59385 20.7927C6.59597 19.4613 6.0039 17.81 6.00002 16.0177C6.0002 16.0067 6.0002 15.9956 6.00001 15.9844C6.00842 11.5733 9.58692 8 14 8H18C18.9771 8 20.0506 7.72064 20.8715 6.95445L21.3179 6.53789Z" fill="#FF355E"/>
</svg>
