<svg width="32" height="32" viewBox="0 0 32 32" fill="none" xmlns="http://www.w3.org/2000/svg">
<path fill-rule="evenodd" clip-rule="evenodd" d="M15.06 11.1083C13.7279 10.2757 12 11.2334 12 12.8043V19.1958C12 20.7666 13.7279 21.7243 15.06 20.8918L20.1732 17.696C21.4265 16.9127 21.4265 15.0873 20.1732 14.304L15.06 11.1083ZM14 12.8043L19.1132 16L14 19.1958V12.8043Z" fill="#FF355E"/>
<path fill-rule="evenodd" clip-rule="evenodd" d="M16 4C9.37258 4 4 9.37258 4 16C4 22.6274 9.37258 28 16 28C22.6274 28 28 22.6274 28 16C28 9.37258 22.6274 4 16 4ZM6 16C6 10.4772 10.4772 6 16 6C21.5228 6 26 10.4772 26 16C26 21.5228 21.5228 26 16 26C10.4772 26 6 21.5228 6 16Z" fill="#FF355E"/>
</svg>
