<svg width="32" height="32" viewBox="0 0 32 32" fill="none" xmlns="http://www.w3.org/2000/svg">
<path d="M9 13C8.44772 13 8 13.4477 8 14C8 14.5523 8.44771 15 9 15H18C18.5523 15 19 14.5523 19 14C19 13.4477 18.5523 13 18 13H9Z" fill="#FF355E"/>
<path d="M8 22C8 21.4477 8.44772 21 9 21H15C15.5523 21 16 21.4477 16 22C16 22.5523 15.5523 23 15 23H9C8.44772 23 8 22.5523 8 22Z" fill="#FF355E"/>
<path d="M18 21C17.4477 21 17 21.4477 17 22C17 22.5523 17.4477 23 18 23C18.5523 23 19 22.5523 19 22C19 21.4477 18.5523 21 18 21Z" fill="#FF355E"/>
<path d="M8 18C8 17.4477 8.44772 17 9 17H15C15.5523 17 16 17.4477 16 18C16 18.5523 15.5523 19 15 19H9C8.44772 19 8 18.5523 8 18Z" fill="#FF355E"/>
<path d="M18 17C17.4477 17 17 17.4477 17 18C17 18.5523 17.4477 19 18 19C18.5523 19 19 18.5523 19 18C19 17.4477 18.5523 17 18 17Z" fill="#FF355E"/>
<path fill-rule="evenodd" clip-rule="evenodd" d="M4.47925 5.14629C4.77691 4.96473 5.14764 4.9513 5.45764 5.11086L9.50115 7.19208L12.993 5.13807C13.3059 4.95398 13.6941 4.95398 14.007 5.13807L17.4988 7.19208L21.5424 5.11086C21.8524 4.9513 22.2231 4.96473 22.5207 5.14629C22.8184 5.32785 23 5.65134 23 6V13H27C27.5523 13 28 13.4477 28 14V24C28 26.2091 26.2091 28 24 28H8C5.79086 28 4 26.2091 4 24V6C4 5.65134 4.1816 5.32785 4.47925 5.14629ZM23 26V15H26V24C26 25.1046 25.1046 26 24 26H23ZM21 7.63939V26H8C6.89543 26 6 25.1046 6 24V7.63939L9.07569 9.22247C9.38063 9.37943 9.74474 9.36916 10.0404 9.19527L13.5 7.16018L16.9596 9.19527C17.2553 9.36916 17.6194 9.37943 17.9243 9.22247L21 7.63939Z" fill="#FF355E"/>
</svg>
