<svg width="32" height="32" viewBox="0 0 32 32" fill="none" xmlns="http://www.w3.org/2000/svg">
<path fill-rule="evenodd" clip-rule="evenodd" d="M14 9C13.4477 9 13 9.44772 13 10V12H11C10.4477 12 10 12.4477 10 13V17C10 17.5523 10.4477 18 11 18H13V20C13 20.5523 13.4477 21 14 21H18C18.5523 21 19 20.5523 19 20V18H21C21.5523 18 22 17.5523 22 17V13C22 12.4477 21.5523 12 21 12H19V10C19 9.44772 18.5523 9 18 9H14ZM14 14C14.5523 14 15 13.5523 15 13V11H17V13C17 13.5523 17.4477 14 18 14H20V16H18C17.4477 16 17 16.4477 17 17V19H15V17C15 16.4477 14.5523 16 14 16H12V14H14Z" fill="#FF355E"/>
<path fill-rule="evenodd" clip-rule="evenodd" d="M16 5C11.7785 5 9.30528 5.35878 7.9579 5.66655C6.68249 5.95788 6 7.10184 6 8.23607V16.2928C6 19.5613 7.77203 22.5729 10.6292 24.1602L13.0861 25.5251C14.8983 26.5319 17.1017 26.5319 18.9139 25.5251L21.3708 24.1602C24.228 22.5729 26 19.5613 26 16.2928V8.23607C26 7.10184 25.3175 5.95788 24.0421 5.66655C22.6947 5.35878 20.2215 5 16 5ZM8.40327 7.61633C9.56772 7.35034 11.8852 7 16 7C20.1148 7 22.4323 7.35034 23.5967 7.61633C23.7984 7.66238 24 7.85521 24 8.23607V16.2928C24 18.8349 22.6218 21.1773 20.3995 22.4119L17.9426 23.7768C16.7345 24.448 15.2655 24.448 14.0574 23.7768L11.6005 22.4119C9.37825 21.1773 8 18.8349 8 16.2928V8.23607C8 7.85521 8.20165 7.66238 8.40327 7.61633Z" fill="#FF355E"/>
</svg>
