<svg width="32" height="32" viewBox="0 0 32 32" fill="none" xmlns="http://www.w3.org/2000/svg">
<path d="M11 3C8.23858 3 6 5.23858 6 8V24C6 26.7614 8.23858 29 11 29H14C14.5523 29 15 28.5523 15 28C15 27.4477 14.5523 27 14 27H11C9.34315 27 8 25.6569 8 24V8C8 6.34315 9.34315 5 11 5H17.3431C18.1388 5 18.9019 5.31607 19.4645 5.87868L23.1213 9.53553C23.6839 10.0981 24 10.8612 24 11.6569V14C24 14.5523 24.4477 15 25 15C25.5523 15 26 14.5523 26 14V11.6569C26 10.3308 25.4732 9.059 24.5355 8.12132L20.8787 4.46447C19.941 3.52678 18.6692 3 17.3431 3H11Z" fill="#FF355E"/>
<path d="M25 22C25 21.4477 24.5523 21 24 21C23.4477 21 23 21.4477 23 22V23H22C21.4477 23 21 23.4477 21 24C21 24.5523 21.4477 25 22 25H23V26C23 26.5523 23.4477 27 24 27C24.5523 27 25 26.5523 25 26V25H26C26.5523 25 27 24.5523 27 24C27 23.4477 26.5523 23 26 23H25V22Z" fill="#FF355E"/>
<path fill-rule="evenodd" clip-rule="evenodd" d="M17 24C17 20.134 20.134 17 24 17C27.866 17 31 20.134 31 24C31 27.866 27.866 31 24 31C20.134 31 17 27.866 17 24ZM24 19C21.2386 19 19 21.2386 19 24C19 26.7614 21.2386 29 24 29C26.7614 29 29 26.7614 29 24C29 21.2386 26.7614 19 24 19Z" fill="#FF355E"/>
<path fill-rule="evenodd" clip-rule="evenodd" d="M11 18C10.4477 18 10 18.4477 10 19C10 19.5523 10.4477 20 11 20H16C16.5523 20 17 19.5523 17 19C17 18.4477 16.5523 18 16 18V12C16 10.8954 15.1046 10 14 10H13C11.8954 10 11 10.8954 11 12V18ZM14 18H13V12H14V18Z" fill="#FF355E"/>
<path d="M19 12C17.8954 12 17 12.8954 17 14V16C17 16.5523 17.4477 17 18 17C18.5523 17 19 16.5523 19 16V14H20V15C20 15.5523 20.4477 16 21 16C21.5523 16 22 15.5523 22 15V14C22 12.8954 21.1046 12 20 12H19Z" fill="#FF355E"/>
</svg>
