<svg width="32" height="32" viewBox="0 0 32 32" fill="none" xmlns="http://www.w3.org/2000/svg">
<path fill-rule="evenodd" clip-rule="evenodd" d="M28.2071 5.79288C26.9882 4.57392 25.0119 4.57392 23.7929 5.79288L17.7929 11.7929C17.6399 11.9459 17.5407 12.1444 17.5101 12.3586L17.0101 15.8586C16.9655 16.1702 17.0703 16.4845 17.2929 16.7071C17.5155 16.9297 17.8298 17.0344 18.1414 16.9899L21.6414 16.4899C21.8556 16.4593 22.0541 16.3601 22.2071 16.2071L28.2071 10.2071C29.4261 8.98814 29.4261 7.01183 28.2071 5.79288ZM26.7929 7.20709C26.355 6.76919 25.645 6.76919 25.2071 7.20709L19.4428 12.9714L19.1785 14.8215L21.0286 14.5572L26.7929 8.79287C27.2308 8.35497 27.2308 7.64499 26.7929 7.20709Z" fill="#FF355E"/>
<path d="M8 7.99997C6.34315 7.99997 5 9.34312 5 11V21C5 22.6568 6.34315 24 8 24H24C25.6569 24 27 22.6568 27 21V15C27 14.4477 27.4477 14 28 14C28.5523 14 29 14.4477 29 15V21C29 23.7614 26.7614 26 24 26H8C5.23858 26 3 23.7614 3 21V11C3 8.23855 5.23858 5.99997 8 5.99997H18C18.5523 5.99997 19 6.44768 19 6.99997C19 7.55225 18.5523 7.99997 18 7.99997H8Z" fill="#FF355E"/>
<path d="M9.97013 20.2425C10.0566 19.8967 10.1397 19.6149 10.3244 19.3976C10.4634 19.2341 10.7521 19 11.5 19C11.9839 19 12.2479 19.0946 12.4111 19.1857C12.5875 19.2842 12.7276 19.4216 12.9349 19.6585C12.9553 19.6818 12.9773 19.7073 13.0007 19.7345C13.1844 19.9475 13.4599 20.2671 13.8173 20.5122C14.2681 20.8213 14.8117 21 15.5 21C16.4465 21 17.1558 20.8007 17.7025 20.5036C18.1835 20.2422 18.4976 19.921 18.6588 19.7561C18.6768 19.7377 18.6929 19.7213 18.7071 19.7071C19.0976 19.3166 19.0976 18.6834 18.7071 18.2929C18.3166 17.9023 17.6834 17.9023 17.2929 18.2929L17.2332 18.3529C17.0736 18.5138 16.9545 18.6338 16.7475 18.7463C16.5275 18.8659 16.1535 19 15.5 19C15.1883 19 15.0444 18.9286 14.9483 18.8627C14.8163 18.7722 14.715 18.6562 14.5007 18.4109L14.4401 18.3415C14.2099 18.0784 13.8812 17.7158 13.3858 17.4393C12.8771 17.1553 12.2661 17 11.5 17C10.2478 17 9.36989 17.4325 8.80055 18.1023C8.29316 18.6993 8.12073 19.3922 8.03756 19.7265L8.02985 19.7574C7.8959 20.2932 8.22166 20.8362 8.75746 20.9701C9.29325 21.1041 9.83619 20.7783 9.97013 20.2425Z" fill="#FF355E"/>
</svg>
