<svg width="32" height="32" viewBox="0 0 32 32" fill="none" xmlns="http://www.w3.org/2000/svg">
<path d="M26.2929 5.29289C26.6834 4.90237 27.3166 4.90237 27.7071 5.29289C28.0976 5.68342 28.0976 6.31658 27.7071 6.70711L25.7071 8.70711C25.3166 9.09763 24.6834 9.09763 24.2929 8.70711L23.2929 7.70711C22.9024 7.31658 22.9024 6.68342 23.2929 6.29289C23.6834 5.90237 24.3166 5.90237 24.7071 6.29289L25 6.58579L26.2929 5.29289Z" fill="#FF355E"/>
<path d="M12.2509 13.7991C13.3215 12.882 14 11.5202 14 10C14 7.23858 11.7614 5 9 5C6.23858 5 4 7.23858 4 10C4 11.5202 4.67847 12.882 5.74913 13.7991C3.52021 14.97 2 17.3075 2 20C2 21.6569 3.34315 23 5 23V24C5 25.6569 6.34315 27 8 27H10C11.6569 27 13 25.6569 13 24V23C14.6569 23 16 21.6569 16 20C16 17.3075 14.4798 14.97 12.2509 13.7991ZM6 10C6 8.34315 7.34315 7 9 7C10.6569 7 12 8.34315 12 10C12 11.6569 10.6569 13 9 13C7.34315 13 6 11.6569 6 10ZM9 15C11.7614 15 14 17.2386 14 20C14 20.5523 13.5523 21 13 21H12C11.4477 21 11 21.4477 11 22V24C11 24.5523 10.5523 25 10 25H8C7.44771 25 7 24.5523 7 24V22C7 21.4477 6.55228 21 6 21H5C4.44772 21 4 20.5523 4 20C4 17.2386 6.23858 15 9 15Z" fill="#FF355E"/>
<path d="M18 8C18 6.89543 18.8954 6 20 6H21C21.5523 6 22 6.44772 22 7C22 7.55228 21.5523 8 21 8L20 8V15H21C21.5523 15 22 15.4477 22 16C22 16.5523 21.5523 17 21 17H20V24H21C21.5523 24 22 24.4477 22 25C22 25.5523 21.5523 26 21 26H20C18.8954 26 18 25.1046 18 24V17H17C16.4477 17 16 16.5523 16 16C16 15.4477 16.4477 15 17 15H18V8Z" fill="#FF355E"/>
<path d="M27.7071 14.2929C27.3166 13.9024 26.6834 13.9024 26.2929 14.2929L25 15.5858L24.7071 15.2929C24.3166 14.9024 23.6834 14.9024 23.2929 15.2929C22.9024 15.6834 22.9024 16.3166 23.2929 16.7071L24.2929 17.7071C24.6834 18.0976 25.3166 18.0976 25.7071 17.7071L27.7071 15.7071C28.0976 15.3166 28.0976 14.6834 27.7071 14.2929Z" fill="#FF355E"/>
<path d="M25.5 25.9142L24.7071 26.7071C24.3166 27.0976 23.6834 27.0976 23.2929 26.7071C22.9024 26.3166 22.9024 25.6834 23.2929 25.2929L24.0858 24.5L23.2929 23.7071C22.9024 23.3166 22.9024 22.6834 23.2929 22.2929C23.6834 21.9024 24.3166 21.9024 24.7071 22.2929L25.5 23.0858L26.2929 22.2929C26.6834 21.9024 27.3166 21.9024 27.7071 22.2929C28.0976 22.6834 28.0976 23.3166 27.7071 23.7071L26.9142 24.5L27.7071 25.2929C28.0976 25.6834 28.0976 26.3166 27.7071 26.7071C27.3166 27.0976 26.6834 27.0976 26.2929 26.7071L25.5 25.9142Z" fill="#FF355E"/>
</svg>
