<svg width="32" height="32" viewBox="0 0 32 32" fill="none" xmlns="http://www.w3.org/2000/svg">
<path d="M11 9C11.7403 9 12.3866 9.4022 12.7324 10H19.2676C19.6134 9.4022 20.2597 9 21 9C22.1046 9 23 9.89543 23 11C23 12.1046 22.1046 13 21 13C20.2597 13 19.6134 12.5978 19.2676 12H12.7324C12.5568 12.3036 12.3036 12.5568 12 12.7324V14.2676C12.3036 14.4432 12.5568 14.6964 12.7324 15H19.2676C19.6134 14.4022 20.2597 14 21 14C22.1046 14 23 14.8954 23 16C23 16.7403 22.5978 17.3866 22 17.7324V19.2676C22.5978 19.6134 23 20.2597 23 21C23 22.1046 22.1046 23 21 23C20.2597 23 19.6134 22.5978 19.2676 22H12.7324C12.3866 22.5978 11.7403 23 11 23C9.89543 23 9 22.1046 9 21C9 19.8954 9.89543 19 11 19C11.7403 19 12.3866 19.4022 12.7324 20H19.2676C19.4432 19.6964 19.6964 19.4432 20 19.2676V17.7324C19.6964 17.5568 19.4432 17.3036 19.2676 17H12.7324C12.3866 17.5978 11.7403 18 11 18C9.89543 18 9 17.1046 9 16C9 15.2597 9.4022 14.6134 10 14.2676V12.7324C9.4022 12.3866 9 11.7403 9 11C9 9.89543 9.89543 9 11 9Z" fill="#FF355E"/>
<path fill-rule="evenodd" clip-rule="evenodd" d="M10 5C7.23858 5 5 7.23858 5 10V22C5 24.7614 7.23858 27 10 27H22C24.7614 27 27 24.7614 27 22V10C27 7.23858 24.7614 5 22 5H10ZM7 10C7 8.34315 8.34315 7 10 7H22C23.6569 7 25 8.34315 25 10V22C25 23.6569 23.6569 25 22 25H10C8.34315 25 7 23.6569 7 22V10Z" fill="#FF355E"/>
</svg>
