<svg width="32" height="32" viewBox="0 0 32 32" fill="none" xmlns="http://www.w3.org/2000/svg">
<path fill-rule="evenodd" clip-rule="evenodd" d="M6 7C5.44772 7 5 7.44772 5 8C5 8.55228 5.44772 9 6 9H8.21922L8.71922 11H6.00001C5.69802 11 5.4122 11.1365 5.22234 11.3713C5.03249 11.6062 4.95893 11.9142 5.02221 12.2095L8.02221 26.2095C8.12101 26.6706 8.52847 27 9.00001 27H13C13.4715 27 13.879 26.6706 13.9778 26.2095L14.4064 24.2093C15.6839 25.9042 17.714 27 20 27C23.866 27 27 23.866 27 20C27 17.7767 25.9634 15.7954 24.3472 14.5132L24.6146 14.381C26.0621 13.6653 26.9373 12.1494 26.8334 10.5379L26.73 8.93568C26.7085 8.60202 26.5217 8.30119 26.2321 8.13401C25.9425 7.96683 25.5886 7.95543 25.2889 8.10363L23.8496 8.81525C22.4021 9.53097 21.5269 11.0469 21.6308 12.6583L21.6657 13.1994C21.1319 13.0691 20.574 13 20 13C18.7753 13 17.624 13.3145 16.6226 13.8672L16.9778 12.2095C17.0411 11.9142 16.9675 11.6062 16.7777 11.3713C16.5878 11.1365 16.302 11 16 11H10.7808L9.97014 7.75746C9.85885 7.3123 9.45887 7 9 7H6ZM15.0972 20.9859L15.9313 17.0931C16.8383 15.8259 18.3227 15 20 15C22.7614 15 25 17.2386 25 20C25 22.7614 22.7614 25 20 25C17.576 25 15.555 23.2752 15.0972 20.9859ZM9.21922 13L10.0299 16.2425C10.1638 16.7783 10.7067 17.1041 11.2425 16.9701C11.7783 16.8362 12.1041 16.2933 11.9701 15.7575L11.2808 13H14.763L12.1916 25H9.80842L7.237 13H9.21922ZM24.7361 10.6081C24.0123 10.9659 23.5747 11.7239 23.6267 12.5296L23.6335 12.6349L23.7281 12.5882C24.4519 12.2303 24.8895 11.4723 24.8375 10.6666L24.8307 10.5613L24.7361 10.6081Z" fill="#FF355E"/>
</svg>
