<svg width="32" height="32" viewBox="0 0 32 32" fill="none" xmlns="http://www.w3.org/2000/svg">
<path fill-rule="evenodd" clip-rule="evenodd" d="M15 3C12.7909 3 11 4.79086 11 7H8C5.23858 7 3 9.23858 3 12V21C3 23.7614 5.23858 26 8 26H24C26.7614 26 29 23.7614 29 21V12C29 9.23858 26.7614 7 24 7H21C21 4.79086 19.2091 3 17 3H15ZM15 5C13.8954 5 13 5.89543 13 7H19C19 5.89543 18.1046 5 17 5H15ZM5 12C5 10.3431 6.34315 9 8 9H24C25.6569 9 27 10.3431 27 12V14H5V12ZM5 16V21C5 22.6569 6.34315 24 8 24H24C25.6569 24 27 22.6569 27 21V16H20V17C20 18.1046 19.1046 19 18 19H14C12.8954 19 12 18.1046 12 17V16H5ZM14 16V17H18V16H14Z" fill="#FF355E"/>
</svg>
