<svg width="32" height="32" viewBox="0 0 32 32" fill="none" xmlns="http://www.w3.org/2000/svg">
<path d="M12.2509 13.7991C13.3215 12.882 14 11.5202 14 10C14 7.23858 11.7614 5 9 5C6.23858 5 4 7.23858 4 10C4 11.5202 4.67847 12.882 5.74913 13.7991C3.52021 14.97 2 17.3075 2 20C2 21.6569 3.34315 23 5 23V24C5 25.6569 6.34315 27 8 27H10C11.6569 27 13 25.6569 13 24V23C14.6569 23 16 21.6569 16 20C16 17.3075 14.4798 14.97 12.2509 13.7991ZM6 10C6 8.34315 7.34315 7 9 7C10.6569 7 12 8.34315 12 10C12 11.6569 10.6569 13 9 13C7.34315 13 6 11.6569 6 10ZM9 15C11.7614 15 14 17.2386 14 20C14 20.5523 13.5523 21 13 21H12C11.4477 21 11 21.4477 11 22V24C11 24.5523 10.5523 25 10 25H8C7.44771 25 7 24.5523 7 24V22C7 21.4477 6.55228 21 6 21H5C4.44772 21 4 20.5523 4 20C4 17.2386 6.23858 15 9 15Z" fill="#FF355E"/>
<path d="M24.7071 13.7071L20.7071 17.7071C20.3166 18.0976 19.6834 18.0976 19.2929 17.7071L17.2929 15.7071C16.9024 15.3166 16.9024 14.6834 17.2929 14.2929C17.6834 13.9024 18.3166 13.9024 18.7071 14.2929L20 15.5858L23.2929 12.2929C23.6834 11.9024 24.3166 11.9024 24.7071 12.2929C25.0976 12.6834 25.0976 13.3166 24.7071 13.7071Z" fill="#FF355E"/>
<path d="M19 23H18C17.4477 23 17 22.5523 17 22C17 21.4477 17.4477 21 18 21H24C25.6569 21 27 19.6569 27 18V12C27 10.3431 25.6569 9 24 9H18C17.4477 9 17 8.55228 17 8C17 7.44772 17.4477 7 18 7H24C26.7614 7 29 9.23858 29 12V18C29 20.7614 26.7614 23 24 23H21V25H22C22.5523 25 23 25.4477 23 26C23 26.5523 22.5523 27 22 27H18C17.4477 27 17 26.5523 17 26C17 25.4477 17.4477 25 18 25H19V23Z" fill="#FF355E"/>
</svg>
