<svg width="32" height="32" viewBox="0 0 32 32" fill="none" xmlns="http://www.w3.org/2000/svg">
<path fill-rule="evenodd" clip-rule="evenodd" d="M7 14C7 11.7909 8.79086 10 11 10H21C23.2091 10 25 11.7909 25 14V21C25 23.2091 23.2091 25 21 25H11C8.79086 25 7 23.2091 7 21V14ZM9 21C9 22.1046 9.89543 23 11 23H13V21H9ZM13 19H9V17H13V19ZM15 21V23H21C22.1046 23 23 22.1046 23 21H15ZM23 19H15V17H23V19ZM23 15H9V14C9 12.8954 9.89543 12 11 12H21C22.1046 12 23 12.8954 23 14V15Z" fill="#FF355E"/>
<path fill-rule="evenodd" clip-rule="evenodd" d="M3 8C3 5.23858 5.23858 3 8 3H20.3431C21.6692 3 22.941 3.52678 23.8787 4.46447L27.5355 8.12132C28.4732 9.059 29 10.3308 29 11.6569V24C29 26.7614 26.7614 29 24 29H8C5.23858 29 3 26.7614 3 24V8ZM8 5C6.34315 5 5 6.34315 5 8V24C5 25.6569 6.34315 27 8 27H24C25.6569 27 27 25.6569 27 24V11.6569C27 10.8612 26.6839 10.0981 26.1213 9.53553L22.4645 5.87868C21.9019 5.31607 21.1388 5 20.3431 5H8Z" fill="#FF355E"/>
</svg>
