<svg width="32" height="32" viewBox="0 0 32 32" fill="none" xmlns="http://www.w3.org/2000/svg">
<path d="M7.5 6H16.5V11C16.5 11.663 16.7634 12.2989 17.2322 12.7678C17.7011 13.2366 18.337 13.5 19 13.5H24V26.5C24 26.6326 23.9473 26.7598 23.8536 26.8536C23.7598 26.9473 23.6326 27 23.5 27H7.5C7.36739 27 7.24021 26.9473 7.14645 26.8536C7.05268 26.7598 7 26.6326 7 26.5V6.5C7 6.36739 7.05268 6.24021 7.14645 6.14645C7.24021 6.05268 7.36739 6 7.5 6ZM7.5 4C6.83696 4 6.20107 4.26339 5.73223 4.73223C5.26339 5.20107 5 5.83696 5 6.5V26.5C5 27.163 5.26339 27.7989 5.73223 28.2678C6.20108 28.7366 6.83696 29 7.5 29H23.5C24.163 29 24.7989 28.7366 25.2678 28.2678C25.7366 27.7989 26 27.163 26 26.5V12.371C25.9999 11.7084 25.7367 11.0728 25.2683 10.6041L19.3961 4.73189C18.9274 4.26353 18.2918 4.00014 17.6292 4H7.5ZM18.5 6.66421L23.3358 11.5H19C18.8674 11.5 18.7402 11.4473 18.6464 11.3536C18.5527 11.2598 18.5 11.1326 18.5 11V6.66421ZM14.0191 13.0581C14.4609 13.3895 14.5504 14.0163 14.2189 14.4581L12.0869 17.3001C11.9364 17.5005 11.7443 17.6666 11.5242 17.7865C11.3041 17.9064 11.0609 17.9776 10.8109 17.9953C10.5609 18.013 10.31 17.9767 10.0752 17.8891C9.84052 17.8015 9.62738 17.6645 9.4502 17.4874C9.45012 17.4873 9.45028 17.4875 9.4502 17.4874L8.2932 16.3314C7.90251 15.9411 7.90223 15.3079 8.29259 14.9172C8.68294 14.5265 9.31611 14.5262 9.7068 14.9166L10.6602 15.8691L12.6191 13.2579C12.9505 12.8161 13.5773 12.7266 14.0191 13.0581ZM10.864 16.0728C10.864 16.0728 10.8641 16.0729 10.864 16.0728V16.0728ZM15.5 17C15.5 16.4477 15.9477 16 16.5 16H21C21.5523 16 22 16.4477 22 17C22 17.5523 21.5523 18 21 18H16.5C15.9477 18 15.5 17.5523 15.5 17ZM14.0191 19.8081C14.4609 20.1395 14.5504 20.7663 14.2189 21.2081L12.0869 24.0501C11.9364 24.2505 11.7443 24.4166 11.5242 24.5365C11.3041 24.6564 11.0609 24.7276 10.8109 24.7453C10.5609 24.763 10.31 24.7267 10.0752 24.6391C9.84041 24.5514 9.62718 24.4144 9.44996 24.2372L8.29289 23.0801C7.90237 22.6896 7.90237 22.0564 8.29289 21.6659C8.68342 21.2754 9.31658 21.2754 9.70711 21.6659L10.6603 22.619L12.6191 20.0079C12.9505 19.5661 13.5773 19.4766 14.0191 19.8081ZM15.5 23C15.5 22.4477 15.9477 22 16.5 22H21C21.5523 22 22 22.4477 22 23C22 23.5523 21.5523 24 21 24H16.5C15.9477 24 15.5 23.5523 15.5 23Z" fill="#FF355E"/>
</svg>
