<svg width="32" height="32" viewBox="0 0 32 32" fill="none" xmlns="http://www.w3.org/2000/svg">
<path d="M11.1707 3C11.5825 1.83481 12.6938 1 14 1H18C19.3062 1 20.4175 1.83481 20.8293 3H21C23.7614 3 26 5.23858 26 8V14C26 14.5523 25.5523 15 25 15C24.4477 15 24 14.5523 24 14V8C24 6.34315 22.6569 5 21 5H20C19.4477 5 19 4.55228 19 4C19 3.44772 18.5523 3 18 3H14C13.4477 3 13 3.44772 13 4C13 4.55228 12.5523 5 12 5H11C9.34315 5 8 6.34315 8 8V24C8 25.6569 9.34315 27 11 27H16C16.5523 27 17 27.4477 17 28C17 28.5523 16.5523 29 16 29H11C8.23858 29 6 26.7614 6 24V8C6 5.23858 8.23858 3 11 3H11.1707Z" fill="#FF355E"/>
<path d="M14 6C14 5.44772 14.4477 5 15 5H17C17.5523 5 18 5.44772 18 6C18 6.55228 17.5523 7 17 7H15C14.4477 7 14 6.55228 14 6Z" fill="#FF355E"/>
<path d="M12 11C11.4477 11 11 11.4477 11 12C11 12.5523 11.4477 13 12 13H20C20.5523 13 21 12.5523 21 12C21 11.4477 20.5523 11 20 11H12Z" fill="#FF355E"/>
<path d="M11 17C11 16.4477 11.4477 16 12 16H17C17.5523 16 18 16.4477 18 17C18 17.5523 17.5523 18 17 18H12C11.4477 18 11 17.5523 11 17Z" fill="#FF355E"/>
<path d="M12 21C11.4477 21 11 21.4477 11 22C11 22.5523 11.4477 23 12 23H15C15.5523 23 16 22.5523 16 22C16 21.4477 15.5523 21 15 21H12Z" fill="#FF355E"/>
<path fill-rule="evenodd" clip-rule="evenodd" d="M28 23C28 20.2386 25.7614 18 23 18C20.2386 18 18 20.2386 18 23C18 25.7614 20.2386 28 23 28C24.0191 28 24.967 27.6951 25.7574 27.1716L27.7929 29.2071C28.1834 29.5976 28.8166 29.5976 29.2071 29.2071C29.5976 28.8166 29.5976 28.1834 29.2071 27.7929L27.1716 25.7574C27.6951 24.967 28 24.0191 28 23ZM23 20C24.6569 20 26 21.3431 26 23C26 24.6569 24.6569 26 23 26C21.3431 26 20 24.6569 20 23C20 21.3431 21.3431 20 23 20Z" fill="#FF355E"/>
</svg>
