<svg width="32" height="32" viewBox="0 0 32 32" fill="none" xmlns="http://www.w3.org/2000/svg">
<path d="M20.7071 13.7071C21.0976 13.3166 21.0976 12.6834 20.7071 12.2929C20.3166 11.9024 19.6834 11.9024 19.2929 12.2929L14 17.5858L12.7071 16.2929C12.3166 15.9024 11.6834 15.9024 11.2929 16.2929C10.9024 16.6834 10.9024 17.3166 11.2929 17.7071L13.2929 19.7071C13.6834 20.0976 14.3166 20.0976 14.7071 19.7071L20.7071 13.7071Z" fill="#FF355E"/>
<path fill-rule="evenodd" clip-rule="evenodd" d="M3 24C3 26.7614 5.23858 29 8 29L18.3431 29C19.6692 29 20.941 28.4732 21.8787 27.5355L27.5355 21.8787C28.4732 20.941 29 19.6692 29 18.3431L29 8C29 5.23858 26.7614 3 24 3H8C5.23858 3 3 5.23858 3 8V24ZM8 27C6.34315 27 5 25.6569 5 24L5 8C5 6.34315 6.34315 5 8 5L24 5C25.6569 5 27 6.34315 27 8L27 18.3431C27 18.5659 26.9752 18.7861 26.9272 19H21C19.3431 19 18 20.3431 18 22V27L8 27ZM21 21H25.5858L20.4645 26.1213C20.3216 26.2641 20.1659 26.3911 20 26.501V22C20 21.4477 20.4477 21 21 21Z" fill="#FF355E"/>
</svg>
