<svg width="32" height="32" viewBox="0 0 32 32" fill="none" xmlns="http://www.w3.org/2000/svg">
<path d="M14 6C14 5.44772 14.4477 5 15 5H17C17.5523 5 18 5.44772 18 6C18 6.55228 17.5523 7 17 7H15C14.4477 7 14 6.55228 14 6Z" fill="#FF355E"/>
<path d="M12 11C11.4477 11 11 11.4477 11 12C11 12.5523 11.4477 13 12 13H20C20.5523 13 21 12.5523 21 12C21 11.4477 20.5523 11 20 11H12Z" fill="#FF355E"/>
<path d="M11 17C11 16.4477 11.4477 16 12 16H20C20.5523 16 21 16.4477 21 17C21 17.5523 20.5523 18 20 18H12C11.4477 18 11 17.5523 11 17Z" fill="#FF355E"/>
<path d="M12 21C11.4477 21 11 21.4477 11 22C11 22.5523 11.4477 23 12 23H20C20.5523 23 21 22.5523 21 22C21 21.4477 20.5523 21 20 21H12Z" fill="#FF355E"/>
<path fill-rule="evenodd" clip-rule="evenodd" d="M11.1707 3C11.5825 1.83481 12.6938 1 14 1H18C19.3062 1 20.4175 1.83481 20.8293 3H21C23.7614 3 26 5.23858 26 8V24C26 26.7614 23.7614 29 21 29H11C8.23858 29 6 26.7614 6 24V8C6 5.23858 8.23858 3 11 3H11.1707ZM14 3C13.4477 3 13 3.44772 13 4C13 4.55228 12.5523 5 12 5H11C9.34315 5 8 6.34315 8 8V24C8 25.6569 9.34315 27 11 27H21C22.6569 27 24 25.6569 24 24V8C24 6.34315 22.6569 5 21 5H20C19.4477 5 19 4.55228 19 4C19 3.44772 18.5523 3 18 3H14Z" fill="#FF355E"/>
</svg>
