<svg width="32" height="32" viewBox="0 0 32 32" fill="none" xmlns="http://www.w3.org/2000/svg">
<path d="M16 7C12.253 7 9.03859 9.29003 7.68437 12.5507C7.47254 13.0608 6.88735 13.3025 6.3773 13.0907C5.86726 12.8789 5.6255 12.2937 5.83733 11.7836C7.4907 7.80262 11.4169 5 16 5C17.9319 5 19.7503 5.49888 21.3302 6.3756C21.8131 6.64357 21.9874 7.25229 21.7194 7.7352C21.4514 8.21812 20.8427 8.39237 20.3598 8.1244C19.0691 7.40821 17.5837 7 16 7Z" fill="#FF355E"/>
<path d="M24.1615 10.1344C24.6395 9.85785 25.2512 10.0212 25.5278 10.4993C26.4643 12.1182 27 13.9981 27 16V21.625C27 22.1773 26.5523 22.625 26 22.625C25.4477 22.625 25 22.1773 25 21.625V16C25 14.359 24.5617 12.8235 23.7966 11.5007C23.52 11.0227 23.6834 10.4109 24.1615 10.1344Z" fill="#FF355E"/>
<path d="M6 15.625C6.55228 15.625 7 16.0727 7 16.625V21.625C7 22.1773 6.55228 22.625 6 22.625C5.44772 22.625 5 22.1773 5 21.625V16.625C5 16.0727 5.44772 15.625 6 15.625Z" fill="#FF355E"/>
<path d="M10 16C10 12.6863 12.6863 10 16 10C18.2221 10 20.1608 11.2085 21.1967 12.9993C21.4653 13.4637 21.6737 13.9678 21.8109 14.5007C21.9486 15.0356 21.6266 15.5808 21.0917 15.7184C20.5569 15.8561 20.0117 15.5341 19.874 14.9993C19.7829 14.6453 19.6444 14.3101 19.4655 14.0007C18.7724 12.8025 17.4793 12 16 12C13.7909 12 12 13.7909 12 16V17.875C12 18.4273 11.5523 18.875 11 18.875C10.4477 18.875 10 18.4273 10 17.875V16Z" fill="#FF355E"/>
<path d="M21 18.75C21.5523 18.75 22 19.1977 22 19.75V24.75C22 25.3023 21.5523 25.75 21 25.75C20.4477 25.75 20 25.3023 20 24.75V19.75C20 19.1977 20.4477 18.75 21 18.75Z" fill="#FF355E"/>
<path d="M11 21.875C11.5523 21.875 12 22.3227 12 22.875V24.75C12 25.3023 11.5523 25.75 11 25.75C10.4477 25.75 10 25.3023 10 24.75V22.875C10 22.3227 10.4477 21.875 11 21.875Z" fill="#FF355E"/>
<path d="M17 16C17 15.4477 16.5523 15 16 15C15.4477 15 15 15.4477 15 16V26C15 26.5523 15.4477 27 16 27C16.5523 27 17 26.5523 17 26V16Z" fill="#FF355E"/>
</svg>
