<svg width="32" height="32" viewBox="0 0 32 32" fill="none" xmlns="http://www.w3.org/2000/svg">
<path fill-rule="evenodd" clip-rule="evenodd" d="M20.0207 5.12563C18.5776 5.40811 17.1713 6.14407 16 7.11614C14.8287 6.14407 13.4224 5.40811 11.9793 5.12563C10.2044 4.77821 8.32156 5.11775 6.87982 6.61434C6.50673 7.00162 6.50673 7.61463 6.87982 8.00191L8.56444 9.75062C7.5357 10.0063 6.51265 10.3937 5.62838 10.9476C4.16042 11.8671 3 13.3067 3 15.3606C3 15.9129 3.44772 16.3606 4 16.3606H5.85064C5.53213 16.9811 5.25263 17.6453 5.06529 18.3303C4.70668 19.6414 4.66574 21.1121 5.42993 22.4861C5.56156 22.7228 5.78357 22.8959 6.04517 22.966C6.30678 23.036 6.58561 22.997 6.81791 22.8578L11.721 19.9193L11.0973 26H8C7.44772 26 7 26.4477 7 27C7 27.5523 7.44772 28 8 28H24C24.5523 28 25 27.5523 25 27C25 26.4477 24.5523 26 24 26H20.9027L20.2791 19.9193L25.1821 22.8578C25.4144 22.997 25.6932 23.036 25.9548 22.966C26.2164 22.8959 26.4384 22.7228 26.5701 22.4861C27.3455 21.092 27.25 19.6052 26.8502 18.3011C26.6434 17.6263 26.347 16.9714 26.0191 16.3606H28C28.5523 16.3606 29 15.9129 29 15.3606C29 13.3067 27.8396 11.8671 26.3716 10.9476C25.4873 10.3937 24.4643 10.0063 23.4356 9.75062L25.1202 8.00191C25.4933 7.61463 25.4933 7.00162 25.1202 6.61434C23.6784 5.11775 21.7956 4.77821 20.0207 5.12563ZM18.1369 18.6355L16 17.3548L13.8632 18.6355L13.1078 25.9999H18.8922L18.1369 18.6355ZM11.3084 9.71618L9.08395 7.40716C9.8193 6.99498 10.6761 6.90851 11.5951 7.08838C12.8822 7.34033 14.2319 8.11486 15.2935 9.17467C15.6839 9.56439 16.3161 9.56439 16.7065 9.17467C17.7681 8.11486 19.1178 7.34033 20.4049 7.08838C21.3239 6.90851 22.1807 6.99498 22.916 7.40716L20.6917 9.71618C20.4265 9.99136 20.3414 10.3936 20.4723 10.7525C20.6032 11.1115 20.9273 11.3645 21.3073 11.4045C22.7308 11.5541 24.2142 11.9562 25.3099 12.6425C26.0505 13.1064 26.5757 13.6693 26.8288 14.3606H24.248C23.88 14.3606 23.5418 14.5627 23.3674 14.8867C23.193 15.2108 23.2107 15.6044 23.4135 15.9115C24.0334 16.8505 24.6283 17.8766 24.938 18.8871C25.1156 19.4665 25.189 20.0038 25.1379 20.4996L16.5141 15.3313C16.1976 15.1416 15.8024 15.1416 15.4859 15.3313L6.84637 20.5091C6.77709 19.9967 6.83382 19.4451 6.99443 18.8579C7.26892 17.8544 7.8258 16.8335 8.43453 15.9115C8.63728 15.6044 8.65498 15.2108 8.48062 14.8867C8.30625 14.5627 7.96799 14.3606 7.6 14.3606H5.17118C5.42427 13.6693 5.94953 13.1064 6.69005 12.6425C7.78579 11.9562 9.26919 11.5541 10.6927 11.4045C11.0727 11.3645 11.3968 11.1115 11.5277 10.7525C11.6586 10.3936 11.5735 9.99136 11.3084 9.71618Z" fill="#FF355E"/>
</svg>
