<svg width="32" height="32" viewBox="0 0 32 32" fill="none" xmlns="http://www.w3.org/2000/svg">
<path d="M17.1108 13.1807C17.1108 12.6284 16.6631 12.1807 16.1108 12.1807C15.5586 12.1807 15.1108 12.6284 15.1108 13.1807V16.296C15.1108 17.0223 15.5046 17.6915 16.1395 18.0443L19.7918 20.0733C20.2746 20.3415 20.8834 20.1676 21.1516 19.6848C21.4198 19.202 21.2459 18.5932 20.7631 18.325L17.1108 16.296V13.1807Z" fill="#FF355E"/>
<path fill-rule="evenodd" clip-rule="evenodd" d="M13 2C12.4477 2 12 2.44772 12 3C12 3.55228 12.4477 4 13 4H15V6.04483C9.39351 6.54999 5 11.2619 5 17C5 23.0751 9.92479 28 15.9998 28C22.0749 28 26.9997 23.0751 26.9997 17C26.9997 11.262 22.6063 6.55017 17 6.04486V4H18.5555C19.1078 4 19.5555 3.55228 19.5555 3C19.5555 2.44772 19.1078 2 18.5555 2H13ZM24.9997 17C24.9997 21.9706 20.9703 26 15.9998 26C11.0294 26 7 21.9706 7 17C7 12.0294 11.0294 8 15.9998 8C20.9703 8 24.9997 12.0294 24.9997 17Z" fill="#FF355E"/>
<path d="M24.2929 5.29289C24.6834 4.90236 25.3166 4.90236 25.7071 5.29289L27.8284 7.41422C28.2189 7.80475 28.2189 8.43791 27.8284 8.82844C27.4379 9.21897 26.8047 9.21897 26.4142 8.82844L24.2929 6.70711C23.9024 6.31658 23.9024 5.68342 24.2929 5.29289Z" fill="#FF355E"/>
<path d="M6.41423 5.29289C6.80475 4.90236 7.43792 4.90236 7.82844 5.29289C8.21896 5.68342 8.21896 6.31658 7.82844 6.70711L5.70713 8.82844C5.31661 9.21897 4.68344 9.21897 4.29292 8.82844C3.9024 8.43791 3.9024 7.80475 4.29292 7.41422L6.41423 5.29289Z" fill="#FF355E"/>
</svg>
