<svg width="32" height="32" viewBox="0 0 32 32" fill="none" xmlns="http://www.w3.org/2000/svg">
<path fill-rule="evenodd" clip-rule="evenodd" d="M8 5C5.23858 5 3 7.23858 3 10V22C3 24.7614 5.23858 27 8 27H13C13.5523 27 14 26.5523 14 26C14 25.4477 13.5523 25 13 25H8C6.34315 25 5 23.6569 5 22V13H27V14C27 14.5523 27.4477 15 28 15C28.5523 15 29 14.5523 29 14V10C29 7.23858 26.7614 5 24 5H8ZM27 11V10C27 8.34315 25.6569 7 24 7H8C6.34315 7 5 8.34315 5 10V11H27Z" fill="#FF355E"/>
<path d="M24 20C24.5523 20 25 20.4477 25 21V23H26C26.5523 23 27 23.4477 27 24C27 24.5523 26.5523 25 26 25H24C23.4477 25 23 24.5523 23 24V21C23 20.4477 23.4477 20 24 20Z" fill="#FF355E"/>
<path fill-rule="evenodd" clip-rule="evenodd" d="M17 24C17 20.134 20.134 17 24 17C27.866 17 31 20.134 31 24C31 27.866 27.866 31 24 31C20.134 31 17 27.866 17 24ZM24 19C21.2386 19 19 21.2386 19 24C19 26.7614 21.2386 29 24 29C26.7614 29 29 26.7614 29 24C29 21.2386 26.7614 19 24 19Z" fill="#FF355E"/>
</svg>
