<svg width="32" height="32" viewBox="0 0 32 32" fill="none" xmlns="http://www.w3.org/2000/svg">
<path d="M5 11C5 9.34315 6.34315 8 8 8H24C25.6569 8 27 9.34315 27 11V14.5C27 15.0523 27.4477 15.5 28 15.5C28.5523 15.5 29 15.0523 29 14.5V11C29 8.23858 26.7614 6 24 6H8C5.23858 6 3 8.23858 3 11V21C3 23.7614 5.23858 26 8 26H13.5C14.0523 26 14.5 25.5523 14.5 25C14.5 24.4477 14.0523 24 13.5 24H8C6.34315 24 5 22.6569 5 21V11Z" fill="#FF355E"/>
<path d="M24 20.5C24.5523 20.5 25 20.9477 25 21.5V23H26C26.5523 23 27 23.4477 27 24C27 24.5523 26.5523 25 26 25H24C23.4477 25 23 24.5523 23 24V21.5C23 20.9477 23.4477 20.5 24 20.5Z" fill="#FF355E"/>
<path fill-rule="evenodd" clip-rule="evenodd" d="M17 24C17 20.134 20.134 17 24 17C27.866 17 31 20.134 31 24C31 27.866 27.866 31 24 31C20.134 31 17 27.866 17 24ZM24 19C21.2386 19 19 21.2386 19 24C19 26.7614 21.2386 29 24 29C26.7614 29 29 26.7614 29 24C29 21.2386 26.7614 19 24 19Z" fill="#FF355E"/>
<path d="M8 13C8 12.4477 8.44772 12 9 12H23C23.5523 12 24 12.4477 24 13C24 13.5523 23.5523 14 23 14H9C8.44772 14 8 13.5523 8 13Z" fill="#FF355E"/>
<path d="M9 18C8.44772 18 8 18.4477 8 19C8 19.5523 8.44772 20 9 20H15C15.5523 20 16 19.5523 16 19C16 18.4477 15.5523 18 15 18H9Z" fill="#FF355E"/>
</svg>
