<svg width="32" height="32" viewBox="0 0 32 32" fill="none" xmlns="http://www.w3.org/2000/svg">
<path d="M11.2071 6.29289C10.8166 5.90237 10.1834 5.90237 9.79289 6.29289L5.29289 10.7929C4.90237 11.1834 4.90237 11.8166 5.29289 12.2071C5.68342 12.5976 6.31658 12.5976 6.70711 12.2071L9.5 9.41421V26C9.5 26.5523 9.94772 27 10.5 27C11.0523 27 11.5 26.5523 11.5 26V9.41421L14.2929 12.2071C14.6834 12.5976 15.3166 12.5976 15.7071 12.2071C16.0976 11.8166 16.0976 11.1834 15.7071 10.7929L11.2071 6.29289Z" fill="#FF355E"/>
<path d="M16.2929 22.2071L20.7929 26.7071C21.1834 27.0976 21.8166 27.0976 22.2071 26.7071L26.7071 22.2071C27.0976 21.8166 27.0976 21.1834 26.7071 20.7929C26.3166 20.4024 25.6834 20.4024 25.2929 20.7929L22.5 23.5858L22.5 7C22.5 6.44772 22.0523 6 21.5 6C20.9477 6 20.5 6.44772 20.5 7L20.5 23.5858L17.7071 20.7929C17.3166 20.4024 16.6834 20.4024 16.2929 20.7929C15.9024 21.1834 15.9024 21.8166 16.2929 22.2071Z" fill="#FF355E"/>
</svg>
