<svg width="32" height="32" viewBox="0 0 32 32" fill="none" xmlns="http://www.w3.org/2000/svg">
<path d="M11 15C11.5523 15 12 15.4477 12 16V17C12 17.5523 11.5523 18 11 18C10.4477 18 10 17.5523 10 17V16C10 15.4477 10.4477 15 11 15Z" fill="#FF355E"/>
<path fill-rule="evenodd" clip-rule="evenodd" d="M6 17C6 14.2386 8.23858 12 11 12C13.7614 12 16 14.2386 16 17C16 19.7614 13.7614 22 11 22C8.23858 22 6 19.7614 6 17ZM11 14C9.34315 14 8 15.3431 8 17C8 18.6569 9.34315 20 11 20C12.6569 20 14 18.6569 14 17C14 15.3431 12.6569 14 11 14Z" fill="#FF355E"/>
<path d="M22 18C22.5523 18 23 17.5523 23 17C23 16.4477 22.5523 16 22 16H21C20.4477 16 20 16.4477 20 17C20 17.5523 20.4477 18 21 18H22Z" fill="#FF355E"/>
<path fill-rule="evenodd" clip-rule="evenodd" d="M16 17C16 14.2386 18.2386 12 21 12C23.7614 12 26 14.2386 26 17C26 19.7614 23.7614 22 21 22C18.2386 22 16 19.7614 16 17ZM18 17C18 15.3431 19.3431 14 21 14C22.6569 14 24 15.3431 24 17C24 18.6569 22.6569 20 21 20C19.3431 20 18 18.6569 18 17Z" fill="#FF355E"/>
<path fill-rule="evenodd" clip-rule="evenodd" d="M14 4C14.5523 4 15 4.44772 15 5C15 5.55228 14.5523 6 14 6V8H18V6C17.4477 6 17 5.55228 17 5C17 4.44772 17.4477 4 18 4H25C25.5523 4 26 4.44772 26 5C26 5.55228 25.5523 6 25 6V8.10002C27.2822 8.56329 29 10.581 29 13V24C29 25.1046 28.1046 26 27 26H5C3.89543 26 3 25.1046 3 24V13C3 10.581 4.71776 8.56329 7 8.10002V6C6.44772 6 6 5.55228 6 5C6 4.44772 6.44772 4 7 4H14ZM20 8V6H23V8H20ZM12 6V8H9V6H12ZM24 10H8C6.34315 10 5 11.3431 5 13V24H27V13C27 11.3431 25.6569 10 24 10Z" fill="#FF355E"/>
</svg>
