<svg width="32" height="32" viewBox="0 0 32 32" fill="none" xmlns="http://www.w3.org/2000/svg">
<path d="M8 7C6.34315 7 5 8.34315 5 10V19H4.8C3.80589 19 3 19.8059 3 20.8C3 23.1196 4.8804 25 7.2 25H13C13.5523 25 14 24.5523 14 24C14 23.4477 13.5523 23 13 23H7.2C6.05239 23 5.11001 22.1213 5.00897 21H14C14.5523 21 15 20.5523 15 20C15 19.4477 14.5523 19 14 19H7V10C7 9.44772 7.44772 9 8 9H24C24.5523 9 25 9.44772 25 10V13C25 13.5523 25.4477 14 26 14C26.5523 14 27 13.5523 27 13V10C27 8.34315 25.6569 7 24 7H8Z" fill="#FF355E"/>
<path fill-rule="evenodd" clip-rule="evenodd" d="M24 17C20.134 17 17 20.134 17 24C17 27.866 20.134 31 24 31C27.866 31 31 27.866 31 24C31 20.134 27.866 17 24 17ZM19 24C19 21.2386 21.2386 19 24 19C25.0191 19 25.9669 19.3049 26.7574 19.8284L19.8284 26.7574C19.3049 25.9669 19 25.0191 19 24ZM21.2426 28.1716C22.033 28.6951 22.9809 29 24 29C26.7614 29 29 26.7614 29 24C29 22.9809 28.6951 22.033 28.1716 21.2426L21.2426 28.1716Z" fill="#FF355E"/>
</svg>
