<svg width="32" height="32" viewBox="0 0 32 32" fill="none" xmlns="http://www.w3.org/2000/svg">
<path d="M5 10C5 8.34315 6.34315 7 8 7H24C25.6569 7 27 8.34315 27 10V13C27 13.5523 26.5523 14 26 14C25.4477 14 25 13.5523 25 13V10C25 9.44772 24.5523 9 24 9H8C7.44772 9 7 9.44772 7 10V19H14C14.5523 19 15 19.4477 15 20C15 20.5523 14.5523 21 14 21H5.00897C5.11001 22.1213 6.05239 23 7.2 23H13C13.5523 23 14 23.4477 14 24C14 24.5523 13.5523 25 13 25H7.2C4.8804 25 3 23.1196 3 20.8C3 19.8059 3.80589 19 4.8 19H5V10Z" fill="#FF355E"/>
<path d="M23 24.4142V26C23 26.5523 23.4477 27 24 27C24.5523 27 25 26.5523 25 26V24.4142L25.2929 24.7071C25.6834 25.0976 26.3166 25.0976 26.7071 24.7071C27.0976 24.3166 27.0976 23.6834 26.7071 23.2929L24.7071 21.2929C24.6112 21.197 24.5007 21.1247 24.3828 21.0759C24.2657 21.0273 24.1375 21.0004 24.003 21L24 21L23.997 21C23.8625 21.0004 23.7343 21.0273 23.6172 21.0759C23.4993 21.1247 23.3888 21.197 23.2929 21.2929L21.2929 23.2929C20.9024 23.6834 20.9024 24.3166 21.2929 24.7071C21.6834 25.0976 22.3166 25.0976 22.7071 24.7071L23 24.4142Z" fill="#FF355E"/>
<path fill-rule="evenodd" clip-rule="evenodd" d="M24 17C20.134 17 17 20.134 17 24C17 27.866 20.134 31 24 31C27.866 31 31 27.866 31 24C31 20.134 27.866 17 24 17ZM19 24C19 21.2386 21.2386 19 24 19C26.7614 19 29 21.2386 29 24C29 26.7614 26.7614 29 24 29C21.2386 29 19 26.7614 19 24Z" fill="#FF355E"/>
</svg>
