<svg width="32" height="32" viewBox="0 0 32 32" fill="none" xmlns="http://www.w3.org/2000/svg">
<path d="M12.8995 14.7782C11.7279 15.9498 11.7279 17.8493 12.8995 19.0209L15.7279 21.8493C17.6806 23.8019 20.8464 23.8019 22.799 21.8493L26.3345 18.3137C28.6777 15.9706 28.6777 12.1716 26.3345 9.82847C23.9914 7.48532 20.1924 7.48532 17.8493 9.82847C17.4587 10.219 17.4587 10.8522 17.8493 11.2427C18.2398 11.6332 18.8729 11.6332 19.2635 11.2427C20.8256 9.68058 23.3582 9.68058 24.9203 11.2427C26.4824 12.8048 26.4824 15.3374 24.9203 16.8995L21.3848 20.4351C20.2132 21.6066 18.3137 21.6066 17.1421 20.4351L14.3137 17.6066C13.9232 17.2161 13.9232 16.583 14.3137 16.1924C14.7042 15.8019 14.7042 15.1687 14.3137 14.7782C13.9232 14.3877 13.29 14.3877 12.8995 14.7782Z" fill="#FF355E"/>
<path d="M19.2634 18.3138C20.435 17.1422 20.435 15.2428 19.2634 14.0712L16.435 11.2428C14.4824 9.29013 11.3166 9.29013 9.36394 11.2428L5.8284 14.7783C3.48526 17.1214 3.48526 20.9204 5.8284 23.2636C8.17155 25.6067 11.9705 25.6067 14.3137 23.2636C14.7042 22.873 14.7042 22.2399 14.3137 21.8494C13.9232 21.4588 13.29 21.4588 12.8995 21.8494C11.3374 23.4115 8.80471 23.4115 7.24262 21.8494C5.68052 20.2873 5.68052 17.7546 7.24262 16.1925L10.7782 12.657C11.9497 11.4854 13.8492 11.4854 15.0208 12.657L17.8492 15.4854C18.2397 15.8759 18.2397 16.5091 17.8492 16.8996C17.4587 17.2901 17.4587 17.9233 17.8492 18.3138C18.2397 18.7043 18.8729 18.7043 19.2634 18.3138Z" fill="#FF355E"/>
</svg>
