<svg width="32" height="32" viewBox="0 0 32 32" fill="none" xmlns="http://www.w3.org/2000/svg">
<path d="M7 10.5C7 6.91015 9.91015 4 13.5 4C17.0899 4 20 6.91015 20 10.5C20 14.0899 17.0899 17 13.5 17C9.91015 17 7 14.0899 7 10.5ZM13.5 6C11.0147 6 9 8.01472 9 10.5C9 12.9853 11.0147 15 13.5 15C15.9853 15 18 12.9853 18 10.5C18 8.01472 15.9853 6 13.5 6Z" fill="#FF355E"/>
<path d="M28.2071 18.7929C26.9882 17.574 25.0119 17.574 23.7929 18.7929L17.7929 24.7929C17.6399 24.9459 17.5407 25.1444 17.5101 25.3586L17.0101 28.8586C16.9655 29.1702 17.0703 29.4846 17.2929 29.7071C17.5155 29.9297 17.8298 30.0345 18.1414 29.99L21.6414 29.49C21.8556 29.4594 22.0541 29.3601 22.2071 29.2071L28.2071 23.2071C29.4261 21.9882 29.4261 20.0119 28.2071 18.7929ZM26.7929 20.2071C27.2308 20.645 27.2308 21.355 26.7929 21.7929L21.0286 27.5572L19.1785 27.8215L19.4428 25.9714L25.2071 20.2071C25.645 19.7692 26.355 19.7692 26.7929 20.2071Z" fill="#FF355E"/>
<path d="M7 24C7 21.7909 8.79086 20 11 20H18C18.5523 20 19 19.5523 19 19C19 18.4477 18.5523 18 18 18H11C7.68629 18 5 20.6863 5 24C5 24.5523 5.44772 25 6 25C6.55228 25 7 24.5523 7 24Z" fill="#FF355E"/>
</svg>
