<svg width="32" height="32" viewBox="0 0 32 32" fill="none" xmlns="http://www.w3.org/2000/svg">
<path fill-rule="evenodd" clip-rule="evenodd" d="M11 13C9.89543 13 9 13.8954 9 15V17H8C7.44772 17 7 17.4477 7 18C7 18.5523 7.44772 19 8 19H24C24.5523 19 25 18.5523 25 18C25 17.4477 24.5523 17 24 17H23V12C23 10.8954 22.1046 10 21 10H19C17.8954 10 17 10.8954 17 12H15C14.2529 12 13.6015 12.4096 13.2581 13.0165C13.1736 13.0056 13.0875 13 13 13H11ZM13 17H11V15H13V17ZM17 17H15V14H17V17ZM21 17H19V12H21V17Z" fill="#FF355E"/>
<path fill-rule="evenodd" clip-rule="evenodd" d="M8 5C5.23858 5 3 7.23858 3 10V19C3 21.7614 5.23858 24 8 24H11.3819L10.1055 26.5528C9.85856 27.0468 10.0588 27.6474 10.5528 27.8944C11.0467 28.1414 11.6474 27.9412 11.8944 27.4472L13.618 24H15V28C15 28.5523 15.4477 29 16 29C16.5523 29 17 28.5523 17 28V24H18.382L20.1056 27.4472C20.3526 27.9412 20.9533 28.1414 21.4472 27.8944C21.9412 27.6474 22.1414 27.0468 21.8945 26.5528L20.6181 24H24C26.7614 24 29 21.7614 29 19V10C29 7.23858 26.7614 5 24 5H8ZM19.0199 22H24C25.6569 22 27 20.6569 27 19V10C27 8.34315 25.6569 7 24 7H8C6.34315 7 5 8.34315 5 10V19C5 20.6569 6.34315 22 8 22H12.9801C12.9938 21.9997 13.0076 21.9997 13.0214 22H18.9786C18.9924 21.9997 19.0062 21.9997 19.0199 22Z" fill="#FF355E"/>
</svg>
