<svg width="32" height="32" viewBox="0 0 32 32" fill="none" xmlns="http://www.w3.org/2000/svg">
<path d="M7 10.5C7 6.91015 9.91015 4 13.5 4C17.0899 4 20 6.91015 20 10.5C20 14.0899 17.0899 17 13.5 17C9.91015 17 7 14.0899 7 10.5ZM13.5 6C11.0147 6 9 8.01472 9 10.5C9 12.9853 11.0147 15 13.5 15C15.9853 15 18 12.9853 18 10.5C18 8.01472 15.9853 6 13.5 6Z" fill="#FF355E"/>
<path d="M17 22.96C17 20.6859 18.6957 18 21.5333 18C22.5858 18 23.4002 18.3621 24 18.8077C24.5998 18.3621 25.4142 18 26.4667 18C29.3043 18 31 20.6859 31 22.96C31 25.372 29.2033 27.3924 27.6913 28.6903C26.902 29.3678 26.1135 29.9136 25.5156 30.2903C25.216 30.4791 24.96 30.6282 24.7703 30.7325C24.6762 30.7842 24.5935 30.8277 24.527 30.8605C24.4951 30.8762 24.4577 30.894 24.4203 30.91C24.4028 30.9175 24.3725 30.9302 24.336 30.9428C24.3182 30.9489 24.2868 30.9593 24.2474 30.9692C24.2225 30.9755 24.1251 31 24 31C23.8749 31 23.7784 30.9757 23.7535 30.9695C23.7141 30.9596 23.6818 30.9489 23.664 30.9428C23.6275 30.9302 23.5972 30.9175 23.5797 30.91C23.5423 30.894 23.5049 30.8762 23.473 30.8605C23.4065 30.8277 23.3238 30.7842 23.2297 30.7325C23.04 30.6282 22.784 30.4791 22.4844 30.2903C21.8865 29.9136 21.098 29.3678 20.3087 28.6903C18.7967 27.3924 17 25.372 17 22.96ZM21.5333 20C20.1443 20 19 21.4116 19 22.96C19 24.4186 20.1499 25.9182 21.6113 27.1727C22.3087 27.7713 23.0135 28.2598 23.5506 28.5983C23.721 28.7056 23.8727 28.7968 24 28.8706C24.1273 28.7968 24.279 28.7056 24.4494 28.5983C24.9865 28.2598 25.6913 27.7713 26.3887 27.1727C27.8501 25.9182 29 24.4186 29 22.96C29 21.4116 27.8557 20 26.4667 20C25.6418 20 25.1055 20.4125 24.7671 20.8172C24.5771 21.0444 24.2962 21.1756 24 21.1756C23.7038 21.1756 23.4229 21.0444 23.2329 20.8172C22.8945 20.4125 22.3582 20 21.5333 20Z" fill="#FF355E"/>
<path d="M7 24C7 21.7909 8.79086 20 11 20H15C15.5523 20 16 19.5523 16 19C16 18.4477 15.5523 18 15 18H11C7.68629 18 5 20.6863 5 24C5 24.5523 5.44772 25 6 25C6.55228 25 7 24.5523 7 24Z" fill="#FF355E"/>
</svg>
