<svg width="32" height="32" viewBox="0 0 32 32" fill="none" xmlns="http://www.w3.org/2000/svg">
<path d="M11 14C11 11.2386 13.2386 9 16 9C18.7614 9 21 11.2386 21 14C21 15.5493 20.2954 16.9339 19.1891 17.8511C20.2643 18.4261 21.2072 19.3139 21.8742 20.5144C22.1424 20.9971 21.9684 21.6059 21.4856 21.8742C21.0029 22.1424 20.3941 21.9684 20.1258 21.4856C18.3276 18.2488 13.6724 18.2488 11.8742 21.4856C11.6059 21.9684 10.9971 22.1424 10.5144 21.8742C10.0316 21.6059 9.85763 20.9971 10.1258 20.5144C10.7928 19.3139 11.7357 18.4261 12.8109 17.8511C11.7046 16.9339 11 15.5493 11 14ZM16 11C14.3431 11 13 12.3431 13 14C13 15.6569 14.3431 17 16 17C17.6569 17 19 15.6569 19 14C19 12.3431 17.6569 11 16 11Z" fill="#FF355E"/>
<path d="M16 4C9.37258 4 4 9.37258 4 16C4 22.6274 9.37258 28 16 28C18.9537 28 21.6582 26.9328 23.7488 25.1631L26.2929 27.7071C26.6834 28.0976 27.3166 28.0976 27.7071 27.7071C28.0976 27.3166 28.0976 26.6834 27.7071 26.2929L25.1631 23.7488C26.9328 21.6582 28 18.9537 28 16C28 9.37258 22.6274 4 16 4ZM6 16C6 10.4772 10.4772 6 16 6C21.5228 6 26 10.4772 26 16C26 21.5228 21.5228 26 16 26C10.4772 26 6 21.5228 6 16Z" fill="#FF355E"/>
</svg>
