<svg width="32" height="32" viewBox="0 0 32 32" fill="none" xmlns="http://www.w3.org/2000/svg">
<path d="M16 4C11.8579 4 8.5 7.35786 8.5 11.5C8.5 15.6421 11.8579 19 16 19C20.1421 19 23.5 15.6421 23.5 11.5C23.5 7.35786 20.1421 4 16 4ZM10.5 11.5C10.5 8.46243 12.9624 6 16 6C19.0376 6 21.5 8.46243 21.5 11.5C21.5 14.5376 19.0376 17 16 17C12.9624 17 10.5 14.5376 10.5 11.5Z" fill="#FF355E"/>
<path d="M7.98016 27.1982C7.98119 27.1936 7.98341 27.184 7.98704 27.1691C7.9943 27.1392 8.00705 27.0897 8.0265 27.0232C8.06547 26.8902 8.13095 26.6908 8.23246 26.4471C8.43613 25.9583 8.78019 25.3027 9.33695 24.6476C10.424 23.3687 12.3966 22 16 22C19.6034 22 21.576 23.3687 22.6631 24.6476C23.2198 25.3027 23.5639 25.9583 23.7676 26.4471C23.8691 26.6908 23.9345 26.8902 23.9735 27.0232C23.993 27.0897 24.0057 27.1392 24.013 27.1691C24.0166 27.184 24.0189 27.1939 24.0199 27.1986L24.0204 27.2009C24.1309 27.7397 24.6562 28.0886 25.1961 27.9806C25.7377 27.8723 26.0889 27.3454 25.9806 26.8039L25.9803 26.8026L25.9801 26.8012L25.9728 26.767C25.9688 26.749 25.9633 26.7252 25.9563 26.6962C25.9422 26.6381 25.9215 26.5588 25.8929 26.4611C25.8358 26.2661 25.7466 25.9967 25.6137 25.6779C25.3486 25.0417 24.9052 24.1973 24.1869 23.3524C22.724 21.6313 20.1966 20 16 20C11.8034 20 9.27597 21.6313 7.81307 23.3524C7.09483 24.1973 6.65139 25.0417 6.38631 25.6779C6.25345 25.9967 6.16424 26.2661 6.10711 26.4611C6.07852 26.5588 6.05787 26.6381 6.04374 26.6962C6.03668 26.7252 6.03124 26.749 6.02724 26.767L6.02232 26.7898L6.02063 26.798L6.01997 26.8012L6.01968 26.8026L6.01943 26.8039C5.91112 27.3454 6.26233 27.8723 6.80389 27.9806C7.34385 28.0886 7.86916 27.7397 7.97962 27.2009L7.98016 27.1982Z" fill="#FF355E"/>
</svg>
