<svg width="32" height="32" viewBox="0 0 32 32" fill="none" xmlns="http://www.w3.org/2000/svg">
<path d="M7 10.5C7 6.91015 9.91015 4 13.5 4C17.0899 4 20 6.91015 20 10.5C20 14.0899 17.0899 17 13.5 17C9.91015 17 7 14.0899 7 10.5ZM13.5 6C11.0147 6 9 8.01472 9 10.5C9 12.9853 11.0147 15 13.5 15C15.9853 15 18 12.9853 18 10.5C18 8.01472 15.9853 6 13.5 6Z" fill="#FF355E"/>
<path d="M19 20C19 18.3431 20.3431 17 22 17H26C27.6569 17 29 18.3431 29 20V29C29 29.4045 28.7564 29.7691 28.3827 29.9239C28.009 30.0787 27.5789 29.9931 27.2929 29.7071L24 26.4142L20.7071 29.7071C20.4211 29.9931 19.991 30.0787 19.6173 29.9239C19.2436 29.7691 19 29.4045 19 29V20ZM22 19C21.4477 19 21 19.4477 21 20V26.5858L23.2929 24.2929C23.6834 23.9024 24.3166 23.9024 24.7071 24.2929L27 26.5858V20C27 19.4477 26.5523 19 26 19H22Z" fill="#FF355E"/>
<path d="M7 24C7 21.7909 8.79086 20 11 20H16C16.5523 20 17 19.5523 17 19C17 18.4477 16.5523 18 16 18H11C7.68629 18 5 20.6863 5 24C5 24.5523 5.44772 25 6 25C6.55228 25 7 24.5523 7 24Z" fill="#FF355E"/>
</svg>
