<svg width="32" height="32" viewBox="0 0 32 32" fill="none" xmlns="http://www.w3.org/2000/svg">
<path d="M5.99999 9C5.99999 6.79086 7.79085 5 9.99999 5H26C28.2091 5 30 6.79086 30 9V19C30 21.2091 28.2091 23 26 23H15C14.4477 23 14 22.5523 14 22C14 21.4477 14.4477 21 15 21H26C27.1046 21 28 20.1046 28 19V9C28 7.89543 27.1046 7 26 7H9.99999C8.89542 7 7.99999 7.89543 7.99999 9V14C7.99999 14.5523 7.55228 15 6.99999 15C6.44771 15 5.99999 14.5523 5.99999 14V9ZM20 11C20 11.5523 20.4477 12 21 12H22.5858L19 15.5858L17.2564 13.8422C17.1722 13.758 17.0717 13.6573 16.9758 13.576C16.8648 13.4817 16.6962 13.3561 16.4635 13.2805C16.1623 13.1826 15.8377 13.1826 15.5365 13.2805C15.3038 13.3561 15.1352 13.4817 15.0242 13.5759C14.9283 13.6573 14.8278 13.758 14.7436 13.8422L11.2929 17.2929C10.9024 17.6834 10.9024 18.3166 11.2929 18.7071C11.6834 19.0976 12.3166 19.0976 12.7071 18.7071L16 15.4142L17.7436 17.1578C17.8278 17.2421 17.9283 17.3427 18.0242 17.4241C18.1352 17.5183 18.3038 17.6439 18.5365 17.7195C18.8377 17.8174 19.1623 17.8174 19.4635 17.7195C19.6962 17.6439 19.8648 17.5183 19.9758 17.4241C20.0716 17.3427 20.1721 17.2421 20.2563 17.1579L24 13.4142V15C24 15.5523 24.4477 16 25 16C25.5523 16 26 15.5523 26 15V11C26 10.4477 25.5523 10 25 10H21C20.4477 10 20 10.4477 20 11ZM2.99999 20.5C2.99999 18.567 4.567 17 6.49999 17C8.43299 17 9.99999 18.567 9.99999 20.5C9.99999 21.76 9.33417 22.8645 8.33516 23.4809C9.69889 23.9121 10.9309 24.8375 11.7294 26.2571L11.8716 26.5097C12.1423 26.9911 11.9716 27.6008 11.4903 27.8716C11.0089 28.1423 10.3992 27.9716 10.1284 27.4903L9.9863 27.2376C8.45708 24.519 4.54291 24.519 3.01369 27.2376L2.87157 27.4903C2.60081 27.9716 1.99109 28.1423 1.50973 27.8716C1.02838 27.6008 0.857655 26.9911 1.12842 26.5097L1.27054 26.2571C2.06905 24.8375 3.30109 23.9121 4.66483 23.4809C3.66582 22.8645 2.99999 21.76 2.99999 20.5ZM6.49999 19C5.67157 19 4.99999 19.6716 4.99999 20.5C4.99999 21.3284 5.67157 22 6.49999 22C7.32842 22 7.99999 21.3284 7.99999 20.5C7.99999 19.6716 7.32842 19 6.49999 19Z" fill="#FF355E"/>
</svg>
