<svg width="32" height="32" viewBox="0 0 32 32" fill="none" xmlns="http://www.w3.org/2000/svg">
<path d="M7 10.5C7 6.91015 9.91015 4 13.5 4C17.0899 4 20 6.91015 20 10.5C20 14.0899 17.0899 17 13.5 17C9.91015 17 7 14.0899 7 10.5ZM13.5 6C11.0147 6 9 8.01472 9 10.5C9 12.9853 11.0147 15 13.5 15C15.9853 15 18 12.9853 18 10.5C18 8.01472 15.9853 6 13.5 6Z" fill="#FF355E"/>
<path d="M23 19C23 18.4477 22.5523 18 22 18C21.4477 18 21 18.4477 21 19C19.3431 19 18 20.3431 18 22V27C18 28.6569 19.3431 30 21 30H27C28.6569 30 30 28.6569 30 27V22C30 20.3431 28.6569 19 27 19C27 18.4477 26.5523 18 26 18C25.4477 18 25 18.4477 25 19H23ZM28 23H20V22C20 21.4477 20.4477 21 21 21C21 21.5523 21.4477 22 22 22C22.5523 22 23 21.5523 23 21H25C25 21.5523 25.4477 22 26 22C26.5523 22 27 21.5523 27 21C27.5523 21 28 21.4477 28 22V23ZM20 25H28V27C28 27.5523 27.5523 28 27 28H21C20.4477 28 20 27.5523 20 27V25Z" fill="#FF355E"/>
<path d="M7 24C7 21.7909 8.79086 20 11 20H15C15.5523 20 16 19.5523 16 19C16 18.4477 15.5523 18 15 18H11C7.68629 18 5 20.6863 5 24C5 24.5523 5.44772 25 6 25C6.55228 25 7 24.5523 7 24Z" fill="#FF355E"/>
</svg>
