<svg width="32" height="32" viewBox="0 0 32 32" fill="none" xmlns="http://www.w3.org/2000/svg">
<path d="M5.143 13C6.63992 8.95356 10.7163 5.07841 16 5.07841C21.432 5.07841 25.588 9.17416 26.977 13.341C27.1653 13.906 27.776 14.2114 28.341 14.0231C28.906 13.8347 29.2114 13.224 29.0231 12.659C27.412 7.82587 22.568 2.92163 16 2.92163C9.43204 2.92163 4.58801 7.82587 2.97697 12.659C2.90318 12.8804 2.90318 13.1197 2.97697 13.341C4.31199 17.3461 7.84061 21.3634 12.7244 22.6544C13.3002 22.8066 13.8904 22.4632 14.0426 21.8874C14.1948 21.3116 13.8514 20.7214 13.2756 20.5692C9.33272 19.527 6.36652 16.3052 5.143 13Z" fill="#FF355E"/>
<path d="M16 10C14.3431 10 13 11.3431 13 13C13 14.5291 14.1449 15.7923 15.6237 15.9767C16.1718 16.0451 16.5607 16.5448 16.4923 17.0928C16.424 17.6408 15.9243 18.0297 15.3763 17.9614C12.9088 17.6537 11 15.5505 11 13C11 10.2386 13.2386 8 16 8C18.3312 8 20.2874 9.59442 20.8424 11.7507C20.9801 12.2856 20.6581 12.8308 20.1232 12.9684C19.5884 13.1061 19.0432 12.7841 18.9055 12.2493C18.5725 10.9551 17.3965 10 16 10Z" fill="#FF355E"/>
<path d="M24 23.5C24 22.9477 23.5523 22.5 23 22.5C22.4477 22.5 22 22.9477 22 23.5V24.5C22 25.0523 22.4477 25.5 23 25.5C23.5523 25.5 24 25.0523 24 24.5V23.5Z" fill="#FF355E"/>
<path fill-rule="evenodd" clip-rule="evenodd" d="M20 18V19H19C17.3431 19 16 20.3431 16 22V26C16 27.6569 17.3431 29 19 29H27C28.6569 29 30 27.6569 30 26V22C30 20.3431 28.6569 19 27 19H26V18C26 16.3431 24.6569 15 23 15C21.3431 15 20 16.3431 20 18ZM23 17C22.4477 17 22 17.4477 22 18V19H24V18C24 17.4477 23.5523 17 23 17ZM19 21C18.4477 21 18 21.4477 18 22V26C18 26.5523 18.4477 27 19 27H27C27.5523 27 28 26.5523 28 26V22C28 21.4477 27.5523 21 27 21H19Z" fill="#FF355E"/>
</svg>
