<svg width="32" height="32" viewBox="0 0 32 32" fill="none" xmlns="http://www.w3.org/2000/svg">
<path d="M23 18C23 19.1046 22.1046 20 21 20C19.8954 20 19 19.1046 19 18C19 16.8954 19.8954 16 21 16C22.1046 16 23 16.8954 23 18Z" fill="#FF355E"/>
<path d="M3 8.33333V22C3 24.7614 5.23858 27 8 27H24C26.7614 27 29 24.7614 29 22V14C29 11.2386 26.7614 9 24 9H23C23 6.23858 20.7614 4 18 4H7.33333C4.9401 4 3 5.9401 3 8.33333ZM5 22V10.916C5.21308 10.9708 5.43647 11 5.66667 11H24C25.6569 11 27 12.3431 27 14V22C27 23.6569 25.6569 25 24 25H8C6.34315 25 5 23.6569 5 22ZM7.33333 6H18C19.6569 6 21 7.34315 21 9H5.66667C5.29848 9 5 8.70152 5 8.33333C5 7.04467 6.04467 6 7.33333 6Z" fill="#FF355E"/>
</svg>
