<svg width="32" height="32" viewBox="0 0 32 32" fill="none" xmlns="http://www.w3.org/2000/svg">
<path fill-rule="evenodd" clip-rule="evenodd" d="M18 11C18 9.34315 19.3431 8 21 8H22C23.6569 8 25 9.34315 25 11H26C27.6569 11 29 12.3431 29 14V18C29 19.6569 27.6569 21 26 21H25C25 22.6569 23.6569 24 22 24H21C19.3431 24 18 22.6569 18 21V19H14V21C14 22.6569 12.6569 24 11 24H10C8.34315 24 7 22.6569 7 21H6C4.34315 21 3 19.6569 3 18V14C3 12.3431 4.34315 11 6 11H7C7 9.34315 8.34315 8 10 8H11C12.6569 8 14 9.34315 14 11V13H18V11ZM14 15V17H18V15H14ZM9 11V21C9 21.5523 9.44772 22 10 22H11C11.5523 22 12 21.5523 12 21V11C12 10.4477 11.5523 10 11 10H10C9.44772 10 9 10.4477 9 11ZM7 13H6C5.44772 13 5 13.4477 5 14V18C5 18.5523 5.44772 19 6 19H7V13ZM25 19V13H26C26.5523 13 27 13.4477 27 14V18C27 18.5523 26.5523 19 26 19H25ZM22 10C22.5523 10 23 10.4477 23 11V21C23 21.5523 22.5523 22 22 22H21C20.4477 22 20 21.5523 20 21V11C20 10.4477 20.4477 10 21 10H22Z" fill="#FF355E"/>
</svg>
