<svg width="32" height="32" viewBox="0 0 32 32" fill="none" xmlns="http://www.w3.org/2000/svg">
<path d="M5 13.5H28C28.5523 13.5 29 13.0523 29 12.5V11C29 8.23858 26.7614 6 24 6H8C5.23858 6 3 8.23858 3 11V21C3 23.7614 5.23858 26 8 26H15.5C16.0523 26 16.5 25.5523 16.5 25C16.5 24.4477 16.0523 24 15.5 24H8C6.34315 24 5 22.6569 5 21V13.5ZM5 11C5 9.34315 6.34315 8 8 8H24C25.6569 8 27 9.34315 27 11V11.5H5V11Z" fill="#FF355E"/>
<path d="M23.5 15C20.7386 15 18.5 17.2386 18.5 20C18.5 22.7614 20.7386 25 23.5 25C26.2614 25 28.5 22.7614 28.5 20C28.5 17.2386 26.2614 15 23.5 15ZM20.5 20C20.5 18.3431 21.8431 17 23.5 17C25.1569 17 26.5 18.3431 26.5 20C26.5 21.6569 25.1569 23 23.5 23C21.8431 23 20.5 21.6569 20.5 20Z" fill="#FF355E"/>
<path d="M8 16C7.44772 16 7 16.4477 7 17C7 17.5523 7.44772 18 8 18H14C14.5523 18 15 17.5523 15 17C15 16.4477 14.5523 16 14 16H8Z" fill="#FF355E"/>
<path d="M7 20C7 19.4477 7.44772 19 8 19H14C14.5523 19 15 19.4477 15 20C15 20.5523 14.5523 21 14 21H8C7.44772 21 7 20.5523 7 20Z" fill="#FF355E"/>
<path d="M17.226 29.6332C17.5758 30.0607 18.2058 30.1237 18.6332 29.774C21.4643 27.4576 25.5357 27.4576 28.3668 29.774C28.7942 30.1237 29.4242 30.0607 29.774 29.6332C30.1237 29.2058 30.0607 28.5758 29.6332 28.2261C26.0654 25.3069 20.9346 25.3069 17.3668 28.2261C16.9393 28.5758 16.8763 29.2058 17.226 29.6332Z" fill="#FF355E"/>
</svg>
