<svg width="32" height="32" viewBox="0 0 32 32" fill="none" xmlns="http://www.w3.org/2000/svg">
<path fill-rule="evenodd" clip-rule="evenodd" d="M6.5 2C7.05228 2 7.5 2.44772 7.5 3C7.5 4.38071 8.61929 5.5 10 5.5C10.5523 5.5 11 5.94772 11 6.5C11 7.05228 10.5523 7.5 10 7.5C8.61929 7.5 7.5 8.61929 7.5 10C7.5 10.5523 7.05228 11 6.5 11C5.94772 11 5.5 10.5523 5.5 10C5.5 8.61929 4.38071 7.5 3 7.5C2.44772 7.5 2 7.05228 2 6.5C2 5.94772 2.44772 5.5 3 5.5C4.38071 5.5 5.5 4.38071 5.5 3C5.5 2.44772 5.94772 2 6.5 2ZM6.5 5.82867C6.30042 6.0753 6.0753 6.30042 5.82867 6.5C6.0753 6.69958 6.30042 6.9247 6.5 7.17133C6.69958 6.9247 6.9247 6.69958 7.17133 6.5C6.9247 6.30042 6.69958 6.0753 6.5 5.82867Z" fill="#FF355E"/>
<path d="M8 12C8 11.4477 8.44772 11 9 11H27C27 9.34315 25.6569 8 24 8H14C13.4477 8 13 7.55228 13 7C13 6.44772 13.4477 6 14 6H24C26.7614 6 29 8.23858 29 11V21C29 23.7614 26.7614 26 24 26H8C5.23858 26 3 23.7614 3 21V12C3 11.4477 3.44772 11 4 11C4.55228 11 5 11.4477 5 12V21C5 22.6569 6.34315 24 8 24H24C25.6569 24 27 22.6569 27 21V13H9C8.44772 13 8 12.5523 8 12Z" fill="#FF355E"/>
</svg>
