<svg width="32" height="32" viewBox="0 0 32 32" fill="none" xmlns="http://www.w3.org/2000/svg">
<path d="M18.3439 15.3304C18.5263 14.8091 18.2516 14.2386 17.7304 14.0562C17.2091 13.8737 16.6386 14.1484 16.4561 14.6697L13.6561 22.6697C13.4737 23.191 13.7484 23.7614 14.2696 23.9439C14.7909 24.1263 15.3614 23.8517 15.5439 23.3304L18.3439 15.3304Z" fill="#FF355E"/>
<path d="M12.9527 17.4893C13.3456 17.1012 13.3496 16.468 12.9615 16.0751C12.5734 15.6822 11.9402 15.6782 11.5473 16.0663L9.2973 18.2885C9.10707 18.4764 9 18.7327 9 19C9 19.2674 9.10707 19.5236 9.2973 19.7115L11.5473 21.9337C11.9402 22.3218 12.5734 22.3179 12.9615 21.925C13.3496 21.532 13.3456 20.8989 12.9527 20.5108L11.4231 19L12.9527 17.4893Z" fill="#FF355E"/>
<path d="M20.4527 16.0663C20.0598 15.6782 19.4266 15.6822 19.0385 16.0751C18.6504 16.468 18.6544 17.1012 19.0473 17.4893L20.5769 19L19.0473 20.5108C18.6544 20.8989 18.6504 21.532 19.0385 21.925C19.4266 22.3179 20.0598 22.3218 20.4527 21.9337L22.7027 19.7115C22.8929 19.5236 23 19.2674 23 19C23 18.7327 22.8929 18.4764 22.7027 18.2885L20.4527 16.0663Z" fill="#FF355E"/>
<path d="M7 9C7 8.44772 7.44772 8 8 8C8.55228 8 9 8.44772 9 9C9 9.55228 8.55228 10 8 10C7.44772 10 7 9.55228 7 9Z" fill="#FF355E"/>
<path d="M11 8C10.4477 8 10 8.44772 10 9C10 9.55228 10.4477 10 11 10C11.5523 10 12 9.55228 12 9C12 8.44772 11.5523 8 11 8Z" fill="#FF355E"/>
<path d="M13 9C13 8.44772 13.4477 8 14 8C14.5523 8 15 8.44772 15 9C15 9.55228 14.5523 10 14 10C13.4477 10 13 9.55228 13 9Z" fill="#FF355E"/>
<path d="M4 24C4 25.6569 5.34314 27 7 27H25C26.6569 27 28 25.6569 28 24V8C28 6.34315 26.6569 5 25 5H7C5.34315 5 4 6.34315 4 8V24ZM6 13H26V24C26 24.5523 25.5523 25 25 25H7C6.44772 25 6 24.5523 6 24L6 13ZM26 11H6V8C6 7.44772 6.44772 7 7 7L25 7C25.5523 7 26 7.44772 26 8V11Z" fill="#FF355E"/>
</svg>
