<svg width="32" height="32" viewBox="0 0 32 32" fill="none" xmlns="http://www.w3.org/2000/svg">
<path d="M5 11C5 9.34315 6.34315 8 8 8H24C25.6569 8 27 9.34315 27 11V14C27 14.5523 27.4477 15 28 15C28.5523 15 29 14.5523 29 14V11C29 8.23858 26.7614 6 24 6H8C5.23858 6 3 8.23858 3 11V21C3 23.7614 5.23858 26 8 26H13C13.5523 26 14 25.5523 14 25C14 24.4477 13.5523 24 13 24H8C6.34315 24 5 22.6569 5 21V11Z" fill="#FF355E"/>
<path d="M23.7929 18.7929C25.0119 17.574 26.9882 17.574 28.2071 18.7929C29.4261 20.0119 29.4261 21.9882 28.2071 23.2071L22.2071 29.2071C22.0541 29.3601 21.8556 29.4594 21.6414 29.49L18.1414 29.99C17.8298 30.0345 17.5155 29.9297 17.2929 29.7071C17.0703 29.4846 16.9655 29.1702 17.0101 28.8586L17.5101 25.3586C17.5407 25.1444 17.6399 24.9459 17.7929 24.7929L23.7929 18.7929ZM25.2071 20.2071L19.4428 25.9714L19.1785 27.8215L21.0286 27.5572L26.7929 21.7929C27.2308 21.355 27.2308 20.645 26.7929 20.2071C26.355 19.7692 25.645 19.7692 25.2071 20.2071Z" fill="#FF355E"/>
<path d="M7 13C7 11.3431 8.34315 10 10 10H13C14.6569 10 16 11.3431 16 13V19C16 20.6569 14.6569 22 13 22H10C8.34315 22 7 20.6569 7 19V13ZM10 12C9.44772 12 9 12.4477 9 13V19C9 19.5523 9.44772 20 10 20H13C13.5523 20 14 19.5523 14 19V13C14 12.4477 13.5523 12 13 12H10Z" fill="#FF355E"/>
<path d="M20 10C18.3431 10 17 11.3431 17 13V15C17 16.6569 18.3431 18 20 18H22C23.6569 18 25 16.6569 25 15V13C25 11.3431 23.6569 10 22 10H20ZM19 13C19 12.4477 19.4477 12 20 12H22C22.5523 12 23 12.4477 23 13V15C23 15.5523 22.5523 16 22 16H20C19.4477 16 19 15.5523 19 15V13Z" fill="#FF355E"/>
</svg>
