<svg width="16" height="16" viewBox="0 0 16 16" fill="none" xmlns="http://www.w3.org/2000/svg">
<g clip-path="url(#clip0_20893_137)">
<path d="M12.0001 5C11.4478 5 11.0001 5.44772 11.0001 6L11.0001 9.58579L4.7072 3.29289C4.31667 2.90237 3.68351 2.90237 3.29299 3.29289C2.90246 3.68342 2.90246 4.31658 3.29299 4.70711L9.58588 11H6.00009C5.44781 11 5.00009 11.4477 5.00009 12C5.00009 12.5523 5.44781 13 6.00009 13L12.0001 13C12.2653 13 12.5197 12.8946 12.7072 12.7071C12.8947 12.5196 13.0001 12.2652 13.0001 12V6C13.0001 5.44771 12.5524 5 12.0001 5Z" fill="#515164"/>
</g>
<defs>
<clipPath id="clip0_20893_137">
<rect width="16" height="16" fill="white"/>
</clipPath>
</defs>
</svg>
