<svg width="16" height="16" viewBox="0 0 16 16" fill="none" xmlns="http://www.w3.org/2000/svg">
<path d="M6 1C6.55228 1 7 1.44772 7 2H9C9 1.44772 9.44772 1 10 1C10.5523 1 11 1.44772 11 2C12.6569 2 14 3.34315 14 5V11C14 12.6569 12.6569 14 11 14H5C3.34315 14 2 12.6569 2 11V5C2 3.34315 3.34315 2 5 2C5 1.44772 5.44772 1 6 1ZM5 4C4.44772 4 4 4.44772 4 5V6H12V5C12 4.44772 11.5523 4 11 4C11 4.55228 10.5523 5 10 5C9.44772 5 9 4.55228 9 4H7C7 4.55228 6.55228 5 6 5C5.44772 5 5 4.55228 5 4ZM12 8H4V11C4 11.5523 4.44772 12 5 12H11C11.5523 12 12 11.5523 12 11V8Z" fill="#515164"/>
</svg>
