<svg width="16" height="16" viewBox="0 0 16 16" fill="none" xmlns="http://www.w3.org/2000/svg">
<path d="M7.29292 3.29289C7.68345 2.90237 8.31661 2.90237 8.70714 3.29289L10.7071 5.29289C10.9931 5.57889 11.0787 6.00901 10.9239 6.38268C10.7691 6.75636 10.4045 7 10 7H6.00003C5.59557 7 5.23093 6.75636 5.07615 6.38268C4.92137 6.00901 5.00692 5.57889 5.29292 5.29289L7.29292 3.29289Z" fill="#515164"/>
<path d="M7.29292 12.7071C7.68345 13.0976 8.31661 13.0976 8.70714 12.7071L10.7071 10.7071C10.9931 10.4211 11.0787 9.99099 10.9239 9.61732C10.7691 9.24364 10.4045 9 10 9H6.00003C5.59557 9 5.23093 9.24364 5.07615 9.61732C4.92137 9.99099 5.00692 10.4211 5.29292 10.7071L7.29292 12.7071Z" fill="#515164"/>
</svg>
