<svg width="16" height="16" viewBox="0 0 16 16" fill="none" xmlns="http://www.w3.org/2000/svg">
<path d="M5 0C5.55228 0 6 0.447715 6 1V2C6 2.55228 5.55228 3 5 3C4.44772 3 4 2.55228 4 2V1C4 0.447715 4.44772 0 5 0Z" fill="#515164"/>
<path d="M2 4C1.44772 4 1 4.44772 1 5V12C1 13.6569 2.34315 15 4 15H9C10.6569 15 12 13.6569 12 12H13C14.1046 12 15 11.1046 15 10V8C15 6.89543 14.1046 6 13 6H12V5C12 4.44772 11.5523 4 11 4H2ZM10 6V12C10 12.5523 9.55228 13 9 13H4C3.44772 13 3 12.5523 3 12V6H10ZM12 10V8H13V10H12Z" fill="#515164"/>
<path d="M9 1C9 0.447715 8.55228 0 8 0C7.44772 0 7 0.447715 7 1V2C7 2.55228 7.44772 3 8 3C8.55228 3 9 2.55228 9 2V1Z" fill="#515164"/>
</svg>
