<svg width="16" height="16" viewBox="0 0 16 16" fill="none" xmlns="http://www.w3.org/2000/svg">
<path d="M9 2C9.55229 2 10 2.44772 10 3V4.58579L12.2929 2.29289C12.6834 1.90237 13.3166 1.90237 13.7071 2.29289C14.0976 2.68342 14.0976 3.31658 13.7071 3.70711L11.4142 6H13C13.5523 6 14 6.44772 14 7C14 7.55229 13.5523 8 13 8L9 8C8.44772 8 8 7.55228 8 7L8 3C8 2.44772 8.44772 2 9 2ZM3 10C2.44772 10 2 9.55229 2 9C2 8.44772 2.44772 8 3 8H7C7.55228 8 8 8.44772 8 9V13C8 13.5523 7.55228 14 7 14C6.44772 14 6 13.5523 6 13V11.4142L3.70711 13.7071C3.31658 14.0976 2.68342 14.0976 2.29289 13.7071C1.90237 13.3166 1.90237 12.6834 2.29289 12.2929L4.58579 10H3Z" fill="#515164"/>
</svg>
