<svg width="16" height="16" viewBox="0 0 16 16" fill="none" xmlns="http://www.w3.org/2000/svg">
<path d="M2 3C2 2.44772 2.44772 2 3 2H10C10.5523 2 11 1.55228 11 1C11 0.447715 10.5523 0 10 0H3C1.34315 0 0 1.34315 0 3V9.5C0 10.0523 0.447715 10.5 1 10.5C1.55228 10.5 2 10.0523 2 9.5V3Z" fill="#515164"/>
<path d="M12 9C12 9.55229 11.5523 10 11 10H7C6.44772 10 6 9.55228 6 9C6 8.44771 6.44772 8 7 8H11C11.5523 8 12 8.44771 12 9Z" fill="#515164"/>
<path d="M3 6C3 4.34315 4.34315 3 6 3H12C13.6569 3 15 4.34315 15 6V12C15 13.6569 13.6569 15 12 15H6C4.34315 15 3 13.6569 3 12V6ZM6 5C5.44772 5 5 5.44772 5 6V12C5 12.5523 5.44772 13 6 13H12C12.5523 13 13 12.5523 13 12V6C13 5.44772 12.5523 5 12 5H6Z" fill="#515164"/>
</svg>
