<svg width="16" height="16" viewBox="0 0 16 16" fill="none" xmlns="http://www.w3.org/2000/svg">
<path d="M1 4.5C1 2.84315 2.34315 1.5 4 1.5H12C13.6569 1.5 15 2.84315 15 4.5V9C15 10.6569 13.6569 12 12 12H9.41421L7.41421 14C6.15428 15.2599 4 14.3676 4 12.5858L4 12C2.34315 12 1 10.6569 1 9V4.5ZM4 3.5C3.44772 3.5 3 3.94772 3 4.5V9C3 9.55228 3.44772 10 4 10H5C5.55228 10 6 10.4477 6 11L6 12.5858L8.29289 10.2929C8.48043 10.1054 8.73478 10 9 10H12C12.5523 10 13 9.55228 13 9V4.5C13 3.94772 12.5523 3.5 12 3.5H4Z" fill="#515164"/>
</svg>
