<svg width="16" height="16" viewBox="0 0 16 16" fill="none" xmlns="http://www.w3.org/2000/svg">
<path fill-rule="evenodd" clip-rule="evenodd" d="M5 3C4.44772 3 4 3.44772 4 4V12C4 12.5523 4.44772 13 5 13H11C11.5523 13 12 12.5523 12 12V7.24264C12 6.71221 11.7893 6.2035 11.4142 5.82843L9.17157 3.58579C8.7965 3.21071 8.28779 3 7.75736 3H5ZM2 4C2 2.34315 3.34315 1 5 1H7.75736C8.81823 1 9.83564 1.42143 10.5858 2.17157L12.8284 4.41421C13.5786 5.16436 14 6.18178 14 7.24264V12C14 13.6569 12.6569 15 11 15H5C3.34315 15 2 13.6569 2 12V4ZM6 11C6 10.4477 6.44772 10 7 10H9C9.55228 10 10 10.4477 10 11C10 11.5523 9.55228 12 9 12H7C6.44772 12 6 11.5523 6 11Z" fill="#515164"/>
</svg>
