<svg width="16" height="16" viewBox="0 0 16 16" fill="none" xmlns="http://www.w3.org/2000/svg">
<path d="M5.40921 3.72242C3.96421 4.59957 3 6.18807 3 8C3 10.7614 5.23858 13 8 13C9.81193 13 11.4004 12.0358 12.2776 10.5908C10.7516 10.9025 8.52477 10.9389 6.79294 9.20706C5.06111 7.47522 5.09753 5.2484 5.40921 3.72242ZM7.29169 1.82216C7.61835 2.20709 7.76251 2.76892 7.58336 3.31536C7.16982 4.57678 6.89742 6.48311 8.20716 7.79284C9.51689 9.10258 11.4232 8.83018 12.6846 8.41664C13.2311 8.23749 13.7929 8.38165 14.1778 8.70831C14.5795 9.04918 14.8391 9.64649 14.617 10.2887C13.6692 13.0294 11.066 15 8 15C4.13401 15 1 11.866 1 8C1 4.93398 2.97058 2.33081 5.71134 1.38298C6.35351 1.1609 6.95082 1.4205 7.29169 1.82216Z" fill="#515164"/>
<path d="M12 1C12.5523 1 13 1.44772 13 2C13 2.17477 13.0975 2.43324 13.3321 2.66789C13.5668 2.90255 13.8252 3 14 3C14.5523 3 15 3.44772 15 4C15 4.55229 14.5523 5 14 5C13.8252 5 13.5668 5.09745 13.3321 5.33211C13.0975 5.56676 13 5.82523 13 6C13 6.55229 12.5523 7 12 7C11.4477 7 11 6.55229 11 6C11 5.82523 10.9025 5.56676 10.6679 5.33211C10.4332 5.09745 10.1748 5 10 5C9.44771 5 9 4.55229 9 4C9 3.44772 9.44772 3 10 3C10.1748 3 10.4333 2.90254 10.6679 2.6679C10.9025 2.43326 11 2.17478 11 2C11 1.44772 11.4477 1 12 1Z" fill="#515164"/>
</svg>
