<svg width="16" height="16" viewBox="0 0 16 16" fill="none" xmlns="http://www.w3.org/2000/svg">
<path d="M4 4C4 2.34315 5.34315 1 7 1H9C10.6569 1 12 2.34315 12 4H13C13.5523 4 14 4.44772 14 5C14 5.55228 13.5523 6 13 6V11.5C13 13.1569 11.6569 14.5 10 14.5H6C4.34315 14.5 3 13.1569 3 11.5V6C2.44772 6 2 5.55228 2 5C2 4.44772 2.44772 4 3 4H4ZM5 6V11.5C5 12.0523 5.44772 12.5 6 12.5H10C10.5523 12.5 11 12.0523 11 11.5V6H5ZM10 4C10 3.44772 9.55228 3 9 3H7C6.44772 3 6 3.44772 6 4H10Z" fill="#515164"/>
</svg>
