<svg width="16" height="16" viewBox="0 0 16 16" fill="none" xmlns="http://www.w3.org/2000/svg">
<path d="M1.32898 4.25843C1.24865 4.33106 1.18184 4.41536 1.12989 4.50734C1.04205 4.66209 0.999864 4.83187 1 4.99999V11C1 12.6568 2.34315 14 4 14H12C13.6569 14 15 12.6568 15 11V5.03034C15.0016 4.97651 14.9988 4.92288 14.9918 4.86996C14.9797 4.77733 14.9545 4.68551 14.9156 4.59729C14.8441 4.43453 14.7291 4.28999 14.577 4.18291C14.5331 4.15198 14.4871 4.12484 14.4394 4.10159L9.34186 1.5528C8.49728 1.13051 7.50316 1.13051 6.65858 1.5528L1.5675 4.09834C1.48175 4.13938 1.40124 4.19294 1.32898 4.25843ZM12.0118 5.12382L8.55481 7.42845C8.21891 7.65238 7.78131 7.65238 7.44541 7.42845L3.98856 5.12388L7.55301 3.34166C7.83453 3.20089 8.16591 3.20089 8.44743 3.34166L12.0118 5.12382ZM9.66421 9.09255L13 6.86868V11C13 11.5523 12.5523 12 12 12H4C3.44772 12 3 11.5523 3 11V6.86854L6.33601 9.09255C7.34371 9.76435 8.65651 9.76435 9.66421 9.09255Z" fill="#515164"/>
</svg>
