<svg width="16" height="16" viewBox="0 0 16 16" fill="none" xmlns="http://www.w3.org/2000/svg">
<path d="M9 4C8.44772 4 8 3.55228 8 3C8 2.44772 8.44772 2 9 2H13C13.5523 2 14 2.44772 14 3V7C14 7.55228 13.5523 8 13 8C12.4477 8 12 7.55228 12 7V5.41421L9.70711 7.70711C9.31658 8.09763 8.68342 8.09763 8.29289 7.70711C7.90237 7.31658 7.90237 6.68342 8.29289 6.29289L10.5858 4H9ZM3 8C3.55229 8 4 8.44771 4 9L4 10.5858L6.29289 8.29289C6.68342 7.90237 7.31658 7.90237 7.70711 8.29289C8.09763 8.68342 8.09763 9.31658 7.70711 9.70711L5.41421 12H7C7.55228 12 8 12.4477 8 13C8 13.5523 7.55228 14 7 14H3C2.73478 14 2.48043 13.8946 2.29289 13.7071C2.10536 13.5196 2 13.2652 2 13L2 9C2 8.44771 2.44772 8 3 8Z" fill="#515164"/>
</svg>
