<svg width="16" height="16" viewBox="0 0 16 16" fill="none" xmlns="http://www.w3.org/2000/svg">
<path d="M2 3C2 2.44772 2.44772 2 3 2H10C10.5523 2 11 1.55228 11 1C11 0.447715 10.5523 0 10 0H3C1.34315 0 0 1.34315 0 3V9.5C0 10.0523 0.447715 10.5 1 10.5C1.55228 10.5 2 10.0523 2 9.5V3Z" fill="#515164"/>
<path d="M10 7C10 6.44772 9.55229 6 9 6C8.44771 6 8 6.44772 8 7V8H7C6.44772 8 6 8.44771 6 9C6 9.55228 6.44772 10 7 10H8V11C8 11.5523 8.44771 12 9 12C9.55229 12 10 11.5523 10 11V10H11C11.5523 10 12 9.55229 12 9C12 8.44771 11.5523 8 11 8H10V7Z" fill="#515164"/>
<path d="M6 3C4.34315 3 3 4.34315 3 6V12C3 13.6569 4.34315 15 6 15H12C13.6569 15 15 13.6569 15 12V6C15 4.34315 13.6569 3 12 3H6ZM5 6C5 5.44772 5.44772 5 6 5H12C12.5523 5 13 5.44772 13 6V12C13 12.5523 12.5523 13 12 13H6C5.44772 13 5 12.5523 5 12V6Z" fill="#515164"/>
</svg>
