<svg width="16" height="16" viewBox="0 0 16 16" fill="none" xmlns="http://www.w3.org/2000/svg">
<path d="M2 5C2 3.34315 3.34315 2 5 2H6C6.55228 2 7 2.44772 7 3C7 3.55228 6.55228 4 6 4H5C4.44772 4 4 4.44772 4 5V11C4 11.5523 4.44772 12 5 12H11C11.5523 12 12 11.5523 12 11V10C12 9.44772 12.4477 9 13 9C13.5523 9 14 9.44772 14 10V11C14 12.6569 12.6569 14 11 14H5C3.34315 14 2 12.6569 2 11V5Z" fill="#515164"/>
<path d="M8.5 3C8.5 2.44772 8.94771 2 9.5 2H13C13.5523 2 14 2.44772 14 3V6C14 6.55228 13.5523 7 13 7C12.4477 7 12 6.55228 12 6V5.41421L8.70711 8.70711C8.31658 9.09763 7.68342 9.09763 7.29289 8.70711C6.90237 8.31658 6.90237 7.68342 7.29289 7.29289L10.5858 4H9.5C8.94771 4 8.5 3.55228 8.5 3Z" fill="#515164"/>
</svg>
