<svg width="16" height="16" viewBox="0 0 16 16" fill="none" xmlns="http://www.w3.org/2000/svg">
<path d="M2.81902 6.39039C3.31614 6.14979 3.91418 6.35775 4.15478 6.85488C4.82575 8.24127 6.24952 9.41558 7.99971 9.41558C9.7499 9.41558 11.1737 8.24127 11.8446 6.85488C12.0852 6.35775 12.6833 6.14979 13.1804 6.39039C13.6775 6.63098 13.8855 7.22902 13.6449 7.72615C13.4272 8.176 13.1475 8.61926 12.8117 9.03392L13.7064 9.92725C14.0972 10.3175 14.0977 10.9506 13.7075 11.3415C13.3172 11.7323 12.6841 11.7328 12.2933 11.3426L11.3372 10.388C11.0519 10.5795 10.7482 10.7501 10.4274 10.8946L10.9284 12.3922C11.1037 12.916 10.8212 13.4826 10.2974 13.6578C9.77367 13.8331 9.20703 13.5506 9.03179 13.0268L8.4861 11.3959C8.32651 11.4089 8.16434 11.4156 7.99971 11.4156C7.84902 11.4156 7.70039 11.41 7.55391 11.3991L7.00928 13.0268C6.83404 13.5506 6.2674 13.8331 5.74365 13.6578C5.21991 13.4826 4.93739 12.916 5.11263 12.3922L5.6083 10.9108C5.27415 10.7629 4.95831 10.5868 4.6623 10.388L3.70631 11.3426C3.31549 11.7328 2.68232 11.7323 2.2921 11.3415C1.90188 10.9506 1.90237 10.3175 2.29319 9.92725L3.18781 9.03401C2.852 8.61932 2.57226 8.17603 2.35453 7.72615C2.11393 7.22902 2.32189 6.63098 2.81902 6.39039Z" fill="#515164"/>
</svg>
