<svg width="16" height="16" viewBox="0 0 16 16" fill="none" xmlns="http://www.w3.org/2000/svg">
<path d="M3.06569 8C3.80762 9.82352 5.66138 11.5 8 11.5C10.3386 11.5 12.1924 9.82352 12.9343 8C12.1924 6.17648 10.3386 4.5 8 4.5C5.66138 4.5 3.80762 6.17648 3.06569 8ZM1.05132 7.68377C1.90429 5.12486 4.4733 2.5 8 2.5C11.5267 2.5 14.0957 5.12486 14.9487 7.68377C15.0171 7.88904 15.0171 8.11096 14.9487 8.31623C14.0957 10.8751 11.5267 13.5 8 13.5C4.4733 13.5 1.90429 10.8751 1.05132 8.31623C0.982894 8.11096 0.982894 7.88904 1.05132 7.68377Z" fill="#515164"/>
<path d="M10 8C10 9.10457 9.10457 10 8 10C6.89543 10 6 9.10457 6 8C6 6.89543 6.89543 6 8 6C9.10457 6 10 6.89543 10 8Z" fill="#515164"/>
</svg>
