<svg width="16" height="16" viewBox="0 0 16 16" fill="none" xmlns="http://www.w3.org/2000/svg">
<path d="M8.6247 3.78041C8.25948 3.48824 7.74052 3.48824 7.37531 3.78041L4.37531 6.18041C4.13809 6.37018 4 6.6575 4 6.96128V11C4 11.5523 4.44772 12 5 12H5.5V10.5C5.5 9.11932 6.61929 8.00003 8 8.00003C9.38071 8.00003 10.5 9.11932 10.5 10.5V12H11C11.5523 12 12 11.5523 12 11L12 6.96128C12 6.6575 11.8619 6.37018 11.6247 6.18041L8.6247 3.78041ZM6.12592 2.21867C7.22157 1.34215 8.77843 1.34215 9.87409 2.21867L12.8741 4.61867C13.5857 5.18799 14 6.04993 14 6.96128L14 11C14 12.6569 12.6569 14 11 14H10C9.17157 14 8.5 13.3285 8.5 12.5V10.5C8.5 10.2239 8.27614 10 8 10C7.72386 10 7.5 10.2239 7.5 10.5V12.5C7.5 13.3285 6.82843 14 6 14H5C3.34315 14 2 12.6569 2 11V6.96128C2 6.04993 2.41427 5.18799 3.12592 4.61867L6.12592 2.21867Z" fill="#515164"/>
</svg>
