<svg width="16" height="16" viewBox="0 0 16 16" fill="none" xmlns="http://www.w3.org/2000/svg">
<g clip-path="url(#clip0_22614_8)">
<path d="M8 0.5C8.55228 0.5 9 0.947715 9 1.5V2C9 2.55228 8.55228 3 8 3C7.44772 3 7 2.55228 7 2V1.5C7 0.947715 7.44772 0.5 8 0.5ZM2.6967 2.6967C3.08722 2.30617 3.72039 2.30617 4.11091 2.6967L4.46447 3.05025C4.85499 3.44078 4.85499 4.07394 4.46447 4.46447C4.07394 4.85499 3.44078 4.85499 3.05025 4.46447L2.6967 4.11091C2.30617 3.72039 2.30618 3.08722 2.6967 2.6967ZM13.3033 2.69715C13.6938 3.08768 13.6938 3.72084 13.3033 4.11137L12.9497 4.46492C12.5592 4.85544 11.9261 4.85544 11.5355 4.46492C11.145 4.07439 11.145 3.44123 11.5355 3.0507L11.8891 2.69715C12.2796 2.30663 12.9128 2.30663 13.3033 2.69715ZM8 6C6.89543 6 6 6.89543 6 8C6 9.10457 6.89543 10 8 10C9.10457 10 10 9.10457 10 8C10 6.89543 9.10457 6 8 6ZM4 8C4 5.79086 5.79086 4 8 4C10.2091 4 12 5.79086 12 8C12 10.2091 10.2091 12 8 12C5.79086 12 4 10.2091 4 8ZM0.5 8C0.5 7.44771 0.947715 7 1.5 7H2C2.55228 7 3 7.44771 3 8C3 8.55228 2.55228 9 2 9H1.5C0.947715 9 0.5 8.55228 0.5 8ZM13 8C13 7.44772 13.4477 7 14 7H14.5C15.0523 7 15.5 7.44772 15.5 8C15.5 8.55228 15.0523 9 14.5 9H14C13.4477 9 13 8.55228 13 8ZM4.46443 11.535C4.85496 11.9256 4.85496 12.5587 4.46443 12.9493L4.11088 13.3028C3.72035 13.6933 3.08719 13.6933 2.69666 13.3028C2.30614 12.9123 2.30614 12.2791 2.69666 11.8886L3.05022 11.535C3.44074 11.1445 4.07391 11.1445 4.46443 11.535ZM11.5355 11.5355C11.9261 11.145 12.5592 11.145 12.9497 11.5355L13.3033 11.8891C13.6938 12.2796 13.6938 12.9128 13.3033 13.3033C12.9128 13.6938 12.2796 13.6938 11.8891 13.3033L11.5355 12.9497C11.145 12.5592 11.145 11.9261 11.5355 11.5355ZM8 13C8.55228 13 9 13.4477 9 14V14.5C9 15.0523 8.55228 15.5 8 15.5C7.44772 15.5 7 15.0523 7 14.5V14C7 13.4477 7.44772 13 8 13Z" fill="#515164"/>
</g>
<defs>
<clipPath id="clip0_22614_8">
<rect width="16" height="16" fill="white"/>
</clipPath>
</defs>
</svg>
