<svg width="16" height="16" viewBox="0 0 16 16" fill="none" xmlns="http://www.w3.org/2000/svg">
<path d="M8 8.5C7.44772 8.5 7 8.94772 7 9.5V10.5C7 11.0523 7.44772 11.5 8 11.5C8.55228 11.5 9 11.0523 9 10.5V9.5C9 8.94772 8.55228 8.5 8 8.5Z" fill="#515164"/>
<path d="M7 4C7 3.44772 7.44772 3 8 3C8.55228 3 9 2.55228 9 2C9 1.44772 8.55228 1 8 1C6.34315 1 5 2.34315 5 4V5H4C2.34315 5 1 6.34315 1 8V12C1 13.6569 2.34315 15 4 15H12C13.6569 15 15 13.6569 15 12V8C15 6.34315 13.6569 5 12 5H7V4ZM3 8C3 7.44772 3.44772 7 4 7H12C12.5523 7 13 7.44772 13 8V12C13 12.5523 12.5523 13 12 13H4C3.44772 13 3 12.5523 3 12V8Z" fill="#515164"/>
</svg>
