<svg width="16" height="16" viewBox="0 0 16 16" fill="none" xmlns="http://www.w3.org/2000/svg">
<path d="M11 1C12.6569 1 14 2.34315 14 4V13C14.5523 13 15 13.4477 15 14C15 14.5523 14.5523 15 14 15H9.5H6.5H2C1.44772 15 1 14.5523 1 14C1 13.4477 1.44772 13 2 13L2 4C2 2.34315 3.34315 1 5 1H11ZM7.5 13H8.5V12H7.5V13ZM10.5 13H12L12 4C12 3.44772 11.5523 3 11 3L5 3C4.44772 3 4 3.44772 4 4L4 13H5.5V12C5.5 10.8954 6.39543 10 7.5 10H8.5C9.60457 10 10.5 10.8954 10.5 12V13ZM6 4C5.44772 4 5 4.44772 5 5C5 5.55229 5.44772 6 6 6H10C10.5523 6 11 5.55229 11 5C11 4.44772 10.5523 4 10 4H6ZM5 8C5 7.44772 5.44772 7 6 7H10C10.5523 7 11 7.44772 11 8C11 8.55229 10.5523 9 10 9H6C5.44772 9 5 8.55229 5 8Z" fill="#515164"/>
</svg>
