<svg width="16" height="16" viewBox="0 0 16 16" fill="none" xmlns="http://www.w3.org/2000/svg">
<path d="M9.7464 3.55337C9.79096 3.53554 9.83561 3.51883 9.88029 3.5033L9.60557 4.05273C9.47253 4.31881 9.46486 4.63031 9.58466 4.90262C9.7044 5.17482 9.93941 5.37969 10.2253 5.46148L10.2292 5.46262L10.252 5.46937C10.2732 5.47573 10.306 5.48574 10.3488 5.49928C10.4346 5.52641 10.5596 5.56745 10.7106 5.62137C11.0153 5.73019 11.4128 5.88685 11.8028 6.08184C11.9514 6.15617 12.0922 6.23271 12.2221 6.31047C12.0384 6.37171 11.8765 6.43516 11.7486 6.49294C11.6786 6.52456 11.5967 6.56431 11.5212 6.60983C11.4915 6.62769 11.4159 6.6739 11.3376 6.7445C11.306 6.77295 11.2085 6.86223 11.1277 7.0066C11.0552 7.13636 10.8566 7.58752 11.1679 8.05458C11.3151 8.27532 11.443 8.5323 11.5405 8.79215C11.494 8.75881 11.4474 8.72509 11.4007 8.69114C11.0677 8.44896 10.748 8.20545 10.5106 8.02166C10.3922 7.93001 10.295 7.85376 10.2277 7.80066L10.1504 7.73946L10.1306 7.72378L10.1246 7.71898C10.1021 7.70093 10.0787 7.68386 10.0547 7.66783L8.55468 6.66788C8.20529 6.43497 7.74762 6.44514 7.40892 6.69334L5.9126 7.78984C5.73402 7.91818 5.54832 8.05066 5.36081 8.18302C5.08605 8.37698 4.81034 8.5686 4.54933 8.74551C4.64969 8.47146 4.77023 8.19549 4.89443 7.94711C5.01304 7.70989 5.03255 7.43527 4.94868 7.18367C4.86481 6.93206 4.68407 6.72389 4.44685 6.60529L4.44366 6.6037L4.43861 6.6012L4.42408 6.59412C4.41247 6.5885 4.39701 6.58112 4.37796 6.57223C4.33989 6.55446 4.28724 6.53057 4.22204 6.50262C4.10531 6.45259 3.94614 6.38864 3.75656 6.32335C3.89235 6.24117 4.04038 6.16026 4.19722 6.08184C4.58722 5.88684 4.98476 5.73016 5.28947 5.62133C5.44046 5.5674 5.56546 5.52636 5.65122 5.49923C5.69403 5.48568 5.72687 5.47567 5.74805 5.46931L5.77082 5.46256L5.77508 5.46132C6.06096 5.37952 6.29562 5.17474 6.41535 4.90255C6.53513 4.63025 6.5271 4.31803 6.39406 4.05195L6.11975 3.50333C6.16442 3.51886 6.20904 3.53556 6.25359 3.55339C6.74654 3.75058 7.13371 4.04788 7.29287 4.20705C7.48042 4.39461 7.7348 4.49997 8.00003 4.49997C8.26527 4.49996 8.51964 4.39457 8.70718 4.207C8.8663 4.04784 9.25345 3.75055 9.7464 3.55337ZM11.9006 3.93486L12.3944 2.94709C12.5241 2.6878 12.5348 2.38502 12.4239 2.1172C12.3129 1.84938 12.0912 1.64288 11.8162 1.55121C10.7707 1.20269 9.76672 1.39117 9.0036 1.69642C8.62847 1.84647 8.28875 2.03334 7.99998 2.22517C7.71122 2.03336 7.37152 1.8465 6.99641 1.69645C6.23331 1.39119 5.22934 1.20268 4.18377 1.55121C3.90875 1.64289 3.68706 1.84939 3.57612 2.11721C3.46518 2.38504 3.47593 2.68782 3.60557 2.94711L4.09944 3.93485C3.85073 4.03564 3.57797 4.1554 3.30278 4.293C2.82706 4.53086 2.29429 4.8464 1.86642 5.24371C1.45222 5.62833 1 6.21913 1 6.99995C1 7.26517 1.10536 7.51953 1.29291 7.70707C1.48046 7.89461 1.73483 7.99996 2.00005 7.99995C2.21421 7.99993 2.44202 8.03399 2.66124 8.08537C2.55571 8.37655 2.464 8.67713 2.39881 8.97049C2.32515 9.30198 2.27452 9.67122 2.29924 10.0297C2.32321 10.3772 2.42799 10.8421 2.79289 11.207C2.98037 11.3945 3.23463 11.4999 3.49976 11.4999C3.72759 11.5 3.91893 11.4279 3.99385 11.3989C4.09888 11.3582 4.20391 11.3075 4.29944 11.2577C4.49237 11.157 4.7163 11.0231 4.94805 10.8767C5.12095 10.7675 5.30702 10.6458 5.5 10.5166V12.4999L4.00005 12.4999C3.44776 12.4998 3.00003 12.9475 3 13.4998C2.99997 14.0521 3.44767 14.4998 3.99995 14.4999H12C12.5523 14.4999 13 14.0521 13 13.4999C13 12.9476 12.5523 12.4999 12 12.4999H10.5V10.5066C10.7695 10.6975 11.0456 10.8848 11.2962 11.039C11.4634 11.1419 11.6376 11.2415 11.8017 11.3188C11.918 11.3735 12.1924 11.4999 12.5 11.4999C12.7652 11.4999 13.0195 11.3945 13.207 11.2071C13.5473 10.8669 13.6747 10.4342 13.7187 10.0863C13.764 9.72783 13.7353 9.35386 13.6708 9.00533C13.6136 8.69678 13.5225 8.37704 13.4031 8.06321C13.601 8.0246 13.8059 7.99989 14 7.99989C14.5523 7.99989 15 7.55218 15 6.99989C15 6.21907 14.5478 5.62828 14.1336 5.24366C13.7057 4.84635 13.1729 4.53083 12.6972 4.29298C12.422 4.15539 12.1493 4.03565 11.9006 3.93486ZM8.5 9.03509V12.4999L7.5 12.4999V9.1102C7.66673 8.98903 7.82162 8.87573 7.95928 8.77458C7.98358 8.75673 8.00736 8.73924 8.03057 8.72216L8.5 9.03509Z" fill="#515164"/>
</svg>
