<svg width="16" height="16" viewBox="0 0 16 16" fill="none" xmlns="http://www.w3.org/2000/svg">
<path d="M9.0429 3.56066C10.1238 2.47978 11.8762 2.47978 12.9571 3.56066C14.038 4.64154 14.038 6.394 12.9571 7.47487L6.70712 13.7249C6.55974 13.8723 6.37 13.9699 6.16441 14.0042L3.16441 14.5042C2.84585 14.5573 2.52127 14.4532 2.29291 14.2249C2.06454 13.9965 1.96053 13.6719 2.01362 13.3534L2.51362 10.3534C2.54788 10.1478 2.64553 9.95804 2.79291 9.81066L9.0429 3.56066ZM11.5429 4.97487C11.2431 4.67504 10.757 4.67504 10.4571 4.97487L4.43372 10.9983L4.21657 12.3012L5.51951 12.0841L11.5429 6.06066C11.8427 5.76083 11.8427 5.2747 11.5429 4.97487Z" fill="#515164"/>
</svg>
