<svg width="16" height="16" viewBox="0 0 16 16" fill="none" xmlns="http://www.w3.org/2000/svg">
<path d="M6.00009 4C4.89552 4 4.00009 4.89543 4.00009 6C4.00009 7.10457 4.89552 8 6.00009 8C7.10466 8 8.00009 7.10457 8.00009 6C8.00009 4.89543 7.10466 4 6.00009 4ZM2.00009 6C2.00009 3.79086 3.79095 2 6.00009 2C8.20923 2 10.0001 3.79086 10.0001 6C10.0001 8.20914 8.20923 10 6.00009 10C3.79095 10 2.00009 8.20914 2.00009 6ZM10.6345 2.90064C10.3579 3.3787 10.5213 3.99043 10.9994 4.26697C11.5998 4.61429 12.0001 5.261 12.0001 6.00002C12.0001 6.73905 11.5998 7.38575 10.9994 7.73307C10.5213 8.00961 10.3579 8.62134 10.6345 9.0994C10.911 9.57746 11.5228 9.74082 12.0008 9.46428C13.1938 8.77417 14.0001 7.48184 14.0001 6.00002C14.0001 4.5182 13.1938 3.22587 12.0008 2.53576C11.5228 2.25922 10.911 2.42258 10.6345 2.90064ZM1.43356 12.176C0.978459 12.4888 0.863166 13.1114 1.17605 13.5665C1.48757 14.0196 2.10608 14.1359 2.56064 13.8281C2.56242 13.8269 2.5642 13.8257 2.56598 13.8245L2.56425 13.8257L2.56181 13.8274C2.56558 13.8249 2.57468 13.8191 2.58901 13.8103C2.61771 13.7928 2.66727 13.7636 2.73699 13.7265C2.87653 13.6522 3.09598 13.5466 3.3898 13.4389C3.97672 13.2237 4.86015 13 6.00009 13C7.14004 13 8.02346 13.2237 8.61038 13.4389C8.9042 13.5466 9.12366 13.6522 9.2632 13.7265C9.33292 13.7636 9.38248 13.7928 9.41117 13.8103C9.42551 13.8191 9.43461 13.8249 9.43838 13.8274L9.43958 13.8281C9.89414 14.1359 10.5126 14.0196 10.8241 13.5665C11.137 13.1114 11.0217 12.4888 10.5666 12.176L10.5652 12.175L10.5637 12.174L10.5603 12.1716L10.5517 12.1658L10.5279 12.1502C10.5091 12.138 10.4845 12.1223 10.4541 12.1037C10.3933 12.0666 10.3093 12.0176 10.2029 11.961C9.99016 11.8478 9.68689 11.7034 9.29889 11.5611C8.52218 11.2763 7.4056 11 6.00009 11C4.59459 11 3.47801 11.2763 2.70129 11.5611C2.31329 11.7034 2.01002 11.8478 1.79729 11.961C1.69087 12.0176 1.60691 12.0666 1.54611 12.1037C1.51571 12.1223 1.49107 12.138 1.47229 12.1502L1.44852 12.1658L1.43993 12.1716L1.43647 12.174L1.43495 12.175C1.43307 12.1763 1.43356 12.176 1.43356 12.176ZM9.43482 13.8249L9.43594 13.8257L9.43838 13.8274L9.43958 13.8281C9.43779 13.8269 9.4366 13.8261 9.43482 13.8249ZM11.4138 11.9035C11.586 11.3787 12.151 11.093 12.6757 11.2652C13.2281 11.4465 13.6581 11.6892 13.9548 11.8908C14.1036 11.9918 14.2204 12.0837 14.3041 12.1543C14.346 12.1896 14.3798 12.2198 14.4053 12.2433C14.4181 12.2551 14.4288 12.2652 14.4375 12.2736L14.4489 12.2846L14.4534 12.2891L14.4554 12.2911L14.4563 12.292L14.4572 12.2929C14.8477 12.6834 14.8477 13.3166 14.4572 13.7071C14.0693 14.0951 13.4418 14.0976 13.0507 13.7147C13.0484 13.7125 13.0461 13.7102 13.0437 13.7078L13.0446 13.7087L13.0461 13.7101L13.0507 13.7147L13.0492 13.7133C13.0444 13.7089 13.0328 13.6984 13.0148 13.6832C12.9785 13.6526 12.9166 13.6033 12.8308 13.545C12.6582 13.4278 12.3952 13.2781 12.052 13.1655C11.5273 12.9932 11.2415 12.4282 11.4138 11.9035Z" fill="#515164"/>
</svg>
