<svg width="16" height="16" viewBox="0 0 16 16" fill="none" xmlns="http://www.w3.org/2000/svg">
<path d="M8.00009 4C6.89552 4 6.00009 4.89543 6.00009 6C6.00009 7.10457 6.89552 8 8.00009 8C9.10466 8 10.0001 7.10457 10.0001 6C10.0001 4.89543 9.10466 4 8.00009 4ZM4.00009 6C4.00009 3.79086 5.79095 2 8.00009 2C10.2092 2 12.0001 3.79086 12.0001 6C12.0001 8.20914 10.2092 10 8.00009 10C5.79095 10 4.00009 8.20914 4.00009 6ZM3.43356 12.176C2.97846 12.4888 2.86317 13.1114 3.17605 13.5665C3.48757 14.0196 4.10608 14.1359 4.56064 13.8281C4.56242 13.8269 4.5642 13.8257 4.56598 13.8245L4.56425 13.8257L4.56181 13.8274C4.56558 13.8249 4.57468 13.8191 4.58901 13.8103C4.61771 13.7928 4.66727 13.7636 4.73699 13.7265C4.87653 13.6522 5.09598 13.5466 5.3898 13.4389C5.97672 13.2237 6.86015 13 8.00009 13C9.14004 13 10.0235 13.2237 10.6104 13.4389C10.9042 13.5466 11.1237 13.6522 11.2632 13.7265C11.3329 13.7636 11.3825 13.7928 11.4112 13.8103C11.4255 13.8191 11.4346 13.8249 11.4384 13.8274L11.4396 13.8281C11.8941 14.1359 12.5126 14.0196 12.8241 13.5665C13.137 13.1114 13.0217 12.4888 12.5666 12.176L12.5652 12.175L12.5637 12.174L12.5603 12.1716L12.5517 12.1658L12.5279 12.1502C12.5091 12.138 12.4845 12.1223 12.4541 12.1037C12.3933 12.0666 12.3093 12.0176 12.2029 11.961C11.9902 11.8478 11.6869 11.7034 11.2989 11.5611C10.5222 11.2763 9.4056 11 8.00009 11C6.59459 11 5.47801 11.2763 4.70129 11.5611C4.31329 11.7034 4.01002 11.8478 3.79729 11.961C3.69087 12.0176 3.60691 12.0666 3.54611 12.1037C3.51571 12.1223 3.49107 12.138 3.47229 12.1502L3.44852 12.1658L3.43993 12.1716L3.43647 12.174L3.43495 12.175C3.43307 12.1763 3.43356 12.176 3.43356 12.176ZM11.4348 13.8249L11.4359 13.8257L11.4384 13.8274L11.4396 13.8281C11.4378 13.8269 11.4366 13.8261 11.4348 13.8249Z" fill="#515164"/>
</svg>
