<svg width="16" height="16" viewBox="0 0 16 16" fill="none" xmlns="http://www.w3.org/2000/svg">
<path d="M2.00907 1.95053C2.66313 1.33287 3.56845 1 4.5027 1L6.29752 1C7.16006 1 7.92543 1.55298 8.19632 2.37188L8.90667 4.51925C9.23807 5.52105 8.73418 6.60795 7.75549 7.00239L7.63037 7.05281C7.82645 7.34819 8.02649 7.59473 8.24294 7.81284C8.45539 8.02691 8.69491 8.22495 8.9807 8.41888L9.02596 8.30486C9.41807 7.31709 10.5142 6.80847 11.5217 7.14686L13.6376 7.85758C14.4521 8.13115 15.0009 8.89436 15.0008 9.75356L15.0008 11.0001C15.0007 13.1546 13.1846 15.1302 10.8096 14.5866C8.67477 14.0979 5.76839 12.9979 3.7726 10.4838C2.01667 8.27184 1.33615 6.14524 1.10535 4.54292C0.955357 3.50154 1.33876 2.58354 2.00907 1.95053ZM3.38225 3.40462C3.15059 3.62339 3.03419 3.90558 3.08493 4.25779C3.27076 5.54795 3.82604 7.33437 5.33904 9.24033C6.92768 11.2416 9.31759 12.1933 11.2558 12.637C12.1109 12.8327 13.0007 12.1593 13.0008 11.0001L13.0008 9.75349L10.8849 9.04277L10.4132 10.231C10.3096 10.4919 10.1012 10.6972 9.8389 10.7969C9.57656 10.8965 9.2844 10.8814 9.03377 10.7551C8.15186 10.3108 7.43628 9.83928 6.82334 9.22165C6.2106 8.60421 5.74318 7.88381 5.30275 6.99621C5.17889 6.74659 5.1648 6.4566 5.26389 6.19614C5.36298 5.93568 5.56626 5.72839 5.82473 5.62422L7.00787 5.14738L6.29752 3H4.5027C4.02897 3 3.63015 3.17051 3.38225 3.40462Z" fill="#515164"/>
</svg>
