<svg width="16" height="16" viewBox="0 0 16 16" fill="none" xmlns="http://www.w3.org/2000/svg">
<path d="M8 5C6.89543 5 6 5.89543 6 7C6 8.10457 6.89543 9 8 9C9.10457 9 10 8.10457 10 7C10 5.89543 9.10457 5 8 5Z" fill="#515164"/>
<path d="M8 1C4.68629 1 2 3.68629 2 7C2 7.91045 2.32262 8.85397 2.74519 9.70391C3.17504 10.5685 3.74921 11.4173 4.34444 12.1606C4.93954 12.9037 5.57633 13.5671 6.14732 14.0549C6.43134 14.2975 6.71765 14.5127 6.98898 14.6732C7.21877 14.8091 7.58927 15 8 15C8.41073 15 8.78123 14.8091 9.01102 14.6732C9.28235 14.5127 9.56866 14.2975 9.85268 14.0549C10.4237 13.5671 11.0605 12.9037 11.6556 12.1606C12.2508 11.4173 12.825 10.5685 13.2548 9.70391C13.6774 8.85397 14 7.91045 14 7C14 3.68629 11.3137 1 8 1ZM4 7C4 4.79086 5.79086 3 8 3C10.2091 3 12 4.79086 12 7C12 7.47027 11.8226 8.0921 11.4639 8.81354C11.1125 9.52033 10.6242 10.2489 10.0944 10.9105C9.56454 11.5722 9.01383 12.141 8.55357 12.5343C8.3259 12.7288 8.13819 12.865 8 12.9475C7.86181 12.865 7.6741 12.7288 7.44643 12.5343C6.98617 12.141 6.43546 11.5722 5.90556 10.9105C5.37579 10.2489 4.88746 9.52033 4.53606 8.81354C4.17738 8.0921 4 7.47027 4 7Z" fill="#515164"/>
</svg>
