<svg width="16" height="16" viewBox="0 0 16 16" fill="none" xmlns="http://www.w3.org/2000/svg">
<path d="M8 5C7.44772 5 7 5.44772 7 6C7 6.55228 6.55228 7 6 7C5.44772 7 5 6.55228 5 6C5 4.34315 6.34315 3 8 3C9.65685 3 11 4.34315 11 6C11 7.30622 10.1652 8.41746 9 8.82929V9C9 9.55228 8.55228 10 8 10C7.44772 10 7 9.55228 7 9V8C7 7.44772 7.44772 7 8 7C8.55228 7 9 6.55228 9 6C9 5.44772 8.55228 5 8 5Z" fill="#515164"/>
<path d="M9 12C9 12.5523 8.55228 13 8 13C7.44772 13 7 12.5523 7 12C7 11.4477 7.44772 11 8 11C8.55228 11 9 11.4477 9 12Z" fill="#515164"/>
</svg>
