<svg width="16" height="16" viewBox="0 0 16 16" fill="none" xmlns="http://www.w3.org/2000/svg">
<path d="M8 3C5.23858 3 3 5.23858 3 8C3 10.7614 5.23858 13 8 13C10.7614 13 13 10.7614 13 8C13 7.44772 13.4477 7 14 7C14.5523 7 15 7.44772 15 8C15 11.866 11.866 15 8 15C4.13401 15 1 11.866 1 8C1 4.13401 4.13401 1 8 1C8.55228 1 9 1.44772 9 2C9 2.55228 8.55228 3 8 3Z" fill="#515164"/>
<path d="M6.5 5C7.05228 5 7.5 5.44772 7.5 6V7C7.5 7.55228 7.05228 8 6.5 8C5.94772 8 5.5 7.55228 5.5 7V6C5.5 5.44772 5.94772 5 6.5 5Z" fill="#515164"/>
<path d="M9.5 5C10.0523 5 10.5 5.44772 10.5 6V7C10.5 7.55228 10.0523 8 9.5 8C8.94772 8 8.5 7.55228 8.5 7V6C8.5 5.44772 8.94772 5 9.5 5Z" fill="#515164"/>
<path d="M5.29289 8.79289C5.68342 8.40237 6.31658 8.40237 6.70711 8.79289C7.42115 9.50694 8.57885 9.50694 9.29289 8.79289C9.68342 8.40237 10.3166 8.40237 10.7071 8.79289C11.0976 9.18342 11.0976 9.81658 10.7071 10.2071C9.21201 11.7022 6.78799 11.7022 5.29289 10.2071C4.90237 9.81658 4.90237 9.18342 5.29289 8.79289Z" fill="#515164"/>
<path d="M12.5 1C13.0523 1 13.5 1.44772 13.5 2V2.5H14C14.5523 2.5 15 2.94772 15 3.5C15 4.05228 14.5523 4.5 14 4.5H13.5V5C13.5 5.55228 13.0523 6 12.5 6C11.9477 6 11.5 5.55228 11.5 5V4.5H11C10.4477 4.5 10 4.05228 10 3.5C10 2.94772 10.4477 2.5 11 2.5H11.5V2C11.5 1.44772 11.9477 1 12.5 1Z" fill="#515164"/>
</svg>
