<svg width="16" height="16" viewBox="0 0 16 16" fill="none" xmlns="http://www.w3.org/2000/svg">
<path d="M4 2C2.34332 2 1.00028 3.34286 1 4.99948C1 4.9993 1 4.99965 1 4.99948L1 11C1 12.6569 2.34315 14 4 14H12C13.6569 14 15 12.6569 15 11V5.01981C15.0003 5.00444 15.0003 4.98905 14.9999 4.97366C14.9857 3.32893 13.6481 2 12 2H4ZM12.888 4.53967L8.55481 7.42846C8.21891 7.65239 7.78131 7.65239 7.44541 7.42846L3.11207 4.53957C3.27865 4.21898 3.61375 4 4 4H12C12.3863 4 12.7214 4.21903 12.888 4.53967ZM3 6.86855L6.33601 9.09256C7.3437 9.76436 8.65651 9.76436 9.66421 9.09256L13 6.86869V11C13 11.5523 12.5523 12 12 12H4C3.44772 12 3 11.5523 3 11V6.86855Z" fill="#515164"/>
</svg>
