<svg width="24" height="27" viewBox="0 0 24 27" fill="none" xmlns="http://www.w3.org/2000/svg">
<g filter="url(#filter0_d_4_217)">
<path fill-rule="evenodd" clip-rule="evenodd" d="M9.33333 3.10999C9.82425 3.10999 10.2222 3.50795 10.2222 3.99887V4.88776H13.7778V3.99887C13.7778 3.50795 14.1757 3.10999 14.6667 3.10999C15.1576 3.10999 15.5556 3.50795 15.5556 3.99887V4.88776H16.4444C18.4081 4.88776 20 6.47964 20 8.44332V17.3322C20 19.2959 18.4081 20.8878 16.4444 20.8878H7.55556C5.59188 20.8878 4 19.2959 4 17.3322V8.44332C4 6.47964 5.59188 4.88776 7.55556 4.88776H8.44444V3.99887C8.44444 3.50795 8.84241 3.10999 9.33333 3.10999ZM13.7778 6.66554V7.55443C13.7778 8.04535 14.1757 8.44332 14.6667 8.44332C15.1576 8.44332 15.5556 8.04535 15.5556 7.55443V6.66554H16.4444C17.4263 6.66554 18.2222 7.46148 18.2222 8.44332V10.2211H5.77778V8.44332C5.77778 7.46148 6.57372 6.66554 7.55556 6.66554H8.44444V7.55443C8.44444 8.04535 8.84241 8.44332 9.33333 8.44332C9.82425 8.44332 10.2222 8.04535 10.2222 7.55443V6.66554H13.7778Z" fill="white"/>
</g>
<defs>
<filter id="filter0_d_4_217" x="0.552188" y="1.38608" width="22.8956" height="24.6734" filterUnits="userSpaceOnUse" color-interpolation-filters="sRGB">
<feFlood flood-opacity="0" result="BackgroundImageFix"/>
<feColorMatrix in="SourceAlpha" type="matrix" values="0 0 0 0 0 0 0 0 0 0 0 0 0 0 0 0 0 0 127 0" result="hardAlpha"/>
<feOffset dy="1.72391"/>
<feGaussianBlur stdDeviation="1.72391"/>
<feComposite in2="hardAlpha" operator="out"/>
<feColorMatrix type="matrix" values="0 0 0 0 0.0352941 0 0 0 0 0.0627451 0 0 0 0 0.109804 0 0 0 0.12 0"/>
<feBlend mode="normal" in2="BackgroundImageFix" result="effect1_dropShadow_4_217"/>
<feBlend mode="normal" in="SourceGraphic" in2="effect1_dropShadow_4_217" result="shape"/>
</filter>
</defs>
</svg>
