<svg width="24" height="24" viewBox="0 0 24 24" fill="none" xmlns="http://www.w3.org/2000/svg">
<path fill-rule="evenodd" clip-rule="evenodd" d="M10.2035 15.1227C10.2973 15.2165 10.35 15.3436 10.35 15.4762V18.9999C10.35 19.2024 10.4444 19.3933 10.6052 19.5163C10.7661 19.6393 10.9753 19.6802 11.1707 19.6271L11.1742 19.6261L11.1825 19.6238L11.2126 19.6154C11.2385 19.6082 11.2759 19.5975 11.3232 19.5837C11.4178 19.5561 11.5527 19.5158 11.7164 19.4639C12.043 19.3604 12.4885 19.2098 12.9604 19.0222C13.4297 18.8355 13.9394 18.6066 14.3884 18.344C14.8208 18.0911 15.2695 17.766 15.5402 17.3613L15.5408 17.3605C15.8506 16.8958 15.9264 16.3661 15.9036 15.8901C15.8807 15.4141 15.7574 14.9449 15.6166 14.5467C15.5637 14.397 15.507 14.2538 15.4499 14.12C15.3485 13.8826 15.4283 13.6037 15.6422 13.4592C17.0354 12.5181 17.9998 11.3837 18.6318 10.0937C19.3926 8.54076 19.65 6.80728 19.65 5.00001C19.65 4.64102 19.359 4.35001 19 4.35001C16.6792 4.35001 14.9281 4.73671 13.4877 5.58398C12.327 6.26678 11.4137 7.22227 10.5753 8.41667C10.429 8.62503 10.1528 8.69632 9.92038 8.5925C9.77717 8.52852 9.62262 8.46463 9.46036 8.40511C9.0623 8.25911 8.5927 8.13002 8.11579 8.10268C7.63879 8.07533 7.10648 8.14771 6.63943 8.45907L6.63857 8.45964C6.23387 8.73037 5.90878 9.17907 5.65585 9.61152C5.39327 10.0605 5.16437 10.5702 4.97772 11.0395C4.79007 11.5114 4.6395 11.9569 4.536 12.2835C4.48412 12.4472 4.44375 12.5821 4.41616 12.6767C4.40235 12.724 4.39173 12.7613 4.38445 12.7873L4.37604 12.8174L4.37375 12.8257L4.37275 12.8294C4.31962 13.0248 4.3606 13.2338 4.48358 13.3947C4.60656 13.5555 4.79749 13.6499 4.99998 13.6499H8.52363C8.65624 13.6499 8.78342 13.7026 8.87719 13.7963L10.2035 15.1227ZM11 18.9999L11.1707 19.6271C11.1707 19.6271 11.1705 19.6271 11 18.9999ZM12.3052 17.8824C11.9859 18.0048 11.65 17.7636 11.65 17.4215V15.7908C11.65 15.5839 11.7774 15.3987 11.97 15.3232C12.5184 15.1082 13.1076 14.8648 13.6657 14.5946C13.9218 14.4706 14.2361 14.5716 14.3382 14.8371C14.3563 14.884 14.3739 14.9317 14.391 14.9801C14.5079 15.3107 14.5904 15.6483 14.6051 15.9525C14.6197 16.2566 14.5649 16.4806 14.4594 16.639C14.3569 16.7919 14.1191 16.9955 13.732 17.2219C13.361 17.4389 12.9173 17.6402 12.48 17.8142C12.4213 17.8375 12.363 17.8603 12.3052 17.8824ZM9.17117 9.68652C9.43357 9.79189 9.53098 10.1048 9.40667 10.3587C9.13714 10.9094 8.89418 11.4909 8.67952 12.0318C8.6035 12.2234 8.41882 12.3499 8.21273 12.3499H6.57835C6.23631 12.3499 5.99511 12.014 6.1175 11.6946C6.13962 11.6369 6.16237 11.5786 6.18571 11.5199C6.35963 11.0825 6.56102 10.6388 6.77801 10.2678C7.00441 9.88075 7.20797 9.64301 7.36091 9.54049C7.51692 9.43663 7.73833 9.38317 8.04138 9.40054C8.34476 9.41794 8.68189 9.50427 9.01268 9.6256C9.06641 9.64531 9.11931 9.66569 9.17117 9.68652Z" fill="black"/>
<path d="M6.33154 16C5.46532 16 4.74317 16.6629 4.66919 17.526L4.53435 19.0991C4.5164 19.3085 4.69147 19.4836 4.9009 19.4656L6.47403 19.3308C7.33709 19.2568 7.99999 18.5347 7.99999 17.6684C7.99999 16.747 7.253 16 6.33154 16Z" fill="black"/>
</svg>
