<svg width="24" height="24" viewBox="0 0 24 24" fill="none" xmlns="http://www.w3.org/2000/svg">
<path fill-rule="evenodd" clip-rule="evenodd" d="M9.2 2.89886C8.90713 2.89886 8.63124 3.03634 8.45487 3.27015C8.27851 3.50396 8.22212 3.807 8.30258 4.0886L9.0108 6.56739C8.36952 6.92626 7.50414 7.59841 6.74034 8.82378C5.76788 10.3839 5 12.7764 5 16.4322C5 17.5892 5.42996 18.7332 6.14941 19.5972C6.87288 20.4661 7.93623 21.1012 9.2 21.1012H14.8C16.0637 21.1012 17.1271 20.4663 17.8506 19.5974C18.5701 18.7334 19 17.5893 19 16.4322C19 12.7764 18.2321 10.3839 17.2597 8.82378C16.4959 7.59841 15.6305 6.92626 14.9892 6.56739L15.6974 4.0886C15.7779 3.807 15.7215 3.50396 15.5451 3.27015C15.3688 3.03634 15.0929 2.89886 14.8 2.89886H9.2ZM13.1627 6.16553L13.5627 4.76553H10.4373L10.8373 6.16553H13.1627ZM12.1154 9.49994C12.5937 9.49994 12.9815 9.88771 12.9815 10.366V10.6291C13.4652 10.8139 14.0259 11.1442 13.9971 11.7355C13.9723 12.2432 13.5971 12.593 13.1334 12.5525C12.9569 12.5525 12.81 12.4478 12.651 12.3346C12.4638 12.2012 12.26 12.0559 11.9716 12.0559C11.5215 12.0559 11.351 12.246 11.351 12.6078C11.351 13.0412 11.8798 13.222 12.4951 13.4324C13.3512 13.7252 14.3748 14.0752 14.3748 15.2423C14.3748 16.2004 13.8842 16.922 12.9815 17.3034V17.6338C12.9815 18.1122 12.5937 18.4999 12.1154 18.4999C11.637 18.4999 11.2493 18.1122 11.2493 17.6338V17.4052C10.615 17.2354 10.1852 16.8663 9.9399 16.586C9.62488 16.226 9.66129 15.6789 10.0212 15.3638C10.3812 15.0488 10.9284 15.0852 11.2434 15.4452L11.2713 15.4775C11.3957 15.6226 11.6134 15.8766 11.9716 15.8766C12.2334 15.8766 12.598 15.6687 12.598 15.326C12.598 14.917 12.1299 14.7907 11.5655 14.6385C10.7087 14.4074 9.63 14.1164 9.63 12.6857C9.63 11.6876 10.2955 10.8219 11.2493 10.5514V10.366C11.2493 9.88771 11.637 9.49994 12.1154 9.49994Z" fill="black"/>
</svg>
