<svg width="24" height="25" viewBox="0 0 24 25" fill="none" xmlns="http://www.w3.org/2000/svg">
<g filter="url(#filter0_d_6_116)">
<path d="M5.9 3C6.39706 3 6.8 3.40294 6.8 3.9V4.25712C7.45484 4.05542 8.33742 3.9 9.5 3.9C11.1205 3.9 11.9794 4.47127 12.6992 4.95115L12.7027 4.95345C13.3312 5.37247 13.8225 5.7 14.9 5.7C16.1486 5.7 16.9335 5.49225 17.3782 5.31437C17.6014 5.22511 17.743 5.14174 17.818 5.09178C17.8553 5.0669 17.8766 5.04992 17.8837 5.04408C18.1409 4.80238 18.5168 4.73279 18.8444 4.86851C19.1807 5.00781 19.4 5.33598 19.4 5.7V13.6807L19.4001 13.6843V13.6843C19.4006 13.7106 19.4035 13.8557 19.3587 14.0131C19.3231 14.1383 19.2601 14.2647 19.1816 14.3686C19.0872 14.4934 18.9839 14.5699 18.9556 14.5908L18.9508 14.5943C18.4916 14.9407 17.2931 15.6 14.9 15.6C13.2795 15.6 12.4206 15.0287 11.7008 14.5488L11.6973 14.5465C11.0688 14.1275 10.5775 13.8 9.5 13.8C8.25145 13.8 7.46646 14.0077 7.02175 14.1856C6.9361 14.2199 6.86247 14.2533 6.8 14.2842L6.8 14.7L6.8 20.1C6.8 20.5971 6.39706 21 5.9 21C5.40294 21 5 20.5971 5 20.1V15.601V15.599V5.7004V3.9C5 3.40294 5.40294 3 5.9 3Z" fill="white"/>
</g>
<defs>
<filter id="filter0_d_6_116" x="2.9081" y="1.95405" width="18.5841" height="22.1838" filterUnits="userSpaceOnUse" color-interpolation-filters="sRGB">
<feFlood flood-opacity="0" result="BackgroundImageFix"/>
<feColorMatrix in="SourceAlpha" type="matrix" values="0 0 0 0 0 0 0 0 0 0 0 0 0 0 0 0 0 0 127 0" result="hardAlpha"/>
<feOffset dy="1.04595"/>
<feGaussianBlur stdDeviation="1.04595"/>
<feComposite in2="hardAlpha" operator="out"/>
<feColorMatrix type="matrix" values="0 0 0 0 0.0352941 0 0 0 0 0.0627451 0 0 0 0 0.109804 0 0 0 0.12 0"/>
<feBlend mode="normal" in2="BackgroundImageFix" result="effect1_dropShadow_6_116"/>
<feBlend mode="normal" in="SourceGraphic" in2="effect1_dropShadow_6_116" result="shape"/>
</filter>
</defs>
</svg>
