<svg width="26" height="25" viewBox="0 0 26 25" fill="none" xmlns="http://www.w3.org/2000/svg">
<g filter="url(#filter0_d_4_216)">
<path d="M6.00376 6.74885C6.74867 5.65476 7.98657 5 9.31017 5H16.3028C17.5017 5 18.6374 5.53778 19.3972 6.46525L21.7736 9.36631C21.92 9.54504 22 9.76896 22 10V15C22 17.2091 20.2091 19 18 19H8C5.79086 19 4 17.2091 4 15V10C4 9.79925 4.06042 9.60315 4.1734 9.43721L6.00376 6.74885ZM9.31017 7C8.64837 7 8.02942 7.32738 7.65697 7.87442L6.89062 9H7.97915C9.34551 9 10.5116 9.98783 10.7362 11.3356C10.8001 11.719 11.1318 12 11.5205 12H14.4791C14.8678 12 15.1995 11.719 15.2634 11.3356C15.4881 9.98783 16.6542 9 18.0205 9H18.8882L17.85 7.73263C17.4701 7.26889 16.9023 7 16.3028 7H9.31017Z" fill="white"/>
</g>
<defs>
<filter id="filter0_d_4_216" x="0.121212" y="3.06061" width="25.7576" height="21.7576" filterUnits="userSpaceOnUse" color-interpolation-filters="sRGB">
<feFlood flood-opacity="0" result="BackgroundImageFix"/>
<feColorMatrix in="SourceAlpha" type="matrix" values="0 0 0 0 0 0 0 0 0 0 0 0 0 0 0 0 0 0 127 0" result="hardAlpha"/>
<feOffset dy="1.93939"/>
<feGaussianBlur stdDeviation="1.93939"/>
<feComposite in2="hardAlpha" operator="out"/>
<feColorMatrix type="matrix" values="0 0 0 0 0.0352941 0 0 0 0 0.0627451 0 0 0 0 0.109804 0 0 0 0.12 0"/>
<feBlend mode="normal" in2="BackgroundImageFix" result="effect1_dropShadow_4_216"/>
<feBlend mode="normal" in="SourceGraphic" in2="effect1_dropShadow_4_216" result="shape"/>
</filter>
</defs>
</svg>
