<svg width="24" height="24" viewBox="0 0 24 24" fill="none" xmlns="http://www.w3.org/2000/svg">
<path fill-rule="evenodd" clip-rule="evenodd" d="M12.7578 3.34961C13.7256 3.34973 14.6535 3.73471 15.3379 4.41895L17.5811 6.66211C18.2653 7.34649 18.6503 8.27443 18.6504 9.24219V17C18.6504 19.0158 17.0158 20.6504 15 20.6504H9C6.98416 20.6504 5.34961 19.0158 5.34961 17V7C5.34961 4.98416 6.98416 3.34961 9 3.34961H12.7578ZM10 15.3496C9.64101 15.3496 9.34961 15.641 9.34961 16C9.34961 16.359 9.64101 16.6504 10 16.6504H12L12.1309 16.6367C12.4271 16.5762 12.6504 16.3142 12.6504 16C12.6504 15.6858 12.4271 15.4238 12.1309 15.3633L12 15.3496H10ZM10 11.3496C9.64101 11.3496 9.34961 11.641 9.34961 12C9.34961 12.359 9.64101 12.6504 10 12.6504H14L14.1309 12.6367C14.4271 12.5762 14.6504 12.3142 14.6504 12C14.6504 11.6858 14.4271 11.4238 14.1309 11.3633L14 11.3496H10Z" fill="black"/>
</svg>
