<svg width="24" height="24" viewBox="0 0 24 24" fill="none" xmlns="http://www.w3.org/2000/svg">
<path fill-rule="evenodd" clip-rule="evenodd" d="M6.04583 4.51001C4.36366 4.51001 3 5.87367 3 7.55584V13.6475C3 15.3297 4.36366 16.6933 6.04583 16.6933H15.1833C16.8655 16.6933 18.2291 15.3297 18.2291 13.6475V7.55584C18.2291 5.87367 16.8655 4.51001 15.1833 4.51001H6.04583ZM10.6146 6.79438C11.0351 6.79438 11.376 7.13529 11.376 7.55583H12.1375C12.558 7.55583 12.8989 7.89675 12.8989 8.31729C12.8989 8.73783 12.558 9.07875 12.1375 9.07875H10.2338C10.0236 9.07875 9.85309 9.24921 9.85309 9.45948C9.85309 9.66975 10.0236 9.84021 10.2338 9.84021H10.9953C12.0466 9.84021 12.8989 10.6925 12.8989 11.7438C12.8989 12.6648 12.2449 13.433 11.376 13.6094V13.6475C11.376 14.068 11.0351 14.4089 10.6146 14.4089C10.194 14.4089 9.85309 14.068 9.85309 13.6475H9.09164C8.6711 13.6475 8.33018 13.3066 8.33018 12.886C8.33018 12.4655 8.6711 12.1246 9.09164 12.1246H10.9953C11.2056 12.1246 11.376 11.9541 11.376 11.7438C11.376 11.5336 11.2055 11.3631 10.9953 11.3631H10.2338C9.18247 11.3631 8.33018 10.5108 8.33018 9.45948C8.33018 8.53851 8.98418 7.77029 9.85309 7.59391V7.55583C9.85309 7.13529 10.194 6.79438 10.6146 6.79438Z" fill="black"/>
<path d="M21 9.58636C21 9.16582 20.6591 8.8249 20.2385 8.8249C19.818 8.8249 19.4771 9.16582 19.4771 9.58636V14.1551C19.4771 16.2578 17.7725 17.9624 15.6698 17.9624H8.05523C7.63469 17.9624 7.29377 18.3033 7.29377 18.7238C7.29377 19.1444 7.63469 19.4853 8.05523 19.4853H15.6698C18.6136 19.4853 21 17.0989 21 14.1551V9.58636Z" fill="black"/>
</svg>
