<svg width="24" height="24" viewBox="0 0 24 24" fill="none" xmlns="http://www.w3.org/2000/svg">
<path fill-rule="evenodd" clip-rule="evenodd" d="M9.75228 4.37208C10.79 2.71033 13.2099 2.71033 14.2477 4.37208L14.9877 5.55698C15.2255 5.93786 15.6372 6.17553 16.086 6.19109L17.4821 6.23947C19.4401 6.30732 20.65 8.403 19.7298 10.1326L19.0736 11.3659C18.8627 11.7623 18.8627 12.2377 19.0736 12.6341L19.7298 13.8674C20.65 15.597 19.4401 17.6927 17.4821 17.7605L16.086 17.8089C15.6372 17.8245 15.2255 18.0621 14.9877 18.443L14.2477 19.6279C13.2099 21.2897 10.79 21.2897 9.75228 19.6279L9.0123 18.443C8.77445 18.0621 8.36278 17.8245 7.914 17.8089L6.51786 17.7605C4.55986 17.6927 3.34992 15.597 4.27016 13.8674L4.92633 12.6341C5.13725 12.2377 5.13725 11.7623 4.92633 11.3659L4.27016 10.1326C3.34992 8.403 4.55986 6.30732 6.51786 6.23947L7.914 6.19109C8.36278 6.17553 8.77445 5.93786 9.0123 5.55698L9.75228 4.37208ZM11.9995 14.5C13.3802 14.5 14.4995 13.3807 14.4995 12C14.4995 10.6193 13.3802 9.5 11.9995 9.5C10.6188 9.5 9.49951 10.6193 9.49951 12C9.49951 13.3807 10.6188 14.5 11.9995 14.5Z" fill="black"/>
</svg>
