<svg width="24" height="24" viewBox="0 0 24 24" fill="none" xmlns="http://www.w3.org/2000/svg">
<path d="M3 7.78575C3 5.8922 4.53502 4.35718 6.42857 4.35718H16.7143C18.6078 4.35718 20.1429 5.8922 20.1429 7.78575C20.1429 8.25914 19.7591 8.64289 19.2857 8.64289C18.8123 8.64289 18.4286 8.25914 18.4286 7.78575C18.4286 6.83898 17.6611 6.07146 16.7143 6.07146H6.42857C5.4818 6.07146 4.71429 6.83898 4.71429 7.78575V14.6429C4.71429 15.5897 5.4818 16.3572 6.42857 16.3572H7.28571C7.7591 16.3572 8.14286 16.7409 8.14286 17.2143C8.14286 17.6877 7.7591 18.0715 7.28571 18.0715H6.42857C4.53502 18.0715 3 16.5364 3 14.6429V7.78575Z" fill="black"/>
<path d="M5.57143 8.64289C5.57143 8.1695 5.95518 7.78575 6.42857 7.78575H8.14286C8.61624 7.78575 9 8.1695 9 8.64289C9 9.11628 8.61624 9.50003 8.14286 9.50003H6.42857C5.95518 9.50003 5.57143 9.11628 5.57143 8.64289Z" fill="black"/>
<path fill-rule="evenodd" clip-rule="evenodd" d="M9 14.6429C9 11.3292 11.6863 8.64289 15 8.64289C18.3137 8.64289 21 11.3292 21 14.6429C21 17.9566 18.3137 20.6429 15 20.6429C11.6863 20.6429 9 17.9566 9 14.6429ZM15 12.5C15.4734 12.5 15.8571 12.8838 15.8571 13.3571V14.6429L17.2286 15.6714C17.6073 15.9555 17.684 16.4927 17.4 16.8714C17.116 17.2501 16.5787 17.3269 16.2 17.0429L14.8286 16.0143C14.3969 15.6905 14.1429 15.1824 14.1429 14.6429V13.3571C14.1429 12.8838 14.5266 12.5 15 12.5Z" fill="black"/>
<path d="M6.42857 10.3572C5.95518 10.3572 5.57143 10.7409 5.57143 11.2143C5.57143 11.6877 5.95518 12.0715 6.42857 12.0715H8.14286C8.61624 12.0715 9 11.6877 9 11.2143C9 10.7409 8.61624 10.3572 8.14286 10.3572H6.42857Z" fill="black"/>
<path d="M6.42857 12.9286C5.95518 12.9286 5.57143 13.3124 5.57143 13.7857C5.57143 14.2591 5.95518 14.6429 6.42857 14.6429H7.28571C7.7591 14.6429 8.14286 14.2591 8.14286 13.7857C8.14286 13.3124 7.7591 12.9286 7.28571 12.9286H6.42857Z" fill="black"/>
</svg>
