<svg width="24" height="24" viewBox="0 0 24 24" fill="none" xmlns="http://www.w3.org/2000/svg">
<path fill-rule="evenodd" clip-rule="evenodd" d="M8.85 2.05002C8.35294 2.05002 7.95 2.45296 7.95 2.95002C7.95 3.44707 8.35294 3.85002 8.85 3.85002H11.1V4.79945C7.05004 5.24715 3.9 8.68072 3.9 12.85C3.9 17.3235 7.52649 20.95 12 20.95C16.4735 20.95 20.1 17.3235 20.1 12.85C20.1 8.68072 16.95 5.24715 12.9 4.79945V3.85002H15.15C15.6471 3.85002 16.05 3.44707 16.05 2.95002C16.05 2.45296 15.6471 2.05002 15.15 2.05002H8.85ZM12.9 9.69999C12.9 9.20294 12.497 8.79999 12 8.79999C11.5029 8.79999 11.1 9.20294 11.1 9.69999V12.3277C11.1 12.9736 11.4461 13.5701 12.0069 13.8905L14.7035 15.4314C15.135 15.678 15.6848 15.5281 15.9314 15.0965C16.178 14.665 16.0281 14.1152 15.5965 13.8686L12.9 12.3277V9.69999Z" fill="black"/>
<path d="M6.3364 5.83641C6.68787 5.48494 6.68787 4.91509 6.3364 4.56362C5.98492 4.21215 5.41508 4.21215 5.0636 4.56362L3.2636 6.36362C2.91213 6.71509 2.91213 7.28494 3.2636 7.63642C3.61508 7.98789 4.18492 7.98789 4.5364 7.63642L6.3364 5.83641Z" fill="black"/>
<path d="M18.9364 4.56362C18.5849 4.21215 18.0151 4.21215 17.6636 4.56362C17.3121 4.91509 17.3121 5.48494 17.6636 5.83641L19.4636 7.63642C19.8151 7.98789 20.3849 7.98789 20.7364 7.63642C21.0879 7.28494 21.0879 6.71509 20.7364 6.36362L18.9364 4.56362Z" fill="black"/>
</svg>
