<svg xmlns="http://www.w3.org/2000/svg" xmlns:xlink="http://www.w3.org/1999/xlink">
  <symbol id="academic-cap" viewBox="0 0 24 24"><path d="M11.612 4.078a1 1 0 0 1 .776 0l9.5 4a1 1 0 0 1 0 1.844L20 10.717V16a1 1 0 0 1-.606.92l-7 3a1 1 0 0 1-.788 0l-7-3A1 1 0 0 1 4 16v-5.283l-1.888-.795a1 1 0 0 1 0-1.844l9.5-4ZM17 11.98v1.52a1 1 0 1 1-2 0v-.678l-2.612 1.1a1 1 0 0 1-.776 0L6 11.559v3.782l6 2.571 6-2.571v-3.782l-1 .42Zm-.621-1.909L18.923 9 12 6.085 5.077 9 12 11.915l1.951-.821-2.398-1.2a1 1 0 1 1 .894-1.788l3.932 1.965Z"/></symbol>

<symbol id="add" viewBox="0 0 24 24"><path d="M12 4a1 1 0 0 1 1 1v6h6a1 1 0 1 1 0 2h-6v6a1 1 0 1 1-2 0v-6H5a1 1 0 1 1 0-2h6V5a1 1 0 0 1 1-1Z"/></symbol>

<symbol id="ai" viewBox="0 0 24 24"><path d="M10 5a1 1 0 0 1 1 1c0 3.464 2.378 6 5 6a1 1 0 1 1 0 2c-2.622 0-5 2.536-5 6a1 1 0 1 1-2 0c0-3.464-2.378-6-5-6a1 1 0 1 1 0-2c2.622 0 5-2.536 5-6a1 1 0 0 1 1-1Zm0 5.118C9.375 11.31 8.484 12.313 7.405 13c1.079.687 1.97 1.69 2.595 2.882.625-1.192 1.516-2.195 2.595-2.882-1.079-.687-1.97-1.69-2.595-2.882ZM17.5 3a1 1 0 0 1 1 1A1.5 1.5 0 0 0 20 5.5a1 1 0 1 1 0 2A1.5 1.5 0 0 0 18.5 9a1 1 0 1 1-2 0A1.5 1.5 0 0 0 15 7.5a1 1 0 1 1 0-2A1.5 1.5 0 0 0 16.5 4a1 1 0 0 1 1-1Z"/></symbol>

<symbol id="alert-circle-line" viewBox="0 0 24 24"><path d="M11.033 8.06a.97.97 0 1 1 1.934 0l-.302 3.9a.667.667 0 0 1-1.33 0l-.303-3.9ZM13 15a1 1 0 1 1-2 0 1 1 0 0 1 2 0Z"/><path d="M12 18a6 6 0 1 1 0-12 6 6 0 0 1 0 12Zm0 2a8 8 0 1 0 0-16 8 8 0 0 0 0 16Z"/></symbol>

<symbol id="alert-circle" viewBox="0 0 24 24"><path d="M12 20a8 8 0 1 0 0-16 8 8 0 0 0 0 16Zm-.967-11.94a.97.97 0 1 1 1.934 0l-.302 3.9a.667.667 0 0 1-1.33 0l-.303-3.9ZM13 15a1 1 0 1 1-2 0 1 1 0 0 1 2 0Z"/></symbol>

<symbol id="alert-sign" viewBox="0 0 24 24"><path d="M11 16a1 1 0 1 1 2 0 1 1 0 0 1-2 0ZM12 9a1 1 0 0 0-1 1v3a1 1 0 1 0 2 0v-3a1 1 0 0 0-1-1Z"/><path fill-rule="evenodd" d="M9.385 5.609c1.147-2.04 4.083-2.04 5.23 0l5.58 9.92c1.125 2-.32 4.471-2.615 4.471H6.42c-2.295 0-3.74-2.471-2.615-4.47l5.58-9.921Zm3.486.98a1 1 0 0 0-1.743 0l-5.58 9.92A1 1 0 0 0 6.42 18h11.16a1 1 0 0 0 .872-1.49l-5.58-9.92Z" clip-rule="evenodd"/></symbol>

<symbol id="alert" viewBox="0 0 24 24"><path d="M12 5c.848 0 1.52.715 1.467 1.561l-.469 7.501a1 1 0 0 1-1.996 0l-.469-7.5A1.47 1.47 0 0 1 12 5ZM13.5 17.5a1.5 1.5 0 1 1-3 0 1.5 1.5 0 0 1 3 0Z"/></symbol>

<symbol id="align-text-center" viewBox="0 0 24 24"><path d="M4 8a1 1 0 0 1 1-1h14a1 1 0 1 1 0 2H5a1 1 0 0 1-1-1ZM4 12a1 1 0 0 1 1-1h14a1 1 0 1 1 0 2H5a1 1 0 0 1-1-1ZM8 16a1 1 0 0 1 1-1h6a1 1 0 1 1 0 2H9a1 1 0 0 1-1-1Z"/></symbol>

<symbol id="align-text-justify" viewBox="0 0 24 24"><path d="M4 8a1 1 0 0 1 1-1h14a1 1 0 1 1 0 2H5a1 1 0 0 1-1-1ZM4 12a1 1 0 0 1 1-1h14a1 1 0 1 1 0 2H5a1 1 0 0 1-1-1ZM4 16a1 1 0 0 1 1-1h14a1 1 0 1 1 0 2H5a1 1 0 0 1-1-1Z"/></symbol>

<symbol id="align-text-left" viewBox="0 0 24 24"><path d="M4 8a1 1 0 0 1 1-1h14a1 1 0 1 1 0 2H5a1 1 0 0 1-1-1ZM4 12a1 1 0 0 1 1-1h14a1 1 0 1 1 0 2H5a1 1 0 0 1-1-1ZM4 16a1 1 0 0 1 1-1h6a1 1 0 1 1 0 2H5a1 1 0 0 1-1-1Z"/></symbol>

<symbol id="align-text-right" viewBox="0 0 24 24"><path d="M4 8a1 1 0 0 1 1-1h14a1 1 0 1 1 0 2H5a1 1 0 0 1-1-1ZM4 12a1 1 0 0 1 1-1h14a1 1 0 1 1 0 2H5a1 1 0 0 1-1-1ZM12 16a1 1 0 0 1 1-1h6a1 1 0 1 1 0 2h-6a1 1 0 0 1-1-1Z"/></symbol>

<symbol id="appearance" viewBox="0 0 24 24"><path d="M20 12a8 8 0 1 1-16 0 8 8 0 0 1 16 0Zm-8-6a6 6 0 1 0 0 12V6Z"/></symbol>

<symbol id="archive-open" viewBox="0 0 24 24"><path d="M20.616 5.868a2 2 0 0 0-2.232-1.736L4.368 5.884a2 2 0 0 0-1.736 2.232l.252 2.016c.09.716.547 1.296 1.16 1.574A1 1 0 0 0 4 12v3a4 4 0 0 0 4 4h8a4 4 0 0 0 4-4v-3a1 1 0 1 0-2 0v3a2 2 0 0 1-2 2H8a2 2 0 0 1-2-2v-3c0-.082-.01-.162-.029-.239l13.16-1.645a2 2 0 0 0 1.737-2.232l-.252-2.016Zm-16 2 14.016-1.752.252 2.016L4.868 9.884l-.252-2.016Z"/><path d="M9 14a1 1 0 0 1 1-1h4a1 1 0 1 1 0 2h-4a1 1 0 0 1-1-1Z"/></symbol>

<symbol id="archive" viewBox="0 0 24 24"><path d="M5 5a2 2 0 0 0-2 2v2a2 2 0 0 0 1 1.732V15a4 4 0 0 0 4 4h8a4 4 0 0 0 4-4v-4.268A2 2 0 0 0 21 9V7a2 2 0 0 0-2-2H5Zm13 6v4a2 2 0 0 1-2 2H8a2 2 0 0 1-2-2v-4h12ZM5 9V7h14v2H5Z"/><path d="M9 14a1 1 0 0 1 1-1h4a1 1 0 1 1 0 2h-4a1 1 0 0 1-1-1Z"/></symbol>

<symbol id="arrow-left" viewBox="0 0 24 24"><path d="M11.707 5.293a1 1 0 0 0-1.414 0l-6 6a1 1 0 0 0 0 1.414l6 6a1 1 0 0 0 1.414-1.414L7.414 13H19a1 1 0 1 0 0-2H7.414l4.293-4.293a1 1 0 0 0 0-1.414Z"/></symbol>

<symbol id="arrow-right" viewBox="0 0 24 24"><path d="M12.293 5.293a1 1 0 0 1 1.414 0l6 6a1 1 0 0 1 0 1.414l-6 6a1 1 0 0 1-1.414-1.414L16.586 13H5a1 1 0 1 1 0-2h11.586l-4.293-4.293a1 1 0 0 1 0-1.414Z"/></symbol>

<symbol id="balance" viewBox="0 0 24 24"><path d="M17 11a3.5 3.5 0 1 0 0-7 3.5 3.5 0 0 0 0 7ZM7.5 8.5a1.5 1.5 0 1 0 0-3 1.5 1.5 0 0 0 0 3ZM11 7a3.5 3.5 0 1 1-7 0 3.5 3.5 0 0 1 7 0ZM4.02 12.443a1 1 0 0 1 1.067-.927l13.966.976a1 1 0 1 1-.14 1.995L13 14.074V18h1a1 1 0 1 1 0 2h-4a1 1 0 1 1 0-2h1v-4c0-.022 0-.044.002-.066l-6.055-.423a1 1 0 0 1-.928-1.068Z"/></symbol>

<symbol id="bell" viewBox="0 0 24 24"><path d="M9.097 17.255a1 1 0 0 1 1.412.078c.367.41.899.667 1.49.667.593 0 1.124-.256 1.492-.667a1 1 0 1 1 1.49 1.334A3.993 3.993 0 0 1 12 20a3.993 3.993 0 0 1-2.981-1.333 1 1 0 0 1 .078-1.412ZM12 5a4 4 0 0 0-4 4v.726c0 .44-.175.863-.487 1.175l-.774.774A1.362 1.362 0 0 0 7.702 14h8.595a1.362 1.362 0 0 0 .964-2.325l-.774-.774A1.661 1.661 0 0 1 16 9.726V9a4 4 0 0 0-4-4ZM6 9a6 6 0 1 1 12 0v.586l.675.675A3.362 3.362 0 0 1 16.297 16H7.702a3.362 3.362 0 0 1-2.377-5.74L6 9.587V9Z"/></symbol>

<symbol id="bold" viewBox="0 0 24 24"><path fill-rule="evenodd" d="M9 4a3.5 3.5 0 0 0-3.5 3.5v9A3.5 3.5 0 0 0 9 20h6v-.003c2.715-.084 5-2.227 5-4.997 0-2.194-1.434-3.994-3.379-4.69A4.5 4.5 0 0 0 12.5 4H9Zm3.5 6a1.5 1.5 0 0 0 0-3H9a.5.5 0 0 0-.5.5V10h4Zm-4 3h6.333c1.263 0 2.167.96 2.167 2s-.904 2-2.167 2H9a.5.5 0 0 1-.5-.5V13Z" clip-rule="evenodd"/></symbol>

<symbol id="briefcase" viewBox="0 0 24 24"><path d="M11 2a3 3 0 0 0-3 3H7a4 4 0 0 0-4 4v6a4 4 0 0 0 4 4h10a4 4 0 0 0 4-4V9a4 4 0 0 0-4-4h-1a3 3 0 0 0-3-3h-2Zm3 3h-4a1 1 0 0 1 1-1h2a1 1 0 0 1 1 1ZM5 9a2 2 0 0 1 2-2v10a2 2 0 0 1-2-2V9Zm4 8V7h6v10H9Zm8 0V7a2 2 0 0 1 2 2v6a2 2 0 0 1-2 2Z"/></symbol>

<symbol id="bucket" viewBox="0 0 24 24"><path d="M7.954 4.276c.09-.157.202-.307.34-.445.858-.857 2.128-.712 3.082-.372 1.034.37 2.14 1.103 3.117 2.08.977.977 1.712 2.084 2.083 3.12.342.953.492 2.227-.367 3.086a2.094 2.094 0 0 1-.409.32l-5.272 3.954a4.5 4.5 0 0 1-5.882-.418l-.152-.153a4.5 4.5 0 0 1-.447-5.843l3.907-5.33Zm1.782.952-.057.077a.61.61 0 0 0-.022.144c-.01.176.025.442.15.791.249.698.794 1.56 1.61 2.375.815.816 1.68 1.364 2.38 1.615.35.125.618.162.795.152a.586.586 0 0 0 .151-.025l.067-.05a.54.54 0 0 0 .036-.178c.01-.178-.027-.445-.152-.796-.252-.7-.8-1.564-1.615-2.38-.816-.815-1.677-1.361-2.375-1.61-.35-.125-.615-.16-.792-.15a.54.54 0 0 0-.176.035Zm2.92 6.695c-.896-.406-1.822-1.062-2.654-1.893-.819-.82-1.467-1.73-1.872-2.611l-2.47 3.369a2.5 2.5 0 0 0 .248 3.246l.153.153a2.5 2.5 0 0 0 3.267.232l3.328-2.496Z"/><path fill-rule="evenodd" d="M17.5 15.063a7.601 7.601 0 0 0-.402.616c-.358.616-.598 1.256-.598 1.821a1 1 0 1 0 2 0c0-.565-.24-1.205-.598-1.82a7.601 7.601 0 0 0-.402-.617Zm-.913-2.051a1.226 1.226 0 0 1 1.826 0c.267.296.773.898 1.218 1.662.435.748.869 1.75.869 2.826a3 3 0 0 1-6 0c0-1.076.434-2.078.87-2.826.444-.764.95-1.365 1.217-1.662Z" clip-rule="evenodd"/></symbol>

<symbol id="business-trip" viewBox="0 0 24 24"><path d="M4.77 8.452a1 1 0 0 1 .273-.908l2-2a1 1 0 0 1 .871-.28l5.493.916 2.136-2.136a3.121 3.121 0 1 1 4.414 4.414l-2.136 2.136.915 5.493a1 1 0 0 1-.279.871l-2 2a1 1 0 0 1-1.636-.335l-1.436-3.592-1.635 1.635v1.585a1 1 0 0 1-.293.707l-2 2a1 1 0 0 1-1.677-.464l-.855-3.418-3.418-.855a1 1 0 0 1-.464-1.677l2-2a1 1 0 0 1 .707-.293h1.586l1.635-1.634L5.379 9.18a1 1 0 0 1-.609-.728Zm2.76-.566 3.591 1.437a1 1 0 0 1 .336 1.635l-3 3a1 1 0 0 1-.707.293H6.164l-.458.459 2.287.571a1 1 0 0 1 .727.728l.572 2.286.458-.458v-1.586a1 1 0 0 1 .293-.707l3-3a1 1 0 0 1 1.636.336l1.436 3.592.564-.564-.915-5.492a1 1 0 0 1 .279-.872l2.5-2.5a1.121 1.121 0 0 0-1.586-1.586l-2.5 2.5a1 1 0 0 1-.871.28l-5.493-.916-.564.564Z"/></symbol>

<symbol id="calculator" viewBox="0 0 24 24"><path d="M9 3a4 4 0 0 0-4 4v10a4 4 0 0 0 4 4h6a4 4 0 0 0 4-4V7a4 4 0 0 0-4-4H9ZM7 7a2 2 0 0 1 2-2h6a2 2 0 0 1 2 2H7Zm0 2h2v2H7V9Zm0 6v-2h2v2H7Zm0 2h2v2a2 2 0 0 1-2-2Zm4 0h2v2h-2v-2Zm2-2h-2v-2h2v2Zm2 4v-6h2v4a2 2 0 0 1-2 2Zm0-8V9h2v2h-2Zm-4 0V9h2v2h-2Z"/></symbol>

<symbol id="calendar" viewBox="0 0 24 24"><path d="M9 2a1 1 0 0 1 1 1v1h4V3a1 1 0 1 1 2 0v1a4 4 0 0 1 4 4v8a4 4 0 0 1-4 4H8a4 4 0 0 1-4-4V8a4 4 0 0 1 4-4V3a1 1 0 0 1 1-1ZM8 6a2 2 0 0 0-2 2v1h12V8a2 2 0 0 0-2-2v1a1 1 0 1 1-2 0V6h-4v1a1 1 0 0 1-2 0V6Zm10 5H6v5a2 2 0 0 0 2 2h8a2 2 0 0 0 2-2v-5Z"/></symbol>

<symbol id="camera-plus" viewBox="0 0 24 24"><path d="M7.368 5.735A4 4 0 0 1 11.162 3H14a1 1 0 1 1 0 2h-2.838a2 2 0 0 0-1.897 1.368l-.088.264A2 2 0 0 1 7.279 8H7a2 2 0 0 0-2 2v5a2 2 0 0 0 2 2h10a2 2 0 0 0 2-2v-5a1 1 0 1 1 2 0v5a4 4 0 0 1-4 4H7a4 4 0 0 1-4-4v-5a4 4 0 0 1 4-4h.28l.088-.265Z"/><path d="M12 10a2 2 0 1 0 0 4 2 2 0 0 0 0-4Zm-4 2a4 4 0 1 1 8 0 4 4 0 0 1-8 0ZM17.5 4a1 1 0 0 1 1 1v.5h.5a1 1 0 1 1 0 2h-.5V8a1 1 0 1 1-2 0v-.5H16a1 1 0 1 1 0-2h.5V5a1 1 0 0 1 1-1Z"/></symbol>

<symbol id="card-pin" viewBox="0 0 24 24"><path d="M3 9a4 4 0 0 1 4-4h10a4 4 0 0 1 4 4v6a4 4 0 0 1-4 4H7a4 4 0 0 1-4-4V9Zm4-2a2 2 0 0 0-2 2v6a2 2 0 0 0 2 2h10a2 2 0 0 0 2-2V9a2 2 0 0 0-2-2H7Z"/><path d="M9 12a1 1 0 1 1-2 0 1 1 0 0 1 2 0ZM13 12a1 1 0 1 1-2 0 1 1 0 0 1 2 0ZM17 12a1 1 0 1 1-2 0 1 1 0 0 1 2 0Z"/></symbol>

<symbol id="chart-line" viewBox="0 0 24 24"><path d="M4 5a1 1 0 0 1 1 1v4.773l2.836-2.52a1 1 0 0 1 .939-.215l2.971.85 4.09-3.635a1 1 0 0 1 1.315-.012l3.5 3a1 1 0 0 1-1.302 1.518l-2.837-2.432-3.848 3.42a1 1 0 0 1-.939.214l-2.971-.848L5 13.449V15c0 .316.073.616.204.882l3.089-3.09a1 1 0 0 1 1.203-.16l2.882 1.646 3.463-3.03a1 1 0 0 1 1.24-.062l3.5 2.5a1 1 0 1 1-1.162 1.628l-2.856-2.04-3.404 2.979a1 1 0 0 1-1.155.115l-2.837-1.62-2.251 2.25L7 17h13a1 1 0 1 1 0 2H7a4 4 0 0 1-4-4V6a1 1 0 0 1 1-1Z"/></symbol>

<symbol id="check-circle-line" viewBox="0 0 24 24"><path d="M12 18a6 6 0 1 1 0-12 6 6 0 0 1 0 12Zm0 2a8 8 0 1 0 0-16 8 8 0 0 0 0 16Z"/><path d="M15.1 9.2a1 1 0 0 1 .2 1.4l-3 4a1 1 0 0 1-1.507.107l-2-2a1 1 0 1 1 1.414-1.414l1.185 1.185L13.7 9.4a1 1 0 0 1 1.4-.2Z"/></symbol>

<symbol id="check-circle" viewBox="0 0 24 24"><path d="M20 12a8 8 0 1 1-16 0 8 8 0 0 1 16 0Zm-3.2-2.4a1 1 0 1 0-1.6-1.2l-3.808 5.078-2.185-2.185a1 1 0 1 0-1.414 1.414l3 3A1 1 0 0 0 12.3 15.6l4.5-6Z"/></symbol>

<symbol id="check-multi" viewBox="0 0 24 24"><path d="M20.1 7.2a1 1 0 0 1 .2 1.4l-7.5 10a1 1 0 0 1-1.6-1.2l7.5-10a1 1 0 0 1 1.4-.2ZM16.093 6.695a1 1 0 0 1 .212 1.398l-6.31 8.564a2 2 0 0 1-3.024.228l-3.178-3.178a1 1 0 1 1 1.414-1.414l3.178 3.178 6.31-8.564a1 1 0 0 1 1.398-.212Z"/></symbol>

<symbol id="check" viewBox="0 0 24 24"><path d="M18.093 7.695a1 1 0 0 1 .212 1.398l-6.31 8.564a2 2 0 0 1-3.024.228l-3.678-3.678a1 1 0 1 1 1.414-1.414l3.678 3.678 6.31-8.564a1 1 0 0 1 1.398-.212Z"/></symbol>

<symbol id="chevron-down" viewBox="0 0 24 24"><path d="M18.707 9.293a1 1 0 0 1 0 1.414L13.414 16a2 2 0 0 1-2.828 0l-5.293-5.293a1 1 0 0 1 1.414-1.414L12 14.586l5.293-5.293a1 1 0 0 1 1.414 0Z"/></symbol>

<symbol id="chevron-left" viewBox="0 0 24 24"><path d="M14.707 5.293a1 1 0 0 0-1.414 0L8 10.586a2 2 0 0 0 0 2.828l5.293 5.293a1 1 0 0 0 1.414-1.414L9.414 12l5.293-5.293a1 1 0 0 0 0-1.414Z"/></symbol>

<symbol id="chevron-right" viewBox="0 0 24 24"><path d="M9.293 5.293a1 1 0 0 1 1.414 0L16 10.586a2 2 0 0 1 0 2.828l-5.293 5.293a1 1 0 0 1-1.414-1.414L14.586 12 9.293 6.707a1 1 0 0 1 0-1.414Z"/></symbol>

<symbol id="chevron-up" viewBox="0 0 24 24"><path d="M18.707 14.707a1 1 0 0 0 0-1.414L13.414 8a2 2 0 0 0-2.828 0l-5.293 5.293a1 1 0 1 0 1.414 1.414L12 9.414l5.293 5.293a1 1 0 0 0 1.414 0Z"/></symbol>

<symbol id="circle-line" viewBox="0 0 24 24"><path d="M12 6a6 6 0 1 0 0 12 6 6 0 0 0 0-12Zm-8 6a8 8 0 1 1 16 0 8 8 0 0 1-16 0Z"/></symbol>

<symbol id="circle" viewBox="0 0 24 24"><path fill-rule="evenodd" d="M12 6a6 6 0 1 0 0 12 6 6 0 0 0 0-12Zm-8 6a8 8 0 1 1 16 0 8 8 0 0 1-16 0Z" clip-rule="evenodd"/></symbol>

<symbol id="clock" viewBox="0 0 24 24"><path d="M12 18a6 6 0 1 1 0-12 6 6 0 0 1 0 12Zm0 2a8 8 0 1 0 0-16 8 8 0 0 0 0 16Z"/><path d="M12 8a1 1 0 0 1 1 1v2.42l2.996 1.712a1 1 0 1 1-.992 1.736l-3.5-2A1 1 0 0 1 11 12V9a1 1 0 0 1 1-1Z"/></symbol>

<symbol id="cloud" viewBox="0 0 24 24"><path d="M7.084 9.084a5.002 5.002 0 0 1 9.832 0A5.002 5.002 0 0 1 16 19H8a5 5 0 0 1-.916-9.916ZM12 7a3 3 0 0 0-3 3 1 1 0 0 1-1 1 3 3 0 1 0 0 6h8a3 3 0 1 0 0-6 1 1 0 0 1-1-1 3 3 0 0 0-3-3Z"/></symbol>

<symbol id="code" viewBox="0 0 24 24"><path d="M9.707 6.293a1 1 0 0 0-1.414 0L4 10.586a2 2 0 0 0 0 2.828l4.293 4.293a1 1 0 0 0 1.414-1.414L5.414 12l4.293-4.293a1 1 0 0 0 0-1.414ZM14.293 6.293a1 1 0 0 1 1.414 0L20 10.586a2 2 0 0 1 0 2.828l-4.293 4.293a1 1 0 0 1-1.414-1.414L18.586 12l-4.293-4.293a1 1 0 0 1 0-1.414Z"/></symbol>

<symbol id="coffee" viewBox="0 0 24 24"><path d="M8.707 1.293a1 1 0 0 1 0 1.414.414.414 0 0 0 0 .586 1 1 0 0 1-1.414 1.414 2.414 2.414 0 0 1 0-3.414 1 1 0 0 1 1.414 0ZM12.707 1.293a1 1 0 0 1 0 1.414.414.414 0 0 0 0 .586 1 1 0 0 1-1.414 1.414 2.414 2.414 0 0 1 0-3.414 1 1 0 0 1 1.414 0ZM7 6.5a2 2 0 0 0-2 2V17a4 4 0 0 0 4 4h4a4.002 4.002 0 0 0 3.876-3.008c.04.005.082.008.124.008h.5a3 3 0 0 0 3-3v-2a3 3 0 0 0-3-3H17V8.5a2 2 0 0 0-2-2H7ZM17 12h.5a1 1 0 0 1 1 1v2a1 1 0 0 1-1 1H17v-4ZM7 8.5h8V17a2 2 0 0 1-2 2H9a2 2 0 0 1-2-2V8.5Z"/></symbol>

<symbol id="collapse" viewBox="0 0 24 24"><path d="M18.5 10.5a1 1 0 0 1-1 1h-4a1 1 0 0 1-1-1v-4a1 1 0 1 1 2 0v1.586l3.793-3.793a1 1 0 1 1 1.414 1.414L15.914 9.5H17.5a1 1 0 0 1 1 1ZM5.5 13.5a1 1 0 0 1 1-1h4a1 1 0 0 1 1 1v4a1 1 0 1 1-2 0v-1.586l-3.793 3.793a1 1 0 0 1-1.414-1.414L8.086 14.5H6.5a1 1 0 0 1-1-1Z"/></symbol>

<symbol id="command" viewBox="0 0 24 24"><path d="M7.293 8.293a1 1 0 0 1 1.414 0l3 3a1 1 0 0 1 0 1.414l-3 3a1 1 0 0 1-1.414-1.414L9.586 12 7.293 9.707a1 1 0 0 1 0-1.414Z"/><path d="M3 9v6a4 4 0 0 0 4 4h10a4 4 0 0 0 4-4V9a4 4 0 0 0-4-4H7a4 4 0 0 0-4 4Zm4-2h10a2 2 0 0 1 2 2v6a2 2 0 0 1-2 2H7a2 2 0 0 1-2-2V9a2 2 0 0 1 2-2Z"/><path d="M12 15a1 1 0 0 1 1-1h3a1 1 0 1 1 0 2h-3a1 1 0 0 1-1-1Z"/></symbol>

<symbol id="comment" viewBox="0 0 24 24"><path d="M3 8.857A3.857 3.857 0 0 1 6.857 5H17a4 4 0 0 1 4 4v6a4 4 0 0 1-4 4h-4.667L9.71 20.968A2 2 0 0 1 6.613 20l-.35-1.047A3.872 3.872 0 0 1 3 15.129V8.857ZM6.857 7A1.857 1.857 0 0 0 5 8.857v6.272A1.87 1.87 0 0 0 6.87 17c.508 0 .959.325 1.12.806l.52 1.561 2.623-1.967a2 2 0 0 1 1.2-.4H17a2 2 0 0 0 2-2V9a2 2 0 0 0-2-2H6.857Z"/></symbol>

<symbol id="complaint" viewBox="0 0 24 24"><path d="M3 8.857A3.857 3.857 0 0 1 6.857 5H17a4 4 0 0 1 4 4v6a4 4 0 0 1-4 4h-4.667L9.71 20.968A2 2 0 0 1 6.613 20l-.35-1.047A3.872 3.872 0 0 1 3 15.129V8.857ZM6.857 7A1.857 1.857 0 0 0 5 8.857v6.272A1.87 1.87 0 0 0 6.87 17c.508 0 .959.325 1.12.806l.52 1.561 2.623-1.967a2 2 0 0 1 1.2-.4H17a2 2 0 0 0 2-2V9a2 2 0 0 0-2-2H6.857Z"/><path d="M15 10a1 1 0 1 1-2 0 1 1 0 0 1 2 0ZM11 10a1 1 0 1 1-2 0 1 1 0 0 1 2 0ZM9.317 12.724a6 6 0 0 1 5.366 0l.764.382a1 1 0 1 1-.894 1.788l-.764-.382a4 4 0 0 0-3.578 0l-.764.382a1 1 0 1 1-.894-1.788l.764-.382Z"/></symbol>

<symbol id="contactless" viewBox="0 0 24 24"><path d="M9 12a2 2 0 1 1-4 0 2 2 0 0 1 4 0ZM14.22 4.375a1 1 0 0 1 1.405-.155A9.95 9.95 0 0 1 19.364 12a9.95 9.95 0 0 1-3.737 7.78 1 1 0 1 1-1.252-1.56A7.95 7.95 0 0 0 17.363 12a7.95 7.95 0 0 0-2.989-6.22 1 1 0 0 1-.154-1.405Z"/><path d="M10.22 6.891a1 1 0 0 1 1.405-.155A6.732 6.732 0 0 1 14.155 12c0 2.13-.989 4.03-2.528 5.264a1 1 0 0 1-1.252-1.56A4.732 4.732 0 0 0 12.154 12a4.732 4.732 0 0 0-1.78-3.703 1 1 0 0 1-.154-1.406Z"/></symbol>

<symbol id="contract" viewBox="0 0 24 24"><path d="M5 7a4 4 0 0 1 4-4h3.757a4 4 0 0 1 2.829 1.172l2.242 2.242A4 4 0 0 1 19 9.243V17a4 4 0 0 1-4 4H9a4 4 0 0 1-4-4V7Zm4-2a2 2 0 0 0-2 2v10a2 2 0 0 0 2 2h6a2 2 0 0 0 2-2V9.243a2 2 0 0 0-.586-1.415l-2.242-2.242A2 2 0 0 0 12.757 5H9Z"/><path d="M9 16a1 1 0 0 1 1-1h4a1 1 0 1 1 0 2h-4a1 1 0 0 1-1-1Z"/></symbol>

<symbol id="corner-resize" viewBox="0 0 24 24"><path d="M16.707 5.293a1 1 0 0 1 0 1.414l-10 10a1 1 0 0 1-1.414-1.414l10-10a1 1 0 0 1 1.414 0Zm1 5.5a1 1 0 0 1 0 1.414l-5.5 5.5a1 1 0 0 1-1.414-1.414l5.5-5.5a1 1 0 0 1 1.414 0Z"/></symbol>

<symbol id="credit-card" viewBox="0 0 24 24"><path d="M3 9a4 4 0 0 1 4-4h10a4 4 0 0 1 4 4v6a4 4 0 0 1-4 4H7a4 4 0 0 1-4-4V9Zm4-2a2 2 0 0 0-2 2h14a2 2 0 0 0-2-2H7Zm12 4H5v4a2 2 0 0 0 2 2h10a2 2 0 0 0 2-2v-4Z"/><path d="M6 14a1 1 0 0 1 1-1h3a1 1 0 1 1 0 2H7a1 1 0 0 1-1-1Z"/></symbol>

<symbol id="cross-circle" viewBox="0 0 24 24"><path d="M20 12a8 8 0 1 1-16 0 8 8 0 0 1 16 0ZM9.707 8.293a1 1 0 0 0-1.414 1.414L10.586 12l-2.293 2.293a1 1 0 1 0 1.414 1.414L12 13.414l2.293 2.293a1 1 0 0 0 1.414-1.414L13.414 12l2.293-2.293a1 1 0 0 0-1.414-1.414L12 10.586 9.707 8.293Z"/></symbol>

<symbol id="cross" viewBox="0 0 24 24"><path d="M6.293 6.293a1 1 0 0 1 1.414 0L12 10.586l4.293-4.293a1 1 0 1 1 1.414 1.414L13.414 12l4.293 4.293a1 1 0 0 1-1.414 1.414L12 13.414l-4.293 4.293a1 1 0 0 1-1.414-1.414L10.586 12 6.293 7.707a1 1 0 0 1 0-1.414Z"/></symbol>

<symbol id="crown" viewBox="0 0 24 24"><path d="M10.154 5.83c.684-1.64 3.008-1.64 3.692 0l1.21 2.904 2.73-.993c1.546-.562 3.072.878 2.6 2.454l-2 6.667A3 3 0 0 1 15.511 19H8.488a3 3 0 0 1-2.873-2.138l-2-6.667C3.142 8.62 4.668 7.18 6.214 7.741l2.73.993 1.21-2.903Zm3.056 3.673L12 6.6l-1.21 2.903a2 2 0 0 1-2.53 1.11L5.53 9.62l2 6.667a1 1 0 0 0 .958.713h7.024a1 1 0 0 0 .958-.713l2-6.667-2.73.993a2 2 0 0 1-2.53-1.11Z"/></symbol>

<symbol id="dashboard" viewBox="0 0 24 24"><path d="M4 6v2a2 2 0 0 0 2 2h3a2 2 0 0 0 2-2V6a2 2 0 0 0-2-2H6a2 2 0 0 0-2 2Zm5 0v2H6V6h3Zm4 0a2 2 0 0 1 2-2h3a2 2 0 0 1 2 2v4a2 2 0 0 1-2 2h-3a2 2 0 0 1-2-2V6Zm5 0h-3v4h3V6ZM4 14a2 2 0 0 1 2-2h3a2 2 0 0 1 2 2v4a2 2 0 0 1-2 2H6a2 2 0 0 1-2-2v-4Zm5 0H6v4h3v-4Zm4 2a2 2 0 0 1 2-2h3a2 2 0 0 1 2 2v2a2 2 0 0 1-2 2h-3a2 2 0 0 1-2-2v-2Zm5 0h-3v2h3v-2Z"/></symbol>

<symbol id="delete" viewBox="0 0 24 24"><path d="M7.5 5a2 2 0 0 1 2-2h5a2 2 0 0 1 2 2v2h2a1 1 0 1 1 0 2H18v8a4 4 0 0 1-4 4h-4a4 4 0 0 1-4-4V9h-.5a1 1 0 0 1 0-2h2V5ZM8 9v8a2 2 0 0 0 2 2h4a2 2 0 0 0 2-2V9H8Zm6.5-2V5h-5v2h5Z"/></symbol>

<symbol id="deny" viewBox="0 0 24 24"><path d="M20 12a8 8 0 1 1-16 0 8 8 0 0 1 16 0Zm-2 0c0-1.296-.41-2.496-1.11-3.476L8.525 16.89A6 6 0 0 0 18 12ZM7.11 15.477l8.367-8.368a6 6 0 0 0-8.367 8.367Z"/></symbol>

<symbol id="desktop" viewBox="0 0 24 24"><path d="M2 7a4 4 0 0 1 4-4h12a4 4 0 0 1 4 4v6a4 4 0 0 1-4 4h-2v2h1a1 1 0 1 1 0 2H7a1 1 0 1 1 0-2h1v-2H6a4 4 0 0 1-4-4V7Zm8 10v2h4v-2h-4Zm-4-2h12a2 2 0 0 0 2-2V7a2 2 0 0 0-2-2H6a2 2 0 0 0-2 2v6a2 2 0 0 0 2 2Z"/></symbol>

<symbol id="dollar-bill" viewBox="0 0 24 24"><path fill-rule="evenodd" d="M3 9a4 4 0 0 1 4-4h10a4 4 0 0 1 4 4v6a4 4 0 0 1-4 4H7a4 4 0 0 1-4-4V9Zm4-2a2 2 0 0 0-2 2v6a2 2 0 0 0 2 2h10a2 2 0 0 0 2-2V9a2 2 0 0 0-2-2H7Z" clip-rule="evenodd"/><path fill-rule="evenodd" d="M9 10.5A2.5 2.5 0 0 1 11.5 8H14a1 1 0 1 1 0 2h-2.5a.5.5 0 0 0 0 1h1a2.5 2.5 0 0 1 0 5H10a1 1 0 1 1 0-2h2.5a.5.5 0 0 0 0-1h-1A2.5 2.5 0 0 1 9 10.5Z" clip-rule="evenodd"/><path d="M16 12a1 1 0 1 1 2 0 1 1 0 0 1-2 0ZM6 12a1 1 0 1 1 2 0 1 1 0 0 1-2 0Z"/></symbol>

<symbol id="download" viewBox="0 0 24 24"><path d="M5 14a1 1 0 0 1 1 1v1a2 2 0 0 0 2 2h8a2 2 0 0 0 2-2v-1a1 1 0 1 1 2 0v1a4 4 0 0 1-4 4H8a4 4 0 0 1-4-4v-1a1 1 0 0 1 1-1Z"/><path d="M11.293 14.707a1 1 0 0 0 1.414 0l3-3a1 1 0 0 0-1.414-1.414L13 11.586V5a1 1 0 1 0-2 0v6.586l-1.293-1.293a1 1 0 1 0-1.414 1.414l3 3Z"/></symbol>

<symbol id="drag-and-drop" viewBox="0 0 24 24"><path d="M9 8a2 2 0 1 1 0-4 2 2 0 0 1 0 4ZM15 8a2 2 0 1 1 0-4 2 2 0 0 1 0 4ZM9 14a2 2 0 1 1 0-4 2 2 0 0 1 0 4ZM15 14a2 2 0 1 1 0-4 2 2 0 0 1 0 4ZM9 20a2 2 0 1 1 0-4 2 2 0 0 1 0 4ZM15 20a2 2 0 1 1 0-4 2 2 0 0 1 0 4Z"/></symbol>

<symbol id="duplicate" viewBox="0 0 24 24"><path d="M5 6a4 4 0 0 1 4-4h2.757a4 4 0 0 1 2.829 1.172l2.242 2.242A4 4 0 0 1 18 8.243V14a4 4 0 0 1-4 4H9a4 4 0 0 1-4-4V6Zm4-2a2 2 0 0 0-2 2v8a2 2 0 0 0 2 2h5a2 2 0 0 0 2-2V8.243a2 2 0 0 0-.586-1.415l-2.242-2.242A2 2 0 0 0 11.757 4H9Z"/><path d="M20 8a1 1 0 0 1 1 1v1.444c0 1.643 0 2.937-.085 3.978-.087 1.063-.267 1.95-.678 2.756a7 7 0 0 1-3.06 3.059c-.805.41-1.692.591-2.755.678-1.041.085-2.335.085-3.978.085H9a1 1 0 1 1 0-2h1.4c1.697 0 2.909 0 3.86-.078.938-.077 1.533-.224 2.01-.467a5 5 0 0 0 2.185-2.185c.243-.477.39-1.072.467-2.01.077-.951.078-2.163.078-3.86V9a1 1 0 0 1 1-1Z"/></symbol>

<symbol id="edit-file-filled" viewBox="0 0 24 24"><path fill-rule="evenodd" d="M9 3a4 4 0 0 0-4 4v10a4 4 0 0 0 4 4 1 1 0 1 0 0-2 2 2 0 0 1-2-2V7a2 2 0 0 1 2-2h3.757a2 2 0 0 1 1.415.586l2.242 2.242A2 2 0 0 1 17 9.243V10a1 1 0 1 0 2 0v-.757a4 4 0 0 0-1.172-2.829l-2.242-2.242A4 4 0 0 0 12.757 3H9Zm1 8a1 1 0 1 0 0 2h4a1 1 0 1 0 0-2h-4Zm-1 5a1 1 0 0 1 1-1h2a1 1 0 1 1 0 2h-2a1 1 0 0 1-1-1Zm13.957-3.457a2.768 2.768 0 0 0-3.914 0l-6.25 6.25a1 1 0 0 0-.28.543l-.5 3a1 1 0 0 0 1.151 1.15l3-.5a1 1 0 0 0 .543-.279l6.25-6.25a2.768 2.768 0 0 0 0-3.914Zm-2.5 1.414a.768.768 0 0 1 1.086 1.086l-6.023 6.023-1.303.218.217-1.303 6.023-6.024Z" clip-rule="evenodd"/></symbol>

<symbol id="ellipsis-horizontal" viewBox="0 0 24 24"><path d="M8 12a2 2 0 1 1-4 0 2 2 0 0 1 4 0ZM14 12a2 2 0 1 1-4 0 2 2 0 0 1 4 0ZM20 12a2 2 0 1 1-4 0 2 2 0 0 1 4 0Z"/></symbol>

<symbol id="ellipsis" viewBox="0 0 24 24"><path d="M12 8a2 2 0 1 1 0-4 2 2 0 0 1 0 4ZM12 14a2 2 0 1 1 0-4 2 2 0 0 1 0 4ZM12 20a2 2 0 1 1 0-4 2 2 0 0 1 0 4Z"/></symbol>

<symbol id="engagement" viewBox="0 0 24 24"><path d="M3 8.857A3.857 3.857 0 0 1 6.857 5H17a4 4 0 0 1 4 4v6a4 4 0 0 1-4 4h-4.667L9.71 20.968A2 2 0 0 1 6.613 20l-.35-1.047A3.872 3.872 0 0 1 3 15.129V8.857ZM6.857 7A1.857 1.857 0 0 0 5 8.857v6.272A1.87 1.87 0 0 0 6.87 17c.508 0 .959.325 1.12.806l.52 1.561 2.623-1.967a2 2 0 0 1 1.2-.4H17a2 2 0 0 0 2-2V9a2 2 0 0 0-2-2H6.857Z"/><path d="M10.561 9.875c-.65 0-1.186.619-1.186 1.285 0 .287.118.617.378.987.26.368.625.724 1.021 1.042a9.464 9.464 0 0 0 1.226.829l.129-.075c.305-.18.704-.438 1.097-.754.396-.318.76-.674 1.02-1.042.261-.37.379-.7.379-.987 0-.666-.537-1.285-1.186-1.285-.392 0-.633.178-.787.35a.875.875 0 0 1-1.304 0 1.008 1.008 0 0 0-.787-.35ZM7.625 11.16c0-1.419 1.12-3.035 2.936-3.035.59 0 1.067.167 1.439.391a2.747 2.747 0 0 1 1.439-.391c1.816 0 2.936 1.616 2.936 3.035 0 .769-.312 1.447-.698 1.995-.387.549-.885 1.021-1.356 1.4a11.217 11.217 0 0 1-1.753 1.145 4.247 4.247 0 0 1-.227.107 1.1 1.1 0 0 1-.139.044.89.89 0 0 1-.202.024c-.102 0-.181-.019-.202-.023a.981.981 0 0 1-.214-.077 9.163 9.163 0 0 1-.601-.324c-.357-.21-.83-.516-1.304-.897-.47-.378-.97-.85-1.356-1.4-.386-.547-.698-1.225-.698-1.994Z"/></symbol>

<symbol id="envelope-open" viewBox="0 0 24 24"><path d="M13.789 3.776a4 4 0 0 0-3.578 0L4.106 6.83A2 2 0 0 0 3 8.618V15a4 4 0 0 0 4 4h10a4 4 0 0 0 4-4V8.618a2 2 0 0 0-1.106-1.789L13.79 3.776Zm-2.683 1.79a2 2 0 0 1 1.788 0l5.87 2.934-6.708 3.354a.125.125 0 0 1-.112 0L5.236 8.5l5.87-2.935ZM5 10.617l6.05 3.025c.598.299 1.302.299 1.9 0L19 10.618V15a2 2 0 0 1-2 2H7a2 2 0 0 1-2-2v-4.382Z"/></symbol>

<symbol id="envelope" viewBox="0 0 24 24"><path d="M7 5a4 4 0 0 0-4 3.998V15a4 4 0 0 0 4 4h10a4 4 0 0 0 4-4V8.965A4 4 0 0 0 17 5H7Zm11.916 3.424-6.86 3.43a.125.125 0 0 1-.112 0l-6.86-3.43A2 2 0 0 1 7 7h10a2 2 0 0 1 1.916 1.424ZM5 10.618l6.05 3.025c.598.299 1.302.299 1.9 0L19 10.618V15a2 2 0 0 1-2 2H7a2 2 0 0 1-2-2v-4.382Z"/></symbol>

<symbol id="equals" viewBox="0 0 24 24"><path d="M4 10a1 1 0 0 1 1-1h14a1 1 0 1 1 0 2H5a1 1 0 0 1-1-1ZM4 14a1 1 0 0 1 1-1h14a1 1 0 1 1 0 2H5a1 1 0 0 1-1-1Z"/></symbol>

<symbol id="expand" viewBox="0 0 24 24"><path d="M14 5a1 1 0 0 1 1-1h4a1 1 0 0 1 1 1v4a1 1 0 1 1-2 0V7.414l-3.793 3.793a1 1 0 0 1-1.414-1.414L16.586 6H15a1 1 0 0 1-1-1ZM10 19a1 1 0 0 1-1 1H5a1 1 0 0 1-1-1v-4a1 1 0 1 1 2 0v1.586l3.793-3.793a1 1 0 0 1 1.414 1.414L7.414 18H9a1 1 0 0 1 1 1Z"/></symbol>

<symbol id="expenses" viewBox="0 0 24 24"><path d="M6 3a3 3 0 0 0-3 3v9a4 4 0 0 0 4 4h10a4 4 0 0 0 4-4v-4a4.002 4.002 0 0 0-3-3.874V6a3 3 0 0 0-3-3H6Zm10 4H6a1 1 0 0 1 0-2h9a1 1 0 0 1 1 1v1ZM5 8.83c.313.11.65.17 1 .17h11a2 2 0 0 1 2 2v4a2 2 0 0 1-2 2H7a2 2 0 0 1-2-2V8.83Z"/><path d="M18 13a1.5 1.5 0 1 1-3 0 1.5 1.5 0 0 1 3 0Z"/></symbol>

<symbol id="external link" viewBox="0 0 24 24"><path d="M4 8a4 4 0 0 1 4-4h2a1 1 0 1 1 0 2H8a2 2 0 0 0-2 2v8a2 2 0 0 0 2 2h8a2 2 0 0 0 2-2v-2.5a1 1 0 1 1 2 0V16a4 4 0 0 1-4 4H8a4 4 0 0 1-4-4V8Z"/><path d="M14.5 4a1 1 0 0 1 1-1H20a1 1 0 0 1 1 1v4.5a1 1 0 1 1-2 0V6.414l-5.793 5.793a1 1 0 0 1-1.414-1.414L17.586 5H15.5a1 1 0 0 1-1-1Z"/></symbol>

<symbol id="eye-invisible" viewBox="0 0 24 24"><path d="M3.938 6.694a1.078 1.078 0 0 1 1.44.501c1.14 2.353 3.576 4.391 6.622 4.391s5.483-2.038 6.622-4.391a1.078 1.078 0 1 1 1.94.94c-.406.84-.953 1.663-1.623 2.408l1.767 1.765a1 1 0 0 1-1.413 1.415l-1.831-1.828a9.407 9.407 0 0 1-2.3 1.27l.954 2.853a1 1 0 1 1-1.896.634l-1.001-2.991a8.983 8.983 0 0 1-2.375.008l-.998 2.983a1 1 0 1 1-1.896-.634l.947-2.83a9.4 9.4 0 0 1-2.359-1.293l-1.831 1.829a1 1 0 0 1-1.413-1.416l1.768-1.765a10.398 10.398 0 0 1-1.624-2.408 1.078 1.078 0 0 1 .5-1.44Z"/></symbol>

<symbol id="eye-visible" viewBox="0 0 24 24"><path d="M5.147 12c.993 2.543 3.568 4.922 6.853 4.922 3.286 0 5.86-2.38 6.854-4.922C17.86 9.457 15.286 7.078 12 7.078c-3.285 0-5.86 2.38-6.853 4.922Zm-2.17-.341C4.088 8.326 7.432 4.922 12 4.922s7.912 3.404 9.023 6.737c.074.221.074.46 0 .682-1.111 3.333-4.455 6.737-9.023 6.737s-7.912-3.404-9.023-6.737a1.078 1.078 0 0 1 0-.682Z"/><path d="M12 13a1 1 0 1 1 0-2 1 1 0 0 1 0 2Zm0 2a3 3 0 1 0 0-6 3 3 0 0 0 0 6Z"/></symbol>

<symbol id="face-id" viewBox="0 0 24 24"><path fill-rule="evenodd" d="M10 9a1 1 0 0 1 1 1v1a1 1 0 1 1-2 0v-1a1 1 0 0 1 1-1ZM14 9a1 1 0 0 1 1 1v1a1 1 0 1 1-2 0v-1a1 1 0 0 1 1-1ZM8.72 13.375a1 1 0 0 1 1.405-.156 3.002 3.002 0 0 0 3.75 0 1 1 0 1 1 1.25 1.562 5.002 5.002 0 0 1-6.25 0 1 1 0 0 1-.156-1.406ZM4 8a4 4 0 0 1 4-4 1 1 0 0 1 0 2 2 2 0 0 0-2 2 1 1 0 0 1-2 0Zm11-3a1 1 0 0 1 1-1 4 4 0 0 1 4 4 1 1 0 1 1-2 0 2 2 0 0 0-2-2 1 1 0 0 1-1-1ZM5 15a1 1 0 0 1 1 1 2 2 0 0 0 2 2 1 1 0 1 1 0 2 4 4 0 0 1-4-4 1 1 0 0 1 1-1Zm14 0a1 1 0 0 1 1 1 4 4 0 0 1-4 4 1 1 0 1 1 0-2 2 2 0 0 0 2-2 1 1 0 0 1 1-1Z" clip-rule="evenodd"/></symbol>

<symbol id="feed" viewBox="0 0 24 24"><path d="M9.5 5.5a1 1 0 0 1 .91.586l4.09 8.997 1.59-3.497A1 1 0 0 1 17 11h3a1 1 0 1 1 0 2h-2.356l-2.234 4.914a1 1 0 0 1-1.82 0L9.5 8.917l-1.59 3.497A1 1 0 0 1 7 13H4a1 1 0 1 1 0-2h2.356L8.59 6.086A1 1 0 0 1 9.5 5.5Z"/></symbol>

<symbol id="feedback" viewBox="0 0 24 24"><path d="M7 13a1 1 0 0 0-1 1v4.586l.293-.293A1 1 0 0 1 7 18h5a1 1 0 0 0 1-1v-3a1 1 0 0 0-1-1H7Zm-3 1a3 3 0 0 1 3-3h5a3 3 0 0 1 3 3v3a3 3 0 0 1-3 3H7.414l-.853.854C5.616 21.799 4 21.129 4 19.793V14Z"/><path d="M17 6a1 1 0 0 1 1 1v4.586l-.293-.293A1 1 0 0 0 17 11h-.5a1 1 0 1 0 0 2h.086l.853.854c.945.945 2.561.275 2.561-1.061V7a3 3 0 0 0-3-3h-5a3 3 0 0 0-3 3v2a1 1 0 1 0 2 0V7a1 1 0 0 1 1-1h5Z"/></symbol>

<symbol id="file-filled" viewBox="0 0 24 24"><path d="M5 7a4 4 0 0 1 4-4h3.757a4 4 0 0 1 2.829 1.172l2.242 2.242A4 4 0 0 1 19 9.243V17a4 4 0 0 1-4 4H9a4 4 0 0 1-4-4V7Zm4-2a2 2 0 0 0-2 2v10a2 2 0 0 0 2 2h6a2 2 0 0 0 2-2V9.243a2 2 0 0 0-.586-1.415l-2.242-2.242A2 2 0 0 0 12.757 5H9Z"/><path d="M9 12a1 1 0 0 1 1-1h4a1 1 0 1 1 0 2h-4a1 1 0 0 1-1-1ZM9 16a1 1 0 0 1 1-1h2a1 1 0 1 1 0 2h-2a1 1 0 0 1-1-1Z"/></symbol>

<symbol id="file" viewBox="0 0 24 24"><path d="M5 7a4 4 0 0 1 4-4h3.757a4 4 0 0 1 2.829 1.172l2.242 2.242A4 4 0 0 1 19 9.243V17a4 4 0 0 1-4 4H9a4 4 0 0 1-4-4V7Zm4-2a2 2 0 0 0-2 2v10a2 2 0 0 0 2 2h6a2 2 0 0 0 2-2V9.243a2 2 0 0 0-.586-1.415l-2.242-2.242A2 2 0 0 0 12.757 5H9Z"/></symbol>

<symbol id="files" viewBox="0 0 24 24"><path d="M7.093 3h1.635c1.07 0 2.056.577 2.581 1.51.17.303.49.49.838.49h1.469c.632 0 1.154 0 1.582.028.443.028.854.09 1.252.244a4 4 0 0 1 2.278 2.278c.155.398.216.809.244 1.252.028.428.028.95.028 1.582v.857c0 .805 0 1.47-.044 2.01-.046.563-.145 1.08-.392 1.565a4 4 0 0 1-1.748 1.748c-.485.247-1.002.346-1.564.392-.541.044-1.206.044-2.01.044H8.758c-.805 0-1.47 0-2.01-.044-.563-.046-1.08-.145-1.565-.392a4 4 0 0 1-1.748-1.748c-.247-.485-.346-1.002-.392-1.564C3 12.71 3 12.046 3 11.242V7.092c0-.496 0-.923.027-1.277.029-.372.092-.743.263-1.103A3 3 0 0 1 4.713 3.29c.36-.171.731-.234 1.103-.263C6.17 3 6.597 3 7.093 3ZM5.97 5.021c-.256.02-.352.054-.4.076a1 1 0 0 0-.473.474c-.022.047-.056.143-.076.399-.02.267-.021.617-.021 1.16v4.07c0 .857 0 1.439.038 1.889.035.438.1.663.18.819a2 2 0 0 0 .874.874c.156.08.38.145.819.18C7.361 15 7.943 15 8.8 15h4.4c.857 0 1.439 0 1.889-.037.438-.036.663-.101.819-.181a2 2 0 0 0 .874-.874c.08-.156.145-.38.18-.819.037-.45.038-1.032.038-1.889v-.783c0-.673 0-1.13-.023-1.486-.023-.348-.064-.53-.113-.656a2 2 0 0 0-1.139-1.139c-.127-.05-.308-.09-.656-.113A25.69 25.69 0 0 0 13.583 7h-1.436a2.962 2.962 0 0 1-2.581-1.51.962.962 0 0 0-.838-.49H7.13c-.543 0-.893 0-1.16.021Z"/><path d="M21 8a1 1 0 0 1 1 1v.444c0 1.643 0 2.937-.085 3.978-.087 1.063-.267 1.95-.678 2.756a7 7 0 0 1-3.06 3.059c-.805.41-1.692.591-2.755.678-1.041.085-2.335.085-3.978.085H7a1 1 0 1 1 0-2h4.4c1.697 0 2.909 0 3.86-.078.938-.077 1.533-.224 2.01-.467a5 5 0 0 0 2.185-2.185c.243-.477.39-1.072.467-2.01.077-.951.078-2.163.078-3.86V9a1 1 0 0 1 1-1Z"/></symbol>

<symbol id="filter" viewBox="0 0 24 24"><path d="M4.656 7.302C3.544 6.004 4.466 4 6.174 4h11.652c1.709 0 2.63 2.004 1.518 3.302L15 12.37v4.13a2 2 0 0 1-.8 1.6l-2 1.5c-1.318.989-3.2.048-3.2-1.6v-5.63L4.656 7.302ZM17.826 6H6.174l4.345 5.068A2 2 0 0 1 11 12.37V18l2-1.5v-4.13a2 2 0 0 1 .482-1.302L17.826 6Z"/></symbol>

<symbol id="flag" viewBox="0 0 24 24"><path d="M7 4a1 1 0 0 0-2 0v16a1 1 0 1 0 2 0v-4.23c1.283-.312 2.183-.364 2.876-.278.791.1 1.393.39 2.07.84 1.903 1.27 4.367 1.183 6.654-.532a1 1 0 0 0 .4-.8V5.5a1 1 0 0 0-1.6-.8c-1.713 1.285-3.25 1.198-4.345.468-.825-.55-1.723-1.01-2.931-1.16-.891-.112-1.902-.05-3.124.21V4Zm0 2.27c1.283-.312 2.183-.364 2.876-.278.791.1 1.393.39 2.07.84 1.464.977 3.261 1.151 5.054.397v7.248c-1.552.99-2.936.864-3.945.19-.825-.549-1.723-1.008-2.931-1.16-.891-.11-1.902-.048-3.124.211V6.27Z"/></symbol>

<symbol id="folder" viewBox="0 0 24 24"><path d="M7.161 3h2.567c1.07 0 2.056.577 2.581 1.51.17.303.49.49.838.49h2.094c.805 0 1.47 0 2.01.044.563.046 1.08.145 1.565.392a4 4 0 0 1 1.748 1.748c.247.485.346 1.002.392 1.564.044.541.044 1.206.044 2.01v2.483c0 .805 0 1.47-.044 2.01-.046.563-.145 1.08-.392 1.565a4 4 0 0 1-1.748 1.748c-.485.247-1.002.346-1.564.392-.541.044-1.206.044-2.01.044H8.758c-.805 0-1.47 0-2.01-.044-.563-.046-1.08-.145-1.565-.392a4 4 0 0 1-1.748-1.748c-.247-.485-.346-1.002-.392-1.564C3 14.71 3 14.046 3 13.242v-6.08c0-.528 0-.982.03-1.357.033-.395.104-.789.297-1.167a3 3 0 0 1 1.311-1.311c.378-.193.772-.264 1.167-.296C6.18 3 6.635 3 7.161 3ZM5.968 5.024c-.272.022-.373.06-.422.085a1 1 0 0 0-.437.437c-.025.05-.063.15-.085.422C5 6.25 5 6.623 5 7.2v6c0 .857 0 1.439.038 1.889.035.438.1.663.18.819a2 2 0 0 0 .874.874c.156.08.38.145.819.18C7.361 17 7.943 17 8.8 17h6.4c.857 0 1.439 0 1.889-.038.438-.035.663-.1.819-.18a2 2 0 0 0 .874-.874c.08-.156.145-.38.18-.819.037-.45.038-1.032.038-1.889v-2.4c0-.857 0-1.439-.038-1.889-.035-.438-.1-.663-.18-.819a2 2 0 0 0-.874-.874c-.156-.08-.38-.145-.819-.18C16.639 7 16.057 7 15.2 7h-2.053a2.962 2.962 0 0 1-2.581-1.51.962.962 0 0 0-.838-.49H7.2c-.577 0-.949 0-1.232.024Z"/></symbol>

<symbol id="globe" viewBox="0 0 24 24"><path d="M20 12a8 8 0 1 1-16 0 8 8 0 0 1 16 0Zm-8 5.657A8.953 8.953 0 0 0 13.945 13h-3.89A8.953 8.953 0 0 0 12 17.657Zm2.573-.235A6.008 6.008 0 0 0 17.917 13h-1.962a10.935 10.935 0 0 1-1.382 4.422ZM15.955 11h1.962a6.008 6.008 0 0 0-3.344-4.422A10.935 10.935 0 0 1 15.955 11Zm-2.01 0A8.954 8.954 0 0 0 12 6.343 8.954 8.954 0 0 0 10.055 11h3.89Zm-5.9 2H6.083a6.008 6.008 0 0 0 3.344 4.422A10.935 10.935 0 0 1 8.045 13Zm0-2c.144-1.597.63-3.095 1.382-4.422A6.008 6.008 0 0 0 6.083 11h1.962Z"/></symbol>

<symbol id="group" viewBox="0 0 24 24"><path d="M6 4a2 2 0 0 0-2 2v2a2 2 0 0 0 2 2v4a2 2 0 0 0-2 2v2a2 2 0 0 0 2 2h2a2 2 0 0 0 2-2h4a2 2 0 0 0 2 2h2a2 2 0 0 0 2-2v-2a2 2 0 0 0-2-2v-4a2 2 0 0 0 2-2V6a2 2 0 0 0-2-2h-2a2 2 0 0 0-2 2h-4a2 2 0 0 0-2-2H6Zm12 4h-2V6h2v2Zm-2 2v4a2 2 0 0 0-2 2h-4a2 2 0 0 0-2-2v-4a2 2 0 0 0 2-2h4a2 2 0 0 0 2 2Zm0 6h2v2h-2v-2ZM8 8H6V6h2v2Zm-2 8h2v2H6v-2Z"/></symbol>

<symbol id="h1" viewBox="0 0 24 24"><path d="M4 6a1 1 0 0 1 1 1v4h5V7a1 1 0 1 1 2 0v10a1 1 0 1 1-2 0v-4H5v4a1 1 0 1 1-2 0V7a1 1 0 0 1 1-1ZM20 7a1 1 0 1 0-2 0c0 .175-.098.433-.332.668-.235.235-.493.332-.668.332a1 1 0 1 0 0 2c.352 0 .69-.073 1-.198V17a1 1 0 1 0 2 0V7Z"/></symbol>

<symbol id="h2" viewBox="0 0 24 24"><path d="M4 6a1 1 0 0 1 1 1v4h5V7a1 1 0 1 1 2 0v10a1 1 0 1 1-2 0v-4H5v4a1 1 0 1 1-2 0V7a1 1 0 0 1 1-1ZM17.5 8A1.5 1.5 0 0 0 16 9.5a1 1 0 1 1-2 0 3.5 3.5 0 1 1 3.5 3.5 1.5 1.5 0 0 0-1.5 1.5V16h4a1 1 0 1 1 0 2h-5a1 1 0 0 1-1-1v-2.5a3.5 3.5 0 0 1 3.5-3.5 1.5 1.5 0 0 0 0-3Z"/></symbol>

<symbol id="h3" viewBox="0 0 24 24"><path d="M16 9a1 1 0 0 1 1-1h.5a1.5 1.5 0 0 1 0 3 1 1 0 1 0 0 2 1.5 1.5 0 0 1 0 3H17a1 1 0 0 1-1-1 1 1 0 1 0-2 0 3 3 0 0 0 3 3h.5a3.5 3.5 0 0 0 2.45-6 3.5 3.5 0 0 0-2.45-6H17a3 3 0 0 0-3 3 1 1 0 1 0 2 0ZM4 6a1 1 0 0 1 1 1v4h5V7a1 1 0 1 1 2 0v10a1 1 0 1 1-2 0v-4H5v4a1 1 0 1 1-2 0V7a1 1 0 0 1 1-1Z"/></symbol>

<symbol id="heart" viewBox="0 0 24 24"><path d="M8.938 7c.846 0 1.403.285 1.745.545a2.293 2.293 0 0 1 .451.457l.01.014a1 1 0 0 0 1.713 0l.009-.014a2.293 2.293 0 0 1 .451-.457c.342-.26.9-.545 1.745-.545.755 0 1.481.37 2.04 1.002.563.636.898 1.476.898 2.284 0 .805-.333 1.695-.934 2.628-.596.924-1.41 1.817-2.25 2.607A25.47 25.47 0 0 1 12 17.795a25.465 25.465 0 0 1-2.816-2.274c-.84-.79-1.653-1.683-2.25-2.607C6.333 11.98 6 11.09 6 10.286 6 8.286 7.72 7 8.938 7ZM12 6.037a4.416 4.416 0 0 0-.105-.082C11.253 5.465 10.28 5 8.938 5 6.655 5 4 7.143 4 10.286c0 1.338.542 2.608 1.253 3.711.716 1.111 1.654 2.13 2.563 2.982a27.48 27.48 0 0 0 3.623 2.85l.018.011.006.003.001.001s.001.001.536-.844l-.535.845a1 1 0 0 0 1.07 0L12 19l.535.845.002-.002.006-.003.018-.012a11.7 11.7 0 0 0 .3-.198 27.478 27.478 0 0 0 3.323-2.65c.91-.854 1.846-1.872 2.563-2.983.71-1.103 1.253-2.373 1.253-3.711 0-1.335-.54-2.638-1.4-3.61C17.739 5.703 16.497 5 15.063 5c-1.34 0-2.315.465-2.957.955a4.416 4.416 0 0 0-.105.082Z"/></symbol>

<symbol id="hide-sidebar" viewBox="0 0 24 24"><path d="M15.119 9.381a.875.875 0 0 1 0 1.238l-.506.506H17a.875.875 0 1 1 0 1.75h-2.387l.506.506a.875.875 0 1 1-1.237 1.238l-2-2a.875.875 0 0 1 0-1.238l2-2a.875.875 0 0 1 1.237 0Z"/><path d="M7 5a4 4 0 0 0-4 4v6a4 4 0 0 0 4 4h10a4 4 0 0 0 4-4V9a4 4 0 0 0-4-4H7Zm1 2v10H7a2 2 0 0 1-2-2V9a2 2 0 0 1 2-2h1Zm2 10V7h7a2 2 0 0 1 2 2v6a2 2 0 0 1-2 2h-7Z"/></symbol>

<symbol id="history" viewBox="0 0 24 24"><path d="M10.44 4.154a8 8 0 1 1-4.097 13.503 1 1 0 1 1 1.414-1.414A6 6 0 1 0 6.343 10H7a1 1 0 0 1 .707 1.707l-2 2a1 1 0 0 1-1.414 0l-2-2A1 1 0 0 1 3 10h1.254a8 8 0 0 1 6.185-5.846Z"/><path d="M12 8a1 1 0 0 1 1 1v2.42l2.996 1.712a1 1 0 1 1-.992 1.736l-3.5-2A1 1 0 0 1 11 12V9a1 1 0 0 1 1-1Z"/></symbol>

<symbol id="home" viewBox="0 0 24 24"><path d="M13.162 5.56a2 2 0 0 0-2.325 0l-4 2.856A2 2 0 0 0 6 10.044V16a2 2 0 0 0 2 2h1v-2.5a3 3 0 1 1 6 0V18h1a2 2 0 0 0 2-2v-5.956a2 2 0 0 0-.837-1.628l-4-2.857ZM9.675 3.931a4 4 0 0 1 4.65 0l4 2.857A4 4 0 0 1 20 10.044V16a4 4 0 0 1-4 4h-1a2 2 0 0 1-2-2v-2.5a1 1 0 1 0-2 0V18a2 2 0 0 1-2 2H8a4 4 0 0 1-4-4v-5.956a4 4 0 0 1 1.675-3.255l4-2.857Z"/></symbol>

<symbol id="image" viewBox="0 0 24 24"><path d="M7 5a4 4 0 0 0-4 4v6a4 4 0 0 0 4 4h10a4 4 0 0 0 4-4V9a4 4 0 0 0-4-4H7ZM5 9a2 2 0 0 1 2-2h10a2 2 0 0 1 2 2v3.586l-.172-.172a4 4 0 0 0-5.656 0L8.586 17H7a2 2 0 0 1-2-2V9Zm6.414 8 3.172-3.171a2 2 0 0 1 2.828 0l1.55 1.55A2 2 0 0 1 17 17h-5.586Z"/><path d="M9 12a1 1 0 1 1 0-2 1 1 0 0 1 0 2Zm0 2a3 3 0 1 0 0-6 3 3 0 0 0 0 6Z"/></symbol>

<symbol id="inbox" viewBox="0 0 24 24"><path d="M5.004 6.749A4 4 0 0 1 8.31 5h6.993a4 4 0 0 1 3.094 1.465l2.377 2.901A1 1 0 0 1 21 10v5a4 4 0 0 1-4 4H7a4 4 0 0 1-4-4v-5a1 1 0 0 1 .173-.563l1.83-2.688ZM8.31 7a2 2 0 0 0-1.653.874L5.891 9h1.088c1.367 0 2.533.988 2.757 2.336a.795.795 0 0 0 .784.664h2.96c.388 0 .72-.281.783-.664A2.795 2.795 0 0 1 17.02 9h.868L16.85 7.733A2 2 0 0 0 15.303 7H8.31ZM19 11h-1.98a.795.795 0 0 0-.784.664A2.795 2.795 0 0 1 13.48 14h-2.958a2.795 2.795 0 0 1-2.758-2.336A.795.795 0 0 0 6.98 11H5v4a2 2 0 0 0 2 2h10a2 2 0 0 0 2-2v-4Z"/></symbol>

<symbol id="info-circle-line" viewBox="0 0 24 24"><path d="M13 9a1 1 0 1 1-2 0 1 1 0 0 1 2 0ZM12 11a1 1 0 0 1 1 1v3a1 1 0 1 1-2 0v-3a1 1 0 0 1 1-1Z"/><path d="M12 18a6 6 0 1 1 0-12 6 6 0 0 1 0 12Zm0 2a8 8 0 1 0 0-16 8 8 0 0 0 0 16Z"/></symbol>

<symbol id="info-circle" viewBox="0 0 24 24"><path d="M20 12a8 8 0 1 1-16 0 8 8 0 0 1 16 0Zm-8-4a1 1 0 1 0 0 2 1 1 0 0 0 0-2Zm1 4a1 1 0 1 0-2 0v3a1 1 0 1 0 2 0v-3Z"/></symbol>

<symbol id="info" viewBox="0 0 24 24"><path d="M9 10a1 1 0 0 1 1-1h1a2 2 0 0 1 2 2v6h1a1 1 0 1 1 0 2h-4a1 1 0 1 1 0-2h1v-6h-1a1 1 0 0 1-1-1ZM13 6.5a1.5 1.5 0 1 1-3 0 1.5 1.5 0 0 1 3 0Z"/></symbol>

<symbol id="input-field" viewBox="0 0 24 24"><path d="M8 6a1 1 0 0 1 1-1h6a1 1 0 1 1 0 2h-2v10h2a1 1 0 1 1 0 2H9a1 1 0 1 1 0-2h2V7H9a1 1 0 0 1-1-1Z"/><path d="M3 11a3 3 0 0 1 3-3h2a1 1 0 0 1 0 2H6a1 1 0 0 0-1 1v2a1 1 0 0 0 1 1h2a1 1 0 1 1 0 2H6a3 3 0 0 1-3-3v-2ZM21 13a3 3 0 0 1-3 3h-2a1 1 0 1 1 0-2h2a1 1 0 0 0 1-1v-2a1 1 0 0 0-1-1h-2a1 1 0 1 1 0-2h2a3 3 0 0 1 3 3v2Z"/></symbol>

<symbol id="italic" viewBox="0 0 24 24"><path d="M8 6a1 1 0 0 1 1-1h8a1 1 0 1 1 0 2h-3.153l-1.666 10H15a1 1 0 1 1 0 2H7a1 1 0 1 1 0-2h3.153l1.666-10H9a1 1 0 0 1-1-1Z"/></symbol>

<symbol id="laptop" viewBox="0 0 24 24"><path d="M4 7a3 3 0 0 1 3-3h10a3 3 0 0 1 3 3v7a2 2 0 0 1 2 2 4 4 0 0 1-4 4H6a4 4 0 0 1-4-4 2 2 0 0 1 2-2V7Zm2 7h3.5a1.5 1.5 0 0 1 1.415 1h2.17a1.5 1.5 0 0 1 1.415-1H18V7a1 1 0 0 0-1-1H7a1 1 0 0 0-1 1v7Zm3.085 2H4a2 2 0 0 0 2 2h12a2 2 0 0 0 2-2h-5.085a1.5 1.5 0 0 1-1.415 1h-3a1.5 1.5 0 0 1-1.415-1Z"/></symbol>

<symbol id="layers-front" viewBox="0 0 24 24"><path d="M20 8a1 1 0 0 1 1 1v1.444c0 1.643 0 2.937-.085 3.978-.087 1.063-.267 1.95-.678 2.756a7 7 0 0 1-3.06 3.059c-.805.41-1.692.591-2.755.678-1.041.085-2.335.085-3.978.085H9a1 1 0 1 1 0-2h1.4c1.697 0 2.909 0 3.86-.078.938-.077 1.533-.224 2.01-.467a5 5 0 0 0 2.185-2.185c.243-.477.39-1.072.467-2.01.077-.951.078-2.163.078-3.86V9a1 1 0 0 1 1-1Z"/><path d="M4 8a4 4 0 0 1 4-4h6a4 4 0 0 1 4 4v6a4 4 0 0 1-4 4H8a4 4 0 0 1-4-4V8Zm4-2a2 2 0 0 0-2 2v6a2 2 0 0 0 2 2h6a2 2 0 0 0 2-2V8a2 2 0 0 0-2-2H8Z"/></symbol>

<symbol id="lightbulb" viewBox="0 0 24 24"><path d="m7 13.92-.004-.01a.192.192 0 0 0-.038-.054 7 7 0 1 1 10.084 0 .191.191 0 0 0-.042.065V17a4 4 0 0 1-4 4h-2a4 4 0 0 1-4-4v-3.08ZM7 9a4.98 4.98 0 0 0 1.398 3.468A2.1 2.1 0 0 1 9 13.92V15h2v-2.965l-1.055-.703a1 1 0 0 1 1.11-1.664l.945.63.945-.63a1 1 0 0 1 1.11 1.664L13 12.035V15h2v-1.08a2.1 2.1 0 0 1 .601-1.452A5 5 0 1 0 7 9Zm5 8H9a2 2 0 0 0 2 2h2a2 2 0 0 0 2-2h-3Z"/></symbol>

<symbol id="link-remove" viewBox="0 0 24 24"><path d="M4.293 4.293a1 1 0 0 1 1.414 0l1 1a1 1 0 0 1-1.414 1.414l-1-1a1 1 0 0 1 0-1.414ZM9 3a1 1 0 0 1 1 1v1a1 1 0 0 1-2 0V4a1 1 0 0 1 1-1ZM3 9a1 1 0 0 1 1-1h1a1 1 0 0 1 0 2H4a1 1 0 0 1-1-1ZM19.707 19.707a1 1 0 0 1-1.414 0l-1-1a1 1 0 0 1 1.414-1.414l1 1a1 1 0 0 1 0 1.414ZM15 21a1 1 0 0 1-1-1v-1a1 1 0 1 1 2 0v1a1 1 0 0 1-1 1ZM21 15a1 1 0 0 1-1 1h-1a1 1 0 1 1 0-2h1a1 1 0 0 1 1 1ZM7.707 11.293a1 1 0 0 1 0 1.414l-1 1a2.536 2.536 0 0 0 3.586 3.586l1-1a1 1 0 0 1 1.414 1.414l-1 1a4.536 4.536 0 0 1-6.414-6.414l1-1a1 1 0 0 1 1.414 0ZM16.293 12.707a1 1 0 0 1 0-1.414l1-1a2.536 2.536 0 1 0-3.586-3.586l-1 1a1 1 0 1 1-1.414-1.414l1-1a4.536 4.536 0 1 1 6.414 6.414l-1 1a1 1 0 0 1-1.414 0Z"/></symbol>

<symbol id="link" viewBox="0 0 24 24"><path d="M12.293 10.707a1.828 1.828 0 0 0-2.586 0l-3 3a2.536 2.536 0 0 0 3.586 3.586 1 1 0 0 1 1.414 1.414 4.535 4.535 0 1 1-6.414-6.414l3-3a3.828 3.828 0 0 1 5.414 0 1 1 0 0 1-1.414 1.414Z"/><path d="M11.707 13.293a1.829 1.829 0 0 0 2.586 0l3-3a2.536 2.536 0 1 0-3.586-3.586 1 1 0 1 1-1.414-1.414 4.536 4.536 0 0 1 6.414 6.414l-3 3a3.828 3.828 0 0 1-5.414 0 1 1 0 0 1 1.414-1.414Z"/></symbol>

<symbol id="list" viewBox="0 0 24 24"><path d="M8 8a1 1 0 0 1 1-1h10a1 1 0 1 1 0 2H9a1 1 0 0 1-1-1ZM8 12a1 1 0 0 1 1-1h10a1 1 0 1 1 0 2H9a1 1 0 0 1-1-1ZM8 16a1 1 0 0 1 1-1h10a1 1 0 1 1 0 2H9a1 1 0 0 1-1-1ZM4 8a1 1 0 1 1 2 0 1 1 0 0 1-2 0ZM5 11a1 1 0 1 1 0 2 1 1 0 0 1 0-2ZM5 15a1 1 0 1 0 0 2 1 1 0 0 0 0-2Z"/></symbol>

<symbol id="lock-locked" viewBox="0 0 24 24"><path d="M12 13a1 1 0 0 1 1 1v1a1 1 0 1 1-2 0v-1a1 1 0 0 1 1-1Z"/><path d="M7 9.126V8a5 5 0 0 1 10 0v1.126c1.725.444 3 2.01 3 3.874v3a4 4 0 0 1-4 4H8a4 4 0 0 1-4-4v-3a4.002 4.002 0 0 1 3-3.874ZM9 8v1h6V8a3 3 0 1 0-6 0Zm7 3H8a2 2 0 0 0-2 2v3a2 2 0 0 0 2 2h8a2 2 0 0 0 2-2v-3a2 2 0 0 0-2-2Z"/></symbol>

<symbol id="lock-unlocked" viewBox="0 0 24 24"><path d="M12 13a1 1 0 0 1 1 1v1a1 1 0 1 1-2 0v-1a1 1 0 0 1 1-1Z"/><path d="M9 8a3 3 0 0 1 3-3 1 1 0 1 0 0-2 5 5 0 0 0-5 5v1.126C5.275 9.57 4 11.136 4 13v3a4 4 0 0 0 4 4h8a4 4 0 0 0 4-4v-3a4 4 0 0 0-4-4H9V8Zm-1 3h8a2 2 0 0 1 2 2v3a2 2 0 0 1-2 2H8a2 2 0 0 1-2-2v-3a2 2 0 0 1 2-2Z"/></symbol>

<symbol id="logo-avatar" viewBox="0 0 24 24"><path d="M6.919 16.284a6.646 6.646 0 1 1 10.162 0c.336.21.658.44.964.689l.134.108a8 8 0 1 0-12.358 0l.134-.108c.306-.249.628-.479.964-.689Z"/><path d="M17.037 18.215A7.967 7.967 0 0 1 12 20a7.967 7.967 0 0 1-5.037-1.785A7.967 7.967 0 0 1 12 16.431c1.91 0 3.662.668 5.037 1.784ZM12 14.708A2.954 2.954 0 1 0 12 8.8a2.954 2.954 0 0 0 0 5.908Z"/></symbol>

<symbol id="logo-eruditai" viewBox="0 0 24 24"><path d="M14.939 10.137c.02-.192.03-.387.03-.584C14.969 6.486 12.513 4 9.484 4 6.455 4 4 6.486 4 9.553c0 3.066 2.455 5.552 5.484 5.552.22 0 .437-.013.65-.039v3.867c0 .59.472 1.067 1.053 1.067h7.275a1.06 1.06 0 0 0 1.053-1.067v-7.73a1.06 1.06 0 0 0-1.053-1.066h-3.523Zm0 0c-.266 2.575-2.271 4.627-4.805 4.93v-3.863c0-.59.472-1.067 1.053-1.067h3.752Z"/></symbol>

<symbol id="logo-meetingdoctors" viewBox="0 0 24 24"><path d="M11.98 19.194c-.004-.005-.74-1.022-.916-1.406a9.307 9.307 0 0 1-.222-.506 4.657 4.657 0 0 1-.314.386c-.816.907-1.733 1.496-2.816 1.588a4.844 4.844 0 0 1-1.396-.038 5.835 5.835 0 0 1-.479-.838 62.338 62.338 0 0 1-.353-.773c-.072.108-.148.21-.228.306-.64.766-1.362 1.285-2.325 1.348-.685.045-.931-.052-.931-.052s1.672-6.169 1.942-6.825c.296-.713.748-1.69 1.94-2.57 1.143-.838 2-.887 2.143-.887h.143s-.446 1.487-1.027 3.622c-.053.194-.105.411-.16.644a56.887 56.887 0 0 0-.031 1.7c.005.193.018.416.033.627l.077.784c.52-2.007 1.154-4.386 1.343-4.815.367-.834 1.072-2.258 2.664-3.246a7.377 7.377 0 0 1 2.667-1c.296-.052.242.026.242.026s-.504 1.965-1.201 4.443c-.05.178-.098.367-.147.567-.002.579 0 1.342.02 1.736.013.287.052.659.092.994v-.004s.08.53.113.857v.005c.646-2.415 1.455-5.347 1.714-5.869a8.47 8.47 0 0 1 3.57-3.8c1.574-.876 2.78-1.063 3.127-1.116A5.76 5.76 0 0 1 22 5s-.69 2.588-1.63 5.867a64.871 64.871 0 0 0-.496 1.832c-.25.966-.457 1.766-.847 2.803-.629 1.67-2.458 3.165-4.302 3.613-1.182.289-2.746.079-2.746.079Z"/></symbol>

<symbol id="logo-travelperk" viewBox="0 0 24 24"><path d="M13.635 6.372c.3-.296 1.566-1.118 1.833-.855.25.263-.567 1.529-.85 1.808-.283.296-.5.51-.65.658l.467 4.768-.533.526-1.6-3.65-.633.625c-.45.46-1.117.937-1.666 1.266l.083 1.644-.25.246s-.783-1.446-.816-1.48c-.017-.032-1.483-.821-1.483-.821l.25-.247 1.65.082c.332-.542.799-1.2 1.265-1.66l.617-.608-3.666-1.595.533-.526 4.8.477c.15-.165.366-.379.649-.658Z"/><path d="M6.337 3.33C9.469.223 14.535.223 17.65 3.33a7.923 7.923 0 0 1 0 11.262c-3.133 3.107-8.198 3.107-11.314 0a7.952 7.952 0 0 1 0-11.262Zm1 10.292a6.62 6.62 0 0 0 9.33 0c2.583-2.581 2.583-6.74 0-9.289a6.62 6.62 0 0 0-9.33 0 6.537 6.537 0 0 0 0 9.29Z"/><path d="M12.002 18.34c1.383 0 2.7-.279 3.932-.854a.697.697 0 0 1 .934.345c.15.345 0 .756-.35.92a10.63 10.63 0 0 1-4.516.987c-1.566 0-3.1-.329-4.515-.986a.68.68 0 0 1-.35-.921.697.697 0 0 1 .933-.345 9.504 9.504 0 0 0 3.932.855ZM12.002 22.5c-1.25 0-2.466-.18-3.649-.559a.716.716 0 0 1-.466-.871.708.708 0 0 1 .883-.46c1.033.328 2.132.493 3.232.493s2.166-.165 3.216-.477a.715.715 0 0 1 .883.46.689.689 0 0 1-.466.872c-1.184.361-2.4.542-3.633.542Z"/></symbol>

<symbol id="manager" viewBox="0 0 24 24"><path d="M9 6a3 3 0 1 0 0 6 3 3 0 0 0 0-6ZM4 9a5 5 0 1 1 10 0A5 5 0 0 1 4 9ZM15 7a1 1 0 0 1 1-1 4 4 0 0 1 0 8 1 1 0 1 1 0-2 2 2 0 1 0 0-4 1 1 0 0 1-1-1ZM2.793 17.293a1 1 0 0 0 1.41 1.418l.007-.007.047-.043c.046-.04.12-.104.222-.183a6.6 6.6 0 0 1 .93-.596A7.591 7.591 0 0 1 9 17c1.554 0 2.768.443 3.592.882.412.22.724.438.929.596a4.262 4.262 0 0 1 .269.226l.006.006a1 1 0 0 0 1.411-1.417l-.003-.003-.003-.003-.01-.01a2.985 2.985 0 0 0-.12-.11 6.275 6.275 0 0 0-.326-.27 8.597 8.597 0 0 0-1.212-.78A9.592 9.592 0 0 0 9 15a9.592 9.592 0 0 0-4.533 1.118 8.6 8.6 0 0 0-1.212.779 6.25 6.25 0 0 0-.446.38l-.01.01-.003.003-.002.002c-.002.002-.001 0-.001 0Zm11 1.415.002.001.001.002M16 16a1 1 0 0 1 1-1c1.07 0 1.919.307 2.502.618a4.805 4.805 0 0 1 .866.592l.057.052.02.018.006.007.003.003.002.002c.002.002.001 0 .001 0a1 1 0 0 1-1.406 1.423l-.012-.01a2.793 2.793 0 0 0-.479-.322A3.296 3.296 0 0 0 17 17a1 1 0 0 1-1-1Z"/></symbol>

<symbol id="marketplace" viewBox="0 0 24 24"><path d="M4 11.467a3.056 3.056 0 0 1-1.212-3.365l.629-2.2A4 4 0 0 1 7.263 3h9.474a4 4 0 0 1 3.846 2.901l.629 2.201A3.056 3.056 0 0 1 20 11.467V16a4 4 0 0 1-4 4h-1a2 2 0 0 1-2-2v-2a1 1 0 1 0-2 0v2a2 2 0 0 1-2 2H8a4 4 0 0 1-4-4v-4.533ZM5.34 6.45l-.629 2.2a1.058 1.058 0 0 0 1.963.764l.432-.862a1 1 0 0 1 1.788 0l.553 1.105a.618.618 0 0 0 1.106 0l.553-1.105a1 1 0 0 1 1.788 0l.553 1.105a.618.618 0 0 0 1.106 0l.553-1.105a1 1 0 0 1 1.788 0l.432.862a1.058 1.058 0 0 0 1.963-.763L18.66 6.45A2 2 0 0 0 16.737 5H7.263A2 2 0 0 0 5.34 6.45Zm2.624 4.577a3.058 3.058 0 0 1-1.964.96V16a2 2 0 0 0 2 2h1v-2a3 3 0 1 1 6 0v2h1a2 2 0 0 0 2-2v-4.012a3.058 3.058 0 0 1-1.964-.96 2.618 2.618 0 0 1-4.036.043 2.618 2.618 0 0 1-4.036-.043Z"/></symbol>

<symbol id="media" viewBox="0 0 24 24"><path d="M20 8a1 1 0 0 1 1 1v1.444c0 1.643 0 2.937-.085 3.978-.087 1.063-.267 1.95-.678 2.756a7 7 0 0 1-3.06 3.059c-.805.41-1.692.591-2.755.678-1.041.085-2.335.085-3.978.085H9a1 1 0 1 1 0-2h1.4c1.697 0 2.909 0 3.86-.078.938-.077 1.533-.224 2.01-.467a5 5 0 0 0 2.185-2.185c.243-.477.39-1.072.467-2.01.077-.951.078-2.163.078-3.86V9a1 1 0 0 1 1-1Z"/><path d="M4 8a4 4 0 0 1 4-4h6a4 4 0 0 1 4 4v6a4 4 0 0 1-4 4H8a4 4 0 0 1-4-4V8Zm4-2a2 2 0 0 0-2 2v6a2 2 0 0 0 2 2h6a2 2 0 0 0 2-2V8a2 2 0 0 0-2-2H8Z"/><path d="M11 7a1 1 0 0 1 1 1v2h2a1 1 0 1 1 0 2h-2v2a1 1 0 1 1-2 0v-2H8a1 1 0 1 1 0-2h2V8a1 1 0 0 1 1-1Z"/></symbol>

<symbol id="megaphone" viewBox="0 0 24 24"><path d="M17.56 5.172A1 1 0 0 1 18 6v11a1 1 0 0 1-1.371.928l-3.928-1.57a5 5 0 0 0-1.201-.315v1.207a2.75 2.75 0 1 1-5.5 0V16a3 3 0 0 1-3-3v-3a3 3 0 0 1 3-3h3.882a10 10 0 0 0 3.713-.715l3.034-1.213a1 1 0 0 1 .932.1ZM16 7.477l-1.662.665A12 12 0 0 1 9.882 9H6a1 1 0 0 0-1 1v3a1 1 0 0 0 1 1h1a1 1 0 0 1 1 1v2.25a.75.75 0 0 0 1.5 0V15a1 1 0 0 1 1-1h.345c.89 0 1.772.17 2.6.5L16 15.524V7.477ZM20 9a1 1 0 0 1 1 1v4a1 1 0 1 1-2 0v-4a1 1 0 0 1 1-1Z"/></symbol>

<symbol id="mobile-options" viewBox="0 0 24 24"><path d="M9 11a1 1 0 1 0 0 2 1 1 0 0 0 0-2ZM11 12a1 1 0 1 1 2 0 1 1 0 0 1-2 0ZM15 11a1 1 0 1 0 0 2 1 1 0 0 0 0-2Z"/><path d="M12 6a6 6 0 1 0 0 12 6 6 0 0 0 0-12Zm-8 6a8 8 0 1 1 16 0 8 8 0 0 1-16 0Z"/></symbol>

<symbol id="mobile" viewBox="0 0 24 24"><path d="M5 7a4 4 0 0 1 4-4h6a4 4 0 0 1 4 4v10a4 4 0 0 1-4 4H9a4 4 0 0 1-4-4V7Zm4-2a2 2 0 0 0-2 2v10a2 2 0 0 0 2 2h6a2 2 0 0 0 2-2V7a2 2 0 0 0-2-2H9Z"/><path d="M11 16a1 1 0 1 1 2 0 1 1 0 0 1-2 0Z"/></symbol>

<symbol id="money-bag" viewBox="0 0 24 24"><path fill-rule="evenodd" d="M10.326 1.5a2 2 0 0 0-1.923 2.55l.41 1.438A6 6 0 0 0 5.28 9.945l-.715 4C3.91 17.623 6.736 21 10.472 21h3.056c3.736 0 6.563-3.377 5.907-7.055l-.715-4a6 6 0 0 0-3.534-4.457l.412-1.439A2 2 0 0 0 13.674 1.5h-3.348ZM12.814 7h-1.628a4 4 0 0 0-3.938 3.297l-.714 4A4 4 0 0 0 10.472 19h3.056a4 4 0 0 0 3.938-4.703l-.715-4A4 4 0 0 0 12.814 7Zm.432-2 .428-1.5h-3.348l.428 1.5h2.492Z" clip-rule="evenodd"/><path d="M11 9a1 1 0 0 1 2 0h1a1 1 0 1 1 0 2h-2.5a.5.5 0 0 0 0 1h1a2.5 2.5 0 0 1 .499 4.95L13 17a1 1 0 1 1-2 0h-1a1 1 0 1 1 0-2h2.5a.5.5 0 0 0 0-1h-1a2.5 2.5 0 0 1-.499-4.95L11 9Z"/></symbol>

<symbol id="more-options" viewBox="0 0 24 24"><path d="M4 6a2 2 0 0 1 2-2h3a2 2 0 0 1 2 2v3a2 2 0 0 1-2 2H6a2 2 0 0 1-2-2V6Zm5 0H6v3h3V6ZM4 15a2 2 0 0 1 2-2h3a2 2 0 0 1 2 2v3a2 2 0 0 1-2 2H6a2 2 0 0 1-2-2v-3Zm5 0H6v3h3v-3ZM13 6a2 2 0 0 1 2-2h3a2 2 0 0 1 2 2v3a2 2 0 0 1-2 2h-3a2 2 0 0 1-2-2V6Zm5 0h-3v3h3V6ZM13 15a2 2 0 0 1 2-2h3a2 2 0 0 1 2 2v3a2 2 0 0 1-2 2h-3a2 2 0 0 1-2-2v-3Zm5 0h-3v3h3v-3Z"/></symbol>

<symbol id="move-shifts" viewBox="0 0 24 24"><path d="M7 7a2 2 0 0 0-2 2v6a2 2 0 0 0 2 2h3.5a1 1 0 1 1 0 2H7a4 4 0 0 1-4-4V9a4 4 0 0 1 4-4h10a4 4 0 0 1 4 4 1 1 0 1 1-2 0 2 2 0 0 0-2-2H7Z"/><path d="M6 10a1 1 0 0 1 1-1h4a1 1 0 1 1 0 2H7a1 1 0 0 1-1-1ZM7 13a1 1 0 1 0 0 2h2a1 1 0 1 0 0-2H7ZM17.293 12.293a1 1 0 0 1 1.414 0l3 3a1 1 0 0 1 0 1.414l-3 3a1 1 0 0 1-1.414-1.414L18.586 17H14a1 1 0 1 1 0-2h4.586l-1.293-1.293a1 1 0 0 1 0-1.414Z"/></symbol>

<symbol id="move" viewBox="0 0 24 24"><path d="M17.293 12.293a1 1 0 0 1 1.414 0l3 3a1 1 0 0 1 0 1.414l-3 3a1 1 0 0 1-1.414-1.414L18.586 17H14a1 1 0 1 1 0-2h4.586l-1.293-1.293a1 1 0 0 1 0-1.414Z"/><path d="M7.161 3h2.567c1.07 0 2.056.577 2.581 1.51.17.303.49.49.838.49h2.843c1.49-.028 2.822.154 3.747 1.065.909.896 1.182 2.264 1.262 3.886a1 1 0 0 1-1.998.098c-.078-1.58-.346-2.241-.668-2.56-.304-.3-.89-.517-2.313-.49L16 7h-2.853a2.962 2.962 0 0 1-2.581-1.51.962.962 0 0 0-.838-.49H7.2c-.577 0-.949 0-1.232.024-.272.022-.373.06-.422.085a1 1 0 0 0-.437.437c-.025.05-.063.15-.085.422C5 6.25 5 6.623 5 7.2v6c0 .857 0 1.439.038 1.889.035.438.1.663.18.819a2 2 0 0 0 .874.874c.156.08.38.145.819.18C7.361 17 7.943 17 8.8 17h2.075a1 1 0 1 1 0 2H8.759c-.805 0-1.47 0-2.01-.044-.563-.046-1.08-.145-1.565-.392a4 4 0 0 1-1.748-1.748c-.247-.485-.346-1.002-.392-1.564C3 14.71 3 14.046 3 13.242v-6.08c0-.528 0-.982.03-1.357.033-.395.104-.789.297-1.167a3 3 0 0 1 1.311-1.311c.378-.193.772-.264 1.167-.296C6.18 3 6.635 3 7.161 3Z"/></symbol>

<symbol id="my-documents" viewBox="0 0 24 24"><path fill-rule="evenodd" d="M7.161 3h2.567c1.07 0 2.056.577 2.581 1.51.17.303.49.49.838.49h2.094c.805 0 1.47 0 2.01.044.563.046 1.08.145 1.565.392a4 4 0 0 1 1.748 1.748c.247.485.346 1.002.392 1.564.044.541.044 1.206.044 2.01v2.483c0 .805 0 1.47-.044 2.01-.046.563-.145 1.08-.392 1.565a4 4 0 0 1-1.748 1.748c-.485.247-1.002.346-1.564.392a9.736 9.736 0 0 1-.252.017V19H7v-.027a9.766 9.766 0 0 1-.252-.017c-.562-.046-1.079-.145-1.564-.392a4 4 0 0 1-1.748-1.748c-.247-.485-.346-1.002-.392-1.564C3 14.71 3 14.046 3 13.242v-6.08c0-.528 0-.982.03-1.357.033-.395.104-.789.297-1.167a3 3 0 0 1 1.311-1.311c.378-.193.772-.264 1.167-.296C6.18 3 6.635 3 7.161 3Zm9.928 13.962c-.153.013-.321.021-.51.027a5.019 5.019 0 0 0-2.618-2.59 3.5 3.5 0 1 0-3.922 0 5.018 5.018 0 0 0-2.618 2.59 9.907 9.907 0 0 1-.51-.027c-.438-.035-.663-.1-.819-.18a2 2 0 0 1-.874-.874c-.08-.156-.145-.38-.18-.819C5 14.639 5 14.057 5 13.2v-6c0-.577 0-.949.024-1.232.022-.272.06-.373.085-.422a1 1 0 0 1 .437-.437c.05-.025.15-.063.422-.085C6.25 5 6.623 5 7.2 5h2.528c.347 0 .668.187.838.49A2.962 2.962 0 0 0 13.147 7H15.2c.857 0 1.439 0 1.889.038.438.035.663.1.819.18a2 2 0 0 1 .874.874c.08.156.145.38.18.819C19 9.361 19 9.943 19 10.8v2.4c0 .857 0 1.439-.038 1.889-.035.438-.1.663-.18.819a2 2 0 0 1-.874.874c-.156.08-.38.145-.819.18ZM12 16c.889 0 1.687.386 2.236 1H9.764c.55-.614 1.348-1 2.236-1Zm-1.5-4.5a1.5 1.5 0 1 1 3 0 1.5 1.5 0 0 1-3 0Z" clip-rule="evenodd"/></symbol>

<symbol id="numbers" viewBox="0 0 24 24"><path d="M9 12.5a1 1 0 0 1 1-1h2.5a1 1 0 1 1 0 2H10a1 1 0 0 1-1-1ZM17.65 13.43c-.032.088-.068.17-.107.248-.148.295-.322.48-.527.6-.21.124-.524.222-1.016.222a1 1 0 1 0 0 2c.758 0 1.444-.152 2.03-.497.593-.349 1.012-.851 1.302-1.43.552-1.105.668-2.568.668-4.073a3 3 0 1 0-2.35 2.93ZM16 10.5a1 1 0 1 1 2 0 1 1 0 0 1-2 0ZM8 8.5a1 1 0 0 0-2 0c0 .175-.097.433-.332.668-.235.235-.493.332-.668.332a1 1 0 0 0 0 2c.352 0 .69-.073 1-.197V15.5a1 1 0 1 0 2 0v-7Z"/></symbol>

<symbol id="office" viewBox="0 0 24 24"><path d="M9 12a1 1 0 0 1 1-1h4a1 1 0 1 1 0 2h-4a1 1 0 0 1-1-1ZM9 8a1 1 0 0 1 1-1h4a1 1 0 1 1 0 2h-4a1 1 0 0 1-1-1Z"/><path d="M5 7a4 4 0 0 1 4-4h6a4 4 0 0 1 4 4v12a1 1 0 1 1 0 2H5a1 1 0 1 1 0-2V7Zm2 12h2v-2.5a2 2 0 0 1 2-2h2a2 2 0 0 1 2 2V19h2V7a2 2 0 0 0-2-2H9a2 2 0 0 0-2 2v12Zm6 0v-2.5h-2V19h2Z"/></symbol>

<symbol id="ol-list" viewBox="0 0 24 24"><path d="M12 7a1 1 0 0 1 1-1h6a1 1 0 1 1 0 2h-6a1 1 0 0 1-1-1ZM12 12a1 1 0 0 1 1-1h6a1 1 0 1 1 0 2h-6a1 1 0 0 1-1-1ZM12 17a1 1 0 0 1 1-1h6a1 1 0 1 1 0 2h-6a1 1 0 0 1-1-1ZM7 13a1 1 0 0 0-1 1 1 1 0 1 1-2 0 3 3 0 1 1 3 3 1 1 0 0 0-1 1h3a1 1 0 1 1 0 2H5a1 1 0 0 1-1-1v-1a3 3 0 0 1 3-3 1 1 0 1 0 0-2Z"/><path d="M8 4a1 1 0 0 0-2 0c0 .175-.097.433-.332.668C5.433 4.903 5.175 5 5 5a1 1 0 0 0 0 2c.352 0 .69-.073 1-.198V10a1 1 0 1 0 2 0V4Z"/></symbol>

<symbol id="paperclip" viewBox="0 0 24 24"><path d="M18.293 7.707a1.828 1.828 0 0 0-2.586 0l-7 7a.414.414 0 0 0 .586.586l5-5a1 1 0 1 1 1.414 1.414l-5 5a2.414 2.414 0 0 1-3.414-3.414l7-7a3.828 3.828 0 1 1 5.414 5.414l-7 7a5.243 5.243 0 1 1-7.414-7.414l5-5a1 1 0 1 1 1.414 1.414l-5 5a3.243 3.243 0 1 0 4.586 4.586l7-7a1.829 1.829 0 0 0 0-2.586Z"/></symbol>

<symbol id="pause-filled" viewBox="0 0 24 24"><path d="M5 6.5c0-.465 0-.697.038-.89A2 2 0 0 1 6.61 4.038C6.803 4 7.035 4 7.5 4s.697 0 .89.038A2 2 0 0 1 9.962 5.61c.038.193.038.425.038.89v11c0 .465 0 .697-.038.89a2 2 0 0 1-1.572 1.571C8.197 20 7.965 20 7.5 20s-.697 0-.89-.039a2 2 0 0 1-1.572-1.571C5 18.197 5 17.965 5 17.5v-11ZM14 6.5c0-.465 0-.697.039-.89a2 2 0 0 1 1.57-1.571C15.804 4 16.036 4 16.5 4s.697 0 .89.039a2 2 0 0 1 1.572 1.57c.038.194.038.426.038.891v11c0 .465 0 .697-.038.89a2 2 0 0 1-1.572 1.572c-.193.038-.425.038-.89.038s-.697 0-.89-.038a2 2 0 0 1-1.571-1.572C14 18.197 14 17.965 14 17.5v-11Z"/></symbol>

<symbol id="pause" viewBox="0 0 24 24"><path fill-rule="evenodd" d="M5 4a2 2 0 0 0-2 2v12a2 2 0 0 0 2 2h4a2 2 0 0 0 2-2V6a2 2 0 0 0-2-2H5Zm0 2h4v12H5V6ZM15 4a2 2 0 0 0-2 2v12a2 2 0 0 0 2 2h4a2 2 0 0 0 2-2V6a2 2 0 0 0-2-2h-4Zm0 2h4v12h-4V6Z" clip-rule="evenodd"/></symbol>

<symbol id="payroll" viewBox="0 0 24 24"><path fill-rule="evenodd" d="M5 6a4 4 0 0 1 4-4h5a4 4 0 0 1 4 4v8a4 4 0 0 1-4 4H9a4 4 0 0 1-4-4V6Zm4-2a2 2 0 0 0-2 2v8a2 2 0 0 0 2 2h5a2 2 0 0 0 2-2V6a2 2 0 0 0-2-2H9Z" clip-rule="evenodd"/><path fill-rule="evenodd" d="M20 8a1 1 0 0 1 1 1v1.444c0 1.643 0 2.937-.085 3.978-.087 1.063-.267 1.95-.678 2.756a7 7 0 0 1-3.06 3.059c-.805.41-1.692.591-2.755.678-1.041.085-2.335.085-3.978.085H9a1 1 0 1 1 0-2h1.4c1.697 0 2.909 0 3.86-.078.938-.077 1.533-.224 2.01-.467a5 5 0 0 0 2.185-2.185c.243-.477.39-1.072.467-2.01.077-.951.078-2.163.078-3.86V9a1 1 0 0 1 1-1Z" clip-rule="evenodd"/><path d="M10.5 6a1 1 0 0 1 2 0h1a1 1 0 1 1 0 2H11a.5.5 0 0 0 0 1h1a2.5 2.5 0 0 1 .499 4.95l.001.05a1 1 0 1 1-2 0h-1a1 1 0 1 1 0-2H12a.5.5 0 0 0 0-1h-1a2.5 2.5 0 0 1-.499-4.95L10.5 6Z"/></symbol>

<symbol id="pencil" viewBox="0 0 24 24"><path d="M13.793 4.793a3.828 3.828 0 1 1 5.414 5.414l-7.5 7.5a1 1 0 0 1-.444.258l-5.5 1.5a1 1 0 0 1-1.228-1.228l1.5-5.5a1 1 0 0 1 .258-.444l7.5-7.5Zm4 1.414a1.828 1.828 0 0 0-2.586 0L8.414 13 11 15.586l6.793-6.793a1.828 1.828 0 0 0 0-2.586ZM9.074 16.49l-1.563-1.563-.586 2.149 2.15-.586Z"/></symbol>

<symbol id="performance" viewBox="0 0 24 24"><path d="M4 5a1 1 0 0 1 1 1v9a2 2 0 0 0 2 2h13a1 1 0 1 1 0 2H7a4 4 0 0 1-4-4V6a1 1 0 0 1 1-1Z"/><path d="M17 9a1 1 0 1 1 0-2h3a1 1 0 0 1 1 1v3a1 1 0 1 1-2 0v-.586l-2.94 2.94a1.5 1.5 0 0 1-2.12 0L12 11.414l-3.293 3.293a1 1 0 0 1-1.414-1.414l3.646-3.647a1.5 1.5 0 0 1 2.122 0L15 11.586 17.586 9H17Z"/></symbol>

<symbol id="person" viewBox="0 0 24 24"><path d="M12 6a3 3 0 1 0 0 6 3 3 0 0 0 0-6ZM7 9a5 5 0 1 1 10 0A5 5 0 0 1 7 9ZM5.793 17.293a1 1 0 0 0 1.41 1.418l.007-.007.047-.043c.046-.04.12-.104.222-.183a6.6 6.6 0 0 1 .93-.596A7.591 7.591 0 0 1 12 17c1.554 0 2.768.443 3.592.882.412.22.724.438.929.596a4.262 4.262 0 0 1 .269.226l.006.006a1 1 0 0 0 1.411-1.417l-.003-.003-.003-.003-.01-.01a2.985 2.985 0 0 0-.12-.11 6.275 6.275 0 0 0-.326-.27 8.597 8.597 0 0 0-1.212-.78A9.592 9.592 0 0 0 12 15a9.592 9.592 0 0 0-4.533 1.118 8.6 8.6 0 0 0-1.212.779 6.25 6.25 0 0 0-.446.38l-.01.01-.003.003-.002.002h-.001Zm11 1.415.002.001.001.002"/></symbol>

<symbol id="phone" viewBox="0 0 24 24"><path d="M3.447 7.496C3.232 5.34 5.09 4 6.907 4h2.872a2 2 0 0 1 1.898 1.368l.974 2.921a2 2 0 0 1-1.155 2.49l-.572.228c.289.462.583.835.908 1.16.326.326.7.62 1.16.909l.23-.572a2 2 0 0 1 2.489-1.154l2.921.973A2 2 0 0 1 20 14.221v2.28c0 2.168-1.815 4.1-4.167 3.645-2.629-.507-6.52-1.778-9.114-5.021-2.324-2.906-3.078-5.682-3.272-7.63ZM6.907 6c-.996 0-1.534.653-1.47 1.297.161 1.615.79 4.012 2.844 6.578 2.154 2.693 5.478 3.834 7.93 4.308.902.174 1.789-.538 1.789-1.683v-2.28l-2.922-.973-.65 1.624a1 1 0 0 1-1.375.523c-1.06-.53-1.91-1.087-2.635-1.812-.725-.725-1.282-1.575-1.812-2.635a1 1 0 0 1 .523-1.375l1.624-.65L9.78 6H6.907Z"/></symbol>

<symbol id="pin-small" viewBox="0 0 24 24"><path d="M12 6c-2.106 0-4 1.95-4 4.6 0 1.263.507 2.464 1.386 3.743.716 1.04 1.622 2.058 2.614 3.16.992-1.102 1.898-2.12 2.614-3.16C15.492 13.064 16 11.863 16 10.6 16 7.95 14.106 6 12 6Zm-6 4.6C6 7.065 8.583 4 12 4s6 3.064 6 6.6c0 1.83-.743 3.428-1.738 4.876-.828 1.204-1.889 2.382-2.93 3.538l-.586.652a1 1 0 0 1-1.492 0l-.585-.652c-1.042-1.156-2.103-2.334-2.93-3.538C6.742 14.028 6 12.43 6 10.6Z"/><path d="M11 10a1 1 0 1 1 2 0 1 1 0 0 1-2 0Z"/></symbol>

<symbol id="pin" viewBox="0 0 24 24"><path d="M12 5c-2.702 0-5 2.356-5 5.4 0 1.47.62 2.864 1.686 4.34.902 1.25 2.057 2.472 3.31 3.797a.231.231 0 0 1 .004.005.231.231 0 0 1 .005-.005c1.252-1.325 2.407-2.547 3.31-3.797C16.38 13.264 17 11.87 17 10.4 17 7.356 14.702 5 12 5Zm-7 5.4C5 6.375 8.074 3 12 3s7 3.375 7 7.4c0 2.065-.88 3.87-2.064 5.51-.987 1.368-2.251 2.704-3.502 4.027-.236.25-.471.498-.704.747a1 1 0 0 1-1.46 0c-.233-.249-.468-.498-.704-.747-1.25-1.323-2.515-2.659-3.502-4.026C5.88 14.27 5 12.465 5 10.4Z"/><path d="M9 10a3 3 0 1 1 6 0 3 3 0 0 1-6 0Zm3-1a1 1 0 1 0 0 2 1 1 0 0 0 0-2Z"/></symbol>

<symbol id="pix-brazil" viewBox="0 0 24 24"><path d="m6.11 8.841-1.422 1.424a2.432 2.432 0 0 0 0 3.441l1.424 1.424 1.392-.007c.315 0 .617-.125.885-.371l2.397-2.394a1.51 1.51 0 0 1 .616-.373 1.846 1.846 0 0 1-.596-.352l-.01-.009-2.408-2.407c-.268-.246-.57-.371-.884-.371L6.11 8.84ZM7.484 16.504c.67-.146 1.677-.387 1.967-.677l2.404-2.404c.002-.002.012-.01.032-.01.019 0 .029.008.03.01l2.414 2.413c.323.323 1.23.742 1.876.951l-2.498 2.498a2.481 2.481 0 0 1-3.441 0l-2.784-2.78ZM17.646 15.348l-1.367-.216c-.326 0-.647-.132-.88-.365l-2.412-2.413a1.504 1.504 0 0 0-.614-.37c.226-.08.43-.207.594-.351l.01-.009 2.421-2.421c.233-.23.555-.364.881-.364l1.587.005 1.422 1.421c.95.95.95 2.492 0 3.441l-1.642 1.642ZM16.207 7.182l-2.498-2.497a2.436 2.436 0 0 0-3.444 0L7.39 7.562c.699.109 1.773.277 2.066.587l2.4 2.4.002.002c.007.008.012.01.012.01h.005c.003 0 .024 0 .056-.025l2.4-2.4c.324-.324 1.23-.745 1.876-.954Z"/></symbol>

<symbol id="play-filled" viewBox="0 0 24 24"><path d="M6 18.503V5.497C6 3.95 7.68 2.989 9.014 3.773l11.055 6.503c1.315.773 1.315 2.675 0 3.448L9.014 20.227C7.681 21.011 6 20.05 6 18.503Z"/></symbol>

<symbol id="play" viewBox="0 0 24 24"><path d="M6 6.674c0-1.513 1.616-2.478 2.948-1.76l9.89 5.325c1.403.755 1.403 2.767 0 3.522l-9.89 5.326C7.616 19.804 6 18.839 6 17.326V6.674ZM17.89 12 8 6.674v10.652L17.89 12Z"/></symbol>

<symbol id="printer" viewBox="0 0 24 24"><path d="M21 10c0-1.9-1.325-3.49-3.101-3.899A4.002 4.002 0 0 0 14 3h-4C8.1 3 6.51 4.325 6.101 6.101A4.002 4.002 0 0 0 3 10v4a4 4 0 0 0 4 4 3 3 0 0 0 3 3h4a3 3 0 0 0 3-3 4 4 0 0 0 4-4v-4Zm-5.268-4H8.268A2 2 0 0 1 10 5h4a2 2 0 0 1 1.732 1ZM17 16v-1a2 2 0 0 0-2-2H9a2 2 0 0 0-2 2v1a2 2 0 0 1-2-2v-4a2 2 0 0 1 2-2h10a2 2 0 0 1 2 2v4a2 2 0 0 1-2 2Zm-8 2v-3h6v3a1 1 0 0 1-1 1h-4a1 1 0 0 1-1-1Z"/><path d="M18 11a1 1 0 1 1-2 0 1 1 0 0 1 2 0Z"/></symbol>

<symbol id="projects" viewBox="0 0 24 24"><path d="M11 3a3 3 0 0 0-3 3H7a4 4 0 0 0-4 4v6a4 4 0 0 0 4 4h10a4 4 0 0 0 4-4v-6a4 4 0 0 0-4-4h-1a3 3 0 0 0-3-3h-2ZM5 16v-3h5v.75c0 .69.56 1.25 1.25 1.25h1.5c.69 0 1.25-.56 1.25-1.25V13h5v3a2 2 0 0 1-2 2H7a2 2 0 0 1-2-2Zm0-5v-1a2 2 0 0 1 2-2h10a2 2 0 0 1 2 2v1H5Zm9-5h-4a1 1 0 0 1 1-1h2a1 1 0 0 1 1 1Z"/></symbol>

<symbol id="push-pin" viewBox="0 0 24 24"><path d="M6.12 5.743A2 2 0 0 1 7.977 3h8.046a2 2 0 0 1 1.857 2.743l-1.184 2.96a2.733 2.733 0 0 0 .38 2.694l1.458 1.875c1.022 1.314.086 3.228-1.579 3.228H13V20a1 1 0 0 1-2 0v-3.5H7.045c-1.665 0-2.6-1.914-1.58-3.228l1.46-1.875a2.733 2.733 0 0 0 .38-2.693L6.12 5.743ZM9.5 9.719c0 1.053-.35 2.075-.997 2.906L7.045 14.5h9.91l-1.458-1.875a4.733 4.733 0 0 1-.659-4.664L16.023 5H7.977l1.184 2.961c.224.56.339 1.156.339 1.758Z"/></symbol>

<symbol id="question-circle-line" viewBox="0 0 24 24"><path d="M11 16a1 1 0 1 1 2 0 1 1 0 0 1-2 0Z"/><path d="M12 18a6 6 0 1 1 0-12 6 6 0 0 1 0 12Zm0 2a8 8 0 1 0 0-16 8 8 0 0 0 0 16Z"/><path d="M12 9.5a1 1 0 0 0-1 1 1 1 0 1 1-2 0 3 3 0 1 1 4 2.83v.17a1 1 0 1 1-2 0v-1a1 1 0 0 1 1-1 1 1 0 1 0 0-2Z"/></symbol>

<symbol id="question-circle" viewBox="0 0 24 24"><path d="M20 12a8 8 0 1 1-16 0 8 8 0 0 1 16 0Zm-9-2a1 1 0 1 1 1 1 1 1 0 0 0-1 1v1a1 1 0 1 0 2 0v-.17A3.001 3.001 0 1 0 9 10a1 1 0 1 0 2 0Zm1 5a1 1 0 1 0 0 2 1 1 0 0 0 0-2Z"/></symbol>

<symbol id="question" viewBox="0 0 24 24"><path d="M13.5 17.5a1.5 1.5 0 1 1-3 0 1.5 1.5 0 0 1 3 0ZM10.602 7.497C10.263 7.798 10 8.271 10 9a1 1 0 0 1-2 0c0-1.271.487-2.298 1.273-2.997C10.041 5.32 11.037 5 12 5c1.075 0 2.067.528 2.77 1.23C15.473 6.933 16 7.925 16 9c0 .934-.239 1.664-.642 2.257-.383.565-.881.948-1.258 1.23l-.075.057c-.373.28-.604.452-.775.667-.143.178-.25.396-.25.789a1 1 0 1 1-2 0c0-.857.268-1.514.688-2.039.341-.426.78-.753 1.107-.995l.105-.079c.373-.28.625-.49.804-.754.16-.235.296-.567.296-1.133 0-.425-.223-.933-.645-1.355C12.933 7.222 12.425 7 12 7c-.537 0-1.041.18-1.398.497Z"/></symbol>

<symbol id="quote" viewBox="0 0 24 24"><path d="M4 11a6 6 0 0 1 6-6 1 1 0 1 1 0 2 4 4 0 0 0-4 4v1h1.5A3.5 3.5 0 1 1 4 15.5V11Zm5 4.5A1.5 1.5 0 0 0 7.5 14H6v1.5a1.5 1.5 0 0 0 3 0ZM13 11a6 6 0 0 1 6-6 1 1 0 1 1 0 2 4 4 0 0 0-4 4v1h1.5a3.5 3.5 0 1 1-3.5 3.5V11Zm5 4.5a1.5 1.5 0 0 0-1.5-1.5H15v1.5a1.5 1.5 0 0 0 3 0Z"/></symbol>

<symbol id="reaction" viewBox="0 0 24 24"><path d="M12 6a6 6 0 1 0 6 6 1 1 0 1 1 2 0 8 8 0 1 1-8-8 1 1 0 1 1 0 2Z"/><path d="M10 9a1 1 0 0 1 1 1v1a1 1 0 1 1-2 0v-1a1 1 0 0 1 1-1ZM14 9a1 1 0 0 1 1 1v1a1 1 0 1 1-2 0v-1a1 1 0 0 1 1-1ZM8.72 13.375a1 1 0 0 1 1.405-.156 3.002 3.002 0 0 0 3.75 0 1 1 0 1 1 1.25 1.562 5.002 5.002 0 0 1-6.25 0 1 1 0 0 1-.156-1.406ZM18 2.5a1 1 0 0 1 1 1V5h1.5a1 1 0 1 1 0 2H19v1.5a1 1 0 1 1-2 0V7h-1.5a1 1 0 1 1 0-2H17V3.5a1 1 0 0 1 1-1Z"/></symbol>

<symbol id="recruiting" viewBox="0 0 24 24"><path d="M11 3a8 8 0 1 0 4.906 14.32l2.387 2.387a1 1 0 0 0 1.414-1.414l-2.387-2.387A8 8 0 0 0 11 3Zm4.746 11.67a6.242 6.242 0 0 0-2.317-1.65 3.5 3.5 0 1 0-4.858 0 6.241 6.241 0 0 0-2.317 1.651 6 6 0 1 1 9.493 0Zm-8.021 1.358c1.717-1.98 4.833-1.98 6.55 0A5.972 5.972 0 0 1 11 17a5.971 5.971 0 0 1-3.275-.972ZM11 9a1.5 1.5 0 1 1 0 3 1.5 1.5 0 0 1 0-3Z"/></symbol>

<symbol id="refresh" viewBox="0 0 24 24"><path d="M13.038 5.003a1 1 0 0 1-1.005.995 6.002 6.002 0 0 0-4.957 9.433l.892-.584a1 1 0 0 1 1.526 1.042l-.579 2.768a1 1 0 0 1-1.183.775l-2.769-.58a1 1 0 0 1-.342-1.815l.781-.511a8.037 8.037 0 0 1-.994-2.003 8.002 8.002 0 0 1 7.635-10.525 1 1 0 0 1 .995 1.005ZM19.17 8.45l.866-.567a1 1 0 0 0-.343-1.816l-2.769-.579a1 1 0 0 0-1.183.774l-.58 2.769a1 1 0 0 0 1.527 1.041l.791-.517a6.002 6.002 0 0 1-5.512 8.447 1 1 0 1 0-.01 2A8.002 8.002 0 0 0 19.17 8.45Z"/></symbol>

<symbol id="remove" viewBox="0 0 24 24"><path d="M4 12a1 1 0 0 1 1-1h14a1 1 0 1 1 0 2H5a1 1 0 0 1-1-1Z"/></symbol>

<symbol id="replace" viewBox="0 0 24 24"><path d="M16.383 3.076A1 1 0 0 1 17 4v1a4 4 0 0 1 4 4v1a1 1 0 1 1-2 0V9a2 2 0 0 0-2-2v1a1 1 0 0 1-1.707.707l-2-2a1 1 0 0 1 0-1.414l2-2a1 1 0 0 1 1.09-.217ZM7.617 20.924A1 1 0 0 1 7 20v-1a4 4 0 0 1-4-4v-1a1 1 0 1 1 2 0v1a2 2 0 0 0 2 2v-1a1 1 0 0 1 1.707-.707l2 2a1 1 0 0 1 0 1.414l-2 2a1 1 0 0 1-1.09.217ZM13 16a3 3 0 0 1 3-3h2a3 3 0 0 1 3 3v2a3 3 0 0 1-3 3h-2a3 3 0 0 1-3-3v-2Zm3-1a1 1 0 0 0-1 1v2a1 1 0 0 0 1 1h2a1 1 0 0 0 1-1v-2a1 1 0 0 0-1-1h-2ZM3 6a3 3 0 0 1 3-3h2a3 3 0 0 1 3 3v2a3 3 0 0 1-3 3H6a3 3 0 0 1-3-3V6Zm3-1a1 1 0 0 0-1 1v2a1 1 0 0 0 1 1h2a1 1 0 0 0 1-1V6a1 1 0 0 0-1-1H6Z"/></symbol>

<symbol id="reports" viewBox="0 0 24 24"><path d="M3 9a4 4 0 0 1 4-4h10a4 4 0 0 1 4 4v6a4 4 0 0 1-4 4H7a4 4 0 0 1-4-4V9Zm4-2a2 2 0 0 0-2 2v6a2 2 0 0 0 2 2h10a2 2 0 0 0 2-2V9a2 2 0 0 0-2-2H7Z"/><path d="M8 12a1 1 0 0 1 1 1v2a1 1 0 1 1-2 0v-2a1 1 0 0 1 1-1ZM12 8a1 1 0 0 1 1 1v6a1 1 0 1 1-2 0V9a1 1 0 0 1 1-1ZM16 10a1 1 0 0 1 1 1v4a1 1 0 1 1-2 0v-4a1 1 0 0 1 1-1Z"/></symbol>

<symbol id="rocket" viewBox="0 0 24 24"><path d="M14.324 7.006c-1.108.652-1.995 1.662-2.936 3.176l-.007.011c-.449.7-.852 1.646-1.213 2.561l1.08 1.08c.927-.361 1.888-.766 2.602-1.218.019-.011.038-.023.058-.033 1.641-.89 2.64-1.985 3.242-3.215.482-.983.732-2.097.817-3.337-1.586.1-2.727.437-3.643.975ZM10 15.414 8.586 14H5a1 1 0 0 1-.965-1.262L5 13l-.965-.262.001-.005.003-.009.009-.031a12.104 12.104 0 0 1 .154-.515c.106-.332.259-.786.45-1.268.19-.478.427-1.005.702-1.475.26-.445.618-.95 1.09-1.266l.001-.001c.547-.365 1.16-.446 1.682-.421.522.025 1.027.16 1.443.306.235.084.455.175.648.264.875-1.267 1.842-2.299 3.092-3.035C14.822 4.393 16.641 4 19 4a1 1 0 0 1 1 1c0 1.838-.261 3.63-1.054 5.248-.68 1.389-1.728 2.599-3.238 3.588.08.18.163.38.239.594.147.417.281.921.306 1.443.025.523-.056 1.135-.42 1.682l-.002.001c-.316.472-.821.83-1.266 1.09-.47.275-.997.511-1.475.701a19.076 19.076 0 0 1-1.783.605l-.031.01-.01.002h-.003L11 19l.263.965A1 1 0 0 1 10 19v-3.586Zm2 2.21c.114-.043.232-.088.35-.135.43-.17.855-.364 1.205-.57.375-.218.556-.389.613-.474.05-.077.1-.218.088-.476a3.18 3.18 0 0 0-.195-.872 5.48 5.48 0 0 0-.099-.258c-.647.322-1.339.606-1.962.848v1.936Zm-2.827-7.581a5.393 5.393 0 0 0-.27-.104 3.18 3.18 0 0 0-.872-.194c-.258-.013-.4.036-.476.087-.085.057-.256.238-.475.613-.205.35-.399.775-.569 1.204-.047.12-.092.237-.134.351h1.939a23.65 23.65 0 0 1 .857-1.957Z"/><path d="M3.673 17.44a2.668 2.668 0 1 1 2.886 2.887l-1.974.17a1 1 0 0 1-1.081-1.082l.169-1.974ZM6.332 17a.668.668 0 0 0-.666.611l-.068.791.79-.068A.669.669 0 0 0 6.333 17Z"/></symbol>

<symbol id="save" viewBox="0 0 24 24"><path d="M16 20H8a4 4 0 0 1-4-4V8a4 4 0 0 1 4-4h5.757a4 4 0 0 1 2.829 1.172l2.242 2.242A4 4 0 0 1 20 10.243V16a4 4 0 0 1-4 4ZM6 8v8a2 2 0 0 0 1 1.732V16a3 3 0 0 1 3-3h4a3 3 0 0 1 3 3v1.732A2 2 0 0 0 18 16v-5.757a2 2 0 0 0-.586-1.415L16 7.414V10a1 1 0 0 1-1 1H9a1 1 0 0 1-1-1V6a2 2 0 0 0-2 2Zm8-1.985A2 2 0 0 0 13.757 6H10v3h4V6.015ZM15 16a1 1 0 0 0-1-1h-4a1 1 0 0 0-1 1v2h6v-2Z"/></symbol>

<symbol id="search" viewBox="0 0 24 24"><path d="M11 3a8 8 0 1 0 4.906 14.32l2.387 2.387a1 1 0 0 0 1.414-1.414l-2.387-2.387A8 8 0 0 0 11 3Zm-6 8a6 6 0 1 1 12 0 6 6 0 0 1-12 0Z"/></symbol>

<symbol id="settings" viewBox="0 0 24 24"><path d="M9.455 4.187c1.175-1.882 3.915-1.882 5.09 0l.74 1.185a1 1 0 0 0 .813.47l1.396.048c2.217.076 3.587 2.449 2.545 4.407l-.656 1.233a1 1 0 0 0 0 .94l.656 1.233c1.042 1.958-.328 4.33-2.545 4.407l-1.396.049a1 1 0 0 0-.813.47l-.74 1.184c-1.175 1.882-3.915 1.882-5.09 0l-.74-1.185a1 1 0 0 0-.813-.47l-1.396-.048c-2.217-.076-3.587-2.449-2.545-4.407l.656-1.233a1 1 0 0 0 0-.94l-.656-1.233C2.92 8.339 4.29 5.967 6.506 5.89l1.396-.049a1 1 0 0 0 .813-.47l.74-1.184Zm3.393 1.06a1 1 0 0 0-1.696 0l-.74 1.184a3 3 0 0 1-2.44 1.41l-1.397.047a1 1 0 0 0-.848 1.47l.656 1.233a3 3 0 0 1 0 2.818l-.656 1.233a1 1 0 0 0 .848 1.47l1.396.048a3 3 0 0 1 2.44 1.409l.74 1.185a1 1 0 0 0 1.697 0l.74-1.185a3 3 0 0 1 2.44-1.41l1.397-.047a1 1 0 0 0 .848-1.47l-.656-1.233a3 3 0 0 1 0-2.818l.656-1.233a1 1 0 0 0-.848-1.47l-1.396-.048a3 3 0 0 1-2.44-1.409l-.74-1.185Z"/><path d="M12 10.5a1.5 1.5 0 1 0 0 3 1.5 1.5 0 0 0 0-3ZM8.5 12a3.5 3.5 0 1 1 7 0 3.5 3.5 0 0 1-7 0Z"/></symbol>

<symbol id="share" viewBox="0 0 24 24"><path d="M4 8a4 4 0 0 1 4-4h2a1 1 0 1 1 0 2H8a2 2 0 0 0-2 2v8a2 2 0 0 0 2 2h8a2 2 0 0 0 2-2v-2.5a1 1 0 1 1 2 0V16a4 4 0 0 1-4 4H8a4 4 0 0 1-4-4V8Z"/><path d="M16.293 3.293a1 1 0 0 1 1.414 0l3 3a1 1 0 0 1 0 1.414l-3 3a1 1 0 0 1-1.414-1.414L17.586 8H15a2 2 0 0 0-2 2v1.5a1 1 0 1 1-2 0V10a4 4 0 0 1 4-4h2.586l-1.293-1.293a1 1 0 0 1 0-1.414Z"/></symbol>

<symbol id="shift-check" viewBox="0 0 24 24"><path d="M7 7a2 2 0 0 0-2 2v6a2 2 0 0 0 2 2h3.5a1 1 0 1 1 0 2H7a4 4 0 0 1-4-4V9a4 4 0 0 1 4-4h10a4 4 0 0 1 4 4 1 1 0 1 1-2 0 2 2 0 0 0-2-2H7Z"/><path d="M16.707 14.793a1 1 0 0 0-1.414 1.414l1 1a1 1 0 0 0 1.414 0l2-2a1 1 0 0 0-1.414-1.414L17 15.086l-.293-.293Z"/><path fill-rule="evenodd" d="M12 15.5a5.5 5.5 0 1 1 11 0 5.5 5.5 0 0 1-11 0Zm5.5-3.5a3.5 3.5 0 1 0 0 7 3.5 3.5 0 0 0 0-7Z" clip-rule="evenodd"/><path d="M6 10a1 1 0 0 1 1-1h4a1 1 0 1 1 0 2H7a1 1 0 0 1-1-1ZM7 13a1 1 0 1 0 0 2h2a1 1 0 1 0 0-2H7Z"/></symbol>

<symbol id="shift-management" viewBox="0 0 24 24"><path d="M7 7a2 2 0 0 0-2 2v6a2 2 0 0 0 2 2h3.5a1 1 0 1 1 0 2H7a4 4 0 0 1-4-4V9a4 4 0 0 1 4-4h10a4 4 0 0 1 4 4 1 1 0 1 1-2 0 2 2 0 0 0-2-2H7Z"/><path d="M12 15.5a5.5 5.5 0 1 1 11 0 5.5 5.5 0 0 1-11 0Zm5.5-3.5a3.5 3.5 0 1 0 0 7 3.5 3.5 0 0 0 0-7Z"/><path d="M17.5 13a1 1 0 0 1 1 1v.965l1.055.703a1 1 0 0 1-1.11 1.664l-1.129-.753a1.833 1.833 0 0 1-.816-1.525V14a1 1 0 0 1 1-1ZM6 10a1 1 0 0 1 1-1h4a1 1 0 1 1 0 2H7a1 1 0 0 1-1-1ZM6 14a1 1 0 0 1 1-1h2a1 1 0 1 1 0 2H7a1 1 0 0 1-1-1Z"/></symbol>

<symbol id="show-sidebar" viewBox="0 0 24 24"><path d="M7 5a4 4 0 0 0-4 4v6a4 4 0 0 0 4 4h10a4 4 0 0 0 4-4V9a4 4 0 0 0-4-4H7Zm1 2v10H7a2 2 0 0 1-2-2V9a2 2 0 0 1 2-2h1Zm2 10V7h7a2 2 0 0 1 2 2v6a2 2 0 0 1-2 2h-7Z"/><path d="M13.881 9.381a.875.875 0 0 0 0 1.238l.507.506H12a.875.875 0 0 0 0 1.75h2.388l-.507.506a.875.875 0 1 0 1.238 1.238l2-2a.875.875 0 0 0 0-1.238l-2-2a.875.875 0 0 0-1.238 0Z"/></symbol>

<symbol id="sign" viewBox="0 0 24 24"><path d="M16.793 6.207a1.121 1.121 0 0 1 0 1.586l-8.764 8.764-1.85.265.264-1.85 8.764-8.765a1.121 1.121 0 0 1 1.586 0Zm1.414-1.414a3.121 3.121 0 0 0-4.414 0l-9 9a1 1 0 0 0-.283.566l-.5 3.5a1 1 0 0 0 1.131 1.13l3.5-.5a1 1 0 0 0 .566-.282l9-9a3.121 3.121 0 0 0 0-4.414ZM12 19a1 1 0 0 1 1-1h5a1 1 0 1 1 0 2h-5a1 1 0 0 1-1-1Z"/></symbol>

<symbol id="signature" viewBox="0 0 24 24"><path d="M17.106 5.553a1 1 0 0 1 1.341-.447L18 6l.447-.894h.002l.001.001.004.002.01.005.029.015.09.05a5.556 5.556 0 0 1 1.125.864C20.315 6.652 21 7.64 21 9v6a4 4 0 0 1-4 4H7a4 4 0 0 1-4-4V9a4 4 0 0 1 4-4h2a1 1 0 0 1 0 2H7a2 2 0 0 0-2 2v6a2 2 0 0 0 2 2h10a2 2 0 0 0 2-2V9c0-.641-.316-1.152-.707-1.543a3.562 3.562 0 0 0-.741-.563l-.004-.002.002.001.002.001-.004-.002a1 1 0 0 1-.442-1.34Z"/><path d="M15.537 3.156a1 1 0 0 1 .307 1.38l-3.5 5.5a1 1 0 0 1-1.688-1.073l3.5-5.5a1 1 0 0 1 1.38-.307ZM7 15a1 1 0 0 1 1-1h8a1 1 0 1 1 0 2H8a1 1 0 0 1-1-1Z"/></symbol>

<symbol id="social" viewBox="0 0 24 24"><path fill-rule="evenodd" d="M12 6a6 6 0 1 0 0 12 6 6 0 0 0 0-12Zm-8 6a8 8 0 1 1 16 0 8 8 0 0 1-16 0Z" clip-rule="evenodd"/><path fill-rule="evenodd" d="M10 9a1 1 0 0 1 1 1v1a1 1 0 1 1-2 0v-1a1 1 0 0 1 1-1ZM14 9a1 1 0 0 1 1 1v1a1 1 0 1 1-2 0v-1a1 1 0 0 1 1-1ZM8.72 13.375a1 1 0 0 1 1.405-.156 3.002 3.002 0 0 0 3.75 0 1 1 0 1 1 1.25 1.562 5.002 5.002 0 0 1-6.25 0 1 1 0 0 1-.156-1.406Z" clip-rule="evenodd"/></symbol>

<symbol id="space-control" viewBox="0 0 24 24"><path d="M10.039 2.956a4 4 0 0 1 3.922 0l5 2.812A4 4 0 0 1 21 9.255v5.49a4 4 0 0 1-2.039 3.487l-5 2.812a4 4 0 0 1-3.922 0l-5-2.812A4 4 0 0 1 3 14.746V9.255a4 4 0 0 1 2.039-3.487l5-2.812Zm2.941 1.743a2 2 0 0 0-1.96 0L6.09 7.471 12 10.848l5.91-3.377L12.98 4.7ZM5 9.255v5.49a2 2 0 0 0 1.02 1.744L11 19.29v-6.71L5.003 9.153A2.006 2.006 0 0 0 5 9.255Zm10 8.91v-3.099a1 1 0 0 1 .486-.857l1.257-.755a.5.5 0 0 1 .757.43v2.875l.48-.27A2 2 0 0 0 19 14.746V9.255c0-.034 0-.068-.003-.102L13 12.58v6.71l2-1.125Z"/></symbol>

<symbol id="spinner" viewBox="0 0 24 24"><path d="M12 6a6 6 0 1 0 6 6 1 1 0 1 1 2 0 8 8 0 1 1-8-8 1 1 0 1 1 0 2Z"/></symbol>

<symbol id="split" viewBox="0 0 24 24"><path d="M17.707 5.293a1 1 0 1 0-1.414 1.414l.293.293h-3.423A4 4 0 0 0 9.77 8.88l-.738 1.18a2 2 0 0 1-1.696.94H5a1 1 0 1 0 0 2h2.337a2 2 0 0 1 1.696.94l.738 1.18A4 4 0 0 0 13.163 17h3.423l-.293.293a1 1 0 0 0 1.414 1.414l2-2a1 1 0 0 0 0-1.414l-2-2a1 1 0 0 0-1.414 1.414l.293.293h-3.423a2 2 0 0 1-1.696-.94l-.738-1.18a3.999 3.999 0 0 0-.746-.88c.286-.252.538-.548.746-.88l.738-1.18A2 2 0 0 1 13.163 9h3.423l-.293.293a1 1 0 0 0 1.414 1.414l2-2a1 1 0 0 0 0-1.414l-2-2Z"/></symbol>

<symbol id="star-circle-line" viewBox="0 0 24 24"><path d="M12 6a6 6 0 1 0 0 12 6 6 0 0 0 0-12Zm-8 6a8 8 0 1 1 16 0 8 8 0 0 1-16 0Z"/><path d="M11.697 8.072a.678.678 0 0 1 .607 0 .713.713 0 0 1 .29.289c.04.068.081.154.118.233l.774 1.645 1.723.264c.082.013.175.027.252.046.076.02.234.065.36.204.138.153.199.358.174.557a.722.722 0 0 1-.168.365c-.05.062-.117.13-.177.19l-1.26 1.287.299 1.823c.014.086.03.18.036.26a.726.726 0 0 1-.07.395.686.686 0 0 1-.478.359.698.698 0 0 1-.414-.057c-.073-.032-.156-.078-.229-.118L12 14.968l-1.534.846c-.073.04-.156.086-.229.118a.698.698 0 0 1-.414.057.687.687 0 0 1-.478-.36.727.727 0 0 1-.07-.394c.006-.08.022-.174.036-.26l.298-1.823-1.26-1.287a3.053 3.053 0 0 1-.176-.19.722.722 0 0 1-.167-.365.7.7 0 0 1 .174-.557.704.704 0 0 1 .359-.204c.077-.02.17-.033.252-.046l1.723-.264.774-1.645c.037-.079.077-.165.117-.233a.713.713 0 0 1 .292-.29Z"/></symbol>

<symbol id="star-filled" viewBox="0 0 24 24"><path d="M11.393 4.144a1.356 1.356 0 0 1 1.214 0c.334.167.508.45.582.577.08.138.162.31.235.467l.014.028 1.535 3.262 3.414.524.031.004c.164.025.35.054.504.093.151.038.467.129.718.407.277.306.4.716.349 1.114a1.441 1.441 0 0 1-.336.73c-.1.124-.233.259-.352.38l-.022.023-2.497 2.551.59 3.615.006.03c.028.173.059.362.071.521.011.152.027.47-.138.789a1.373 1.373 0 0 1-.956.719 1.396 1.396 0 0 1-.83-.114 5.832 5.832 0 0 1-.457-.236l-.027-.015L12 17.936l-3.04 1.677-.028.015c-.147.081-.312.172-.458.236-.138.06-.452.187-.829.114a1.373 1.373 0 0 1-.956-.72 1.453 1.453 0 0 1-.138-.788c.012-.16.043-.348.071-.52l.005-.03.591-3.616-2.497-2.551-.022-.022a6.051 6.051 0 0 1-.352-.38c-.1-.122-.291-.374-.336-.731-.05-.398.072-.808.349-1.114.25-.278.566-.37.718-.407a5.7 5.7 0 0 1 .504-.093l.03-.004 3.415-.524 1.535-3.262.014-.028c.073-.157.154-.33.235-.467.074-.127.248-.41.582-.577Z"/></symbol>

<symbol id="star" viewBox="0 0 24 24"><path d="M11.393 4.144a1.356 1.356 0 0 1 1.214 0c.334.167.508.45.582.577.08.138.162.31.235.467l.014.028 1.535 3.262 3.414.524.031.004c.164.025.35.054.504.093.151.038.467.129.718.407.277.306.4.716.349 1.114a1.441 1.441 0 0 1-.336.73c-.1.124-.233.259-.352.38l-.022.023-2.497 2.551.59 3.615.006.03c.028.173.059.362.071.521.011.152.027.47-.138.789a1.373 1.373 0 0 1-.956.719 1.396 1.396 0 0 1-.83-.114 5.832 5.832 0 0 1-.457-.236l-.027-.015L12 17.936l-3.04 1.677-.028.015c-.147.081-.312.172-.458.236-.138.06-.452.187-.829.114a1.373 1.373 0 0 1-.956-.72 1.453 1.453 0 0 1-.138-.788c.012-.16.043-.348.071-.52l.005-.03.591-3.616-2.497-2.551a1.442 1.442 0 0 1-.71-1.133c-.05-.398.072-.808.349-1.114.25-.278.566-.37.718-.407a5.7 5.7 0 0 1 .504-.093l.03-.004 3.415-.524 1.535-3.262.014-.028c.073-.157.154-.33.235-.467.074-.127.248-.41.582-.577ZM12 6.858l-1.252 2.66-.008.018c-.033.073-.12.263-.26.422a1.372 1.372 0 0 1-.427.324c-.198.097-.412.127-.487.137l-.018.003-2.897.444 2.127 2.172.014.014c.056.056.203.204.303.392.083.155.135.324.155.496.024.207-.012.409-.026.49l-.003.02-.492 3.006 2.512-1.385.015-.01c.066-.037.255-.145.471-.189.18-.037.366-.037.546 0 .216.044.405.152.47.19l.016.009 2.511 1.385-.49-3.005-.004-.021c-.014-.081-.05-.283-.026-.49.02-.172.072-.34.155-.496.1-.189.247-.336.303-.392l.014-.014 2.127-2.172-2.897-.444-.018-.003a1.373 1.373 0 0 1-.913-.46 1.714 1.714 0 0 1-.26-.423l-.01-.018L12 6.858Z"/></symbol>

<symbol id="stop" viewBox="0 0 24 24"><path d="M4 8a4 4 0 0 1 4-4h8a4 4 0 0 1 4 4v8a4 4 0 0 1-4 4H8a4 4 0 0 1-4-4V8Z"/></symbol>

<symbol id="strikethrough" viewBox="0 0 24 24"><path d="M11.605 5a4 4 0 0 0-3.464 6H5a1 1 0 1 0 0 2h7.394a2 2 0 0 1 0 4h-1.313c-.514 0-.97-.329-1.132-.816a1 1 0 0 0-1.898.632A3.194 3.194 0 0 0 11.081 19h1.313a4 4 0 0 0 3.464-6H19a1 1 0 1 0 0-2h-7.395a2 2 0 1 1 0-4h1.314c.514 0 .97.329 1.132.816a1 1 0 0 0 1.898-.632A3.194 3.194 0 0 0 12.919 5h-1.314Z"/></symbol>

<symbol id="table" viewBox="0 0 24 24"><path d="M8 4a4 4 0 0 0-4 4v8a4 4 0 0 0 4 4h8a4 4 0 0 0 4-4V8a4 4 0 0 0-4-4H8ZM6 8h2.5v2H6V8Zm4.5 0h3v2h-3V8Zm5 0H18v2h-2.5V8Zm0 4H18v2h-2.5v-2Zm-5 0h3v2h-3v-2ZM6 12h2.5v2H6v-2Zm9.5 4H18a2 2 0 0 1-2 2h-.5v-2Zm-2 0v2h-3v-2h3Zm-5 0v2H8a2 2 0 0 1-2-2h2.5Z"/></symbol>

<symbol id="target" viewBox="0 0 24 24"><path d="M18.16 2.013a1 1 0 0 1 .734.54l.851 1.702 1.702.85a1 1 0 0 1 .26 1.602l-3 3A1 1 0 0 1 18 10h-2.586l-2.707 2.707a1 1 0 0 1-1.414-1.414L14 8.586V6a1 1 0 0 1 .293-.707l3-3a1 1 0 0 1 .867-.28ZM16 8h1.586l1.726-1.726-.76-.38a1 1 0 0 1-.446-.447l-.38-.759L16 6.414V8Z"/><path d="M12 6a6 6 0 1 0 6 6 1 1 0 1 1 2 0 8 8 0 1 1-8-8 1 1 0 1 1 0 2Z"/><path d="M12 9.5a2.5 2.5 0 1 0 2.5 2.5 1 1 0 1 1 2 0A4.5 4.5 0 1 1 12 7.5a1 1 0 1 1 0 2Z"/></symbol>

<symbol id="text-size" viewBox="0 0 24 24"><path d="M3 6a1 1 0 0 1 1-1h10a1 1 0 1 1 0 2h-4v11a1 1 0 1 1-2 0V7H4a1 1 0 0 1-1-1Zm9 6a1 1 0 0 1 1-1h6a1 1 0 1 1 0 2h-2v5a1 1 0 1 1-2 0v-5h-2a1 1 0 0 1-1-1Z"/></symbol>

<symbol id="text" viewBox="0 0 24 24"><path d="M4 10.5a3 3 0 0 1 6 0v5a1 1 0 1 1-2 0v-2H6v2a1 1 0 1 1-2 0v-5Zm2 1h2v-1a1 1 0 0 0-2 0v1ZM14 8.5a1 1 0 0 1 1-1h4a1 1 0 0 1 .868 1.496L16.723 14.5H19a1 1 0 1 1 0 2h-4a1 1 0 0 1-.868-1.496L17.277 9.5H15a1 1 0 0 1-1-1Zm-3 4a1 1 0 0 1 1-1h1a1 1 0 1 1 0 2h-1a1 1 0 0 1-1-1Z"/></symbol>

<symbol id="thumbs-down" viewBox="0 0 24 24"><path d="M13.712 18.012A2.315 2.315 0 0 1 9.5 16.685V15H6.062a3 3 0 0 1-2.91-3.728l.81-3.242A4 4 0 0 1 7.842 5H18a3 3 0 0 1 3 3v3a3 3 0 0 1-3 3h-1.48l-2.808 4.012ZM17 12h1a1 1 0 0 0 1-1V8a1 1 0 0 0-1-1h-1v5Zm-2-5H7.842a2 2 0 0 0-1.94 1.515l-.81 3.242A1 1 0 0 0 6.061 13H10.5a1 1 0 0 1 1 1v2.685a.315.315 0 0 0 .573.18L15 12.686V7Z"/></symbol>

<symbol id="thumbs-up" viewBox="0 0 24 24"><path d="M10.288 5.988A2.315 2.315 0 0 1 14.5 7.315V9h3.438a3 3 0 0 1 2.91 3.728l-.81 3.242a4 4 0 0 1-3.88 3.03H6a3 3 0 0 1-3-3v-3a3 3 0 0 1 3-3h1.48l2.808-4.012ZM7 12H6a1 1 0 0 0-1 1v3a1 1 0 0 0 1 1h1v-5Zm2 5h7.158a2 2 0 0 0 1.94-1.515l.81-3.242a1 1 0 0 0-.97-1.243H13.5a1 1 0 0 1-1-1V7.315a.315.315 0 0 0-.573-.18L9 11.314V17Z"/></symbol>

<symbol id="thunder" viewBox="0 0 24 24"><g clip-path="url(#a)"><path d="M14 5a1 1 0 0 0-1.817-.577l-6 8.5A1 1 0 0 0 7 14.5h3V19a1 1 0 0 0 1.78.625l6-7.5A1 1 0 0 0 17 10.5h-3V5Zm-3 7.5H8.93L12 8.15v3.35a1 1 0 0 0 1 1h1.92L12 16.15V13.5a1 1 0 0 0-1-1Z"/></g><defs><clipPath id="a"><path d="M0 0h24v24H0z"/></clipPath></defs></symbol>

<symbol id="ticket" viewBox="0 0 24 24"><path d="M13.328 20.397a2 2 0 0 1-2.68-.006l-1.167-1.058-1.18 1.011C7.005 21.456 5 20.534 5 18.826V7a4 4 0 0 1 4-4h6a4 4 0 0 1 4 4v11.826c0 1.709-2.004 2.63-3.302 1.518l-1.183-1.014-1.187 1.067Zm-1.336-1.488 1.187-1.066a2 2 0 0 1 2.638-.031L17 18.826V7a2 2 0 0 0-2-2H9a2 2 0 0 0-2 2v11.826l1.18-1.012a2 2 0 0 1 2.645.037l1.167 1.058Z"/><path d="M8 8a1 1 0 0 1 1-1h6a1 1 0 1 1 0 2H9a1 1 0 0 1-1-1ZM8 12a1 1 0 0 1 1-1h4a1 1 0 1 1 0 2H9a1 1 0 0 1-1-1Z"/></symbol>

<symbol id="time-off" viewBox="0 0 24 24"><path d="M8.968 3.125c-1.112-.007-2.32.419-2.836 1.376-.21.39-.141.839.105 1.146l.847 1.06C4.458 7.308 3.037 9.136 3 10.9a1.044 1.044 0 0 0 1.045 1.065h1.124a4.772 4.772 0 0 0-.138 3.29c.195.613.891.902 1.462.616l2.884-1.442L9.08 18H8a1 1 0 1 0 0 2h8a1 1 0 0 0 0-2h-1.08l-.297-3.57 2.884 1.441a1.045 1.045 0 0 0 1.462-.617 4.772 4.772 0 0 0-.138-3.289h1.124c.562 0 1.057-.457 1.045-1.065-.037-1.763-1.458-3.59-4.084-4.194l.847-1.059c.246-.307.314-.756.105-1.146-.515-.957-1.724-1.383-2.836-1.376-.966.007-2.038.322-3.032 1.057-.994-.735-2.066-1.05-3.032-1.057Zm3.56 10.257L12.913 18h-1.826l.385-4.618.528-.264.528.264Zm-.08-2.276a.995.995 0 0 0-.895 0L6.825 13.47c.077-.642.376-1.25.837-1.75.601-.652.167-1.755-.768-1.755H5.36c.493-.712 1.556-1.444 3.555-1.465.812-.008 1.389-.971.807-1.698l-1.296-1.62c.152-.036.33-.058.528-.057.666.005 1.53.273 2.339 1.082a.997.997 0 0 0 1.414 0c.81-.809 1.673-1.077 2.339-1.082.199-.001.376.02.528.057l-1.296 1.62c-.582.727-.005 1.69.807 1.698 2 .021 3.062.753 3.555 1.465h-1.534c-.935 0-1.37 1.103-.768 1.755.461.5.76 1.108.837 1.75l-4.728-2.364Z"/></symbol>

<symbol id="timer" viewBox="0 0 24 24"><path d="M12 9.33a1 1 0 0 1 1 1v2.078l2.486 1.381a1 1 0 0 1-.972 1.749L11 13.585V10.33a1 1 0 0 1 1-1Z"/><path d="M10 2a1 1 0 1 0 0 2h1v1.062A8.001 8.001 0 0 0 12 21a8 8 0 0 0 1-15.938V4h1a1 1 0 1 0 0-2h-4ZM6 13a6 6 0 1 1 12 0 6 6 0 0 1-12 0ZM18.383 5.293a1 1 0 0 1 1.414 0l1.414 1.414a1 1 0 0 1-1.414 1.414l-1.414-1.414a1 1 0 0 1 0-1.414Z"/><path d="M5.617 5.293a1 1 0 0 0-1.414 0L2.789 6.707a1 1 0 0 0 1.414 1.414l1.414-1.414a1 1 0 0 0 0-1.414Z"/></symbol>

<symbol id="today" viewBox="0 0 24 24"><path d="M12 12a2 2 0 1 0 0 4 2 2 0 0 0 0-4Z"/><path d="M9 2a1 1 0 0 1 1 1v1h4V3a1 1 0 1 1 2 0v1a4 4 0 0 1 4 4v8a4 4 0 0 1-4 4H8a4 4 0 0 1-4-4V8a4 4 0 0 1 4-4V3a1 1 0 0 1 1-1ZM8 6a2 2 0 0 0-2 2v1h12V8a2 2 0 0 0-2-2v1a1 1 0 1 1-2 0V6h-4v1a1 1 0 0 1-2 0V6Zm10 5H6v5a2 2 0 0 0 2 2h8a2 2 0 0 0 2-2v-5Z"/></symbol>

<symbol id="touch-id" viewBox="0 0 24 24"><path fill-rule="evenodd" d="M12 5a6.998 6.998 0 0 0-6.126 3.61 1 1 0 0 1-1.748-.971A8.998 8.998 0 0 1 12 3c1.58 0 3.068.408 4.361 1.126a1 1 0 1 1-.97 1.748A6.964 6.964 0 0 0 12 5Zm6.429 2.134a1 1 0 0 1 1.366.365A8.963 8.963 0 0 1 21 12v4a1 1 0 1 1-2 0v-4c0-1.277-.34-2.47-.936-3.5a1 1 0 0 1 .365-1.366ZM4 11a1 1 0 0 1 1 1v4a1 1 0 1 1-2 0v-4a1 1 0 0 1 1-1Z" clip-rule="evenodd"/><path fill-rule="evenodd" d="M7 12a5 5 0 0 1 9.842-1.25 1 1 0 1 1-1.936.5A2.999 2.999 0 0 0 12 9a3 3 0 0 0-3.001 3v1a1 1 0 1 1-2 0v-1Zm9 2a1 1 0 0 1 1 1v4a1 1 0 1 1-2 0v-4a1 1 0 0 1 1-1Zm-8 2a1 1 0 0 1 1 1v2a1 1 0 1 1-2 0v-2a1 1 0 0 1 1-1Z" clip-rule="evenodd"/><path fill-rule="evenodd" d="M12 11a1 1 0 0 1 1 1v8a1 1 0 1 1-2 0v-8a1 1 0 0 1 1-1Z" clip-rule="evenodd"/></symbol>

<symbol id="trainings" viewBox="0 0 24 24"><path d="M12 6.316c-1.409-.848-2.795-1.318-4.188-1.318-1.592 0-3.055.616-4.437 1.721A1 1 0 0 0 3 7.5v9.42c0 .86.522 1.494 1.123 1.817.59.316 1.348.393 2.035.105 1.524-.64 3.167-.427 5.286.99a1 1 0 0 0 1.112 0c2.119-1.417 3.762-1.63 5.286-.99a2.386 2.386 0 0 0 2.035-.105c.601-.323 1.123-.957 1.123-1.818V7.5a1 1 0 0 0-.375-.78c-1.382-1.106-2.845-1.721-4.437-1.722-1.393 0-2.78.47-4.188 1.318Zm-1 1.732v9.23c-1.913-.906-3.77-1.055-5.616-.28a.388.388 0 0 1-.315-.023A.194.194 0 0 1 5 16.92V7.997c.977-.693 1.896-.998 2.813-.999.936 0 1.979.317 3.187 1.05Zm2 9.23v-9.23c1.208-.733 2.25-1.05 3.187-1.05.917 0 1.836.306 2.813 1v8.921c0 .004.001-.001 0 0a.192.192 0 0 1-.069.056.388.388 0 0 1-.315.023c-1.846-.775-3.703-.626-5.616.28Z"/></symbol>

<symbol id="underline" viewBox="0 0 24 24"><path d="M8 5a1 1 0 0 1 1 1v5a3 3 0 1 0 6 0V6a1 1 0 1 1 2 0v5a5 5 0 0 1-10 0V6a1 1 0 0 1 1-1ZM6 18a1 1 0 0 1 1-1h10a1 1 0 1 1 0 2H7a1 1 0 0 1-1-1Z"/></symbol>

<symbol id="upgrade-plan" viewBox="0 0 24 24"><path d="M5.73 6.564a.602.602 0 0 1 .54 0 .62.62 0 0 1 .255.248c.028.048.055.106.075.149l.395.838.873.134c.044.007.108.016.162.03a.615.615 0 0 1 .312.18.615.615 0 0 1 .153.49.625.625 0 0 1-.142.317c-.036.043-.08.089-.113.122l-.645.659.153.936c.008.047.018.11.023.165a.607.607 0 0 1-.485.657.613.613 0 0 1-.364-.046 1.819 1.819 0 0 1-.147-.075L6 10.941l-.775.427c-.04.022-.095.053-.147.075a.613.613 0 0 1-.363.047.607.607 0 0 1-.486-.658c.005-.055.015-.118.023-.165l.153-.936-.645-.66a1.902 1.902 0 0 1-.113-.121.625.625 0 0 1-.142-.318.615.615 0 0 1 .153-.488.615.615 0 0 1 .312-.18c.054-.015.118-.024.162-.03l.873-.135.395-.838c.02-.043.047-.1.075-.149a.62.62 0 0 1 .256-.248ZM17.73 6.564a.602.602 0 0 1 .54 0 .62.62 0 0 1 .255.248c.028.048.055.106.075.149l.395.838.873.134c.044.007.108.016.162.03a.616.616 0 0 1 .312.18.615.615 0 0 1 .153.49.625.625 0 0 1-.142.317c-.036.043-.08.089-.113.122l-.645.659.153.936c.008.047.018.11.022.165a.607.607 0 0 1-.485.657.612.612 0 0 1-.363-.046 1.793 1.793 0 0 1-.147-.075L18 10.941l-.775.427c-.04.022-.096.053-.147.075a.613.613 0 0 1-.363.047.606.606 0 0 1-.486-.658c.005-.055.015-.118.023-.165l.153-.936-.645-.66a1.88 1.88 0 0 1-.113-.121.626.626 0 0 1-.142-.318.615.615 0 0 1 .153-.488.616.616 0 0 1 .312-.18c.054-.015.118-.024.162-.03l.873-.135.395-.838c.02-.043.047-.1.075-.149a.62.62 0 0 1 .256-.248ZM11.73 3.564a.602.602 0 0 1 .54 0 .62.62 0 0 1 .255.248c.028.048.055.106.075.149l.395.838.873.134c.044.007.107.016.162.03a.616.616 0 0 1 .312.18.615.615 0 0 1 .153.49.625.625 0 0 1-.142.317c-.036.043-.08.089-.113.122l-.645.659.153.936c.008.047.018.11.023.165a.607.607 0 0 1-.485.657.612.612 0 0 1-.364-.046 1.807 1.807 0 0 1-.147-.075L12 7.941l-.775.427c-.04.022-.095.053-.147.075a.612.612 0 0 1-.363.047.606.606 0 0 1-.486-.658c.005-.055.015-.118.023-.165l.153-.936-.645-.66a1.902 1.902 0 0 1-.113-.121.625.625 0 0 1-.142-.318.615.615 0 0 1 .153-.488.615.615 0 0 1 .312-.18c.054-.015.118-.024.162-.03l.873-.135.395-.838c.02-.043.047-.1.075-.149a.62.62 0 0 1 .256-.248ZM12 10a1 1 0 0 1 1 1v8a1 1 0 1 1-2 0v-8a1 1 0 0 1 1-1ZM5.051 13.684a1 1 0 0 1 1.265-.633C7.695 13.511 10 15.54 10 19a1 1 0 1 1-2 0c0-2.539-1.695-3.844-2.316-4.051a1 1 0 0 1-.633-1.265ZM18.949 13.684a1 1 0 0 0-1.265-.633C16.305 13.511 14 15.54 14 19a1 1 0 1 0 2 0c0-2.539 1.695-3.844 2.316-4.051a1 1 0 0 0 .633-1.265Z"/></symbol>

<symbol id="upload" viewBox="0 0 24 24"><path d="M11.293 4.293a1 1 0 0 1 1.414 0l3 3a1 1 0 0 1-1.414 1.414L13 7.414V14a1 1 0 1 1-2 0V7.414L9.707 8.707a1 1 0 0 1-1.414-1.414l3-3ZM5 14a1 1 0 0 1 1 1v1a2 2 0 0 0 2 2h8a2 2 0 0 0 2-2v-1a1 1 0 1 1 2 0v1a4 4 0 0 1-4 4H8a4 4 0 0 1-4-4v-1a1 1 0 0 1 1-1Z"/></symbol>

<symbol id="user" viewBox="0 0 24 24"><path d="M4 8a4 4 0 0 1 4-4h8a4 4 0 0 1 4 4v8a4 4 0 0 1-4 4H8a4 4 0 0 1-4-4V8Zm4-2a2 2 0 0 0-2 2v8a2 2 0 0 0 1.143 1.808 5.01 5.01 0 0 1 2.896-3.409 3.5 3.5 0 1 1 3.922 0 5.01 5.01 0 0 1 2.896 3.409A2 2 0 0 0 18 16V8a2 2 0 0 0-2-2H8Zm6.83 12a3.001 3.001 0 0 0-5.66 0h5.66ZM12 10a1.5 1.5 0 1 0 0 3 1.5 1.5 0 0 0 0-3Z"/></symbol>

<symbol id="users" viewBox="0 0 24 24"><path d="M20 8a1 1 0 0 1 1 1v1.444c0 1.643 0 2.937-.085 3.978-.087 1.063-.267 1.95-.678 2.756a7 7 0 0 1-3.06 3.059c-.805.41-1.692.591-2.755.678-1.041.085-2.335.085-3.978.085H9a1 1 0 1 1 0-2h1.4c1.697 0 2.909 0 3.86-.078.938-.077 1.533-.224 2.01-.467a5 5 0 0 0 2.185-2.185c.243-.477.39-1.072.467-2.01.077-.951.078-2.163.078-3.86V9a1 1 0 0 1 1-1Z"/><path d="M4 8a4 4 0 0 1 4-4h6a4 4 0 0 1 4 4v6a4 4 0 0 1-4 4H8a4 4 0 0 1-4-4V8Zm4-2a2 2 0 0 0-2 2v6c0 .646.307 1.221.782 1.587.428-1.018 1.303-1.802 2.363-2.229a3 3 0 1 1 3.71 0c1.06.427 1.935 1.211 2.363 2.229.475-.366.782-.94.782-1.587V8a2 2 0 0 0-2-2H8Zm5.155 10c-.41-.567-1.165-1-2.155-1-.99 0-1.746.433-2.155 1h4.31ZM11 10a1 1 0 1 0 0 2 1 1 0 0 0 0-2Z"/></symbol>

<symbol id="validation" viewBox="0 0 24 24"><path d="M11 3a8 8 0 1 0 4.906 14.32l2.387 2.387a1 1 0 0 0 1.414-1.414l-2.387-2.387A8 8 0 0 0 11 3Zm-6 8a6 6 0 1 1 12 0 6 6 0 0 1-12 0Z"/><path d="M14.1 8.2a1 1 0 0 1 .2 1.4l-3 4a1 1 0 0 1-1.507.107l-2-2a1 1 0 1 1 1.414-1.414l1.185 1.185L12.7 8.4a1 1 0 0 1 1.4-.2Z"/></symbol>

<symbol id="verified" viewBox="0 0 24 24"><path d="M10.721 3.568a1.75 1.75 0 0 1 2.557 0l.992 1.06c.345.37.832.572 1.337.555l1.451-.05a1.75 1.75 0 0 1 1.808 1.809l-.049 1.45a1.75 1.75 0 0 0 .554 1.338l1.06.992a1.75 1.75 0 0 1 0 2.557l-1.06.99a1.75 1.75 0 0 0-.554 1.338l.05 1.451a1.75 1.75 0 0 1-1.809 1.808l-1.45-.049a1.75 1.75 0 0 0-1.338.555l-.992 1.06a1.75 1.75 0 0 1-2.557 0l-.991-1.06a1.75 1.75 0 0 0-1.338-.555l-1.45.05a1.75 1.75 0 0 1-1.809-1.809l.05-1.45a1.75 1.75 0 0 0-.555-1.338l-1.06-.991a1.75 1.75 0 0 1 0-2.557l1.06-.992a1.75 1.75 0 0 0 .554-1.337l-.049-1.451a1.75 1.75 0 0 1 1.808-1.808l1.451.049a1.75 1.75 0 0 0 1.338-.554l.991-1.061ZM15.3 10.6a1 1 0 0 0-1.6-1.2l-2.308 3.078-1.185-1.185a1 1 0 1 0-1.414 1.414l2 2A1 1 0 0 0 12.3 14.6l3-4Z"/></symbol>

<symbol id="video" viewBox="0 0 24 24"><path d="M3 9a4 4 0 0 1 4-4h10a4 4 0 0 1 4 4v6a4 4 0 0 1-4 4H7a4 4 0 0 1-4-4V9Zm4-2a2 2 0 0 0-2 2v6a2 2 0 0 0 2 2h10a2 2 0 0 0 2-2V9a2 2 0 0 0-2-2H7Z"/><path d="M9.507 8.13a1 1 0 0 1 1.008.013l5 3a1 1 0 0 1 0 1.714l-5 3A1 1 0 0 1 9 15V9a1 1 0 0 1 .507-.87ZM11 10.766v2.468L13.056 12 11 10.766Z"/></symbol>

<symbol id="whatsapp-chat" viewBox="0 0 24 24"><path d="M12 5a7 7 0 0 0-6.297 10.062l.16.328-.824 3.278 3.237-.727.333.185A7 7 0 1 0 12 5Zm-9 7a9 9 0 1 1 4.984 8.056l-2.507.564a2 2 0 0 1-2.378-2.44l.65-2.582A8.972 8.972 0 0 1 3 12Z"/><path d="M8.941 8h1.544a.5.5 0 0 1 .464.314l.658 1.644a.5.5 0 0 1-.207.614l-.812.487a5.177 5.177 0 0 0 2.353 2.353l.487-.812a.5.5 0 0 1 .614-.207l1.644.658a.5.5 0 0 1 .314.464v1.544a.941.941 0 0 1-.941.941A7.53 7.53 0 0 1 8 8.941.941.941 0 0 1 8.941 8Z"/></symbol>

<symbol id="zoom-in" viewBox="0 0 24 24"><path d="M11 3a8 8 0 1 0 4.906 14.32l2.387 2.387a1 1 0 0 0 1.414-1.414l-2.387-2.387A8 8 0 0 0 11 3Zm-6 8a6 6 0 1 1 12 0 6 6 0 0 1-12 0Z"/><path d="M10 14a1 1 0 1 0 2 0v-2h2a1 1 0 1 0 0-2h-2V8a1 1 0 1 0-2 0v2H8a1 1 0 1 0 0 2h2v2Z"/></symbol>

<symbol id="zoom-out" viewBox="0 0 24 24"><path d="M11 3a8 8 0 1 0 4.906 14.32l2.387 2.387a1 1 0 0 0 1.414-1.414l-2.387-2.387A8 8 0 0 0 11 3Zm-6 8a6 6 0 1 1 12 0 6 6 0 0 1-12 0Z"/><path d="M7 11a1 1 0 0 1 1-1h6a1 1 0 1 1 0 2H8a1 1 0 0 1-1-1Z"/></symbol>
</svg>
