<svg xmlns="http://www.w3.org/2000/svg" xmlns:xlink="http://www.w3.org/1999/xlink">
  <symbol id="add" viewBox="0 0 16 16"><path d="M8 3a1 1 0 0 1 1 1v3h3a1 1 0 1 1 0 2H9v3a1 1 0 1 1-2 0V9H4a1 1 0 0 1 0-2h3V4a1 1 0 0 1 1-1Z"/></symbol>

<symbol id="ai" viewBox="0 0 16 16"><path d="M6 4a1 1 0 0 1 1 1c0 1.057.317 1.94.826 2.542C8.32 8.126 9.04 8.5 10 8.5a1 1 0 1 1 0 2c-.96 0-1.68.374-2.174.958C7.317 12.06 7 12.943 7 14a1 1 0 1 1-2 0c0-1.057-.317-1.94-.826-2.542C3.68 10.874 2.96 10.5 2 10.5a1 1 0 1 1 0-2c.96 0 1.68-.374 2.174-.958C4.683 6.94 5 6.057 5 5a1 1 0 0 1 1-1Zm0 4.442A4.715 4.715 0 0 1 5.01 9.5 4.712 4.712 0 0 1 6 10.558c.093-.135.193-.266.3-.391.208-.247.438-.47.69-.667A4.715 4.715 0 0 1 6 8.442ZM12 1a1 1 0 0 1 1 1c0 .175.098.433.332.668.235.235.493.332.668.332a1 1 0 1 1 0 2c-.175 0-.433.097-.668.332-.235.235-.332.493-.332.668a1 1 0 1 1-2 0c0-.175-.098-.433-.332-.668C10.433 5.097 10.175 5 10 5a1 1 0 1 1 0-2c.175 0 .433-.097.668-.332.235-.235.332-.493.332-.668a1 1 0 0 1 1-1Z"/></symbol>

<symbol id="alert-circle" viewBox="0 0 16 16"><path d="M8 14A6 6 0 1 0 8 2a6 6 0 0 0 0 12ZM7 5a1 1 0 0 1 2 0v3a1 1 0 0 1-2 0V5Zm0 6a1 1 0 1 1 2 0 1 1 0 0 1-2 0Z"/></symbol>

<symbol id="alert" viewBox="0 0 16 16"><path d="M9 4.5a1 1 0 0 0-2 0v4a1 1 0 0 0 2 0v-4ZM8 10.5a1 1 0 1 0 0 2 1 1 0 0 0 0-2Z"/></symbol>

<symbol id="arrow-bottom-right" viewBox="0 0 16 16"><g clip-path="url(#a)"><path d="M12 5a1 1 0 0 0-1 1v3.586L4.707 3.293a1 1 0 0 0-1.414 1.414L9.586 11H6a1 1 0 1 0 0 2h6a1 1 0 0 0 1-1V6a1 1 0 0 0-1-1Z"/></g><defs><clipPath id="a"><path d="M0 0h16v16H0z"/></clipPath></defs></symbol>

<symbol id="arrow-down" viewBox="0 0 16 16"><path d="M3.293 7.793a1 1 0 0 0 0 1.414l4 4a1 1 0 0 0 1.414 0l4-4a1 1 0 0 0-1.414-1.414L9 10.086V3a1 1 0 0 0-2 0v7.086L4.707 7.793a1 1 0 0 0-1.414 0Z"/></symbol>

<symbol id="arrow-left" viewBox="0 0 16 16"><path d="M8.207 3.293a1 1 0 0 0-1.414 0l-4 4a1 1 0 0 0 0 1.414l4 4a1 1 0 0 0 1.414-1.414L5.914 9H13a1 1 0 1 0 0-2H5.914l2.293-2.293a1 1 0 0 0 0-1.414Z"/></symbol>

<symbol id="arrow-right" viewBox="0 0 16 16"><path d="M8.341 3.247a1 1 0 0 1 1.412.095l3.5 4a1 1 0 0 1 0 1.317l-3.5 4a1 1 0 1 1-1.506-1.318L10.297 9H3a1 1 0 1 1 0-2h7.296L8.247 4.659a1 1 0 0 1 .095-1.412Z"/></symbol>

<symbol id="arrow-top-right" viewBox="0 0 16 16"><path d="M5 4a1 1 0 0 1 1-1h6a1 1 0 0 1 1 1v6a1 1 0 1 1-2 0V6.414l-6.293 6.293a1 1 0 0 1-1.414-1.414L9.586 5H6a1 1 0 0 1-1-1Z"/></symbol>

<symbol id="arrow-up" viewBox="0 0 16 16"><path d="M3.293 8.207a1 1 0 0 1 0-1.414l4-4a1 1 0 0 1 1.414 0l4 4a1 1 0 0 1-1.414 1.414L9 5.914V13a1 1 0 1 1-2 0V5.914L4.707 8.207a1 1 0 0 1-1.414 0Z"/></symbol>

<symbol id="briefcase" viewBox="0 0 16 16"><path d="M7 1a2 2 0 0 0-2 2v1H4a3 3 0 0 0-3 3v4a3 3 0 0 0 3 3h8a3 3 0 0 0 3-3V7a3 3 0 0 0-3-3h-1V3a2 2 0 0 0-2-2H7Zm3 5v6H6V6h4Zm2 6V6a1 1 0 0 1 1 1v4a1 1 0 0 1-1 1ZM3 7a1 1 0 0 1 1-1v6a1 1 0 0 1-1-1V7Zm6-3H7V3h2v1Z"/></symbol>

<symbol id="calendar" viewBox="0 0 16 16"><path d="M6 1a1 1 0 0 1 1 1h2a1 1 0 0 1 2 0 3 3 0 0 1 3 3v6a3 3 0 0 1-3 3H5a3 3 0 0 1-3-3V5a3 3 0 0 1 3-3 1 1 0 0 1 1-1ZM5 4a1 1 0 0 0-1 1v1h8V5a1 1 0 0 0-1-1 1 1 0 1 1-2 0H7a1 1 0 0 1-2 0Zm7 4H4v3a1 1 0 0 0 1 1h6a1 1 0 0 0 1-1V8Z"/></symbol>

<symbol id="caret-double" viewBox="0 0 16 16"><path d="M7.293 3.293a1 1 0 0 1 1.414 0l2 2A1 1 0 0 1 10 7H6a1 1 0 0 1-.707-1.707l2-2ZM7.293 12.707a1 1 0 0 0 1.414 0l2-2A1 1 0 0 0 10 9H6a1 1 0 0 0-.707 1.707l2 2Z"/></symbol>

<symbol id="caret-down" viewBox="0 0 16 16"><path d="M6.586 11a2 2 0 0 0 2.828 0l3.293-3.293A1 1 0 0 0 12 6H4a1 1 0 0 0-.707 1.707L6.586 11Z"/></symbol>

<symbol id="caret-left" viewBox="0 0 16 16"><path d="M5 9.414a2 2 0 0 1 0-2.828l3.293-3.293A1 1 0 0 1 10 4v8a1 1 0 0 1-1.707.707L5 9.414Z"/></symbol>

<symbol id="caret-right" viewBox="0 0 16 16"><path d="M11 9.414a2 2 0 0 0 0-2.828L7.707 3.293A1 1 0 0 0 6 4v8a1 1 0 0 0 1.707.707L11 9.414Z"/></symbol>

<symbol id="caret-up" viewBox="0 0 16 16"><path d="M6.586 5a2 2 0 0 1 2.828 0l3.293 3.293A1 1 0 0 1 12 10H4a1 1 0 0 1-.707-1.707L6.586 5Z"/></symbol>

<symbol id="check" viewBox="0 0 16 16"><path d="M12.555 3.168a1 1 0 0 1 .277 1.387l-5.333 8a1 1 0 0 1-1.54.152L3.294 10.04a1 1 0 1 1 1.414-1.414l1.804 1.804 4.657-6.985a1 1 0 0 1 1.387-.277Z"/></symbol>

<symbol id="chevron-down" viewBox="0 0 16 16"><path d="M13.207 5.293a1 1 0 0 1 0 1.414L9.414 10.5a2 2 0 0 1-2.828 0L2.793 6.707a1 1 0 0 1 1.414-1.414L8 9.086l3.793-3.793a1 1 0 0 1 1.414 0Z"/></symbol>

<symbol id="chevron-left" viewBox="0 0 16 16"><path d="M10.707 13.207a1 1 0 0 1-1.414 0L5.5 9.414a2 2 0 0 1 0-2.828l3.793-3.793a1 1 0 0 1 1.414 1.414L6.914 8l3.793 3.793a1 1 0 0 1 0 1.414Z"/></symbol>

<symbol id="chevron-right" viewBox="0 0 16 16"><path d="M5.293 13.207a1 1 0 0 0 1.414 0L10.5 9.414a2 2 0 0 0 0-2.828L6.707 2.793a1 1 0 0 0-1.414 1.414L9.086 8l-3.793 3.793a1 1 0 0 0 0 1.414Z"/></symbol>

<symbol id="chevron-up" viewBox="0 0 16 16"><path d="M13.207 10.707a1 1 0 0 0 0-1.414L9.414 5.5a2 2 0 0 0-2.828 0L2.793 9.293a1 1 0 0 0 1.414 1.414L8 6.914l3.793 3.793a1 1 0 0 0 1.414 0Z"/></symbol>

<symbol id="circle" viewBox="0 0 16 16"><path d="M12 8a4 4 0 1 1-8 0 4 4 0 0 1 8 0Z"/></symbol>

<symbol id="clock" viewBox="0 0 16 16"><path d="M8 4a4 4 0 1 0 0 8 4 4 0 0 0 0-8ZM2 8a6 6 0 1 1 12 0A6 6 0 0 1 2 8Z"/><path d="M8 5a1 1 0 0 1 1 1v1.586l.707.707a1 1 0 0 1-1.414 1.414l-1-1A1 1 0 0 1 7 8V6a1 1 0 0 1 1-1Z"/></symbol>

<symbol id="close" viewBox="0 0 16 16"><path d="M3.293 3.293a1 1 0 0 1 1.414 0L8 6.586l3.293-3.293a1 1 0 1 1 1.414 1.414L9.414 8l3.293 3.293a1 1 0 0 1-1.414 1.414L8 9.414l-3.293 3.293a1 1 0 0 1-1.414-1.414L6.586 8 3.293 4.707a1 1 0 0 1 0-1.414Z"/></symbol>

<symbol id="coffee" viewBox="0 0 16 16"><path d="M5 0a1 1 0 0 1 1 1v1a1 1 0 0 1-2 0V1a1 1 0 0 1 1-1ZM2 4a1 1 0 0 0-1 1v7a3 3 0 0 0 3 3h5a3 3 0 0 0 3-3h1a2 2 0 0 0 2-2V8a2 2 0 0 0-2-2h-1V5a1 1 0 0 0-1-1H2Zm8 2v6a1 1 0 0 1-1 1H4a1 1 0 0 1-1-1V6h7Zm2 4V8h1v2h-1ZM9 1a1 1 0 0 0-2 0v1a1 1 0 0 0 2 0V1Z"/></symbol>

<symbol id="collapse-all" viewBox="0 0 16 16"><path d="M2 3a1 1 0 0 1 1-1h7a1 1 0 1 0 0-2H3a3 3 0 0 0-3 3v6.5a1 1 0 1 0 2 0V3ZM12 9a1 1 0 0 1-1 1H7a1 1 0 0 1 0-2h4a1 1 0 0 1 1 1Z"/><path d="M3 6a3 3 0 0 1 3-3h6a3 3 0 0 1 3 3v6a3 3 0 0 1-3 3H6a3 3 0 0 1-3-3V6Zm3-1a1 1 0 0 0-1 1v6a1 1 0 0 0 1 1h6a1 1 0 0 0 1-1V6a1 1 0 0 0-1-1H6Z"/></symbol>

<symbol id="collapse" viewBox="0 0 16 16"><path d="M9 2a1 1 0 0 1 1 1v1.586l2.293-2.293a1 1 0 1 1 1.414 1.414L11.414 6H13a1 1 0 1 1 0 2H9a1 1 0 0 1-1-1V3a1 1 0 0 1 1-1Zm-6 8a1 1 0 1 1 0-2h4a1 1 0 0 1 1 1v4a1 1 0 1 1-2 0v-1.586l-2.293 2.293a1 1 0 0 1-1.414-1.414L4.586 10H3Z"/></symbol>

<symbol id="comment" viewBox="0 0 16 16"><path d="M1 4.5a3 3 0 0 1 3-3h8a3 3 0 0 1 3 3V9a3 3 0 0 1-3 3H9.414l-2 2C6.154 15.26 4 14.368 4 12.586V12a3 3 0 0 1-3-3V4.5Zm3-1a1 1 0 0 0-1 1V9a1 1 0 0 0 1 1h1a1 1 0 0 1 1 1v1.586l2.293-2.293A1 1 0 0 1 9 10h3a1 1 0 0 0 1-1V4.5a1 1 0 0 0-1-1H4Z"/></symbol>

<symbol id="contract" viewBox="0 0 16 16"><path fill-rule="evenodd" d="M5 3a1 1 0 0 0-1 1v8a1 1 0 0 0 1 1h6a1 1 0 0 0 1-1V7.243a2 2 0 0 0-.586-1.415L9.172 3.586A2 2 0 0 0 7.757 3H5ZM2 4a3 3 0 0 1 3-3h2.757a4 4 0 0 1 2.829 1.172l2.242 2.242A4 4 0 0 1 14 7.243V12a3 3 0 0 1-3 3H5a3 3 0 0 1-3-3V4Zm4 7a1 1 0 0 1 1-1h2a1 1 0 1 1 0 2H7a1 1 0 0 1-1-1Z" clip-rule="evenodd"/></symbol>

<symbol id="crown" viewBox="0 0 16 16"><path d="M6.698 3.264a1.5 1.5 0 0 1 2.604 0l1.16 2.028 1.772-.59a1.25 1.25 0 0 1 1.597 1.528l-1.455 5.094A3 3 0 0 1 9.491 13.5H6.51a3 3 0 0 1-2.885-2.176L2.169 6.23a1.25 1.25 0 0 1 1.597-1.529l1.772.591 1.16-2.028ZM8 5.016l-.827 1.446a1.75 1.75 0 0 1-2.073.792l-.618-.206 1.065 3.727a1 1 0 0 0 .962.725H9.49a1 1 0 0 0 .962-.725l1.065-3.727-.619.206a1.75 1.75 0 0 1-2.072-.792L8 5.016Z"/></symbol>

<symbol id="dark-mode" viewBox="0 0 16 16"><path d="M5.41 3.722a5 5 0 1 0 6.868 6.868c-1.526.313-3.753.349-5.485-1.383C5.06 7.475 5.098 5.248 5.409 3.722Zm1.882-1.9c.326.385.47.947.291 1.493-.413 1.262-.686 3.168.624 4.478 1.31 1.31 3.216 1.037 4.478.624a1.56 1.56 0 0 1 1.493.291c.401.341.661.938.439 1.58a7 7 0 1 1-8.906-8.906 1.44 1.44 0 0 1 1.58.44Z"/><path d="M12 1a1 1 0 0 1 1 1c0 .175.098.433.332.668.235.235.493.332.668.332a1 1 0 1 1 0 2c-.175 0-.433.097-.668.332-.235.235-.332.493-.332.668a1 1 0 1 1-2 0c0-.175-.098-.433-.332-.668C10.433 5.097 10.175 5 10 5a1 1 0 1 1 0-2c.175 0 .433-.097.668-.332.235-.235.332-.493.332-.668a1 1 0 0 1 1-1Z"/></symbol>

<symbol id="delete" viewBox="0 0 16 16"><path d="M4 4a3 3 0 0 1 3-3h2a3 3 0 0 1 3 3h1a1 1 0 1 1 0 2v5.5a3 3 0 0 1-3 3H6a3 3 0 0 1-3-3V6a1 1 0 0 1 0-2h1Zm1 2v5.5a1 1 0 0 0 1 1h4a1 1 0 0 0 1-1V6H5Zm5-2a1 1 0 0 0-1-1H7a1 1 0 0 0-1 1h4Z"/></symbol>

<symbol id="ellipsis" viewBox="0 0 16 16"><path d="M6.5 3.5a1.5 1.5 0 1 1 3 0 1.5 1.5 0 0 1-3 0ZM6.5 8a1.5 1.5 0 1 1 3 0 1.5 1.5 0 0 1-3 0ZM8 11a1.5 1.5 0 1 0 0 3 1.5 1.5 0 0 0 0-3Z"/></symbol>

<symbol id="envelope-open" viewBox="0 0 16 16"><path d="M1.329 4.258A.995.995 0 0 0 1 5v6a3 3 0 0 0 3 3h8a3 3 0 0 0 3-3V5.03a.997.997 0 0 0-.56-.928l-5.098-2.55a3 3 0 0 0-2.683 0L1.568 4.099a.994.994 0 0 0-.239.16Zm10.683.866L8.555 7.428a1 1 0 0 1-1.11 0L3.99 5.124l3.564-1.782a1 1 0 0 1 .894 0l3.565 1.782ZM9.664 9.093 13 6.869V11a1 1 0 0 1-1 1H4a1 1 0 0 1-1-1V6.869l3.336 2.224a3 3 0 0 0 3.328 0Z"/></symbol>

<symbol id="equals" viewBox="0 0 16 16"><path d="M3 10a1 1 0 0 1 1-1h8a1 1 0 1 1 0 2H4a1 1 0 0 1-1-1ZM3 6a1 1 0 0 1 1-1h8a1 1 0 1 1 0 2H4a1 1 0 0 1-1-1Z"/></symbol>

<symbol id="expand-all" viewBox="0 0 16 16"><path d="M2 3a1 1 0 0 1 1-1h7a1 1 0 1 0 0-2H3a3 3 0 0 0-3 3v6.5a1 1 0 1 0 2 0V3ZM10 7a1 1 0 1 0-2 0v1H7a1 1 0 1 0 0 2h1v1a1 1 0 1 0 2 0v-1h1a1 1 0 1 0 0-2h-1V7Z"/><path d="M6 3a3 3 0 0 0-3 3v6a3 3 0 0 0 3 3h6a3 3 0 0 0 3-3V6a3 3 0 0 0-3-3H6ZM5 6a1 1 0 0 1 1-1h6a1 1 0 0 1 1 1v6a1 1 0 0 1-1 1H6a1 1 0 0 1-1-1V6Z"/></symbol>

<symbol id="expand" viewBox="0 0 16 16"><path d="M9 4a1 1 0 0 1 0-2h4a1 1 0 0 1 1 1v4a1 1 0 1 1-2 0V5.414L9.707 7.707a1 1 0 0 1-1.414-1.414L10.586 4H9ZM3 8a1 1 0 0 1 1 1v1.586l2.293-2.293a1 1 0 0 1 1.414 1.414L5.414 12H7a1 1 0 1 1 0 2H3a1 1 0 0 1-1-1V9a1 1 0 0 1 1-1Z"/></symbol>

<symbol id="external-link" viewBox="0 0 16 16"><path d="M2 5a3 3 0 0 1 3-3h1a1 1 0 0 1 0 2H5a1 1 0 0 0-1 1v6a1 1 0 0 0 1 1h6a1 1 0 0 0 1-1v-1a1 1 0 1 1 2 0v1a3 3 0 0 1-3 3H5a3 3 0 0 1-3-3V5Z"/><path d="M8.5 3a1 1 0 0 1 1-1H13a1 1 0 0 1 1 1v3a1 1 0 1 1-2 0v-.586L8.707 8.707a1 1 0 0 1-1.414-1.414L10.586 4H9.5a1 1 0 0 1-1-1Z"/></symbol>

<symbol id="eye-invisible" viewBox="0 0 16 16"><path d="M2.819 6.39a1 1 0 0 1 1.336.465C4.825 8.24 6.25 9.415 8 9.415s3.174-1.174 3.845-2.56a1 1 0 0 1 1.8.871c-.218.45-.497.893-.833 1.308l.894.893a1 1 0 0 1-1.413 1.416l-.956-.955a6.207 6.207 0 0 1-.91.507l.501 1.497a1 1 0 1 1-1.896.635l-.546-1.631a5.99 5.99 0 0 1-.932.003l-.545 1.628a1 1 0 1 1-1.896-.635l.495-1.481a6.193 6.193 0 0 1-.946-.523l-.956.955a1 1 0 0 1-1.413-1.416l.895-.893a6.785 6.785 0 0 1-.833-1.308 1 1 0 0 1 .464-1.336Z"/></symbol>

<symbol id="eye-visible" viewBox="0 0 16 16"><path d="M3.066 8C3.808 9.824 5.66 11.5 8 11.5s4.192-1.676 4.934-3.5C12.192 6.176 10.34 4.5 8 4.5S3.808 6.176 3.066 8ZM1.05 7.684C1.904 5.124 4.473 2.5 8 2.5c3.527 0 6.096 2.625 6.949 5.184a1 1 0 0 1 0 .632C14.096 10.876 11.527 13.5 8 13.5c-3.527 0-6.096-2.625-6.949-5.184a1 1 0 0 1 0-.632Z"/><path d="M10 8a2 2 0 1 1-4 0 2 2 0 0 1 4 0Z"/></symbol>

<symbol id="heart" viewBox="0 0 16 16"><path d="M5.533 3.5C4.144 3.5 3 4.912 3 6.46c0 1.459 1.15 2.958 2.611 4.213A16.732 16.732 0 0 0 8 12.37a16.736 16.736 0 0 0 2.389-1.698C11.85 9.418 13 7.919 13 6.46c0-1.548-1.144-2.96-2.533-2.96-.825 0-1.361.413-1.7.817a1 1 0 0 1-1.534 0c-.339-.404-.875-.817-1.7-.817ZM1 6.46C1 4.186 2.696 1.5 5.533 1.5c1.053 0 1.867.362 2.467.808a4.058 4.058 0 0 1 2.467-.808C13.304 1.5 15 4.186 15 6.46c0 2.412-1.797 4.432-3.309 5.73a18.722 18.722 0 0 1-2.175 1.6c-.3.19-.556.338-.746.443a6.372 6.372 0 0 1-.35.177 1.238 1.238 0 0 1-.173.06c-.025.006-.122.03-.247.03s-.222-.024-.247-.03a1.102 1.102 0 0 1-.173-.06 6.372 6.372 0 0 1-.35-.178c-.19-.104-.446-.253-.746-.442a18.724 18.724 0 0 1-2.175-1.6C2.797 10.892 1 8.872 1 6.46Z"/></symbol>

<symbol id="home" viewBox="0 0 16 16"><path d="M8.625 3.78a1 1 0 0 0-1.25 0l-3 2.4A1 1 0 0 0 4 6.961V11a1 1 0 0 0 1 1h.5v-1.5a2.5 2.5 0 0 1 5 0V12h.5a1 1 0 0 0 1-1V6.961a1 1 0 0 0-.375-.78l-3-2.4Zm-2.5-1.561a3 3 0 0 1 3.75 0l3 2.4A3 3 0 0 1 14 6.96V11a3 3 0 0 1-3 3h-1a1.5 1.5 0 0 1-1.5-1.5v-2a.5.5 0 0 0-1 0v2A1.5 1.5 0 0 1 6 14H5a3 3 0 0 1-3-3V6.961A3 3 0 0 1 3.126 4.62l3-2.4Z"/></symbol>

<symbol id="info" viewBox="0 0 16 16"><path d="M8 12a1 1 0 0 0 1-1V7.5a1 1 0 0 0-2 0V11a1 1 0 0 0 1 1ZM9 4.5a1 1 0 1 0-2 0 1 1 0 0 0 2 0Z"/></symbol>

<symbol id="light-mode" viewBox="0 0 16 16"><g clip-path="url(#a)"><path d="M8 .5a1 1 0 0 1 1 1V2a1 1 0 0 1-2 0v-.5a1 1 0 0 1 1-1ZM2.697 2.697a1 1 0 0 1 1.414 0l.353.353A1 1 0 0 1 3.05 4.464l-.353-.353a1 1 0 0 1 0-1.414Zm10.606 0a1 1 0 0 1 0 1.414l-.353.354a1 1 0 1 1-1.414-1.414l.353-.354a1 1 0 0 1 1.414 0ZM8 6a2 2 0 1 0 0 4 2 2 0 0 0 0-4ZM4 8a4 4 0 1 1 8 0 4 4 0 0 1-8 0ZM.5 8a1 1 0 0 1 1-1H2a1 1 0 1 1 0 2h-.5a1 1 0 0 1-1-1ZM13 8a1 1 0 0 1 1-1h.5a1 1 0 1 1 0 2H14a1 1 0 0 1-1-1Zm-8.536 3.535a1 1 0 0 1 0 1.414l-.353.354a1 1 0 0 1-1.414-1.414l.353-.354a1 1 0 0 1 1.414 0Zm7.072 0a1 1 0 0 1 1.414 0l.353.354a1 1 0 0 1-1.414 1.414l-.353-.353a1 1 0 0 1 0-1.414ZM8 13a1 1 0 0 1 1 1v.5a1 1 0 1 1-2 0V14a1 1 0 0 1 1-1Z"/></g><defs><clipPath id="a"><path d="M0 0h16v16H0z"/></clipPath></defs></symbol>

<symbol id="lock-locked" viewBox="0 0 16 16"><path d="M8 8.5a1 1 0 0 1 1 1v1a1 1 0 1 1-2 0v-1a1 1 0 0 1 1-1Z"/><path d="M5 5V4a3 3 0 0 1 6 0v1h1a3 3 0 0 1 3 3v4a3 3 0 0 1-3 3H4a3 3 0 0 1-3-3V8a3 3 0 0 1 3-3h1Zm2-1v1h2V4a1 1 0 0 0-2 0ZM3 8v4a1 1 0 0 0 1 1h8a1 1 0 0 0 1-1V8a1 1 0 0 0-1-1H4a1 1 0 0 0-1 1Z"/></symbol>

<symbol id="lock-unlocked" viewBox="0 0 16 16"><path d="M8 8.5a1 1 0 0 0-1 1v1a1 1 0 1 0 2 0v-1a1 1 0 0 0-1-1Z"/><path d="M7 4a1 1 0 0 1 1-1 1 1 0 0 0 0-2 3 3 0 0 0-3 3v1H4a3 3 0 0 0-3 3v4a3 3 0 0 0 3 3h8a3 3 0 0 0 3-3V8a3 3 0 0 0-3-3H7V4ZM3 8a1 1 0 0 1 1-1h8a1 1 0 0 1 1 1v4a1 1 0 0 1-1 1H4a1 1 0 0 1-1-1V8Z"/></symbol>

<symbol id="office" viewBox="0 0 16 16"><path d="M11 1a3 3 0 0 1 3 3v9a1 1 0 1 1 0 2H2a1 1 0 1 1 0-2V4a3 3 0 0 1 3-3h6ZM7.5 13h1v-1h-1v1Zm3 0H12V4a1 1 0 0 0-1-1H5a1 1 0 0 0-1 1v9h1.5v-1a2 2 0 0 1 2-2h1a2 2 0 0 1 2 2v1ZM6 4a1 1 0 0 0 0 2h4a1 1 0 1 0 0-2H6ZM5 8a1 1 0 0 1 1-1h4a1 1 0 1 1 0 2H6a1 1 0 0 1-1-1Z"/></symbol>

<symbol id="palm-tree" viewBox="0 0 16 16"><path d="m9.746 3.553.134-.05-.274.55a1 1 0 0 0 .62 1.408l.003.002.023.006.097.03a10.51 10.51 0 0 1 1.454.583c.148.074.29.15.42.228a5.07 5.07 0 0 0-.474.183c-.07.032-.152.071-.228.117a1.19 1.19 0 0 0-.183.135 1.005 1.005 0 0 0-.17 1.31c.147.22.275.477.373.737a38.07 38.07 0 0 1-1.313-.991l-.078-.062-.02-.015-.005-.005a.994.994 0 0 0-.07-.051l-1.5-1a1 1 0 0 0-1.146.025L5.913 7.79l-.552.393c-.275.194-.55.386-.812.563.1-.275.221-.55.345-.799a1 1 0 0 0-.447-1.342l-.003-.001-.005-.003-.015-.007a3.628 3.628 0 0 0-.202-.091 6.863 6.863 0 0 0-.465-.18c.135-.082.283-.163.44-.241a10.081 10.081 0 0 1 1.551-.613l.023-.006.004-.002a1 1 0 0 0 .62-1.41l-.275-.548a3.364 3.364 0 0 1 1.173.704 1 1 0 0 0 1.414 0c.16-.16.546-.456 1.04-.654Zm2.155.382.493-.988a1 1 0 0 0-.578-1.396c-1.045-.348-2.05-.16-2.812.145-.376.15-.715.337-1.004.53a5.563 5.563 0 0 0-1.004-.53c-.763-.305-1.767-.493-2.812-.145a1 1 0 0 0-.578 1.396l.493.988c-.248.1-.521.22-.796.358-.476.238-1.009.553-1.437.95C1.452 5.629 1 6.22 1 7a1 1 0 0 0 1 1c.214 0 .442.034.661.085a7.237 7.237 0 0 0-.262.885c-.074.332-.124.701-.1 1.06.024.347.129.812.494 1.177a1 1 0 0 0 .707.293c.228 0 .419-.072.494-.101.105-.04.21-.091.305-.141.193-.101.417-.235.649-.381.173-.11.359-.231.552-.36V12.5H4a1 1 0 1 0 0 2h8a1 1 0 0 0 0-2h-1.5v-1.993c.27.19.546.378.796.532.167.103.342.203.506.28.116.054.39.18.698.18a1 1 0 0 0 .707-.292c.34-.34.468-.773.512-1.12a3.564 3.564 0 0 0-.048-1.082 5.486 5.486 0 0 0-.268-.942C13.601 8.025 13.806 8 14 8a1 1 0 0 0 1-1c0-.78-.452-1.372-.866-1.756-.428-.398-.961-.713-1.437-.951a11.194 11.194 0 0 0-.796-.358ZM8.5 9.035V12.5h-1V9.11a108.997 108.997 0 0 0 .53-.388l.47.313Z"/></symbol>

<symbol id="pencil" viewBox="0 0 16 16"><path d="M9.043 3.56a2.768 2.768 0 1 1 3.914 3.915l-6.25 6.25a1 1 0 0 1-.543.28l-3 .5a1 1 0 0 1-1.15-1.152l.5-3a1 1 0 0 1 .279-.542l6.25-6.25Zm2.5 1.415c-.3-.3-.786-.3-1.086 0l-6.023 6.023-.217 1.303 1.303-.217 6.023-6.023c.3-.3.3-.786 0-1.086Z"/></symbol>

<symbol id="people" viewBox="0 0 16 16"><path d="M6 4a2 2 0 1 0 0 4 2 2 0 0 0 0-4ZM2 6a4 4 0 1 1 8 0 4 4 0 0 1-8 0Zm8.634-3.1A1 1 0 0 0 11 4.268a1.999 1.999 0 0 1 0 3.466 1 1 0 1 0 1.002 1.731 3.999 3.999 0 0 0 0-6.928 1 1 0 0 0-1.367.365Zm-9.2 9.276a1 1 0 0 0 1.127 1.652l.005-.003h-.002l-.002.002a5.226 5.226 0 0 1 .828-.389A7.583 7.583 0 0 1 6 13c1.14 0 2.023.224 2.61.439.294.108.514.213.653.287a2.925 2.925 0 0 1 .175.101l.002.001a1 1 0 0 0 1.127-1.652l-.002-.001-.001-.001-.004-.002-.008-.006-.024-.016a4.916 4.916 0 0 0-.325-.19 7.238 7.238 0 0 0-.904-.399A9.58 9.58 0 0 0 6 11a9.58 9.58 0 0 0-3.299.561 7.237 7.237 0 0 0-.904.4 4.905 4.905 0 0 0-.325.19l-.023.015-.01.006-.003.002-.001.001-.001.001Zm8 1.649h.002l.002.002.002.001a1.966 1.966 0 0 1-.005-.003Zm1.98-1.921a1 1 0 0 1 1.262-.639 5.13 5.13 0 0 1 1.279.626 4.213 4.213 0 0 1 .482.383l.012.01.004.005.002.002.001.001h.001a1 1 0 0 1-1.413 1.416l.002.002.005.005-.002-.002a2.252 2.252 0 0 0-.218-.168 3.133 3.133 0 0 0-.779-.38 1 1 0 0 1-.638-1.261Z"/></symbol>

<symbol id="person" viewBox="0 0 16 16"><path d="M8 4a2 2 0 1 0 0 4 2 2 0 0 0 0-4ZM4 6a4 4 0 1 1 8 0 4 4 0 0 1-8 0Zm-.566 6.176a1 1 0 0 0 1.127 1.652l.005-.003h-.002l-.002.002a5.226 5.226 0 0 1 .828-.389A7.583 7.583 0 0 1 8 13c1.14 0 2.024.224 2.61.439.294.108.514.213.653.287a2.943 2.943 0 0 1 .175.101l.002.001a1 1 0 0 0 1.127-1.652l-.002-.001-.001-.001-.004-.002-.008-.006-.024-.016a4.916 4.916 0 0 0-.325-.19 7.235 7.235 0 0 0-.904-.399A9.58 9.58 0 0 0 8 11a9.58 9.58 0 0 0-3.299.561 7.237 7.237 0 0 0-.904.4 4.905 4.905 0 0 0-.325.19l-.023.015-.01.006-.003.002-.001.001-.001.001Zm8 1.649h.002l.002.002.002.001-.005-.003Z"/></symbol>

<symbol id="phone" viewBox="0 0 16 16"><path d="M2.01 1.95C2.662 1.334 3.567 1 4.502 1h1.795a2 2 0 0 1 1.898 1.372l.71 2.147a2 2 0 0 1-1.15 2.483l-.126.05c.196.296.396.543.613.76.212.215.452.413.738.607l.045-.114a2 2 0 0 1 2.496-1.158l2.116.71A2 2 0 0 1 15 9.755V11c0 2.155-1.816 4.13-4.191 3.587-2.135-.49-5.042-1.59-7.037-4.103-1.756-2.212-2.437-4.339-2.668-5.941A2.932 2.932 0 0 1 2.01 1.95Zm1.372 1.455a.934.934 0 0 0-.297.853c.186 1.29.741 3.076 2.254 4.982 1.589 2.002 3.979 2.953 5.917 3.397C12.11 12.833 13 12.159 13 11V9.753l-2.116-.71-.472 1.188a1 1 0 0 1-1.38.524c-.881-.444-1.597-.916-2.21-1.533-.612-.618-1.08-1.338-1.52-2.226a1 1 0 0 1 .522-1.372l1.183-.477L6.298 3H4.503c-.474 0-.873.17-1.12.405Z"/></symbol>

<symbol id="pin" viewBox="0 0 16 16"><path d="M8 5a2 2 0 1 0 0 4 2 2 0 0 0 0-4Z"/><path d="M8 1a6 6 0 0 0-6 6c0 .91.323 1.854.745 2.704.43.864 1.004 1.713 1.6 2.457a14.36 14.36 0 0 0 1.802 1.894c.284.242.57.458.842.618.23.136.6.327 1.011.327.41 0 .781-.19 1.011-.327.271-.16.558-.376.842-.618a14.358 14.358 0 0 0 1.803-1.894c.595-.744 1.169-1.592 1.599-2.457C13.677 8.854 14 7.91 14 7a6 6 0 0 0-6-6ZM4 7a4 4 0 1 1 8 0c0 .47-.177 1.092-.536 1.814-.351.706-.84 1.435-1.37 2.097-.53.661-1.08 1.23-1.54 1.623-.228.195-.416.331-.554.413a4.298 4.298 0 0 1-.554-.413 12.387 12.387 0 0 1-1.54-1.623c-.53-.662-1.019-1.39-1.37-2.097C4.177 8.092 4 7.47 4 7Z"/></symbol>

<symbol id="question" viewBox="0 0 16 16"><path d="M8 5a1 1 0 0 0-1 1 1 1 0 0 1-2 0 3 3 0 1 1 4 2.83V9a1 1 0 0 1-2 0V8a1 1 0 0 1 1-1 1 1 0 0 0 0-2ZM9 12a1 1 0 1 1-2 0 1 1 0 0 1 2 0Z"/></symbol>

<symbol id="reaction" viewBox="0 0 16 16"><path d="M8 3a5 5 0 1 0 5 5 1 1 0 1 1 2 0 7 7 0 1 1-7-7 1 1 0 0 1 0 2Z"/><path d="M6.5 5a1 1 0 0 1 1 1v1a1 1 0 0 1-2 0V6a1 1 0 0 1 1-1ZM9.5 5a1 1 0 0 1 1 1v1a1 1 0 1 1-2 0V6a1 1 0 0 1 1-1ZM5.293 8.793a1 1 0 0 1 1.414 0 1.828 1.828 0 0 0 2.586 0 1 1 0 0 1 1.414 1.414 3.828 3.828 0 0 1-5.414 0 1 1 0 0 1 0-1.414ZM12.5 1a1 1 0 0 1 1 1v.5h.5a1 1 0 1 1 0 2h-.5V5a1 1 0 1 1-2 0v-.5H11a1 1 0 1 1 0-2h.5V2a1 1 0 0 1 1-1Z"/></symbol>

<symbol id="remove" viewBox="0 0 16 16"><path d="M3 8a1 1 0 0 1 1-1h8a1 1 0 1 1 0 2H4a1 1 0 0 1-1-1Z"/></symbol>

<symbol id="replace" viewBox="0 0 16 16"><path d="M3.568 1H4.432c.252 0 .498 0 .706.017.229.019.499.063.77.201a2 2 0 0 1 .874.874c.138.271.182.541.201.77C7 3.07 7 3.316 7 3.568V4.432c0 .252 0 .498-.017.706a2.022 2.022 0 0 1-.201.77 2 2 0 0 1-.874.874 2.021 2.021 0 0 1-.77.201C4.93 7 4.684 7 4.432 7H3.568c-.252 0-.498 0-.706-.017a2.021 2.021 0 0 1-.77-.201 2 2 0 0 1-.874-.874 2.022 2.022 0 0 1-.201-.77C1 4.93 1 4.684 1 4.432V3.568c0-.252 0-.498.017-.706.019-.229.063-.499.201-.77a2 2 0 0 1 .874-.874c.271-.138.541-.182.77-.201A9.18 9.18 0 0 1 3.568 1Zm-.557 2.011v.014C3 3.14 3 3.304 3 3.6v.8a8.186 8.186 0 0 0 .011.589h.014C3.14 5 3.303 5 3.6 5h.8a8.192 8.192 0 0 0 .589-.011v-.014C5 4.86 5 4.697 5 4.4v-.8a8.184 8.184 0 0 0-.011-.589h-.014A8.192 8.192 0 0 0 4.4 3h-.8a8.192 8.192 0 0 0-.589.011ZM11.383 1.076A1 1 0 0 1 12 2v.5a3 3 0 0 1 3 3v1a1 1 0 1 1-2 0v-1a1 1 0 0 0-1-1V5a1 1 0 0 1-1.707.707l-1.5-1.5a1 1 0 0 1 0-1.414l1.5-1.5a1 1 0 0 1 1.09-.217ZM4.617 14.924A1 1 0 0 1 4 14v-.5a3 3 0 0 1-3-3v-1a1 1 0 1 1 2 0v1a1 1 0 0 0 1 1V11a1 1 0 0 1 1.707-.707l1.5 1.5a1 1 0 0 1 0 1.414l-1.5 1.5a1 1 0 0 1-1.09.217ZM11.568 9H12.432c.252 0 .498 0 .706.017.229.019.499.063.77.201a2 2 0 0 1 .874.874c.138.271.182.541.201.77.017.208.017.454.017.706V12.432c0 .252 0 .498-.017.706a2.022 2.022 0 0 1-.201.77 2 2 0 0 1-.874.874 2.022 2.022 0 0 1-.77.201 9.148 9.148 0 0 1-.706.017H11.568c-.252 0-.498 0-.706-.017a2.022 2.022 0 0 1-.77-.201 2 2 0 0 1-.874-.874 2.021 2.021 0 0 1-.201-.77C9 12.93 9 12.684 9 12.432V11.568c0-.252 0-.498.017-.706.019-.229.063-.498.201-.77a2 2 0 0 1 .874-.874c.271-.138.541-.182.77-.201C11.07 9 11.316 9 11.568 9Zm-.556 2.011-.002.014c-.01.116-.01.278-.01.575v.8a8.205 8.205 0 0 0 .011.589h.014c.116.01.278.011.575.011h.8c.296 0 .459 0 .575-.01l.014-.001v-.014c.01-.116.011-.278.011-.575v-.8c0-.296 0-.459-.01-.575l-.001-.014h-.014A8.207 8.207 0 0 0 12.4 11h-.8a8.207 8.207 0 0 0-.588.011Z"/></symbol>

<symbol id="small-bell" viewBox="0 0 16 16"><path d="M8 2.5a3 3 0 0 0-3 3V7a1 1 0 0 1-.553.894l-.975.488A.854.854 0 0 0 3.854 10h8.292a.854.854 0 0 0 .382-1.618l-.975-.488A1 1 0 0 1 11 7V5.5a3 3 0 0 0-3-3Zm7 6.646A2.854 2.854 0 0 1 12.146 12H3.854a2.854 2.854 0 0 1-1.276-5.407L3 6.382V5.5a5 5 0 0 1 10 0v.882l.422.211A2.854 2.854 0 0 1 15 9.146ZM5.106 13.053a1 1 0 0 1 1.341-.447 3.472 3.472 0 0 0 3.106 0 1 1 0 1 1 .894 1.788c-1.54.77-3.354.77-4.894 0a1 1 0 0 1-.447-1.341Z"/></symbol>

<symbol id="small-envelope" viewBox="0 0 16 16"><path d="M4 2a3 3 0 0 0-3 3v6a3 3 0 0 0 3 3h8a3 3 0 0 0 3-3V4.974A3 3 0 0 0 12 2H4Zm8.888 2.54L8.555 7.428a1 1 0 0 1-1.11 0L3.112 4.54A1 1 0 0 1 4 4h8a1 1 0 0 1 .888.54ZM3 6.869l3.336 2.224a3 3 0 0 0 3.328 0L13 6.869V11a1 1 0 0 1-1 1H4a1 1 0 0 1-1-1V6.869Z"/></symbol>

<symbol id="space-control" viewBox="0 0 16 16"><path d="M9.512.724a3 3 0 0 0-3.024 0l-4 2.333A3 3 0 0 0 1 5.65v4.702a3 3 0 0 0 1.488 2.592l4 2.333a3 3 0 0 0 3.024 0l4-2.333A3 3 0 0 0 15 10.35V5.65a3 3 0 0 0-1.488-2.592l-4-2.333ZM13 10.351a1 1 0 0 1-.496.864L12 11.51v-1.7a.5.5 0 0 0-.724-.447l-.723.362a1 1 0 0 0-.553.894v2.058l-1 .583V8.566l4-2.4v4.185ZM3 6.166l4 2.4v4.693l-3.504-2.044A1 1 0 0 1 3 10.351V6.166Zm4.496-3.714a1 1 0 0 1 1.008 0l3.448 2.01L8 6.835 4.048 4.463l3.448-2.011Z"/></symbol>

<symbol id="trainings" viewBox="0 0 16 16"><path d="M11.188 1.875c1.235 0 2.319.505 3.412 1.325a1 1 0 0 1 .4.8v7.5c0 .736-.436 1.288-.953 1.567a1.97 1.97 0 0 1-1.735.066c-.549-.246-1.042-.311-1.593-.217-.583.1-1.28.387-2.204.941A1 1 0 0 1 7.4 13.8c-1.335-1.002-2.53-1.147-3.717-.64a1.991 1.991 0 0 1-1.733-.09c-.51-.28-.95-.831-.95-1.57V4a1 1 0 0 1 .4-.8c1.093-.82 2.177-1.325 3.413-1.325 1.046 0 2.08.364 3.187.972 1.108-.608 2.14-.972 3.188-.972ZM7 4.579c-.935-.508-1.614-.704-2.188-.704-.54 0-1.102.176-1.812.643v6.76c1.353-.55 2.701-.527 4 0V4.58Zm2 6.781a6.385 6.385 0 0 1 1.38-.415 4.582 4.582 0 0 1 2.62.307V4.518c-.71-.467-1.271-.643-1.813-.643-.573 0-1.252.196-2.187.704v6.781Z"/></symbol>

<symbol id="vector" viewBox="0 0 16 16"><path d="M6.304 1.828a2 2 0 0 1 3.392 0l.97 1.554 1.83.063a2 2 0 0 1 1.697 2.938L13.333 8l.86 1.617a2 2 0 0 1-1.697 2.938l-1.83.063-.97 1.553a2 2 0 0 1-3.392 0l-.97-1.553-1.83-.063a2 2 0 0 1-1.697-2.938L2.667 8l-.86-1.617a2 2 0 0 1 1.697-2.938l1.83-.063.97-1.554ZM8.97 4.441 8 2.888 7.03 4.44a2 2 0 0 1-1.627.94l-1.83.063.86 1.617a2 2 0 0 1 0 1.878l-.86 1.617 1.83.064a2 2 0 0 1 1.627.939L8 13.112l.97-1.553a2 2 0 0 1 1.627-.94l1.83-.063-.86-1.617a2 2 0 0 1 0-1.878l.86-1.617-1.83-.063a2 2 0 0 1-1.627-.94Z"/><path d="M10 8a2 2 0 1 1-4 0 2 2 0 0 1 4 0Z"/></symbol>
</svg>
