<svg width="24" height="24" viewBox="0 0 24 24" fill="none" xmlns="http://www.w3.org/2000/svg">
<path d="M3.1606 8.53576L11.8143 5.07428C11.9335 5.0266 12.0665 5.0266 12.1857 5.07428L20.8394 8.53576C21.2585 8.70339 21.2585 9.29661 20.8394 9.46424L12.1857 12.9257C12.0665 12.9734 11.9335 12.9734 11.8143 12.9257L3.1606 9.46424C2.74152 9.29661 2.74152 8.70339 3.1606 8.53576Z" stroke="black" stroke-width="1.3" stroke-linejoin="round"/>
<path d="M19 10V15.6703C19 15.8703 18.8808 16.0511 18.697 16.1299L12.197 18.9156C12.0712 18.9695 11.9288 18.9695 11.803 18.9156L5.30304 16.1299C5.1192 16.0511 5 15.8703 5 15.6703V10" stroke="black" stroke-width="1.3" stroke-linejoin="round"/>
<path d="M12 9L16 11V13.5" stroke="black" stroke-width="1.3" stroke-linecap="round" stroke-linejoin="round"/>
</svg>
