<svg width="24" height="24" viewBox="0 0 24 24" fill="none" xmlns="http://www.w3.org/2000/svg">
<path d="M5 15V7C5 5.89543 5.89543 5 7 5H17C18.1046 5 19 5.89543 19 7V15" stroke="black" stroke-width="1.3" stroke-linejoin="round"/>
<path d="M18 19H6C4.34315 19 3 17.6569 3 16C3 15.4477 3.44772 15 4 15H9.5C9.77614 15 10 15.2239 10 15.5C10 15.7761 10.2239 16 10.5 16H13.5C13.7761 16 14 15.7761 14 15.5C14 15.2239 14.2239 15 14.5 15H20C20.5523 15 21 15.4477 21 16C21 17.6569 19.6569 19 18 19Z" stroke="black" stroke-width="1.3" stroke-linejoin="round"/>
</svg>
