<svg width="20" height="20" viewBox="0 0 20 20" fill="none" xmlns="http://www.w3.org/2000/svg">
<path fill-rule="evenodd" clip-rule="evenodd" d="M8.13954 2.45918C8.30339 2.34995 8.50792 2.32088 8.69571 2.38014C9.27902 2.56422 10.039 2.89291 10.7382 3.29241C11.2317 3.5744 11.7421 3.91791 12.138 4.30199C13.1925 3.74278 14.2487 3.45352 14.9055 3.35693C15.1941 3.31449 15.4756 3.46948 15.5941 3.73602C15.9395 4.51328 16.4053 5.75374 16.6836 6.96718C16.8227 7.57321 16.9204 8.19552 16.9251 8.7618C16.9267 8.9555 16.9176 9.15399 16.8917 9.35001H17.0001C17.3591 9.35001 17.6501 9.64102 17.6501 10C17.6501 12.6499 16.3024 14.9845 14.2577 16.3566V18C14.2577 18.359 13.9667 18.65 13.6077 18.65H6.39251C6.03353 18.65 5.74251 18.359 5.74251 18V16.3566C3.69781 14.9845 2.3501 12.6499 2.3501 10C2.3501 9.64102 2.64111 9.35001 3.0001 9.35001H3.12446C3.07724 9.06203 3.04738 8.73614 3.03785 8.39306C3.01558 7.59151 3.10279 6.63645 3.38345 5.79446C3.47193 5.52904 3.72032 5.35001 4.0001 5.35001C4.4017 5.35001 4.9702 5.39055 5.59368 5.4989C5.74138 5.17849 5.94898 4.80158 6.21243 4.41377C6.66155 3.75265 7.30084 3.01831 8.13954 2.45918ZM6.88594 5.81564C7.49072 6.01295 8.10525 6.29375 8.61957 6.69299C8.94699 6.52587 9.30754 6.41424 9.68834 6.37061C10.0641 5.84191 10.5182 5.39825 10.9996 5.02886C10.754 4.82928 10.4448 4.62201 10.0933 4.42115C9.58806 4.13248 9.0505 3.88794 8.60544 3.72343C8.06243 4.139 7.62119 4.65348 7.28777 5.14429C7.12302 5.3868 6.98957 5.61608 6.88594 5.81564ZM11.2118 6.57132C11.4739 6.67538 11.7188 6.81356 11.9408 6.98034C12.667 7.52596 13.1511 8.38069 13.1966 9.35001H15.5726C15.6064 9.20367 15.6271 9.01341 15.6251 8.7726C15.6215 8.33575 15.5442 7.81431 15.4166 7.25784C15.212 6.36613 14.8921 5.44355 14.6077 4.74037C13.9854 4.89216 13.1394 5.1912 12.3407 5.68264C11.9335 5.93325 11.5477 6.22825 11.2118 6.57132ZM16.3172 10.65H16.0001H12.5001H7.60012H4.0001H3.68295C3.88982 12.6852 5.05762 14.4368 6.72798 15.4433C6.92317 15.5609 7.04251 15.7721 7.04251 16V17.35H12.9577V16C12.9577 15.7721 13.077 15.5609 13.2722 15.4433C14.9426 14.4368 16.1104 12.6852 16.3172 10.65ZM4.44808 9.35001H6.90362C6.93549 8.67096 7.18261 8.04814 7.57743 7.54844C7.09896 7.24575 6.48991 7.02505 5.85311 6.87722C5.35783 6.76224 4.87859 6.69883 4.48902 6.66985C4.36654 7.21786 4.32233 7.81632 4.33735 8.35696C4.34697 8.70323 4.38052 9.01081 4.42721 9.25094C4.43403 9.28601 4.44101 9.31904 4.44808 9.35001ZM8.20609 9.35001H11.8941C11.8506 8.80697 11.573 8.33003 11.1599 8.01968C10.8507 7.7874 10.4674 7.65001 10.0501 7.65001C9.6328 7.65001 9.24947 7.7874 8.9403 8.01968C8.52723 8.33003 8.24958 8.80697 8.20609 9.35001Z" fill="currentColor" />
</svg>
