<svg width="16" height="16" viewBox="0 0 16 16" fill="none" xmlns="http://www.w3.org/2000/svg">
<path d="M6 4C6.55228 4 7 4.44772 7 5C7 6.05686 7.31703 6.94018 7.82589 7.54156C8.32067 8.1263 9.03992 8.5 10 8.5C10.5523 8.5 11 8.94772 11 9.5C11 10.0523 10.5523 10.5 10 10.5C9.03992 10.5 8.32067 10.8737 7.82589 11.4584C7.31703 12.0598 7 12.9431 7 14C7 14.5523 6.55228 15 6 15C5.44771 15 5 14.5523 5 14C5 12.9431 4.68297 12.0598 4.17411 11.4584C3.67933 10.8737 2.96008 10.5 2 10.5C1.44772 10.5 1 10.0523 1 9.5C1 8.94772 1.44772 8.5 2 8.5C2.96004 8.5 3.6793 8.1263 4.17409 7.54155C4.68296 6.94017 5 6.05685 5 5C5 4.44772 5.44771 4 6 4ZM5.99999 8.44184C5.90679 8.57721 5.80708 8.70791 5.70086 8.83345C5.49242 9.07978 5.26152 9.3029 5.01004 9.49999C5.26153 9.69708 5.49244 9.92021 5.70089 10.1666C5.80711 10.2921 5.90681 10.4228 6 10.5581C6.09319 10.4228 6.19289 10.2921 6.29911 10.1666C6.50756 9.92022 6.73846 9.69709 6.98994 9.5C6.73846 9.30291 6.50756 9.07978 6.29911 8.83344C6.19289 8.70791 6.09318 8.57721 5.99999 8.44184Z" fill="#515164"/>
<path d="M12 1C12.5523 1 13 1.44772 13 2C13 2.17477 13.0975 2.43324 13.3321 2.66789C13.5668 2.90255 13.8252 3 14 3C14.5523 3 15 3.44772 15 4C15 4.55229 14.5523 5 14 5C13.8252 5 13.5668 5.09745 13.3321 5.33211C13.0975 5.56676 13 5.82523 13 6C13 6.55229 12.5523 7 12 7C11.4477 7 11 6.55229 11 6C11 5.82523 10.9025 5.56676 10.6679 5.33211C10.4332 5.09745 10.1748 5 10 5C9.44771 5 9 4.55229 9 4C9 3.44772 9.44771 3 10 3C10.1748 3 10.4333 2.90254 10.6679 2.6679C10.9025 2.43326 11 2.17478 11 2C11 1.44772 11.4477 1 12 1Z" fill="#515164"/>
</svg>
