<svg width="16" height="16" viewBox="0 0 16 16" fill="none" xmlns="http://www.w3.org/2000/svg">
<path d="M6.69763 3.2636C7.27347 2.25588 8.72652 2.25588 9.30236 3.2636L10.4615 5.2921L12.2341 4.70123C13.1877 4.38336 14.1075 5.26396 13.8313 6.23049L12.376 11.3242C12.008 12.6121 10.8308 13.5 9.49139 13.5H6.5086C5.16916 13.5 3.992 12.6121 3.62403 11.3242L2.16868 6.23048C1.89253 5.26396 2.81225 4.38336 3.76587 4.70123L5.53849 5.2921L6.69763 3.2636ZM8 5.01559L7.17329 6.46233C6.75942 7.18661 5.89185 7.51807 5.10047 7.25428L4.48236 7.04824L5.54707 10.7748C5.66973 11.2041 6.06212 11.5 6.5086 11.5H9.49139C9.93787 11.5 10.3303 11.2041 10.4529 10.7748L11.5176 7.04824L10.8995 7.25428C10.1081 7.51807 9.24058 7.18661 8.8267 6.46233L8 5.01559Z" fill="#515164"/>
</svg>
