<svg width="16" height="16" viewBox="0 0 16 16" fill="none" xmlns="http://www.w3.org/2000/svg">
<path d="M5.53333 3.5C4.14432 3.5 3 4.91165 3 6.46C3 7.9186 4.14995 9.41822 5.61135 10.6727C6.30869 11.2713 7.01352 11.7598 7.55063 12.0983C7.72099 12.2056 7.87274 12.2968 8 12.3706C8.12726 12.2968 8.27901 12.2056 8.44937 12.0983C8.98648 11.7598 9.69131 11.2713 10.3887 10.6727C11.8501 9.41822 13 7.9186 13 6.46C13 4.91165 11.8557 3.5 10.4667 3.5C9.64177 3.5 9.10552 3.91252 8.76708 4.31718C8.57708 4.54435 8.29615 4.67562 8 4.67562C7.70385 4.67562 7.42292 4.54435 7.23292 4.31718C6.89448 3.91252 6.35823 3.5 5.53333 3.5ZM1 6.46C1 4.18585 2.69569 1.5 5.53333 1.5C6.58579 1.5 7.40021 1.8621 8 2.30771C8.59979 1.8621 9.41422 1.5 10.4667 1.5C13.3043 1.5 15 4.18585 15 6.46C15 8.87203 13.2033 10.8924 11.6913 12.1903C10.902 12.8678 10.1135 13.4136 9.51562 13.7903C9.21603 13.9791 8.95997 14.1282 8.77027 14.2325C8.67622 14.2842 8.59354 14.3277 8.52699 14.3605C8.49508 14.3762 8.45772 14.394 8.42026 14.41C8.4028 14.4175 8.37249 14.4302 8.33603 14.4428C8.31818 14.4489 8.28678 14.4593 8.24738 14.4692L8.24653 14.4695C8.22162 14.4757 8.12513 14.5 8 14.5C7.87487 14.5 7.77838 14.4757 7.75347 14.4695L7.75262 14.4692C7.71322 14.4593 7.68182 14.4489 7.66397 14.4428C7.62751 14.4302 7.5972 14.4175 7.57974 14.41C7.54228 14.394 7.50492 14.3762 7.47301 14.3605C7.40646 14.3277 7.32378 14.2842 7.22973 14.2325C7.04003 14.1282 6.78397 13.9791 6.48437 13.7903C5.88648 13.4136 5.09798 12.8678 4.30865 12.1903C2.79672 10.8924 1 8.87203 1 6.46Z" fill="#515164"/>
</svg>
