<svg width="16" height="16" viewBox="0 0 16 16" fill="none" xmlns="http://www.w3.org/2000/svg">
<path d="M8 8.5C8.55228 8.5 9 8.94772 9 9.5V10.5C9 11.0523 8.55228 11.5 8 11.5C7.44772 11.5 7 11.0523 7 10.5V9.5C7 8.94772 7.44772 8.5 8 8.5Z" fill="#515164"/>
<path d="M5 5V4C5 2.34315 6.34315 1 8 1C9.65685 1 11 2.34315 11 4V5H12C13.6569 5 15 6.34315 15 8V12C15 13.6569 13.6569 15 12 15H4C2.34315 15 1 13.6569 1 12V8C1 6.34315 2.34315 5 4 5H5ZM7 4V5H9V4C9 3.44772 8.55228 3 8 3C7.44772 3 7 3.44772 7 4ZM3 8V12C3 12.5523 3.44772 13 4 13H12C12.5523 13 13 12.5523 13 12V8C13 7.44772 12.5523 7 12 7H4C3.44772 7 3 7.44772 3 8Z" fill="#515164"/>
</svg>
