<svg width="16" height="16" viewBox="0 0 16 16" fill="none" xmlns="http://www.w3.org/2000/svg">
<path d="M3.56811 1.00003C3.57873 1.00003 3.58936 1.00003 3.60001 1.00003H4.40001C4.41065 1.00003 4.42128 1.00003 4.4319 1.00003C4.68429 0.999997 4.93008 0.999967 5.13824 1.01697C5.36683 1.03565 5.63656 1.07972 5.90799 1.21802C6.28431 1.40976 6.59027 1.71572 6.78202 2.09205C6.92032 2.36347 6.96438 2.63321 6.98306 2.8618C7.00007 3.06996 7.00004 3.31575 7.00001 3.56813C7.00001 3.57875 7.00001 3.58939 7.00001 3.60003V4.40003C7.00001 4.41067 7.00001 4.42131 7.00001 4.43193C7.00004 4.68431 7.00007 4.9301 6.98306 5.13826C6.96438 5.36685 6.92032 5.63659 6.78202 5.90801C6.59027 6.28433 6.28431 6.5903 5.90799 6.78204C5.63656 6.92034 5.36683 6.96441 5.13824 6.98308C4.93008 7.00009 4.68429 7.00006 4.4319 7.00003C4.42128 7.00003 4.41065 7.00003 4.40001 7.00003H3.60001C3.58936 7.00003 3.57873 7.00003 3.56811 7.00003C3.31572 7.00006 3.06993 7.00009 2.86178 6.98308C2.63318 6.96441 2.36345 6.92034 2.09202 6.78204C1.7157 6.5903 1.40974 6.28433 1.21799 5.90801C1.07969 5.63659 1.03563 5.36685 1.01695 5.13826C0.999943 4.9301 0.999973 4.68431 1 4.43193C1 4.42131 1.00001 4.41067 1.00001 4.40003V3.60003C1.00001 3.58939 1 3.57875 1 3.56813C0.999973 3.31575 0.999943 3.06996 1.01695 2.8618C1.03563 2.63321 1.07969 2.36347 1.21799 2.09205C1.40974 1.71572 1.7157 1.40976 2.09202 1.21802C2.36345 1.07972 2.63318 1.03565 2.86178 1.01697C3.06993 0.999967 3.31572 0.999997 3.56811 1.00003ZM3.01145 3.01148C3.01107 3.01563 3.01069 3.02002 3.01031 3.02466C3.00078 3.14125 3.00001 3.3035 3.00001 3.60003V4.40003C3.00001 4.69656 3.00078 4.85881 3.01031 4.9754C3.01069 4.98004 3.01107 4.98443 3.01145 4.98858C3.0156 4.98896 3.02 4.98935 3.02464 4.98973C3.14122 4.99925 3.30348 5.00003 3.60001 5.00003H4.40001C4.69653 5.00003 4.85879 4.99925 4.97537 4.98973C4.98001 4.98935 4.98441 4.98896 4.98856 4.98858C4.98894 4.98443 4.98932 4.98004 4.9897 4.9754C4.99923 4.85881 5.00001 4.69656 5.00001 4.40003V3.60003C5.00001 3.3035 4.99923 3.14125 4.9897 3.02466C4.98932 3.02002 4.98894 3.01563 4.98856 3.01148C4.98441 3.01109 4.98001 3.01071 4.97537 3.01033C4.85879 3.00081 4.69653 3.00003 4.40001 3.00003H3.60001C3.30348 3.00003 3.14122 3.00081 3.02464 3.01033C3.02 3.01071 3.0156 3.01109 3.01145 3.01148Z" fill="#515164"/>
<path d="M11.3827 1.07615C11.7564 1.23093 12 1.59557 12 2.00003V2.50003C13.6569 2.50003 15 3.84317 15 5.50003V6.50003C15 7.05231 14.5523 7.50003 14 7.50003C13.4477 7.50003 13 7.05231 13 6.50003V5.50003C13 4.94774 12.5523 4.50003 12 4.50003V5.00003C12 5.40449 11.7564 5.76913 11.3827 5.92391C11.009 6.07869 10.5789 5.99313 10.2929 5.70714L8.7929 4.20714C8.40237 3.81661 8.40237 3.18345 8.7929 2.79292L10.2929 1.29292C10.5789 1.00692 11.009 0.921369 11.3827 1.07615Z" fill="#515164"/>
<path d="M4.61732 14.9239C4.24365 14.7691 4.00001 14.4045 4.00001 14L4 13.5C2.34315 13.5 1.00001 12.1569 1.00001 10.5L1.00001 9.50003C1.00001 8.94774 1.44772 8.50003 2.00001 8.50003C2.55229 8.50003 3.00001 8.94774 3.00001 9.50003L3.00001 10.5C3.00001 11.0523 3.44772 11.5 4.00001 11.5L4.00001 11C4.00001 10.5956 4.24365 10.2309 4.61732 10.0761C4.991 9.92137 5.42111 10.0069 5.70711 10.2929L7.20711 11.7929C7.59764 12.1834 7.59764 12.8166 7.20711 13.2071L5.70711 14.7071C5.42111 14.9931 4.991 15.0787 4.61732 14.9239Z" fill="#515164"/>
<path d="M11.5681 9.00003C11.5787 9.00003 11.5894 9.00003 11.6 9.00003H12.4C12.4106 9.00003 12.4213 9.00003 12.4319 9.00003C12.6843 9 12.9301 8.99997 13.1382 9.01697C13.3668 9.03565 13.6366 9.07972 13.908 9.21802C14.2843 9.40976 14.5903 9.71572 14.782 10.092C14.9203 10.3635 14.9644 10.6332 14.9831 10.8618C15.0001 11.07 15 11.3157 15 11.5681C15 11.5788 15 11.5894 15 11.6V12.4C15 12.4107 15 12.4213 15 12.4319C15 12.6843 15.0001 12.9301 14.9831 13.1383C14.9644 13.3669 14.9203 13.6366 14.782 13.908C14.5903 14.2843 14.2843 14.5903 13.908 14.782C13.6366 14.9203 13.3668 14.9644 13.1382 14.9831C12.9301 15.0001 12.6843 15.0001 12.4319 15C12.4213 15 12.4106 15 12.4 15H11.6C11.5894 15 11.5787 15 11.5681 15C11.3157 15.0001 11.0699 15.0001 10.8618 14.9831C10.6332 14.9644 10.3634 14.9203 10.092 14.782C9.7157 14.5903 9.40974 14.2843 9.21799 13.908C9.0797 13.6366 9.03563 13.3669 9.01695 13.1383C8.99994 12.9301 8.99997 12.6843 9 12.4319C9 12.4213 9.00001 12.4107 9.00001 12.4V11.6C9.00001 11.5894 9 11.5788 9 11.5681C8.99997 11.3157 8.99994 11.07 9.01695 10.8618C9.03563 10.6332 9.0797 10.3635 9.21799 10.092C9.40974 9.71572 9.7157 9.40976 10.092 9.21802C10.3634 9.07972 10.6332 9.03565 10.8618 9.01697C11.0699 8.99997 11.3157 9 11.5681 9.00003ZM11.0115 11.0115C11.0111 11.0156 11.0107 11.02 11.0103 11.0247C11.0008 11.1412 11 11.3035 11 11.6V12.4C11 12.6966 11.0008 12.8588 11.0103 12.9754C11.0107 12.98 11.0111 12.9844 11.0115 12.9886C11.0156 12.989 11.02 12.9893 11.0246 12.9897C11.1412 12.9993 11.3035 13 11.6 13H12.4C12.6965 13 12.8588 12.9993 12.9754 12.9897C12.98 12.9893 12.9844 12.989 12.9886 12.9886C12.9889 12.9844 12.9893 12.98 12.9897 12.9754C12.9992 12.8588 13 12.6966 13 12.4V11.6C13 11.3035 12.9992 11.1412 12.9897 11.0247C12.9893 11.02 12.9889 11.0156 12.9886 11.0115C12.9844 11.0111 12.98 11.0107 12.9754 11.0103C12.8588 11.0008 12.6965 11 12.4 11H11.6C11.3035 11 11.1412 11.0008 11.0246 11.0103C11.02 11.0107 11.0156 11.0111 11.0115 11.0115Z" fill="#515164"/>
</svg>
