<svg width="16" height="16" viewBox="0 0 16 16" fill="none" xmlns="http://www.w3.org/2000/svg">
<path d="M8 2.5C6.34315 2.5 5 3.84315 5 5.5V7C5 7.37877 4.786 7.72504 4.44721 7.89443L3.47214 8.38197C3.18278 8.52664 3 8.82239 3 9.1459C3 9.61761 3.38239 10 3.8541 10H12.1459C12.6176 10 13 9.61761 13 9.1459C13 8.82239 12.8172 8.52664 12.5279 8.38197L11.5528 7.89443C11.214 7.72504 11 7.37877 11 7V5.5C11 3.84315 9.65685 2.5 8 2.5ZM15 9.1459C15 10.7222 13.7222 12 12.1459 12H3.8541C2.27782 12 1 10.7222 1 9.1459C1 8.06485 1.61078 7.07657 2.57771 6.59311L3 6.38197V5.5C3 2.73858 5.23858 0.5 8 0.5C10.7614 0.5 13 2.73858 13 5.5V6.38197L13.4223 6.59311C14.3892 7.07657 15 8.06485 15 9.1459Z" fill="#515164"/>
<path d="M5.10557 13.0528C5.35256 12.5588 5.95324 12.3586 6.44721 12.6056C7.42472 13.0943 8.57528 13.0943 9.55279 12.6056C10.0468 12.3586 10.6474 12.5588 10.8944 13.0528C11.1414 13.5468 10.9412 14.1474 10.4472 14.3944C8.90666 15.1647 7.09334 15.1647 5.55279 14.3944C5.05881 14.1474 4.85858 13.5468 5.10557 13.0528Z" fill="#515164"/>
</svg>
