<svg width="16" height="16" viewBox="0 0 16 16" fill="none" xmlns="http://www.w3.org/2000/svg">
<path d="M9.51161 0.724093C8.57752 0.179208 7.42247 0.179209 6.48839 0.724093L2.48839 3.05743C1.56673 3.59506 1 4.58176 1 5.64876V10.3513C1 11.4183 1.56673 12.405 2.48839 12.9426L6.48839 15.276C7.42248 15.8208 8.57753 15.8208 9.51161 15.276L13.5116 12.9426C14.4333 12.405 15 11.4183 15 10.3513V5.64876C15 4.58176 14.4333 3.59506 13.5116 3.05743L9.51161 0.724093ZM13 10.3513C13 10.707 12.8111 11.0359 12.5039 11.2151L12 11.509V9.80904C12 9.43735 11.6088 9.1956 11.2764 9.36183L10.5528 9.72363C10.214 9.89302 10 10.2393 10 10.6181V12.6757L9 13.259V8.56621L13 6.16621V10.3513ZM3 6.16621L7 8.56621V13.259L3.49613 11.2151C3.18891 11.0359 3 10.7069 3 10.3513V6.16621ZM7.49613 2.45165C7.80749 2.27002 8.19251 2.27002 8.50387 2.45165L11.9516 4.46285L8 6.83383L4.04836 4.46285L7.49613 2.45165Z" fill="#515164"/>
</svg>
