<svg width="16" height="16" viewBox="0 0 16 16" fill="none" xmlns="http://www.w3.org/2000/svg">
<path d="M11.1875 1.875C12.4233 1.875 13.5065 2.37991 14.6 3.20006C14.8518 3.38892 15 3.6853 15 4.00005V11.5C15 12.2362 14.5636 12.7881 14.0475 13.067C13.5432 13.3394 12.8965 13.3958 12.3116 13.1331C11.7631 12.8867 11.2695 12.822 10.7186 12.9164C10.1362 13.0163 9.43855 13.303 8.5145 13.8575C8.16585 14.0667 7.72527 14.0439 7.4 13.8C6.06471 12.7985 4.86955 12.6527 3.68287 13.1601C3.09361 13.412 2.44875 13.3438 1.94984 13.0694C1.44037 12.7892 1 12.2388 1 11.5V4.00005C1 3.6853 1.14819 3.38891 1.39999 3.20006C2.49348 2.37991 3.5767 1.87501 4.8125 1.87501C5.85933 1.87501 6.89218 2.23879 8 2.84661C9.10782 2.23879 10.1407 1.875 11.1875 1.875ZM7 4.57943C6.06455 4.07114 5.38565 3.87501 4.8125 3.87501C4.27109 3.87501 3.7099 4.05087 3 4.51783V11.278C4.35311 10.7286 5.70104 10.7513 7 11.2788V4.57943ZM9 11.36C9.46783 11.1646 9.92556 11.0232 10.3807 10.9452C11.2976 10.788 12.1524 10.8967 13 11.2518V4.51783C12.2901 4.05086 11.7289 3.875 11.1875 3.875C10.6144 3.875 9.93545 4.07113 9 4.57942V11.36Z" fill="#515164"/>
</svg>
