<svg width="16" height="16" viewBox="0 0 16 16" fill="none" xmlns="http://www.w3.org/2000/svg">
<path d="M6.30363 1.82849C7.08684 0.574343 8.91317 0.574339 9.69638 1.82849L10.6664 3.38171L12.4965 3.44514C13.9742 3.49635 14.8874 5.07799 14.1929 6.38335L13.3327 7.99999L14.1929 9.61664C14.8874 10.922 13.9742 12.5036 12.4965 12.5549L10.6664 12.6183L9.69639 14.1715C8.91317 15.4256 7.08685 15.4256 6.30363 14.1715L5.33364 12.6183L3.50352 12.5549C2.02579 12.5036 1.11262 10.922 1.80714 9.61664L2.66728 7.99999L1.80714 6.38335C1.11262 5.07799 2.02578 3.49635 3.50352 3.44514L5.33364 3.38171L6.30363 1.82849ZM8.96999 4.4411L8.00001 2.88788L7.03002 4.4411C6.67764 5.00536 6.06776 5.35747 5.40291 5.38051L3.57278 5.44394L4.43292 7.06058C4.7454 7.64788 4.74539 8.35211 4.43292 8.93941L3.57278 10.5561L5.40291 10.6195C6.06776 10.6425 6.67764 10.9946 7.03002 11.5589L8.00001 13.1121L8.96999 11.5589C9.32237 10.9946 9.93225 10.6425 10.5971 10.6195L12.4272 10.5561L11.5671 8.93941C11.2546 8.35211 11.2546 7.64788 11.5671 7.06058L12.4272 5.44394L10.5971 5.38051C9.93225 5.35747 9.32237 5.00536 8.96999 4.4411Z" fill="#515164"/>
<path d="M10 7.99999C10 9.10456 9.10458 9.99999 8.00001 9.99999C6.89544 9.99999 6.00001 9.10456 6.00001 7.99999C6.00001 6.89542 6.89544 5.99999 8.00001 5.99999C9.10458 5.99999 10 6.89542 10 7.99999Z" fill="#515164"/>
</svg>
