<svg width="24" height="24" viewBox="0 0 24 24" fill="none" xmlns="http://www.w3.org/2000/svg">
<path d="M10 5C10.5523 5 11 5.44772 11 6C11 9.46388 13.3776 12 16 12C16.5523 12 17 12.4477 17 13C17 13.5523 16.5523 14 16 14C13.3776 14 11 16.5361 11 20C11 20.5523 10.5523 21 10 21C9.44772 21 9 20.5523 9 20C9 16.5361 6.62236 14 4 14C3.44772 14 3 13.5523 3 13C3 12.4477 3.44772 12 4 12C6.62236 12 9 9.46388 9 6C9 5.44772 9.44772 5 10 5ZM10 10.1179C9.37498 11.3102 8.484 12.3126 7.40483 13C8.484 13.6874 9.37498 14.6898 10 15.8821C10.625 14.6898 11.516 13.6874 12.5952 13C11.516 12.3126 10.625 11.3102 10 10.1179Z" fill="#515164"/>
<path d="M17.5 3C18.0523 3 18.5 3.44772 18.5 4C18.5 4.82843 19.1716 5.5 20 5.5C20.5523 5.5 21 5.94772 21 6.5C21 7.05228 20.5523 7.5 20 7.5C19.1716 7.5 18.5 8.17157 18.5 9C18.5 9.55228 18.0523 10 17.5 10C16.9477 10 16.5 9.55228 16.5 9C16.5 8.17157 15.8284 7.5 15 7.5C14.4477 7.5 14 7.05228 14 6.5C14 5.94772 14.4477 5.5 15 5.5C15.8284 5.5 16.5 4.82843 16.5 4C16.5 3.44772 16.9477 3 17.5 3Z" fill="#515164"/>
</svg>
