<svg width="24" height="24" viewBox="0 0 24 24" fill="none" xmlns="http://www.w3.org/2000/svg">
<path d="M11 16C11 15.4477 11.4477 15 12 15C12.5522 15 13 15.4477 13 16C13 16.5523 12.5522 17 12 17C11.4477 17 11 16.5523 11 16Z" fill="#515164"/>
<path d="M12 9C11.4477 9 11 9.44771 11 10V13C11 13.5523 11.4477 14 12 14C12.5522 14 13 13.5523 13 13V10C13 9.44772 12.5522 9 12 9Z" fill="#515164"/>
<path fill-rule="evenodd" clip-rule="evenodd" d="M9.38523 5.60869C10.5321 3.56973 13.4678 3.56973 14.6147 5.60868L20.195 15.5292C21.3199 17.529 19.8747 20 17.5803 20H6.41965C4.12517 20 2.68003 17.529 3.80492 15.5292L9.38523 5.60869ZM12.8715 6.58921C12.4892 5.90956 11.5107 5.90955 11.1284 6.58921L5.54807 16.5097C5.17311 17.1764 5.65482 18 6.41965 18H17.5803C18.3451 18 18.8268 17.1764 18.4518 16.5097L12.8715 6.58921Z" fill="#515164"/>
</svg>
