<svg width="24" height="24" viewBox="0 0 24 24" fill="none" xmlns="http://www.w3.org/2000/svg">
<path d="M17 11C18.933 11 20.5 9.43299 20.5 7.50003C20.5 5.56701 18.933 4 17 4C15.067 4 13.5 5.56701 13.5 7.50003C13.5 9.43299 15.067 11 17 11Z" fill="#515164"/>
<path d="M7.5 8.5C8.32843 8.5 9 7.82841 9 7.00003C9 6.17157 8.32841 5.5 7.5 5.5C6.67158 5.5 6 6.17157 6 7.00003C6 7.82841 6.67156 8.5 7.5 8.5ZM11 7.00003C11 8.93299 9.433 10.5 7.5 10.5C5.567 10.5 4 8.93299 4 7.00003C4 5.06701 5.567 3.5 7.5 3.5C9.433 3.5 11 5.06701 11 7.00003Z" fill="#515164"/>
<path d="M4.01942 12.4434C4.05795 11.8925 4.5358 11.4771 5.08674 11.5156L19.0526 12.4922C19.6036 12.5308 20.019 13.0086 19.9804 13.5595C19.9419 14.1105 19.4641 14.5259 18.9131 14.4874L13 14.0739V18H14C14.5523 18 15 18.4477 15 19C15 19.5523 14.5523 20 14 20H10C9.44772 20 9 19.5523 9 19C9 18.4477 9.44772 18 10 18H11L11 14C11 13.9779 11.0007 13.9559 11.0021 13.9342L4.94723 13.5108C4.39629 13.4722 3.9809 12.9944 4.01942 12.4434Z" fill="#515164"/>
</svg>
