<svg width="24" height="24" viewBox="0 0 24 24" fill="none" xmlns="http://www.w3.org/2000/svg">
<path d="M9.09676 17.2549C9.50829 16.8865 10.1405 16.9216 10.5088 17.3331C10.8765 17.7438 11.4075 18 11.9998 18C12.592 18 13.1231 17.7438 13.4908 17.3331C13.8591 16.9216 14.4913 16.8865 14.9028 17.2549C15.3143 17.6232 15.3493 18.2554 14.981 18.6669C14.25 19.4836 13.1845 20 11.9998 20C10.815 20 9.74953 19.4836 9.01854 18.6669C8.65021 18.2554 8.68523 17.6232 9.09676 17.2549Z" fill="#515164"/>
<path d="M12 5C9.79086 5 8 6.79086 8 9V9.72607C8 10.1667 7.82497 10.5892 7.51341 10.9008L6.73935 11.6749C6.37456 12.0397 6.24718 12.5793 6.41032 13.0687C6.59571 13.6249 7.1162 14 7.70246 14H16.2975C16.8838 14 17.4043 13.6249 17.5897 13.0687C17.7528 12.5793 17.6254 12.0397 17.2606 11.6749L16.4866 10.9008C16.175 10.5892 16 10.1667 16 9.72607V9C16 6.79086 14.2091 5 12 5ZM6 9C6 5.68629 8.68629 3 12 3C15.3137 3 18 5.68629 18 9V9.58579L18.6749 10.2606C19.5753 11.1611 19.8897 12.493 19.487 13.7011C19.0294 15.074 17.7447 16 16.2975 16H7.70246C6.25534 16 4.97057 15.074 4.51295 13.7011C4.11025 12.493 4.42468 11.1611 5.32514 10.2606L6 9.58579V9Z" fill="#515164"/>
</svg>
