<svg width="24" height="24" viewBox="0 0 24 24" fill="none" xmlns="http://www.w3.org/2000/svg">
<path d="M4.77045 8.45239C4.70286 8.12311 4.80523 7.78191 5.04292 7.54422L7.04292 5.54422C7.27128 5.31586 7.59587 5.21184 7.91442 5.26493L13.4068 6.18033L15.5429 4.04422C16.7619 2.82527 18.7382 2.82527 19.9571 4.04422C21.1761 5.26317 21.1761 7.23948 19.9571 8.45843L17.821 10.5945L18.7364 16.0869C18.7895 16.4055 18.6855 16.7301 18.4571 16.9584L16.4571 18.9584C16.2194 19.1961 15.8782 19.2985 15.549 19.2309C15.2197 19.1633 14.9464 18.9348 14.8215 18.6227L13.3848 15.0308L11.75 16.6655V18.2513C11.75 18.5165 11.6447 18.7709 11.4571 18.9584L9.45713 20.9584C9.20238 21.2132 8.83029 21.3112 8.48309 21.215C8.13589 21.1189 7.86726 20.8434 7.77988 20.4939L6.9254 17.0759L3.50749 16.2215C3.15797 16.1341 2.88248 15.8655 2.78631 15.5183C2.69014 15.1711 2.78817 14.799 3.04292 14.5442L5.04292 12.5442C5.23045 12.3567 5.48481 12.2513 5.75002 12.2513L7.33581 12.2513L8.97056 10.6166L5.37863 9.1798C5.06653 9.05496 4.83803 8.78167 4.77045 8.45239ZM7.52949 7.88608L11.1214 9.32285C11.4335 9.44769 11.662 9.72098 11.7296 10.0503C11.7972 10.3795 11.6948 10.7207 11.4571 10.9584L8.45713 13.9584C8.26959 14.146 8.01524 14.2513 7.75002 14.2513H6.16424L5.70601 14.7095L7.99256 15.2812C8.35084 15.3708 8.63059 15.6505 8.72017 16.0088L9.2918 18.2953L9.75002 17.8371V16.2513C9.75002 15.9861 9.85538 15.7318 10.0429 15.5442L13.0429 12.5442C13.2806 12.3065 13.6218 12.2042 13.9511 12.2717C14.2804 12.3393 14.5537 12.5678 14.6785 12.8799L16.1153 16.4719L16.679 15.9081L15.7636 10.4157C15.7105 10.0972 15.8146 9.77258 16.0429 9.54422L18.5429 7.04422C18.9808 6.60632 18.9808 5.89634 18.5429 5.45843C18.105 5.02053 17.395 5.02053 16.9571 5.45843L14.4571 7.95843C14.2288 8.18679 13.9042 8.29081 13.5856 8.23772L8.09324 7.32232L7.52949 7.88608Z" fill="#515164"/>
</svg>
