<svg width="24" height="24" viewBox="0 0 24 24" fill="none" xmlns="http://www.w3.org/2000/svg">
<path d="M20 12C20 16.4183 16.4183 20 12 20C7.58172 20 4 16.4183 4 12C4 7.58172 7.58172 4 12 4C16.4183 4 20 7.58172 20 12ZM16.8 9.60006C17.1314 9.15823 17.0418 8.53143 16.6 8.20006C16.1582 7.86869 15.5314 7.95823 15.2 8.40006L11.3918 13.4777L9.20711 11.293C8.81658 10.9024 8.18342 10.9024 7.79289 11.293C7.40237 11.6835 7.40237 12.3166 7.79289 12.7072L10.7929 15.7072C10.9979 15.9121 11.2817 16.0181 11.5709 15.9975C11.8601 15.977 12.1261 15.832 12.3 15.6001L16.8 9.60006Z" fill="#515164"/>
</svg>
