<svg width="24" height="24" viewBox="0 0 24 24" fill="none" xmlns="http://www.w3.org/2000/svg">
<path d="M12 18C8.68629 18 6 15.3137 6 12C6 8.68629 8.68629 6 12 6C15.3137 6 18 8.68629 18 12C18 15.3137 15.3137 18 12 18ZM12 20C16.4183 20 20 16.4183 20 12C20 7.58172 16.4183 4 12 4C7.58172 4 4 7.58172 4 12C4 16.4183 7.58172 20 12 20Z" fill="#515164"/>
<path d="M12 8C12.5523 8 13 8.44772 13 9V11.4197L15.9961 13.1318C16.4757 13.4058 16.6423 14.0166 16.3682 14.4961C16.0942 14.9757 15.4834 15.1423 15.0039 14.8682L11.5039 12.8682C11.1923 12.6902 11 12.3589 11 12V9C11 8.44772 11.4477 8 12 8Z" fill="#515164"/>
</svg>
