<svg width="24" height="24" viewBox="0 0 24 24" fill="none" xmlns="http://www.w3.org/2000/svg">
<path d="M9.70708 6.29289C9.31655 5.90237 8.68339 5.90237 8.29286 6.29289L3.99997 10.5858C3.21892 11.3668 3.21892 12.6332 3.99997 13.4142L8.29286 17.7071C8.68339 18.0976 9.31655 18.0976 9.70708 17.7071C10.0976 17.3166 10.0976 16.6834 9.70708 16.2929L5.41418 12L9.70708 7.70711C10.0976 7.31658 10.0976 6.68342 9.70708 6.29289Z" fill="#515164"/>
<path d="M14.2929 6.29289C14.6834 5.90237 15.3166 5.90237 15.7071 6.29289L20 10.5858C20.781 11.3668 20.781 12.6332 20 13.4142L15.7071 17.7071C15.3166 18.0976 14.6834 18.0976 14.2929 17.7071C13.9023 17.3166 13.9023 16.6834 14.2929 16.2929L18.5858 12L14.2929 7.70711C13.9023 7.31658 13.9023 6.68342 14.2929 6.29289Z" fill="#515164"/>
</svg>
