<svg width="24" height="24" viewBox="0 0 24 24" fill="none" xmlns="http://www.w3.org/2000/svg">
<path d="M3 8.85714C3 6.7269 4.7269 5 6.85714 5H17C19.2091 5 21 6.79086 21 9V15C21 17.2091 19.2091 19 17 19H12.3333L9.70994 20.9675C8.61785 21.7866 7.04426 21.2951 6.61257 20L6.26346 18.9526C4.4142 18.6613 3 17.0604 3 15.1293V8.85714ZM6.85714 7C5.83147 7 5 7.83147 5 8.85714V15.1293C5 16.1625 5.83753 17 6.87068 17C7.37834 17 7.82904 17.3248 7.98958 17.8065L8.50994 19.3675L11.1333 17.4C11.4795 17.1404 11.9006 17 12.3333 17H17C18.1046 17 19 16.1046 19 15V9C19 7.89543 18.1046 7 17 7H6.85714Z" fill="#515164"/>
</svg>
