<svg width="24" height="24" viewBox="0 0 24 24" fill="none" xmlns="http://www.w3.org/2000/svg">
<path d="M5 7C5 4.79086 6.79086 3 9 3H12.7574C13.8182 3 14.8356 3.42143 15.5858 4.17157L17.8284 6.41421C18.5786 7.16436 19 8.18177 19 9.24264V17C19 19.2091 17.2091 21 15 21H9C6.79086 21 5 19.2091 5 17V7ZM9 5C7.89543 5 7 5.89543 7 7V17C7 18.1046 7.89543 19 9 19H15C16.1046 19 17 18.1046 17 17V9.24264C17 8.71221 16.7893 8.2035 16.4142 7.82843L14.1716 5.58579C13.7965 5.21071 13.2878 5 12.7574 5H9Z" fill="#515164"/>
<path d="M9 16C9 15.4477 9.44772 15 10 15H14C14.5523 15 15 15.4477 15 16C15 16.5523 14.5523 17 14 17H10C9.44772 17 9 16.5523 9 16Z" fill="#515164"/>
</svg>
