<svg width="24" height="24" viewBox="0 0 24 24" fill="none" xmlns="http://www.w3.org/2000/svg">
<path d="M10.1539 5.83074C10.8376 4.18972 13.1624 4.18972 13.8462 5.83074L15.0558 8.73382L17.7864 7.74088C19.3324 7.17869 20.8582 8.61947 20.3855 10.1952L18.3854 16.862C18.0048 18.131 16.8368 19 15.512 19H8.48809C7.16327 19 5.9953 18.131 5.61461 16.862L3.61456 10.1952C3.14185 8.61946 4.66766 7.17869 6.21369 7.74088L8.94426 8.73381L10.1539 5.83074ZM13.2096 9.50305L12 6.59998L10.7904 9.50305C10.3793 10.4896 9.26523 10.9787 8.26078 10.6134L5.53021 9.62047L7.53026 16.2873C7.65716 16.7103 8.04648 17 8.48809 17H15.512C15.9536 17 16.3429 16.7103 16.4698 16.2873L18.4699 9.62047L15.7393 10.6134C14.7348 10.9787 13.6207 10.4896 13.2096 9.50305Z" fill="#515164"/>
</svg>
