<svg width="24" height="24" viewBox="0 0 24 24" fill="none" xmlns="http://www.w3.org/2000/svg">
<path d="M4 6V8C4 9.10457 4.89543 10 6 10H9C10.1046 10 11 9.10457 11 8V6C11 4.89543 10.1046 4 9 4H6C4.89543 4 4 4.89543 4 6ZM9 6V8H6V6H9ZM13 6C13 4.89543 13.8954 4 15 4H18C19.1046 4 20 4.89543 20 6V10C20 11.1046 19.1046 12 18 12H15C13.8954 12 13 11.1046 13 10V6ZM18 6H15V10H18V6ZM4 14C4 12.8954 4.89543 12 6 12H9C10.1046 12 11 12.8954 11 14V18C11 19.1046 10.1046 20 9 20H6C4.89543 20 4 19.1046 4 18V14ZM9 14H6V18H9V14ZM13 16C13 14.8954 13.8954 14 15 14H18C19.1046 14 20 14.8954 20 16V18C20 19.1046 19.1046 20 18 20H15C13.8954 20 13 19.1046 13 18V16ZM18 16H15V18H18V16Z" fill="#515164"/>
</svg>
