<svg width="24" height="24" viewBox="0 0 24 24" fill="none" xmlns="http://www.w3.org/2000/svg">
<path d="M5.14652 12C6.14024 14.5428 8.71454 16.9216 12 16.9216C15.2855 16.9216 17.8598 14.5428 18.8535 12C17.8598 9.45723 15.2855 7.07841 12 7.07841C8.71454 7.07841 6.14024 9.45724 5.14652 12ZM2.97697 11.659C4.08801 8.32587 7.43204 4.92163 12 4.92163C16.568 4.92163 19.912 8.32587 21.0231 11.659C21.0969 11.8804 21.0969 12.1197 21.0231 12.341C19.912 15.6742 16.568 19.0784 12 19.0784C7.43204 19.0784 4.08801 15.6742 2.97697 12.341C2.90318 12.1197 2.90318 11.8804 2.97697 11.659Z" fill="#515164"/>
<path d="M12 13C11.4477 13 11 12.5523 11 12C11 11.4477 11.4477 11 12 11C12.5523 11 13 11.4477 13 12C13 12.5523 12.5523 13 12 13ZM12 15C13.6569 15 15 13.6569 15 12C15 10.3432 13.6569 9.00002 12 9.00002C10.3432 9.00002 9.00002 10.3432 9.00002 12C9.00002 13.6569 10.3432 15 12 15Z" fill="#515164"/>
</svg>
