<svg width="24" height="24" viewBox="0 0 24 24" fill="none" xmlns="http://www.w3.org/2000/svg">
<path d="M7 13C6.44772 13 6 13.4477 6 14V18.5858L6.29289 18.2929C6.48043 18.1054 6.73478 18 7 18H12C12.5523 18 13 17.5523 13 17V14C13 13.4477 12.5523 13 12 13H7ZM4 14C4 12.3431 5.34315 11 7 11H12C13.6569 11 15 12.3431 15 14V17C15 18.6569 13.6569 20 12 20H7.41421L6.56066 20.8536C5.61571 21.7985 4 21.1292 4 19.7929V14Z" fill="#515164"/>
<path d="M17 6C17.5523 6 18 6.44772 18 7V11.5858L17.7071 11.2929C17.5196 11.1054 17.2652 11 17 11H16.5C15.9477 11 15.5 11.4477 15.5 12C15.5 12.5523 15.9477 13 16.5 13H16.5858L17.4393 13.8536C18.3843 14.7985 20 14.1292 20 12.7929V7C20 5.34315 18.6569 4 17 4H12C10.3431 4 9 5.34315 9 7V9C9 9.55228 9.44771 10 10 10C10.5523 10 11 9.55228 11 9V7C11 6.44772 11.4477 6 12 6H17Z" fill="#515164"/>
</svg>
