<svg width="24" height="24" viewBox="0 0 24 24" fill="none" xmlns="http://www.w3.org/2000/svg">
<path d="M7 4C7 3.44772 6.55228 3 6 3C5.44772 3 5 3.44772 5 4V5.4683C4.99935 5.48896 4.99935 5.50972 5 5.53055V14.9683C4.99935 14.9889 4.99935 15.0097 5 15.0305V20C5 20.5523 5.44772 21 6 21C6.55228 21 7 20.5523 7 20V15.7692C8.28318 15.4581 9.18342 15.4056 9.87573 15.4922C10.6674 15.5911 11.2693 15.8815 11.9451 16.332C13.8491 17.6013 16.3127 17.5152 18.5998 15.7999C18.8516 15.611 18.9998 15.3147 18.9998 14.9999V5.49992C18.9998 5.12115 18.7858 4.77488 18.447 4.60549C18.1082 4.4361 17.7028 4.47265 17.3998 4.69992C15.6869 5.9846 14.1504 5.89847 13.0545 5.16785C12.2302 4.61834 11.3321 4.15868 10.1238 4.00763C9.23253 3.89622 8.22161 3.9587 7 4.21818V4ZM7 6.26923C8.28318 5.95814 9.18342 5.90565 9.87573 5.99219C10.6674 6.09115 11.2693 6.38148 11.9451 6.83196C13.4104 7.80885 15.2071 7.98295 16.9998 7.22946V14.4775C15.4483 15.4671 14.0644 15.3411 13.0545 14.6679C12.2302 14.1183 11.3321 13.6587 10.1238 13.5076C9.23253 13.3962 8.22161 13.4587 7 13.7182V6.26923Z" fill="#515164"/>
</svg>
