<svg width="24" height="24" viewBox="0 0 24 24" fill="none" xmlns="http://www.w3.org/2000/svg">
<path d="M7.16146 3L9.72765 3C10.7977 3 11.7845 3.57714 12.3091 4.50974C12.4794 4.81259 12.7999 5 13.1473 5L15.2413 5C16.0463 4.99999 16.7106 4.99998 17.2518 5.0442C17.8139 5.09012 18.3306 5.18868 18.816 5.43598C19.5686 5.81947 20.1805 6.43139 20.564 7.18404C20.8113 7.66938 20.9099 8.18608 20.9558 8.74818C21 9.28937 21 9.95372 21 10.7587V13.2413C21 14.0463 21 14.7106 20.9558 15.2518C20.9099 15.8139 20.8113 16.3306 20.564 16.816C20.1805 17.5686 19.5686 18.1805 18.816 18.564C18.3306 18.8113 17.8139 18.9099 17.2518 18.9558C16.7106 19 16.0463 19 15.2413 19H8.75873C7.95375 19 7.28938 19 6.74818 18.9558C6.18608 18.9099 5.66938 18.8113 5.18404 18.564C4.43139 18.1805 3.81947 17.5686 3.43598 16.816C3.18868 16.3306 3.09012 15.8139 3.0442 15.2518C2.99998 14.7106 2.99999 14.0463 3 13.2413L3 7.16146C2.99998 6.63431 2.99997 6.17955 3.03057 5.80497C3.06287 5.40963 3.13419 5.01641 3.32698 4.63803C3.6146 4.07354 4.07354 3.6146 4.63803 3.32698C5.01641 3.13419 5.40963 3.06287 5.80497 3.03057C6.17955 2.99997 6.63431 2.99998 7.16146 3ZM5.96784 5.02393C5.69617 5.04612 5.59546 5.0838 5.54601 5.109C5.35785 5.20487 5.20487 5.35785 5.109 5.54601C5.0838 5.59546 5.04612 5.69617 5.02393 5.96784C5.00078 6.25117 5 6.62345 5 7.2V13.2C5 14.0566 5.00078 14.6389 5.03755 15.089C5.07337 15.5274 5.1383 15.7516 5.21799 15.908C5.40974 16.2843 5.7157 16.5903 6.09202 16.782C6.24842 16.8617 6.47262 16.9266 6.91104 16.9625C7.36113 16.9992 7.94342 17 8.8 17H15.2C16.0566 17 16.6389 16.9992 17.089 16.9625C17.5274 16.9266 17.7516 16.8617 17.908 16.782C18.2843 16.5903 18.5903 16.2843 18.782 15.908C18.8617 15.7516 18.9266 15.5274 18.9625 15.089C18.9992 14.6389 19 14.0566 19 13.2V10.8C19 9.94342 18.9992 9.36113 18.9625 8.91104C18.9266 8.47262 18.8617 8.24842 18.782 8.09202C18.5903 7.7157 18.2843 7.40974 17.908 7.21799C17.7516 7.1383 17.5274 7.07337 17.089 7.03755C16.6389 7.00078 16.0566 7 15.2 7H13.1473C12.0773 7 11.0905 6.42286 10.5659 5.49026C10.3956 5.18742 10.0751 5 9.72765 5H7.2C6.62345 5 6.25117 5.00078 5.96784 5.02393Z" fill="#515164"/>
</svg>
