<svg width="24" height="24" viewBox="0 0 24 24" fill="none" xmlns="http://www.w3.org/2000/svg">
<path d="M15.1189 9.38128C15.4606 9.72299 15.4606 10.277 15.1189 10.6187L14.6126 11.125H17.0002C17.4835 11.125 17.8752 11.5168 17.8752 12C17.8752 12.4832 17.4835 12.875 17.0002 12.875H14.6126L15.1189 13.3813C15.4606 13.723 15.4606 14.277 15.1189 14.6187C14.7772 14.9604 14.2232 14.9604 13.8815 14.6187L11.8815 12.6187C11.7174 12.4546 11.6252 12.2321 11.6252 12C11.6252 11.7679 11.7174 11.5454 11.8815 11.3813L13.8815 9.38128C14.2232 9.03957 14.7772 9.03957 15.1189 9.38128Z" fill="#515164"/>
<path d="M7 5C4.79086 5 3 6.79086 3 9V15C3 17.2091 4.79086 19 7 19H17C19.2091 19 21 17.2091 21 15V9C21 6.79086 19.2091 5 17 5H7ZM8 7L8 17H7C5.89543 17 5 16.1046 5 15V9C5 7.89543 5.89543 7 7 7H8ZM10 17L10 7H17C18.1046 7 19 7.89543 19 9V15C19 16.1046 18.1046 17 17 17H10Z" fill="#515164"/>
</svg>
