<svg width="24" height="24" viewBox="0 0 24 24" fill="none" xmlns="http://www.w3.org/2000/svg">
<path d="M10.4393 4.15373C12.2546 3.79265 14.1389 4.07216 15.7712 4.94464C17.4035 5.81712 18.6827 7.22859 19.391 8.93854C20.0993 10.6485 20.1928 12.5511 19.6555 14.3223C19.1182 16.0934 17.9835 17.6235 16.4446 18.6518C14.9056 19.68 13.0578 20.1429 11.2159 19.9615C9.37393 19.7801 7.65189 18.9656 6.34314 17.6569C5.95262 17.2663 5.95262 16.6332 6.34314 16.2427C6.73367 15.8521 7.36683 15.8521 7.75736 16.2427C8.73892 17.2242 10.0304 17.8351 11.4119 17.9711C12.7933 18.1072 14.1792 17.76 15.3334 16.9888C16.4876 16.2176 17.3387 15.0701 17.7416 13.7417C18.1446 12.4134 18.0745 10.9864 17.5433 9.70391C17.0121 8.42144 16.0526 7.36285 14.8284 6.70848C13.6042 6.05412 12.1909 5.84449 10.8295 6.1153C9.468 6.38611 8.24256 7.12061 7.36193 8.19365C6.91677 8.73609 6.57364 9.34808 6.34315 10H7.00003C7.40449 10 7.76913 10.2436 7.92391 10.6173C8.07869 10.991 7.99313 11.4211 7.70714 11.7071L5.70714 13.7071C5.31661 14.0976 4.68345 14.0976 4.29292 13.7071L2.29292 11.7071C2.00692 11.4211 1.92137 10.991 2.07615 10.6173C2.23093 10.2436 2.59557 10 3.00003 10H4.25403C4.54291 8.88125 5.07278 7.83038 5.81591 6.92487C6.99008 5.49415 8.624 4.51481 10.4393 4.15373Z" fill="#515164"/>
<path d="M12 8C12.5523 8 13 8.44772 13 9V11.4197L15.9961 13.1318C16.4757 13.4058 16.6423 14.0166 16.3682 14.4961C16.0942 14.9757 15.4834 15.1423 15.0039 14.8682L11.5039 12.8682C11.1923 12.6902 11 12.3589 11 12V9C11 8.44772 11.4477 8 12 8Z" fill="#515164"/>
</svg>
