<svg width="24" height="24" viewBox="0 0 24 24" fill="none" xmlns="http://www.w3.org/2000/svg">
<path d="M13.1625 5.55924C12.4671 5.06253 11.5329 5.06253 10.8375 5.55924L6.83752 8.41638C6.31193 8.79181 6 9.39795 6 10.0438V16C6 17.1046 6.89543 18 8 18H9V15.5C9 13.8431 10.3431 12.5 12 12.5C13.6569 12.5 15 13.8431 15 15.5V18H16C17.1046 18 18 17.1046 18 16V10.0438C18 9.39795 17.6881 8.79181 17.1625 8.41638L13.1625 5.55924ZM9.67505 3.93177C11.0658 2.93835 12.9342 2.93835 14.325 3.93177L18.325 6.78892C19.3761 7.53976 20 8.75205 20 10.0438V16C20 18.2091 18.2091 20 16 20H15C13.8954 20 13 19.1046 13 18V15.5C13 14.9477 12.5523 14.5 12 14.5C11.4477 14.5 11 14.9477 11 15.5V18C11 19.1046 10.1046 20 9 20H8C5.79086 20 4 18.2091 4 16V10.0438C4 8.75205 4.62386 7.53976 5.67505 6.78892L9.67505 3.93177Z" fill="#515164"/>
</svg>
