<svg width="24" height="24" viewBox="0 0 24 24" fill="none" xmlns="http://www.w3.org/2000/svg">
<path d="M7 13.9208C7 13.9208 6.99875 13.9157 6.99621 13.9099C6.99079 13.8974 6.97921 13.8778 6.95803 13.8558C5.74656 12.5981 5 10.8852 5 9C5 5.13401 8.13401 2 12 2C15.866 2 19 5.13401 19 9C19 10.8852 18.2534 12.5981 17.042 13.8558C17.0208 13.8778 17.0092 13.8974 17.0038 13.9099C17.0013 13.9157 17 13.9208 17 13.9208V17C17 19.2091 15.2091 21 13 21H11C8.79086 21 7 19.2091 7 17V13.9208ZM7 9C7 10.3473 7.53153 11.5683 8.39845 12.4683C8.74727 12.8304 9 13.3383 9 13.9192V15H11.0001V12.0353L9.94541 11.3322C9.48588 11.0258 9.3617 10.4049 9.66806 9.94541C9.97441 9.48588 10.5953 9.3617 11.0548 9.66806L12.0001 10.2983L12.9454 9.66806C13.4049 9.3617 14.0258 9.48588 14.3322 9.94541C14.6385 10.4049 14.5143 11.0258 14.0548 11.3322L13.0001 12.0353V15H15V13.9192C15 13.3383 15.2527 12.8304 15.6015 12.4683C16.4685 11.5683 17 10.3473 17 9C17 6.23858 14.7614 4 12 4C9.23858 4 7 6.23858 7 9ZM12.0001 17.0001L11.9853 17H9C9 18.1046 9.89543 19 11 19H13C14.1046 19 15 18.1046 15 17H12.0149L12.0001 17.0001Z" fill="#515164"/>
</svg>
