<svg width="24" height="24" viewBox="0 0 24 24" fill="none" xmlns="http://www.w3.org/2000/svg">
<path d="M4 11.4666C2.96551 10.7553 2.40836 9.43073 2.78797 8.10208L3.41682 5.90112C3.90745 4.18391 5.47699 3 7.26291 3H16.7371C18.523 3 20.0926 4.18391 20.5832 5.90112L21.212 8.10208C21.5917 9.43074 21.0345 10.7553 20 11.4666V16C20 18.2091 18.2091 20 16 20H15C13.8954 20 13 19.1046 13 18V16C13 15.4477 12.5523 15 12 15C11.4477 15 11 15.4477 11 16V18C11 19.1046 10.1046 20 9 20H8C5.79086 20 4 18.2091 4 16V11.4666ZM5.33987 6.45056L4.71102 8.65152C4.51794 9.3273 5.02536 10 5.72818 10C6.12887 10 6.49517 9.77361 6.67436 9.41523L7.10558 8.55279C7.27497 8.214 7.62124 8 8.00001 8C8.37878 8 8.72504 8.214 8.89444 8.55279L9.44722 9.65836C9.55191 9.86774 9.76592 10 10 10C10.2341 10 10.4481 9.86774 10.5528 9.65836L11.1056 8.55279C11.275 8.214 11.6212 8 12 8C12.3788 8 12.725 8.214 12.8944 8.55279L13.4472 9.65836C13.5519 9.86774 13.7659 10 14 10C14.2341 10 14.4481 9.86774 14.5528 9.65836L15.1056 8.55279C15.275 8.214 15.6212 8 16 8C16.3788 8 16.725 8.214 16.8944 8.55279L17.3257 9.41523C17.5049 9.77361 17.8712 10 18.2718 10C18.9747 10 19.4821 9.3273 19.289 8.65152L18.6602 6.45056C18.4148 5.59196 17.6301 5 16.7371 5H7.26291C6.36995 5 5.58518 5.59195 5.33987 6.45056ZM7.96417 11.0281C7.45487 11.574 6.75704 11.9205 6 11.9879V16C6 17.1046 6.89543 18 8 18H9V16C9 14.3431 10.3431 13 12 13C13.6569 13 15 14.3431 15 16V18H16C17.1046 18 18 17.1046 18 16V11.9879C17.243 11.9205 16.5451 11.574 16.0358 11.0281C15.5451 11.6351 14.8003 12 14 12C13.219 12 12.4908 11.6525 12 11.0715C11.5092 11.6525 10.781 12 10 12C9.19976 12 8.45494 11.6351 7.96417 11.0281Z" fill="#515164"/>
</svg>
