<svg width="24" height="24" viewBox="0 0 24 24" fill="none" xmlns="http://www.w3.org/2000/svg">
<path d="M9 12.5C9 11.9477 9.44772 11.5 10 11.5H12.5C13.0523 11.5 13.5 11.9477 13.5 12.5C13.5 13.0523 13.0523 13.5 12.5 13.5H10C9.44772 13.5 9 13.0523 9 12.5Z" fill="#515164"/>
<path d="M17.6509 13.4292C17.6176 13.5177 17.5817 13.6006 17.5431 13.6778C17.3954 13.9731 17.2212 14.1582 17.0164 14.2787C16.8064 14.4022 16.4918 14.5 16 14.5C15.4477 14.5 15 14.9477 15 15.5C15 16.0523 15.4477 16.5 16 16.5C16.7582 16.5 17.4436 16.3478 18.0305 16.0026C18.6226 15.6543 19.0421 15.1519 19.3319 14.5722C19.8841 13.4679 20 12.0054 20 10.5C20 8.84315 18.6569 7.5 17 7.5C15.3431 7.5 14 8.84315 14 10.5C14 12.1569 15.3431 13.5 17 13.5C17.2235 13.5 17.4413 13.4756 17.6509 13.4292ZM16 10.5C16 9.94772 16.4477 9.5 17 9.5C17.5523 9.5 18 9.94772 18 10.5C18 11.0523 17.5523 11.5 17 11.5C16.4477 11.5 16 11.0523 16 10.5Z" fill="#515164"/>
<path d="M8 8.5C8 7.94772 7.55228 7.5 7 7.5C6.44772 7.5 6 7.94772 6 8.5C6 8.67477 5.90255 8.93324 5.66789 9.16789C5.43324 9.40255 5.17477 9.5 5 9.5C4.44772 9.5 4 9.94772 4 10.5C4 11.0523 4.44772 11.5 5 11.5C5.35228 11.5 5.68931 11.4266 6 11.3025V15.5C6 16.0523 6.44772 16.5 7 16.5C7.55228 16.5 8 16.0523 8 15.5V8.5Z" fill="#515164"/>
</svg>
