<svg width="24" height="24" viewBox="0 0 24 24" fill="none" xmlns="http://www.w3.org/2000/svg">
<path fill-rule="evenodd" clip-rule="evenodd" d="M5 4C3.89543 4 3 4.89543 3 6V18C3 19.1046 3.89543 20 5 20H9C10.1046 20 11 19.1046 11 18V6C11 4.89543 10.1046 4 9 4H5ZM5 6L9 6V18H5V6Z" fill="#515164"/>
<path fill-rule="evenodd" clip-rule="evenodd" d="M15 4C13.8954 4 13 4.89543 13 6V18C13 19.1046 13.8954 20 15 20H19C20.1046 20 21 19.1046 21 18V6C21 4.89543 20.1046 4 19 4H15ZM15 6L19 6V18H15V6Z" fill="#515164"/>
</svg>
