<svg width="24" height="24" viewBox="0 0 24 24" fill="none" xmlns="http://www.w3.org/2000/svg">
<path d="M4 5C4.55228 5 5 5.44772 5 6V15C5 16.1046 5.89543 17 7 17H20C20.5523 17 21 17.4477 21 18C21 18.5523 20.5523 19 20 19H7C4.79086 19 3 17.2091 3 15V6C3 5.44772 3.44772 5 4 5Z" fill="#515164"/>
<path d="M17 9C16.4477 9 16 8.55228 16 8C16 7.44772 16.4477 7 17 7H20C20.5523 7 21 7.44772 21 8V11C21 11.5523 20.5523 12 20 12C19.4477 12 19 11.5523 19 11V10.4142L16.0607 13.3536C15.4749 13.9393 14.5251 13.9393 13.9393 13.3536L12 11.4142L8.70711 14.7071C8.31658 15.0976 7.68342 15.0976 7.29289 14.7071C6.90237 14.3166 6.90237 13.6834 7.29289 13.2929L10.9393 9.64645C11.5251 9.06066 12.4749 9.06066 13.0607 9.64645L15 11.5858L17.5858 9H17Z" fill="#515164"/>
</svg>
