<svg width="24" height="24" viewBox="0 0 24 24" fill="none" xmlns="http://www.w3.org/2000/svg">
<path d="M6.12004 5.74278C5.59455 4.42905 6.56206 3 7.97699 3H16.0229C17.4379 3 18.4054 4.42905 17.8799 5.74278L16.6955 8.70381C16.5663 9.02669 16.5 9.37125 16.5 9.71901C16.5 10.3269 16.7026 10.9174 17.0758 11.3972L18.534 13.2721C19.5558 14.5858 18.6196 16.5 16.9553 16.5H13V20C13 20.5523 12.5522 21 12 21C11.4477 21 11 20.5523 11 20V16.5H7.0446C5.3803 16.5 4.44411 14.5858 5.46589 13.2721L6.92415 11.3972C7.29734 10.9174 7.49996 10.3269 7.49996 9.71901C7.49996 9.37125 7.4336 9.02669 7.30445 8.70381L6.12004 5.74278ZM9.49996 9.71901C9.49996 10.7716 9.1491 11.7942 8.50286 12.6251L7.0446 14.5L16.9553 14.5L15.4971 12.6251C14.8508 11.7942 14.5 10.7716 14.5 9.71901C14.5 9.11681 14.6149 8.52015 14.8385 7.96103L16.0229 5L7.97699 5L9.1614 7.96103C9.38505 8.52015 9.49996 9.11681 9.49996 9.71901Z" fill="#515164"/>
</svg>
