<svg width="24" height="24" viewBox="0 0 24 24" fill="none" xmlns="http://www.w3.org/2000/svg">
<path d="M12 6C8.68629 6 6 8.68629 6 12C6 15.3137 8.68629 18 12 18C15.3137 18 18 15.3137 18 12C18 11.4477 18.4477 11 19 11C19.5523 11 20 11.4477 20 12C20 16.4183 16.4183 20 12 20C7.58172 20 4 16.4183 4 12C4 7.58172 7.58172 4 12 4C12.5523 4 13 4.44772 13 5C13 5.55228 12.5523 6 12 6Z" fill="#515164"/>
<path d="M10 9C10.5523 9 11 9.44772 11 10V11C11 11.5523 10.5523 12 10 12C9.44772 12 9 11.5523 9 11V10C9 9.44772 9.44772 9 10 9Z" fill="#515164"/>
<path d="M14 9C14.5523 9 15 9.44772 15 10V11C15 11.5523 14.5523 12 14 12C13.4477 12 13 11.5523 13 11V10C13 9.44772 13.4477 9 14 9Z" fill="#515164"/>
<path d="M8.71913 13.3753C9.06414 12.944 9.69343 12.8741 10.1247 13.2191C11.2211 14.0962 12.7789 14.0962 13.8753 13.2191C14.3066 12.8741 14.9359 12.944 15.2809 13.3753C15.6259 13.8066 15.556 14.4359 15.1247 14.7809C13.2979 16.2423 10.7021 16.2423 8.8753 14.7809C8.44404 14.4359 8.37412 13.8066 8.71913 13.3753Z" fill="#515164"/>
<path d="M18 2.5C18.5523 2.5 19 2.94772 19 3.5V5H20.5C21.0523 5 21.5 5.44772 21.5 6C21.5 6.55228 21.0523 7 20.5 7H19V8.5C19 9.05228 18.5523 9.5 18 9.5C17.4477 9.5 17 9.05228 17 8.5V7H15.5C14.9477 7 14.5 6.55228 14.5 6C14.5 5.44772 14.9477 5 15.5 5H17V3.5C17 2.94772 17.4477 2.5 18 2.5Z" fill="#515164"/>
</svg>
