<svg width="24" height="24" viewBox="0 0 24 24" fill="none" xmlns="http://www.w3.org/2000/svg">
<path d="M11 3C6.58172 3 3 6.58172 3 11C3 15.4183 6.58172 19 11 19C12.8487 19 14.551 18.3729 15.9056 17.3199L18.2929 19.7071C18.6834 20.0976 19.3166 20.0976 19.7071 19.7071C20.0976 19.3166 20.0976 18.6834 19.7071 18.2929L17.3199 15.9056C18.3729 14.551 19 12.8487 19 11C19 6.58172 15.4183 3 11 3ZM15.7464 14.6709C15.0873 13.9239 14.2907 13.3735 13.429 13.0199C14.0893 12.3833 14.5 11.4896 14.5 10.5C14.5 8.567 12.933 7 11 7C9.067 7 7.5 8.567 7.5 10.5C7.5 11.4897 7.91076 12.3834 8.5711 13.02C7.70935 13.3736 6.91275 13.924 6.25375 14.671C5.46779 13.6564 5 12.3828 5 11C5 7.68629 7.68629 5 11 5C14.3137 5 17 7.68629 17 11C17 12.3827 16.5323 13.6562 15.7464 14.6709ZM7.72488 16.0281C9.44237 14.0483 12.5577 14.0482 14.2753 16.028C13.3335 16.6427 12.2085 17 11 17C9.79157 17 8.66658 16.6428 7.72488 16.0281ZM11 9C11.8284 9 12.5 9.67157 12.5 10.5C12.5 11.3284 11.8284 12 11 12C10.1716 12 9.5 11.3284 9.5 10.5C9.5 9.67157 10.1716 9 11 9Z" fill="#515164"/>
</svg>
