<svg width="24" height="24" viewBox="0 0 24 24" fill="none" xmlns="http://www.w3.org/2000/svg">
<path d="M13.0378 5.00332C13.035 5.5556 12.5851 6.00104 12.0328 5.99825C9.65863 5.98622 7.40587 7.39279 6.44985 9.72057C5.88152 11.1044 5.86786 12.5754 6.30583 13.8915C6.48758 14.4377 6.747 14.9566 7.07648 15.4306L7.96821 14.8473C8.30669 14.6259 8.74521 14.6302 9.07929 14.8582C9.41337 15.0862 9.57721 15.493 9.49442 15.8889L8.91544 18.6575C8.86115 18.9171 8.70596 19.1445 8.48401 19.2896C8.26205 19.4348 7.99152 19.4859 7.73192 19.4316L4.96339 18.8526C4.56749 18.7698 4.26045 18.4567 4.18543 18.0592C4.11042 17.6618 4.28221 17.2583 4.6207 17.0369L5.40222 16.5257C4.97836 15.9067 4.64404 15.2319 4.40815 14.523C3.82466 12.7696 3.8427 10.8042 4.5998 8.96076C5.87588 5.85365 8.88202 3.98226 12.0429 3.99827C12.5952 4.00107 13.0406 4.45105 13.0378 5.00332Z" fill="#515164"/>
<path d="M19.1691 8.44955L20.0356 7.88275C20.3741 7.66135 20.5459 7.25786 20.4709 6.86041C20.3959 6.46297 20.0888 6.14984 19.6929 6.06705L16.9244 5.48807C16.6648 5.43378 16.3943 5.48484 16.1723 5.63002C15.9504 5.7752 15.7952 6.0026 15.7409 6.2622L15.1619 9.03073C15.0791 9.42663 15.243 9.83342 15.577 10.0614C15.9111 10.2894 16.3496 10.2937 16.6881 10.0723L17.4792 9.55488C18.1251 11.0027 18.1992 12.6991 17.5502 14.2794C16.5941 16.6072 14.3414 18.0138 11.9672 18.0018C11.4149 17.999 10.965 18.4444 10.9622 18.9967C10.9594 19.549 11.4048 19.9989 11.9571 20.0017C15.118 20.0178 18.1241 18.1464 19.4002 15.0393C20.3097 12.8247 20.1524 10.4367 19.1691 8.44955Z" fill="#515164"/>
</svg>
