<svg width="24" height="24" viewBox="0 0 24 24" fill="none" xmlns="http://www.w3.org/2000/svg">
<path d="M16.7929 6.20709C17.2308 6.64499 17.2308 7.35497 16.7929 7.79288L8.0286 16.5572L6.17852 16.8215L6.44282 14.9714L15.2071 6.20709C15.645 5.76919 16.355 5.76919 16.7929 6.20709ZM18.2071 4.79288C16.9882 3.57393 15.0119 3.57392 13.7929 4.79288L4.7929 13.7929C4.63991 13.9459 4.54066 14.1444 4.51006 14.3586L4.01006 17.8586C3.96555 18.1702 4.07034 18.4845 4.2929 18.7071C4.51547 18.9297 4.82984 19.0344 5.14143 18.9899L8.64143 18.4899C8.85563 18.4593 9.05412 18.3601 9.20712 18.2071L18.2071 9.20709C19.4261 7.98814 19.4261 6.01183 18.2071 4.79288Z" fill="#515164"/>
<path d="M12 19C12 18.4477 12.4477 18 13 18H18C18.5523 18 19 18.4477 19 19C19 19.5523 18.5523 20 18 20H13C12.4477 20 12 19.5523 12 19Z" fill="#515164"/>
</svg>
