<svg width="24" height="24" viewBox="0 0 24 24" fill="none" xmlns="http://www.w3.org/2000/svg">
<path d="M17.1056 5.55279C17.3526 5.05881 17.9532 4.85859 18.4472 5.10558L18 6C18.4472 5.10558 18.4472 5.10558 18.4472 5.10558L18.4487 5.10632L18.4504 5.10717L18.4543 5.10916L18.4644 5.11431L18.493 5.12937C18.5158 5.14152 18.5458 5.15793 18.5821 5.17864C18.6544 5.21997 18.7523 5.27884 18.8672 5.35545C19.0954 5.50756 19.3999 5.73569 19.7071 6.0429C20.3161 6.65189 21 7.64125 21 9V15.0002C21 17.2095 19.209 19 17 19H7C4.79086 19 3 17.2091 3 15V9C3 6.79087 4.79086 5 7 5H9C9.55228 5 10 5.44772 10 6C10 6.55229 9.55228 7 9 7H7C5.89543 7 5 7.89543 5 9V15C5 16.1046 5.89543 17 7 17H17C18.1047 17 19 16.1047 19 15.0002V9C19 8.35876 18.6839 7.84811 18.2929 7.45711C18.1001 7.26432 17.9046 7.11745 17.7578 7.01955C17.6852 6.97117 17.6268 6.93629 17.5898 6.91512C17.5713 6.90458 17.5584 6.89756 17.5519 6.89408L17.5477 6.89189L17.5503 6.8932L17.5519 6.89408L17.5477 6.89189C17.0574 6.64335 16.8594 6.04509 17.1056 5.55279Z" fill="#515164"/>
<path d="M15.5369 3.15634C16.0028 3.45285 16.1402 4.07094 15.8437 4.53688L12.3437 10.0369C12.0472 10.5028 11.4291 10.6402 10.9631 10.3437C10.4972 10.0472 10.3598 9.42907 10.6563 8.96313L14.1563 3.46313C14.4528 2.99719 15.0709 2.85983 15.5369 3.15634Z" fill="#515164"/>
<path d="M7 15C7 14.4477 7.44772 14 8 14H16C16.5523 14 17 14.4477 17 15C17 15.5523 16.5523 16 16 16H8C7.44772 16 7 15.5523 7 15Z" fill="#515164"/>
</svg>
