<svg width="24" height="24" viewBox="0 0 24 24" fill="none" xmlns="http://www.w3.org/2000/svg">
<path d="M12 6C8.68629 6 6 8.68629 6 12C6 15.3137 8.68629 18 12 18C15.3137 18 18 15.3137 18 12C18 8.68629 15.3137 6 12 6ZM4 12C4 7.58172 7.58172 4 12 4C16.4183 4 20 7.58172 20 12C20 16.4183 16.4183 20 12 20C7.58172 20 4 16.4183 4 12Z" fill="#515164"/>
<path d="M11.6965 8.07176C11.8878 7.97608 12.1122 7.97608 12.3035 8.07176C12.4707 8.15536 12.5574 8.29676 12.5947 8.36053C12.6348 8.42929 12.6753 8.51548 12.7122 8.59397L13.4864 10.239L15.2091 10.5031C15.2909 10.5157 15.3839 10.5299 15.461 10.5493C15.5368 10.5684 15.6946 10.6139 15.8202 10.7529C15.9586 10.9061 16.0195 11.1108 15.9945 11.3099C15.972 11.4884 15.8761 11.6143 15.8266 11.6751C15.7762 11.7368 15.71 11.8044 15.6503 11.8653L14.3909 13.152L14.6889 14.9746C14.7031 15.0612 14.7185 15.1554 14.7245 15.235C14.7302 15.3108 14.738 15.4699 14.6553 15.6295C14.5613 15.811 14.3887 15.9478 14.1774 15.9889C13.9889 16.0256 13.8318 15.9619 13.7629 15.9319C13.6901 15.9002 13.6074 15.8545 13.5341 15.8141L12 14.9679L10.4659 15.8141C10.3926 15.8545 10.3099 15.9002 10.2371 15.9319C10.1682 15.9619 10.0111 16.0256 9.82255 15.9889C9.61135 15.9478 9.43869 15.811 9.34468 15.6295C9.26203 15.4699 9.26975 15.3108 9.27548 15.235C9.28149 15.1554 9.29691 15.0612 9.31109 14.9746L9.60912 13.152L8.34969 11.8653C8.29003 11.8044 8.22383 11.7368 8.17344 11.6751C8.1239 11.6143 8.02799 11.4884 8.00552 11.3099C7.98045 11.1108 8.04138 10.9061 8.17983 10.7529C8.30536 10.6139 8.46322 10.5684 8.53905 10.5493C8.61614 10.5299 8.70912 10.5157 8.79093 10.5031L10.5136 10.239L11.2878 8.59397C11.3247 8.51548 11.3652 8.42929 11.4053 8.36053C11.4426 8.29676 11.5293 8.15536 11.6965 8.07176Z" fill="#515164"/>
</svg>
