<svg width="24" height="24" viewBox="0 0 24 24" fill="none" xmlns="http://www.w3.org/2000/svg">
<path d="M11.3929 4.14353C11.7755 3.95216 12.2244 3.95216 12.6071 4.14353C12.9414 4.31072 13.1148 4.59352 13.1893 4.72105C13.2696 4.85858 13.3506 5.03096 13.4244 5.18795L13.4375 5.2158L14.9728 8.47808L18.3875 9.0016L18.4181 9.00629C18.5817 9.03131 18.7677 9.05975 18.9219 9.09864C19.0735 9.13689 19.3893 9.22777 19.6403 9.50572C19.9172 9.81228 20.0391 10.2216 19.9889 10.6198C19.944 10.9768 19.7522 11.2287 19.6531 11.3501C19.5523 11.4737 19.4199 11.6088 19.3006 11.7307L19.3006 11.7307L19.2792 11.7526L16.7817 14.304L17.3729 17.9192L17.3778 17.9493C17.4062 18.1224 17.437 18.3108 17.449 18.47C17.4605 18.6216 17.4759 18.9398 17.3106 19.2589C17.1226 19.622 16.7773 19.8956 16.3549 19.9778C15.9777 20.0511 15.6636 19.9238 15.5258 19.8638C15.3802 19.8004 15.2147 19.7091 15.0682 19.6282L15.0409 19.6131L12 17.9357L8.95907 19.6131L8.9318 19.6282C8.78521 19.7091 8.61981 19.8004 8.47414 19.8638C8.33636 19.9238 8.02225 20.0511 7.64508 19.9778C7.22268 19.8956 6.87736 19.622 6.68934 19.2589C6.52404 18.9398 6.53949 18.6216 6.55093 18.47C6.56295 18.3108 6.5938 18.1224 6.62216 17.9493L6.62216 17.9493L6.62708 17.9192L7.21823 14.304L4.72079 11.7526L4.69935 11.7307C4.58004 11.6089 4.44764 11.4737 4.34687 11.3501C4.24779 11.2287 4.05596 10.9768 4.01101 10.6198C3.96088 10.2216 4.08274 9.81228 4.35964 9.50572C4.61069 9.22777 4.92642 9.13689 5.07807 9.09864C5.23225 9.05975 5.41821 9.03131 5.58182 9.00629L5.58183 9.00629L5.61249 9.0016L9.02719 8.47808L10.5624 5.2158L10.5755 5.18794C10.6493 5.03096 10.7304 4.85858 10.8107 4.72105C10.8851 4.59352 11.0586 4.31072 11.3929 4.14353Z" fill="#515164"/>
</svg>
