<svg width="24" height="24" viewBox="0 0 24 24" fill="none" xmlns="http://www.w3.org/2000/svg">
<path d="M4 10.5C4 8.84315 5.34315 7.5 7 7.5C8.65685 7.5 10 8.84315 10 10.5V15.5C10 16.0523 9.55228 16.5 9 16.5C8.44772 16.5 8 16.0523 8 15.5V13.5H6V15.5C6 16.0523 5.55228 16.5 5 16.5C4.44772 16.5 4 16.0523 4 15.5V10.5ZM6 11.5H8V10.5C8 9.94772 7.55228 9.5 7 9.5C6.44772 9.5 6 9.94772 6 10.5V11.5Z" fill="#515164"/>
<path d="M14 8.5C14 7.94772 14.4477 7.5 15 7.5H19C19.3565 7.5 19.686 7.68976 19.8649 7.99807C20.0438 8.30639 20.0451 8.68664 19.8682 8.99614L16.7232 14.5H19C19.5523 14.5 20 14.9477 20 15.5C20 16.0523 19.5523 16.5 19 16.5H15C14.6435 16.5 14.314 16.3102 14.1351 16.0019C13.9562 15.6936 13.9549 15.3134 14.1318 15.0039L17.2768 9.5H15C14.4477 9.5 14 9.05228 14 8.5ZM11 12.5C11 11.9477 11.4477 11.5 12 11.5H13C13.5523 11.5 14 11.9477 14 12.5C14 13.0523 13.5523 13.5 13 13.5H12C11.4477 13.5 11 13.0523 11 12.5Z" fill="#515164"/>
</svg>
