<svg width="24" height="24" viewBox="0 0 24 24" fill="none" xmlns="http://www.w3.org/2000/svg">
<path d="M13.7119 18.0125C13.2787 18.6314 12.5707 19 11.8152 19C10.5365 19 9.49998 17.9634 9.49998 16.6848V15H6.06154C4.10982 15 2.67775 13.1658 3.15111 11.2724L3.96174 8.02986C4.40691 6.24919 6.00684 5 7.84231 5H18C19.6568 5 21 6.34315 21 8V11C21 12.6569 19.6568 14 18 14H16.5206L13.7119 18.0125ZM17 12H18C18.5523 12 19 11.5523 19 11V8C19 7.44771 18.5523 7 18 7H17V12ZM15 7H7.84231C6.92458 7 6.12461 7.62459 5.90203 8.51493L5.09139 11.7575C4.93361 12.3886 5.41096 13 6.06154 13H10.5C11.0523 13 11.5 13.4477 11.5 14V16.6848C11.5 16.8589 11.6411 17 11.8152 17C11.9181 17 12.0145 16.9498 12.0734 16.8655L15 12.6848V7Z" fill="#515164"/>
</svg>
