<svg width="24" height="24" viewBox="0 0 24 24" fill="none" xmlns="http://www.w3.org/2000/svg">
<path d="M12 9.33008C12.5523 9.33008 13 9.77779 13 10.3301V12.4083L15.4856 13.7892C15.9684 14.0575 16.1423 14.6663 15.8741 15.149C15.6059 15.6318 14.9971 15.8058 14.5143 15.5376L11 13.5851V10.3301C11 9.77779 11.4477 9.33008 12 9.33008Z" fill="#515164"/>
<path d="M9.99997 2C9.44768 2 8.99997 2.44772 8.99997 3C8.99997 3.55228 9.44768 4 9.99997 4H11V5.06189C7.05366 5.55399 3.99997 8.92038 3.99997 13C3.99997 17.4183 7.58169 21 12 21C16.4182 21 20 17.4183 20 13C20 8.92038 16.9463 5.55399 13 5.06189V4H14C14.5523 4 15 3.55228 15 3C15 2.44772 14.5523 2 14 2H9.99997ZM5.99997 13C5.99997 9.68629 8.68626 7 12 7C15.3137 7 18 9.68629 18 13C18 16.3137 15.3137 19 12 19C8.68626 19 5.99997 16.3137 5.99997 13Z" fill="#515164"/>
<path d="M18.3829 5.29289C18.7734 4.90237 19.4066 4.90237 19.7971 5.29289L21.2113 6.70711C21.6018 7.09763 21.6018 7.7308 21.2113 8.12132C20.8208 8.51184 20.1876 8.51184 19.7971 8.12132L18.3829 6.70711C17.9924 6.31658 17.9924 5.68342 18.3829 5.29289Z" fill="#515164"/>
<path d="M5.61705 5.29289C5.22652 4.90237 4.59336 4.90237 4.20283 5.29289L2.78862 6.70711C2.3981 7.09763 2.3981 7.7308 2.78862 8.12132C3.17915 8.51184 3.81231 8.51184 4.20283 8.12132L5.61705 6.70711C6.00757 6.31658 6.00757 5.68342 5.61705 5.29289Z" fill="#515164"/>
</svg>
