<svg width="24" height="24" viewBox="0 0 24 24" fill="none" xmlns="http://www.w3.org/2000/svg">
<path d="M8 5C8.55228 5 9 5.44772 9 6V11C9 12.6569 10.3431 14 12 14C13.6569 14 15 12.6569 15 11V6C15 5.44772 15.4477 5 16 5C16.5523 5 17 5.44772 17 6V11C17 13.7614 14.7614 16 12 16C9.23858 16 7 13.7614 7 11V6C7 5.44772 7.44772 5 8 5Z" fill="#515164"/>
<path d="M6 18C6 17.4477 6.44772 17 7 17H17C17.5523 17 18 17.4477 18 18C18 18.5523 17.5523 19 17 19H7C6.44772 19 6 18.5523 6 18Z" fill="#515164"/>
</svg>
