<svg width="24" height="24" viewBox="0 0 24 24" fill="none" xmlns="http://www.w3.org/2000/svg">
<path d="M5.73069 6.56364C5.90035 6.47879 6.09963 6.47879 6.26929 6.56364C6.424 6.64101 6.49992 6.76955 6.52486 6.81228C6.55287 6.86027 6.58 6.91804 6.59998 6.96057L6.99465 7.79922L7.86805 7.93312C7.91234 7.93987 7.97551 7.9495 8.03008 7.96326C8.08305 7.97662 8.22592 8.01524 8.34196 8.14372C8.46391 8.27873 8.51708 8.4583 8.49516 8.63242C8.47449 8.79658 8.3869 8.90778 8.35264 8.94977C8.31734 8.99306 8.27277 9.03852 8.24043 9.07151L7.59518 9.73071L7.74834 10.6673C7.75604 10.7143 7.76636 10.7771 7.77054 10.8325C7.7744 10.8836 7.78366 11.0256 7.7076 11.1725C7.62504 11.3319 7.47275 11.4532 7.28515 11.4897C7.11012 11.5237 6.96902 11.4638 6.92186 11.4433C6.87045 11.4209 6.81445 11.39 6.77478 11.368L5.99999 10.9406L5.2252 11.368C5.18553 11.39 5.12954 11.4209 5.07812 11.4433C5.03096 11.4638 4.88986 11.5237 4.71483 11.4897C4.52723 11.4532 4.37493 11.3319 4.29238 11.1725C4.21631 11.0256 4.22558 10.8836 4.22944 10.8325C4.23362 10.7771 4.24394 10.7143 4.25164 10.6673L4.4048 9.73071L3.75955 9.07151C3.72722 9.03853 3.68265 8.99306 3.64734 8.94977C3.61308 8.90778 3.52549 8.79658 3.50482 8.63242C3.4829 8.4583 3.53607 8.27873 3.65801 8.14372C3.77406 8.01524 3.91693 7.97662 3.9699 7.96326C4.02447 7.9495 4.08764 7.93987 4.13193 7.93312L5.00533 7.79922L5.4 6.96056C5.41998 6.91803 5.44711 6.86027 5.47512 6.81228C5.50006 6.76955 5.57598 6.64101 5.73069 6.56364Z" fill="#515164"/>
<path d="M17.7307 6.56364C17.9004 6.47879 18.0996 6.47879 18.2693 6.56364C18.424 6.64101 18.4999 6.76955 18.5249 6.81228C18.5529 6.86027 18.58 6.91804 18.6 6.96057L18.9946 7.79922L19.8681 7.93312C19.9123 7.93987 19.9755 7.9495 20.0301 7.96326C20.083 7.97662 20.2259 8.01524 20.342 8.14372C20.4639 8.27873 20.5171 8.4583 20.4952 8.63242C20.4745 8.79658 20.3869 8.90778 20.3526 8.94977C20.3173 8.99306 20.2728 9.03852 20.2404 9.07151L19.5952 9.73071L19.7483 10.6673C19.756 10.7143 19.7664 10.7771 19.7705 10.8325C19.7744 10.8836 19.7837 11.0256 19.7076 11.1725C19.625 11.3319 19.4727 11.4532 19.2851 11.4897C19.1101 11.5237 18.969 11.4638 18.9219 11.4433C18.8704 11.4209 18.8144 11.39 18.7748 11.368L18 10.9406L17.2252 11.368C17.1855 11.39 17.1295 11.4209 17.0781 11.4433C17.031 11.4638 16.8899 11.5237 16.7148 11.4897C16.5272 11.4532 16.3749 11.3319 16.2924 11.1725C16.2163 11.0256 16.2256 10.8836 16.2294 10.8325C16.2336 10.7771 16.2439 10.7143 16.2516 10.6673L16.4048 9.73071L15.7596 9.07151C15.7272 9.03853 15.6826 8.99306 15.6473 8.94977C15.6131 8.90778 15.5255 8.79658 15.5048 8.63242C15.4829 8.4583 15.5361 8.27873 15.658 8.14372C15.7741 8.01524 15.9169 7.97662 15.9699 7.96326C16.0245 7.9495 16.0876 7.93987 16.1319 7.93312L17.0053 7.79922L17.4 6.96056C17.42 6.91803 17.4471 6.86027 17.4751 6.81228C17.5001 6.76955 17.576 6.64101 17.7307 6.56364Z" fill="#515164"/>
<path d="M11.7307 3.56364C11.9004 3.47879 12.0996 3.47879 12.2693 3.56364C12.424 3.64101 12.4999 3.76955 12.5249 3.81228C12.5529 3.86027 12.58 3.91804 12.6 3.96057L12.9946 4.79922L13.8681 4.93312C13.9123 4.93987 13.9755 4.9495 14.0301 4.96326C14.083 4.97662 14.2259 5.01524 14.342 5.14372C14.4639 5.27873 14.5171 5.4583 14.4952 5.63242C14.4745 5.79658 14.3869 5.90778 14.3526 5.94977C14.3173 5.99306 14.2728 6.03852 14.2404 6.07151L13.5952 6.73071L13.7483 7.66735C13.756 7.71426 13.7664 7.77712 13.7705 7.83245C13.7744 7.88362 13.7837 8.02564 13.7076 8.17252C13.625 8.33195 13.4727 8.45323 13.2851 8.48971C13.1101 8.52374 12.969 8.46381 12.9219 8.44328C12.8704 8.42091 12.8144 8.38996 12.7748 8.36803L12 7.94065L11.2252 8.36803C11.1855 8.38996 11.1295 8.42091 11.0781 8.44328C11.031 8.46381 10.8899 8.52374 10.7148 8.48971C10.5272 8.45323 10.3749 8.33195 10.2924 8.17252C10.2163 8.02564 10.2256 7.88362 10.2294 7.83245C10.2336 7.77711 10.2439 7.71426 10.2516 7.66734L10.4048 6.73071L9.75955 6.07151C9.72722 6.03853 9.68265 5.99306 9.64734 5.94977C9.61308 5.90778 9.52549 5.79658 9.50482 5.63242C9.4829 5.4583 9.53607 5.27873 9.65801 5.14372C9.77406 5.01524 9.91693 4.97662 9.9699 4.96326C10.0245 4.9495 10.0876 4.93987 10.1319 4.93312L11.0053 4.79922L11.4 3.96056C11.42 3.91803 11.4471 3.86027 11.4751 3.81228C11.5001 3.76955 11.576 3.64101 11.7307 3.56364Z" fill="#515164"/>
<path d="M12 10C12.5523 10 13 10.4477 13 11V19C13 19.5523 12.5523 20 12 20C11.4477 20 11 19.5523 11 19V11C11 10.4477 11.4477 10 12 10Z" fill="#515164"/>
<path d="M5.05132 13.6838C5.22596 13.1598 5.79228 12.8767 6.31623 13.0513C7.69459 13.5108 10 15.5388 10 19C10 19.5523 9.55228 20 9 20C8.44772 20 8 19.5523 8 19C8 16.4612 6.30541 15.1559 5.68377 14.9487C5.15983 14.774 4.87667 14.2077 5.05132 13.6838Z" fill="#515164"/>
<path d="M18.9487 13.6838C18.774 13.1598 18.2077 12.8767 17.6838 13.0513C16.3054 13.5108 14 15.5388 14 19C14 19.5523 14.4477 20 15 20C15.5523 20 16 19.5523 16 19C16 16.4612 17.6946 15.1559 18.3162 14.9487C18.8402 14.774 19.1233 14.2077 18.9487 13.6838Z" fill="#515164"/>
</svg>
