<svg width="24" height="24" viewBox="0 0 24 24" fill="none" xmlns="http://www.w3.org/2000/svg">
<path d="M10.7213 3.568C11.413 2.82792 12.5866 2.82792 13.2783 3.568L14.2696 4.6286C14.6146 4.99773 15.1023 5.19973 15.6072 5.18267L17.0581 5.13364C18.0705 5.09942 18.9004 5.92932 18.8662 6.94174L18.8172 8.39262C18.8001 8.89758 19.0021 9.38527 19.3712 9.73026L20.4318 10.7215C21.1719 11.4132 21.1719 12.5869 20.4318 13.2786L19.3712 14.2698C19.0021 14.6148 18.8001 15.1025 18.8172 15.6075L18.8662 17.0583C18.9004 18.0708 18.0705 18.9007 17.0581 18.8664L15.6072 18.8174C15.1023 18.8003 14.6146 19.0024 14.2696 19.3715L13.2783 20.4321C12.5866 21.1722 11.413 21.1722 10.7213 20.4321L9.73001 19.3715C9.38502 19.0024 8.89733 18.8003 8.39238 18.8174L6.9415 18.8664C5.92908 18.9007 5.09918 18.0708 5.13339 17.0583L5.18242 15.6075C5.19949 15.1025 4.99748 14.6148 4.62836 14.2698L3.56776 13.2786C2.82767 12.5869 2.82767 11.4132 3.56776 10.7215L4.62836 9.73026C4.99748 9.38527 5.19949 8.89758 5.18242 8.39262L5.13339 6.94175C5.09918 5.92932 5.92908 5.09942 6.9415 5.13364L8.39238 5.18267C8.89733 5.19973 9.38502 4.99773 9.73001 4.6286L10.7213 3.568ZM15.3 10.6001C15.6314 10.1582 15.5418 9.53143 15.1 9.20006C14.6582 8.86869 14.0314 8.95823 13.7 9.40006L11.3918 12.4777L10.2071 11.293C9.81658 10.9024 9.18342 10.9024 8.79289 11.293C8.40237 11.6835 8.40237 12.3166 8.79289 12.7072L10.7929 14.7072C10.9979 14.9121 11.2817 15.0181 11.5709 14.9975C11.8601 14.977 12.1261 14.832 12.3 14.6001L15.3 10.6001Z" fill="#515164"/>
</svg>
