<svg width="24" height="24" viewBox="0 0 24 24" fill="none" xmlns="http://www.w3.org/2000/svg">
<path d="M3 9C3 6.79086 4.79086 5 7 5H17C19.2091 5 21 6.79086 21 9V15C21 17.2091 19.2091 19 17 19H7C4.79086 19 3 17.2091 3 15V9ZM7 7C5.89543 7 5 7.89543 5 9V15C5 16.1046 5.89543 17 7 17H17C18.1046 17 19 16.1046 19 15V9C19 7.89543 18.1046 7 17 7H7Z" fill="#515164"/>
<path d="M9.5073 8.1298C9.82081 7.95229 10.2056 7.95715 10.5145 8.14251L15.5145 11.1425C15.8157 11.3232 16 11.6487 16 12C16 12.3513 15.8157 12.6768 15.5145 12.8575L10.5145 15.8575C10.2056 16.0429 9.82081 16.0477 9.5073 15.8702C9.19379 15.6927 9 15.3603 9 15V9C9 8.63973 9.19379 8.30731 9.5073 8.1298ZM11 10.7662V13.2338L13.0563 12L11 10.7662Z" fill="#515164"/>
</svg>
