<svg fill="none" height="284" viewBox="0 0 284 284" width="284" xmlns="http://www.w3.org/2000/svg">
    <path
        d="m200.5 80.5c1.657 0 3 1.3431 3 3s-1.343 3-3 3c-1.086 0-2.036-.5766-2.563-1.4402-.048-.0941-.098-.1871-.151-.2789-.183-.3885-.286-.8227-.286-1.2809 0-1.6569 1.343-3 3-3zm-15 3c0 1.0682.112 2.1104.324 3.1155l-21.919 27.3975c-1.245-.334-2.554-.513-3.905-.513-3.901 0-7.454 1.489-10.122 3.93l-15.378-6.833v-.097c0-8.284-6.716-15-15-15s-15 6.716-15 15c0 .633.039 1.256.115 1.868l-22.615 13.188v-49.556c0-3.3137-2.6863-6-6.0001-6-3.3137 0-6 2.6863-6 6v59.897c-.0013.072-.0013.145 0 .217v53.76c-.0018.087-.0018.173 0 .26v20.866c0 3.314 2.6863 6 6 6h135.0001c3.314 0 6-2.686 6-6s-2.686-6-6-6h-129v-11.196l18.796-8.865c2.616 2.221 6.003 3.561 9.704 3.561 6.151 0 11.437-3.702 13.752-9h17.496c2.315 5.298 7.601 9 13.752 9 8.284 0 15-6.716 15-15 0-.483-.023-.96-.067-1.431l19.24-10.688c2.73 2.847 6.571 4.619 10.827 4.619 8.284 0 15-6.716 15-15s-6.716-15-15-15c-7.932 0-14.426 6.157-14.964 13.952l-20.931 11.627c-2.525-1.932-5.681-3.079-9.105-3.079-6.151 0-11.437 3.702-13.752 9h-17.496c-2.315-5.298-7.601-9-13.752-9-8.284 0-15.0001 6.716-15.0001 15 0 .222.0049.442.0144.662l-13.5143 6.374v-41.089l28.748-16.764c2.463 1.773 5.485 2.817 8.752 2.817 3.904 0 7.46-1.492 10.129-3.936l15.371 6.83v.106c0 8.284 6.716 15 15 15s15-6.716 15-15c0-2.524-.624-4.903-1.725-6.99l19.924-24.9038c2.161 1.2063 4.65 1.8938 7.301 1.8938 8.284 0 15-6.7157 15-15s-6.716-15-15-15-15 6.7157-15 15zm-72 90c0 1.657-1.343 3-3 3s-3-1.343-3-3 1.343-3 3-3 3 1.343 3 3zm43.722-46.135.04-.088.035-.08c.485-1.004 1.513-1.697 2.703-1.697 1.657 0 3 1.343 3 3s-1.343 3-3 3-3-1.343-3-3c0-.401.079-.785.222-1.135zm-40.311-15.349c-.261-.445-.411-.963-.411-1.516 0-1.657 1.343-3 3-3s3 1.343 3 3-1.343 3-3 3c-1.082 0-2.03-.573-2.558-1.431zm38.589 64.484c-1.657 0-3-1.343-3-3s1.343-3 3-3 3 1.343 3 3-1.343 3-3 3zm42.162-24.524c-.03-.133-.066-.265-.106-.397-.037-.187-.056-.381-.056-.579 0-1.657 1.343-3 3-3s3 1.343 3 3-1.343 3-3 3c-1.315 0-2.433-.846-2.838-2.024z"
        fill="#f5a51c" fill-opacity=".1" />
</svg>