<svg width="24" height="24" viewBox="0 0 24 24" fill="none" xmlns="http://www.w3.org/2000/svg">
<path fill-rule="evenodd" clip-rule="evenodd" d="M9 4C7.067 4 5.5 5.567 5.5 7.5V16.5C5.5 18.433 7.067 20 9 20H15V19.9974C17.7145 19.9128 20 17.7699 20 15C20 12.8062 18.5663 11.0057 16.6213 10.3096C16.8648 9.75586 17 9.14372 17 8.5C17 6.01472 14.9853 4 12.5 4H9ZM12.5 10C13.3284 10 14 9.32843 14 8.5C14 7.67157 13.3284 7 12.5 7H9C8.72386 7 8.5 7.22386 8.5 7.5V10H12.5ZM8.5 13H14.8333C16.0965 13 17 13.9604 17 15C17 16.0396 16.0965 17 14.8333 17H9C8.72386 17 8.5 16.7761 8.5 16.5V13Z" fill="#515164"/>
</svg>
