<svg width="24" height="24" viewBox="0 0 24 24" fill="none" xmlns="http://www.w3.org/2000/svg">
<path d="M11 2C9.34315 2 8 3.34315 8 5H7C4.79086 5 3 6.79086 3 9V15C3 17.2091 4.79086 19 7 19H17C19.2091 19 21 17.2091 21 15V9C21 6.79086 19.2091 5 17 5H16C16 3.34315 14.6569 2 13 2H11ZM14 5H10C10 4.44772 10.4477 4 11 4H13C13.5523 4 14 4.44772 14 5ZM5 9C5 7.89543 5.89543 7 7 7V17C5.89543 17 5 16.1046 5 15V9ZM9 17V7H15V17H9ZM17 17V7C18.1046 7 19 7.89543 19 9V15C19 16.1046 18.1046 17 17 17Z" fill="#515164"/>
</svg>
