<svg width="24" height="24" viewBox="0 0 24 24" fill="none" xmlns="http://www.w3.org/2000/svg">
<path fill-rule="evenodd" clip-rule="evenodd" d="M13.6249 6.8375C13.6249 5.27039 14.8953 4 16.4624 4C18.0295 4 19.2999 5.27039 19.2999 6.8375C19.2999 8.40461 18.0295 9.675 16.4624 9.675L14.9249 9.6747V13.625H16.4624C18.0295 13.625 19.2999 14.8954 19.2999 16.4625C19.2999 18.0296 18.0295 19.3 16.4624 19.3C14.8953 19.3 13.6249 18.0296 13.6249 16.4625V14.925H9.67488V16.4629C9.67488 18.03 8.40449 19.3004 6.83738 19.3004C5.27027 19.3004 3.99988 18.03 3.99988 16.4629C3.99988 14.8959 5.2702 13.6255 6.83725 13.6254L8.37488 13.6251V9.67512H6.83738C5.27027 9.67512 3.99988 8.40473 3.99988 6.83762C3.99988 5.27051 5.27027 4.00012 6.83738 4.00012C8.40449 4.00012 9.67488 5.27051 9.67488 6.83762V8.375H13.6249V6.8375ZM16.4624 5.3C15.6132 5.3 14.9249 5.98836 14.9249 6.8375V8.3747L16.4624 8.375C17.3115 8.375 17.9999 7.68664 17.9999 6.8375C17.9999 5.98836 17.3115 5.3 16.4624 5.3ZM9.67488 9.675V13.6249L13.6249 13.625V9.675H9.67488ZM8.37488 8.375V6.83762C8.37488 5.98848 7.68652 5.30012 6.83738 5.30012C5.98824 5.30012 5.29988 5.98848 5.29988 6.83762C5.29988 7.68676 5.98824 8.37512 6.83738 8.37512L8.37488 8.375ZM14.9249 14.925V16.4625C14.9249 17.3116 15.6132 18 16.4624 18C17.3115 18 17.9999 17.3116 17.9999 16.4625C17.9999 15.6134 17.3115 14.925 16.4624 14.925H14.9249ZM8.37488 14.9251L6.8375 14.9254C5.98837 14.9254 5.29988 15.6138 5.29988 16.4629C5.29988 17.3121 5.98824 18.0004 6.83738 18.0004C7.68652 18.0004 8.37488 17.3121 8.37488 16.4629V14.9251Z" fill="#515164"/>
</svg>
