<svg width="24" height="24" viewBox="0 0 24 24" fill="none" xmlns="http://www.w3.org/2000/svg">
<path d="M3 8.85714C3 6.7269 4.7269 5 6.85714 5H17C19.2091 5 21 6.79086 21 9V15C21 17.2091 19.2091 19 17 19H12.3333L9.70994 20.9675C8.61785 21.7866 7.04426 21.2951 6.61257 20L6.26346 18.9526C4.4142 18.6613 3 17.0604 3 15.1293V8.85714ZM6.85714 7C5.83147 7 5 7.83147 5 8.85714V15.1293C5 16.1625 5.83753 17 6.87068 17C7.37834 17 7.82904 17.3248 7.98958 17.8065L8.50994 19.3675L11.1333 17.4C11.4795 17.1404 11.9006 17 12.3333 17H17C18.1046 17 19 16.1046 19 15V9C19 7.89543 18.1046 7 17 7H6.85714Z" fill="#515164"/>
<path d="M10.5611 9.875C9.91194 9.875 9.375 10.4939 9.375 11.16C9.375 11.4468 9.49269 11.7766 9.75349 12.1468C10.0131 12.5154 10.3778 12.871 10.7744 13.1894C11.1673 13.5047 11.5662 13.7634 11.8711 13.943C11.9166 13.9699 11.9597 13.9947 12 14.0176C12.0403 13.9947 12.0834 13.9699 12.1289 13.943C12.4338 13.7634 12.8327 13.5047 13.2256 13.1894C13.6222 12.871 13.9869 12.5154 14.2465 12.1468C14.5073 11.7766 14.625 11.4468 14.625 11.16C14.625 10.4939 14.088 9.875 13.4389 9.875C13.0475 9.875 12.8055 10.0531 12.6522 10.2246C12.4862 10.4102 12.249 10.5162 12 10.5162C11.751 10.5162 11.5138 10.4102 11.3478 10.2246C11.1945 10.0531 10.9524 9.875 10.5611 9.875ZM7.625 11.16C7.625 9.74113 8.74472 8.125 10.5611 8.125C11.1513 8.125 11.6283 8.29246 12 8.51637C12.3717 8.29246 12.8487 8.125 13.4389 8.125C15.2552 8.125 16.375 9.74113 16.375 11.16C16.375 11.9288 16.0629 12.6069 15.6772 13.1545C15.2902 13.7039 14.7916 14.1763 14.321 14.5541C13.8467 14.9348 13.3745 15.2403 13.0173 15.4508C12.8381 15.5564 12.684 15.6403 12.5683 15.6998C12.5112 15.7291 12.4592 15.7547 12.4157 15.7748C12.3951 15.7843 12.3687 15.7961 12.3408 15.8073C12.3279 15.8124 12.3039 15.8218 12.2746 15.8313C12.2602 15.8359 12.2346 15.8439 12.2023 15.8515C12.1819 15.8563 12.1023 15.875 12 15.875C11.8977 15.875 11.8188 15.8564 11.7983 15.8516C11.7661 15.844 11.7398 15.8359 11.7254 15.8313C11.696 15.8218 11.6721 15.8124 11.6592 15.8073C11.6313 15.7961 11.6048 15.7843 11.5842 15.7748C11.5407 15.7547 11.4888 15.7291 11.4316 15.6998C11.316 15.6403 11.1619 15.5564 10.9827 15.4508C10.6255 15.2403 10.1533 14.9348 9.67894 14.5541C9.20832 14.1763 8.70972 13.7039 8.32275 13.1545C7.93703 12.6069 7.625 11.9288 7.625 11.16Z" fill="#515164"/>
</svg>
