<svg width="24" height="24" viewBox="0 0 24 24" fill="none" xmlns="http://www.w3.org/2000/svg">
<path d="M14 5C14 4.44772 14.4477 4 15 4H19C19.5523 4 20 4.44772 20 5V9C20 9.55228 19.5523 10 19 10C18.4477 10 18 9.55228 18 9V7.41421L14.2071 11.2071C13.8166 11.5976 13.1834 11.5976 12.7929 11.2071C12.4024 10.8166 12.4024 10.1834 12.7929 9.79289L16.5858 6H15C14.4477 6 14 5.55228 14 5Z" fill="#515164"/>
<path d="M10 19C10 19.5523 9.55228 20 9 20H5C4.44772 20 4 19.5523 4 19V15C4 14.4477 4.44772 14 5 14C5.55228 14 6 14.4477 6 15V16.5858L9.79289 12.7929C10.1834 12.4024 10.8166 12.4024 11.2071 12.7929C11.5976 13.1834 11.5976 13.8166 11.2071 14.2071L7.41421 18H9C9.55228 18 10 18.4477 10 19Z" fill="#515164"/>
</svg>
