<svg width="24" height="24" viewBox="0 0 24 24" fill="none" xmlns="http://www.w3.org/2000/svg">
<path d="M9.5 5.5C9.89214 5.5 10.2481 5.7292 10.4104 6.0862L14.5 15.0834L16.0896 11.5862C16.2519 11.2292 16.6079 11 17 11H20C20.5523 11 21 11.4477 21 12C21 12.5523 20.5523 13 20 13H17.6439L15.4104 17.9138C15.2481 18.2708 14.8921 18.5 14.5 18.5C14.1079 18.5 13.7519 18.2708 13.5896 17.9138L9.5 8.91661L7.91037 12.4138C7.7481 12.7708 7.39214 13 7 13H4C3.44772 13 3 12.5523 3 12C3 11.4477 3.44772 11 4 11H6.35609L8.58963 6.0862C8.7519 5.7292 9.10786 5.5 9.5 5.5Z" fill="#515164"/>
</svg>
