<svg width="24" height="24" viewBox="0 0 24 24" fill="none" xmlns="http://www.w3.org/2000/svg">
<path d="M4.65576 7.30158C3.54375 6.00424 4.46557 4 6.17427 4H17.8258C19.5345 4 20.4564 6.00424 19.3443 7.30158L15.0001 12.3699V16.5C15.0001 17.1295 14.7037 17.7223 14.2001 18.1L12.2001 19.6C10.8816 20.5889 9.00005 19.6481 9.00005 18V12.3699L4.65576 7.30158ZM17.8258 6H6.17427L10.5186 11.0683C10.8293 11.4308 11.0001 11.8925 11.0001 12.3699V18L13.0001 16.5V12.3699C13.0001 11.8925 13.1708 11.4308 13.4815 11.0683L17.8258 6Z" fill="#515164"/>
</svg>
