<svg width="24" height="24" viewBox="0 0 24 24" fill="none" xmlns="http://www.w3.org/2000/svg">
<path d="M6 4C4.89543 4 4 4.89543 4 6V8C4 9.10457 4.89543 10 6 10V14C4.89543 14 4 14.8954 4 16V18C4 19.1046 4.89543 20 6 20H8C9.10457 20 10 19.1046 10 18H14C14 19.1046 14.8954 20 16 20H18C19.1046 20 20 19.1046 20 18V16C20 14.8954 19.1046 14 18 14V10C19.1046 10 20 9.10457 20 8V6C20 4.89543 19.1046 4 18 4H16C14.8954 4 14 4.89543 14 6H10C10 4.89543 9.10457 4 8 4H6ZM18 8H16V6H18V8ZM16 10V14C14.8954 14 14 14.8954 14 16H10C10 14.8954 9.10457 14 8 14V10C9.10457 10 10 9.10457 10 8H14C14 9.10457 14.8954 10 16 10ZM16 16H18V18H16V16ZM8 8H6V6H8V8ZM6 16H8V18H6V16Z" fill="#515164"/>
</svg>
