<svg width="24" height="24" viewBox="0 0 24 24" fill="none" xmlns="http://www.w3.org/2000/svg">
<path d="M7 5C4.79086 5 3 6.79086 3 9V15C3 17.2091 4.79086 19 7 19H17C19.2091 19 21 17.2091 21 15V9C21 6.79086 19.2091 5 17 5H7ZM5 9C5 7.89543 5.89543 7 7 7H17C18.1046 7 19 7.89543 19 9V12.5857L18.8285 12.4142C17.2664 10.8522 14.7337 10.8522 13.1716 12.4142L8.5859 17H7C5.89543 17 5 16.1046 5 15V9ZM11.4143 17L14.5859 13.8285C15.3669 13.0474 16.6332 13.0474 17.4143 13.8285L18.9642 15.3784C18.7874 16.302 17.9752 17 17 17H11.4143Z" fill="#515164"/>
<path d="M9 12C8.44772 12 8 11.5523 8 11C8 10.4477 8.44772 10 9 10C9.55228 10 10 10.4477 10 11C10 11.5523 9.55228 12 9 12ZM9 14C10.6569 14 12 12.6569 12 11C12 9.34315 10.6569 8 9 8C7.34315 8 6 9.34315 6 11C6 12.6569 7.34315 14 9 14Z" fill="#515164"/>
</svg>
