<svg width="24" height="24" viewBox="0 0 24 24" fill="none" xmlns="http://www.w3.org/2000/svg">
<path d="M5.00376 6.74885C5.74867 5.65476 6.98657 5 8.31017 5H15.3028C16.5017 5 17.6374 5.53778 18.3972 6.46525L20.7736 9.36631C20.92 9.54504 21 9.76896 21 10V15C21 17.2091 19.2091 19 17 19H7C4.79086 19 3 17.2091 3 15V10C3 9.79925 3.06042 9.60315 3.1734 9.43721L5.00376 6.74885ZM8.31017 7C7.64837 7 7.02942 7.32738 6.65697 7.87442L5.89062 9H6.97915C8.34551 9 9.5116 9.98783 9.73623 11.3356C9.80013 11.719 10.1318 12 10.5205 12H13.4791C13.8678 12 14.1995 11.719 14.2634 11.3356C14.4881 9.98783 15.6542 9 17.0205 9H17.8882L16.85 7.73263C16.4701 7.26889 15.9023 7 15.3028 7H8.31017ZM19 11H17.0205C16.6318 11 16.3001 11.281 16.2362 11.6644C16.0116 13.0122 14.8455 14 13.4791 14H10.5205C9.15417 14 7.98807 13.0122 7.76344 11.6644C7.69955 11.281 7.36783 11 6.97915 11H5V15C5 16.1046 5.89543 17 7 17H17C18.1046 17 19 16.1046 19 15V11Z" fill="#515164"/>
</svg>
