<svg width="24" height="24" viewBox="0 0 24 24" fill="none" xmlns="http://www.w3.org/2000/svg">
<path d="M17.5606 5.17194C17.8354 5.35797 18 5.66818 18 6V17C18 17.3318 17.8354 17.642 17.5606 17.8281C17.2859 18.0141 16.9367 18.0517 16.6286 17.9285L12.7015 16.3576C12.3148 16.203 11.9112 16.0975 11.5 16.0432V17.25C11.5 18.7688 10.2688 20 8.75 20C7.23122 20 6 18.7688 6 17.25V16C4.34315 16 3 14.6569 3 13V10C3 8.34315 4.34315 7 6 7H9.88159C11.1538 7 12.4143 6.75725 13.5955 6.28477L16.6286 5.07153C16.9367 4.94829 17.2859 4.98591 17.5606 5.17194ZM16 7.47704L14.3383 8.14173C12.9208 8.7087 11.4082 9 9.88159 9H6C5.44772 9 5 9.44772 5 10V13C5 13.5523 5.44772 14 6 14H7C7.55228 14 8 14.4477 8 15V17.25C8 17.6642 8.33579 18 8.75 18C9.16421 18 9.5 17.6642 9.5 17.25V15C9.5 14.4477 9.94772 14 10.5 14H10.8445C11.735 14 12.6174 14.1699 13.4442 14.5007L16 15.523V7.47704Z" fill="#515164"/>
<path d="M20 9C20.5523 9 21 9.44772 21 10V14C21 14.5523 20.5523 15 20 15C19.4477 15 19 14.5523 19 14V10C19 9.44772 19.4477 9 20 9Z" fill="#515164"/>
</svg>
