<svg width="24" height="24" viewBox="0 0 24 24" fill="none" xmlns="http://www.w3.org/2000/svg">
<g clip-path="url(#clip0_5_101)">
<g filter="url(#filter0_d_5_101)">
<path fill-rule="evenodd" clip-rule="evenodd" d="M20 12C20 16.4183 16.4183 20 12 20C7.58172 20 4 16.4183 4 12C4 7.58172 7.58172 4 12 4C16.4183 4 20 7.58172 20 12ZM13 9C13 8.44772 12.5523 8 12 8C11.4477 8 11 8.44772 11 9V11.4648C11 12.1335 11.3342 12.758 11.8906 13.1289L14.4453 14.8321C14.9048 15.1384 15.5257 15.0142 15.8321 14.5547C16.1384 14.0952 16.0142 13.4743 15.5547 13.1679L13 11.4648V9Z" fill="white"/>
</g>
</g>
<defs>
<filter id="filter0_d_5_101" x="0.552188" y="2.27609" width="22.8956" height="22.8956" filterUnits="userSpaceOnUse" color-interpolation-filters="sRGB">
<feFlood flood-opacity="0" result="BackgroundImageFix"/>
<feColorMatrix in="SourceAlpha" type="matrix" values="0 0 0 0 0 0 0 0 0 0 0 0 0 0 0 0 0 0 127 0" result="hardAlpha"/>
<feOffset dy="1.72391"/>
<feGaussianBlur stdDeviation="1.72391"/>
<feComposite in2="hardAlpha" operator="out"/>
<feColorMatrix type="matrix" values="0 0 0 0 0.0352941 0 0 0 0 0.0627451 0 0 0 0 0.109804 0 0 0 0.12 0"/>
<feBlend mode="normal" in2="BackgroundImageFix" result="effect1_dropShadow_5_101"/>
<feBlend mode="normal" in="SourceGraphic" in2="effect1_dropShadow_5_101" result="shape"/>
</filter>
<clipPath id="clip0_5_101">
<rect width="24" height="24" fill="white"/>
</clipPath>
</defs>
</svg>
