<svg width="24" height="24" viewBox="0 0 24 24" fill="none" xmlns="http://www.w3.org/2000/svg">
<g filter="url(#filter0_d_6_235)">
<path d="M3 7.50002C3 5.5118 4.61178 3.90002 6.6 3.90002H17.4C19.3882 3.90002 21 5.5118 21 7.50002V12.9C21 14.8883 19.3882 16.5 17.4 16.5H15.6V18.3H16.5C16.9971 18.3 17.4 18.703 17.4 19.2C17.4 19.6971 16.9971 20.1 16.5 20.1H7.5C7.00294 20.1 6.6 19.6971 6.6 19.2C6.6 18.703 7.00294 18.3 7.5 18.3H8.4V16.5H6.6C4.61177 16.5 3 14.8883 3 12.9V7.50002ZM6.6 14.7H17.4C18.3941 14.7 19.2 13.8941 19.2 12.9V7.50002C19.2 6.50591 18.3941 5.70002 17.4 5.70002H6.6C5.60589 5.70002 4.8 6.50591 4.8 7.50002V12.9C4.8 13.8941 5.60589 14.7 6.6 14.7Z" fill="white"/>
</g>
<defs>
<filter id="filter0_d_6_235" x="0.908096" y="2.85407" width="22.1838" height="20.3838" filterUnits="userSpaceOnUse" color-interpolation-filters="sRGB">
<feFlood flood-opacity="0" result="BackgroundImageFix"/>
<feColorMatrix in="SourceAlpha" type="matrix" values="0 0 0 0 0 0 0 0 0 0 0 0 0 0 0 0 0 0 127 0" result="hardAlpha"/>
<feOffset dy="1.04595"/>
<feGaussianBlur stdDeviation="1.04595"/>
<feComposite in2="hardAlpha" operator="out"/>
<feColorMatrix type="matrix" values="0 0 0 0 0.0352941 0 0 0 0 0.0627451 0 0 0 0 0.109804 0 0 0 0.12 0"/>
<feBlend mode="normal" in2="BackgroundImageFix" result="effect1_dropShadow_6_235"/>
<feBlend mode="normal" in="SourceGraphic" in2="effect1_dropShadow_6_235" result="shape"/>
</filter>
</defs>
</svg>
