<svg width="24" height="24" viewBox="0 0 24 24" fill="none" xmlns="http://www.w3.org/2000/svg">
<g filter="url(#filter0_d_5_99)">
<path fill-rule="evenodd" clip-rule="evenodd" d="M4 12C4 7.58172 7.58172 4 12 4C16.4183 4 20 7.58172 20 12C20 16.4183 16.4183 20 12 20C7.58172 20 4 16.4183 4 12ZM15.3381 9.40803C15.6651 9.70524 15.6892 10.2112 15.392 10.5381L11.392 14.9381C11.2448 15.1 11.0378 15.1946 10.819 15.1998C10.6003 15.205 10.389 15.1204 10.2343 14.9657L8.63433 13.3657C8.32191 13.0533 8.32191 12.5467 8.63433 12.2343C8.94674 11.9219 9.45328 11.9219 9.7657 12.2343L10.7724 13.241L14.2081 9.46185C14.5053 9.13492 15.0112 9.11083 15.3381 9.40803Z" fill="white"/>
</g>
<defs>
<filter id="filter0_d_5_99" x="1.67566" y="2.83783" width="20.6487" height="20.6487" filterUnits="userSpaceOnUse" color-interpolation-filters="sRGB">
<feFlood flood-opacity="0" result="BackgroundImageFix"/>
<feColorMatrix in="SourceAlpha" type="matrix" values="0 0 0 0 0 0 0 0 0 0 0 0 0 0 0 0 0 0 127 0" result="hardAlpha"/>
<feOffset dy="1.16217"/>
<feGaussianBlur stdDeviation="1.16217"/>
<feComposite in2="hardAlpha" operator="out"/>
<feColorMatrix type="matrix" values="0 0 0 0 0.0352941 0 0 0 0 0.0627451 0 0 0 0 0.109804 0 0 0 0.12 0"/>
<feBlend mode="normal" in2="BackgroundImageFix" result="effect1_dropShadow_5_99"/>
<feBlend mode="normal" in="SourceGraphic" in2="effect1_dropShadow_5_99" result="shape"/>
</filter>
</defs>
</svg>
