<svg width="24" height="26" viewBox="0 0 24 26" fill="none" xmlns="http://www.w3.org/2000/svg">
<g filter="url(#filter0_d_80_61)">
<path d="M9.67505 3.93177C11.0658 2.93835 12.9342 2.93835 14.325 3.93177L18.325 6.78892C19.3761 7.53976 20 8.75205 20 10.0438V16C20 18.2091 18.2091 20 16 20H15C13.8954 20 13 19.1046 13 18V15.5C13 14.9477 12.5523 14.5 12 14.5C11.4477 14.5 11 14.9477 11 15.5V18C11 19.1046 10.1046 20 9 20H8C5.79086 20 4 18.2091 4 16V10.0438C4 8.75205 4.62386 7.53976 5.67505 6.78892L9.67505 3.93177Z" fill="white"/>
</g>
<defs>
<filter id="filter0_d_80_61" x="0.121212" y="1.24731" width="23.7576" height="24.5709" filterUnits="userSpaceOnUse" color-interpolation-filters="sRGB">
<feFlood flood-opacity="0" result="BackgroundImageFix"/>
<feColorMatrix in="SourceAlpha" type="matrix" values="0 0 0 0 0 0 0 0 0 0 0 0 0 0 0 0 0 0 127 0" result="hardAlpha"/>
<feOffset dy="1.93939"/>
<feGaussianBlur stdDeviation="1.93939"/>
<feComposite in2="hardAlpha" operator="out"/>
<feColorMatrix type="matrix" values="0 0 0 0 0.0352941 0 0 0 0 0.0627451 0 0 0 0 0.109804 0 0 0 0.12 0"/>
<feBlend mode="normal" in2="BackgroundImageFix" result="effect1_dropShadow_80_61"/>
<feBlend mode="normal" in="SourceGraphic" in2="effect1_dropShadow_80_61" result="shape"/>
</filter>
</defs>
</svg>
