<svg width="24" height="24" viewBox="0 0 24 24" fill="none" xmlns="http://www.w3.org/2000/svg">
<g filter="url(#filter0_d_6_240)">
<path d="M18.4205 4.4545C17.9812 4.01517 17.2688 4.01517 16.8295 4.4545C16.3902 4.89384 16.3902 5.60616 16.8295 6.0455L17.159 6.375H13.3081C11.7565 6.375 10.3144 7.17429 9.49209 8.49L8.66241 9.8175C8.25125 10.4754 7.53019 10.875 6.75441 10.875H4.125C3.50368 10.875 3 11.3787 3 12C3 12.6213 3.50368 13.125 4.125 13.125H6.75441C7.53019 13.125 8.25125 13.5246 8.66241 14.1825L9.49209 15.51C10.3144 16.8257 11.7565 17.625 13.3081 17.625H17.159L16.8295 17.9545C16.3902 18.3938 16.3902 19.1062 16.8295 19.5455C17.2688 19.9848 17.9812 19.9848 18.4205 19.5455L20.6705 17.2955C21.1098 16.8562 21.1098 16.1438 20.6705 15.7045L18.4205 13.4545C17.9812 13.0152 17.2688 13.0152 16.8295 13.4545C16.3902 13.8938 16.3902 14.6062 16.8295 15.0455L17.159 15.375H13.3081C12.5323 15.375 11.8113 14.9754 11.4001 14.3175L10.5704 12.99C10.3367 12.6161 10.053 12.284 9.73099 12C10.053 11.716 10.3367 11.3839 10.5704 11.01L11.4001 9.6825C11.8113 9.02464 12.5323 8.625 13.3081 8.625H17.159L16.8295 8.9545C16.3902 9.39385 16.3902 10.1062 16.8295 10.5455C17.2688 10.9848 17.9812 10.9848 18.4205 10.5455L20.6705 8.2955C21.1098 7.85616 21.1098 7.14384 20.6705 6.7045L18.4205 4.4545Z" fill="white"/>
</g>
<defs>
<filter id="filter0_d_6_240" x="0.646609" y="2.9483" width="22.7068" height="20.4568" filterUnits="userSpaceOnUse" color-interpolation-filters="sRGB">
<feFlood flood-opacity="0" result="BackgroundImageFix"/>
<feColorMatrix in="SourceAlpha" type="matrix" values="0 0 0 0 0 0 0 0 0 0 0 0 0 0 0 0 0 0 127 0" result="hardAlpha"/>
<feOffset dy="1.1767"/>
<feGaussianBlur stdDeviation="1.1767"/>
<feComposite in2="hardAlpha" operator="out"/>
<feColorMatrix type="matrix" values="0 0 0 0 0.0352941 0 0 0 0 0.0627451 0 0 0 0 0.109804 0 0 0 0.12 0"/>
<feBlend mode="normal" in2="BackgroundImageFix" result="effect1_dropShadow_6_240"/>
<feBlend mode="normal" in="SourceGraphic" in2="effect1_dropShadow_6_240" result="shape"/>
</filter>
</defs>
</svg>
