<svg width="24" height="25" viewBox="0 0 24 25" fill="none" xmlns="http://www.w3.org/2000/svg">
<g filter="url(#filter0_d_5_100)">
<path fill-rule="evenodd" clip-rule="evenodd" d="M8.90715 3.57322C7.80485 3.56574 6.65375 3.98938 6.17279 4.88281C5.99445 5.21409 6.05249 5.59588 6.26171 5.8574L7.30536 7.16196C4.51025 7.69302 3.03641 9.57111 3.0002 11.328C2.98954 11.8452 3.41061 12.2336 3.88812 12.2336H5.30587C4.81816 13.2691 4.67086 14.4824 5.06232 15.7107C5.2286 16.2324 5.8203 16.4781 6.30586 16.2353L9.52831 14.6241L9.18519 18.7415H7.92113C7.45573 18.7415 7.07845 19.1188 7.07845 19.5842C7.07845 20.0496 7.45573 20.4269 7.92113 20.4269H16.0789C16.5443 20.4269 16.9216 20.0496 16.9216 19.5842C16.9216 19.1188 16.5443 18.7415 16.0789 18.7415H14.8148L14.4717 14.6241L17.6941 16.2353C18.1797 16.4781 18.7714 16.2324 18.9377 15.7107C19.3291 14.4824 19.1818 13.2691 18.6941 12.2336H20.1119C20.5894 12.2336 21.0105 11.8452 20.9998 11.328C20.9636 9.57111 19.4898 7.69302 16.6946 7.16196L17.7383 5.8574C17.9475 5.59588 18.0055 5.21409 17.8272 4.88281C17.3463 3.98938 16.1951 3.56574 15.0929 3.57322C14.1125 3.57987 13.0134 3.91147 12 4.69612C10.9866 3.91147 9.88752 3.57987 8.90715 3.57322ZM12.707 13.7417L12 13.3883L11.2931 13.7417L10.8764 18.7415H13.1236L12.707 13.7417Z" fill="white"/>
</g>
<defs>
<filter id="filter0_d_5_100" x="0.094578" y="2.12041" width="23.8108" height="22.6646" filterUnits="userSpaceOnUse" color-interpolation-filters="sRGB">
<feFlood flood-opacity="0" result="BackgroundImageFix"/>
<feColorMatrix in="SourceAlpha" type="matrix" values="0 0 0 0 0 0 0 0 0 0 0 0 0 0 0 0 0 0 127 0" result="hardAlpha"/>
<feOffset dy="1.45271"/>
<feGaussianBlur stdDeviation="1.45271"/>
<feComposite in2="hardAlpha" operator="out"/>
<feColorMatrix type="matrix" values="0 0 0 0 0.0352941 0 0 0 0 0.0627451 0 0 0 0 0.109804 0 0 0 0.12 0"/>
<feBlend mode="normal" in2="BackgroundImageFix" result="effect1_dropShadow_5_100"/>
<feBlend mode="normal" in="SourceGraphic" in2="effect1_dropShadow_5_100" result="shape"/>
</filter>
</defs>
</svg>
