<svg width="26" height="24" viewBox="0 0 26 24" fill="none" xmlns="http://www.w3.org/2000/svg">
<g filter="url(#filter0_d_6_110)">
<path d="M16.3333 8.66673C15.597 8.66673 15 8.06977 15 7.33339C15 6.59701 15.597 6.00006 16.3333 6.00006H21.6667C22.403 6.00006 23 6.59701 23 7.33339V12.6667C23 13.4031 22.403 14.0001 21.6667 14.0001C20.9303 14.0001 20.3333 13.4031 20.3333 12.6667V10.5523L15.3637 15.522L15.3419 15.5438L15.3419 15.5438C15.2296 15.6561 15.0956 15.7903 14.9678 15.8988C14.8197 16.0245 14.5949 16.1919 14.2847 16.2927C13.883 16.4232 13.4503 16.4232 13.0486 16.2927C12.7385 16.1919 12.5137 16.0245 12.3656 15.8988C12.2378 15.7903 12.1037 15.6562 11.9915 15.5439L11.9914 15.5438L11.9696 15.522L9.66667 13.219L5.27614 17.6095C4.75544 18.1302 3.91122 18.1302 3.39052 17.6095C2.86983 17.0888 2.86983 16.2446 3.39052 15.7239L7.96961 11.1448L7.99143 11.123C8.10369 11.0107 8.23775 10.8765 8.36556 10.768C8.51365 10.6423 8.73845 10.4749 9.04863 10.3741C9.45032 10.2436 9.88301 10.2436 10.2847 10.3741C10.5949 10.4749 10.8197 10.6423 10.9678 10.768C11.0956 10.8765 11.2297 11.0107 11.3419 11.123L11.3637 11.1448L13.6667 13.4478L18.4477 8.66673H16.3333Z" fill="white"/>
</g>
<defs>
<filter id="filter0_d_6_110" x="0.0115664" y="4.50584" width="25.9769" height="17.9769" filterUnits="userSpaceOnUse" color-interpolation-filters="sRGB">
<feFlood flood-opacity="0" result="BackgroundImageFix"/>
<feColorMatrix in="SourceAlpha" type="matrix" values="0 0 0 0 0 0 0 0 0 0 0 0 0 0 0 0 0 0 127 0" result="hardAlpha"/>
<feOffset dy="1.49422"/>
<feGaussianBlur stdDeviation="1.49422"/>
<feComposite in2="hardAlpha" operator="out"/>
<feColorMatrix type="matrix" values="0 0 0 0 0.0352941 0 0 0 0 0.0627451 0 0 0 0 0.109804 0 0 0 0.12 0"/>
<feBlend mode="normal" in2="BackgroundImageFix" result="effect1_dropShadow_6_110"/>
<feBlend mode="normal" in="SourceGraphic" in2="effect1_dropShadow_6_110" result="shape"/>
</filter>
</defs>
</svg>
