<svg width="24" height="24" viewBox="0 0 24 24" fill="none" xmlns="http://www.w3.org/2000/svg">
<g filter="url(#filter0_d_6_115)">
<path fill-rule="evenodd" clip-rule="evenodd" d="M8.85 2.05005C8.35294 2.05005 7.95 2.45299 7.95 2.95005C7.95 3.44711 8.35294 3.85005 8.85 3.85005H11.1V4.79948C7.05004 5.24718 3.9 8.68075 3.9 12.85C3.9 17.3236 7.52649 20.9501 12 20.9501C16.4735 20.9501 20.1 17.3236 20.1 12.85C20.1 8.68075 16.95 5.24718 12.9 4.79948V3.85005H15.15C15.6471 3.85005 16.05 3.44711 16.05 2.95005C16.05 2.45299 15.6471 2.05005 15.15 2.05005H8.85ZM6.3364 5.83645C6.68787 5.48497 6.68787 4.91512 6.3364 4.56365C5.98492 4.21218 5.41508 4.21218 5.0636 4.56365L3.2636 6.36365C2.91213 6.71513 2.91213 7.28497 3.2636 7.63645C3.61508 7.98792 4.18492 7.98792 4.5364 7.63645L6.3364 5.83645ZM18.9364 4.56365C18.5849 4.21218 18.0151 4.21218 17.6636 4.56365C17.3121 4.91512 17.3121 5.48497 17.6636 5.83645L19.4636 7.63645C19.8151 7.98792 20.3849 7.98792 20.7364 7.63645C21.0879 7.28497 21.0879 6.71513 20.7364 6.36365L18.9364 4.56365ZM12.9 9.70002C12.9 9.20297 12.497 8.80002 12 8.80002C11.5029 8.80002 11.1 9.20297 11.1 9.70002V12.3277C11.1 12.9737 11.4461 13.5701 12.0069 13.8906L14.7035 15.4314C15.135 15.6781 15.6848 15.5281 15.9314 15.0965C16.178 14.665 16.0281 14.1152 15.5965 13.8686L12.9 12.3277V9.70002Z" fill="white"/>
</g>
<defs>
<filter id="filter0_d_6_115" x="1.11729" y="1.10869" width="21.7654" height="22.6655" filterUnits="userSpaceOnUse" color-interpolation-filters="sRGB">
<feFlood flood-opacity="0" result="BackgroundImageFix"/>
<feColorMatrix in="SourceAlpha" type="matrix" values="0 0 0 0 0 0 0 0 0 0 0 0 0 0 0 0 0 0 127 0" result="hardAlpha"/>
<feOffset dy="0.941357"/>
<feGaussianBlur stdDeviation="0.941357"/>
<feComposite in2="hardAlpha" operator="out"/>
<feColorMatrix type="matrix" values="0 0 0 0 0.0352941 0 0 0 0 0.0627451 0 0 0 0 0.109804 0 0 0 0.12 0"/>
<feBlend mode="normal" in2="BackgroundImageFix" result="effect1_dropShadow_6_115"/>
<feBlend mode="normal" in="SourceGraphic" in2="effect1_dropShadow_6_115" result="shape"/>
</filter>
</defs>
</svg>
