<svg width="24" height="24" viewBox="0 0 24 24" fill="none" xmlns="http://www.w3.org/2000/svg">
<path d="M7 7C5.89543 7 5 7.89543 5 9V15C5 16.1046 5.89543 17 7 17H10.5C11.0523 17 11.5 17.4477 11.5 18C11.5 18.5523 11.0523 19 10.5 19H7C4.79086 19 3 17.2091 3 15V9C3 6.79086 4.79086 5 7 5H17C19.2091 5 21 6.79086 21 9C21 9.55228 20.5523 10 20 10C19.4477 10 19 9.55228 19 9C19 7.89543 18.1046 7 17 7H7Z" fill="#515164"/>
<path d="M6 10C6 9.44772 6.44772 9 7 9H11C11.5523 9 12 9.44772 12 10C12 10.5523 11.5523 11 11 11H7C6.44772 11 6 10.5523 6 10Z" fill="#515164"/>
<path d="M7 13C6.44772 13 6 13.4477 6 14C6 14.5523 6.44772 15 7 15H9C9.55228 15 10 14.5523 10 14C10 13.4477 9.55228 13 9 13H7Z" fill="#515164"/>
<path d="M17.2929 12.2929C17.6834 11.9024 18.3166 11.9024 18.7071 12.2929L21.7071 15.2929C22.0976 15.6834 22.0976 16.3166 21.7071 16.7071L18.7071 19.7071C18.3166 20.0976 17.6834 20.0976 17.2929 19.7071C16.9024 19.3166 16.9024 18.6834 17.2929 18.2929L18.5858 17H14C13.4477 17 13 16.5523 13 16C13 15.4477 13.4477 15 14 15H18.5858L17.2929 13.7071C16.9024 13.3166 16.9024 12.6834 17.2929 12.2929Z" fill="#515164"/>
</svg>
