<svg width="24" height="24" viewBox="0 0 24 24" fill="none" xmlns="http://www.w3.org/2000/svg">
<path d="M13.7929 4.79289C15.288 3.2978 17.712 3.2978 19.2071 4.79289C20.7022 6.28798 20.7022 8.71201 19.2071 10.2071L11.7071 17.7071C11.5841 17.8302 11.431 17.919 11.2631 17.9648L5.76314 19.4648C5.41693 19.5592 5.04667 19.4609 4.79292 19.2071C4.53917 18.9534 4.44084 18.5831 4.53526 18.2369L6.03526 12.7369C6.08105 12.569 6.16986 12.4159 6.29292 12.2929L13.7929 4.79289ZM17.7929 6.2071C17.0789 5.49306 15.9212 5.49306 15.2071 6.2071L8.41424 13L11 15.5858L17.7929 8.79289C18.507 8.07885 18.507 6.92115 17.7929 6.2071ZM9.07444 16.4886L7.51139 14.9256L6.92524 17.0748L9.07444 16.4886Z" fill="#515164"/>
</svg>
