<svg width="24" height="24" viewBox="0 0 24 24" fill="none" xmlns="http://www.w3.org/2000/svg">
<path d="M13.5 17.5C13.5 18.3284 12.8284 19 12 19C11.1716 19 10.5 18.3284 10.5 17.5C10.5 16.6716 11.1716 16 12 16C12.8284 16 13.5 16.6716 13.5 17.5Z" fill="#515164"/>
<path d="M10.6019 7.49741C10.2633 7.79836 10 8.27136 10 9C10 9.55228 9.55228 10 9 10C8.44772 10 8 9.55228 8 9C8 7.72864 8.4867 6.70164 9.27314 6.00259C10.0412 5.3199 11.0369 5 12 5C13.0752 5 14.0668 5.52755 14.7696 6.23039C15.4725 6.93324 16 7.92477 16 9C16 9.93373 15.7613 10.6641 15.3585 11.2572C14.9746 11.8224 14.4766 12.205 14.1 12.4875C14.0744 12.5067 14.0493 12.5255 14.0249 12.5438C13.6519 12.8232 13.4215 12.9957 13.2496 13.2106C13.1073 13.3885 13 13.6066 13 14C13 14.5523 12.5523 15 12 15C11.4477 15 11 14.5523 11 14C11 13.1434 11.2677 12.4865 11.6879 11.9612C12.0292 11.5346 12.4686 11.2082 12.7953 10.9655C12.8317 10.9385 12.8667 10.9125 12.9 10.8875C13.2734 10.6075 13.5254 10.3964 13.704 10.1334C13.8637 9.89837 14 9.56627 14 9C14 8.57523 13.7775 8.06676 13.3554 7.64461C12.9332 7.22245 12.4248 7 12 7C11.4631 7 10.9588 7.1801 10.6019 7.49741Z" fill="#515164"/>
</svg>
