<svg width="24" height="24" viewBox="0 0 24 24" fill="none" xmlns="http://www.w3.org/2000/svg">
<path d="M11 16C11 15.4477 11.4477 15 12 15C12.5523 15 13 15.4477 13 16C13 16.5523 12.5523 17 12 17C11.4477 17 11 16.5523 11 16Z" fill="#515164"/>
<path d="M12 18C8.68629 18 6 15.3137 6 12C6 8.68629 8.68629 6 12 6C15.3137 6 18 8.68629 18 12C18 15.3137 15.3137 18 12 18ZM12 20C16.4183 20 20 16.4183 20 12C20 7.58172 16.4183 4 12 4C7.58172 4 4 7.58172 4 12C4 16.4183 7.58172 20 12 20Z" fill="#515164"/>
<path d="M12 9.5C11.4477 9.5 11 9.94772 11 10.5C11 11.0523 10.5523 11.5 10 11.5C9.44772 11.5 9 11.0523 9 10.5C9 8.84315 10.3431 7.5 12 7.5C13.6569 7.5 15 8.84315 15 10.5C15 11.8062 14.1652 12.9175 13 13.3293V13.5C13 14.0523 12.5523 14.5 12 14.5C11.4477 14.5 11 14.0523 11 13.5V12.5C11 11.9477 11.4477 11.5 12 11.5C12.5523 11.5 13 11.0523 13 10.5C13 9.94772 12.5523 9.5 12 9.5Z" fill="#515164"/>
</svg>
