<svg width="24" height="24" viewBox="0 0 24 24" fill="none" xmlns="http://www.w3.org/2000/svg">
<path d="M7 5C4.79086 5 3 6.79086 3 9V15C3 17.2091 4.79086 19 7 19H17C19.2091 19 21 17.2091 21 15V9C21 6.79086 19.2091 5 17 5H7ZM8 7L8 17H7C5.89543 17 5 16.1046 5 15V9C5 7.89543 5.89543 7 7 7H8ZM10 17L10 7H17C18.1046 7 19 7.89543 19 9V15C19 16.1046 18.1046 17 17 17H10Z" fill="#515164"/>
<path d="M13.8813 9.38128C13.5396 9.72299 13.5396 10.277 13.8813 10.6187L14.3876 11.125H12C11.5168 11.125 11.125 11.5168 11.125 12C11.125 12.4832 11.5168 12.875 12 12.875H14.3876L13.8813 13.3813C13.5396 13.723 13.5396 14.277 13.8813 14.6187C14.223 14.9604 14.777 14.9604 15.1187 14.6187L17.1187 12.6187C17.2828 12.4546 17.375 12.2321 17.375 12C17.375 11.7679 17.2828 11.5454 17.1187 11.3813L15.1187 9.38128C14.777 9.03957 14.223 9.03957 13.8813 9.38128Z" fill="#515164"/>
</svg>
