<svg width="24" height="24" viewBox="0 0 24 24" fill="none" xmlns="http://www.w3.org/2000/svg">
<path d="M11.6055 5C10.2681 5 9.01913 5.6684 8.27727 6.7812C7.42941 8.05298 7.38409 9.68925 8.14132 11H5C4.44772 11 4 11.4477 4 12C4 12.5523 4.44772 13 5 13H12.3944C13.0631 13 13.6875 13.3342 14.0585 13.8906C14.5063 14.5624 14.5063 15.4376 14.0585 16.1094C13.6875 16.6658 13.0631 17 12.3944 17H11.0811C10.5672 17 10.1111 16.6712 9.9486 16.1838C9.77395 15.6598 9.20763 15.3767 8.68369 15.5513C8.15975 15.726 7.87659 16.2923 8.05123 16.8162C8.48594 18.1204 9.70638 19 11.0811 19H12.3944C13.7318 19 14.9807 18.3316 15.7226 17.2188C16.5704 15.947 16.6157 14.3107 15.8585 13H19C19.5523 13 20 12.5523 20 12C20 11.4477 19.5523 11 19 11H11.6055C10.9368 11 10.3123 10.6658 9.94137 10.1094C9.4935 9.4376 9.4935 8.5624 9.94137 7.8906C10.3123 7.3342 10.9368 7 11.6055 7H12.9188C13.4326 7 13.8888 7.32878 14.0512 7.81623C14.2259 8.34017 14.7922 8.62333 15.3161 8.44868C15.8401 8.27404 16.1232 7.70772 15.9486 7.18377C15.5139 5.87964 14.2934 5 12.9188 5H11.6055Z" fill="#515164"/>
</svg>
