<svg width="24" height="24" viewBox="0 0 24 24" fill="none" xmlns="http://www.w3.org/2000/svg">
<path d="M11.2929 4.29289C11.6834 3.90237 12.3166 3.90237 12.7071 4.29289L15.7071 7.29289C16.0976 7.68342 16.0976 8.31658 15.7071 8.70711C15.3166 9.09763 14.6834 9.09763 14.2929 8.70711L13 7.41421V14C13 14.5523 12.5523 15 12 15C11.4477 15 11 14.5523 11 14V7.41421L9.70711 8.70711C9.31658 9.09763 8.68342 9.09763 8.29289 8.70711C7.90237 8.31658 7.90237 7.68342 8.29289 7.29289L11.2929 4.29289ZM5 14C5.55228 14 6 14.4477 6 15V16C6 17.1046 6.89543 18 8 18H16C17.1046 18 18 17.1046 18 16V15C18 14.4477 18.4477 14 19 14C19.5523 14 20 14.4477 20 15V16C20 18.2091 18.2091 20 16 20H8C5.79086 20 4 18.2091 4 16V15C4 14.4477 4.44772 14 5 14Z" fill="#515164"/>
</svg>
